<?xml version="1.0" standalone="no"?>
<!DOCTYPE svg PUBLIC "-//W3C//DTD SVG 1.1//EN" "http://www.w3.org/Graphics/SVG/1.1/DTD/svg11.dtd" >
<svg>
<metadata>
Created by FontForge 20120731 at Wed Apr 13 13:08:31 2016
 By ,,,
Copyright (c) 2013 by Lucas Sharp. All rights reserved.
</metadata>
<defs>
<font id="SharpSansNo1-ThinItalic" horiz-adv-x="588" >
  <font-face 
    font-family="Sharp Sans No1 Thin Italic"
    font-weight="600"
    font-style="italic"
    font-stretch="normal"
    units-per-em="1000"
    panose-1="0 0 0 0 0 0 0 0 0 0"
    ascent="750"
    descent="-250"
    x-height="500"
    cap-height="730"
    bbox="-137 -471 1802 1074"
    underline-thickness="50"
    underline-position="-50"
    unicode-range="U+0020-F60B"
  />
<missing-glyph horiz-adv-x="900" 
d="M85 0v730h730v-730h-730zM450 331l-283 -283h566zM167 682l283 -283l283 283h-566zM484 365l283 -283v566zM416 365l-283 283v-566z" />
    <glyph glyph-name="interrobang" unicode="&#x21;&#x3f;" horiz-adv-x="489" 
d="M225 192l1 7q3 17 17.5 100.5t29.5 169t26 144.5l19 110q-18 2 -26 2q-87 0 -147 -54l-12 10q64 59 161 59q88 0 144.5 -50.5t40.5 -134.5q-7 -37 -24.5 -65t-39.5 -44.5t-48 -38t-49 -44.5t-43.5 -65.5t-30.5 -98.5l-1 -7h-18zM463 559q11 66 -26 108.5t-103 53.5
l-18 -108q-51 -273 -61 -325q17 41 42.5 73t50.5 51.5t49 38.5t42 46t24 62zM193 0l24 137h18l-24 -137h-18z" />
    <glyph glyph-name="interrobangdown" unicode="&#xa1;&#xbf;" horiz-adv-x="489" 
d="M200 -240q-88 0 -144.5 50.5t-40.5 134.5q7 37 24.5 65t39.5 44.5t48 38t49 44.5t43.5 65.5t30.5 98.5l1 7h18l-1 -7q-3 -17 -17.5 -100.5t-29.5 -169t-26 -144.5l-19 -110q16 -2 26 -2q87 0 147 54l12 -10q-64 -59 -161 -59zM31 -59q-12 -65 25 -108t103 -54l19 108
q35 200 61 324q-17 -41 -43 -73t-51 -51.5t-48.5 -38.5t-41.5 -45.5t-24 -61.5zM259 363l24 137h18l-24 -137h-18z" />
    <glyph glyph-name=".notdef" horiz-adv-x="900" 
d="M85 0v730h730v-730h-730zM450 331l-283 -283h566zM167 682l283 -283l283 283h-566zM484 365l283 -283v566zM416 365l-283 283v-566z" />
    <glyph glyph-name=".null" horiz-adv-x="0" 
 />
    <glyph glyph-name="nonmarkingreturn" horiz-adv-x="333" 
 />
    <glyph glyph-name="space" unicode=" " horiz-adv-x="260" 
 />
    <glyph glyph-name="exclam" unicode="!" horiz-adv-x="227" 
d="M92 209q4 20 29.5 173.5t39.5 230.5l20 117h18l-20 -117q-13 -71 -41 -222t-33 -182h-13zM53 0l24 137h18l-24 -137h-18z" />
    <glyph glyph-name="quotedbl" unicode="&#x22;" horiz-adv-x="234" 
d="M107 500q2 23 21 146l15 84h17l-15 -84q-11 -72 -28 -146h-10zM194 500q2 23 21 146l15 84h17l-15 -84q-11 -72 -28 -146h-10z" />
    <glyph glyph-name="numbersign" unicode="#" horiz-adv-x="820" 
d="M489 0l41 237h-254l-41 -237h-17l41 237h-206l2 15h207l42 238h-206l2 15h206l40 225h17l-40 -225h254l40 225h17l-40 -225h216l-2 -15h-216l-42 -238h215l-2 -15h-216l-41 -237h-17zM321 490l-42 -238h254l42 238h-254z" />
    <glyph glyph-name="dollar" unicode="$" 
d="M215 -117l19 110q-141 14 -214 117l14 10q68 -98 203 -113l66 377q-50 22 -76 36t-58.5 39.5t-43.5 58.5t-3 77q11 64 66.5 104.5t152.5 40.5q16 0 24 -1l18 104h17l-19 -105q117 -15 189 -101l-13 -11q-67 84 -178 97l-59 -330q40 -18 62.5 -29.5t53.5 -33.5t46 -43.5
t24 -55t3 -73.5q-12 -77 -70.5 -122.5t-153.5 -45.5q-24 0 -35 1l-19 -108h-16zM492 158q7 45 -3.5 80t-40 61t-57 42t-73.5 36l-66 -371q11 -1 34 -1q84 0 139.5 42t66.5 111zM138 591q-6 -38 3.5 -67.5t38.5 -53t54 -37.5t71 -34l57 325q-7 1 -22 1q-89 0 -140.5 -37
t-61.5 -97z" />
    <glyph glyph-name="percent" unicode="%" horiz-adv-x="843" 
d="M55 0l755 730h23l-755 -730h-23zM285 420q-73 0 -116.5 53t-30.5 127q11 61 58.5 100.5t106.5 39.5q73 0 116.5 -54.5t30.5 -127.5q-11 -61 -58 -99.5t-107 -38.5zM285 435q54 0 97 36t53 90q11 64 -26.5 114t-105.5 50q-55 0 -98 -36.5t-52 -91.5q-11 -63 27 -112.5
t105 -49.5zM581 -11q-73 0 -116.5 53t-30.5 127q11 61 58.5 100.5t106.5 39.5q73 0 116.5 -54.5t30.5 -127.5q-11 -61 -58 -99.5t-107 -38.5zM581 4q54 0 97 36t53 90q11 64 -26.5 114t-105.5 50q-55 0 -98 -36.5t-52 -91.5q-11 -63 27 -112.5t105 -49.5z" />
    <glyph glyph-name="ampersand" unicode="&#x26;" horiz-adv-x="747" 
d="M612 0l-71 86q-113 -96 -256 -96q-130 0 -197.5 78.5t-52.5 176.5q25 142 203 214q-54 82 -41 151q9 55 59.5 92.5t125.5 37.5q51 0 93.5 -26.5t58.5 -68.5l-14 -6q-13 38 -52 62t-86 24q-68 0 -114 -33t-55 -84q-9 -48 13.5 -96.5t77.5 -114.5l239 -290q60 56 100.5 130
t54.5 146h-194l3 15h210l-2 -10q-14 -76 -55.5 -155t-106.5 -137l79 -96h-20zM286 4q138 0 245 92l-237 289q-25 29 -48 62q-84 -34 -133 -82t-62 -123q-9 -57 13.5 -110.5t80.5 -90.5t141 -37z" />
    <glyph glyph-name="quotesingle" unicode="'" horiz-adv-x="147" 
d="M117 500h-10q2 23 21 146l15 84h17l-15 -84q-11 -72 -28 -146z" />
    <glyph glyph-name="parenleft" unicode="(" horiz-adv-x="399" 
d="M277 -219l-11 -12q-105 68 -163.5 214.5t-28.5 314.5q30 166 132.5 290t216.5 171l7 -13q-111 -47 -211 -169.5t-129 -281.5q-29 -165 27 -305.5t160 -208.5z" />
    <glyph glyph-name="parenright" unicode=")" horiz-adv-x="399" 
d="M120 748l11 12q105 -68 163.5 -214.5t28.5 -314.5q-30 -166 -132.5 -290t-216.5 -171l-7 13q111 47 211 169.5t129 281.5q29 165 -27 305.5t-160 208.5z" />
    <glyph glyph-name="asterisk" unicode="*" horiz-adv-x="422" 
d="M385 458l-127 89l-24 -172h-20l35 171l-159 -90l-9 17l167 81l-138 81l12 17l130 -91l24 168h20l-36 -168l158 89l9 -17l-164 -79l134 -79z" />
    <glyph glyph-name="plus" unicode="+" horiz-adv-x="460" 
d="M54 357l3 16h177l31 176h16l-31 -176h177l-3 -16h-177l-31 -178h-16l31 178h-177z" />
    <glyph glyph-name="comma" unicode="," horiz-adv-x="148" 
d="M-35 -117l84 204h21l-91 -204h-14z" />
    <glyph glyph-name="hyphen" unicode="-" horiz-adv-x="460" 
d="M47 248l3 15h370l-3 -15h-370z" />
    <glyph glyph-name="period" unicode="." horiz-adv-x="148" 
d="M12 0l24 137h18l-24 -137h-18z" />
    <glyph glyph-name="slash" unicode="/" horiz-adv-x="405" 
d="M-33 0l474 730h20l-474 -730h-20z" />
    <glyph glyph-name="zero" unicode="0" 
d="M281 -10q-115 0 -170 75.5t-36 185.5l49 279q18 100 76 155t153 55q117 0 168 -77.5t30 -193.5l-49 -278q-17 -95 -72.5 -148t-148.5 -53zM282 5q83 0 136 51t68 138l49 277q19 109 -28 181.5t-154 72.5q-89 0 -142.5 -51.5t-70.5 -146.5l-49 -279q-17 -101 33 -172
t158 -71z" />
    <glyph glyph-name="one" unicode="1" 
d="M24 0l2 15h216l114 650q-16 -30 -56 -50.5t-79 -20.5h-11l3 16h5q66 0 104 37t46 83h17l-126 -715h220l-3 -15h-452z" />
    <glyph glyph-name="two" unicode="2" 
d="M29 0l4 22q13 72 78 134.5t172 130.5q8 5 36.5 23.5t37.5 24.5t34 22.5t35 24.5l30 24t29 25.5t23 25t20.5 28.5t13 28.5t9.5 30.5q14 77 -41.5 129t-147.5 52q-59 0 -114.5 -25t-88.5 -65l-13 9q37 43 95 69.5t124 26.5q96 0 156.5 -58t45.5 -139q-7 -38 -28.5 -72
t-62.5 -68.5t-71.5 -55.5t-88.5 -58q-17 -11 -25 -16q-106 -68 -167 -125.5t-74 -125.5l-1 -6h432l-3 -16h-449z" />
    <glyph glyph-name="three" unicode="3" 
d="M265 -10q-74 0 -136 27.5t-88 66.5l13 10q25 -38 83 -63.5t129 -25.5q87 0 149.5 45.5t76.5 124.5q15 86 -38 142t-142 56h-86l2 15h85q88 0 153 44.5t78 118.5q14 79 -42 127t-144 48q-129 0 -209 -80l-10 12q89 83 219 83q95 0 155.5 -53.5t46.5 -137.5
q-11 -67 -62 -112.5t-129 -58.5q73 -17 112.5 -73t26.5 -132q-15 -87 -81.5 -135.5t-161.5 -48.5z" />
    <glyph glyph-name="four" unicode="4" 
d="M373 0l35 198h-360l-3 16l457 516h16l-91 -517h102l-3 -15h-101l-35 -198h-17zM65 213h345l85 485z" />
    <glyph glyph-name="five" unicode="5" 
d="M243 -10q-70 0 -127.5 26.5t-86.5 69.5l14 9q28 -42 80.5 -66t119.5 -24q98 0 171.5 60.5t90.5 158.5q17 94 -35.5 166.5t-156.5 72.5q-125 0 -206 -89l-15 6l106 350h378l-2 -15h-365l-94 -313q83 76 199 76q112 0 168.5 -78t38.5 -178q-18 -103 -94.5 -167.5
t-183.5 -64.5z" />
    <glyph glyph-name="six" unicode="6" 
d="M275 -10q-107 0 -169.5 77t-43.5 184q9 52 42 101l316 378h22l-267 -316q59 40 125 40q108 0 170.5 -81t43.5 -182q-17 -90 -85 -145.5t-154 -55.5zM276 5q80 0 144 53t78 136q17 95 -40.5 169.5t-158.5 74.5q-80 0 -143.5 -54t-77.5 -136q-17 -98 39.5 -170.5
t158.5 -72.5z" />
    <glyph glyph-name="seven" unicode="7" 
d="M124 0l455 715h-423l3 15h441l-2 -15l-453 -715h-21z" />
    <glyph glyph-name="eight" unicode="8" 
d="M258 -10q-108 0 -165 66.5t-40 153.5q12 76 66.5 123t137.5 63q-55 17 -88 64.5t-21 115.5q13 74 68.5 119t146.5 45q99 0 148.5 -55.5t35.5 -134.5q-10 -60 -60 -103.5t-112 -54.5q70 -18 112 -77.5t28 -138.5q-15 -83 -79.5 -134.5t-177.5 -51.5zM260 5q102 0 164 48
t75 126q13 88 -41.5 148t-143.5 60q-101 0 -166.5 -51t-78.5 -128q-14 -82 36 -142.5t155 -60.5zM316 399q81 0 142.5 44.5t72.5 107.5q13 73 -31.5 123.5t-137.5 50.5q-83 0 -134.5 -42t-64.5 -109q-14 -72 34.5 -123.5t118.5 -51.5z" />
    <glyph glyph-name="nine" unicode="9" 
d="M201 0l256 304q-61 -42 -131 -42q-110 0 -175 79t-45 189q16 93 86 151.5t161 58.5q109 0 174 -80.5t45 -190.5q-11 -65 -56 -118l-293 -351h-22zM326 277q81 0 148 56t82 138q17 102 -43 178t-160 76q-84 0 -150 -56t-81 -142q-17 -99 41 -174.5t163 -75.5z" />
    <glyph glyph-name="colon" unicode=":" horiz-adv-x="148" 
d="M12 0l24 137h18l-24 -137h-18zM76 363l24 137h18l-24 -137h-18z" />
    <glyph glyph-name="semicolon" unicode=";" horiz-adv-x="148" 
d="M76 363l24 137h18l-24 -137h-18zM-35 -117l84 204h21l-91 -204h-14z" />
    <glyph glyph-name="less" unicode="&#x3c;" horiz-adv-x="460" 
d="M397 209l-342 151l3 16l395 146l-4 -19l-372 -136l324 -141z" />
    <glyph glyph-name="equal" unicode="=" horiz-adv-x="460" 
d="M68 434l3 16h370l-3 -16h-370zM40 276l3 16h370l-3 -16h-370z" />
    <glyph glyph-name="greater" unicode="&#x3e;" horiz-adv-x="460" 
d="M29 208l4 19l372 136l-324 141l4 17l342 -151l-3 -16z" />
    <glyph glyph-name="question" unicode="?" horiz-adv-x="486" 
d="M187 192l1 7q10 58 33.5 102t51 68t59 46.5t58 39t47 43.5t26.5 61q13 76 -38 121t-133 45q-87 0 -147 -54l-12 10q64 59 161 59q88 0 144.5 -50.5t40.5 -134.5q-7 -37 -27.5 -65t-47 -44.5t-57.5 -38t-58 -44.5t-50 -65.5t-33 -98.5l-1 -7h-18zM153 0l24 137h18
l-24 -137h-18z" />
    <glyph glyph-name="at" unicode="@" horiz-adv-x="857" 
d="M397 -133q-177 0 -271.5 122.5t-63.5 297.5q26 145 139 237.5t262 92.5q110 0 192 -53.5t116 -136t17 -170.5q-12 -75 -54.5 -132t-106.5 -57q-49 0 -74 30.5t-23 78.5q-21 -44 -64 -77t-100 -33q-63 0 -97 47t-22 116q14 78 73 137.5t138 59.5q53 0 80.5 -34t26.5 -76
l30 104h14l-51 -181q-23 -81 -1.5 -119t71.5 -38q55 0 94 53.5t51 124.5q15 83 -16 160.5t-109.5 129t-186.5 51.5q-142 0 -250 -89.5t-133 -229.5q-18 -104 12 -194.5t110.5 -148.5t197.5 -58q86 0 165 40t132 109l13 -10q-56 -72 -138 -113t-173 -41zM368 83
q67 0 112.5 47.5t64.5 118.5q20 67 -2.5 115t-85.5 48q-70 0 -126 -56t-68 -130q-11 -62 18.5 -102.5t86.5 -40.5z" />
    <glyph glyph-name="A" unicode="A" horiz-adv-x="684" 
d="M0 0l418 730h17l162 -730h-18l-53 243h-369l-138 -243h-19zM424 709l-258 -451h356z" />
    <glyph glyph-name="B" unicode="B" horiz-adv-x="656" 
d="M38 0l128 730h275q82 0 135.5 -59t39.5 -139q-10 -59 -53 -102t-102 -54q62 -18 97.5 -74t23.5 -123q-14 -77 -75 -128t-142 -51h-327zM413 370h-294l-62 -355h309q75 0 131.5 47.5t68.5 118.5q13 76 -34.5 132.5t-118.5 56.5zM440 715h-260l-58 -330h301
q65 0 115.5 43.5t61.5 106.5q12 70 -36.5 125t-123.5 55z" />
    <glyph glyph-name="C" unicode="C" horiz-adv-x="806" 
d="M419 -10q-113 0 -197 57t-119.5 153t-15.5 210q26 144 142 237t258 93q215 0 302 -165l-15 -8q-81 158 -288 158q-136 0 -247.5 -90.5t-135.5 -228.5q-13 -77 2.5 -149t55 -128t107 -90t152.5 -34q91 0 174.5 41.5t134.5 113.5l14 -9q-53 -76 -140 -118.5t-184 -42.5z
" />
    <glyph glyph-name="D" unicode="D" horiz-adv-x="701" 
d="M38 0l128 730h169q104 -2 185 -55.5t118.5 -144t19.5 -195.5q-27 -155 -139.5 -245t-263.5 -90h-217zM330 715h-150l-122 -700h198q144 0 251.5 87.5t133.5 236.5q27 152 -65 264t-246 112z" />
    <glyph glyph-name="E" unicode="E" horiz-adv-x="600" 
d="M38 0l128 730h453l-3 -15h-436l-59 -335h437l-3 -15h-436l-62 -350h437l-3 -15h-453z" />
    <glyph glyph-name="F" unicode="F" horiz-adv-x="549" 
d="M38 0l128 730h413l-3 -15h-396l-60 -343h396l-3 -15h-396l-62 -357h-17z" />
    <glyph glyph-name="G" unicode="G" horiz-adv-x="860" 
d="M435 -10q-115 0 -203 56.5t-127 153.5t-19 210q26 145 138 237.5t254 92.5q102 0 182 -46t128 -129l-14 -8q-99 168 -297 168q-136 0 -243 -90t-132 -229q-13 -76 4.5 -149t60 -128.5t113 -89.5t156.5 -34q150 0 252.5 100.5t115.5 247.5h-362l2 15h378q-5 -74 -33 -141
t-76 -120.5t-120 -85t-158 -31.5z" />
    <glyph glyph-name="H" unicode="H" horiz-adv-x="656" 
d="M513 0l62 357h-458l-62 -357h-17l128 730h17l-63 -358h458l63 358h17l-128 -730h-17z" />
    <glyph glyph-name="I" unicode="I" horiz-adv-x="201" 
d="M48 0l128 730h17l-128 -730h-17z" />
    <glyph glyph-name="J" unicode="J" horiz-adv-x="487" 
d="M194 -10q-66 0 -111.5 29t-63.5 75l14 8q18 -44 59.5 -70t102.5 -26q74 0 120.5 45t58.5 120l98 559h17l-98 -559q-14 -82 -63.5 -131.5t-133.5 -49.5z" />
    <glyph glyph-name="K" unicode="K" horiz-adv-x="654" 
d="M555 0l-225 420l-240 -222h-1l-34 -198h-17l128 730h17l-89 -507l546 507h24l-321 -298l231 -432h-19z" />
    <glyph glyph-name="L" unicode="L" horiz-adv-x="544" 
d="M38 0l128 730h17l-125 -714h387l-2 -16h-405z" />
    <glyph glyph-name="M" unicode="M" horiz-adv-x="879" 
d="M38 0l128 730h17l247 -463l435 463h16l-128 -730h-17l122 699l-432 -462l-248 465l-123 -702h-17z" />
    <glyph glyph-name="N" unicode="N" horiz-adv-x="717" 
d="M38 0l128 730h18l395 -702l124 702h16l-128 -730h-15l-397 704l-124 -704h-17z" />
    <glyph glyph-name="O" unicode="O" horiz-adv-x="863" 
d="M431 -10q-114 0 -200.5 56.5t-125.5 153.5t-19 210q26 144 137.5 237t250.5 93q89 0 162.5 -37.5t116.5 -98t60.5 -136.5t2.5 -153q-26 -144 -136 -234.5t-249 -90.5zM432 5q132 0 238 88.5t130 224.5q18 99 -14.5 192t-115.5 154t-197 61q-133 0 -240 -90t-131 -229
q-27 -166 69 -283.5t261 -117.5z" />
    <glyph glyph-name="P" unicode="P" horiz-adv-x="615" 
d="M38 0l128 730h185q120 0 192 -74t52 -188q-17 -100 -94.5 -160.5t-194.5 -60.5h-208l-43 -247h-17zM349 715h-169l-79 -453h205q109 0 182.5 58t89.5 151q18 104 -48.5 174t-180.5 70z" />
    <glyph glyph-name="Q" unicode="Q" horiz-adv-x="863" 
d="M431 -10q-114 0 -200.5 56.5t-125.5 153.5t-19 210q26 144 137.5 237t250.5 93q119 0 205.5 -64t121 -161t15.5 -200q-31 -162 -165 -255q42 -45 99 -45h17l-2 -15h-16q-43 0 -75.5 21t-53 51.5t-40 61t-47.5 51.5t-65 21h-20l2 15h19q33 0 60 -16t41.5 -34.5t36.5 -51.5
t34 -48q61 42 103 106t56 141q13 74 -3.5 146.5t-57 130.5t-110.5 94t-156 36q-133 0 -240 -90t-131 -229q-27 -166 69 -283.5t261 -117.5q73 0 147 32l11 -12q-80 -35 -159 -35z" />
    <glyph glyph-name="R" unicode="R" horiz-adv-x="590" 
d="M491 0h-13q-68 0 -119 52.5t-73.5 120t-23.5 133.5h85q79 0 139.5 53t74.5 130q16 92 -42 158t-153 68h-186l-125 -715h-17l128 730h202q98 0 162 -71t47 -172q-14 -84 -79 -140.5t-152 -56.5h-68q3 -44 16.5 -89.5t37.5 -88.5t63 -70t86 -27h13z" />
    <glyph glyph-name="S" unicode="S" horiz-adv-x="541" 
d="M247 -10q-153 0 -230 125l15 9q70 -119 216 -119q82 0 137 42t67 109q8 43 -2 78t-37.5 61.5t-54.5 43.5t-69 38t-67.5 36.5t-55.5 42t-41 61.5t-4 78q11 63 65.5 104t135.5 41q64 0 117 -27.5t85 -79.5l-14 -8q-62 100 -189 100q-75 0 -124 -36.5t-60 -95.5
q-6 -32 2 -60.5t21 -47t40.5 -38.5t44.5 -29t49 -25q34 -17 57 -30t50.5 -35.5t42.5 -45t23 -55.5t1 -71q-14 -76 -73 -121t-148 -45z" />
    <glyph glyph-name="T" unicode="T" horiz-adv-x="625" 
d="M277 0h-17l125 715h-245l3 15h507l-3 -15h-245z" />
    <glyph glyph-name="U" unicode="U" horiz-adv-x="659" 
d="M309 -10q-126 0 -186.5 76.5t-39.5 195.5l82 468h17l-83 -473q-19 -107 37.5 -179t175.5 -72q92 0 159 58t83 147l91 519h17l-91 -519q-17 -98 -89 -159.5t-173 -61.5z" />
    <glyph glyph-name="V" unicode="V" horiz-adv-x="682" 
d="M303 0h-15l-161 730h17l155 -704l403 704h19z" />
    <glyph glyph-name="W" unicode="W" horiz-adv-x="1079" 
d="M763 0h-18l-129 700l-369 -700h-19l-91 730h17l88 -705l371 705h14l130 -705l335 705h18z" />
    <glyph glyph-name="X" unicode="X" horiz-adv-x="648" 
d="M545 0l-198 369l-328 -369h-22l342 383l-187 347h18l180 -337l297 337h21l-310 -351l205 -379h-18z" />
    <glyph glyph-name="Y" unicode="Y" horiz-adv-x="600" 
d="M247 0l61 351l-183 379h19l175 -364l303 364h21l-318 -383l-61 -347h-17z" />
    <glyph glyph-name="Z" unicode="Z" horiz-adv-x="583" 
d="M487 0h-478l3 16l576 699h-443l3 15h464l-3 -16l-577 -699h458z" />
    <glyph glyph-name="bracketleft" unicode="[" horiz-adv-x="412" 
d="M-1 -230l168 960h273l-2 -15h-256l-164 -930h256l-3 -15h-272z" />
    <glyph glyph-name="backslash" unicode="\" horiz-adv-x="405" 
d="M314 0l-218 730h17l220 -730h-19z" />
    <glyph glyph-name="bracketright" unicode="]" horiz-adv-x="413" 
d="M-10 -230l2 14h255l164 931h-255l2 15h273l-169 -960h-272z" />
    <glyph glyph-name="asciicircum" unicode="^" horiz-adv-x="491" 
d="M144 484l158 164h5l104 -164h-19l-90 143l-136 -143h-22z" />
    <glyph glyph-name="underscore" unicode="_" horiz-adv-x="460" 
d="M-10 -61l5 15h369l-4 -15h-370z" />
    <glyph glyph-name="grave" unicode="`" horiz-adv-x="491" 
d="M345 580l-106 140h23l99 -140h-16z" />
    <glyph glyph-name="a" unicode="a" horiz-adv-x="654" 
d="M293 -10q-118 0 -187 86t-48 206q18 101 95.5 164.5t178.5 63.5q91 0 151 -52t74 -134l31 176h16l-70 -395q-16 -91 54 -91h13l-2 -14h-14q-42 0 -59.5 30t-6.5 80l4 23q-35 -66 -95.5 -104.5t-134.5 -38.5zM294 5q93 0 162.5 64.5t86.5 161.5q20 105 -40 184.5
t-172 79.5q-95 0 -168 -61t-89 -155q-18 -113 45 -193.5t175 -80.5z" />
    <glyph glyph-name="b" unicode="b" horiz-adv-x="646" 
d="M319 -10q-96 0 -156.5 51.5t-73.5 134.5l-30 -176h-16l128 730h16q-50 -280 -67 -380q36 77 101.5 118.5t140.5 41.5q114 0 180 -86.5t45 -206.5q-18 -100 -95 -163.5t-173 -63.5zM320 6q89 0 162 61t89 153q20 111 -41 192.5t-171 81.5q-91 0 -165 -66.5t-90 -166.5
q-19 -103 40.5 -179t175.5 -76z" />
    <glyph glyph-name="c" unicode="c" horiz-adv-x="590" 
d="M300 -10q-120 0 -191.5 85.5t-50.5 204.5q18 101 95 165.5t176 64.5q77 0 134.5 -36.5t86.5 -97.5l-15 -7q-26 57 -80 91.5t-126 34.5q-94 0 -166.5 -61.5t-88.5 -156.5q-19 -110 46.5 -191t179.5 -81q66 0 124.5 28t92.5 80l14 -8q-36 -55 -98 -85t-133 -30z" />
    <glyph glyph-name="d" unicode="d" horiz-adv-x="658" 
d="M293 -10q-118 0 -187 86t-48 206q18 101 95.5 164.5t178.5 63.5q90 0 150 -51t75 -132l73 403h16l-115 -625q-8 -43 8 -67t53 -24h12l-2 -14h-13q-41 0 -61.5 27.5t-9.5 82.5l4 20q-36 -66 -95.5 -103t-133.5 -37zM294 5q93 0 162.5 64.5t86.5 161.5q20 105 -40 184.5
t-172 79.5q-95 0 -168 -61t-89 -155q-18 -113 45 -193.5t175 -80.5z" />
    <glyph glyph-name="e" unicode="e" horiz-adv-x="596" 
d="M309 -10q-132 0 -202.5 81t-48.5 205q18 107 103.5 170.5t191.5 63.5q97 0 150.5 -47t42.5 -110q-11 -62 -69.5 -98.5t-161.5 -36.5q-54 0 -126.5 16t-116.5 35q-19 -115 48 -189.5t189 -74.5q118 0 194 78l11 -13q-80 -80 -205 -80zM352 494q-98 0 -177.5 -57
t-100.5 -154q48 -20 119.5 -35t121.5 -15q92 0 148.5 32.5t66.5 91.5q10 55 -37.5 96t-140.5 41z" />
    <glyph glyph-name="f" unicode="f" horiz-adv-x="332" 
d="M40 487l3 13h120l12 66q18 100 56 132t133 32h5l-3 -16h-3q-88 0 -121.5 -28t-50.5 -121l-12 -65h147l-3 -13h-146l-87 -500q-15 -86 -50.5 -114.5t-111.5 -28.5h-5l3 17h3q70 0 100.5 27.5t44.5 98.5l87 500h-121z" />
    <glyph glyph-name="g" unicode="g" horiz-adv-x="650" 
d="M293 -10q-118 0 -187 86t-48 206q18 101 95.5 164.5t178.5 63.5q93 0 153.5 -54.5t72.5 -138.5l33 183h16l-87 -489q-45 -251 -256 -251q-83 0 -138.5 35.5t-79.5 98.5l16 5q49 -123 202 -123q198 0 240 235l23 129q-35 -69 -96.5 -109.5t-137.5 -40.5zM294 5
q93 0 162.5 64.5t86.5 161.5q20 105 -40 184.5t-172 79.5q-95 0 -168 -61t-89 -155q-18 -113 45 -193.5t175 -80.5z" />
    <glyph glyph-name="h" unicode="h" horiz-adv-x="618" 
d="M43 0l128 730h15l-64 -364q28 64 87 104t133 40q109 0 160 -72t32 -178l-30 -155q-8 -43 5.5 -67.5t46.5 -24.5h15l-2 -13h-15q-41 0 -58.5 27t-6.5 82l29 151q18 99 -27 166.5t-150 67.5q-84 0 -148.5 -55t-79.5 -135l-54 -304h-16z" />
    <glyph glyph-name="i" unicode="i" horiz-adv-x="200" 
d="M125 0q-85 0 -66 109l69 391h16l-69 -395q-16 -92 56 -92h11l-2 -13h-15zM142 580l26 150h16l-26 -150h-16z" />
    <glyph glyph-name="j" unicode="j" horiz-adv-x="197" 
d="M-121 -227l3 15q76 0 107.5 30.5t48.5 118.5l100 563h16l-100 -564q-17 -96 -52.5 -129.5t-118.5 -33.5h-4zM152 580l26 150h16l-26 -150h-16z" />
    <glyph glyph-name="k" unicode="k" horiz-adv-x="529" 
d="M470 0q-45 0 -63.5 12.5t-43.5 53.5l-122 211l-157 -132l-25 -145h-16l128 730h16l-99 -564l393 334h23l-252 -214l122 -207q27 -43 42.5 -54.5t56.5 -11.5h9l-3 -13h-9z" />
    <glyph glyph-name="l" unicode="l" horiz-adv-x="201" 
d="M126 0q-40 0 -58 27.5t-8 81.5l109 621h16l-109 -621q-16 -96 56 -96h11l-2 -13h-15z" />
    <glyph glyph-name="m" unicode="m" horiz-adv-x="987" 
d="M46 0l76 395q8 41 -6.5 66.5t-48.5 25.5h-14l3 13h13q42 0 58.5 -30t7.5 -79l-1 -6q57 126 200 125q79 1 127.5 -46t49.5 -112q18 69 74 113.5t134 44.5q105 0 154 -72t30 -178l-30 -155q-8 -43 5.5 -67.5t46.5 -24.5h15l-2 -13h-15q-41 0 -58.5 27t-6.5 82l29 151
q18 102 -25.5 168t-143.5 66q-83 0 -136.5 -52t-70.5 -137l-60 -305h-15l59 300q16 83 -32 138.5t-129 55.5q-176 0 -214 -190l-59 -304h-15z" />
    <glyph glyph-name="n" unicode="n" horiz-adv-x="626" 
d="M47 0l74 395q17 92 -54 92h-13l2 13h14q38 0 57.5 -27.5t8.5 -81.5l-4 -18q29 61 87.5 99t130.5 38q109 0 160 -72t32 -178l-30 -155q-8 -43 5.5 -67.5t46.5 -24.5h16l-3 -13h-15q-41 0 -58.5 27t-6.5 82l29 151q18 99 -27 166.5t-150 67.5q-84 0 -149 -55t-80 -135
l-58 -304h-15z" />
    <glyph glyph-name="o" unicode="o" horiz-adv-x="624" 
d="M297 -10q-120 0 -190 86t-49 206q18 100 94.5 164t173.5 64q80 0 140.5 -43t86 -111t12.5 -141q-18 -100 -95 -162.5t-173 -62.5zM297 5q90 0 163 60.5t89 152.5q19 108 -45 192.5t-178 84.5q-91 0 -163.5 -61t-88.5 -155q-19 -109 44.5 -191.5t178.5 -82.5z" />
    <glyph glyph-name="p" unicode="p" horiz-adv-x="654" 
d="M327 -10q-95 0 -154.5 50t-74.5 131l-71 -401h-16l110 625q16 92 -54 92h-13l3 13h13q43 0 60 -29.5t7 -80.5l-6 -34q36 74 100.5 114t138.5 40q114 0 180 -86.5t45 -206.5q-18 -100 -95 -163.5t-173 -63.5zM328 6q89 0 162 61t89 153q20 111 -41 192.5t-171 81.5
q-91 0 -165 -66.5t-90 -166.5q-19 -103 40.5 -179t175.5 -76z" />
    <glyph glyph-name="q" unicode="q" horiz-adv-x="647" 
d="M293 -10q-118 0 -187 86t-48 206q18 101 95.5 164.5t178.5 63.5q94 0 155 -55.5t72 -140.5l32 186h16l-128 -730h-16q47 270 66 374q-34 -71 -96.5 -112.5t-139.5 -41.5zM294 5q93 0 162.5 64.5t86.5 161.5q20 105 -40 184.5t-172 79.5q-95 0 -168 -61t-89 -155
q-18 -113 45 -193.5t175 -80.5z" />
    <glyph glyph-name="r" unicode="r" horiz-adv-x="385" 
d="M47 0l74 395q15 92 -54 92h-13l2 13h14q38 0 57.5 -27.5t8.5 -81.5l-5 -22q29 60 83.5 95.5t122.5 35.5h42l-3 -16h-40q-83 0 -143 -54.5t-75 -135.5l-56 -294h-15z" />
    <glyph glyph-name="s" unicode="s" horiz-adv-x="495" 
d="M240 -10q-70 0 -126.5 28t-88.5 75l15 10q28 -45 81 -71.5t120 -26.5q73 0 114.5 31.5t49.5 76.5q4 22 -4 41t-19 31t-37 26t-42 20.5t-49 19.5q-35 14 -52 21t-43.5 22t-38 28.5t-19 34t-3.5 45.5q9 51 56.5 80.5t115.5 27.5q56 0 106.5 -19t80.5 -48l-11 -11
q-67 64 -178 64q-62 0 -104.5 -25.5t-49.5 -70.5q-5 -26 3.5 -46t33 -36.5t43.5 -25t58 -23.5q9 -3 13 -5q33 -13 50.5 -20.5t43.5 -22t38 -28.5t19.5 -36t3.5 -47q-9 -53 -55 -86.5t-125 -33.5z" />
    <glyph glyph-name="t" unicode="t" horiz-adv-x="310" 
d="M50 487l3 13h84l21 120l17 9l-23 -129h147l-3 -13h-147l-55 -316q-16 -92 7.5 -124.5t111.5 -32.5l-2 -14h-2q-92 0 -120 37t-11 134l56 316h-84z" />
    <glyph glyph-name="u" unicode="u" horiz-adv-x="615" 
d="M270 -10q-109 0 -158 71.5t-28 178.5l30 155q15 92 -57 92h-11l2 13h15q85 0 66 -109l-30 -151q-20 -99 24.5 -166.5t147.5 -67.5q84 0 146 54.5t77 135.5l59 304h15l-75 -395q-8 -43 5.5 -67.5t46.5 -24.5h15l-2 -13h-15q-86 0 -64 109l3 17q-29 -62 -86 -99t-126 -37z
" />
    <glyph glyph-name="v" unicode="v" horiz-adv-x="589" 
d="M245 -10q-96 0 -140 65t-24 170l33 170q18 92 -54 92h-13l2 13h14q40 0 58 -28t8 -81l-33 -168q-20 -99 20.5 -158t128.5 -59q103 0 168.5 77t88.5 202q20 108 -3 215h16q21 -117 2 -217q-24 -130 -93.5 -211.5t-178.5 -81.5z" />
    <glyph glyph-name="w" unicode="w" horiz-adv-x="984" 
d="M254 -10q-104 0 -147.5 71t-22.5 179l30 155q18 92 -54 92h-13l2 13h14q40 0 58 -28t8 -81l-30 -151q-20 -100 19 -167t137 -67q81 0 140 60t73 141l57 293h15l-56 -293q-18 -93 23.5 -147t129.5 -54q103 0 170 77t90 202q20 105 -4 215h16q21 -120 3 -217
q-24 -130 -94.5 -211.5t-180.5 -81.5q-73 0 -122.5 40t-50.5 117q-26 -70 -82 -113.5t-128 -43.5z" />
    <glyph glyph-name="x" unicode="x" horiz-adv-x="545" 
d="M-1 0l262 258l-46 123q-28 74 -46.5 90t-73.5 16h-13l2 13h13q57 0 80.5 -19t51.5 -94l45 -118l235 231h21l-252 -247l53 -140q25 -67 45.5 -83.5t81.5 -16.5h5l-2 -13h-5q-67 0 -90 18.5t-49 88.5l-51 137l-246 -244h-21z" />
    <glyph glyph-name="y" unicode="y" horiz-adv-x="609" 
d="M239 -240q-74 0 -130.5 36.5t-79.5 97.5l16 5q23 -57 74 -90t120 -33q180 0 222 235l22 115q-29 -62 -86 -99t-126 -37q-109 0 -158 71.5t-28 178.5l30 155q15 92 -57 92h-11l2 13h15q85 0 66 -109l-30 -151q-20 -99 24.5 -166.5t147.5 -67.5q84 0 146 54.5t77 135.5
l59 304h15l-92 -489q-45 -251 -238 -251z" />
    <glyph glyph-name="z" unicode="z" horiz-adv-x="563" 
d="M22 0l2 14l494 472h-405l3 14h428l-3 -14l-495 -472h417l-3 -14h-438z" />
    <glyph glyph-name="braceleft" unicode="{" horiz-adv-x="414" 
d="M293 -230h-11q-125 0 -164.5 47t-17.5 170l26 145q11 63 -1.5 86.5t-72.5 23.5l3 19q58 0 80.5 23t33.5 87l24 142q22 123 77 170t181 47h11l-2 -15q-127 0 -178.5 -42.5t-71.5 -160.5l-25 -142q-9 -57 -27 -84.5t-56 -35.5q34 -10 43 -40t-1 -77l-27 -145
q-20 -118 16 -160.5t163 -42.5z" />
    <glyph glyph-name="bar" unicode="|" horiz-adv-x="167" 
d="M-9 -230l169 960h17l-169 -960h-17z" />
    <glyph glyph-name="braceright" unicode="}" horiz-adv-x="435" 
d="M-11 -230l2 15q127 0 178.5 42.5t71.5 160.5l25 142q9 57 27 84t56 36q-35 9 -43.5 39.5t1.5 77.5l27 145q20 118 -16 160.5t-163 42.5l3 15h11q125 0 164.5 -47t17.5 -170l-26 -145q-11 -63 1.5 -86.5t72.5 -23.5l-3 -19q-58 0 -80.5 -23t-33.5 -87l-24 -142
q-22 -123 -77 -170t-181 -47h-11z" />
    <glyph glyph-name="asciitilde" unicode="~" horiz-adv-x="399" 
d="M101 603q11 32 34.5 51t52.5 19q27 0 75 -32q50 -29 72 -29q52 0 73 55h16q-11 -32 -35 -51t-56 -19q-31 0 -77 31q-48 30 -70 30q-46 0 -68 -55h-17z" />
    <glyph glyph-name="exclamdown" unicode="&#xa1;" horiz-adv-x="227" 
d="M12 -230l20 117q12 66 39.5 218t33.5 186h13q-4 -22 -29 -174.5t-39 -229.5l-20 -117h-18zM116 363l24 137h18l-24 -137h-18z" />
    <glyph glyph-name="cent" unicode="&#xa2;" 
d="M229 -130l22 121q-101 9 -153.5 81.5t-30.5 193.5q15 87 58 143.5t97 78.5t120 22l22 120h17l-22 -121q74 -4 123 -43t60 -103l-16 -9q-10 69 -59.5 104.5t-126.5 35.5q-94 0 -164 -55t-92 -173q-22 -123 34 -191.5t162 -68.5q155 0 215 140l14 -10q-67 -146 -232 -146
h-9l-22 -120h-17z" />
    <glyph glyph-name="sterling" unicode="&#xa3;" 
d="M109 351l3 15h97q-33 146 -17 231q26 143 180 143q116 0 170 -104l-14 -9q-29 51 -65 74.5t-91 23.5q-141 0 -165 -131q-16 -83 17 -228h188l-3 -15h-182q8 -37 11.5 -50.5t9.5 -45t7.5 -49t1.5 -41t-3 -42.5q-5 -26 -15 -46q31 -24 48 -36t46 -24t57 -12q36 0 55.5 19
t27.5 57l2 14h17l-3 -16q-15 -89 -101 -89q-29 0 -59.5 13t-47 24.5t-48.5 36.5q-43 -74 -132 -74q-39 0 -65.5 25t-19.5 65q12 63 85 63q52 0 126 -57q9 20 12 39t3 42.5t-2 41.5t-7.5 48t-9 44.5t-11.5 49.5h-103zM101 5q80 0 119 68q-69 54 -121 54q-29 0 -46.5 -13.5
t-20.5 -36.5q-6 -33 15.5 -52.5t53.5 -19.5z" />
    <glyph glyph-name="currency" unicode="&#xa4;" horiz-adv-x="773" 
d="M609 72l-65 79q-81 -58 -178 -48q-101 9 -169 85l-115 -99l-12 13l117 99q-64 82 -54 187q10 103 90 171l-71 91l12 11l72 -91q82 60 182 50q98 -10 166 -83l108 92l11 -12l-108 -92q66 -84 56 -190q-12 -106 -92 -173l63 -78zM368 119q100 -10 177 53.5t88 164.5
q10 101 -53 179t-163 88q-101 10 -178.5 -53.5t-88.5 -164.5q-10 -101 53.5 -179t164.5 -88z" />
    <glyph glyph-name="yen" unicode="&#xa5;" 
d="M94 395l3 16h215l-154 319h18l147 -307l255 307h21l-266 -319h201l-3 -16h-204l-25 -142h204l-3 -16h-204l-41 -237h-17l41 237h-216l3 16h216l25 142h-216z" />
    <glyph glyph-name="brokenbar" unicode="&#xa6;" horiz-adv-x="167" 
d="M94 310l74 420h17l-74 -420h-17zM-1 -230l74 420h17l-74 -420h-17z" />
    <glyph glyph-name="section" unicode="&#xa7;" horiz-adv-x="583" 
d="M265 -10q-71 0 -135 31t-92 79l15 9q25 -45 86.5 -74.5t128.5 -29.5q74 0 126.5 30t63.5 87q4 22 0 39.5t-19.5 31t-28.5 23t-42.5 19t-44.5 13.5t-50 13q-93 24 -144 60t-40 97q5 33 33.5 60.5t73.5 42.5q-55 35 -44 93q21 126 214 126q56 0 107 -20.5t80 -52.5l-16 -9
q-25 29 -72 48t-101 19q-177 0 -196 -110q-5 -29 6 -50.5t40 -36.5t54.5 -23t69.5 -20l12 -3q47 -13 77 -23.5t61 -28t43.5 -42t6.5 -56.5q-6 -34 -37.5 -64t-77.5 -45q62 -37 50 -103q-10 -63 -68 -96.5t-140 -33.5zM280 274q90 -23 129 -43q46 15 76 42t36 59
q4 23 -4 42.5t-22 32.5t-40.5 25t-50.5 19.5t-61 17.5q-94 24 -133 44q-95 -32 -105 -95q-10 -55 38 -88t137 -56z" />
    <glyph glyph-name="dieresis" unicode="&#xa8;" horiz-adv-x="491" 
d="M338 580l24 140h15l-24 -140h-15zM255 580l24 140h15l-24 -140h-15z" />
    <glyph glyph-name="copyright" unicode="&#xa9;" horiz-adv-x="877" 
d="M438 -10q-114 0 -200.5 56.5t-125.5 153.5t-19 210q26 144 137.5 237t250.5 93q112 0 198 -58t125 -156t19 -211q-26 -144 -136 -234.5t-249 -90.5zM439 5q132 0 238 88.5t130 224.5q18 99 -14.5 192t-115.5 154t-197 61q-134 0 -240.5 -90t-130.5 -229
q-18 -103 16.5 -194.5t117.5 -149t196 -57.5zM448 170q-89 0 -138.5 64t-33.5 154q13 75 73 123.5t134 48.5q109 0 153 -85l-14 -8q-41 78 -139 78q-69 0 -123.5 -45t-67.5 -114q-15 -80 29 -140.5t129 -60.5q45 0 86.5 20.5t66.5 55.5l14 -7q-27 -40 -72.5 -62t-96.5 -22z
" />
    <glyph glyph-name="ordfeminine" unicode="&#xaa;" horiz-adv-x="438" 
d="M420 441q-24 0 -34.5 17.5t-4.5 45.5l2 8q-21 -35 -56.5 -56t-77.5 -21q-68 0 -107.5 50t-27.5 119q11 59 57 95.5t107 36.5q47 0 82 -26t46 -68l16 88h16l-41 -228q-9 -48 28 -48h12l-2 -13h-15zM249 449q53 0 96.5 38t52.5 92q11 57 -25 100t-97 43q-55 0 -96.5 -34
t-49.5 -87q-11 -63 23.5 -107.5t95.5 -44.5z" />
    <glyph glyph-name="guillemotleft" unicode="&#xab;" horiz-adv-x="404" 
d="M178 123l-119 119l3 15l161 119l-4 -22l-144 -106l107 -107zM318 123l-119 119l3 15l161 119l-4 -22l-144 -106l107 -107z" />
    <glyph glyph-name="logicalnot" unicode="&#xac;" horiz-adv-x="603" 
d="M515 190l46 265h-490l3 15h508l-49 -280h-18z" />
    <glyph glyph-name="uni00AD" unicode="&#xad;" horiz-adv-x="460" 
d="M47 248l3 15h370l-3 -15h-370z" />
    <glyph glyph-name="registered" unicode="&#xae;" horiz-adv-x="425" 
d="M262 430q-71 0 -113 51t-29 122q11 60 57 98.5t103 38.5q71 0 113 -52t29 -123q-11 -60 -56.5 -97.5t-103.5 -37.5zM263 444q52 0 93.5 34.5t50.5 87.5q11 61 -25 110.5t-102 49.5q-52 0 -94 -35.5t-51 -89.5q-11 -62 25.5 -109.5t102.5 -47.5zM204 508l27 155h66
q21 0 34.5 -15.5t9.5 -36.5q-7 -41 -49 -41h-12l39 -62h-16l-46 74h31q34 0 38 30q6 36 -34 38h-50l-24 -142h-14z" />
    <glyph glyph-name="macron" unicode="&#xaf;" horiz-adv-x="491" 
d="M162 580l3 15h264l-3 -15h-264z" />
    <glyph glyph-name="degree" unicode="&#xb0;" horiz-adv-x="418" 
d="M277 584q-32 0 -55 23t-23 55t23 55t55 23t55 -23t23 -55t-23 -55t-55 -23zM277 598q25 0 44 19t19 44t-19 44t-44 19t-44 -19t-19 -44t19 -44t44 -19z" />
    <glyph glyph-name="plusminus" unicode="&#xb1;" horiz-adv-x="460" 
d="M70 448l3 16h177l31 176h16l-31 -176h177l-3 -16h-177l-31 -178h-16l31 178h-177zM16 138l3 16h370l-3 -16h-370z" />
    <glyph glyph-name="twosuperior" unicode="&#xb2;" horiz-adv-x="367" 
d="M60 312l2 19q9 50 47 86.5t110 78.5q4 3 26.5 15t29 16t24 15.5t24.5 18.5t17.5 18.5t16 23t7.5 24.5q7 41 -22 70t-81 29q-33 0 -64.5 -15.5t-49.5 -39.5l-13 10q20 27 55 43t74 16q58 0 91.5 -34t25.5 -81q-2 -11 -5.5 -21.5t-11 -20t-13 -17t-17.5 -17t-18 -14.5
t-21 -14t-20.5 -12.5t-23.5 -13.5t-22 -12q-70 -41 -105.5 -74.5t-43.5 -78.5l-1 -4h251l-2 -14h-267z" />
    <glyph glyph-name="threesuperior" unicode="&#xb3;" horiz-adv-x="324" 
d="M167 306q-39 0 -71.5 15t-45.5 37l13 8q12 -20 41.5 -32.5t64.5 -12.5q52 0 87 25t43 70q8 47 -22.5 77.5t-79.5 30.5h-35l3 14h36q47 0 81.5 24t41.5 65q8 43 -21 71t-74 28q-59 0 -103 -40l-11 11q49 43 115 43q52 0 84.5 -33t24.5 -82q-7 -36 -33 -61t-67 -34
q40 -12 61 -43.5t14 -73.5q-9 -51 -48.5 -79t-98.5 -28z" />
    <glyph glyph-name="acute" unicode="&#xb4;" horiz-adv-x="491" 
d="M215 580l149 140h25l-154 -140h-20z" />
    <glyph glyph-name="mu" unicode="&#xb5;" horiz-adv-x="591" 
d="M-25 -230l129 730h16l-46 -260q-20 -99 24.5 -166.5t147.5 -67.5q84 0 146 54.5t77 135.5l59 304h15l-75 -395q-16 -91 55 -91h13l-3 -14h-13q-86 0 -66 109l3 17q-29 -62 -86 -99t-126 -37q-82 0 -130.5 42t-58.5 112l-65 -374h-16z" />
    <glyph glyph-name="mu" unicode="&#x3bc;" horiz-adv-x="591" 
d="M-25 -230l129 730h16l-46 -260q-20 -99 24.5 -166.5t147.5 -67.5q84 0 146 54.5t77 135.5l59 304h15l-75 -395q-16 -91 55 -91h13l-3 -14h-13q-86 0 -66 109l3 17q-29 -62 -86 -99t-126 -37q-82 0 -130.5 42t-58.5 112l-65 -374h-16z" />
    <glyph glyph-name="paragraph" unicode="&#xb6;" horiz-adv-x="499" 
d="M285 0l53 302h-91q-92 0 -143.5 67.5t-35.5 158.5q16 88 88 145t165 57h187l-128 -730h-17l126 716h-61l-126 -716h-17z" />
    <glyph glyph-name="periodcentered" unicode="&#xb7;" horiz-adv-x="148" 
d="M56 186l24 137h18l-24 -137h-18z" />
    <glyph glyph-name="cedilla" unicode="&#xb8;" horiz-adv-x="491" 
d="M171 -214q-75 0 -123 50l14 10q41 -46 111 -46q44 0 75 17.5t36 46.5q5 31 -21.5 49t-78.5 18h-16l13 69h15l-10 -56q60 -1 90 -23t24 -59q-7 -36 -41.5 -56t-87.5 -20z" />
    <glyph glyph-name="onesuperior" unicode="&#xb9;" horiz-adv-x="272" 
d="M59 308l2 14h83l64 363q-11 -17 -33.5 -28.5t-44.5 -11.5h-6l3 16h3q38 0 60 21t27 48h15l-72 -408h84l-3 -14h-182z" />
    <glyph glyph-name="ordmasculine" unicode="&#xba;" horiz-adv-x="415" 
d="M259 435q-69 0 -109.5 50t-28.5 119q10 58 54.5 95t100.5 37q69 0 110 -51t29 -120q-11 -58 -55.5 -94t-100.5 -36zM259 450q51 0 91 33.5t49 84.5q11 58 -24 106t-99 48q-51 0 -91 -34.5t-49 -86.5q-11 -60 24 -105.5t99 -45.5z" />
    <glyph glyph-name="guillemotright" unicode="&#xbb;" horiz-adv-x="404" 
d="M231 375l119 -119l-3 -15l-161 -119l4 22l144 106l-107 107zM91 375l119 -119l-3 -15l-161 -119l4 22l144 106l-107 107z" />
    <glyph glyph-name="onequarter" unicode="&#xbc;" horiz-adv-x="708" 
d="M554 0l17 97h-223l-1 15l282 310h15l-55 -310h74l-3 -15h-73l-17 -97h-16zM369 112h204l49 278zM61 0l655 730h22l-655 -730h-22zM59 308l2 14h83l64 363q-11 -17 -33.5 -28.5t-44.5 -11.5h-6l3 16h3q38 0 60 21t27 48h15l-72 -408h84l-3 -14h-182z" />
    <glyph glyph-name="onehalf" unicode="&#xbd;" horiz-adv-x="804" 
d="M62 0l655 730h22l-655 -730h-22zM442 0l2 19q9 50 47 86.5t110 78.5q4 3 26.5 15t29 16t24 15.5t24.5 18.5t17.5 18.5t16 23t7.5 24.5q7 41 -22 70t-81 29q-33 0 -64.5 -15.5t-49.5 -39.5l-13 10q20 27 55 43t74 16q58 0 91.5 -34t25.5 -81q-2 -11 -5.5 -21.5t-11 -20
t-13 -17t-17.5 -17t-18 -14.5t-21 -14t-20.5 -12.5t-23.5 -13.5t-22 -12q-70 -41 -105.5 -74.5t-43.5 -78.5l-1 -4h251l-2 -14h-267zM59 308l2 14h83l64 363q-11 -17 -33.5 -28.5t-44.5 -11.5h-6l3 16h3q38 0 60 21t27 48h15l-72 -408h84l-3 -14h-182z" />
    <glyph glyph-name="threequarters" unicode="&#xbe;" horiz-adv-x="739" 
d="M585 0l17 97h-223l-1 15l282 310h15l-55 -310h74l-3 -15h-73l-17 -97h-16zM400 112h204l49 278zM92 0l655 730h22l-655 -730h-22zM167 302q-39 0 -71.5 15t-45.5 37l13 8q12 -20 41.5 -32.5t64.5 -12.5q52 0 87 25t43 70q8 47 -22.5 77.5t-79.5 30.5h-35l3 14h36
q47 0 81.5 24t41.5 65q8 43 -21 71t-74 28q-59 0 -103 -40l-11 11q49 43 115 43q52 0 84.5 -33t24.5 -82q-7 -36 -33 -61t-66 -34q39 -12 60 -43.5t14 -73.5q-9 -51 -48.5 -79t-98.5 -28z" />
    <glyph glyph-name="questiondown" unicode="&#xbf;" horiz-adv-x="486" 
d="M191 -240q-88 0 -144.5 50.5t-40.5 134.5q7 37 27.5 65t47 44.5t57.5 38t58 44.5t50 65.5t33 98.5l1 7h18l-1 -7q-10 -58 -33.5 -102t-51 -68t-59 -46.5t-58 -39t-47 -43.5t-26.5 -61q-13 -76 38 -121t133 -45q87 0 147 54l12 -10q-64 -59 -161 -59zM332 500l-24 -137
h-18l24 137h18z" />
    <glyph glyph-name="Agrave" unicode="&#xc0;" horiz-adv-x="684" 
d="M0 0l418 730h17l162 -730h-18l-53 243h-369l-138 -243h-19zM424 709l-258 -451h356zM430 810l-106 140h23l99 -140h-16z" />
    <glyph glyph-name="Aacute" unicode="&#xc1;" horiz-adv-x="684" 
d="M0 0l418 730h17l162 -730h-18l-53 243h-369l-138 -243h-19zM424 709l-258 -451h356zM431 810l149 140h25l-154 -140h-20z" />
    <glyph glyph-name="Acircumflex" unicode="&#xc2;" horiz-adv-x="684" 
d="M0 0l418 730h17l162 -730h-18l-53 243h-369l-138 -243h-19zM424 709l-258 -451h356zM314 810l143 140h15l95 -140h-19l-85 125l-127 -125h-22z" />
    <glyph glyph-name="Atilde" unicode="&#xc3;" horiz-adv-x="684" 
d="M0 0l418 730h17l162 -730h-18l-53 243h-369l-138 -243h-19zM424 709l-258 -451h356zM256 810q7 36 32.5 60t58.5 24q36 0 94 -37q2 -1 10.5 -6.5t11.5 -7.5t10 -6t11 -5.5t11 -4.5t12 -4t11.5 -2t13.5 -1q62 0 76 71h16q-7 -40 -32.5 -62.5t-60.5 -22.5q-38 0 -99 38
q-56 36 -87 36q-26 0 -46.5 -19t-26.5 -51h-16z" />
    <glyph glyph-name="Adieresis" unicode="&#xc4;" horiz-adv-x="684" 
d="M0 0l418 730h17l162 -730h-18l-53 243h-369l-138 -243h-19zM424 709l-258 -451h356zM474 810l24 140h15l-24 -140h-15zM391 810l24 140h15l-24 -140h-15z" />
    <glyph glyph-name="Aring" unicode="&#xc5;" horiz-adv-x="684" 
d="M0 0l410 716q-30 6 -47 32t-11 60q6 32 31.5 53.5t57.5 21.5q39 0 61 -28.5t16 -62.5q-6 -30 -28 -51.5t-52 -25.5l159 -715h-18l-53 243h-369l-138 -243h-19zM423 709l-257 -451h356zM429 730h6q24 2 43.5 21t24.5 43q5 29 -12.5 51.5t-50.5 22.5q-26 0 -47.5 -18
t-25.5 -45q-5 -30 12.5 -52.5t49.5 -22.5z" />
    <glyph glyph-name="AE" unicode="&#xc6;" horiz-adv-x="996" 
d="M-4 0l490 730h530l-3 -16h-508l41 -341h407l-2 -15h-403l41 -342h301l-2 -16h-313l-29 243h-368l-162 -243h-20zM490 709l-302 -451h356z" />
    <glyph glyph-name="Ccedilla" unicode="&#xc7;" horiz-adv-x="806" 
d="M389 -218q-75 0 -123 50l14 10q41 -46 111 -46q44 0 75 17.5t36 46.5q5 31 -21.5 49t-78.5 18h-16l12 64q-163 7 -252 129t-59 290q26 144 142 237t258 93q215 0 302 -165l-15 -8q-81 158 -288 158q-136 0 -247.5 -90.5t-135.5 -228.5q-13 -77 2.5 -149t55 -128t107 -90
t152.5 -34q91 0 174.5 41.5t134.5 113.5l14 -9q-53 -76 -140 -118.5t-184 -42.5h-6l-9 -50q60 -1 90 -23t24 -59q-7 -36 -41.5 -56t-87.5 -20z" />
    <glyph glyph-name="Egrave" unicode="&#xc8;" horiz-adv-x="600" 
d="M38 0l128 730h453l-3 -15h-436l-59 -335h437l-3 -15h-436l-62 -350h437l-3 -15h-453zM408 810l-106 140h23l99 -140h-16z" />
    <glyph glyph-name="Eacute" unicode="&#xc9;" horiz-adv-x="600" 
d="M38 0l128 730h453l-3 -15h-436l-59 -335h437l-3 -15h-436l-62 -350h437l-3 -15h-453zM385 810l149 140h25l-154 -140h-20z" />
    <glyph glyph-name="Ecircumflex" unicode="&#xca;" horiz-adv-x="600" 
d="M38 0l128 730h453l-3 -15h-436l-59 -335h437l-3 -15h-436l-62 -350h437l-3 -15h-453zM280 810l143 140h15l95 -140h-19l-85 125l-127 -125h-22z" />
    <glyph glyph-name="Edieresis" unicode="&#xcb;" horiz-adv-x="600" 
d="M38 0l128 730h453l-3 -15h-436l-59 -335h437l-3 -15h-436l-62 -350h437l-3 -15h-453zM439 810l24 140h15l-24 -140h-15zM356 810l24 140h15l-24 -140h-15z" />
    <glyph glyph-name="Igrave" unicode="&#xcc;" horiz-adv-x="201" 
d="M48 0l128 730h17l-128 -730h-17zM189 810l-106 140h23l99 -140h-16z" />
    <glyph glyph-name="Iacute" unicode="&#xcd;" horiz-adv-x="201" 
d="M48 0l128 730h17l-128 -730h-17zM193 810l149 140h25l-154 -140h-20z" />
    <glyph glyph-name="Icircumflex" unicode="&#xce;" horiz-adv-x="201" 
d="M48 0l128 730h17l-128 -730h-17zM72 810l143 140h15l95 -140h-19l-85 125l-127 -125h-22z" />
    <glyph glyph-name="Idieresis" unicode="&#xcf;" horiz-adv-x="201" 
d="M48 0l128 730h17l-128 -730h-17zM238 810l24 140h15l-24 -140h-15zM155 810l24 140h15l-24 -140h-15z" />
    <glyph glyph-name="Eth" unicode="&#xd0;" horiz-adv-x="719" 
d="M43 368l3 15h77l61 347h169q106 -2 187 -55.5t118.5 -145t17.5 -198.5q-25 -141 -140 -236t-263 -95h-217l64 368h-77zM406 368h-269l-62 -352h199q140 0 251.5 93t133.5 230q26 153 -66 264t-245 111h-149l-59 -331h269z" />
    <glyph glyph-name="Ntilde" unicode="&#xd1;" horiz-adv-x="717" 
d="M38 0l128 730h18l395 -702l124 702h16l-128 -730h-15l-397 704l-124 -704h-17zM290 810q7 36 32.5 60t58.5 24q36 0 94 -37q2 -1 10.5 -6.5t11.5 -7.5t10 -6t11 -5.5t11 -4.5t12 -4t11.5 -2t13.5 -1q62 0 76 71h16q-7 -40 -32.5 -62.5t-60.5 -22.5q-38 0 -99 38
q-56 36 -87 36q-26 0 -46.5 -19t-26.5 -51h-16z" />
    <glyph glyph-name="Ograve" unicode="&#xd2;" horiz-adv-x="863" 
d="M431 -10q-114 0 -200.5 56.5t-125.5 153.5t-19 210q26 144 137.5 237t250.5 93q89 0 162.5 -37.5t116.5 -98t60.5 -136.5t2.5 -153q-26 -144 -136 -234.5t-249 -90.5zM432 5q132 0 238 88.5t130 224.5q18 99 -14.5 192t-115.5 154t-197 61q-133 0 -240 -90t-131 -229
q-27 -166 69 -283.5t261 -117.5zM519 810l-106 140h23l99 -140h-16z" />
    <glyph glyph-name="Oacute" unicode="&#xd3;" horiz-adv-x="863" 
d="M431 -10q-114 0 -200.5 56.5t-125.5 153.5t-19 210q26 144 137.5 237t250.5 93q89 0 162.5 -37.5t116.5 -98t60.5 -136.5t2.5 -153q-26 -144 -136 -234.5t-249 -90.5zM432 5q132 0 238 88.5t130 224.5q18 99 -14.5 192t-115.5 154t-197 61q-133 0 -240 -90t-131 -229
q-27 -166 69 -283.5t261 -117.5zM507 810l149 140h25l-154 -140h-20z" />
    <glyph glyph-name="Ocircumflex" unicode="&#xd4;" horiz-adv-x="863" 
d="M431 -10q-114 0 -200.5 56.5t-125.5 153.5t-19 210q26 144 137.5 237t250.5 93q89 0 162.5 -37.5t116.5 -98t60.5 -136.5t2.5 -153q-26 -144 -136 -234.5t-249 -90.5zM432 5q132 0 238 88.5t130 224.5q18 99 -14.5 192t-115.5 154t-197 61q-133 0 -240 -90t-131 -229
q-27 -166 69 -283.5t261 -117.5zM385 810l143 140h15l95 -140h-19l-85 125l-127 -125h-22z" />
    <glyph glyph-name="Otilde" unicode="&#xd5;" horiz-adv-x="863" 
d="M431 -10q-114 0 -200.5 56.5t-125.5 153.5t-19 210q26 144 137.5 237t250.5 93q89 0 162.5 -37.5t116.5 -98t60.5 -136.5t2.5 -153q-26 -144 -136 -234.5t-249 -90.5zM432 5q132 0 238 88.5t130 224.5q18 99 -14.5 192t-115.5 154t-197 61q-133 0 -240 -90t-131 -229
q-27 -166 69 -283.5t261 -117.5zM347 810q7 36 32.5 60t58.5 24q36 0 94 -37q2 -1 10.5 -6.5t11.5 -7.5t10 -6t11 -5.5t11 -4.5t12 -4t11.5 -2t13.5 -1q62 0 76 71h16q-7 -40 -32.5 -62.5t-60.5 -22.5q-38 0 -99 38q-56 36 -87 36q-26 0 -46.5 -19t-26.5 -51h-16z" />
    <glyph glyph-name="Odieresis" unicode="&#xd6;" horiz-adv-x="863" 
d="M431 -10q-114 0 -200.5 56.5t-125.5 153.5t-19 210q26 144 137.5 237t250.5 93q89 0 162.5 -37.5t116.5 -98t60.5 -136.5t2.5 -153q-26 -144 -136 -234.5t-249 -90.5zM432 5q132 0 238 88.5t130 224.5q18 99 -14.5 192t-115.5 154t-197 61q-133 0 -240 -90t-131 -229
q-27 -166 69 -283.5t261 -117.5zM533 810l24 140h15l-24 -140h-15zM450 810l24 140h15l-24 -140h-15z" />
    <glyph glyph-name="multiply" unicode="&#xd7;" horiz-adv-x="460" 
d="M75 213l-10 11l168 143l-115 140l11 10l115 -140l162 137l10 -11l-162 -138l114 -138l-12 -10l-114 138z" />
    <glyph glyph-name="Oslash" unicode="&#xd8;" horiz-adv-x="863" 
d="M431 -10q-136 0 -231 79l-62 -69h-22l72 80q-64 60 -92 146t-10 184q26 144 137.5 237t250.5 93q134 0 231 -84l66 74h22l-77 -85q63 -60 90 -146.5t10 -183.5q-26 -144 -136 -234.5t-249 -90.5zM102 406q-16 -90 10 -173t87 -141l495 552q-89 81 -221 81
q-133 0 -240 -90t-131 -229zM432 5q132 0 238 88.5t130 224.5q16 87 -9 171.5t-85 143.5l-495 -552q91 -76 221 -76z" />
    <glyph glyph-name="Ugrave" unicode="&#xd9;" horiz-adv-x="659" 
d="M309 -10q-126 0 -186.5 76.5t-39.5 195.5l82 468h17l-83 -473q-19 -107 37.5 -179t175.5 -72q92 0 159 58t83 147l91 519h17l-91 -519q-17 -98 -89 -159.5t-173 -61.5zM413 795l-106 140h23l99 -140h-16z" />
    <glyph glyph-name="Uacute" unicode="&#xda;" horiz-adv-x="659" 
d="M309 -10q-126 0 -186.5 76.5t-39.5 195.5l82 468h17l-83 -473q-19 -107 37.5 -179t175.5 -72q92 0 159 58t83 147l91 519h17l-91 -519q-17 -98 -89 -159.5t-173 -61.5zM400 798l149 140h25l-154 -140h-20z" />
    <glyph glyph-name="Ucircumflex" unicode="&#xdb;" horiz-adv-x="659" 
d="M309 -10q-126 0 -186.5 76.5t-39.5 195.5l82 468h17l-83 -473q-19 -107 37.5 -179t175.5 -72q92 0 159 58t83 147l91 519h17l-91 -519q-17 -98 -89 -159.5t-173 -61.5zM301 810l143 140h15l95 -140h-19l-85 125l-127 -125h-22z" />
    <glyph glyph-name="Udieresis" unicode="&#xdc;" horiz-adv-x="659" 
d="M309 -10q-126 0 -186.5 76.5t-39.5 195.5l82 468h17l-83 -473q-19 -107 37.5 -179t175.5 -72q92 0 159 58t83 147l91 519h17l-91 -519q-17 -98 -89 -159.5t-173 -61.5zM458 799l24 140h15l-24 -140h-15zM375 799l24 140h15l-24 -140h-15z" />
    <glyph glyph-name="Yacute" unicode="&#xdd;" horiz-adv-x="600" 
d="M247 0l61 351l-183 379h19l175 -364l303 364h21l-318 -383l-61 -347h-17zM376 798l149 140h25l-154 -140h-20z" />
    <glyph glyph-name="Thorn" unicode="&#xde;" horiz-adv-x="550" 
d="M31 0l128 730h17l-25 -142h145q103 0 165 -63.5t45 -161.5q-14 -86 -81 -138.5t-168 -52.5h-179l-30 -172h-17zM295 572h-147l-67 -384h179q93 0 154.5 49t75.5 128q16 89 -40.5 148t-154.5 59z" />
    <glyph glyph-name="germandbls" unicode="&#xdf;" horiz-adv-x="574" 
d="M-125 -230l3 16q134 0 161 155l109 618q15 87 70.5 134.5t135.5 47.5q83 0 129.5 -62.5t31.5 -139.5q-11 -58 -53.5 -97t-97.5 -54q72 -16 111.5 -78.5t25.5 -135.5q-14 -80 -72 -130t-145 -50q-44 0 -87 18.5t-66 42.5l11 10q21 -23 62.5 -39.5t79.5 -16.5
q80 0 135 47.5t67 119.5q14 81 -35 142.5t-134 61.5h-15l2 16h15q55 0 111.5 39t68.5 107q13 71 -28 128t-119 57q-70 0 -123 -45.5t-66 -124.5l-108 -614q-30 -173 -176 -173h-4z" />
    <glyph glyph-name="agrave" unicode="&#xe0;" horiz-adv-x="654" 
d="M293 -10q-118 0 -187 86t-48 206q18 101 95.5 164.5t178.5 63.5q91 0 151 -52t74 -134l31 176h16l-70 -395q-16 -91 54 -91h13l-2 -14h-14q-42 0 -59.5 30t-6.5 80l4 23q-35 -66 -95.5 -104.5t-134.5 -38.5zM294 5q93 0 162.5 64.5t86.5 161.5q20 105 -40 184.5
t-172 79.5q-95 0 -168 -61t-89 -155q-18 -113 45 -193.5t175 -80.5zM358 580l-106 140h23l99 -140h-16z" />
    <glyph glyph-name="aacute" unicode="&#xe1;" horiz-adv-x="654" 
d="M293 -10q-118 0 -187 86t-48 206q18 101 95.5 164.5t178.5 63.5q91 0 151 -52t74 -134l31 176h16l-70 -395q-16 -91 54 -91h13l-2 -14h-14q-42 0 -59.5 30t-6.5 80l4 23q-35 -66 -95.5 -104.5t-134.5 -38.5zM294 5q93 0 162.5 64.5t86.5 161.5q20 105 -40 184.5
t-172 79.5q-95 0 -168 -61t-89 -155q-18 -113 45 -193.5t175 -80.5zM353 580l149 140h25l-154 -140h-20z" />
    <glyph glyph-name="acircumflex" unicode="&#xe2;" horiz-adv-x="654" 
d="M293 -10q-118 0 -187 86t-48 206q18 101 95.5 164.5t178.5 63.5q91 0 151 -52t74 -134l31 176h16l-70 -395q-16 -91 54 -91h13l-2 -14h-14q-42 0 -59.5 30t-6.5 80l4 23q-35 -66 -95.5 -104.5t-134.5 -38.5zM294 5q93 0 162.5 64.5t86.5 161.5q20 105 -40 184.5
t-172 79.5q-95 0 -168 -61t-89 -155q-18 -113 45 -193.5t175 -80.5zM238 580l143 140h15l95 -140h-19l-85 125l-127 -125h-22z" />
    <glyph glyph-name="atilde" unicode="&#xe3;" horiz-adv-x="654" 
d="M293 -10q-118 0 -187 86t-48 206q18 101 95.5 164.5t178.5 63.5q91 0 151 -52t74 -134l31 176h16l-70 -395q-16 -91 54 -91h13l-2 -14h-14q-42 0 -59.5 30t-6.5 80l4 23q-35 -66 -95.5 -104.5t-134.5 -38.5zM294 5q93 0 162.5 64.5t86.5 161.5q20 105 -40 184.5
t-172 79.5q-95 0 -168 -61t-89 -155q-18 -113 45 -193.5t175 -80.5zM205 580q7 36 32.5 60t58.5 24q36 0 94 -37q2 -1 10.5 -6.5t11.5 -7.5t10 -6t11 -5.5t11 -4.5t12 -4t11.5 -2t13.5 -1q62 0 76 71h16q-7 -40 -32.5 -62.5t-60.5 -22.5q-38 0 -99 38q-56 36 -87 36
q-26 0 -46.5 -19t-26.5 -51h-16z" />
    <glyph glyph-name="adieresis" unicode="&#xe4;" horiz-adv-x="654" 
d="M293 -10q-118 0 -187 86t-48 206q18 101 95.5 164.5t178.5 63.5q91 0 151 -52t74 -134l31 176h16l-70 -395q-16 -91 54 -91h13l-2 -14h-14q-42 0 -59.5 30t-6.5 80l4 23q-35 -66 -95.5 -104.5t-134.5 -38.5zM294 5q93 0 162.5 64.5t86.5 161.5q20 105 -40 184.5
t-172 79.5q-95 0 -168 -61t-89 -155q-18 -113 45 -193.5t175 -80.5zM400 580l24 140h15l-24 -140h-15zM317 580l24 140h15l-24 -140h-15z" />
    <glyph glyph-name="aring" unicode="&#xe5;" horiz-adv-x="654" 
d="M293 -10q-118 0 -187 86t-48 206q18 101 95.5 164.5t178.5 63.5q91 0 151 -52t74 -134l31 176h16l-70 -395q-16 -91 54 -91h13l-2 -14h-14q-42 0 -59.5 30t-6.5 80l4 23q-35 -66 -95.5 -104.5t-134.5 -38.5zM294 5q93 0 162.5 64.5t86.5 161.5q20 105 -40 184.5
t-172 79.5q-95 0 -168 -61t-89 -155q-18 -113 45 -193.5t175 -80.5zM382 570q-36 0 -59 27.5t-16 65.5q6 32 31.5 53.5t57.5 21.5q39 0 61 -28.5t16 -62.5q-6 -32 -31.5 -54.5t-59.5 -22.5zM384 585q27 0 48 19t26 45q5 29 -12.5 51.5t-50.5 22.5q-26 0 -47.5 -18t-25.5 -45
q-5 -30 12.5 -52.5t49.5 -22.5z" />
    <glyph glyph-name="ae" unicode="&#xe6;" horiz-adv-x="1011" 
d="M225 -10q-88 0 -125.5 40t-27.5 100q4 29 19 51.5t34 36t50 24.5t56.5 16.5t65.5 12.5q117 19 153 36q46 23 54 66q10 51 -32 87t-128 36q-87 0 -146.5 -38.5t-71.5 -107.5l-16 -1q13 75 78 118t158 43q85 0 130.5 -36t43.5 -88q41 59 107.5 91.5t140.5 32.5
q97 0 150.5 -47t42.5 -110q-11 -62 -69.5 -98.5t-161.5 -36.5q-54 0 -126.5 16t-116.5 35q-19 -115 48 -189.5t189 -74.5q118 0 194 78l11 -13q-80 -80 -205 -80q-90 0 -153 39t-88 107q-39 -57 -106 -101.5t-152 -44.5zM767 494q-98 0 -177.5 -57t-100.5 -154
q48 -20 119.5 -35t121.5 -15q92 0 148.5 32.5t66.5 91.5q10 55 -37.5 96t-140.5 41zM226 4q79 0 145.5 45t105.5 104q-16 57 -4 123q2 13 10 37q-6 -6 -14.5 -11.5t-16 -9t-20 -7.5t-20.5 -6.5t-25.5 -6t-26.5 -5t-31 -5.5l-33 -6q-40 -7 -61.5 -11.5t-51.5 -14t-46 -21.5
t-30 -32t-19 -47q-9 -53 25 -89.5t113 -36.5z" />
    <glyph glyph-name="ccedilla" unicode="&#xe7;" horiz-adv-x="590" 
d="M255 -217q-75 0 -123 50l14 10q41 -46 111 -46q44 0 75 17.5t36 46.5q5 31 -21.5 49t-78.5 18h-16l12 64q-106 14 -165.5 96.5t-40.5 191.5q18 101 95 165.5t176 64.5q77 0 134.5 -36.5t86.5 -97.5l-15 -7q-26 57 -80 91.5t-126 34.5q-94 0 -166.5 -61.5t-88.5 -156.5
q-19 -110 46.5 -191t179.5 -81q66 0 124.5 28t92.5 80l14 -8q-36 -55 -98 -85t-133 -30q-4 0 -11 0.5t-10 0.5l-9 -50q60 -1 90 -23t24 -59q-7 -36 -41.5 -56t-87.5 -20z" />
    <glyph glyph-name="egrave" unicode="&#xe8;" horiz-adv-x="596" 
d="M309 -10q-132 0 -202.5 81t-48.5 205q18 107 103.5 170.5t191.5 63.5q97 0 150.5 -47t42.5 -110q-11 -62 -69.5 -98.5t-161.5 -36.5q-54 0 -126.5 16t-116.5 35q-19 -115 48 -189.5t189 -74.5q118 0 194 78l11 -13q-80 -80 -205 -80zM352 494q-98 0 -177.5 -57
t-100.5 -154q48 -20 119.5 -35t121.5 -15q92 0 148.5 32.5t66.5 91.5q10 55 -37.5 96t-140.5 41zM341 580l-106 140h23l99 -140h-16z" />
    <glyph glyph-name="eacute" unicode="&#xe9;" horiz-adv-x="596" 
d="M309 -10q-132 0 -202.5 81t-48.5 205q18 107 103.5 170.5t191.5 63.5q97 0 150.5 -47t42.5 -110q-11 -62 -69.5 -98.5t-161.5 -36.5q-54 0 -126.5 16t-116.5 35q-19 -115 48 -189.5t189 -74.5q118 0 194 78l11 -13q-80 -80 -205 -80zM352 494q-98 0 -177.5 -57
t-100.5 -154q48 -20 119.5 -35t121.5 -15q92 0 148.5 32.5t66.5 91.5q10 55 -37.5 96t-140.5 41zM337 580l149 140h25l-154 -140h-20z" />
    <glyph glyph-name="ecircumflex" unicode="&#xea;" horiz-adv-x="596" 
d="M309 -10q-132 0 -202.5 81t-48.5 205q18 107 103.5 170.5t191.5 63.5q97 0 150.5 -47t42.5 -110q-11 -62 -69.5 -98.5t-161.5 -36.5q-54 0 -126.5 16t-116.5 35q-19 -115 48 -189.5t189 -74.5q118 0 194 78l11 -13q-80 -80 -205 -80zM352 494q-98 0 -177.5 -57
t-100.5 -154q48 -20 119.5 -35t121.5 -15q92 0 148.5 32.5t66.5 91.5q10 55 -37.5 96t-140.5 41zM228 580l143 140h15l95 -140h-19l-85 125l-127 -125h-22z" />
    <glyph glyph-name="edieresis" unicode="&#xeb;" horiz-adv-x="596" 
d="M309 -10q-132 0 -202.5 81t-48.5 205q18 107 103.5 170.5t191.5 63.5q97 0 150.5 -47t42.5 -110q-11 -62 -69.5 -98.5t-161.5 -36.5q-54 0 -126.5 16t-116.5 35q-19 -115 48 -189.5t189 -74.5q118 0 194 78l11 -13q-80 -80 -205 -80zM352 494q-98 0 -177.5 -57
t-100.5 -154q48 -20 119.5 -35t121.5 -15q92 0 148.5 32.5t66.5 91.5q10 55 -37.5 96t-140.5 41zM408 580l24 140h15l-24 -140h-15zM325 580l24 140h15l-24 -140h-15z" />
    <glyph glyph-name="igrave" unicode="&#xec;" horiz-adv-x="200" 
d="M125 0q-85 0 -66 109l69 391h16l-69 -395q-16 -92 56 -92h11l-2 -13h-15zM144 580l-106 140h23l99 -140h-16z" />
    <glyph glyph-name="iacute" unicode="&#xed;" horiz-adv-x="200" 
d="M125 0q-85 0 -66 109l69 391h16l-69 -395q-16 -92 56 -92h11l-2 -13h-15zM131 580l149 140h25l-154 -140h-20z" />
    <glyph glyph-name="icircumflex" unicode="&#xee;" horiz-adv-x="200" 
d="M125 0q-85 0 -66 109l69 391h16l-69 -395q-16 -92 56 -92h11l-2 -13h-15zM24 580l143 140h15l95 -140h-19l-85 125l-127 -125h-22z" />
    <glyph glyph-name="idieresis" unicode="&#xef;" horiz-adv-x="200" 
d="M125 0q-85 0 -66 109l69 391h16l-69 -395q-16 -92 56 -92h11l-2 -13h-15zM181 580l24 140h15l-24 -140h-15zM98 580l24 140h15l-24 -140h-15z" />
    <glyph glyph-name="eth" unicode="&#xf0;" horiz-adv-x="631" 
d="M246 605l4 16l126 49q-28 30 -63 60h24q38 -36 55 -54l138 55l-4 -16l-124 -49q101 -109 142 -223t22 -222q-19 -101 -96 -166t-173 -65q-120 0 -190 86t-49 206q18 100 99 164t179 64q77 0 136 -47t81 -119q-21 161 -167 316zM297 5q89 0 162.5 63.5t89.5 155.5
q18 103 -45.5 187t-167.5 84q-92 0 -169 -61.5t-93 -154.5q-19 -109 44.5 -191.5t178.5 -82.5z" />
    <glyph glyph-name="ntilde" unicode="&#xf1;" horiz-adv-x="626" 
d="M47 0l74 395q17 92 -54 92h-13l2 13h14q38 0 57.5 -27.5t8.5 -81.5l-4 -18q29 61 87.5 99t130.5 38q109 0 160 -72t32 -178l-30 -155q-8 -43 5.5 -67.5t46.5 -24.5h16l-3 -13h-15q-41 0 -58.5 27t-6.5 82l29 151q18 99 -27 166.5t-150 67.5q-84 0 -149 -55t-80 -135
l-58 -304h-15zM205 580q7 36 32.5 60t58.5 24q36 0 94 -37q2 -1 10.5 -6.5t11.5 -7.5t10 -6t11 -5.5t11 -4.5t12 -4t11.5 -2t13.5 -1q62 0 76 71h16q-7 -40 -32.5 -62.5t-60.5 -22.5q-38 0 -99 38q-56 36 -87 36q-26 0 -46.5 -19t-26.5 -51h-16z" />
    <glyph glyph-name="ograve" unicode="&#xf2;" horiz-adv-x="624" 
d="M297 -10q-120 0 -190 86t-49 206q18 100 94.5 164t173.5 64q80 0 140.5 -43t86 -111t12.5 -141q-18 -100 -95 -162.5t-173 -62.5zM297 5q90 0 163 60.5t89 152.5q19 108 -45 192.5t-178 84.5q-91 0 -163.5 -61t-88.5 -155q-19 -109 44.5 -191.5t178.5 -82.5zM360 580
l-106 140h23l99 -140h-16z" />
    <glyph glyph-name="oacute" unicode="&#xf3;" horiz-adv-x="624" 
d="M297 -10q-120 0 -190 86t-49 206q18 100 94.5 164t173.5 64q80 0 140.5 -43t86 -111t12.5 -141q-18 -100 -95 -162.5t-173 -62.5zM297 5q90 0 163 60.5t89 152.5q19 108 -45 192.5t-178 84.5q-91 0 -163.5 -61t-88.5 -155q-19 -109 44.5 -191.5t178.5 -82.5zM350 580
l149 140h25l-154 -140h-20z" />
    <glyph glyph-name="ocircumflex" unicode="&#xf4;" horiz-adv-x="624" 
d="M297 -10q-120 0 -190 86t-49 206q18 100 94.5 164t173.5 64q80 0 140.5 -43t86 -111t12.5 -141q-18 -100 -95 -162.5t-173 -62.5zM297 5q90 0 163 60.5t89 152.5q19 108 -45 192.5t-178 84.5q-91 0 -163.5 -61t-88.5 -155q-19 -109 44.5 -191.5t178.5 -82.5zM228 580
l143 140h15l95 -140h-19l-85 125l-127 -125h-22z" />
    <glyph glyph-name="otilde" unicode="&#xf5;" horiz-adv-x="624" 
d="M297 -10q-120 0 -190 86t-49 206q18 100 94.5 164t173.5 64q80 0 140.5 -43t86 -111t12.5 -141q-18 -100 -95 -162.5t-173 -62.5zM297 5q90 0 163 60.5t89 152.5q19 108 -45 192.5t-178 84.5q-91 0 -163.5 -61t-88.5 -155q-19 -109 44.5 -191.5t178.5 -82.5zM173 580
q7 36 32.5 60t58.5 24q36 0 94 -37q2 -1 10.5 -6.5t11.5 -7.5t10 -6t11 -5.5t11 -4.5t12 -4t11.5 -2t13.5 -1q62 0 76 71h16q-7 -40 -32.5 -62.5t-60.5 -22.5q-38 0 -99 38q-56 36 -87 36q-26 0 -46.5 -19t-26.5 -51h-16z" />
    <glyph glyph-name="odieresis" unicode="&#xf6;" horiz-adv-x="624" 
d="M297 -10q-120 0 -190 86t-49 206q18 100 94.5 164t173.5 64q80 0 140.5 -43t86 -111t12.5 -141q-18 -100 -95 -162.5t-173 -62.5zM297 5q90 0 163 60.5t89 152.5q19 108 -45 192.5t-178 84.5q-91 0 -163.5 -61t-88.5 -155q-19 -109 44.5 -191.5t178.5 -82.5zM388 580
l24 140h15l-24 -140h-15zM305 580l24 140h15l-24 -140h-15z" />
    <glyph glyph-name="divide" unicode="&#xf7;" horiz-adv-x="460" 
d="M54 357l3 16h370l-3 -16h-370zM245 435l22 124h16l-22 -124h-16zM198 169l22 124h16l-22 -124h-16z" />
    <glyph glyph-name="oslash" unicode="&#xf8;" horiz-adv-x="623" 
d="M77 0l49 55q-43 41 -61.5 100.5t-6.5 126.5q18 100 94.5 164t173.5 64q93 0 158 -57l42 47h21l-52 -57q44 -42 63 -102t7 -126q-18 -100 -95 -162.5t-173 -62.5q-95 0 -159 55l-40 -45h-21zM74 279q-10 -61 6.5 -117t56.5 -95l337 375q-63 53 -148 53q-91 0 -163.5 -61
t-88.5 -155zM297 5q90 0 162.5 60.5t88.5 152.5q11 58 -6 115.5t-57 97.5l-337 -375q61 -51 149 -51z" />
    <glyph glyph-name="ugrave" unicode="&#xf9;" horiz-adv-x="615" 
d="M270 -10q-109 0 -158 71.5t-28 178.5l30 155q15 92 -57 92h-11l2 13h15q85 0 66 -109l-30 -151q-20 -99 24.5 -166.5t147.5 -67.5q84 0 146 54.5t77 135.5l59 304h15l-75 -395q-8 -43 5.5 -67.5t46.5 -24.5h15l-2 -13h-15q-86 0 -64 109l3 17q-29 -62 -86 -99t-126 -37z
M337 580l-106 140h23l99 -140h-16z" />
    <glyph glyph-name="uacute" unicode="&#xfa;" horiz-adv-x="615" 
d="M270 -10q-109 0 -158 71.5t-28 178.5l30 155q15 92 -57 92h-11l2 13h15q85 0 66 -109l-30 -151q-20 -99 24.5 -166.5t147.5 -67.5q84 0 146 54.5t77 135.5l59 304h15l-75 -395q-8 -43 5.5 -67.5t46.5 -24.5h15l-2 -13h-15q-86 0 -64 109l3 17q-29 -62 -86 -99t-126 -37z
M320 580l149 140h25l-154 -140h-20z" />
    <glyph glyph-name="ucircumflex" unicode="&#xfb;" horiz-adv-x="615" 
d="M270 -10q-109 0 -158 71.5t-28 178.5l30 155q15 92 -57 92h-11l2 13h15q85 0 66 -109l-30 -151q-20 -99 24.5 -166.5t147.5 -67.5q84 0 146 54.5t77 135.5l59 304h15l-75 -395q-8 -43 5.5 -67.5t46.5 -24.5h15l-2 -13h-15q-86 0 -64 109l3 17q-29 -62 -86 -99t-126 -37z
M217 580l143 140h15l95 -140h-19l-85 125l-127 -125h-22z" />
    <glyph glyph-name="udieresis" unicode="&#xfc;" horiz-adv-x="615" 
d="M270 -10q-109 0 -158 71.5t-28 178.5l30 155q15 92 -57 92h-11l2 13h15q85 0 66 -109l-30 -151q-20 -99 24.5 -166.5t147.5 -67.5q84 0 146 54.5t77 135.5l59 304h15l-75 -395q-8 -43 5.5 -67.5t46.5 -24.5h15l-2 -13h-15q-86 0 -64 109l3 17q-29 -62 -86 -99t-126 -37z
M307 580l24 140h15l-24 -140h-15zM390 580l24 140h15l-24 -140h-15z" />
    <glyph glyph-name="yacute" unicode="&#xfd;" horiz-adv-x="609" 
d="M239 -240q-74 0 -130.5 36.5t-79.5 97.5l16 5q23 -57 74 -90t120 -33q180 0 222 235l22 115q-29 -62 -86 -99t-126 -37q-109 0 -158 71.5t-28 178.5l30 155q15 92 -57 92h-11l2 13h15q85 0 66 -109l-30 -151q-20 -99 24.5 -166.5t147.5 -67.5q84 0 146 54.5t77 135.5
l59 304h15l-92 -489q-45 -251 -238 -251zM311 580l149 140h25l-154 -140h-20z" />
    <glyph glyph-name="thorn" unicode="&#xfe;" horiz-adv-x="646" 
d="M319 -10q-94 0 -154 50t-75 130l-70 -400h-17l169 960h17q-47 -267 -66 -373q37 73 101.5 113t137.5 40q114 0 180 -86.5t45 -206.5q-18 -100 -95 -163.5t-173 -63.5zM320 6q89 0 162 61t89 153q20 111 -41 192.5t-171 81.5q-91 0 -165 -66.5t-90 -166.5
q-19 -103 40.5 -179t175.5 -76z" />
    <glyph glyph-name="ydieresis" unicode="&#xff;" horiz-adv-x="609" 
d="M239 -240q-74 0 -130.5 36.5t-79.5 97.5l16 5q23 -57 74 -90t120 -33q180 0 222 235l22 115q-29 -62 -86 -99t-126 -37q-109 0 -158 71.5t-28 178.5l30 155q15 92 -57 92h-11l2 13h15q85 0 66 -109l-30 -151q-20 -99 24.5 -166.5t147.5 -67.5q84 0 146 54.5t77 135.5
l59 304h15l-92 -489q-45 -251 -238 -251zM309 580l24 140h15l-24 -140h-15zM392 580l24 140h15l-24 -140h-15z" />
    <glyph glyph-name="Amacron" unicode="&#x100;" horiz-adv-x="684" 
d="M0 0l418 730h17l162 -730h-18l-53 243h-369l-138 -243h-19zM424 709l-258 -451h356zM309 810l3 15h264l-3 -15h-264z" />
    <glyph glyph-name="amacron" unicode="&#x101;" horiz-adv-x="654" 
d="M293 -10q-118 0 -187 86t-48 206q18 101 95.5 164.5t178.5 63.5q91 0 151 -52t74 -134l31 176h16l-70 -395q-16 -91 54 -91h13l-2 -14h-14q-42 0 -59.5 30t-6.5 80l4 23q-35 -66 -95.5 -104.5t-134.5 -38.5zM294 5q93 0 162.5 64.5t86.5 161.5q20 105 -40 184.5
t-172 79.5q-95 0 -168 -61t-89 -155q-18 -113 45 -193.5t175 -80.5zM248 580l3 15h264l-3 -15h-264z" />
    <glyph glyph-name="Abreve" unicode="&#x102;" horiz-adv-x="684" 
d="M0 0l418 730h17l162 -730h-18l-53 243h-369l-138 -243h-19zM424 709l-258 -451h356zM436 805q-70 0 -110 45t-30 100h16q-9 -49 26 -89.5t101 -40.5q68 0 111 39t52 91h17q-11 -59 -57.5 -102t-125.5 -43z" />
    <glyph glyph-name="abreve" unicode="&#x103;" horiz-adv-x="654" 
d="M293 -10q-118 0 -187 86t-48 206q18 101 95.5 164.5t178.5 63.5q91 0 151 -52t74 -134l31 176h16l-70 -395q-16 -91 54 -91h13l-2 -14h-14q-42 0 -59.5 30t-6.5 80l4 23q-35 -66 -95.5 -104.5t-134.5 -38.5zM294 5q93 0 162.5 64.5t86.5 161.5q20 105 -40 184.5
t-172 79.5q-95 0 -168 -61t-89 -155q-18 -113 45 -193.5t175 -80.5zM374 570q-70 0 -110 45t-30 100h16q-9 -49 26 -89.5t101 -40.5q68 0 111 39t52 91h17q-11 -59 -57.5 -102t-125.5 -43z" />
    <glyph glyph-name="Aogonek" unicode="&#x104;" horiz-adv-x="684" 
d="M539 -194q-45 0 -73 27.5t-21 65.5q6 33 36.5 57.5t95.5 51.5l-51 235h-369l-138 -243h-19l418 730h17l162 -730h-1q-125 -49 -135 -104q-5 -31 18 -53.5t63 -22.5q67 0 124 47l12 -10q-62 -51 -139 -51zM424 709l-258 -451h356z" />
    <glyph glyph-name="aogonek" unicode="&#x105;" horiz-adv-x="654" 
d="M293 -10q-118 0 -187 86t-48 206q18 101 95.5 164.5t178.5 63.5q91 0 151 -52t74 -134l31 176h16l-70 -395q-16 -91 54 -91h13l-2 -13l2 -1q-125 -49 -135 -104q-5 -31 18 -53.5t63 -22.5q67 0 124 47l12 -10q-62 -51 -139 -51q-45 0 -73 27.5t-21 65.5q6 31 33 54.5
t84 47.5q-32 7 -45 36t-3 73l4 23q-35 -66 -95.5 -104.5t-134.5 -38.5zM294 5q93 0 162.5 64.5t86.5 161.5q20 105 -40 184.5t-172 79.5q-95 0 -168 -61t-89 -155q-18 -113 45 -193.5t175 -80.5z" />
    <glyph glyph-name="Cacute" unicode="&#x106;" horiz-adv-x="806" 
d="M419 -10q-113 0 -197 57t-119.5 153t-15.5 210q26 144 142 237t258 93q215 0 302 -165l-15 -8q-81 158 -288 158q-136 0 -247.5 -90.5t-135.5 -228.5q-13 -77 2.5 -149t55 -128t107 -90t152.5 -34q91 0 174.5 41.5t134.5 113.5l14 -9q-53 -76 -140 -118.5t-184 -42.5z
M521 810l149 140h25l-154 -140h-20z" />
    <glyph glyph-name="cacute" unicode="&#x107;" horiz-adv-x="590" 
d="M300 -10q-120 0 -191.5 85.5t-50.5 204.5q18 101 95 165.5t176 64.5q77 0 134.5 -36.5t86.5 -97.5l-15 -7q-26 57 -80 91.5t-126 34.5q-94 0 -166.5 -61.5t-88.5 -156.5q-19 -110 46.5 -191t179.5 -81q66 0 124.5 28t92.5 80l14 -8q-36 -55 -98 -85t-133 -30zM347 580
l149 140h25l-154 -140h-20z" />
    <glyph glyph-name="Ccircumflex" unicode="&#x108;" horiz-adv-x="806" 
d="M419 -10q-113 0 -197 57t-119.5 153t-15.5 210q26 144 142 237t258 93q215 0 302 -165l-15 -8q-81 158 -288 158q-136 0 -247.5 -90.5t-135.5 -228.5q-13 -77 2.5 -149t55 -128t107 -90t152.5 -34q91 0 174.5 41.5t134.5 113.5l14 -9q-53 -76 -140 -118.5t-184 -42.5z
M398 810l143 140h15l95 -140h-19l-85 125l-127 -125h-22z" />
    <glyph glyph-name="ccircumflex" unicode="&#x109;" horiz-adv-x="590" 
d="M300 -10q-120 0 -191.5 85.5t-50.5 204.5q18 101 95 165.5t176 64.5q77 0 134.5 -36.5t86.5 -97.5l-15 -7q-26 57 -80 91.5t-126 34.5q-94 0 -166.5 -61.5t-88.5 -156.5q-19 -110 46.5 -191t179.5 -81q66 0 124.5 28t92.5 80l14 -8q-36 -55 -98 -85t-133 -30zM239 580
l143 140h15l95 -140h-19l-85 125l-127 -125h-22z" />
    <glyph glyph-name="Cdotaccent" unicode="&#x10a;" horiz-adv-x="806" 
d="M419 -10q-113 0 -197 57t-119.5 153t-15.5 210q26 144 142 237t258 93q215 0 302 -165l-15 -8q-81 158 -288 158q-136 0 -247.5 -90.5t-135.5 -228.5q-13 -77 2.5 -149t55 -128t107 -90t152.5 -34q91 0 174.5 41.5t134.5 113.5l14 -9q-53 -76 -140 -118.5t-184 -42.5z
M522 810l24 140h17l-24 -140h-17z" />
    <glyph glyph-name="cdotaccent" unicode="&#x10b;" horiz-adv-x="590" 
d="M300 -10q-120 0 -191.5 85.5t-50.5 204.5q18 101 95 165.5t176 64.5q77 0 134.5 -36.5t86.5 -97.5l-15 -7q-26 57 -80 91.5t-126 34.5q-94 0 -166.5 -61.5t-88.5 -156.5q-19 -110 46.5 -191t179.5 -81q66 0 124.5 28t92.5 80l14 -8q-36 -55 -98 -85t-133 -30zM354 580
l24 140h17l-24 -140h-17z" />
    <glyph glyph-name="Ccaron" unicode="&#x10c;" horiz-adv-x="806" 
d="M419 -10q-113 0 -197 57t-119.5 153t-15.5 210q26 144 142 237t258 93q215 0 302 -165l-15 -8q-81 158 -288 158q-136 0 -247.5 -90.5t-135.5 -228.5q-13 -77 2.5 -149t55 -128t107 -90t152.5 -34q91 0 174.5 41.5t134.5 113.5l14 -9q-53 -76 -140 -118.5t-184 -42.5z
M512 810l-95 140h19l84 -125l128 125h22l-143 -140h-15z" />
    <glyph glyph-name="ccaron" unicode="&#x10d;" horiz-adv-x="590" 
d="M300 -10q-120 0 -191.5 85.5t-50.5 204.5q18 101 95 165.5t176 64.5q77 0 134.5 -36.5t86.5 -97.5l-15 -7q-26 57 -80 91.5t-126 34.5q-94 0 -166.5 -61.5t-88.5 -156.5q-19 -110 46.5 -191t179.5 -81q66 0 124.5 28t92.5 80l14 -8q-36 -55 -98 -85t-133 -30zM356 580
l-95 140h19l84 -125l128 125h22l-143 -140h-15z" />
    <glyph glyph-name="Dcaron" unicode="&#x10e;" horiz-adv-x="701" 
d="M38 0l128 730h169q104 -2 185 -55.5t118.5 -144t19.5 -195.5q-27 -155 -139.5 -245t-263.5 -90h-217zM330 715h-150l-122 -700h198q144 0 251.5 87.5t133.5 236.5q27 152 -65 264t-246 112zM402 810l-95 140h19l84 -125l128 125h22l-143 -140h-15z" />
    <glyph glyph-name="dcaron" unicode="&#x10f;" horiz-adv-x="678" 
d="M293 -10q-118 0 -187 86t-48 206q18 101 95.5 164.5t178.5 63.5q90 0 150 -51t75 -132l73 403h16l-115 -625q-8 -43 8 -67t53 -24h12l-2 -14h-13q-41 0 -61.5 27.5t-9.5 82.5l4 20q-36 -66 -95.5 -103t-133.5 -37zM294 5q93 0 162.5 64.5t86.5 161.5q20 105 -40 184.5
t-172 79.5q-95 0 -168 -61t-89 -155q-18 -113 45 -193.5t175 -80.5zM676 590l109 140h22l-113 -140h-18z" />
    <glyph glyph-name="Dcroat" unicode="&#x110;" horiz-adv-x="719" 
d="M43 368l3 15h77l61 347h169q106 -2 187 -55.5t118.5 -145t17.5 -198.5q-25 -141 -140 -236t-263 -95h-217l64 368h-77zM406 368h-269l-62 -352h199q140 0 251.5 93t133.5 230q26 153 -66 264t-245 111h-149l-59 -331h269z" />
    <glyph glyph-name="dcroat" unicode="&#x111;" horiz-adv-x="658" 
d="M427 580l2 14h176l25 136h16l-25 -136h72l-2 -14h-73l-87 -475q-8 -43 8 -67t53 -24h12l-2 -14h-13q-41 0 -61.5 27.5t-9.5 82.5l4 20q-36 -66 -95.5 -103t-133.5 -37q-118 0 -187 86t-48 206q18 101 95.5 164.5t178.5 63.5q90 0 150 -51t75 -132q3 17 19.5 108t25.5 145
h-175zM294 5q93 0 162.5 64.5t86.5 161.5q20 105 -40 184.5t-172 79.5q-95 0 -168 -61t-89 -155q-18 -113 45 -193.5t175 -80.5z" />
    <glyph glyph-name="Emacron" unicode="&#x112;" horiz-adv-x="600" 
d="M38 0l128 730h453l-3 -15h-436l-59 -335h437l-3 -15h-436l-62 -350h437l-3 -15h-453zM275 810l3 15h264l-3 -15h-264z" />
    <glyph glyph-name="emacron" unicode="&#x113;" horiz-adv-x="596" 
d="M309 -10q-132 0 -202.5 81t-48.5 205q18 107 103.5 170.5t191.5 63.5q97 0 150.5 -47t42.5 -110q-11 -62 -69.5 -98.5t-161.5 -36.5q-54 0 -126.5 16t-116.5 35q-19 -115 48 -189.5t189 -74.5q118 0 194 78l11 -13q-80 -80 -205 -80zM352 494q-98 0 -177.5 -57
t-100.5 -154q48 -20 119.5 -35t121.5 -15q92 0 148.5 32.5t66.5 91.5q10 55 -37.5 96t-140.5 41zM225 580l3 15h264l-3 -15h-264z" />
    <glyph glyph-name="Ebreve" unicode="&#x114;" horiz-adv-x="600" 
d="M38 0l128 730h453l-3 -15h-436l-59 -335h437l-3 -15h-436l-62 -350h437l-3 -15h-453zM401 805q-70 0 -110 45t-30 100h16q-9 -49 26 -89.5t101 -40.5q68 0 111 39t52 91h17q-11 -59 -57.5 -102t-125.5 -43z" />
    <glyph glyph-name="ebreve" unicode="&#x115;" horiz-adv-x="596" 
d="M309 -10q-132 0 -202.5 81t-48.5 205q18 107 103.5 170.5t191.5 63.5q97 0 150.5 -47t42.5 -110q-11 -62 -69.5 -98.5t-161.5 -36.5q-54 0 -126.5 16t-116.5 35q-19 -115 48 -189.5t189 -74.5q118 0 194 78l11 -13q-80 -80 -205 -80zM352 494q-98 0 -177.5 -57
t-100.5 -154q48 -20 119.5 -35t121.5 -15q92 0 148.5 32.5t66.5 91.5q10 55 -37.5 96t-140.5 41zM368 570q-70 0 -110 45t-30 100h16q-9 -49 26 -89.5t101 -40.5q68 0 111 39t52 91h17q-11 -59 -57.5 -102t-125.5 -43z" />
    <glyph glyph-name="Edotaccent" unicode="&#x116;" horiz-adv-x="600" 
d="M38 0l128 730h453l-3 -15h-436l-59 -335h437l-3 -15h-436l-62 -350h437l-3 -15h-453zM405 810l24 140h17l-24 -140h-17z" />
    <glyph glyph-name="edotaccent" unicode="&#x117;" horiz-adv-x="596" 
d="M309 -10q-132 0 -202.5 81t-48.5 205q18 107 103.5 170.5t191.5 63.5q97 0 150.5 -47t42.5 -110q-11 -62 -69.5 -98.5t-161.5 -36.5q-54 0 -126.5 16t-116.5 35q-19 -115 48 -189.5t189 -74.5q118 0 194 78l11 -13q-80 -80 -205 -80zM352 494q-98 0 -177.5 -57
t-100.5 -154q48 -20 119.5 -35t121.5 -15q92 0 148.5 32.5t66.5 91.5q10 55 -37.5 96t-140.5 41zM347 580l24 140h17l-24 -140h-17z" />
    <glyph glyph-name="Eogonek" unicode="&#x118;" horiz-adv-x="600" 
d="M38 0l128 730h453l-3 -15h-436l-59 -335h437l-3 -15h-436l-62 -350h437l-3 -15q-125 -49 -135 -104q-5 -31 18 -53.5t63 -22.5q67 0 124 47l12 -10q-62 -51 -139 -51q-45 0 -73 27.5t-21 65.5q6 31 32 54t81 47h-415z" />
    <glyph glyph-name="eogonek" unicode="&#x119;" horiz-adv-x="596" 
d="M255 -203q-45 0 -73 27.5t-21 65.5q6 31 32 54t82 48q-117 11 -177 89.5t-40 194.5q18 107 103.5 170.5t191.5 63.5q97 0 150.5 -47t42.5 -110q-11 -62 -69.5 -98.5t-161.5 -36.5q-54 0 -126.5 16t-116.5 35q-19 -115 48 -189.5t189 -74.5q118 0 194 78l11 -13
q-80 -80 -205 -80q-122 -47 -132 -103q-5 -31 18 -53.5t63 -22.5q67 0 124 47l12 -10q-62 -51 -139 -51zM352 494q-98 0 -177.5 -57t-100.5 -154q48 -20 119.5 -35t121.5 -15q92 0 148.5 32.5t66.5 91.5q10 55 -37.5 96t-140.5 41z" />
    <glyph glyph-name="Ecaron" unicode="&#x11a;" horiz-adv-x="600" 
d="M38 0l128 730h453l-3 -15h-436l-59 -335h437l-3 -15h-436l-62 -350h437l-3 -15h-453zM403 810l-95 140h19l84 -125l128 125h22l-143 -140h-15z" />
    <glyph glyph-name="ecaron" unicode="&#x11b;" horiz-adv-x="596" 
d="M309 -10q-132 0 -202.5 81t-48.5 205q18 107 103.5 170.5t191.5 63.5q97 0 150.5 -47t42.5 -110q-11 -62 -69.5 -98.5t-161.5 -36.5q-54 0 -126.5 16t-116.5 35q-19 -115 48 -189.5t189 -74.5q118 0 194 78l11 -13q-80 -80 -205 -80zM352 494q-98 0 -177.5 -57
t-100.5 -154q48 -20 119.5 -35t121.5 -15q92 0 148.5 32.5t66.5 91.5q10 55 -37.5 96t-140.5 41zM354 580l-95 140h19l84 -125l128 125h22l-143 -140h-15z" />
    <glyph glyph-name="Gcircumflex" unicode="&#x11c;" horiz-adv-x="860" 
d="M435 -10q-115 0 -203 56.5t-127 153.5t-19 210q26 145 138 237.5t254 92.5q102 0 182 -46t128 -129l-14 -8q-99 168 -297 168q-136 0 -243 -90t-132 -229q-13 -76 4.5 -149t60 -128.5t113 -89.5t156.5 -34q150 0 252.5 100.5t115.5 247.5h-362l2 15h378q-5 -74 -33 -141
t-76 -120.5t-120 -85t-158 -31.5zM363 810l143 140h15l95 -140h-19l-85 125l-127 -125h-22z" />
    <glyph glyph-name="gcircumflex" unicode="&#x11d;" horiz-adv-x="650" 
d="M293 -10q-118 0 -187 86t-48 206q18 101 95.5 164.5t178.5 63.5q93 0 153.5 -54.5t72.5 -138.5l33 183h16l-87 -489q-45 -251 -256 -251q-83 0 -138.5 35.5t-79.5 98.5l16 5q49 -123 202 -123q198 0 240 235l23 129q-35 -69 -96.5 -109.5t-137.5 -40.5zM294 5
q93 0 162.5 64.5t86.5 161.5q20 105 -40 184.5t-172 79.5q-95 0 -168 -61t-89 -155q-18 -113 45 -193.5t175 -80.5zM241 580l143 140h15l95 -140h-19l-85 125l-127 -125h-22z" />
    <glyph glyph-name="Gbreve" unicode="&#x11e;" horiz-adv-x="860" 
d="M435 -10q-115 0 -203 56.5t-127 153.5t-19 210q26 145 138 237.5t254 92.5q102 0 182 -46t128 -129l-14 -8q-99 168 -297 168q-136 0 -243 -90t-132 -229q-13 -76 4.5 -149t60 -128.5t113 -89.5t156.5 -34q150 0 252.5 100.5t115.5 247.5h-362l2 15h378q-5 -74 -33 -141
t-76 -120.5t-120 -85t-158 -31.5zM501 805q-70 0 -110 45t-30 100h16q-9 -49 26 -89.5t101 -40.5q68 0 111 39t52 91h17q-11 -59 -57.5 -102t-125.5 -43z" />
    <glyph glyph-name="gbreve" unicode="&#x11f;" horiz-adv-x="650" 
d="M293 -10q-118 0 -187 86t-48 206q18 101 95.5 164.5t178.5 63.5q93 0 153.5 -54.5t72.5 -138.5l33 183h16l-87 -489q-45 -251 -256 -251q-83 0 -138.5 35.5t-79.5 98.5l16 5q49 -123 202 -123q198 0 240 235l23 129q-35 -69 -96.5 -109.5t-137.5 -40.5zM294 5
q93 0 162.5 64.5t86.5 161.5q20 105 -40 184.5t-172 79.5q-95 0 -168 -61t-89 -155q-18 -113 45 -193.5t175 -80.5zM379 570q-70 0 -110 45t-30 100h16q-9 -49 26 -89.5t101 -40.5q68 0 111 39t52 91h17q-11 -59 -57.5 -102t-125.5 -43z" />
    <glyph glyph-name="Gdotaccent" unicode="&#x120;" horiz-adv-x="860" 
d="M435 -10q-115 0 -203 56.5t-127 153.5t-19 210q26 145 138 237.5t254 92.5q102 0 182 -46t128 -129l-14 -8q-99 168 -297 168q-136 0 -243 -90t-132 -229q-13 -76 4.5 -149t60 -128.5t113 -89.5t156.5 -34q150 0 252.5 100.5t115.5 247.5h-362l2 15h378q-5 -74 -33 -141
t-76 -120.5t-120 -85t-158 -31.5zM490 810l24 140h17l-24 -140h-17z" />
    <glyph glyph-name="gdotaccent" unicode="&#x121;" horiz-adv-x="650" 
d="M293 -10q-118 0 -187 86t-48 206q18 101 95.5 164.5t178.5 63.5q93 0 153.5 -54.5t72.5 -138.5l33 183h16l-87 -489q-45 -251 -256 -251q-83 0 -138.5 35.5t-79.5 98.5l16 5q49 -123 202 -123q198 0 240 235l23 129q-35 -69 -96.5 -109.5t-137.5 -40.5zM294 5
q93 0 162.5 64.5t86.5 161.5q20 105 -40 184.5t-172 79.5q-95 0 -168 -61t-89 -155q-18 -113 45 -193.5t175 -80.5zM345 580l24 140h17l-24 -140h-17z" />
    <glyph glyph-name="Gcommaaccent" unicode="&#x122;" horiz-adv-x="860" 
d="M435 -10q-115 0 -203 56.5t-127 153.5t-19 210q26 145 138 237.5t254 92.5q102 0 182 -46t128 -129l-14 -8q-99 168 -297 168q-136 0 -243 -90t-132 -229q-13 -76 4.5 -149t60 -128.5t113 -89.5t156.5 -34q150 0 252.5 100.5t115.5 247.5h-362l2 15h378q-5 -74 -33 -141
t-76 -120.5t-120 -85t-158 -31.5zM315 -280l85 204h20l-91 -204h-14z" />
    <glyph glyph-name="gcommaaccent" unicode="&#x123;" horiz-adv-x="650" 
d="M293 -10q-118 0 -187 86t-48 206q18 101 95.5 164.5t178.5 63.5q93 0 153.5 -54.5t72.5 -138.5l33 183h16l-87 -489q-45 -251 -256 -251q-83 0 -138.5 35.5t-79.5 98.5l16 5q49 -123 202 -123q198 0 240 235l23 129q-35 -69 -96.5 -109.5t-137.5 -40.5zM294 5
q93 0 162.5 64.5t86.5 161.5q20 105 -40 184.5t-172 79.5q-95 0 -168 -61t-89 -155q-18 -113 45 -193.5t175 -80.5zM348 561l85 204h20l-91 -204h-14z" />
    <glyph glyph-name="Hcircumflex" unicode="&#x124;" horiz-adv-x="656" 
d="M513 0l62 357h-458l-62 -357h-17l128 730h17l-63 -358h458l63 358h17l-128 -730h-17zM292 810l143 140h15l95 -140h-19l-85 125l-127 -125h-22z" />
    <glyph glyph-name="hcircumflex" unicode="&#x125;" horiz-adv-x="618" 
d="M43 0l128 730h15l-64 -364q28 64 87 104t133 40q109 0 160 -72t32 -178l-30 -155q-8 -43 5.5 -67.5t46.5 -24.5h15l-2 -13h-15q-41 0 -58.5 27t-6.5 82l29 151q18 99 -27 166.5t-150 67.5q-84 0 -148.5 -55t-79.5 -135l-54 -304h-16zM67 790l143 140h15l95 -140h-19
l-85 125l-127 -125h-22z" />
    <glyph glyph-name="Hbar" unicode="&#x126;" horiz-adv-x="692" 
d="M66 545l2 15h90l30 170h17l-30 -170h458l30 170h17l-30 -170h79l-2 -15h-80l-95 -545h-17l62 357h-458l-62 -357h-17l95 545h-89zM172 545l-30 -173h458l30 173h-458z" />
    <glyph glyph-name="hbar" unicode="&#x127;" horiz-adv-x="618" 
d="M92 619l2 14h60l17 97h15l-17 -97h189l-2 -14h-190l-44 -253q28 64 87 104t133 40q109 0 160 -72t32 -178l-30 -155q-8 -43 5.5 -67.5t46.5 -24.5h15l-2 -13h-15q-41 0 -58.5 27t-6.5 82l29 151q18 99 -27 166.5t-150 67.5q-84 0 -148.5 -55t-79.5 -135l-54 -304h-16
l108 619h-59z" />
    <glyph glyph-name="Itilde" unicode="&#x128;" horiz-adv-x="201" 
d="M48 0l128 730h17l-128 -730h-17zM31 810q7 36 32.5 60t58.5 24q36 0 94 -37q2 -1 10.5 -6.5t11.5 -7.5t10 -6t11 -5.5t11 -4.5t12 -4t11.5 -2t13.5 -1q62 0 76 71h16q-7 -40 -32.5 -62.5t-60.5 -22.5q-38 0 -99 38q-56 36 -87 36q-26 0 -46.5 -19t-26.5 -51h-16z" />
    <glyph glyph-name="itilde" unicode="&#x129;" horiz-adv-x="200" 
d="M-34 580q7 36 32.5 60t58.5 24q36 0 94 -37q2 -1 10.5 -6.5t11.5 -7.5t10 -6t11 -5.5t11 -4.5t12 -4t11.5 -2t13.5 -1q62 0 76 71h16q-7 -40 -32.5 -62.5t-60.5 -22.5q-38 0 -99 38q-56 36 -87 36q-26 0 -46.5 -19t-26.5 -51h-16zM125 0q-85 0 -66 109l69 391h16
l-69 -395q-16 -92 56 -92h11l-2 -13h-15z" />
    <glyph glyph-name="Imacron" unicode="&#x12a;" horiz-adv-x="201" 
d="M48 0l128 730h17l-128 -730h-17zM66 810l3 15h264l-3 -15h-264z" />
    <glyph glyph-name="imacron" unicode="&#x12b;" horiz-adv-x="200" 
d="M20 580l3 15h264l-3 -15h-264zM125 0q-85 0 -66 109l69 391h16l-69 -395q-16 -92 56 -92h11l-2 -13h-15z" />
    <glyph glyph-name="Ibreve" unicode="&#x12c;" horiz-adv-x="201" 
d="M48 0l128 730h17l-128 -730h-17zM208 805q-70 0 -110 45t-30 100h16q-9 -49 26 -89.5t101 -40.5q68 0 111 39t52 91h17q-11 -59 -57.5 -102t-125.5 -43z" />
    <glyph glyph-name="ibreve" unicode="&#x12d;" horiz-adv-x="200" 
d="M149 570q-70 0 -110 45t-30 100h16q-9 -49 26 -89.5t101 -40.5q68 0 111 39t52 91h17q-11 -59 -57.5 -102t-125.5 -43zM125 0q-85 0 -66 109l69 391h16l-69 -395q-16 -92 56 -92h11l-2 -13h-15z" />
    <glyph glyph-name="Iogonek" unicode="&#x12e;" horiz-adv-x="201" 
d="M10 -194q-45 0 -73 27.5t-21 65.5q7 33 37.5 58t95.5 51l127 722h17l-128 -729l2 -1q-125 -49 -135 -104q-5 -31 18 -53.5t63 -22.5q67 0 124 47l12 -10q-62 -51 -139 -51z" />
    <glyph glyph-name="iogonek" unicode="&#x12f;" horiz-adv-x="200" 
d="M83 -194q-45 0 -73 27.5t-21 65.5q6 31 33 54.5t84 47.5q-64 13 -47 108l69 391h16l-69 -395q-16 -92 56 -92h11l-2 -13q-125 -49 -135 -104q-5 -31 18 -53.5t63 -22.5q67 0 124 47l12 -10q-62 -51 -139 -51zM142 580l26 150h16l-26 -150h-16z" />
    <glyph glyph-name="Idotaccent" unicode="&#x130;" horiz-adv-x="201" 
d="M48 0l128 730h17l-128 -730h-17zM189 810l24 140h17l-24 -140h-17z" />
    <glyph glyph-name="dotlessi" unicode="&#x131;" horiz-adv-x="200" 
d="M125 0q-85 0 -66 109l69 391h16l-69 -395q-16 -92 56 -92h11l-2 -13h-15z" />
    <glyph glyph-name="IJ" unicode="&#x132;" horiz-adv-x="523" 
d="M159 0l3 15h78q74 0 120 45.5t59 120.5l97 549h17l-97 -549q-14 -82 -63.5 -131.5t-133.5 -49.5h-80zM31 0l128 730h17l-128 -730h-17z" />
    <glyph glyph-name="ij" unicode="&#x133;" horiz-adv-x="302" 
d="M7 -137l3 15q81 0 112 26t49 118l84 478h16l-84 -479q-17 -98 -52.5 -128t-123.5 -30h-4zM47 0h-16l88 500h16zM269 580l26 150h16l-26 -150h-16zM133 580l26 150h16l-26 -150h-16z" />
    <glyph glyph-name="Jcircumflex" unicode="&#x134;" horiz-adv-x="487" 
d="M194 -10q-66 0 -111.5 29t-63.5 75l14 8q18 -44 59.5 -70t102.5 -26q74 0 120.5 45t58.5 120l98 559h17l-98 -559q-14 -82 -63.5 -131.5t-133.5 -49.5zM360 810l143 140h15l95 -140h-19l-85 125l-127 -125h-22z" />
    <glyph glyph-name="jcircumflex" unicode="&#x135;" horiz-adv-x="197" 
d="M-137 -228l3 17q90 0 123 27t49 121l100 563h16l-100 -564q-17 -99 -55 -131.5t-134 -32.5h-2zM25 580l143 140h15l95 -140h-19l-85 125l-127 -125h-22z" />
    <glyph glyph-name="Kcommaaccent" unicode="&#x136;" horiz-adv-x="654" 
d="M555 0l-225 420l-240 -222h-1l-34 -198h-17l128 730h17l-89 -507l546 507h24l-321 -298l231 -432h-19zM191 -280l85 204h20l-91 -204h-14z" />
    <glyph glyph-name="kcommaaccent" unicode="&#x137;" horiz-adv-x="529" 
d="M470 0q-45 0 -63.5 12.5t-43.5 53.5l-122 211l-157 -132l-25 -145h-16l128 730h16l-99 -564l393 334h23l-252 -214l122 -207q27 -43 42.5 -54.5t56.5 -11.5h9l-3 -13h-9zM142 -260l85 204h20l-91 -204h-14z" />
    <glyph glyph-name="kgreenlandic" unicode="&#x138;" horiz-adv-x="529" 
d="M470 0q-45 0 -63.5 12.5t-43.5 53.5l-122 211l-157 -132l-25 -145h-16l88 500h16l-59 -334l393 334h23l-252 -214l122 -207q27 -43 42.5 -54.5t56.5 -11.5h9l-3 -13h-9z" />
    <glyph glyph-name="Lacute" unicode="&#x139;" horiz-adv-x="544" 
d="M38 0l128 730h17l-125 -714h387l-2 -16h-405zM184 810l149 140h25l-154 -140h-20z" />
    <glyph glyph-name="lacute" unicode="&#x13a;" horiz-adv-x="201" 
d="M126 0q-40 0 -58 27.5t-8 81.5l109 621h16l-109 -621q-16 -96 56 -96h11l-2 -13h-15zM174 790l149 140h25l-154 -140h-20z" />
    <glyph glyph-name="Lcommaaccent" unicode="&#x13b;" horiz-adv-x="544" 
d="M38 0l128 730h17l-125 -714h387l-2 -16h-405zM127 -280l85 204h20l-91 -204h-14z" />
    <glyph glyph-name="lcommaaccent" unicode="&#x13c;" horiz-adv-x="201" 
d="M126 0q-40 0 -58 27.5t-8 81.5l109 621h16l-109 -621q-16 -96 56 -96h11l-2 -13h-15zM4 -260l85 204h20l-91 -204h-14z" />
    <glyph glyph-name="Lcaron" unicode="&#x13d;" horiz-adv-x="544" 
d="M38 0l128 730h17l-125 -714h387l-2 -16h-405zM328 590l109 140h22l-113 -140h-18z" />
    <glyph glyph-name="lcaron" unicode="&#x13e;" horiz-adv-x="221" 
d="M126 0q-40 0 -58 27.5t-8 81.5l109 621h16l-109 -621q-16 -96 56 -96h11l-2 -13h-15zM216 590l109 140h22l-113 -140h-18z" />
    <glyph glyph-name="Ldot" unicode="&#x13f;" horiz-adv-x="553" 
d="M38 0l128 730h17l-125 -714h387l-2 -16h-405zM453 206l24 140h17l-24 -140h-17z" />
    <glyph glyph-name="ldot" unicode="&#x140;" horiz-adv-x="282" 
d="M126 0q-40 0 -58 27.5t-8 81.5l109 621h16l-109 -621q-16 -96 56 -96h11l-2 -13h-15zM194 217l24 140h17l-24 -140h-17z" />
    <glyph glyph-name="Lslash" unicode="&#x141;" horiz-adv-x="562" 
d="M28 318l5 17l86 24l65 371h17l-64 -366l231 64l-5 -17l-229 -64l-58 -331h387l-2 -16h-405l60 342z" />
    <glyph glyph-name="lslash" unicode="&#x142;" horiz-adv-x="291" 
d="M30 337l3 17l129 50l57 326h16l-56 -319l129 50l-3 -17l-129 -51l-50 -284q-16 -96 56 -96h11l-2 -13h-15q-40 0 -58 27.5t-8 81.5l49 278z" />
    <glyph glyph-name="Nacute" unicode="&#x143;" horiz-adv-x="717" 
d="M38 0l128 730h18l395 -702l124 702h16l-128 -730h-15l-397 704l-124 -704h-17zM436 810l149 140h25l-154 -140h-20z" />
    <glyph glyph-name="nacute" unicode="&#x144;" horiz-adv-x="626" 
d="M47 0l74 395q17 92 -54 92h-13l2 13h14q38 0 57.5 -27.5t8.5 -81.5l-4 -18q29 61 87.5 99t130.5 38q109 0 160 -72t32 -178l-30 -155q-8 -43 5.5 -67.5t46.5 -24.5h16l-3 -13h-15q-41 0 -58.5 27t-6.5 82l29 151q18 99 -27 166.5t-150 67.5q-84 0 -149 -55t-80 -135
l-58 -304h-15zM375 580l149 140h25l-154 -140h-20z" />
    <glyph glyph-name="Ncommaaccent" unicode="&#x145;" horiz-adv-x="717" 
d="M38 0l128 730h18l395 -702l124 702h16l-128 -730h-15l-397 704l-124 -704h-17zM207 -280l85 204h20l-91 -204h-14z" />
    <glyph glyph-name="ncommaaccent" unicode="&#x146;" horiz-adv-x="626" 
d="M47 0l74 395q17 92 -54 92h-13l2 13h14q38 0 57.5 -27.5t8.5 -81.5l-4 -18q29 61 87.5 99t130.5 38q109 0 160 -72t32 -178l-30 -155q-8 -43 5.5 -67.5t46.5 -24.5h16l-3 -13h-15q-41 0 -58.5 27t-6.5 82l29 151q18 99 -27 166.5t-150 67.5q-84 0 -149 -55t-80 -135
l-58 -304h-15zM194 -260l85 204h20l-91 -204h-14z" />
    <glyph glyph-name="Ncaron" unicode="&#x147;" horiz-adv-x="717" 
d="M38 0l128 730h18l395 -702l124 702h16l-128 -730h-15l-397 704l-124 -704h-17zM448 810l-95 140h19l84 -125l128 125h22l-143 -140h-15z" />
    <glyph glyph-name="ncaron" unicode="&#x148;" horiz-adv-x="626" 
d="M47 0l74 395q17 92 -54 92h-13l2 13h14q38 0 57.5 -27.5t8.5 -81.5l-4 -18q29 61 87.5 99t130.5 38q109 0 160 -72t32 -178l-30 -155q-8 -43 5.5 -67.5t46.5 -24.5h16l-3 -13h-15q-41 0 -58.5 27t-6.5 82l29 151q18 99 -27 166.5t-150 67.5q-84 0 -149 -55t-80 -135
l-58 -304h-15zM360 580l-95 140h19l84 -125l128 125h22l-143 -140h-15z" />
    <glyph glyph-name="Eng" unicode="&#x14a;" horiz-adv-x="717" 
d="M328 -192l2 16h69q147 0 172 156l4 22l-396 702l-124 -704h-17l128 730h18l395 -702l124 702h16l-131 -748q-14 -88 -59 -131t-131 -43h-70z" />
    <glyph glyph-name="eng" unicode="&#x14b;" horiz-adv-x="626" 
d="M294 -228l3 17q90 0 122.5 26.5t49.5 121.5l57 323q18 100 -27.5 167t-149.5 67q-84 0 -149 -55t-80 -135l-58 -304h-15l74 395q17 92 -54 92h-13l2 13h14q38 0 57.5 -27.5t8.5 -81.5l-4 -18q29 61 87.5 99t130.5 38q108 0 159.5 -71.5t32.5 -178.5l-57 -324
q-18 -101 -55.5 -132.5t-133.5 -31.5h-2z" />
    <glyph glyph-name="Omacron" unicode="&#x14c;" horiz-adv-x="863" 
d="M431 -10q-114 0 -200.5 56.5t-125.5 153.5t-19 210q26 144 137.5 237t250.5 93q89 0 162.5 -37.5t116.5 -98t60.5 -136.5t2.5 -153q-26 -144 -136 -234.5t-249 -90.5zM432 5q132 0 238 88.5t130 224.5q18 99 -14.5 192t-115.5 154t-197 61q-133 0 -240 -90t-131 -229
q-27 -166 69 -283.5t261 -117.5zM364 810l3 15h264l-3 -15h-264z" />
    <glyph glyph-name="omacron" unicode="&#x14d;" horiz-adv-x="624" 
d="M297 -10q-120 0 -190 86t-49 206q18 100 94.5 164t173.5 64q80 0 140.5 -43t86 -111t12.5 -141q-18 -100 -95 -162.5t-173 -62.5zM297 5q90 0 163 60.5t89 152.5q19 108 -45 192.5t-178 84.5q-91 0 -163.5 -61t-88.5 -155q-19 -109 44.5 -191.5t178.5 -82.5zM211 580
l3 15h264l-3 -15h-264z" />
    <glyph glyph-name="Obreve" unicode="&#x14e;" horiz-adv-x="863" 
d="M431 -10q-114 0 -200.5 56.5t-125.5 153.5t-19 210q26 144 137.5 237t250.5 93q89 0 162.5 -37.5t116.5 -98t60.5 -136.5t2.5 -153q-26 -144 -136 -234.5t-249 -90.5zM432 5q132 0 238 88.5t130 224.5q18 99 -14.5 192t-115.5 154t-197 61q-133 0 -240 -90t-131 -229
q-27 -166 69 -283.5t261 -117.5zM506 806q-70 0 -110 45t-30 100h16q-9 -49 26 -89.5t101 -40.5q68 0 111 39t52 91h17q-11 -59 -57.5 -102t-125.5 -43z" />
    <glyph glyph-name="obreve" unicode="&#x14f;" horiz-adv-x="624" 
d="M297 -10q-120 0 -190 86t-49 206q18 100 94.5 164t173.5 64q80 0 140.5 -43t86 -111t12.5 -141q-18 -100 -95 -162.5t-173 -62.5zM297 5q90 0 163 60.5t89 152.5q19 108 -45 192.5t-178 84.5q-91 0 -163.5 -61t-88.5 -155q-19 -109 44.5 -191.5t178.5 -82.5zM354 570
q-70 0 -110 45t-30 100h16q-9 -49 26 -89.5t101 -40.5q68 0 111 39t52 91h17q-11 -59 -57.5 -102t-125.5 -43z" />
    <glyph glyph-name="Ohungarumlaut" unicode="&#x150;" horiz-adv-x="863" 
d="M431 -10q-114 0 -200.5 56.5t-125.5 153.5t-19 210q26 144 137.5 237t250.5 93q89 0 162.5 -37.5t116.5 -98t60.5 -136.5t2.5 -153q-26 -144 -136 -234.5t-249 -90.5zM432 5q132 0 238 88.5t130 224.5q18 99 -14.5 192t-115.5 154t-197 61q-133 0 -240 -90t-131 -229
q-27 -166 69 -283.5t261 -117.5zM446 810l149 140h25l-154 -140h-20zM537 810l149 140h25l-154 -140h-20z" />
    <glyph glyph-name="ohungarumlaut" unicode="&#x151;" horiz-adv-x="624" 
d="M297 -10q-120 0 -190 86t-49 206q18 100 94.5 164t173.5 64q80 0 140.5 -43t86 -111t12.5 -141q-18 -100 -95 -162.5t-173 -62.5zM297 5q90 0 163 60.5t89 152.5q19 108 -45 192.5t-178 84.5q-91 0 -163.5 -61t-88.5 -155q-19 -109 44.5 -191.5t178.5 -82.5zM278 580
l149 140h25l-154 -140h-20zM369 580l149 140h25l-154 -140h-20z" />
    <glyph glyph-name="OE" unicode="&#x152;" horiz-adv-x="1307" 
d="M745 0l41 235q-48 -110 -145 -177.5t-210 -67.5q-114 0 -200.5 56.5t-125.5 153.5t-19 210q26 144 141 237t255 93q142 0 235.5 -83.5t104.5 -216.5l51 290h453l-3 -16h-436l-60 -341h436l-2 -15h-436l-61 -342h436l-2 -16h-453zM432 5q130 0 238.5 97.5t133.5 235.5
q14 74 -2 143.5t-56.5 123.5t-109.5 87t-155 33q-134 0 -244.5 -90.5t-134.5 -228.5q-18 -103 16.5 -194.5t117.5 -149t196 -57.5z" />
    <glyph glyph-name="oe" unicode="&#x153;" horiz-adv-x="1222" 
d="M297 -10q-120 0 -190 86t-49 206q18 100 94.5 164t173.5 64q90 0 155.5 -54.5t82.5 -138.5q29 89 109.5 141t175.5 52q97 0 150.5 -47t42.5 -110q-11 -62 -69.5 -98.5t-161.5 -36.5q-54 0 -126.5 16t-116.5 35q-19 -115 48 -189.5t189 -74.5q117 0 194 78l11 -13
q-80 -80 -205 -80q-101 0 -168 49.5t-83 132.5q-29 -82 -100.5 -132t-156.5 -50zM297 5q90 0 162.5 60.5t88.5 152.5q20 105 -43.5 191t-178.5 86q-91 0 -163.5 -61t-88.5 -155q-19 -109 44.5 -191.5t178.5 -82.5zM848 494q-98 0 -177.5 -57t-100.5 -154q48 -20 119.5 -35
t121.5 -15q92 0 148.5 32.5t66.5 91.5q10 55 -37.5 96t-140.5 41z" />
    <glyph glyph-name="Racute" unicode="&#x154;" horiz-adv-x="590" 
d="M491 0h-13q-68 0 -119 52.5t-73.5 120t-23.5 133.5h85q79 0 139.5 53t74.5 130q16 92 -42 158t-153 68h-186l-125 -715h-17l128 730h202q98 0 162 -71t47 -172q-14 -84 -79 -140.5t-152 -56.5h-68q3 -44 16.5 -89.5t37.5 -88.5t63 -70t86 -27h13zM338 810l149 140h25
l-154 -140h-20z" />
    <glyph glyph-name="racute" unicode="&#x155;" horiz-adv-x="385" 
d="M47 0l74 395q15 92 -54 92h-13l2 13h14q38 0 57.5 -27.5t8.5 -81.5l-5 -22q29 60 83.5 95.5t122.5 35.5h42l-3 -16h-40q-83 0 -143 -54.5t-75 -135.5l-56 -294h-15zM180 580l149 140h25l-154 -140h-20z" />
    <glyph glyph-name="Rcommaaccent" unicode="&#x156;" horiz-adv-x="590" 
d="M491 0h-13q-68 0 -119 52.5t-73.5 120t-23.5 133.5h85q79 0 139.5 53t74.5 130q16 92 -42 158t-153 68h-186l-125 -715h-17l128 730h202q98 0 162 -71t47 -172q-14 -84 -79 -140.5t-152 -56.5h-68q3 -44 16.5 -89.5t37.5 -88.5t63 -70t86 -27h13zM141 -249l85 204h20
l-91 -204h-14z" />
    <glyph glyph-name="rcommaaccent" unicode="&#x157;" horiz-adv-x="385" 
d="M47 0l74 395q15 92 -54 92h-13l2 13h14q38 0 57.5 -27.5t8.5 -81.5l-5 -22q29 60 83.5 95.5t122.5 35.5h42l-3 -16h-40q-83 0 -143 -54.5t-75 -135.5l-56 -294h-15zM-35 -260l85 204h20l-91 -204h-14z" />
    <glyph glyph-name="Rcaron" unicode="&#x158;" horiz-adv-x="590" 
d="M491 0h-13q-68 0 -119 52.5t-73.5 120t-23.5 133.5h85q79 0 139.5 53t74.5 130q16 92 -42 158t-153 68h-186l-125 -715h-17l128 730h202q98 0 162 -71t47 -172q-14 -84 -79 -140.5t-152 -56.5h-68q3 -44 16.5 -89.5t37.5 -88.5t63 -70t86 -27h13zM367 810l-95 140h19
l84 -125l128 125h22l-143 -140h-15z" />
    <glyph glyph-name="rcaron" unicode="&#x159;" horiz-adv-x="385" 
d="M47 0l74 395q15 92 -54 92h-13l2 13h14q38 0 57.5 -27.5t8.5 -81.5l-5 -22q29 60 83.5 95.5t122.5 35.5h42l-3 -16h-40q-83 0 -143 -54.5t-75 -135.5l-56 -294h-15zM217 580l-95 140h19l84 -125l128 125h22l-143 -140h-15z" />
    <glyph glyph-name="Sacute" unicode="&#x15a;" horiz-adv-x="541" 
d="M247 -10q-153 0 -230 125l15 9q70 -119 216 -119q82 0 137 42t67 109q8 43 -2 78t-37.5 61.5t-54.5 43.5t-69 38t-67.5 36.5t-55.5 42t-41 61.5t-4 78q11 63 65.5 104t135.5 41q64 0 117 -27.5t85 -79.5l-14 -8q-62 100 -189 100q-75 0 -124 -36.5t-60 -95.5
q-6 -32 2 -60.5t21 -47t40.5 -38.5t44.5 -29t49 -25q34 -17 57 -30t50.5 -35.5t42.5 -45t23 -55.5t1 -71q-14 -76 -73 -121t-148 -45zM337 810l149 140h25l-154 -140h-20z" />
    <glyph glyph-name="sacute" unicode="&#x15b;" horiz-adv-x="495" 
d="M240 -10q-70 0 -126.5 28t-88.5 75l15 10q28 -45 81 -71.5t120 -26.5q73 0 114.5 31.5t49.5 76.5q4 22 -4 41t-19 31t-37 26t-42 20.5t-49 19.5q-35 14 -52 21t-43.5 22t-38 28.5t-19 34t-3.5 45.5q9 51 56.5 80.5t115.5 27.5q56 0 106.5 -19t80.5 -48l-11 -11
q-67 64 -178 64q-62 0 -104.5 -25.5t-49.5 -70.5q-5 -26 3.5 -46t33 -36.5t43.5 -25t58 -23.5q9 -3 13 -5q33 -13 50.5 -20.5t43.5 -22t38 -28.5t19.5 -36t3.5 -47q-9 -53 -55 -86.5t-125 -33.5zM285 580l149 140h25l-154 -140h-20z" />
    <glyph glyph-name="Scircumflex" unicode="&#x15c;" horiz-adv-x="541" 
d="M247 -10q-153 0 -230 125l15 9q70 -119 216 -119q82 0 137 42t67 109q8 43 -2 78t-37.5 61.5t-54.5 43.5t-69 38t-67.5 36.5t-55.5 42t-41 61.5t-4 78q11 63 65.5 104t135.5 41q64 0 117 -27.5t85 -79.5l-14 -8q-62 100 -189 100q-75 0 -124 -36.5t-60 -95.5
q-6 -32 2 -60.5t21 -47t40.5 -38.5t44.5 -29t49 -25q34 -17 57 -30t50.5 -35.5t42.5 -45t23 -55.5t1 -71q-14 -76 -73 -121t-148 -45zM223 810l143 140h15l95 -140h-19l-85 125l-127 -125h-22z" />
    <glyph glyph-name="scircumflex" unicode="&#x15d;" horiz-adv-x="495" 
d="M240 -10q-70 0 -126.5 28t-88.5 75l15 10q28 -45 81 -71.5t120 -26.5q73 0 114.5 31.5t49.5 76.5q4 22 -4 41t-19 31t-37 26t-42 20.5t-49 19.5q-35 14 -52 21t-43.5 22t-38 28.5t-19 34t-3.5 45.5q9 51 56.5 80.5t115.5 27.5q56 0 106.5 -19t80.5 -48l-11 -11
q-67 64 -178 64q-62 0 -104.5 -25.5t-49.5 -70.5q-5 -26 3.5 -46t33 -36.5t43.5 -25t58 -23.5q9 -3 13 -5q33 -13 50.5 -20.5t43.5 -22t38 -28.5t19.5 -36t3.5 -47q-9 -53 -55 -86.5t-125 -33.5zM178 580l143 140h15l95 -140h-19l-85 125l-127 -125h-22z" />
    <glyph glyph-name="Scedilla" unicode="&#x15e;" horiz-adv-x="541" 
d="M193 -219q-75 0 -123 50l14 10q41 -46 111 -46q44 0 75 17.5t36 46.5q5 31 -21.5 49t-78.5 18h-16l12 67q-120 16 -185 122l15 9q70 -119 216 -119q82 0 137 42t67 109q8 43 -2 78t-37.5 61.5t-54.5 43.5t-69 38t-67.5 36.5t-55.5 42t-41 61.5t-4 78q11 63 65.5 104
t135.5 41q64 0 117 -27.5t85 -79.5l-14 -8q-62 100 -189 100q-75 0 -124 -36.5t-60 -95.5q-6 -32 2 -60.5t21 -47t40.5 -38.5t44.5 -29t49 -25q34 -17 57 -30t50.5 -35.5t42.5 -45t23 -55.5t1 -71q-14 -76 -73 -121t-148 -45q-10 0 -30 2l-9 -53q60 -1 90 -23t24 -59
q-7 -36 -41.5 -56t-87.5 -20z" />
    <glyph glyph-name="scedilla" unicode="&#x15f;" horiz-adv-x="495" 
d="M180 -219q-75 0 -123 50l14 10q41 -46 111 -46q44 0 75 17.5t36 46.5q5 31 -21.5 49t-78.5 18h-16l13 68q-112 18 -165 99l15 10q28 -45 81 -71.5t120 -26.5q73 0 114.5 31.5t49.5 76.5q4 22 -4 41t-19 31t-37 26t-42 20.5t-49 19.5q-35 14 -52 21t-43.5 22t-38 28.5
t-19 34t-3.5 45.5q9 51 56.5 80.5t115.5 27.5q56 0 106.5 -19t80.5 -48l-11 -11q-67 64 -178 64q-62 0 -104.5 -25.5t-49.5 -70.5q-5 -26 3.5 -46t33 -36.5t43.5 -25t58 -23.5q9 -3 13 -5q33 -13 50.5 -20.5t43.5 -22t38 -28.5t19.5 -36t3.5 -47q-9 -53 -55 -86.5
t-125 -33.5q-12 0 -36 2l-9 -53q60 -1 90 -23t24 -59q-7 -36 -41.5 -56t-87.5 -20z" />
    <glyph glyph-name="Scaron" unicode="&#x160;" horiz-adv-x="541" 
d="M247 -10q-153 0 -230 125l15 9q70 -119 216 -119q82 0 137 42t67 109q8 43 -2 78t-37.5 61.5t-54.5 43.5t-69 38t-67.5 36.5t-55.5 42t-41 61.5t-4 78q11 63 65.5 104t135.5 41q64 0 117 -27.5t85 -79.5l-14 -8q-62 100 -189 100q-75 0 -124 -36.5t-60 -95.5
q-6 -32 2 -60.5t21 -47t40.5 -38.5t44.5 -29t49 -25q34 -17 57 -30t50.5 -35.5t42.5 -45t23 -55.5t1 -71q-14 -76 -73 -121t-148 -45zM345 810l-95 140h19l84 -125l128 125h22l-143 -140h-15z" />
    <glyph glyph-name="scaron" unicode="&#x161;" horiz-adv-x="495" 
d="M240 -10q-70 0 -126.5 28t-88.5 75l15 10q28 -45 81 -71.5t120 -26.5q73 0 114.5 31.5t49.5 76.5q4 22 -4 41t-19 31t-37 26t-42 20.5t-49 19.5q-35 14 -52 21t-43.5 22t-38 28.5t-19 34t-3.5 45.5q9 51 56.5 80.5t115.5 27.5q56 0 106.5 -19t80.5 -48l-11 -11
q-67 64 -178 64q-62 0 -104.5 -25.5t-49.5 -70.5q-5 -26 3.5 -46t33 -36.5t43.5 -25t58 -23.5q9 -3 13 -5q33 -13 50.5 -20.5t43.5 -22t38 -28.5t19.5 -36t3.5 -47q-9 -53 -55 -86.5t-125 -33.5zM301 580l-95 140h19l84 -125l128 125h22l-143 -140h-15z" />
    <glyph glyph-name="Tcommaaccent" unicode="&#x162;" horiz-adv-x="625" 
d="M277 0h-17l125 715h-245l3 15h507l-3 -15h-245zM158 -280l85 204h20l-91 -204h-14z" />
    <glyph glyph-name="tcommaaccent" unicode="&#x163;" horiz-adv-x="310" 
d="M50 487l3 13h84l21 120l17 9l-23 -129h147l-3 -13h-147l-55 -316q-16 -92 7.5 -124.5t111.5 -32.5l-2 -14h-2q-92 0 -120 37t-11 134l56 316h-84zM31 -260l85 204h20l-91 -204h-14z" />
    <glyph glyph-name="Tcaron" unicode="&#x164;" horiz-adv-x="625" 
d="M277 0h-17l125 715h-245l3 15h507l-3 -15h-245zM397 810l-95 140h19l84 -125l128 125h22l-143 -140h-15z" />
    <glyph glyph-name="tcaron" unicode="&#x165;" horiz-adv-x="310" 
d="M50 487l3 13h84l21 120l17 9l-23 -129h147l-3 -13h-147l-55 -316q-16 -92 7.5 -124.5t111.5 -32.5l-2 -14h-2q-92 0 -120 37t-11 134l56 316h-84zM246 582l109 140h22l-113 -140h-18z" />
    <glyph glyph-name="Tbar" unicode="&#x166;" horiz-adv-x="625" 
d="M277 0h-17l66 378h-122l3 15h122l56 322h-245l3 15h507l-3 -15h-245l-56 -322h125l-3 -15h-125z" />
    <glyph glyph-name="tbar" unicode="&#x167;" horiz-adv-x="311" 
d="M50 487l3 13h84l21 120l17 9l-23 -129h147l-3 -13h-146l-35 -201h146l-3 -13h-146l-18 -108q-17 -95 6.5 -123t112.5 -28l-2 -14h-2q-96 0 -122.5 32.5t-9.5 131.5l19 109h-84l3 13h84l35 201h-84z" />
    <glyph glyph-name="Utilde" unicode="&#x168;" horiz-adv-x="659" 
d="M309 -10q-126 0 -186.5 76.5t-39.5 195.5l82 468h17l-83 -473q-19 -107 37.5 -179t175.5 -72q92 0 159 58t83 147l91 519h17l-91 -519q-17 -98 -89 -159.5t-173 -61.5zM256 810q7 36 32.5 60t58.5 24q36 0 94 -37q2 -1 10.5 -6.5t11.5 -7.5t10 -6t11 -5.5t11 -4.5t12 -4
t11.5 -2t13.5 -1q62 0 76 71h16q-7 -40 -32.5 -62.5t-60.5 -22.5q-38 0 -99 38q-56 36 -87 36q-26 0 -46.5 -19t-26.5 -51h-16z" />
    <glyph glyph-name="utilde" unicode="&#x169;" horiz-adv-x="615" 
d="M270 -10q-109 0 -158 71.5t-28 178.5l30 155q15 92 -57 92h-11l2 13h15q85 0 66 -109l-30 -151q-20 -99 24.5 -166.5t147.5 -67.5q84 0 146 54.5t77 135.5l59 304h15l-75 -395q-8 -43 5.5 -67.5t46.5 -24.5h15l-2 -13h-15q-86 0 -64 109l3 17q-29 -62 -86 -99t-126 -37z
M170 580q7 36 32.5 60t58.5 24q36 0 94 -37q2 -1 10.5 -6.5t11.5 -7.5t10 -6t11 -5.5t11 -4.5t12 -4t11.5 -2t13.5 -1q62 0 76 71h16q-7 -40 -32.5 -62.5t-60.5 -22.5q-38 0 -99 38q-56 36 -87 36q-26 0 -46.5 -19t-26.5 -51h-16z" />
    <glyph glyph-name="Umacron" unicode="&#x16a;" horiz-adv-x="659" 
d="M309 -10q-126 0 -186.5 76.5t-39.5 195.5l82 468h17l-83 -473q-19 -107 37.5 -179t175.5 -72q92 0 159 58t83 147l91 519h17l-91 -519q-17 -98 -89 -159.5t-173 -61.5zM295 810l3 15h264l-3 -15h-264z" />
    <glyph glyph-name="umacron" unicode="&#x16b;" horiz-adv-x="615" 
d="M270 -10q-109 0 -158 71.5t-28 178.5l30 155q15 92 -57 92h-11l2 13h15q85 0 66 -109l-30 -151q-20 -99 24.5 -166.5t147.5 -67.5q84 0 146 54.5t77 135.5l59 304h15l-75 -395q-8 -43 5.5 -67.5t46.5 -24.5h15l-2 -13h-15q-86 0 -64 109l3 17q-29 -62 -86 -99t-126 -37z
M215 580l3 15h264l-3 -15h-264z" />
    <glyph glyph-name="Ubreve" unicode="&#x16c;" horiz-adv-x="659" 
d="M309 -10q-126 0 -186.5 76.5t-39.5 195.5l82 468h17l-83 -473q-19 -107 37.5 -179t175.5 -72q92 0 159 58t83 147l91 519h17l-91 -519q-17 -98 -89 -159.5t-173 -61.5zM428 802q-70 0 -110 45t-30 100h16q-9 -49 26 -89.5t101 -40.5q68 0 111 39t52 91h17
q-11 -59 -57.5 -102t-125.5 -43z" />
    <glyph glyph-name="ubreve" unicode="&#x16d;" horiz-adv-x="615" 
d="M270 -10q-109 0 -158 71.5t-28 178.5l30 155q15 92 -57 92h-11l2 13h15q85 0 66 -109l-30 -151q-20 -99 24.5 -166.5t147.5 -67.5q84 0 146 54.5t77 135.5l59 304h15l-75 -395q-8 -43 5.5 -67.5t46.5 -24.5h15l-2 -13h-15q-86 0 -64 109l3 17q-29 -62 -86 -99t-126 -37z
M351 570q-70 0 -110 45t-30 100h16q-9 -49 26 -89.5t101 -40.5q68 0 111 39t52 91h17q-11 -59 -57.5 -102t-125.5 -43z" />
    <glyph glyph-name="Uring" unicode="&#x16e;" horiz-adv-x="659" 
d="M309 -10q-126 0 -186.5 76.5t-39.5 195.5l82 468h17l-83 -473q-19 -107 37.5 -179t175.5 -72q92 0 159 58t83 147l91 519h17l-91 -519q-17 -98 -89 -159.5t-173 -61.5zM423 794q-36 0 -59 27.5t-16 65.5q6 32 31.5 53.5t57.5 21.5q39 0 61 -28.5t16 -62.5
q-6 -32 -31.5 -54.5t-59.5 -22.5zM425 809q27 0 48 19t26 45q5 29 -12.5 51.5t-50.5 22.5q-26 0 -47.5 -18t-25.5 -45q-5 -30 12.5 -52.5t49.5 -22.5z" />
    <glyph glyph-name="uring" unicode="&#x16f;" horiz-adv-x="615" 
d="M270 -10q-109 0 -158 71.5t-28 178.5l30 155q15 92 -57 92h-11l2 13h15q85 0 66 -109l-30 -151q-20 -99 24.5 -166.5t147.5 -67.5q84 0 146 54.5t77 135.5l59 304h15l-75 -395q-8 -43 5.5 -67.5t46.5 -24.5h15l-2 -13h-15q-86 0 -64 109l3 17q-29 -62 -86 -99t-126 -37z
M352 574q-36 0 -59 27.5t-16 65.5q6 32 31.5 53.5t57.5 21.5q39 0 61 -28.5t16 -62.5q-6 -32 -31.5 -54.5t-59.5 -22.5zM354 589q27 0 48 19t26 45q5 29 -12.5 51.5t-50.5 22.5q-26 0 -47.5 -18t-25.5 -45q-5 -30 12.5 -52.5t49.5 -22.5z" />
    <glyph glyph-name="Uhungarumlaut" unicode="&#x170;" horiz-adv-x="659" 
d="M309 -10q-126 0 -186.5 76.5t-39.5 195.5l82 468h17l-83 -473q-19 -107 37.5 -179t175.5 -72q92 0 159 58t83 147l91 519h17l-91 -519q-17 -98 -89 -159.5t-173 -61.5zM360 810l149 140h25l-154 -140h-20zM451 810l149 140h25l-154 -140h-20z" />
    <glyph glyph-name="uhungarumlaut" unicode="&#x171;" horiz-adv-x="615" 
d="M270 -10q-109 0 -158 71.5t-28 178.5l30 155q15 92 -57 92h-11l2 13h15q85 0 66 -109l-30 -151q-20 -99 24.5 -166.5t147.5 -67.5q84 0 146 54.5t77 135.5l59 304h15l-75 -395q-8 -43 5.5 -67.5t46.5 -24.5h15l-2 -13h-15q-86 0 -64 109l3 17q-29 -62 -86 -99t-126 -37z
M371 580l149 140h25l-154 -140h-20zM280 580l149 140h25l-154 -140h-20z" />
    <glyph glyph-name="Uogonek" unicode="&#x172;" horiz-adv-x="659" 
d="M252 -202q-45 0 -73 27.5t-21 65.5q6 31 32 54t81 47q-108 12 -157.5 86.5t-30.5 183.5l82 468h17l-83 -473q-19 -107 37.5 -179t175.5 -72q92 0 159 58t83 147l91 519h17l-91 -519q-17 -98 -89 -159.5t-173 -61.5h-5q-120 -47 -130 -102q-5 -31 18 -53.5t63 -22.5
q67 0 124 47l12 -10q-62 -51 -139 -51z" />
    <glyph glyph-name="uogonek" unicode="&#x173;" horiz-adv-x="615" 
d="M501 -194q-45 0 -73 27.5t-21 65.5q6 31 33 54.5t84 47.5q-64 13 -45 108l3 17q-29 -62 -86 -99t-126 -37q-109 0 -158 71.5t-28 178.5l30 155q15 92 -57 92h-11l2 13h15q85 0 66 -109l-30 -151q-20 -99 24.5 -166.5t147.5 -67.5q84 0 146 54.5t77 135.5l59 304h15
l-75 -395q-8 -43 5.5 -67.5t46.5 -24.5h15l-2 -13q-125 -49 -135 -104q-5 -31 18 -53.5t63 -22.5q67 0 124 47l12 -10q-62 -51 -139 -51z" />
    <glyph glyph-name="Wcircumflex" unicode="&#x174;" horiz-adv-x="1079" 
d="M763 0h-18l-129 700l-369 -700h-19l-91 730h17l88 -705l371 705h14l130 -705l335 705h18zM501 810l143 140h15l95 -140h-19l-85 125l-127 -125h-22z" />
    <glyph glyph-name="wcircumflex" unicode="&#x175;" horiz-adv-x="984" 
d="M254 -10q-104 0 -147.5 71t-22.5 179l30 155q18 92 -54 92h-13l2 13h14q40 0 58 -28t8 -81l-30 -151q-20 -100 19 -167t137 -67q81 0 140 60t73 141l57 293h15l-56 -293q-18 -93 23.5 -147t129.5 -54q103 0 170 77t90 202q20 105 -4 215h16q21 -120 3 -217
q-24 -130 -94.5 -211.5t-180.5 -81.5q-73 0 -122.5 40t-50.5 117q-26 -70 -82 -113.5t-128 -43.5zM396 580l143 140h15l95 -140h-19l-85 125l-127 -125h-22z" />
    <glyph glyph-name="Ycircumflex" unicode="&#x176;" horiz-adv-x="600" 
d="M247 0l61 351l-183 379h19l175 -364l303 364h21l-318 -383l-61 -347h-17zM271 804l143 140h15l95 -140h-19l-85 125l-127 -125h-22z" />
    <glyph glyph-name="ycircumflex" unicode="&#x177;" horiz-adv-x="609" 
d="M239 -240q-74 0 -130.5 36.5t-79.5 97.5l16 5q23 -57 74 -90t120 -33q180 0 222 235l22 115q-29 -62 -86 -99t-126 -37q-109 0 -158 71.5t-28 178.5l30 155q15 92 -57 92h-11l2 13h15q85 0 66 -109l-30 -151q-20 -99 24.5 -166.5t147.5 -67.5q84 0 146 54.5t77 135.5
l59 304h15l-92 -489q-45 -251 -238 -251zM223 580l143 140h15l95 -140h-19l-85 125l-127 -125h-22z" />
    <glyph glyph-name="Ydieresis" unicode="&#x178;" horiz-adv-x="600" 
d="M247 0l61 351l-183 379h19l175 -364l303 364h21l-318 -383l-61 -347h-17zM341 800l24 140h15l-24 -140h-15zM424 800l24 140h15l-24 -140h-15z" />
    <glyph glyph-name="Zacute" unicode="&#x179;" horiz-adv-x="583" 
d="M487 0h-478l3 16l576 699h-443l3 15h464l-3 -16l-577 -699h458zM361 810l149 140h25l-154 -140h-20z" />
    <glyph glyph-name="zacute" unicode="&#x17a;" horiz-adv-x="563" 
d="M22 0l2 14l494 472h-405l3 14h428l-3 -14l-495 -472h417l-3 -14h-438zM305 580l149 140h25l-154 -140h-20z" />
    <glyph glyph-name="Zdotaccent" unicode="&#x17b;" horiz-adv-x="583" 
d="M487 0h-478l3 16l576 699h-443l3 15h464l-3 -16l-577 -699h458zM374 810l24 140h17l-24 -140h-17z" />
    <glyph glyph-name="zdotaccent" unicode="&#x17c;" horiz-adv-x="563" 
d="M22 0l2 14l494 472h-405l3 14h428l-3 -14l-495 -472h417l-3 -14h-438zM314 580l24 140h17l-24 -140h-17z" />
    <glyph glyph-name="Zcaron" unicode="&#x17d;" horiz-adv-x="583" 
d="M487 0h-478l3 16l576 699h-443l3 15h464l-3 -16l-577 -699h458zM377 810l-95 140h19l84 -125l128 125h22l-143 -140h-15z" />
    <glyph glyph-name="zcaron" unicode="&#x17e;" horiz-adv-x="563" 
d="M22 0l2 14l494 472h-405l3 14h428l-3 -14l-495 -472h417l-3 -14h-438zM319 580l-95 140h19l84 -125l128 125h22l-143 -140h-15z" />
    <glyph glyph-name="florin" unicode="&#x192;" 
d="M97 375l3 16h205l64 186q30 87 77.5 120t147.5 33h3l-3 -15q-95 0 -138.5 -30.5t-71.5 -112.5l-62 -181h216l-3 -16h-219l-76 -225q-31 -91 -72 -120.5t-135 -29.5h-2v15q90 0 126.5 27t67.5 116l74 217h-202z" />
    <glyph glyph-name="Aringacute" unicode="&#x1fa;" horiz-adv-x="684" 
d="M0 0l410 717q-29 6 -46 31.5t-11 59.5q6 32 31.5 53.5t57.5 21.5q39 0 61 -28.5t16 -62.5q-6 -30 -28.5 -51.5t-52.5 -25.5l159 -715h-18l-53 243h-369l-138 -243h-19zM423 709l-257 -451h356zM426 730h9q25 1 44.5 20t24.5 44q5 29 -12.5 51.5t-50.5 22.5
q-26 0 -47.5 -18t-25.5 -45q-5 -29 11 -51.5t47 -23.5zM442 933l149 140h25l-154 -140h-20z" />
    <glyph glyph-name="aringacute" unicode="&#x1fb;" horiz-adv-x="677" 
d="M298 -10q-118 0 -187 86t-48 206q18 101 95.5 164.5t178.5 63.5q91 0 151 -52t74 -134l31 176h16l-70 -395q-16 -91 54 -91h13l-2 -14h-14q-42 0 -59.5 30t-6.5 80l4 23q-35 -66 -95.5 -104.5t-134.5 -38.5zM299 5q93 0 162.5 64.5t86.5 161.5q20 105 -40 184.5
t-172 79.5q-95 0 -168 -61t-89 -155q-18 -113 45 -193.5t175 -80.5zM381 571q-36 0 -59 27.5t-16 65.5q6 32 31.5 53.5t57.5 21.5q39 0 61 -28.5t16 -62.5q-6 -32 -31.5 -54.5t-59.5 -22.5zM383 586q27 0 48 19t26 45q5 29 -12.5 51.5t-50.5 22.5q-26 0 -47.5 -18t-25.5 -45
q-5 -30 12.5 -52.5t49.5 -22.5zM394 790l149 140h25l-154 -140h-20z" />
    <glyph glyph-name="AEacute" unicode="&#x1fc;" horiz-adv-x="1145" 
d="M-4 0l490 730h530l-3 -16h-508l41 -341h407l-2 -15h-403l41 -342h301l-2 -16h-313l-29 243h-368l-162 -243h-20zM490 709l-302 -451h356zM749 810l149 140h25l-154 -140h-20z" />
    <glyph glyph-name="aeacute" unicode="&#x1fd;" horiz-adv-x="990" 
d="M225 -10q-88 0 -125.5 40t-27.5 100q4 29 19 51.5t34 36t50 24.5t56.5 16.5t65.5 12.5q117 19 153 36q46 23 54 66q10 51 -32 87t-128 36q-87 0 -146.5 -38.5t-71.5 -107.5l-16 -1q13 75 78 118t158 43q85 0 130.5 -36t43.5 -88q41 59 107.5 91.5t140.5 32.5
q97 0 150.5 -47t42.5 -110q-11 -62 -69.5 -98.5t-161.5 -36.5q-54 0 -126.5 16t-116.5 35q-19 -115 48 -189.5t189 -74.5q118 0 194 78l11 -13q-80 -80 -205 -80q-90 0 -153 39t-88 107q-39 -57 -106 -101.5t-152 -44.5zM767 494q-98 0 -177.5 -57t-100.5 -154
q48 -20 119.5 -35t121.5 -15q92 0 148.5 32.5t66.5 91.5q10 55 -37.5 96t-140.5 41zM226 4q79 0 145.5 45t105.5 104q-16 57 -4 123q2 13 10 37q-6 -6 -14.5 -11.5t-16 -9t-20 -7.5t-20.5 -6.5t-25.5 -6t-26.5 -5t-31 -5.5l-33 -6q-40 -7 -61.5 -11.5t-51.5 -14t-46 -21.5
t-30 -32t-19 -47q-9 -53 25 -89.5t113 -36.5zM518 580l149 140h25l-154 -140h-20z" />
    <glyph glyph-name="Oslashacute" unicode="&#x1fe;" horiz-adv-x="877" 
d="M438 -10q-136 0 -231 79l-62 -69h-22l72 80q-64 60 -92 146t-10 184q26 144 137.5 237t250.5 93q134 0 231 -84l66 74h22l-77 -85q63 -60 90 -146.5t10 -183.5q-26 -144 -136 -234.5t-249 -90.5zM109 406q-16 -90 10 -173t87 -141l495 552q-89 81 -221 81
q-134 0 -240.5 -90t-130.5 -229zM439 5q132 0 238 88.5t130 224.5q16 87 -9 171.5t-85 143.5l-495 -552q91 -76 221 -76zM521 810l149 140h25l-154 -140h-20z" />
    <glyph glyph-name="oslashacute" unicode="&#x1ff;" horiz-adv-x="638" 
d="M84 0l49 55q-43 41 -61.5 100.5t-6.5 126.5q18 100 94.5 164t173.5 64q93 0 158 -57l42 47h21l-52 -57q44 -42 63 -102t7 -126q-18 -100 -95 -162.5t-173 -62.5q-95 0 -159 55l-40 -45h-21zM81 279q-10 -61 6.5 -117t56.5 -95l337 375q-63 53 -148 53q-91 0 -163.5 -61
t-88.5 -155zM304 5q90 0 162.5 60.5t88.5 152.5q11 58 -6 115.5t-57 97.5l-337 -375q61 -51 149 -51zM341 580l149 140h25l-154 -140h-20z" />
    <glyph glyph-name="Scommaaccent" unicode="&#x218;" horiz-adv-x="541" 
d="M247 -10q-153 0 -230 125l15 9q70 -119 216 -119q82 0 137 42t67 109q8 43 -2 78t-37.5 61.5t-54.5 43.5t-69 38t-67.5 36.5t-55.5 42t-41 61.5t-4 78q11 63 65.5 104t135.5 41q64 0 117 -27.5t85 -79.5l-14 -8q-62 100 -189 100q-75 0 -124 -36.5t-60 -95.5
q-6 -32 2 -60.5t21 -47t40.5 -38.5t44.5 -29t49 -25q34 -17 57 -30t50.5 -35.5t42.5 -45t23 -55.5t1 -71q-14 -76 -73 -121t-148 -45zM114 -277l85 204h20l-91 -204h-14z" />
    <glyph glyph-name="scommaaccent" unicode="&#x219;" horiz-adv-x="495" 
d="M240 -10q-70 0 -126.5 28t-88.5 75l15 10q28 -45 81 -71.5t120 -26.5q73 0 114.5 31.5t49.5 76.5q4 22 -4 41t-19 31t-37 26t-42 20.5t-49 19.5q-35 14 -52 21t-43.5 22t-38 28.5t-19 34t-3.5 45.5q9 51 56.5 80.5t115.5 27.5q56 0 106.5 -19t80.5 -48l-11 -11
q-67 64 -178 64q-62 0 -104.5 -25.5t-49.5 -70.5q-5 -26 3.5 -46t33 -36.5t43.5 -25t58 -23.5q9 -3 13 -5q33 -13 50.5 -20.5t43.5 -22t38 -28.5t19.5 -36t3.5 -47q-9 -53 -55 -86.5t-125 -33.5zM102 -260l85 204h20l-91 -204h-14z" />
    <glyph glyph-name="dotlessj" unicode="&#x237;" horiz-adv-x="197" 
d="M-137 -228l3 17q90 0 123 27t49 121l100 563h16l-100 -564q-17 -99 -55 -131.5t-134 -32.5h-2z" />
    <glyph glyph-name="circumflex" unicode="&#x2c6;" horiz-adv-x="491" 
d="M168 580l143 140h15l95 -140h-19l-85 125l-127 -125h-22z" />
    <glyph glyph-name="caron" unicode="&#x2c7;" horiz-adv-x="491" 
d="M291 580l-95 140h19l84 -125l128 125h22l-143 -140h-15z" />
    <glyph glyph-name="breve" unicode="&#x2d8;" horiz-adv-x="491" 
d="M305 570q-70 0 -110 45t-30 100h16q-9 -49 26 -89.5t101 -40.5q68 0 111 39t52 91h17q-11 -59 -57.5 -102t-125.5 -43z" />
    <glyph glyph-name="dotaccent" unicode="&#x2d9;" horiz-adv-x="491" 
d="M276 580l24 140h17l-24 -140h-17z" />
    <glyph glyph-name="ring" unicode="&#x2da;" horiz-adv-x="491" 
d="M304 574q-36 0 -59 27.5t-16 65.5q6 32 31.5 53.5t57.5 21.5q39 0 61 -28.5t16 -62.5q-6 -32 -31.5 -54.5t-59.5 -22.5zM306 589q27 0 48 19t26 45q5 29 -12.5 51.5t-50.5 22.5q-26 0 -47.5 -18t-25.5 -45q-5 -30 12.5 -52.5t49.5 -22.5z" />
    <glyph glyph-name="ogonek" unicode="&#x2db;" horiz-adv-x="491" 
d="M154 -194q-45 0 -73 27.5t-21 65.5q7 33 38.5 58.5t101.5 53.5l11 -11q-125 -49 -135 -104q-5 -31 18 -53.5t63 -22.5q67 0 124 47l12 -10q-62 -51 -139 -51z" />
    <glyph glyph-name="tilde" unicode="&#x2dc;" horiz-adv-x="491" 
d="M117 580q7 36 32.5 60t58.5 24q36 0 94 -37q2 -1 10.5 -6.5t11.5 -7.5t10 -6t11 -5.5t11 -4.5t12 -4t11.5 -2t13.5 -1q62 0 76 71h16q-7 -40 -32.5 -62.5t-60.5 -22.5q-38 0 -99 38q-56 36 -87 36q-26 0 -46.5 -19t-26.5 -51h-16z" />
    <glyph glyph-name="hungarumlaut" unicode="&#x2dd;" horiz-adv-x="491" 
d="M170 580l149 140h25l-154 -140h-20zM261 580l149 140h25l-154 -140h-20z" />
    <glyph glyph-name="pi" unicode="&#x3c0;" horiz-adv-x="743" 
d="M117 715l3 15h668l-3 -15h-161l-101 -576q-21 -123 86 -123h61l-3 -16h-64q-59 0 -83.5 37.5t-13.5 100.5l101 577h-309l-125 -715h-17l125 715h-164z" />
    <glyph glyph-name="pi" unicode="&#x3d6;" horiz-adv-x="743" 
d="M117 715l3 15h668l-3 -15h-161l-101 -576q-21 -123 86 -123h61l-3 -16h-64q-59 0 -83.5 37.5t-13.5 100.5l101 577h-309l-125 -715h-17l125 715h-164z" />
    <glyph glyph-name="uni0E3F" unicode="&#xe3f;" horiz-adv-x="556" 
d="M45 72l105 596h178l11 62h17l-11 -62h29q66 0 108.5 -43.5t37.5 -105.5q-5 -51 -39 -90t-84 -51q48 -17 75.5 -62.5t17.5 -97.5q-11 -63 -61.5 -104.5t-117.5 -41.5h-72l-12 -72h-17l12 72h-177zM351 373h-58l-51 -287h70q61 0 106 38.5t55 96.5q11 61 -27 106.5
t-95 45.5zM114 373l-51 -287h162l51 287h-162zM163 654l-47 -267h162l47 267h-162zM373 654h-31l-47 -267h64q56 0 98 39t47 94q5 56 -33 95t-98 39z" />
    <glyph glyph-name="Wgrave" unicode="&#x1e80;" horiz-adv-x="1079" 
d="M763 0h-18l-129 700l-369 -700h-19l-91 730h17l88 -705l371 705h14l130 -705l335 705h18zM618 810l-106 140h23l99 -140h-16z" />
    <glyph glyph-name="wgrave" unicode="&#x1e81;" horiz-adv-x="984" 
d="M254 -10q-104 0 -147.5 71t-22.5 179l30 155q18 92 -54 92h-13l2 13h14q40 0 58 -28t8 -81l-30 -151q-20 -100 19 -167t137 -67q81 0 140 60t73 141l57 293h15l-56 -293q-18 -93 23.5 -147t129.5 -54q103 0 170 77t90 202q20 105 -4 215h16q21 -120 3 -217
q-24 -130 -94.5 -211.5t-180.5 -81.5q-73 0 -122.5 40t-50.5 117q-26 -70 -82 -113.5t-128 -43.5zM532 580l-106 140h23l99 -140h-16z" />
    <glyph glyph-name="Wacute" unicode="&#x1e82;" horiz-adv-x="1079" 
d="M763 0h-18l-129 700l-369 -700h-19l-91 730h17l88 -705l371 705h14l130 -705l335 705h18zM629 810l149 140h25l-154 -140h-20z" />
    <glyph glyph-name="wacute" unicode="&#x1e83;" horiz-adv-x="984" 
d="M254 -10q-104 0 -147.5 71t-22.5 179l30 155q18 92 -54 92h-13l2 13h14q40 0 58 -28t8 -81l-30 -151q-20 -100 19 -167t137 -67q81 0 140 60t73 141l57 293h15l-56 -293q-18 -93 23.5 -147t129.5 -54q103 0 170 77t90 202q20 105 -4 215h16q21 -120 3 -217
q-24 -130 -94.5 -211.5t-180.5 -81.5q-73 0 -122.5 40t-50.5 117q-26 -70 -82 -113.5t-128 -43.5zM534 580l149 140h25l-154 -140h-20z" />
    <glyph glyph-name="Wdieresis" unicode="&#x1e84;" horiz-adv-x="1079" 
d="M763 0h-18l-129 700l-369 -700h-19l-91 730h17l88 -705l371 705h14l130 -705l335 705h18zM664 810l24 140h15l-24 -140h-15zM581 810l24 140h15l-24 -140h-15z" />
    <glyph glyph-name="wdieresis" unicode="&#x1e85;" horiz-adv-x="984" 
d="M254 -10q-104 0 -147.5 71t-22.5 179l30 155q18 92 -54 92h-13l2 13h14q40 0 58 -28t8 -81l-30 -151q-20 -100 19 -167t137 -67q81 0 140 60t73 141l57 293h15l-56 -293q-18 -93 23.5 -147t129.5 -54q103 0 170 77t90 202q20 105 -4 215h16q21 -120 3 -217
q-24 -130 -94.5 -211.5t-180.5 -81.5q-73 0 -122.5 40t-50.5 117q-26 -70 -82 -113.5t-128 -43.5zM495 580l24 140h15l-24 -140h-15zM578 580l24 140h15l-24 -140h-15z" />
    <glyph glyph-name="Ygrave" unicode="&#x1ef2;" horiz-adv-x="628" 
d="M261 0l61 351l-183 379h19l175 -364l303 364h21l-318 -383l-61 -347h-17zM397 790l-106 140h23l99 -140h-16z" />
    <glyph glyph-name="ygrave" unicode="&#x1ef3;" horiz-adv-x="621" 
d="M263 -240q-74 0 -130.5 36.5t-79.5 97.5l16 5q23 -57 74 -90t120 -33q180 0 222 235l22 115q-29 -62 -86 -99t-126 -37q-109 0 -158 71.5t-28 178.5l30 155q15 92 -57 92h-11l2 13h15q85 0 66 -109l-30 -151q-20 -99 24.5 -166.5t147.5 -67.5q84 0 146 54.5t77 135.5
l59 304h15l-92 -489q-45 -251 -238 -251zM362 580l-106 140h23l99 -140h-16z" />
    <glyph glyph-name="figuredash" unicode="&#x2012;" horiz-adv-x="666" 
d="M47 248l3 15h570l-3 -15h-570z" />
    <glyph glyph-name="endash" unicode="&#x2013;" horiz-adv-x="510" 
d="M47 248l3 15h420l-3 -15h-420z" />
    <glyph glyph-name="emdash" unicode="&#x2014;" horiz-adv-x="716" 
d="M47 248l3 15h620l-3 -15h-620z" />
    <glyph glyph-name="uni2015" unicode="&#x2015;" horiz-adv-x="1016" 
d="M47 248l3 15h920l-3 -15h-920z" />
    <glyph glyph-name="doublebar" unicode="&#x2016;" horiz-adv-x="304" 
d="M-9 -230l169 960h17l-169 -960h-17zM128 -230l169 960h17l-169 -960h-17z" />
    <glyph glyph-name="quoteleft" unicode="&#x2018;" horiz-adv-x="146" 
d="M133 730l13 -204h-15l-19 204h21z" />
    <glyph glyph-name="quoteright" unicode="&#x2019;" horiz-adv-x="146" 
d="M91 526h-15l85 204h21z" />
    <glyph glyph-name="quotesinglbase" unicode="&#x201a;" horiz-adv-x="148" 
d="M-46 -117l84 204h21l-91 -204h-14z" />
    <glyph glyph-name="reversequoteleft" unicode="&#x201b;" horiz-adv-x="146" 
d="M91 526h-15l85 204h21z" />
    <glyph glyph-name="quotedblleft" unicode="&#x201c;" horiz-adv-x="222" 
d="M209 730l13 -204h-15l-19 204h21zM133 730l13 -204h-15l-19 204h21z" />
    <glyph glyph-name="quotedblright" unicode="&#x201d;" horiz-adv-x="222" 
d="M91 526h-15l85 204h21zM167 526h-15l85 204h21z" />
    <glyph glyph-name="quotedblbase" unicode="&#x201e;" horiz-adv-x="224" 
d="M-46 -117l84 204h21l-91 -204h-14zM29 -117l85 204h21l-91 -204h-15z" />
    <glyph glyph-name="reversequotedblleft" unicode="&#x201f;" horiz-adv-x="222" 
d="M91 526h-15l85 204h21zM167 526h-15l85 204h21z" />
    <glyph glyph-name="dagger" unicode="&#x2020;" horiz-adv-x="583" 
d="M97 485l3 15h215l41 230h17l-41 -230h221l-3 -15h-220l-85 -485h-17l85 485h-216z" />
    <glyph glyph-name="daggerdbl" unicode="&#x2021;" horiz-adv-x="583" 
d="M97 485l3 15h215l41 230h17l-41 -230h221l-3 -15h-220l-41 -234h220l-3 -15h-220l-41 -236h-17l41 236h-216l3 15h216l41 234h-216z" />
    <glyph glyph-name="bullet" unicode="&#x2022;" horiz-adv-x="226" 
d="M126 220q-14 0 -23.5 10t-9.5 23t9.5 23t23.5 10t23.5 -10t9.5 -23t-9.5 -23t-23.5 -10z" />
    <glyph glyph-name="ellipsis" unicode="&#x2026;" horiz-adv-x="364" 
d="M12 0l24 137h18l-24 -137h-18zM120 0l24 137h18l-24 -137h-18zM228 0l24 137h18l-24 -137h-18z" />
    <glyph glyph-name="perthousand" unicode="&#x2030;" horiz-adv-x="1257" 
d="M55 0l755 730h23l-755 -730h-23zM285 420q-73 0 -116.5 53t-30.5 127q11 61 58.5 100.5t106.5 39.5q73 0 116.5 -54.5t30.5 -127.5q-11 -61 -58 -99.5t-107 -38.5zM285 435q54 0 97 36t53 90q11 64 -26.5 114t-105.5 50q-55 0 -98 -36.5t-52 -91.5q-11 -63 27 -112.5
t105 -49.5zM581 -11q-73 0 -116.5 53t-30.5 127q11 61 58.5 100.5t106.5 39.5q73 0 116.5 -54.5t30.5 -127.5q-11 -61 -58 -99.5t-107 -38.5zM581 4q54 0 97 36t53 90q11 64 -26.5 114t-105.5 50q-55 0 -98 -36.5t-52 -91.5q-11 -63 27 -112.5t105 -49.5zM990 -11
q-73 0 -116.5 53t-30.5 127q11 61 58.5 100.5t106.5 39.5q73 0 116.5 -54.5t30.5 -127.5q-11 -61 -58 -99.5t-107 -38.5zM990 4q54 0 97 36t53 90q11 64 -26.5 114t-105.5 50q-55 0 -98 -36.5t-52 -91.5q-11 -63 27 -112.5t105 -49.5z" />
    <glyph glyph-name="minute" unicode="&#x2032;" horiz-adv-x="146" 
d="M91 526h-15l85 204h21z" />
    <glyph glyph-name="second" unicode="&#x2033;" horiz-adv-x="222" 
d="M91 526h-15l85 204h21zM167 526h-15l85 204h21z" />
    <glyph glyph-name="tripleprime" unicode="&#x2034;" horiz-adv-x="321" 
d="M107 500q2 23 21 146l15 84h17l-15 -84q-11 -72 -28 -146h-10zM194 500q2 23 21 146l15 84h17l-15 -84q-11 -72 -28 -146h-10zM281 500q2 23 21 146l15 84h17l-15 -84q-11 -72 -28 -146h-10z" />
    <glyph glyph-name="guilsinglleft" unicode="&#x2039;" horiz-adv-x="264" 
d="M178 123l-119 119l3 15l161 119l-4 -22l-144 -106l107 -107z" />
    <glyph glyph-name="guilsinglright" unicode="&#x203a;" horiz-adv-x="264" 
d="M91 375l119 -119l-3 -15l-161 -119l4 22l144 106l-107 107z" />
    <glyph glyph-name="fraction" unicode="&#x2044;" horiz-adv-x="618" 
d="M-8 0l655 730h22l-655 -730h-22z" />
    <glyph glyph-name="uni2070" unicode="&#x2070;" horiz-adv-x="515" 
d="M293 306q-100 0 -158.5 72.5t-40.5 169.5q15 85 79 138.5t146 53.5q103 0 159 -76t38 -169q-15 -83 -78.5 -136t-144.5 -53zM294 321q74 0 133 50t73 127q16 86 -35 156.5t-147 70.5q-74 0 -134.5 -50.5t-73.5 -128.5q-15 -93 38.5 -159t145.5 -66z" />
    <glyph glyph-name="uni2074" unicode="&#x2074;" horiz-adv-x="360" 
d="M260 308l17 97h-223l-1 15l282 310h15l-55 -310h74l-3 -15h-73l-17 -97h-16zM75 420h204l49 278z" />
    <glyph glyph-name="uni2075" unicode="&#x2075;" horiz-adv-x="368" 
d="M193 302q-96 0 -127 75l14 8q31 -68 115 -68q54 0 97 33t53 86t-20 93t-87 40q-85 0 -132 -72l-16 5l69 228h223l-2 -15h-211l-56 -185q47 54 128 54q63 0 97 -45.5t22 -103.5q-11 -59 -57 -96t-110 -37z" />
    <glyph glyph-name="uni2076" unicode="&#x2076;" horiz-adv-x="372" 
d="M213 302q-68 0 -107 48.5t-28 115.5q8 46 39 80l166 184h20l-135 -150q32 15 63 15q66 0 105.5 -49.5t27.5 -116.5q-10 -56 -53 -91.5t-98 -35.5zM213 317q48 0 87.5 32.5t48.5 81.5q11 60 -24 104.5t-95 44.5q-50 0 -89 -33t-47 -83q-11 -59 23 -103t96 -44z" />
    <glyph glyph-name="uni2077" unicode="&#x2077;" horiz-adv-x="341" 
d="M115 308l248 408h-239l3 14h256l-3 -14l-247 -408h-18z" />
    <glyph glyph-name="uni2078" unicode="&#x2078;" horiz-adv-x="353" 
d="M191 306q-63 0 -96 38t-24 88q7 44 39.5 71t79.5 36q-32 9 -52 36.5t-13 67.5q7 41 42 69t84 28q53 0 83 -33.5t22 -77.5q-6 -36 -33.5 -61t-65.5 -31q41 -10 65.5 -42.5t16.5 -78.5q-9 -47 -46 -78.5t-102 -31.5zM193 321q55 0 88.5 27.5t40.5 68.5q9 48 -21.5 81
t-78.5 33q-52 0 -89.5 -29.5t-45.5 -70.5q-7 -45 21 -77.5t85 -32.5zM223 546q47 0 80 24.5t38 59.5q7 39 -18 67t-74 28q-43 0 -73 -23.5t-37 -59.5q-7 -40 19.5 -68t64.5 -28z" />
    <glyph glyph-name="uni2079" unicode="&#x2079;" horiz-adv-x="355" 
d="M153 312l142 168q-31 -17 -66 -17q-63 0 -100 45.5t-26 108.5q9 54 50 88.5t94 34.5q64 0 101.5 -46.5t26.5 -110.5q-7 -36 -33 -69l-169 -202h-20zM231 477q45 0 82.5 31t45.5 77q10 57 -23 98.5t-89 41.5q-47 0 -84 -31t-45 -79q-9 -55 23 -96.5t90 -41.5z" />
    <glyph glyph-name="uni207A" unicode="&#x207a;" horiz-adv-x="279" 
d="M75 517l2 14h100l18 99h14l-17 -99h99l-3 -14h-99l-17 -100h-15l18 100h-100z" />
    <glyph glyph-name="uni207B" unicode="&#x207b;" horiz-adv-x="279" 
d="M75 516l2 14h214l-3 -14h-213z" />
    <glyph glyph-name="uni207C" unicode="&#x207c;" horiz-adv-x="279" 
d="M82 562l3 14h213l-2 -14h-214zM65 470l3 14h214l-3 -14h-214z" />
    <glyph glyph-name="uni207D" unicode="&#x207d;" horiz-adv-x="300" 
d="M244 209l-9 -12q-70 45 -108.5 141.5t-18.5 206.5q19 109 88 190.5t145 113.5l7 -13q-73 -29 -140 -109.5t-85 -182.5q-19 -106 17.5 -197.5t103.5 -137.5z" />
    <glyph glyph-name="uni207E" unicode="&#x207e;" horiz-adv-x="300" 
d="M147 838l9 12q71 -46 111.5 -142.5t20.5 -206.5q-20 -113 -86 -193t-146 -113l-7 13q76 30 141 109.5t83 184.5q19 106 -19.5 198t-106.5 138z" />
    <glyph glyph-name="uni2080" unicode="&#x2080;" horiz-adv-x="515" 
d="M238 -6q-100 0 -158.5 72.5t-40.5 169.5q15 85 79 138.5t146 53.5q103 0 159 -76t38 -169q-15 -83 -78.5 -136t-144.5 -53zM239 9q74 0 133 50t73 127q16 86 -35 156.5t-147 70.5q-74 0 -134.5 -50.5t-73.5 -128.5q-15 -93 38.5 -159t145.5 -66z" />
    <glyph glyph-name="uni2081" unicode="&#x2081;" horiz-adv-x="272" 
d="M5 0l2 14h83l64 363q-11 -17 -33.5 -28.5t-44.5 -11.5h-6l3 16h3q38 0 60 21t27 48h15l-72 -408h84l-3 -14h-182z" />
    <glyph glyph-name="uni2082" unicode="&#x2082;" horiz-adv-x="367" 
d="M5 0l2 19q9 50 47 86.5t110 78.5q4 3 26.5 15t29 16t24 15.5t24.5 18.5t17.5 18.5t16 23t7.5 24.5q7 41 -22 70t-81 29q-33 0 -64.5 -15.5t-49.5 -39.5l-13 10q20 27 55 43t74 16q58 0 91.5 -34t25.5 -81q-2 -11 -5.5 -21.5t-11 -20t-13 -17t-17.5 -17t-18 -14.5t-21 -14
t-20.5 -12.5t-23.5 -13.5t-22 -12q-70 -41 -105.5 -74.5t-43.5 -78.5l-1 -4h251l-2 -14h-267z" />
    <glyph glyph-name="uni2083" unicode="&#x2083;" horiz-adv-x="324" 
d="M112 -6q-39 0 -71.5 15t-45.5 37l13 8q12 -20 41.5 -32.5t64.5 -12.5q52 0 87 25t43 70q8 47 -22.5 77.5t-79.5 30.5h-35l3 14h36q47 0 81.5 24t41.5 65q8 43 -21 71t-74 28q-59 0 -103 -40l-11 11q49 43 115 43q52 0 84.5 -33t24.5 -82q-7 -36 -33 -61t-67 -34
q40 -12 61 -43.5t14 -73.5q-9 -51 -48.5 -79t-98.5 -28z" />
    <glyph glyph-name="uni2084" unicode="&#x2084;" horiz-adv-x="360" 
d="M206 0l17 97h-223l-1 15l282 310h15l-55 -310h74l-3 -15h-73l-17 -97h-16zM21 112h204l49 278z" />
    <glyph glyph-name="uni2085" unicode="&#x2085;" horiz-adv-x="368" 
d="M140 -6q-96 0 -127 75l14 8q31 -68 115 -68q54 0 97 33t53 86t-20 93t-87 40q-85 0 -132 -72l-16 5l69 228h223l-2 -15h-211l-56 -185q47 54 128 54q63 0 97 -45.5t22 -103.5q-11 -59 -57 -96t-110 -37z" />
    <glyph glyph-name="uni2086" unicode="&#x2086;" horiz-adv-x="372" 
d="M158 -6q-68 0 -107 48.5t-28 115.5q8 46 39 80l166 184h20l-135 -150q32 15 63 15q66 0 105.5 -49.5t27.5 -116.5q-10 -56 -53 -91.5t-98 -35.5zM158 9q48 0 87.5 32.5t48.5 81.5q11 60 -24 104.5t-95 44.5q-50 0 -89 -33t-47 -83q-11 -59 23 -103t96 -44z" />
    <glyph glyph-name="uni2087" unicode="&#x2087;" horiz-adv-x="341" 
d="M61 0l248 408h-239l3 14h256l-3 -14l-247 -408h-18z" />
    <glyph glyph-name="uni2088" unicode="&#x2088;" horiz-adv-x="353" 
d="M136 -6q-63 0 -96 38t-24 88q7 44 39.5 71t79.5 36q-32 9 -52 36.5t-13 67.5q7 41 42 69t84 28q53 0 83 -33.5t22 -77.5q-6 -36 -33.5 -61t-65.5 -31q41 -10 65.5 -42.5t16.5 -78.5q-9 -47 -46 -78.5t-102 -31.5zM138 9q55 0 88.5 27.5t40.5 68.5q9 48 -21.5 81t-78.5 33
q-52 0 -89.5 -29.5t-45.5 -70.5q-7 -45 21 -77.5t85 -32.5zM168 234q47 0 80 24.5t38 59.5q7 39 -18 67t-74 28q-43 0 -73 -23.5t-37 -59.5q-7 -40 19.5 -68t64.5 -28z" />
    <glyph glyph-name="uni2089" unicode="&#x2089;" horiz-adv-x="355" 
d="M98 0l142 168q-31 -17 -66 -17q-63 0 -100 45.5t-26 108.5q9 54 50 88.5t94 34.5q64 0 101.5 -46.5t26.5 -110.5q-7 -36 -33 -69l-169 -202h-20zM176 165q45 0 82.5 31t45.5 77q10 57 -23 98.5t-89 41.5q-47 0 -84 -31t-45 -79q-9 -55 23 -96.5t90 -41.5z" />
    <glyph glyph-name="uni208A" unicode="&#x208a;" horiz-adv-x="279" 
d="M20 204l2 14h100l18 99h14l-17 -99h99l-3 -14h-99l-17 -100h-15l18 100h-100z" />
    <glyph glyph-name="uni208B" unicode="&#x208b;" horiz-adv-x="279" 
d="M20 204l2 14h214l-3 -14h-213z" />
    <glyph glyph-name="uni208C" unicode="&#x208c;" horiz-adv-x="279" 
d="M28 249l3 14h213l-2 -14h-214zM11 157l3 14h214l-3 -14h-214z" />
    <glyph glyph-name="uni208D" unicode="&#x208d;" horiz-adv-x="300" 
d="M190 -102l-9 -12q-70 45 -108.5 141.5t-18.5 206.5q19 109 88 190.5t145 113.5l7 -13q-73 -29 -140 -109.5t-85 -182.5q-19 -106 17.5 -197.5t103.5 -137.5z" />
    <glyph glyph-name="uni208E" unicode="&#x208e;" horiz-adv-x="300" 
d="M93 526l9 12q71 -46 111.5 -142.5t20.5 -206.5q-20 -113 -86 -193t-146 -113l-7 13q76 30 141 109.5t83 184.5q19 106 -19.5 198t-106.5 138z" />
    <glyph glyph-name="uni20A1" unicode="&#x20a1;" horiz-adv-x="823" 
d="M102 -120l100 187q-69 58 -98.5 148t-10.5 195q26 144 142 237t258 93q30 0 67 -5l56 105h17l-58 -108q68 -12 117 -44l81 152h17l-86 -160q57 -42 91 -105l-15 -8q-33 64 -83 99l-350 -653q33 -8 79 -8q91 0 174.5 41.5t134.5 113.5l14 -9q-53 -76 -140 -118.5
t-184 -42.5q-46 0 -85 9l-64 -119h-17l66 123q-60 16 -111 54l-95 -177h-17zM109 406q-17 -95 10 -181.5t91 -143.5l342 640q-25 4 -60 4q-136 0 -247.5 -90.5t-135.5 -228.5zM221 71q53 -40 111 -55l352 658q-50 33 -116 45z" />
    <glyph glyph-name="uni20A2" unicode="&#x20a2;" horiz-adv-x="823" 
d="M425 -10q-113 0 -197 57t-119.5 153t-15.5 210q26 144 142 237t258 93q215 0 302 -165l-15 -8q-81 158 -288 158q-136 0 -247.5 -90.5t-135.5 -228.5q-26 -149 49.5 -265.5t224.5 -133.5l50 264q15 92 -54 92h-13l2 13h14q38 0 57.5 -27.5t8.5 -81.5l-5 -22
q29 60 83.5 95.5t122.5 35.5h67l-3 -16h-65q-83 0 -143 -54.5t-75 -135.5l-32 -164q9 -1 28 -1q91 0 174.5 41.5t134.5 113.5l14 -9q-53 -76 -140 -118.5t-184 -42.5z" />
    <glyph glyph-name="franc" unicode="&#x20a3;" horiz-adv-x="561" 
d="M31 0l128 730h413l-3 -15h-396l-49 -279h396l-3 -15h-396l-22 -127h397l-3 -15h-396l-49 -279h-17z" />
    <glyph glyph-name="lira" unicode="&#x20a4;" horiz-adv-x="734" 
d="M127 420l3 15h84q-24 68 -12 131q14 78 75 126t150 48q125 0 194 -91l-13 -9q-63 85 -181 85q-82 0 -139 -45t-70 -117q-11 -62 13 -128h279l-3 -15h-271q12 -30 40 -86h212l-3 -15h-202q45 -102 33 -174q-6 -32 -19 -57q49 -40 91 -61.5t92 -21.5q71 0 109.5 39.5
t56.5 137.5l2 14h17l-3 -16q-18 -104 -61 -147t-122 -43q-37 0 -74 13.5t-60 29t-56 41.5q-50 -85 -155 -85q-48 0 -81.5 27t-25.5 76q6 34 34 55t72 22q39 1 72.5 -17.5t79.5 -54.5q11 24 15 48q13 75 -33 174h-162l3 15h151q-36 76 -39 86h-93zM134 3q96 0 143 81
q-43 35 -75.5 52.5t-69.5 17.5t-60.5 -18t-28.5 -46q-7 -40 20.5 -63.5t70.5 -23.5z" />
    <glyph glyph-name="uni20A6" unicode="&#x20a6;" horiz-adv-x="763" 
d="M54 420l3 15h80l52 295h18l166 -295h300l53 295h16l-52 -295h81l-3 -15h-81l-15 -86h81l-3 -15h-80l-56 -319h-15l-180 319h-285l-56 -319h-17l56 319h-80l3 15h79l15 86h-80zM438 319l164 -291l51 291h-215zM202 704l-48 -269h200zM381 420l49 -86h226l15 86h-290z
M151 420l-15 -86h275l-49 86h-211z" />
    <glyph glyph-name="peseta" unicode="&#x20a7;" horiz-adv-x="1304" 
d="M802 14h228q75 0 113.5 31.5t46.5 77.5q4 27 -5.5 47.5t-36.5 36.5t-47 24.5t-62 23.5q-41 14 -64 24.5t-50.5 28t-37 41t-4.5 53.5q9 51 56.5 80.5t115.5 27.5q56 0 106.5 -19t80.5 -48l-11 -11q-67 64 -178 64q-62 0 -104.5 -25.5t-49.5 -70.5q-4 -22 3.5 -40.5
t18.5 -30.5t35.5 -25t41.5 -19.5t50 -17.5q43 -15 63.5 -24t49.5 -26.5t39 -41.5t5 -55q-9 -54 -52.5 -87t-123.5 -33h-231q-96 0 -135.5 43t-23.5 138l54 306h-103q0 -7 -2 -19q-17 -100 -94.5 -160.5t-194.5 -60.5h-208l-43 -247h-17l128 730h185q111 0 181.5 -64.5
t65.5 -165.5h105l21 120l17 9l-23 -129h139l-3 -13h-138l-54 -309q-16 -91 20 -127.5t127 -36.5zM342 715h-169l-79 -453h205q109 0 182.5 58t89.5 151q18 104 -48.5 174t-180.5 70z" />
    <glyph glyph-name="uni20A8" unicode="&#x20a8;" horiz-adv-x="1065" 
d="M31 0l128 730h202q98 0 162 -71t47 -172q-14 -84 -79 -140.5t-152 -56.5h-50q6 -37 20.5 -72t48 -75t80.5 -69.5t124 -49t174 -19.5q194 0 215 116q4 25 -4.5 44t-31 34t-43 24t-54.5 22q-13 5 -19 7q-34 13 -52 20.5t-43.5 22t-37.5 28t-19 34t-3 45.5q9 51 56.5 80.5
t115.5 27.5q56 0 106.5 -19t80.5 -48l-11 -11q-67 64 -178 64q-62 0 -104.5 -25.5t-49.5 -70.5q-5 -26 4 -46.5t30.5 -35t45 -25t56.5 -23.5q9 -3 14 -5q93 -36 122 -59q43 -35 34 -88q-23 -128 -231 -128q-86 0 -157 14.5t-119 40.5t-84.5 57.5t-57 68.5t-31.5 69.5
t-14 65.5h68q79 0 139.5 53t74.5 130q16 92 -42 158t-153 68h-186l-125 -715h-17z" />
    <glyph glyph-name="uni20A9" unicode="&#x20a9;" horiz-adv-x="1114" 
d="M54 420l3 15h130l-37 295h17l36 -295h268l155 295h14l54 -295h270l141 295h18l-140 -295h135l-3 -15h-139l-41 -86h165l-3 -15h-169l-152 -319h-18l-59 319h-271l-168 -319h-19l-40 319h-164l3 15h159l-10 86h-135zM716 319l54 -294l139 294h-193zM218 319l37 -294
l154 294h-191zM629 700l-140 -265h189zM697 420l16 -86h203l41 86h-260zM481 420l-45 -86h261l-16 86h-200zM205 420l11 -86h201l46 86h-258z" />
    <glyph glyph-name="uni20AA" unicode="&#x20aa;" horiz-adv-x="578" 
d="M167 0l102 582q18 0 14 -17l-96 -549h115q143 0 170 148l97 566h17l-97 -566q-28 -164 -189 -164h-133zM30 0l128 730h134q76 0 109 -46t20 -118l-70 -402q-3 -15 -20 -15l73 417q12 65 -16.5 106.5t-96.5 41.5h-119l-125 -714h-17z" />
    <glyph glyph-name="Euro" unicode="&#x20ac;" 
d="M78 486l3 16h75l6 35q36 203 228 203q118 0 171 -76l-14 -9q-48 70 -157 70q-178 0 -211 -188l-6 -35h329l-6 -16h-326l-43 -242h287l-6 -16h-284q-13 -97 36.5 -160t155.5 -63q101 0 157 67l13 -11q-57 -71 -171 -71q-112 0 -167 66.5t-40 171.5h-75l3 16h74l43 242h-75
z" />
    <glyph glyph-name="uni20AE" unicode="&#x20ae;" horiz-adv-x="607" 
d="M498 516l-3 -18l-150 -58l-19 -108l150 58l-3 -18l-150 -58l-55 -314h-17l54 307l-143 -54l3 18l143 54l19 108l-143 -54l3 18l143 55l46 263h-245l3 15h507l-3 -15h-245l-45 -256z" />
    <glyph glyph-name="uni20B1" unicode="&#x20b1;" horiz-adv-x="678" 
d="M74 533l3 15h79l33 182h185q96 0 164 -50t81 -132h86l-3 -15h-81q3 -32 -3 -65q-1 -7 -5 -21h74l-3 -15h-75q-26 -85 -100 -135t-180 -50h-208l-43 -247h-17l75 432h-79l3 15h79l15 86h-80zM329 262q96 0 165.5 46.5t96.5 123.5h-437l-30 -170h205zM372 715h-169
l-29 -167h427q-14 75 -76.5 121t-152.5 46zM601 471q5 34 2 62h-432l-15 -86h439z" />
    <glyph glyph-name="published" unicode="&#x2117;" horiz-adv-x="877" 
d="M414 -133q-114 0 -200.5 56.5t-125.5 153.5t-19 210q26 144 137.5 237t250.5 93q112 0 198 -58t125 -156t19 -211q-26 -144 -136 -234.5t-249 -90.5zM415 -118q132 0 238 88.5t130 224.5q18 99 -14.5 192t-115.5 154t-197 61q-134 0 -240.5 -90t-130.5 -229
q-18 -103 16.5 -194.5t117.5 -149t196 -57.5zM293 45l66 374h106q59 0 96.5 -38t27.5 -96q-8 -51 -48 -82.5t-100 -31.5h-110l-22 -126h-16zM463 404h-91l-39 -218h109q53 0 88 28t43 73q8 50 -23.5 83.5t-86.5 33.5z" />
    <glyph glyph-name="servicemark" unicode="&#x2120;" horiz-adv-x="699" 
d="M331 440l51 290h13l112 -183l181 183h14l-53 -290h-16l48 260l-178 -180l-111 183l-46 -263h-15zM180 437q-56 0 -89 49l14 10q25 -44 76 -44q29 0 49 15t25 40q3 20 -6.5 36.5t-20.5 24t-34 20.5q-24 14 -36 22t-22 26.5t-6 41.5q5 25 27 41.5t54 16.5q55 0 81 -42
l-14 -9q-23 36 -67 36q-58 0 -66 -45q-3 -19 6 -34.5t20 -23t33 -19.5q18 -10 27.5 -16.5t22 -18t16 -26.5t0.5 -34q-5 -31 -30 -49t-60 -18z" />
    <glyph glyph-name="trademark" unicode="&#x2122;" horiz-adv-x="699" 
d="M331 440l51 290h13l112 -183l181 183h14l-53 -290h-16l48 260l-178 -180l-111 183l-46 -263h-15zM173 440l49 276h-111l2 14h239l-2 -14h-112l-49 -276h-16z" />
    <glyph glyph-name="uni2153" unicode="&#x2153;" horiz-adv-x="787" 
d="M61 0l655 730h22l-655 -730h-22zM575 -6q-39 0 -71.5 15t-45.5 37l13 8q12 -20 41.5 -32.5t64.5 -12.5q52 0 87 25t43 70q8 47 -22.5 77.5t-79.5 30.5h-35l3 14h36q47 0 81.5 24t41.5 65q8 43 -21 71t-74 28q-59 0 -103 -40l-11 11q49 43 115 43q52 0 84.5 -33t24.5 -82
q-7 -36 -33 -61t-67 -34q40 -12 61 -43.5t14 -73.5q-9 -51 -48.5 -79t-98.5 -28zM59 308l2 14h83l64 363q-11 -17 -33.5 -28.5t-44.5 -11.5h-6l3 16h3q38 0 60 21t27 48h15l-72 -408h84l-3 -14h-182z" />
    <glyph glyph-name="uni2154" unicode="&#x2154;" horiz-adv-x="856" 
d="M130 0l655 730h22l-655 -730h-22zM58 308l2 19q9 50 47 86.5t110 78.5q4 3 26.5 15t29 16t24 15.5t24.5 18.5t17.5 18.5t16 23t7.5 24.5q7 41 -22 70t-81 29q-33 0 -64.5 -15.5t-49.5 -39.5l-13 10q20 27 55 43t74 16q58 0 91.5 -34t25.5 -81q-2 -11 -5.5 -21.5t-11 -20
t-13 -17t-17.5 -17t-18 -14.5t-21 -14t-20.5 -12.5t-23.5 -13.5t-22 -12q-70 -41 -105.5 -74.5t-43.5 -78.5l-1 -4h251l-2 -14h-267zM644 -6q-39 0 -71.5 15t-45.5 37l13 8q12 -20 41.5 -32.5t64.5 -12.5q52 0 87 25t43 70q8 47 -22.5 77.5t-79.5 30.5h-35l3 14h36
q47 0 81.5 24t41.5 65q8 43 -21 71t-74 28q-59 0 -103 -40l-11 11q49 43 115 43q52 0 84.5 -33t24.5 -82q-7 -36 -33 -61t-67 -34q40 -12 61 -43.5t14 -73.5q-9 -51 -48.5 -79t-98.5 -28z" />
    <glyph glyph-name="uni2155" unicode="&#x2155;" horiz-adv-x="820" 
d="M592 -6q-96 0 -127 75l14 8q31 -68 115 -68q54 0 97 33t53 86t-20 93t-87 40q-85 0 -132 -72l-16 5l69 228h223l-2 -15h-211l-56 -185q47 54 128 54q63 0 97 -45.5t22 -103.5q-11 -59 -57 -96t-110 -37zM61 0l655 730h22l-655 -730h-22zM59 308l2 14h83l64 363
q-11 -17 -33.5 -28.5t-44.5 -11.5h-6l3 16h3q38 0 60 21t27 48h15l-72 -408h84l-3 -14h-182z" />
    <glyph glyph-name="uni2156" unicode="&#x2156;" horiz-adv-x="889" 
d="M661 -6q-96 0 -127 75l14 8q31 -68 115 -68q54 0 97 33t53 86t-20 93t-87 40q-85 0 -132 -72l-16 5l69 228h223l-2 -15h-211l-56 -185q47 54 128 54q63 0 97 -45.5t22 -103.5q-11 -59 -57 -96t-110 -37zM130 0l655 730h22l-655 -730h-22zM58 308l2 19q9 50 47 86.5
t110 78.5q4 3 26.5 15t29 16t24 15.5t24.5 18.5t17.5 18.5t16 23t7.5 24.5q7 41 -22 70t-81 29q-33 0 -64.5 -15.5t-49.5 -39.5l-13 10q20 27 55 43t74 16q58 0 91.5 -34t25.5 -81q-2 -11 -5.5 -21.5t-11 -20t-13 -17t-17.5 -17t-18 -14.5t-21 -14t-20.5 -12.5t-23.5 -13.5
t-22 -12q-70 -41 -105.5 -74.5t-43.5 -78.5l-1 -4h251l-2 -14h-267z" />
    <glyph glyph-name="uni2157" unicode="&#x2157;" horiz-adv-x="851" 
d="M623 -6q-96 0 -127 75l14 8q31 -68 115 -68q54 0 97 33t53 86t-20 93t-87 40q-85 0 -132 -72l-16 5l69 228h223l-2 -15h-211l-56 -185q47 54 128 54q63 0 97 -45.5t22 -103.5q-11 -59 -57 -96t-110 -37zM92 0l655 730h22l-655 -730h-22zM167 302q-39 0 -71.5 15t-45.5 37
l13 8q12 -20 41.5 -32.5t64.5 -12.5q52 0 87 25t43 70q8 47 -22.5 77.5t-79.5 30.5h-35l3 14h36q47 0 81.5 24t41.5 65q8 43 -21 71t-74 28q-59 0 -103 -40l-11 11q49 43 115 43q52 0 84.5 -33t24.5 -82q-7 -36 -33 -61t-66 -34q39 -12 60 -43.5t14 -73.5q-9 -51 -48.5 -79
t-98.5 -28z" />
    <glyph glyph-name="uni2158" unicode="&#x2158;" horiz-adv-x="865" 
d="M260 308l17 97h-223l-1 15l282 310h15l-55 -310h74l-3 -15h-73l-17 -97h-16zM75 420h204l49 278zM637 -6q-96 0 -127 75l14 8q31 -68 115 -68q54 0 97 33t53 86t-20 93t-87 40q-85 0 -132 -72l-16 5l69 228h223l-2 -15h-211l-56 -185q47 54 128 54q63 0 97 -45.5
t22 -103.5q-11 -59 -57 -96t-110 -37zM106 0l655 730h22l-655 -730h-22z" />
    <glyph glyph-name="uni2159" unicode="&#x2159;" horiz-adv-x="762" 
d="M548 -6q-68 0 -107 48.5t-28 115.5q8 46 39 80l166 184h20l-135 -150q32 15 63 15q66 0 105.5 -49.5t27.5 -116.5q-10 -56 -53 -91.5t-98 -35.5zM548 9q48 0 87.5 32.5t48.5 81.5q11 60 -24 104.5t-95 44.5q-50 0 -89 -33t-47 -83q-11 -59 23 -103t96 -44zM61 0l655 730
h22l-655 -730h-22zM59 308l2 14h83l64 363q-11 -17 -33.5 -28.5t-44.5 -11.5h-6l3 16h3q38 0 60 21t27 48h15l-72 -408h84l-3 -14h-182z" />
    <glyph glyph-name="uni215A" unicode="&#x215a;" horiz-adv-x="843" 
d="M629 -6q-68 0 -107 48.5t-28 115.5q8 46 39 80l166 184h20l-135 -150q32 15 63 15q66 0 105.5 -49.5t27.5 -116.5q-10 -56 -53 -91.5t-98 -35.5zM629 9q48 0 87.5 32.5t48.5 81.5q11 60 -24 104.5t-95 44.5q-50 0 -89 -33t-47 -83q-11 -59 23 -103t96 -44zM196 302
q-96 0 -127 75l14 8q31 -68 115 -68q54 0 97 33t53 86t-20 93t-87 40q-85 0 -132 -72l-16 5l69 228h223l-2 -15h-211l-56 -185q47 54 128 54q63 0 97 -45.5t22 -103.5q-11 -59 -57 -96t-110 -37zM142 0l655 730h22l-655 -730h-22z" />
    <glyph glyph-name="uni215B" unicode="&#x215b;" horiz-adv-x="799" 
d="M582 -6q-63 0 -96 38t-24 88q7 44 39.5 71t79.5 36q-32 9 -52 36.5t-13 67.5q7 41 42 69t84 28q53 0 83 -33.5t22 -77.5q-6 -36 -33.5 -61t-65.5 -31q41 -10 65.5 -42.5t16.5 -78.5q-9 -47 -46 -78.5t-102 -31.5zM584 9q55 0 88.5 27.5t40.5 68.5q9 48 -21.5 81t-78.5 33
q-52 0 -89.5 -29.5t-45.5 -70.5q-7 -45 21 -77.5t85 -32.5zM614 234q47 0 80 24.5t38 59.5q7 39 -18 67t-74 28q-43 0 -73 -23.5t-37 -59.5q-7 -40 19.5 -68t64.5 -28zM61 0l655 730h22l-655 -730h-22zM59 308l2 14h83l64 363q-11 -17 -33.5 -28.5t-44.5 -11.5h-6l3 16h3
q38 0 60 21t27 48h15l-72 -408h84l-3 -14h-182z" />
    <glyph glyph-name="uni215C" unicode="&#x215c;" horiz-adv-x="830" 
d="M613 -6q-63 0 -96 38t-24 88q7 44 39.5 71t79.5 36q-32 9 -52 36.5t-13 67.5q7 41 42 69t84 28q53 0 83 -33.5t22 -77.5q-6 -36 -33.5 -61t-65.5 -31q41 -10 65.5 -42.5t16.5 -78.5q-9 -47 -46 -78.5t-102 -31.5zM615 9q55 0 88.5 27.5t40.5 68.5q9 48 -21.5 81t-78.5 33
q-52 0 -89.5 -29.5t-45.5 -70.5q-7 -45 21 -77.5t85 -32.5zM645 234q47 0 80 24.5t38 59.5q7 39 -18 67t-74 28q-43 0 -73 -23.5t-37 -59.5q-7 -40 19.5 -68t64.5 -28zM92 0l655 730h22l-655 -730h-22zM167 302q-39 0 -71.5 15t-45.5 37l13 8q12 -20 41.5 -32.5t64.5 -12.5
q52 0 87 25t43 70q8 47 -22.5 77.5t-79.5 30.5h-35l3 14h36q47 0 81.5 24t41.5 65q8 43 -21 71t-74 28q-59 0 -103 -40l-11 11q49 43 115 43q52 0 84.5 -33t24.5 -82q-7 -36 -33 -61t-66 -34q39 -12 60 -43.5t14 -73.5q-9 -51 -48.5 -79t-98.5 -28z" />
    <glyph glyph-name="uni215D" unicode="&#x215d;" horiz-adv-x="865" 
d="M648 -6q-63 0 -96 38t-24 88q7 44 39.5 71t79.5 36q-32 9 -52 36.5t-13 67.5q7 41 42 69t84 28q53 0 83 -33.5t22 -77.5q-6 -36 -33.5 -61t-65.5 -31q41 -10 65.5 -42.5t16.5 -78.5q-9 -47 -46 -78.5t-102 -31.5zM650 9q55 0 88.5 27.5t40.5 68.5q9 48 -21.5 81t-78.5 33
q-52 0 -89.5 -29.5t-45.5 -70.5q-7 -45 21 -77.5t85 -32.5zM680 234q47 0 80 24.5t38 59.5q7 39 -18 67t-74 28q-43 0 -73 -23.5t-37 -59.5q-7 -40 19.5 -68t64.5 -28zM196 302q-96 0 -127 75l14 8q31 -68 115 -68q54 0 97 33t53 86t-20 93t-87 40q-85 0 -132 -72l-16 5
l69 228h223l-2 -15h-211l-56 -185q47 54 128 54q63 0 97 -45.5t22 -103.5q-11 -59 -57 -96t-110 -37zM127 0l655 730h22l-655 -730h-22z" />
    <glyph glyph-name="uni215E" unicode="&#x215e;" horiz-adv-x="726" 
d="M509 -6q-63 0 -96 38t-24 88q7 44 39.5 71t79.5 36q-32 9 -52 36.5t-13 67.5q7 41 42 69t84 28q53 0 83 -33.5t22 -77.5q-6 -36 -33.5 -61t-65.5 -31q41 -10 65.5 -42.5t16.5 -78.5q-9 -47 -46 -78.5t-102 -31.5zM511 9q55 0 88.5 27.5t40.5 68.5q9 48 -21.5 81t-78.5 33
q-52 0 -89.5 -29.5t-45.5 -70.5q-7 -45 21 -77.5t85 -32.5zM541 234q47 0 80 24.5t38 59.5q7 39 -18 67t-74 28q-43 0 -73 -23.5t-37 -59.5q-7 -40 19.5 -68t64.5 -28zM-12 0l655 730h22l-655 -730h-22zM115 308l248 408h-239l3 14h256l-3 -14l-247 -408h-18z" />
    <glyph glyph-name="uni215F" unicode="&#x215f;" horiz-adv-x="687" 
d="M61 0l655 730h22l-655 -730h-22zM59 308l2 14h83l64 363q-11 -17 -33.5 -28.5t-44.5 -11.5h-6l3 16h3q38 0 60 21t27 48h15l-72 -408h84l-3 -14h-182z" />
    <glyph glyph-name="arrowleft" unicode="&#x2190;" horiz-adv-x="896" 
d="M277 148q-23 66 -87.5 125.5t-122.5 85.5v11q58 27 122.5 86.5t87.5 125.5l14 -5q-21 -65 -81 -121t-118 -84h757v-15h-759q59 -27 119.5 -83t81.5 -121z" />
    <glyph glyph-name="arrowup" unicode="&#x2191;" horiz-adv-x="896" 
d="M459 0v754q-28 -58 -83.5 -116.5t-119.5 -79.5l-5 14q66 23 125.5 87.5t85.5 122.5h11q27 -58 86.5 -122.5t125.5 -87.5l-5 -14q-64 20 -119.5 78t-84.5 116v-752h-17z" />
    <glyph glyph-name="arrowright" unicode="&#x2192;" horiz-adv-x="896" 
d="M651 147l-14 5q21 64 80.5 120t117.5 85h-756v15h759q-59 27 -119.5 82.5t-81.5 121.5l14 5q23 -66 87.5 -125.5t122.5 -85.5v-11q-58 -27 -122.5 -86.5t-87.5 -125.5z" />
    <glyph glyph-name="arrowdown" unicode="&#x2193;" horiz-adv-x="896" 
d="M463 -52q-27 58 -86.5 122.5t-125.5 87.5l5 14q64 -21 120 -79t84 -115v752h17v-754q28 58 83 116.5t120 79.5l5 -14q-66 -23 -125.5 -87.5t-85.5 -122.5h-11z" />
    <glyph glyph-name="uni2196" unicode="&#x2196;" horiz-adv-x="896" 
d="M197 366q21 43 25 102.5t-3.5 109t-21.5 85.5l8 8q37 -14 86.5 -21t109 -3t102.5 25l7 -13q-42 -21 -98.5 -26t-103 2t-84.5 20l535 -536l-10 -10l-536 535q13 -38 20 -84.5t2.5 -102.5t-25.5 -98z" />
    <glyph glyph-name="uni2197" unicode="&#x2197;" horiz-adv-x="896" 
d="M207 109l-10 10l535 536q-38 -14 -84.5 -21t-102.5 -2t-98 26l7 13q43 -21 102.5 -25t109 3.5t85.5 21.5l8 -8q-14 -37 -21 -86.5t-3 -109t25 -102.5l-13 -7q-21 42 -26 98.5t2 103t20 84.5z" />
    <glyph glyph-name="uni2198" unicode="&#x2198;" horiz-adv-x="896" 
d="M741 109q-37 14 -86.5 21t-109 3t-102.5 -25l-7 13q42 21 98.5 25.5t103 -2t84.5 -19.5l-535 536l10 10l536 -535q-14 37 -21 84t-2 103t26 98l13 -7q-21 -43 -25 -102.5t3.5 -109t21.5 -85.5z" />
    <glyph glyph-name="uni2199" unicode="&#x2199;" horiz-adv-x="896" 
d="M503 108q-43 21 -102.5 25t-109 -3.5t-85.5 -21.5l-8 8q14 37 21 86.5t3 109t-25 102.5l13 7q21 -42 25.5 -98.5t-2 -103t-19.5 -84.5l536 535l10 -10l-535 -536q38 13 84 20t102.5 2.5t98.5 -25.5z" />
    <glyph glyph-name="partialdiff" unicode="&#x2202;" horiz-adv-x="631" 
d="M297 -10q-120 0 -190 86t-49 206q18 100 99 164t179 64q77 0 136 -47t81 -119q-26 201 -240 386h24q136 -121 193.5 -252.5t35.5 -256.5q-19 -101 -96 -166t-173 -65zM297 5q89 0 162.5 63.5t89.5 155.5q18 103 -45.5 187t-167.5 84q-92 0 -169 -61.5t-93 -154.5
q-19 -109 44.5 -191.5t178.5 -82.5z" />
    <glyph glyph-name="increment" unicode="&#x2206;" horiz-adv-x="897" 
d="M832 0h-852l553 742zM529 711l-517 -696h796z" />
    <glyph glyph-name="product" unicode="&#x220f;" horiz-adv-x="743" 
d="M117 715l3 15h668l-3 -15h-161l-125 -715h-17l125 715h-309l-125 -715h-17l125 715h-164z" />
    <glyph glyph-name="summation" unicode="&#x2211;" horiz-adv-x="600" 
d="M20 0l2 14l340 372l-216 329l2 15h471l-3 -15h-454l220 -331l-339 -369h451l-3 -15h-471z" />
    <glyph glyph-name="minus" unicode="&#x2212;" horiz-adv-x="460" 
d="M55 358l2 16h370l-2 -16h-370z" />
    <glyph glyph-name="radical" unicode="&#x221a;" horiz-adv-x="833" 
d="M300 0l-130 484h-77l4 16h85l130 -483l535 719h20l-548 -736h-19z" />
    <glyph glyph-name="infinity" unicode="&#x221e;" horiz-adv-x="940" 
d="M277 267q-49 0 -83.5 34.5t-34.5 82.5t34.5 82.5t83.5 34.5q32 0 71 -19.5t60.5 -35.5t70.5 -56q46 38 69.5 55.5t62.5 36.5t72 19q48 0 82.5 -34t34.5 -83t-34.5 -83t-82.5 -34q-50 0 -98 26.5t-106 74.5q-60 -49 -106.5 -75t-95.5 -26zM277 283q45 0 88.5 25t100.5 71
q-46 38 -66.5 53.5t-57 33.5t-65.5 18q-40 0 -70.5 -30.5t-30.5 -70.5t30.5 -70t70.5 -30zM683 283q40 0 70 31t29 71q0 40 -29.5 70t-69.5 30q-30 0 -66 -18t-58.5 -35t-66.5 -53q56 -46 101 -71t90 -25z" />
    <glyph glyph-name="integral" unicode="&#x222b;" horiz-adv-x="332" 
d="M-67 -156l3 17h3q70 0 100.5 27.5t44.5 98.5l101 579q18 100 56 132t133 32h5l-3 -16h-3q-88 0 -121.5 -28t-50.5 -121l-101 -578q-15 -86 -50.5 -114.5t-111.5 -28.5h-5z" />
    <glyph glyph-name="approxequal" unicode="&#x2248;" horiz-adv-x="464" 
d="M69 438l3 16q57 25 102 25q31 0 88 -19t82 -19q41 0 101 26l-4 -16q-47 -24 -100 -24q-29 0 -87 19t-83 19q-40 0 -102 -27zM39 271l3 16q59 26 98 26q31 0 90.5 -18.5t84.5 -18.5q41 0 100 24l-4 -16q-43 -22 -98 -22q-29 0 -89.5 18.5t-85.5 18.5q-35 0 -99 -28z" />
    <glyph glyph-name="notequal" unicode="&#x2260;" horiz-adv-x="460" 
d="M68 434l3 16h206l37 67h18l-37 -67h146l-3 -16h-152l-79 -142h206l-3 -16h-212l-38 -70h-18l38 70h-140l3 16h146l79 142h-200z" />
    <glyph glyph-name="equivalence" unicode="&#x2261;" horiz-adv-x="460" 
d="M54 356l3 16h370l-3 -16h-370zM26 198l3 16h370l-3 -16h-370zM82 514l3 16h370l-3 -16h-370z" />
    <glyph glyph-name="lessequal" unicode="&#x2264;" horiz-adv-x="460" 
d="M410 279l-342 151l3 16l395 146l-4 -19l-372 -136l324 -141zM28 206l3 16h370l-3 -16h-370z" />
    <glyph glyph-name="greaterequal" unicode="&#x2265;" horiz-adv-x="460" 
d="M41 279l4 19l372 136l-324 141l4 17l342 -151l-3 -16zM28 206l3 16h370l-3 -16h-370z" />
    <glyph glyph-name="squaremultiply" unicode="&#x22a0;" horiz-adv-x="926" 
d="M120 0v730h726v-730h-726zM137 715v-700h692v700h-692zM261 123l-10 11l225 232l-217 222l10 11l218 -222l214 221l10 -11l-214 -221l223 -226l-10 -11l-223 227z" />
    <glyph glyph-name="house" unicode="&#x2302;" horiz-adv-x="874" 
d="M774 0h-674v427l337 323l337 -323v-427z" />
    <glyph glyph-name="blacksquare" unicode="&#x25a0;" horiz-adv-x="926" 
d="M120 0v730h726v-730h-726z" />
    <glyph glyph-name="blacksquare" unicode="&#xe740;" horiz-adv-x="926" 
d="M120 0v730h726v-730h-726z" />
    <glyph glyph-name="whitesquare" unicode="&#x25a1;" horiz-adv-x="926" 
d="M120 0v730h726v-730h-726zM137 715v-700h692v700h-692z" />
    <glyph glyph-name="blacksmallsquare" unicode="&#x25aa;" horiz-adv-x="700" 
d="M100 0v500h500v-500h-500z" />
    <glyph glyph-name="whitesmallsquare" unicode="&#x25ab;" horiz-adv-x="700" 
d="M100 0v500h500v-500h-500zM117 485v-470h466v470h-466z" />
    <glyph glyph-name="triagup" unicode="&#x25b2;" horiz-adv-x="897" 
d="M847 0h-857l429 742z" />
    <glyph glyph-name="triagrt" unicode="&#x25ba;" horiz-adv-x="897" 
d="M130 -57v857l742 -428z" />
    <glyph glyph-name="triagdn" unicode="&#x25bc;" horiz-adv-x="897" 
d="M100 730h857l-428 -742z" />
    <glyph glyph-name="triaglf" unicode="&#x25c4;" horiz-adv-x="897" 
d="M817 800v-857l-742 429z" />
    <glyph glyph-name="lozenge" unicode="&#x25ca;" horiz-adv-x="843" 
d="M388 -16l-328 394l434 368l328 -394zM83 376l306 -369l411 348l-308 369z" />
    <glyph glyph-name="whitecircle" unicode="&#x25cb;" horiz-adv-x="927" 
d="M484 -10q-155 0 -265 110t-110 265t110 265t265 110t265 -110t110 -265t-110 -265t-265 -110zM484 6q148 0 252.5 105t104.5 254t-104.5 254t-252.5 105t-252.5 -105t-104.5 -254t104.5 -254t252.5 -105z" />
    <glyph glyph-name="whitecircle" unicode="&#x25ef;" horiz-adv-x="927" 
d="M484 -10q-155 0 -265 110t-110 265t110 265t265 110t265 -110t110 -265t-110 -265t-265 -110zM484 6q148 0 252.5 105t104.5 254t-104.5 254t-252.5 105t-252.5 -105t-104.5 -254t104.5 -254t252.5 -105z" />
    <glyph glyph-name="bullseye" unicode="&#x25ce;" horiz-adv-x="927" 
d="M484 -10q-155 0 -265 110t-110 265t110 265t265 110t265 -110t110 -265t-110 -265t-265 -110zM484 6q148 0 252.5 105t104.5 254t-104.5 254t-252.5 105t-252.5 -105t-104.5 -254t104.5 -254t252.5 -105zM485 170q-80 0 -137 57t-57 137t57 137t137 57t137 -57t57 -137
t-57 -137t-137 -57zM485 187q73 0 124.5 51.5t51.5 125.5t-51.5 125.5t-124.5 51.5t-124.5 -51.5t-51.5 -125.5t51.5 -125.5t124.5 -51.5zM485 344q-8 0 -14 6t-6 14t6 14t14 6t14 -6t6 -14t-6 -14t-14 -6z" />
    <glyph glyph-name="blackcircle" unicode="&#x25cf;" horiz-adv-x="927" 
d="M484 -10q-155 0 -265 110t-110 265t110 265t265 110t265 -110t110 -265t-110 -265t-265 -110z" />
    <glyph glyph-name="uni25E2" unicode="&#x25e2;" horiz-adv-x="897" 
d="M923 533l-606 -606l-222 828z" />
    <glyph glyph-name="uni25E3" unicode="&#x25e3;" horiz-adv-x="897" 
d="M685 -73l-606 606l828 222z" />
    <glyph glyph-name="uni25E4" unicode="&#x25e4;" horiz-adv-x="897" 
d="M837 -54l-828 222l606 606z" />
    <glyph glyph-name="uni25E5" unicode="&#x25e5;" horiz-adv-x="897" 
d="M852 163l-828 -221l223 828z" />
    <glyph glyph-name="uni2605" unicode="&#x2605;" horiz-adv-x="900" 
d="M582 303l72 -218l-187 135l-186 -135l72 219l-186 135l229 -1l72 218l71 -218l230 -1z" />
    <glyph glyph-name="ballotboxwithx" unicode="&#x2612;" horiz-adv-x="700" 
d="M100 0v500h500v-500h-500zM117 485v-470h466v470h-466zM211 98l-10 11l137 139l-138 141l10 11l139 -141l138 140l10 -11l-138 -140l137 -138l-10 -11l-137 139z" />
    <glyph glyph-name="uni263C" unicode="&#x263c;" horiz-adv-x="928" 
d="M307 365q0 71 51.5 122.5t122.5 51.5t122.5 -51.5t51.5 -122.5t-51.5 -122.5t-122.5 -51.5t-122.5 51.5t-51.5 122.5zM471 577l-17 142h54l-17 -142h-20zM491 155l17 -142h-54l17 142h20zM270 356l-142 -17v54l142 -17v-20zM692 376l142 17v-54l-142 17v20zM293 464
l-133 55l28 47l115 -87zM669 268l133 -55l-28 -47l-115 87zM368 544l-87 115l47 28l55 -133zM594 188l87 -115l-47 -28l-55 133zM579 554l55 133l47 -28l-87 -115zM383 178l-55 -133l-47 28l87 115zM659 480l113 86l30 -46l-133 -56zM303 252l-113 -86l-30 46l133 56z" />
    <glyph glyph-name="uni263E" unicode="&#x263e;" horiz-adv-x="787" 
d="M554 616q-99 0 -169 -73.5t-70 -177.5t70 -177.5t169 -73.5q32 0 71 12q-81 -57 -178 -57q-122 0 -209 87t-87 209t87 209t209 87q97 0 178 -57q-46 12 -71 12z" />
    <glyph glyph-name="spade" unicode="&#x2660;" horiz-adv-x="920" 
d="M596 0h-259q27 50 39.5 75.5t33.5 92.5t21 122q-21 -59 -64 -97.5t-106 -38.5q-70 0 -120.5 47t-50.5 111q0 82 52 150t183 173l140 112h1l140 -112q128 -103 178 -171t50 -152q0 -64 -46 -110.5t-111 -46.5q-69 0 -114.5 38.5t-66.5 96.5q0 -29 6 -61t13 -55.5t21.5 -56
t21 -45.5t22.5 -42t16 -30z" />
    <glyph glyph-name="club" unicode="&#x2663;" horiz-adv-x="920" 
d="M597 0h-259q80 150 91 248q-22 -53 -66.5 -85.5t-100.5 -32.5q-74 0 -125.5 52t-51.5 125t51.5 125t125.5 52q19 0 42 -7q-19 41 -19 87q0 73 51 124.5t124 51.5t124.5 -51.5t51.5 -124.5q0 -45 -19 -88q22 8 46 8q73 0 124.5 -51.5t51.5 -125.5q0 -73 -51.5 -125
t-125.5 -52q-56 0 -99 32t-64 85q3 -25 10.5 -52t15.5 -48t20 -46.5t19 -39t19 -35.5t14 -26z" />
    <glyph glyph-name="heart" unicode="&#x2665;" horiz-adv-x="920" 
d="M131 550q0 78 53 134t130 56q75 0 126 -45.5t59 -115.5q9 70 59.5 115.5t125.5 45.5q77 0 133 -56.5t56 -133.5q0 -85 -52.5 -177t-179.5 -233l-142 -157l-141 157q-125 139 -176 231.5t-51 178.5z" />
    <glyph glyph-name="diamond" unicode="&#x2666;" horiz-adv-x="920" 
d="M159 390l327 401l327 -401l-327 -400z" />
    <glyph glyph-name="uni267B" unicode="&#x267b;" horiz-adv-x="921" 
d="M841 246l1 -2l-91 -157q-13 -19 -19.5 -27.5t-23 -16.5t-39.5 -8h-54v-47l-106 128l106 127v-46h136q25 0 47.5 12.5t32.5 24.5zM204 111h-2l-90 158q-10 19 -14 29.5t-3 28.5t13 38l27 46l-40 23l164 29l55 -156l-38 23q-66 -113 -68 -118q-12 -21 -13 -46.5t4 -39.5z
M409 728v1h182q22 -1 33.5 -2.5t26.5 -11.5t26 -30l26 -46l41 23l-58 -157l-162 30l38 22l-67 118q-13 22 -34.5 35t-36.5 16zM217 558l63 112q11 18 32 29q43 22 91 9t64 -42l-109 -189zM449 35h-127q-23 0 -42 12q-40 23 -53.5 74t4.5 76h218v-162zM787 491l65 -110
q9 -14 9 -41q1 -45 -35.5 -81.5t-69.5 -36.5l-109 189z" />
    <glyph glyph-name="uni267C" unicode="&#x267c;" horiz-adv-x="921" 
d="M857 366q0 -156 -110 -265.5t-265 -109.5q-157 0 -267 109.5t-110 265.5t110 266.5t267 110.5q155 0 265 -110.5t110 -266.5zM324 606l-49 -86l109 -63l84 146q-12 23 -49.5 33t-70.5 -7q-19 -12 -24 -23zM419 652v-1q46 -4 67 -41l53 -91l-30 -18l126 -23l44 122
l-31 -18l-21 36q-13 22 -27.5 28t-39.5 6h-141zM352 114h99v126h-170q-14 -20 -3 -59.5t42 -57.5q17 -9 32 -9zM263 173h1q-18 41 3 79l53 91l30 -18l-43 121l-127 -22l31 -18l-21 -36q-9 -15 -10 -29.5t2 -21.5t11 -24zM766 383l-49 85l-110 -63l85 -147q26 0 54.5 28.5
t27.5 64.5q0 18 -8 32zM759 276l-1 1q-26 -37 -70 -37h-105v35l-83 -98l83 -99v36h41q26 0 39 9.5t25 30.5z" />
    <glyph glyph-name="uni267D" unicode="&#x267d;" horiz-adv-x="921" 
d="M857 366q0 -156 -110 -265.5t-265 -109.5q-157 0 -267 109.5t-110 265.5t110 266.5t267 110.5q155 0 265 -110.5t110 -266.5zM838 366q0 149 -104 253.5t-252 104.5q-149 0 -254 -104.5t-105 -253.5q0 -148 105 -252.5t254 -104.5q148 0 252 104.5t104 252.5zM275 520
l49 86q5 11 24 23q33 17 70.5 7t49.5 -33l-84 -146zM419 651v1h141q25 0 39.5 -6t27.5 -28l21 -36l31 18l-44 -122l-126 23l30 18l-53 91q-9 16 -26 26.5t-29 12.5zM451 114h-99q-16 0 -32 9q-31 18 -42 57.5t3 59.5h170v-126zM264 173h-1l-70 122q-8 17 -11 24t-2 21.5
t10 29.5l21 36l-31 18l127 22l43 -121l-30 18l-53 -91q-9 -17 -10 -36.5t3 -31.5zM717 468l49 -85q8 -14 8 -32q1 -36 -27.5 -64.5t-54.5 -28.5l-85 147zM758 277l1 -1l-71 -122q-8 -14 -14 -21t-19 -13t-31 -6h-41v-36l-83 99l83 98v-35h105q20 0 37.5 9t24.5 19z" />
    <glyph glyph-name="mediumwhitecircle" unicode="&#x26aa;" horiz-adv-x="698" 
d="M349 -10q-108 0 -184 76t-76 184t76 184t184 76t184 -76t76 -184t-76 -184t-184 -76zM349 6q101 0 171.5 71.5t70.5 172.5t-70.5 172.5t-171.5 71.5t-172 -71.5t-71 -172.5t71 -172.5t172 -71.5z" />
    <glyph glyph-name="mediumblackcircle" unicode="&#x26ab;" horiz-adv-x="698" 
d="M349 -10q-108 0 -183.5 76t-75.5 184t75.5 184t183.5 76t183.5 -76t75.5 -184t-75.5 -184t-183.5 -76z" />
    <glyph glyph-name="anglebracketleft" unicode="&#x3008;" horiz-adv-x="390" 
d="M218 -230l-157 479l325 481h19l-327 -483l156 -477h-16z" />
    <glyph glyph-name="anglebracketright" unicode="&#x3009;" horiz-adv-x="390" 
d="M-25 -230l326 483l-155 477h16l157 -479l-325 -481h-19z" />
    <glyph glyph-name="cordinal" unicode="&#xe181;" horiz-adv-x="415" 
d="M260 435q-70 0 -110.5 49.5t-28.5 118.5q10 59 54.5 96t101.5 37q48 0 82.5 -26t49.5 -67l-16 -5q-12 37 -43 60.5t-74 23.5q-52 0 -91 -34.5t-49 -87.5q-10 -61 25.5 -105.5t98.5 -44.5q39 0 73 21.5t52 57.5l15 -6q-20 -40 -58 -64t-82 -24z" />
    <glyph glyph-name="p.smcp" unicode="&#xe200;" horiz-adv-x="516" 
d="M31 0l105 596h152q98 0 156.5 -60.5t42.5 -153.5q-14 -81 -77 -130.5t-159 -49.5h-169l-35 -202h-16zM286 582h-137l-64 -366h166q87 0 147 46.5t73 121.5q14 87 -39 142.5t-146 55.5z" />
    <glyph glyph-name="p.smcp" unicode="&#xf770;" horiz-adv-x="516" 
d="M31 0l105 596h152q98 0 156.5 -60.5t42.5 -153.5q-14 -81 -77 -130.5t-159 -49.5h-169l-35 -202h-16zM286 582h-137l-64 -366h166q87 0 147 46.5t73 121.5q14 87 -39 142.5t-146 55.5z" />
    <glyph glyph-name="a.smcp" unicode="&#xe201;" horiz-adv-x="566" 
d="M-5 0l340 596h16l132 -596h-16l-42 188h-305l-107 -188h-18zM340 575l-212 -373h294z" />
    <glyph glyph-name="a.smcp" unicode="&#xf761;" horiz-adv-x="566" 
d="M-5 0l340 596h16l132 -596h-16l-42 188h-305l-107 -188h-18zM340 575l-212 -373h294z" />
    <glyph glyph-name="b.smcp" unicode="&#xe202;" horiz-adv-x="546" 
d="M33 0l105 596h224q66 0 108.5 -43.5t37.5 -105.5q-5 -51 -39 -90t-84 -51q48 -17 75.5 -62.5t17.5 -97.5q-11 -63 -61.5 -104.5t-117.5 -41.5h-266zM339 301h-237l-51 -287h249q61 0 106 38.5t55 96.5q11 61 -27 106.5t-95 45.5zM361 582h-210l-47 -267h243q56 0 98 39
t47 94q5 56 -33 95t-98 39z" />
    <glyph glyph-name="b.smcp" unicode="&#xf762;" horiz-adv-x="546" 
d="M33 0l105 596h224q66 0 108.5 -43.5t37.5 -105.5q-5 -51 -39 -90t-84 -51q48 -17 75.5 -62.5t17.5 -97.5q-11 -63 -61.5 -104.5t-117.5 -41.5h-266zM339 301h-237l-51 -287h249q61 0 106 38.5t55 96.5q11 61 -27 106.5t-95 45.5zM361 582h-210l-47 -267h243q56 0 98 39
t47 94q5 56 -33 95t-98 39z" />
    <glyph glyph-name="c.smcp" unicode="&#xe203;" horiz-adv-x="665" 
d="M345 -10q-96 0 -166 49.5t-98.5 128.5t-11.5 167q21 117 117 194t212 77q170 0 245 -139l-15 -8q-67 132 -231 132q-110 0 -201.5 -74t-111.5 -186q-15 -82 12 -156.5t93 -122t158 -47.5q73 0 136 33t105 92l14 -8q-44 -63 -111 -97.5t-146 -34.5z" />
    <glyph glyph-name="c.smcp" unicode="&#xf763;" horiz-adv-x="665" 
d="M345 -10q-96 0 -166 49.5t-98.5 128.5t-11.5 167q21 117 117 194t212 77q170 0 245 -139l-15 -8q-67 132 -231 132q-110 0 -201.5 -74t-111.5 -186q-15 -82 12 -156.5t93 -122t158 -47.5q73 0 136 33t105 92l14 -8q-44 -63 -111 -97.5t-146 -34.5z" />
    <glyph glyph-name="d.smcp" unicode="&#xe204;" horiz-adv-x="590" 
d="M33 0l105 596h139q130 0 208 -96t55 -227q-21 -126 -112.5 -199.5t-215.5 -73.5h-179zM272 582h-121l-100 -568h162q116 0 203 71t109 192q22 124 -53 214.5t-200 90.5z" />
    <glyph glyph-name="d.smcp" unicode="&#xf764;" horiz-adv-x="590" 
d="M33 0l105 596h139q130 0 208 -96t55 -227q-21 -126 -112.5 -199.5t-215.5 -73.5h-179zM272 582h-121l-100 -568h162q116 0 203 71t109 192q22 124 -53 214.5t-200 90.5z" />
    <glyph glyph-name="e.smcp" unicode="&#xe205;" horiz-adv-x="505" 
d="M33 0l105 596h370l-3 -14h-354l-47 -271h354l-3 -14h-354l-50 -283h354l-2 -14h-370z" />
    <glyph glyph-name="e.smcp" unicode="&#xf765;" horiz-adv-x="505" 
d="M33 0l105 596h370l-3 -14h-354l-47 -271h354l-3 -14h-354l-50 -283h354l-2 -14h-370z" />
    <glyph glyph-name="f.smcp" unicode="&#xe206;" horiz-adv-x="467" 
d="M33 0l105 596h337l-3 -14h-321l-48 -278h321l-3 -14h-321l-50 -290h-17z" />
    <glyph glyph-name="f.smcp" unicode="&#xf766;" horiz-adv-x="467" 
d="M33 0l105 596h337l-3 -14h-321l-48 -278h321l-3 -14h-321l-50 -290h-17z" />
    <glyph glyph-name="g.smcp" unicode="&#xe207;" horiz-adv-x="712" 
d="M352 -10q-143 0 -226 101.5t-57 243.5q21 118 112.5 194.5t208.5 76.5q83 0 148 -38.5t105 -106.5l-14 -8q-80 138 -241 138q-110 0 -197 -73.5t-107 -186.5q-15 -83 13 -157.5t95.5 -121.5t160.5 -47q121 0 205 82t95 200h-295l3 14h309v-1q-8 -130 -96 -220t-222 -90z
" />
    <glyph glyph-name="g.smcp" unicode="&#xf767;" horiz-adv-x="712" 
d="M352 -10q-143 0 -226 101.5t-57 243.5q21 118 112.5 194.5t208.5 76.5q83 0 148 -38.5t105 -106.5l-14 -8q-80 138 -241 138q-110 0 -197 -73.5t-107 -186.5q-15 -83 13 -157.5t95.5 -121.5t160.5 -47q121 0 205 82t95 200h-295l3 14h309v-1q-8 -130 -96 -220t-222 -90z
" />
    <glyph glyph-name="h.smcp" unicode="&#xe208;" horiz-adv-x="557" 
d="M33 0l105 596h16l-52 -292h371l52 292h16l-105 -596h-16l51 290h-371l-51 -290h-16z" />
    <glyph glyph-name="h.smcp" unicode="&#xf768;" horiz-adv-x="557" 
d="M33 0l105 596h16l-52 -292h371l52 292h16l-105 -596h-16l51 290h-371l-51 -290h-16z" />
    <glyph glyph-name="i.smcp" unicode="&#xe209;" horiz-adv-x="180" 
d="M38 0l105 596h16l-105 -596h-16z" />
    <glyph glyph-name="i.smcp" unicode="&#xf769;" horiz-adv-x="180" 
d="M38 0l105 596h16l-105 -596h-16z" />
    <glyph glyph-name="j.smcp" unicode="&#xe20a;" horiz-adv-x="416" 
d="M159 -8q-54 0 -91.5 24t-52.5 62l14 7q31 -78 131 -78q59 0 96 37.5t48 98.5l80 453h16l-80 -453q-27 -151 -161 -151z" />
    <glyph glyph-name="j.smcp" unicode="&#xf76a;" horiz-adv-x="416" 
d="M159 -8q-54 0 -91.5 24t-52.5 62l14 7q31 -78 131 -78q59 0 96 37.5t48 98.5l80 453h16l-80 -453q-27 -151 -161 -151z" />
    <glyph glyph-name="k.smcp" unicode="&#xe20b;" horiz-adv-x="560" 
d="M454 0l-182 341l-193 -178l-29 -163h-16l105 596h16l-72 -410l442 410h23l-263 -244l188 -352h-19z" />
    <glyph glyph-name="k.smcp" unicode="&#xf76b;" horiz-adv-x="560" 
d="M454 0l-182 341l-193 -178l-29 -163h-16l105 596h16l-72 -410l442 410h23l-263 -244l188 -352h-19z" />
    <glyph glyph-name="l.smcp" unicode="&#xe20c;" horiz-adv-x="458" 
d="M33 0l105 596h16l-103 -581h315l-2 -15h-331z" />
    <glyph glyph-name="l.smcp" unicode="&#xf76c;" horiz-adv-x="458" 
d="M33 0l105 596h16l-103 -581h315l-2 -15h-331z" />
    <glyph glyph-name="m.smcp" unicode="&#xe20d;" horiz-adv-x="737" 
d="M33 0l105 596h15l201 -375l353 375h14l-105 -596h-16l99 566l-348 -373l-202 377l-100 -570h-16z" />
    <glyph glyph-name="m.smcp" unicode="&#xf76d;" horiz-adv-x="737" 
d="M33 0l105 596h15l201 -375l353 375h14l-105 -596h-16l99 566l-348 -373l-202 377l-100 -570h-16z" />
    <glyph glyph-name="n.smcp" unicode="&#xe20e;" horiz-adv-x="604" 
d="M33 0l105 596h15l319 -570l100 570h16l-105 -596h-13l-321 569l-99 -569h-17z" />
    <glyph glyph-name="n.smcp" unicode="&#xf76e;" horiz-adv-x="604" 
d="M33 0l105 596h15l319 -570l100 570h16l-105 -596h-13l-321 569l-99 -569h-17z" />
    <glyph glyph-name="o.smcp" unicode="&#xe20f;" horiz-adv-x="718" 
d="M348 -10q-141 0 -223 102t-56 243q21 118 113 194.5t206 76.5q73 0 132 -31t94 -81t49 -112.5t2 -125.5q-21 -118 -111.5 -192t-205.5 -74zM349 5q108 0 194.5 72t106.5 183q15 81 -11.5 156t-93 125t-158.5 50q-108 0 -195.5 -74t-107.5 -186q-22 -134 55 -230t210 -96z
" />
    <glyph glyph-name="o.smcp" unicode="&#xf76f;" horiz-adv-x="718" 
d="M348 -10q-141 0 -223 102t-56 243q21 118 113 194.5t206 76.5q73 0 132 -31t94 -81t49 -112.5t2 -125.5q-21 -118 -111.5 -192t-205.5 -74zM349 5q108 0 194.5 72t106.5 183q15 81 -11.5 156t-93 125t-158.5 50q-108 0 -195.5 -74t-107.5 -186q-22 -134 55 -230t210 -96z
" />
    <glyph glyph-name="q.smcp" unicode="&#xe211;" horiz-adv-x="719" 
d="M349 -10q-141 0 -223 102t-56 243q21 118 113 194.5t206 76.5q73 0 132 -31t94 -81t49 -112.5t2 -125.5q-24 -133 -132 -207q34 -34 79 -34h14l-2 -15h-13q-36 0 -63 17.5t-44 42t-32.5 49.5t-38.5 42.5t-53 17.5h-16l2 14h16q27 0 49.5 -13t34 -28.5t29.5 -42t28 -38.5
q103 72 127 199q15 81 -11.5 156t-93 125t-158.5 50q-108 0 -195.5 -74t-107.5 -186q-22 -134 55 -230t210 -96q64 0 127 29l10 -12q-67 -32 -138 -32z" />
    <glyph glyph-name="q.smcp" unicode="&#xf771;" horiz-adv-x="719" 
d="M349 -10q-141 0 -223 102t-56 243q21 118 113 194.5t206 76.5q73 0 132 -31t94 -81t49 -112.5t2 -125.5q-24 -133 -132 -207q34 -34 79 -34h14l-2 -15h-13q-36 0 -63 17.5t-44 42t-32.5 49.5t-38.5 42.5t-53 17.5h-16l2 14h16q27 0 49.5 -13t34 -28.5t29.5 -42t28 -38.5
q103 72 127 199q15 81 -11.5 156t-93 125t-158.5 50q-108 0 -195.5 -74t-107.5 -186q-22 -134 55 -230t210 -96q64 0 127 29l10 -12q-67 -32 -138 -32z" />
    <glyph glyph-name="r.smcp" unicode="&#xe212;" horiz-adv-x="513" 
d="M33 0l105 596h165q81 0 133.5 -58.5t38.5 -140.5q-12 -70 -64 -116t-126 -46h-43q3 -81 48.5 -150.5t117.5 -69.5h14l-3 -15h-13q-80 0 -130 79t-50 172h59q68 0 115.5 42.5t58.5 105.5q13 75 -34 128t-124 55h-150l-102 -582h-16z" />
    <glyph glyph-name="r.smcp" unicode="&#xf772;" horiz-adv-x="513" 
d="M33 0l105 596h165q81 0 133.5 -58.5t38.5 -140.5q-12 -70 -64 -116t-126 -46h-43q3 -81 48.5 -150.5t117.5 -69.5h14l-3 -15h-13q-80 0 -130 79t-50 172h59q68 0 115.5 42.5t58.5 105.5q13 75 -34 128t-124 55h-150l-102 -582h-16z" />
    <glyph glyph-name="s.smcp" unicode="&#xe213;" horiz-adv-x="457" 
d="M199 -8q-117 0 -181 99l16 9q56 -93 168 -93q64 0 109.5 34t55.5 87q12 64 -23 103.5t-107 74.5q-27 13 -44.5 22.5t-40 26.5t-34.5 34.5t-18.5 42.5t-1.5 53q8 52 53 85.5t112 33.5q112 0 166 -87l-13 -8q-52 81 -154 81q-60 0 -100 -29.5t-48 -77.5q-5 -26 1.5 -49
t17.5 -38t33 -31t36 -23.5t39 -19.5q35 -18 58 -32.5t47.5 -38t34 -54.5t2.5 -69q-11 -62 -61.5 -99t-122.5 -37z" />
    <glyph glyph-name="s.smcp" unicode="&#xf773;" horiz-adv-x="457" 
d="M199 -8q-117 0 -181 99l16 9q56 -93 168 -93q64 0 109.5 34t55.5 87q12 64 -23 103.5t-107 74.5q-27 13 -44.5 22.5t-40 26.5t-34.5 34.5t-18.5 42.5t-1.5 53q8 52 53 85.5t112 33.5q112 0 166 -87l-13 -8q-52 81 -154 81q-60 0 -100 -29.5t-48 -77.5q-5 -26 1.5 -49
t17.5 -38t33 -31t36 -23.5t39 -19.5q35 -18 58 -32.5t47.5 -38t34 -54.5t2.5 -69q-11 -62 -61.5 -99t-122.5 -37z" />
    <glyph glyph-name="t.smcp" unicode="&#xe214;" horiz-adv-x="514" 
d="M108 582l3 14h414l-3 -14h-199l-102 -582h-16l102 582h-199z" />
    <glyph glyph-name="t.smcp" unicode="&#xf774;" horiz-adv-x="514" 
d="M108 582l3 14h414l-3 -14h-199l-102 -582h-16l102 582h-199z" />
    <glyph glyph-name="u.smcp" unicode="&#xe215;" horiz-adv-x="560" 
d="M259 -8q-103 0 -154.5 61.5t-34.5 158.5l68 384h17l-68 -381q-17 -94 29 -151t143 -57q75 0 128 45.5t66 117.5l75 426h16l-76 -431q-13 -76 -69 -124.5t-140 -48.5z" />
    <glyph glyph-name="u.smcp" unicode="&#xf775;" horiz-adv-x="560" 
d="M259 -8q-103 0 -154.5 61.5t-34.5 158.5l68 384h17l-68 -381q-17 -94 29 -151t143 -57q75 0 128 45.5t66 117.5l75 426h16l-76 -431q-13 -76 -69 -124.5t-140 -48.5z" />
    <glyph glyph-name="v.smcp" unicode="&#xe216;" horiz-adv-x="565" 
d="M231 0l-130 596h16l125 -571l326 571h18l-340 -596h-15z" />
    <glyph glyph-name="v.smcp" unicode="&#xf776;" horiz-adv-x="565" 
d="M231 0l-130 596h16l125 -571l326 571h18l-340 -596h-15z" />
    <glyph glyph-name="w.smcp" unicode="&#xe217;" horiz-adv-x="880" 
d="M177 0l-73 596h15l71 -572l302 572h13l104 -572l272 572h17l-283 -596h-17l-104 568l-299 -568h-18z" />
    <glyph glyph-name="w.smcp" unicode="&#xf777;" horiz-adv-x="880" 
d="M177 0l-73 596h15l71 -572l302 572h13l104 -572l272 572h17l-283 -596h-17l-104 568l-299 -568h-18z" />
    <glyph glyph-name="x.smcp" unicode="&#xe218;" horiz-adv-x="547" 
d="M443 0l-160 299l-264 -299h-21l278 313l-152 283h17l146 -273l240 273h19l-252 -286l167 -310h-18z" />
    <glyph glyph-name="x.smcp" unicode="&#xf778;" horiz-adv-x="547" 
d="M443 0l-160 299l-264 -299h-21l278 313l-152 283h17l146 -273l240 273h19l-252 -286l167 -310h-18z" />
    <glyph glyph-name="y.smcp" unicode="&#xe219;" horiz-adv-x="516" 
d="M206 0l50 285l-150 311h18l141 -295l246 295h20l-259 -312l-50 -284h-16z" />
    <glyph glyph-name="y.smcp" unicode="&#xf779;" horiz-adv-x="516" 
d="M206 0l50 285l-150 311h18l141 -295l246 295h20l-259 -312l-50 -284h-16z" />
    <glyph glyph-name="z.smcp" unicode="&#xe21a;" horiz-adv-x="496" 
d="M9 0l3 15l466 567h-359l2 14h380l-4 -15l-466 -567h371l-2 -14h-391z" />
    <glyph glyph-name="z.smcp" unicode="&#xf77a;" horiz-adv-x="496" 
d="M9 0l3 15l466 567h-359l2 14h380l-4 -15l-466 -567h371l-2 -14h-391z" />
    <glyph glyph-name="anocross.smcp" unicode="&#xe220;" horiz-adv-x="566" 
d="M-5 0l340 596h16l132 -596h-16l-127 575l-327 -575h-18z" />
    <glyph glyph-name="aacute.smcp" unicode="&#xe221;" horiz-adv-x="566" 
d="M-5 0l340 596h16l132 -596h-16l-42 188h-305l-107 -188h-18zM340 575l-212 -373h294zM348 676l149 140h25l-154 -140h-20z" />
    <glyph glyph-name="aacute.smcp" unicode="&#xf7e1;" horiz-adv-x="566" 
d="M-5 0l340 596h16l132 -596h-16l-42 188h-305l-107 -188h-18zM340 575l-212 -373h294zM348 676l149 140h25l-154 -140h-20z" />
    <glyph glyph-name="agrave.smcp" unicode="&#xe222;" horiz-adv-x="566" 
d="M-5 0l340 596h16l132 -596h-16l-42 188h-305l-107 -188h-18zM340 575l-212 -373h294zM342 676l-106 140h23l99 -140h-16z" />
    <glyph glyph-name="agrave.smcp" unicode="&#xf7e0;" horiz-adv-x="566" 
d="M-5 0l340 596h16l132 -596h-16l-42 188h-305l-107 -188h-18zM340 575l-212 -373h294zM342 676l-106 140h23l99 -140h-16z" />
    <glyph glyph-name="acircumflex.smcp" unicode="&#xe223;" horiz-adv-x="566" 
d="M-5 0l340 596h16l132 -596h-16l-42 188h-305l-107 -188h-18zM340 575l-212 -373h294zM225 667l143 140h15l95 -140h-19l-85 125l-127 -125h-22z" />
    <glyph glyph-name="acircumflex.smcp" unicode="&#xf7e2;" horiz-adv-x="566" 
d="M-5 0l340 596h16l132 -596h-16l-42 188h-305l-107 -188h-18zM340 575l-212 -373h294zM225 667l143 140h15l95 -140h-19l-85 125l-127 -125h-22z" />
    <glyph glyph-name="adieresis.smcp" unicode="&#xe224;" horiz-adv-x="566" 
d="M-5 0l340 596h16l132 -596h-16l-42 188h-305l-107 -188h-18zM340 575l-212 -373h294zM390 676l24 140h15l-24 -140h-15zM307 676l24 140h15l-24 -140h-15z" />
    <glyph glyph-name="adieresis.smcp" unicode="&#xf7e4;" horiz-adv-x="566" 
d="M-5 0l340 596h16l132 -596h-16l-42 188h-305l-107 -188h-18zM340 575l-212 -373h294zM390 676l24 140h15l-24 -140h-15zM307 676l24 140h15l-24 -140h-15z" />
    <glyph glyph-name="atilde.smcp" unicode="&#xe225;" horiz-adv-x="566" 
d="M-5 0l340 596h16l132 -596h-16l-42 188h-305l-107 -188h-18zM340 575l-212 -373h294zM185 674q7 36 32.5 60t58.5 24q36 0 94 -37q2 -1 10.5 -6.5t11.5 -7.5t10 -6t11 -5.5t11 -4.5t12 -4t11.5 -2t13.5 -1q62 0 76 71h16q-7 -40 -32.5 -62.5t-60.5 -22.5q-38 0 -99 38
q-56 36 -87 36q-26 0 -46.5 -19t-26.5 -51h-16z" />
    <glyph glyph-name="atilde.smcp" unicode="&#xf7e3;" horiz-adv-x="566" 
d="M-5 0l340 596h16l132 -596h-16l-42 188h-305l-107 -188h-18zM340 575l-212 -373h294zM185 674q7 36 32.5 60t58.5 24q36 0 94 -37q2 -1 10.5 -6.5t11.5 -7.5t10 -6t11 -5.5t11 -4.5t12 -4t11.5 -2t13.5 -1q62 0 76 71h16q-7 -40 -32.5 -62.5t-60.5 -22.5q-38 0 -99 38
q-56 36 -87 36q-26 0 -46.5 -19t-26.5 -51h-16z" />
    <glyph glyph-name="aring.smcp" unicode="&#xe226;" horiz-adv-x="566" 
d="M-5 0l332 582q-30 6 -47 32t-11 60q6 32 31.5 53.5t57.5 21.5q39 0 61 -28.5t16 -62.5q-6 -30 -28.5 -51.5t-52.5 -25.5l129 -581h-16l-42 188h-305l-107 -188h-18zM340 574l-212 -372h294zM346 596q27 0 48 19t26 45q5 29 -12.5 51.5t-50.5 22.5q-26 0 -47.5 -18
t-25.5 -45q-5 -30 12.5 -52.5t49.5 -22.5z" />
    <glyph glyph-name="aring.smcp" unicode="&#xf7e5;" horiz-adv-x="566" 
d="M-5 0l332 582q-30 6 -47 32t-11 60q6 32 31.5 53.5t57.5 21.5q39 0 61 -28.5t16 -62.5q-6 -30 -28.5 -51.5t-52.5 -25.5l129 -581h-16l-42 188h-305l-107 -188h-18zM340 574l-212 -372h294zM346 596q27 0 48 19t26 45q5 29 -12.5 51.5t-50.5 22.5q-26 0 -47.5 -18
t-25.5 -45q-5 -30 12.5 -52.5t49.5 -22.5z" />
    <glyph glyph-name="amacron.smcp" unicode="&#xe228;" horiz-adv-x="566" 
d="M-5 0l340 596h16l132 -596h-16l-42 188h-305l-107 -188h-18zM340 575l-212 -373h294zM226 676l3 15h264l-3 -15h-264z" />
    <glyph glyph-name="amacron.smcp" unicode="&#xf641;" horiz-adv-x="566" 
d="M-5 0l340 596h16l132 -596h-16l-42 188h-305l-107 -188h-18zM340 575l-212 -373h294zM226 676l3 15h264l-3 -15h-264z" />
    <glyph glyph-name="abreve.smcp" unicode="&#xe229;" horiz-adv-x="566" 
d="M-5 0l340 596h16l132 -596h-16l-42 188h-305l-107 -188h-18zM340 575l-212 -373h294zM362 668q-70 0 -110 45t-30 100h16q-9 -49 26 -89.5t101 -40.5q68 0 111 39t52 91h17q-11 -59 -57.5 -102t-125.5 -43z" />
    <glyph glyph-name="abreve.smcp" unicode="&#xf640;" horiz-adv-x="566" 
d="M-5 0l340 596h16l132 -596h-16l-42 188h-305l-107 -188h-18zM340 575l-212 -373h294zM362 668q-70 0 -110 45t-30 100h16q-9 -49 26 -89.5t101 -40.5q68 0 111 39t52 91h17q-11 -59 -57.5 -102t-125.5 -43z" />
    <glyph glyph-name="aringacute.smcp" unicode="&#xe22d;" 
d="M7 0l332 582q-31 5 -48.5 31t-11.5 61q6 32 31.5 53.5t57.5 21.5q39 0 61 -28.5t16 -62.5q-6 -29 -28 -50.5t-51 -25.5l129 -582h-16l-42 188h-305l-107 -188h-18zM352 575l-212 -373h294zM356 596h5q25 2 44.5 20.5t24.5 43.5q5 29 -12.5 51.5t-50.5 22.5
q-26 0 -47.5 -18t-25.5 -45q-5 -30 12.5 -52.5t49.5 -22.5zM370 793l149 140h25l-154 -140h-20z" />
    <glyph glyph-name="aringacute.smcp" unicode="&#xf625;" 
d="M7 0l332 582q-31 5 -48.5 31t-11.5 61q6 32 31.5 53.5t57.5 21.5q39 0 61 -28.5t16 -62.5q-6 -29 -28 -50.5t-51 -25.5l129 -582h-16l-42 188h-305l-107 -188h-18zM352 575l-212 -373h294zM356 596h5q25 2 44.5 20.5t24.5 43.5q5 29 -12.5 51.5t-50.5 22.5
q-26 0 -47.5 -18t-25.5 -45q-5 -30 12.5 -52.5t49.5 -22.5zM370 793l149 140h25l-154 -140h-20z" />
    <glyph glyph-name="aogonek.smcp" unicode="&#xe22f;" horiz-adv-x="566" 
d="M426 -194q-45 0 -73 27.5t-21 65.5q7 33 37.5 58t95.5 51l-40 180h-305l-107 -188h-18l340 596h16l132 -596q-125 -49 -135 -104q-5 -31 18 -53.5t63 -22.5q67 0 124 47l12 -10q-62 -51 -139 -51zM340 575l-212 -373h294z" />
    <glyph glyph-name="aogonek.smcp" unicode="&#xf642;" horiz-adv-x="566" 
d="M426 -194q-45 0 -73 27.5t-21 65.5q7 33 37.5 58t95.5 51l-40 180h-305l-107 -188h-18l340 596h16l132 -596q-125 -49 -135 -104q-5 -31 18 -53.5t63 -22.5q67 0 124 47l12 -10q-62 -51 -139 -51zM340 575l-212 -373h294z" />
    <glyph glyph-name="edieresis.smcp" unicode="&#xe230;" horiz-adv-x="505" 
d="M33 0l105 596h370l-3 -14h-354l-47 -271h354l-3 -14h-354l-50 -283h354l-2 -14h-370zM372 676l24 140h15l-24 -140h-15zM289 676l24 140h15l-24 -140h-15z" />
    <glyph glyph-name="edieresis.smcp" unicode="&#xf7eb;" horiz-adv-x="505" 
d="M33 0l105 596h370l-3 -14h-354l-47 -271h354l-3 -14h-354l-50 -283h354l-2 -14h-370zM372 676l24 140h15l-24 -140h-15zM289 676l24 140h15l-24 -140h-15z" />
    <glyph glyph-name="ae.smcp" unicode="&#xe231;" horiz-adv-x="879" 
d="M14 0l400 596h455l-3 -14h-433l28 -271h358l-3 -14h-353l30 -283h273l-2 -14h-284l-20 190h-300l-127 -190h-19zM419 577l-250 -373h289z" />
    <glyph glyph-name="ae.smcp" unicode="&#xf7e6;" horiz-adv-x="879" 
d="M14 0l400 596h455l-3 -14h-433l28 -271h358l-3 -14h-353l30 -283h273l-2 -14h-284l-20 190h-300l-127 -190h-19zM419 577l-250 -373h289z" />
    <glyph glyph-name="aeacute.smcp" unicode="&#xe232;" horiz-adv-x="879" 
d="M14 0l400 596h455l-3 -14h-433l28 -271h358l-3 -14h-353l30 -283h273l-2 -14h-284l-20 190h-300l-127 -190h-19zM419 577l-250 -373h289zM587 676l149 140h25l-154 -140h-20z" />
    <glyph glyph-name="aeacute.smcp" unicode="&#xf624;" horiz-adv-x="879" 
d="M14 0l400 596h455l-3 -14h-433l28 -271h358l-3 -14h-353l30 -283h273l-2 -14h-284l-20 190h-300l-127 -190h-19zM419 577l-250 -373h289zM587 676l149 140h25l-154 -140h-20z" />
    <glyph glyph-name="cacute.smcp" unicode="&#xe234;" horiz-adv-x="665" 
d="M345 -10q-96 0 -166 49.5t-98.5 128.5t-11.5 167q21 117 117 194t212 77q170 0 245 -139l-15 -8q-67 132 -231 132q-110 0 -201.5 -74t-111.5 -186q-15 -82 12 -156.5t93 -122t158 -47.5q73 0 136 33t105 92l14 -8q-44 -63 -111 -97.5t-146 -34.5zM403 676l149 140h25
l-154 -140h-20z" />
    <glyph glyph-name="cacute.smcp" unicode="&#xf643;" horiz-adv-x="665" 
d="M345 -10q-96 0 -166 49.5t-98.5 128.5t-11.5 167q21 117 117 194t212 77q170 0 245 -139l-15 -8q-67 132 -231 132q-110 0 -201.5 -74t-111.5 -186q-15 -82 12 -156.5t93 -122t158 -47.5q73 0 136 33t105 92l14 -8q-44 -63 -111 -97.5t-146 -34.5zM403 676l149 140h25
l-154 -140h-20z" />
    <glyph glyph-name="ccircumflex.smcp" unicode="&#xe235;" horiz-adv-x="665" 
d="M345 -10q-96 0 -166 49.5t-98.5 128.5t-11.5 167q21 117 117 194t212 77q170 0 245 -139l-15 -8q-67 132 -231 132q-110 0 -201.5 -74t-111.5 -186q-15 -82 12 -156.5t93 -122t158 -47.5q73 0 136 33t105 92l14 -8q-44 -63 -111 -97.5t-146 -34.5zM288 674l143 140h15
l95 -140h-19l-85 125l-127 -125h-22z" />
    <glyph glyph-name="ccircumflex.smcp" unicode="&#xf628;" horiz-adv-x="665" 
d="M345 -10q-96 0 -166 49.5t-98.5 128.5t-11.5 167q21 117 117 194t212 77q170 0 245 -139l-15 -8q-67 132 -231 132q-110 0 -201.5 -74t-111.5 -186q-15 -82 12 -156.5t93 -122t158 -47.5q73 0 136 33t105 92l14 -8q-44 -63 -111 -97.5t-146 -34.5zM288 674l143 140h15
l95 -140h-19l-85 125l-127 -125h-22z" />
    <glyph glyph-name="ccaron.smcp" unicode="&#xe236;" horiz-adv-x="665" 
d="M345 -10q-96 0 -166 49.5t-98.5 128.5t-11.5 167q21 117 117 194t212 77q170 0 245 -139l-15 -8q-67 132 -231 132q-110 0 -201.5 -74t-111.5 -186q-15 -82 12 -156.5t93 -122t158 -47.5q73 0 136 33t105 92l14 -8q-44 -63 -111 -97.5t-146 -34.5zM405 676l-95 140h19
l84 -125l128 125h22l-143 -140h-15z" />
    <glyph glyph-name="ccaron.smcp" unicode="&#xf644;" horiz-adv-x="665" 
d="M345 -10q-96 0 -166 49.5t-98.5 128.5t-11.5 167q21 117 117 194t212 77q170 0 245 -139l-15 -8q-67 132 -231 132q-110 0 -201.5 -74t-111.5 -186q-15 -82 12 -156.5t93 -122t158 -47.5q73 0 136 33t105 92l14 -8q-44 -63 -111 -97.5t-146 -34.5zM405 676l-95 140h19
l84 -125l128 125h22l-143 -140h-15z" />
    <glyph glyph-name="cdotaccent.smcp" unicode="&#xe237;" horiz-adv-x="665" 
d="M345 -10q-96 0 -166 49.5t-98.5 128.5t-11.5 167q21 117 117 194t212 77q170 0 245 -139l-15 -8q-67 132 -231 132q-110 0 -201.5 -74t-111.5 -186q-15 -82 12 -156.5t93 -122t158 -47.5q73 0 136 33t105 92l14 -8q-44 -63 -111 -97.5t-146 -34.5zM404 676l24 140h17
l-24 -140h-17z" />
    <glyph glyph-name="cdotaccent.smcp" unicode="&#xf629;" horiz-adv-x="665" 
d="M345 -10q-96 0 -166 49.5t-98.5 128.5t-11.5 167q21 117 117 194t212 77q170 0 245 -139l-15 -8q-67 132 -231 132q-110 0 -201.5 -74t-111.5 -186q-15 -82 12 -156.5t93 -122t158 -47.5q73 0 136 33t105 92l14 -8q-44 -63 -111 -97.5t-146 -34.5zM404 676l24 140h17
l-24 -140h-17z" />
    <glyph glyph-name="ccedilla.smcp" unicode="&#xe238;" horiz-adv-x="665" 
d="M300 -221q-75 0 -123 50l14 10q41 -46 111 -46q44 0 75 17.5t36 46.5q5 31 -21.5 49t-78.5 18h-16l13 68q-86 9 -147 59.5t-85.5 125.5t-8.5 158q21 117 117 194t212 77q170 0 245 -139l-15 -8q-67 132 -231 132q-110 0 -201.5 -74t-111.5 -186q-15 -82 12 -156.5
t93 -122t158 -47.5q73 0 136 33t105 92l14 -8q-44 -63 -111 -97.5t-146 -34.5q-14 0 -21 1l-9 -54q60 -1 90 -23t24 -59q-7 -36 -41.5 -56t-87.5 -20z" />
    <glyph glyph-name="ccedilla.smcp" unicode="&#xf7e7;" horiz-adv-x="665" 
d="M300 -221q-75 0 -123 50l14 10q41 -46 111 -46q44 0 75 17.5t36 46.5q5 31 -21.5 49t-78.5 18h-16l13 68q-86 9 -147 59.5t-85.5 125.5t-8.5 158q21 117 117 194t212 77q170 0 245 -139l-15 -8q-67 132 -231 132q-110 0 -201.5 -74t-111.5 -186q-15 -82 12 -156.5
t93 -122t158 -47.5q73 0 136 33t105 92l14 -8q-44 -63 -111 -97.5t-146 -34.5q-14 0 -21 1l-9 -54q60 -1 90 -23t24 -59q-7 -36 -41.5 -56t-87.5 -20z" />
    <glyph glyph-name="dcaron.smcp" unicode="&#xe239;" horiz-adv-x="590" 
d="M33 0l105 596h139q130 0 208 -96t55 -227q-21 -126 -112.5 -199.5t-215.5 -73.5h-179zM272 582h-121l-100 -568h162q116 0 203 71t109 192q22 124 -53 214.5t-200 90.5zM331 676l-95 140h19l84 -125l128 125h22l-143 -140h-15z" />
    <glyph glyph-name="dcaron.smcp" unicode="&#xf645;" horiz-adv-x="590" 
d="M33 0l105 596h139q130 0 208 -96t55 -227q-21 -126 -112.5 -199.5t-215.5 -73.5h-179zM272 582h-121l-100 -568h162q116 0 203 71t109 192q22 124 -53 214.5t-200 90.5zM331 676l-95 140h19l84 -125l128 125h22l-143 -140h-15z" />
    <glyph glyph-name="dcroat.smcp" unicode="&#xe23c;" horiz-adv-x="598" 
d="M31 293l3 14h61l51 289h139q130 0 208 -96t55 -227q-21 -126 -112.5 -199.5t-215.5 -73.5h-179l51 293h-61zM324 293h-216l-49 -279h162q116 0 203 71t109 192q22 124 -53 214.5t-200 90.5h-121l-48 -275h216z" />
    <glyph glyph-name="dcroat.smcp" unicode="&#xf646;" horiz-adv-x="598" 
d="M31 293l3 14h61l51 289h139q130 0 208 -96t55 -227q-21 -126 -112.5 -199.5t-215.5 -73.5h-179l51 293h-61zM324 293h-216l-49 -279h162q116 0 203 71t109 192q22 124 -53 214.5t-200 90.5h-121l-48 -275h216z" />
    <glyph glyph-name="eacute.smcp" unicode="&#xe23d;" horiz-adv-x="505" 
d="M33 0l105 596h370l-3 -14h-354l-47 -271h354l-3 -14h-354l-50 -283h354l-2 -14h-370zM300 676l149 140h25l-154 -140h-20z" />
    <glyph glyph-name="eacute.smcp" unicode="&#xf7e9;" horiz-adv-x="505" 
d="M33 0l105 596h370l-3 -14h-354l-47 -271h354l-3 -14h-354l-50 -283h354l-2 -14h-370zM300 676l149 140h25l-154 -140h-20z" />
    <glyph glyph-name="egrave.smcp" unicode="&#xe23e;" horiz-adv-x="505" 
d="M33 0l105 596h370l-3 -14h-354l-47 -271h354l-3 -14h-354l-50 -283h354l-2 -14h-370zM341 676l-106 140h23l99 -140h-16z" />
    <glyph glyph-name="egrave.smcp" unicode="&#xf7e8;" horiz-adv-x="505" 
d="M33 0l105 596h370l-3 -14h-354l-47 -271h354l-3 -14h-354l-50 -283h354l-2 -14h-370zM341 676l-106 140h23l99 -140h-16z" />
    <glyph glyph-name="ecircumflex.smcp" unicode="&#xe23f;" horiz-adv-x="505" 
d="M33 0l105 596h370l-3 -14h-354l-47 -271h354l-3 -14h-354l-50 -283h354l-2 -14h-370zM204 676l143 140h15l95 -140h-19l-85 125l-127 -125h-22z" />
    <glyph glyph-name="ecircumflex.smcp" unicode="&#xf7ea;" horiz-adv-x="505" 
d="M33 0l105 596h370l-3 -14h-354l-47 -271h354l-3 -14h-354l-50 -283h354l-2 -14h-370zM204 676l143 140h15l95 -140h-19l-85 125l-127 -125h-22z" />
    <glyph glyph-name="gcommaaccent.smcp" unicode="&#xe240;" horiz-adv-x="712" 
d="M352 -10q-143 0 -226 101.5t-57 243.5q21 118 112.5 194.5t208.5 76.5q83 0 148 -38.5t105 -106.5l-14 -8q-80 138 -241 138q-110 0 -197 -73.5t-107 -186.5q-15 -83 13 -157.5t95.5 -121.5t160.5 -47q121 0 205 82t95 200h-295l3 14h309v-1q-8 -130 -96 -220t-222 -90z
M230 -301l85 204h20l-91 -204h-14z" />
    <glyph glyph-name="gcommaaccent.smcp" unicode="&#xf64c;" horiz-adv-x="712" 
d="M352 -10q-143 0 -226 101.5t-57 243.5q21 118 112.5 194.5t208.5 76.5q83 0 148 -38.5t105 -106.5l-14 -8q-80 138 -241 138q-110 0 -197 -73.5t-107 -186.5q-15 -83 13 -157.5t95.5 -121.5t160.5 -47q121 0 205 82t95 200h-295l3 14h309v-1q-8 -130 -96 -220t-222 -90z
M230 -301l85 204h20l-91 -204h-14z" />
    <glyph glyph-name="ecaron.smcp" unicode="&#xe241;" horiz-adv-x="505" 
d="M33 0l105 596h370l-3 -14h-354l-47 -271h354l-3 -14h-354l-50 -283h354l-2 -14h-370zM326 676l-95 140h19l84 -125l128 125h22l-143 -140h-15z" />
    <glyph glyph-name="ecaron.smcp" unicode="&#xf647;" horiz-adv-x="505" 
d="M33 0l105 596h370l-3 -14h-354l-47 -271h354l-3 -14h-354l-50 -283h354l-2 -14h-370zM326 676l-95 140h19l84 -125l128 125h22l-143 -140h-15z" />
    <glyph glyph-name="emacron.smcp" unicode="&#xe242;" horiz-adv-x="505" 
d="M33 0l105 596h370l-3 -14h-354l-47 -271h354l-3 -14h-354l-50 -283h354l-2 -14h-370zM208 676l3 15h264l-3 -15h-264z" />
    <glyph glyph-name="emacron.smcp" unicode="&#xf649;" horiz-adv-x="505" 
d="M33 0l105 596h370l-3 -14h-354l-47 -271h354l-3 -14h-354l-50 -283h354l-2 -14h-370zM208 676l3 15h264l-3 -15h-264z" />
    <glyph glyph-name="ebreve.smcp" unicode="&#xe243;" horiz-adv-x="505" 
d="M33 0l105 596h370l-3 -14h-354l-47 -271h354l-3 -14h-354l-50 -283h354l-2 -14h-370zM334 674q-70 0 -110 45t-30 100h16q-9 -49 26 -89.5t101 -40.5q68 0 111 39t52 91h17q-11 -59 -57.5 -102t-125.5 -43z" />
    <glyph glyph-name="ebreve.smcp" unicode="&#xf62a;" horiz-adv-x="505" 
d="M33 0l105 596h370l-3 -14h-354l-47 -271h354l-3 -14h-354l-50 -283h354l-2 -14h-370zM334 674q-70 0 -110 45t-30 100h16q-9 -49 26 -89.5t101 -40.5q68 0 111 39t52 91h17q-11 -59 -57.5 -102t-125.5 -43z" />
    <glyph glyph-name="edotaccent.smcp" unicode="&#xe246;" horiz-adv-x="505" 
d="M33 0l105 596h370l-3 -14h-354l-47 -271h354l-3 -14h-354l-50 -283h354l-2 -14h-370zM326 676l24 140h17l-24 -140h-17z" />
    <glyph glyph-name="edotaccent.smcp" unicode="&#xf648;" horiz-adv-x="505" 
d="M33 0l105 596h370l-3 -14h-354l-47 -271h354l-3 -14h-354l-50 -283h354l-2 -14h-370zM326 676l24 140h17l-24 -140h-17z" />
    <glyph glyph-name="eogonek.smcp" unicode="&#xe249;" horiz-adv-x="505" 
d="M33 0l105 596h370l-3 -14h-354l-47 -271h354l-3 -14h-354l-50 -283h354l-2 -14q-125 -49 -135 -104q-5 -31 18 -53.5t63 -22.5q67 0 124 47l12 -10q-62 -51 -139 -51q-45 0 -73 27.5t-21 65.5q6 31 32 54t81 47h-332z" />
    <glyph glyph-name="eogonek.smcp" unicode="&#xf64a;" horiz-adv-x="505" 
d="M33 0l105 596h370l-3 -14h-354l-47 -271h354l-3 -14h-354l-50 -283h354l-2 -14q-125 -49 -135 -104q-5 -31 18 -53.5t63 -22.5q67 0 124 47l12 -10q-62 -51 -139 -51q-45 0 -73 27.5t-21 65.5q6 31 32 54t81 47h-332z" />
    <glyph glyph-name="gcircumflex.smcp" unicode="&#xe24b;" horiz-adv-x="712" 
d="M352 -10q-143 0 -226 101.5t-57 243.5q21 118 112.5 194.5t208.5 76.5q83 0 148 -38.5t105 -106.5l-14 -8q-80 138 -241 138q-110 0 -197 -73.5t-107 -186.5q-15 -83 13 -157.5t95.5 -121.5t160.5 -47q121 0 205 82t95 200h-295l3 14h309v-1q-8 -130 -96 -220t-222 -90z
M278 676l143 140h15l95 -140h-19l-85 125l-127 -125h-22z" />
    <glyph glyph-name="gcircumflex.smcp" unicode="&#xf62c;" horiz-adv-x="712" 
d="M352 -10q-143 0 -226 101.5t-57 243.5q21 118 112.5 194.5t208.5 76.5q83 0 148 -38.5t105 -106.5l-14 -8q-80 138 -241 138q-110 0 -197 -73.5t-107 -186.5q-15 -83 13 -157.5t95.5 -121.5t160.5 -47q121 0 205 82t95 200h-295l3 14h309v-1q-8 -130 -96 -220t-222 -90z
M278 676l143 140h15l95 -140h-19l-85 125l-127 -125h-22z" />
    <glyph glyph-name="gbreve.smcp" unicode="&#xe24e;" horiz-adv-x="712" 
d="M352 -10q-143 0 -226 101.5t-57 243.5q21 118 112.5 194.5t208.5 76.5q83 0 148 -38.5t105 -106.5l-14 -8q-80 138 -241 138q-110 0 -197 -73.5t-107 -186.5q-15 -83 13 -157.5t95.5 -121.5t160.5 -47q121 0 205 82t95 200h-295l3 14h309v-1q-8 -130 -96 -220t-222 -90z
M411 668q-70 0 -110 45t-30 100h16q-9 -49 26 -89.5t101 -40.5q68 0 111 39t52 91h17q-11 -59 -57.5 -102t-125.5 -43z" />
    <glyph glyph-name="gbreve.smcp" unicode="&#xf64b;" horiz-adv-x="712" 
d="M352 -10q-143 0 -226 101.5t-57 243.5q21 118 112.5 194.5t208.5 76.5q83 0 148 -38.5t105 -106.5l-14 -8q-80 138 -241 138q-110 0 -197 -73.5t-107 -186.5q-15 -83 13 -157.5t95.5 -121.5t160.5 -47q121 0 205 82t95 200h-295l3 14h309v-1q-8 -130 -96 -220t-222 -90z
M411 668q-70 0 -110 45t-30 100h16q-9 -49 26 -89.5t101 -40.5q68 0 111 39t52 91h17q-11 -59 -57.5 -102t-125.5 -43z" />
    <glyph glyph-name="gdotaccent.smcp" unicode="&#xe24f;" horiz-adv-x="712" 
d="M352 -10q-143 0 -226 101.5t-57 243.5q21 118 112.5 194.5t208.5 76.5q83 0 148 -38.5t105 -106.5l-14 -8q-80 138 -241 138q-110 0 -197 -73.5t-107 -186.5q-15 -83 13 -157.5t95.5 -121.5t160.5 -47q121 0 205 82t95 200h-295l3 14h309v-1q-8 -130 -96 -220t-222 -90z
M400 676l24 140h17l-24 -140h-17z" />
    <glyph glyph-name="gdotaccent.smcp" unicode="&#xf62d;" horiz-adv-x="712" 
d="M352 -10q-143 0 -226 101.5t-57 243.5q21 118 112.5 194.5t208.5 76.5q83 0 148 -38.5t105 -106.5l-14 -8q-80 138 -241 138q-110 0 -197 -73.5t-107 -186.5q-15 -83 13 -157.5t95.5 -121.5t160.5 -47q121 0 205 82t95 200h-295l3 14h309v-1q-8 -130 -96 -220t-222 -90z
M400 676l24 140h17l-24 -140h-17z" />
    <glyph glyph-name="hcircumflex.smcp" unicode="&#xe253;" horiz-adv-x="557" 
d="M33 0l105 596h16l-52 -292h371l52 292h16l-105 -596h-16l51 290h-371l-51 -290h-16zM220 676l143 140h15l95 -140h-19l-85 125l-127 -125h-22z" />
    <glyph glyph-name="hcircumflex.smcp" unicode="&#xf62f;" horiz-adv-x="557" 
d="M33 0l105 596h16l-52 -292h371l52 292h16l-105 -596h-16l51 290h-371l-51 -290h-16zM220 676l143 140h15l95 -140h-19l-85 125l-127 -125h-22z" />
    <glyph glyph-name="hbar.smcp" unicode="&#xe257;" horiz-adv-x="573" 
d="M59 445l3 14h61l24 137h16l-24 -137h371l24 137h16l-24 -137h58l-2 -14h-59l-78 -445h-16l51 290h-371l-51 -290h-16l78 445h-61zM136 445l-25 -141h371l25 141h-371z" />
    <glyph glyph-name="hbar.smcp" unicode="&#xf62e;" horiz-adv-x="573" 
d="M59 445l3 14h61l24 137h16l-24 -137h371l24 137h16l-24 -137h58l-2 -14h-59l-78 -445h-16l51 290h-371l-51 -290h-16l78 445h-61zM136 445l-25 -141h371l25 141h-371z" />
    <glyph glyph-name="iacute.smcp" unicode="&#xe258;" horiz-adv-x="180" 
d="M160 676l149 140h25l-154 -140h-20zM38 0l105 596h16l-105 -596h-16z" />
    <glyph glyph-name="iacute.smcp" unicode="&#xf7ed;" horiz-adv-x="180" 
d="M160 676l149 140h25l-154 -140h-20zM38 0l105 596h16l-105 -596h-16z" />
    <glyph glyph-name="igrave.smcp" unicode="&#xe259;" horiz-adv-x="180" 
d="M157 676l-106 140h23l99 -140h-16zM38 0l105 596h16l-105 -596h-16z" />
    <glyph glyph-name="igrave.smcp" unicode="&#xf7ec;" horiz-adv-x="180" 
d="M157 676l-106 140h23l99 -140h-16zM38 0l105 596h16l-105 -596h-16z" />
    <glyph glyph-name="icircumflex.smcp" unicode="&#xe25a;" horiz-adv-x="180" 
d="M38 0l105 596h16l-105 -596h-16zM33 673l143 140h15l95 -140h-19l-85 125l-127 -125h-22z" />
    <glyph glyph-name="icircumflex.smcp" unicode="&#xf7ee;" horiz-adv-x="180" 
d="M38 0l105 596h16l-105 -596h-16zM33 673l143 140h15l95 -140h-19l-85 125l-127 -125h-22z" />
    <glyph glyph-name="idieresis.smcp" unicode="&#xe25b;" horiz-adv-x="180" 
d="M198 676l24 140h15l-24 -140h-15zM115 676l24 140h15l-24 -140h-15zM38 0l105 596h16l-105 -596h-16z" />
    <glyph glyph-name="idieresis.smcp" unicode="&#xf7ef;" horiz-adv-x="180" 
d="M198 676l24 140h15l-24 -140h-15zM115 676l24 140h15l-24 -140h-15zM38 0l105 596h16l-105 -596h-16z" />
    <glyph glyph-name="itilde.smcp" unicode="&#xe25c;" horiz-adv-x="180" 
d="M-6 675q7 36 32.5 60t58.5 24q36 0 94 -37q2 -1 10.5 -6.5t11.5 -7.5t10 -6t11 -5.5t11 -4.5t12 -4t11.5 -2t13.5 -1q62 0 76 71h16q-7 -40 -32.5 -62.5t-60.5 -22.5q-38 0 -99 38q-56 36 -87 36q-26 0 -46.5 -19t-26.5 -51h-16zM38 0l105 596h16l-105 -596h-16z" />
    <glyph glyph-name="itilde.smcp" unicode="&#xf632;" horiz-adv-x="180" 
d="M-6 675q7 36 32.5 60t58.5 24q36 0 94 -37q2 -1 10.5 -6.5t11.5 -7.5t10 -6t11 -5.5t11 -4.5t12 -4t11.5 -2t13.5 -1q62 0 76 71h16q-7 -40 -32.5 -62.5t-60.5 -22.5q-38 0 -99 38q-56 36 -87 36q-26 0 -46.5 -19t-26.5 -51h-16zM38 0l105 596h16l-105 -596h-16z" />
    <glyph glyph-name="imacron.smcp" unicode="&#xe25e;" horiz-adv-x="180" 
d="M34 676l3 15h264l-3 -15h-264zM38 0l105 596h16l-105 -596h-16z" />
    <glyph glyph-name="imacron.smcp" unicode="&#xf64d;" horiz-adv-x="180" 
d="M34 676l3 15h264l-3 -15h-264zM38 0l105 596h16l-105 -596h-16z" />
    <glyph glyph-name="ibreve.smcp" unicode="&#xe25f;" horiz-adv-x="180" 
d="M167 668q-70 0 -110 45t-30 100h16q-9 -49 26 -89.5t101 -40.5q68 0 111 39t52 91h17q-11 -59 -57.5 -102t-125.5 -43zM38 0l105 596h16l-105 -596h-16z" />
    <glyph glyph-name="ibreve.smcp" unicode="&#xf630;" horiz-adv-x="180" 
d="M167 668q-70 0 -110 45t-30 100h16q-9 -49 26 -89.5t101 -40.5q68 0 111 39t52 91h17q-11 -59 -57.5 -102t-125.5 -43zM38 0l105 596h16l-105 -596h-16z" />
    <glyph glyph-name="idotaccent.smcp" unicode="&#xe262;" horiz-adv-x="180" 
d="M38 0l105 596h16l-105 -596h-16zM156 676l24 140h17l-24 -140h-17z" />
    <glyph glyph-name="idotaccent.smcp" unicode="&#xf666;" horiz-adv-x="180" 
d="M38 0l105 596h16l-105 -596h-16zM156 676l24 140h17l-24 -140h-17z" />
    <glyph glyph-name="iogonek.smcp" unicode="&#xe264;" horiz-adv-x="180" 
d="M-3 -194q-45 0 -73 27.5t-21 65.5q7 33 37.5 58t98.5 52l104 587h16l-105 -596q-125 -49 -135 -104q-5 -31 18 -53.5t63 -22.5q67 0 124 47l12 -10q-62 -51 -139 -51z" />
    <glyph glyph-name="iogonek.smcp" unicode="&#xf64e;" horiz-adv-x="180" 
d="M-3 -194q-45 0 -73 27.5t-21 65.5q7 33 37.5 58t98.5 52l104 587h16l-105 -596q-125 -49 -135 -104q-5 -31 18 -53.5t63 -22.5q67 0 124 47l12 -10q-62 -51 -139 -51z" />
    <glyph glyph-name="jcircumflex.smcp" unicode="&#xe265;" horiz-adv-x="416" 
d="M159 -8q-54 0 -91.5 24t-52.5 62l14 7q31 -78 131 -78q59 0 96 37.5t48 98.5l80 453h16l-80 -453q-27 -151 -161 -151zM273 674l143 140h15l95 -140h-19l-85 125l-127 -125h-22z" />
    <glyph glyph-name="jcircumflex.smcp" unicode="&#xf633;" horiz-adv-x="416" 
d="M159 -8q-54 0 -91.5 24t-52.5 62l14 7q31 -78 131 -78q59 0 96 37.5t48 98.5l80 453h16l-80 -453q-27 -151 -161 -151zM273 674l143 140h15l95 -140h-19l-85 125l-127 -125h-22z" />
    <glyph glyph-name="kcommaaccent.smcp" unicode="&#xe268;" horiz-adv-x="560" 
d="M454 0l-182 341l-193 -178l-29 -163h-16l105 596h16l-72 -410l442 410h23l-263 -244l188 -352h-19zM145 -260l85 204h20l-91 -204h-14z" />
    <glyph glyph-name="kcommaaccent.smcp" unicode="&#xf64f;" horiz-adv-x="560" 
d="M454 0l-182 341l-193 -178l-29 -163h-16l105 596h16l-72 -410l442 410h23l-263 -244l188 -352h-19zM145 -260l85 204h20l-91 -204h-14z" />
    <glyph glyph-name="lacute.smcp" unicode="&#xe26b;" horiz-adv-x="458" 
d="M33 0l105 596h16l-103 -581h315l-2 -15h-331zM151 676l149 140h25l-154 -140h-20z" />
    <glyph glyph-name="lacute.smcp" unicode="&#xf650;" horiz-adv-x="458" 
d="M33 0l105 596h16l-103 -581h315l-2 -15h-331zM151 676l149 140h25l-154 -140h-20z" />
    <glyph glyph-name="lcaron.smcp" unicode="&#xe26c;" horiz-adv-x="458" 
d="M33 0l105 596h16l-103 -581h315l-2 -15h-331zM334 456l109 140h22l-113 -140h-18z" />
    <glyph glyph-name="lcaron.smcp" unicode="&#xf651;" horiz-adv-x="458" 
d="M33 0l105 596h16l-103 -581h315l-2 -15h-331zM334 456l109 140h22l-113 -140h-18z" />
    <glyph glyph-name="lcommaaccent.smcp" unicode="&#xe26d;" horiz-adv-x="458" 
d="M33 0l105 596h16l-103 -581h315l-2 -15h-331zM83 -293l85 204h20l-91 -204h-14z" />
    <glyph glyph-name="lcommaaccent.smcp" unicode="&#xf652;" horiz-adv-x="458" 
d="M33 0l105 596h16l-103 -581h315l-2 -15h-331zM83 -293l85 204h20l-91 -204h-14z" />
    <glyph glyph-name="ldot.smcp" unicode="&#xe271;" horiz-adv-x="475" 
d="M33 0l105 596h16l-103 -581h315l-2 -15h-331zM372 184l24 140h17l-24 -140h-17z" />
    <glyph glyph-name="ldot.smcp" unicode="&#xf634;" horiz-adv-x="475" 
d="M33 0l105 596h16l-103 -581h315l-2 -15h-331zM372 184l24 140h17l-24 -140h-17z" />
    <glyph glyph-name="lslash.smcp" unicode="&#xe272;" horiz-adv-x="466" 
d="M30 283l3 15l63 16l50 282h16l-49 -278l214 56l-3 -15l-214 -56l-51 -288h315l-2 -15h-331l53 299z" />
    <glyph glyph-name="lslash.smcp" unicode="&#xf6f9;" horiz-adv-x="466" 
d="M30 283l3 15l63 16l50 282h16l-49 -278l214 56l-3 -15l-214 -56l-51 -288h315l-2 -15h-331l53 299z" />
    <glyph glyph-name="nacute.smcp" unicode="&#xe276;" horiz-adv-x="604" 
d="M33 0l105 596h15l319 -570l100 570h16l-105 -596h-13l-321 569l-99 -569h-17zM354 660l149 140h25l-154 -140h-20z" />
    <glyph glyph-name="nacute.smcp" unicode="&#xf653;" horiz-adv-x="604" 
d="M33 0l105 596h15l319 -570l100 570h16l-105 -596h-13l-321 569l-99 -569h-17zM354 660l149 140h25l-154 -140h-20z" />
    <glyph glyph-name="ntilde.smcp" unicode="&#xe279;" horiz-adv-x="604" 
d="M33 0l105 596h15l319 -570l100 570h16l-105 -596h-13l-321 569l-99 -569h-17zM198 674q7 36 32.5 60t58.5 24q36 0 94 -37q2 -1 10.5 -6.5t11.5 -7.5t10 -6t11 -5.5t11 -4.5t12 -4t11.5 -2t13.5 -1q62 0 76 71h16q-7 -40 -32.5 -62.5t-60.5 -22.5q-38 0 -99 38
q-56 36 -87 36q-26 0 -46.5 -19t-26.5 -51h-16z" />
    <glyph glyph-name="ncaron.smcp" unicode="&#xe27a;" horiz-adv-x="604" 
d="M33 0l105 596h15l319 -570l100 570h16l-105 -596h-13l-321 569l-99 -569h-17zM363 665l-95 140h19l84 -125l128 125h22l-143 -140h-15z" />
    <glyph glyph-name="ncaron.smcp" unicode="&#xf654;" horiz-adv-x="604" 
d="M33 0l105 596h15l319 -570l100 570h16l-105 -596h-13l-321 569l-99 -569h-17zM363 665l-95 140h19l84 -125l128 125h22l-143 -140h-15z" />
    <glyph glyph-name="ncommaaccent.smcp" unicode="&#xe27d;" horiz-adv-x="604" 
d="M33 0l105 596h15l319 -570l100 570h16l-105 -596h-13l-321 569l-99 -569h-17zM152 -270l85 204h20l-91 -204h-14z" />
    <glyph glyph-name="ncommaaccent.smcp" unicode="&#xf655;" horiz-adv-x="604" 
d="M33 0l105 596h15l319 -570l100 570h16l-105 -596h-13l-321 569l-99 -569h-17zM152 -270l85 204h20l-91 -204h-14z" />
    <glyph glyph-name="oacute.smcp" unicode="&#xe281;" horiz-adv-x="718" 
d="M348 -10q-141 0 -223 102t-56 243q21 118 113 194.5t206 76.5q73 0 132 -31t94 -81t49 -112.5t2 -125.5q-21 -118 -111.5 -192t-205.5 -74zM349 5q108 0 194.5 72t106.5 183q15 81 -11.5 156t-93 125t-158.5 50q-108 0 -195.5 -74t-107.5 -186q-22 -134 55 -230t210 -96z
M384 676l149 140h25l-154 -140h-20z" />
    <glyph glyph-name="oacute.smcp" unicode="&#xf7f3;" horiz-adv-x="718" 
d="M348 -10q-141 0 -223 102t-56 243q21 118 113 194.5t206 76.5q73 0 132 -31t94 -81t49 -112.5t2 -125.5q-21 -118 -111.5 -192t-205.5 -74zM349 5q108 0 194.5 72t106.5 183q15 81 -11.5 156t-93 125t-158.5 50q-108 0 -195.5 -74t-107.5 -186q-22 -134 55 -230t210 -96z
M384 676l149 140h25l-154 -140h-20z" />
    <glyph glyph-name="ograve.smcp" unicode="&#xe282;" horiz-adv-x="718" 
d="M348 -10q-141 0 -223 102t-56 243q21 118 113 194.5t206 76.5q73 0 132 -31t94 -81t49 -112.5t2 -125.5q-21 -118 -111.5 -192t-205.5 -74zM349 5q108 0 194.5 72t106.5 183q15 81 -11.5 156t-93 125t-158.5 50q-108 0 -195.5 -74t-107.5 -186q-22 -134 55 -230t210 -96z
M397 676l-106 140h23l99 -140h-16z" />
    <glyph glyph-name="ograve.smcp" unicode="&#xf7f2;" horiz-adv-x="718" 
d="M348 -10q-141 0 -223 102t-56 243q21 118 113 194.5t206 76.5q73 0 132 -31t94 -81t49 -112.5t2 -125.5q-21 -118 -111.5 -192t-205.5 -74zM349 5q108 0 194.5 72t106.5 183q15 81 -11.5 156t-93 125t-158.5 50q-108 0 -195.5 -74t-107.5 -186q-22 -134 55 -230t210 -96z
M397 676l-106 140h23l99 -140h-16z" />
    <glyph glyph-name="ocircumflex.smcp" unicode="&#xe283;" horiz-adv-x="718" 
d="M348 -10q-141 0 -223 102t-56 243q21 118 113 194.5t206 76.5q73 0 132 -31t94 -81t49 -112.5t2 -125.5q-21 -118 -111.5 -192t-205.5 -74zM349 5q108 0 194.5 72t106.5 183q15 81 -11.5 156t-93 125t-158.5 50q-108 0 -195.5 -74t-107.5 -186q-22 -134 55 -230t210 -96z
M282 674l143 140h15l95 -140h-19l-85 125l-127 -125h-22z" />
    <glyph glyph-name="ocircumflex.smcp" unicode="&#xf7f4;" horiz-adv-x="718" 
d="M348 -10q-141 0 -223 102t-56 243q21 118 113 194.5t206 76.5q73 0 132 -31t94 -81t49 -112.5t2 -125.5q-21 -118 -111.5 -192t-205.5 -74zM349 5q108 0 194.5 72t106.5 183q15 81 -11.5 156t-93 125t-158.5 50q-108 0 -195.5 -74t-107.5 -186q-22 -134 55 -230t210 -96z
M282 674l143 140h15l95 -140h-19l-85 125l-127 -125h-22z" />
    <glyph glyph-name="odieresis.smcp" unicode="&#xe284;" horiz-adv-x="718" 
d="M348 -10q-141 0 -223 102t-56 243q21 118 113 194.5t206 76.5q73 0 132 -31t94 -81t49 -112.5t2 -125.5q-21 -118 -111.5 -192t-205.5 -74zM349 5q108 0 194.5 72t106.5 183q15 81 -11.5 156t-93 125t-158.5 50q-108 0 -195.5 -74t-107.5 -186q-22 -134 55 -230t210 -96z
M434 676l24 140h15l-24 -140h-15zM351 676l24 140h15l-24 -140h-15z" />
    <glyph glyph-name="odieresis.smcp" unicode="&#xf7f6;" horiz-adv-x="718" 
d="M348 -10q-141 0 -223 102t-56 243q21 118 113 194.5t206 76.5q73 0 132 -31t94 -81t49 -112.5t2 -125.5q-21 -118 -111.5 -192t-205.5 -74zM349 5q108 0 194.5 72t106.5 183q15 81 -11.5 156t-93 125t-158.5 50q-108 0 -195.5 -74t-107.5 -186q-22 -134 55 -230t210 -96z
M434 676l24 140h15l-24 -140h-15zM351 676l24 140h15l-24 -140h-15z" />
    <glyph glyph-name="otilde.smcp" unicode="&#xe285;" horiz-adv-x="718" 
d="M348 -10q-141 0 -223 102t-56 243q21 118 113 194.5t206 76.5q73 0 132 -31t94 -81t49 -112.5t2 -125.5q-21 -118 -111.5 -192t-205.5 -74zM349 5q108 0 194.5 72t106.5 183q15 81 -11.5 156t-93 125t-158.5 50q-108 0 -195.5 -74t-107.5 -186q-22 -134 55 -230t210 -96z
M242 676q7 36 32.5 60t58.5 24q36 0 94 -37q2 -1 10.5 -6.5t11.5 -7.5t10 -6t11 -5.5t11 -4.5t12 -4t11.5 -2t13.5 -1q62 0 76 71h16q-7 -40 -32.5 -62.5t-60.5 -22.5q-38 0 -99 38q-56 36 -87 36q-26 0 -46.5 -19t-26.5 -51h-16z" />
    <glyph glyph-name="otilde.smcp" unicode="&#xf7f5;" horiz-adv-x="718" 
d="M348 -10q-141 0 -223 102t-56 243q21 118 113 194.5t206 76.5q73 0 132 -31t94 -81t49 -112.5t2 -125.5q-21 -118 -111.5 -192t-205.5 -74zM349 5q108 0 194.5 72t106.5 183q15 81 -11.5 156t-93 125t-158.5 50q-108 0 -195.5 -74t-107.5 -186q-22 -134 55 -230t210 -96z
M242 676q7 36 32.5 60t58.5 24q36 0 94 -37q2 -1 10.5 -6.5t11.5 -7.5t10 -6t11 -5.5t11 -4.5t12 -4t11.5 -2t13.5 -1q62 0 76 71h16q-7 -40 -32.5 -62.5t-60.5 -22.5q-38 0 -99 38q-56 36 -87 36q-26 0 -46.5 -19t-26.5 -51h-16z" />
    <glyph glyph-name="omacron.smcp" unicode="&#xe287;" horiz-adv-x="718" 
d="M348 -10q-141 0 -223 102t-56 243q21 118 113 194.5t206 76.5q73 0 132 -31t94 -81t49 -112.5t2 -125.5q-21 -118 -111.5 -192t-205.5 -74zM349 5q108 0 194.5 72t106.5 183q15 81 -11.5 156t-93 125t-158.5 50q-108 0 -195.5 -74t-107.5 -186q-22 -134 55 -230t210 -96z
M272 677l3 15h264l-3 -15h-264z" />
    <glyph glyph-name="omacron.smcp" unicode="&#xf657;" horiz-adv-x="718" 
d="M348 -10q-141 0 -223 102t-56 243q21 118 113 194.5t206 76.5q73 0 132 -31t94 -81t49 -112.5t2 -125.5q-21 -118 -111.5 -192t-205.5 -74zM349 5q108 0 194.5 72t106.5 183q15 81 -11.5 156t-93 125t-158.5 50q-108 0 -195.5 -74t-107.5 -186q-22 -134 55 -230t210 -96z
M272 677l3 15h264l-3 -15h-264z" />
    <glyph glyph-name="obreve.smcp" unicode="&#xe288;" horiz-adv-x="718" 
d="M348 -10q-141 0 -223 102t-56 243q21 118 113 194.5t206 76.5q73 0 132 -31t94 -81t49 -112.5t2 -125.5q-21 -118 -111.5 -192t-205.5 -74zM349 5q108 0 194.5 72t106.5 183q15 81 -11.5 156t-93 125t-158.5 50q-108 0 -195.5 -74t-107.5 -186q-22 -134 55 -230t210 -96z
M393 668q-70 0 -110 45t-30 100h16q-9 -49 26 -89.5t101 -40.5q68 0 111 39t52 91h17q-11 -59 -57.5 -102t-125.5 -43z" />
    <glyph glyph-name="obreve.smcp" unicode="&#xf635;" horiz-adv-x="718" 
d="M348 -10q-141 0 -223 102t-56 243q21 118 113 194.5t206 76.5q73 0 132 -31t94 -81t49 -112.5t2 -125.5q-21 -118 -111.5 -192t-205.5 -74zM349 5q108 0 194.5 72t106.5 183q15 81 -11.5 156t-93 125t-158.5 50q-108 0 -195.5 -74t-107.5 -186q-22 -134 55 -230t210 -96z
M393 668q-70 0 -110 45t-30 100h16q-9 -49 26 -89.5t101 -40.5q68 0 111 39t52 91h17q-11 -59 -57.5 -102t-125.5 -43z" />
    <glyph glyph-name="ohungarumlaut.smcp" unicode="&#xe28a;" horiz-adv-x="718" 
d="M348 -10q-141 0 -223 102t-56 243q21 118 113 194.5t206 76.5q73 0 132 -31t94 -81t49 -112.5t2 -125.5q-21 -118 -111.5 -192t-205.5 -74zM349 5q108 0 194.5 72t106.5 183q15 81 -11.5 156t-93 125t-158.5 50q-108 0 -195.5 -74t-107.5 -186q-22 -134 55 -230t210 -96z
M345 676l149 140h25l-154 -140h-20zM436 676l149 140h25l-154 -140h-20z" />
    <glyph glyph-name="ohungarumlaut.smcp" unicode="&#xf656;" horiz-adv-x="718" 
d="M348 -10q-141 0 -223 102t-56 243q21 118 113 194.5t206 76.5q73 0 132 -31t94 -81t49 -112.5t2 -125.5q-21 -118 -111.5 -192t-205.5 -74zM349 5q108 0 194.5 72t106.5 183q15 81 -11.5 156t-93 125t-158.5 50q-108 0 -195.5 -74t-107.5 -186q-22 -134 55 -230t210 -96z
M345 676l149 140h25l-154 -140h-20zM436 676l149 140h25l-154 -140h-20z" />
    <glyph glyph-name="oslash.smcp" unicode="&#xe295;" horiz-adv-x="718" 
d="M348 -10q-108 0 -184 62l-47 -52h-20l56 62q-53 49 -76 120.5t-8 152.5q21 118 113 194.5t206 76.5q112 0 189 -72l56 62h20l-65 -72q50 -51 70.5 -123t6.5 -145q-21 -118 -111.5 -192t-205.5 -74zM84 331q-13 -77 8.5 -144t71.5 -113l403 449q-71 68 -180 68
q-108 0 -195.5 -74t-107.5 -186zM349 5q108 0 194.5 72t106.5 183q12 70 -7 137.5t-65 115.5l-403 -449q73 -59 174 -59z" />
    <glyph glyph-name="oslash.smcp" unicode="&#xf7f8;" horiz-adv-x="718" 
d="M348 -10q-108 0 -184 62l-47 -52h-20l56 62q-53 49 -76 120.5t-8 152.5q21 118 113 194.5t206 76.5q112 0 189 -72l56 62h20l-65 -72q50 -51 70.5 -123t6.5 -145q-21 -118 -111.5 -192t-205.5 -74zM84 331q-13 -77 8.5 -144t71.5 -113l403 449q-71 68 -180 68
q-108 0 -195.5 -74t-107.5 -186zM349 5q108 0 194.5 72t106.5 183q12 70 -7 137.5t-65 115.5l-403 -449q73 -59 174 -59z" />
    <glyph glyph-name="oslashacute.smcp" unicode="&#xe296;" horiz-adv-x="734" 
d="M356 -10q-108 0 -184 62l-47 -52h-20l56 62q-53 49 -76 120.5t-8 152.5q21 118 113 194.5t206 76.5q112 0 189 -72l56 62h20l-65 -72q50 -51 70.5 -123t6.5 -145q-21 -118 -111.5 -192t-205.5 -74zM92 331q-13 -77 8.5 -144t71.5 -113l403 449q-71 68 -180 68
q-108 0 -195.5 -74t-107.5 -186zM357 5q108 0 194.5 72t106.5 183q12 70 -7 137.5t-65 115.5l-403 -449q73 -59 174 -59zM398 676l149 140h25l-154 -140h-20z" />
    <glyph glyph-name="oslashacute.smcp" unicode="&#xf627;" horiz-adv-x="734" 
d="M356 -10q-108 0 -184 62l-47 -52h-20l56 62q-53 49 -76 120.5t-8 152.5q21 118 113 194.5t206 76.5q112 0 189 -72l56 62h20l-65 -72q50 -51 70.5 -123t6.5 -145q-21 -118 -111.5 -192t-205.5 -74zM92 331q-13 -77 8.5 -144t71.5 -113l403 449q-71 68 -180 68
q-108 0 -195.5 -74t-107.5 -186zM357 5q108 0 194.5 72t106.5 183q12 70 -7 137.5t-65 115.5l-403 -449q73 -59 174 -59zM398 676l149 140h25l-154 -140h-20z" />
    <glyph glyph-name="oe.smcp" unicode="&#xe298;" horiz-adv-x="1077" 
d="M605 0l30 173q-40 -84 -117.5 -133.5t-169.5 -49.5q-141 0 -223 102t-56 243q21 118 113 194.5t206 76.5q117 0 192 -71t88 -175l42 236h370l-3 -14h-354l-47 -271h354l-3 -14h-354l-50 -283h354l-2 -14h-370zM349 5q104 0 189.5 69t110.5 175l5 32q15 122 -59.5 216
t-207.5 94q-108 0 -195.5 -74t-107.5 -186q-22 -134 55 -230t210 -96z" />
    <glyph glyph-name="oe.smcp" unicode="&#xf6fa;" horiz-adv-x="1077" 
d="M605 0l30 173q-40 -84 -117.5 -133.5t-169.5 -49.5q-141 0 -223 102t-56 243q21 118 113 194.5t206 76.5q117 0 192 -71t88 -175l42 236h370l-3 -14h-354l-47 -271h354l-3 -14h-354l-50 -283h354l-2 -14h-370zM349 5q104 0 189.5 69t110.5 175l5 32q15 122 -59.5 216
t-207.5 94q-108 0 -195.5 -74t-107.5 -186q-22 -134 55 -230t210 -96z" />
    <glyph glyph-name="racute.smcp" unicode="&#xe29a;" horiz-adv-x="513" 
d="M33 0l105 596h165q81 0 133.5 -58.5t38.5 -140.5q-12 -70 -64 -116t-126 -46h-43q3 -81 48.5 -150.5t117.5 -69.5h14l-3 -15h-13q-80 0 -130 79t-50 172h59q68 0 115.5 42.5t58.5 105.5q13 75 -34 128t-124 55h-150l-102 -582h-16zM290 676l149 140h25l-154 -140h-20z
" />
    <glyph glyph-name="racute.smcp" unicode="&#xf658;" horiz-adv-x="513" 
d="M33 0l105 596h165q81 0 133.5 -58.5t38.5 -140.5q-12 -70 -64 -116t-126 -46h-43q3 -81 48.5 -150.5t117.5 -69.5h14l-3 -15h-13q-80 0 -130 79t-50 172h59q68 0 115.5 42.5t58.5 105.5q13 75 -34 128t-124 55h-150l-102 -582h-16zM290 676l149 140h25l-154 -140h-20z
" />
    <glyph glyph-name="rcaron.smcp" unicode="&#xe29b;" horiz-adv-x="513" 
d="M33 0l105 596h165q81 0 133.5 -58.5t38.5 -140.5q-12 -70 -64 -116t-126 -46h-43q3 -81 48.5 -150.5t117.5 -69.5h14l-3 -15h-13q-80 0 -130 79t-50 172h59q68 0 115.5 42.5t58.5 105.5q13 75 -34 128t-124 55h-150l-102 -582h-16zM310 676l-95 140h19l84 -125l128 125
h22l-143 -140h-15z" />
    <glyph glyph-name="rcaron.smcp" unicode="&#xf659;" horiz-adv-x="513" 
d="M33 0l105 596h165q81 0 133.5 -58.5t38.5 -140.5q-12 -70 -64 -116t-126 -46h-43q3 -81 48.5 -150.5t117.5 -69.5h14l-3 -15h-13q-80 0 -130 79t-50 172h59q68 0 115.5 42.5t58.5 105.5q13 75 -34 128t-124 55h-150l-102 -582h-16zM310 676l-95 140h19l84 -125l128 125
h22l-143 -140h-15z" />
    <glyph glyph-name="rcommaaccent.smcp" unicode="&#xe29e;" horiz-adv-x="513" 
d="M33 0l105 596h165q81 0 133.5 -58.5t38.5 -140.5q-12 -70 -64 -116t-126 -46h-43q3 -81 48.5 -150.5t117.5 -69.5h14l-3 -15h-13q-80 0 -130 79t-50 172h59q68 0 115.5 42.5t58.5 105.5q13 75 -34 128t-124 55h-150l-102 -582h-16zM99 -280l85 204h20l-91 -204h-14z" />
    <glyph glyph-name="rcommaaccent.smcp" unicode="&#xf65a;" horiz-adv-x="513" 
d="M33 0l105 596h165q81 0 133.5 -58.5t38.5 -140.5q-12 -70 -64 -116t-126 -46h-43q3 -81 48.5 -150.5t117.5 -69.5h14l-3 -15h-13q-80 0 -130 79t-50 172h59q68 0 115.5 42.5t58.5 105.5q13 75 -34 128t-124 55h-150l-102 -582h-16zM99 -280l85 204h20l-91 -204h-14z" />
    <glyph glyph-name="A.swsh" unicode="&#xe2e0;" horiz-adv-x="1142" 
d="M1037 0l-53 243h-369l-144 -254q-38 -66 -98 -113t-138 -47q-108 0 -166 72t-40 171q14 80 78.5 133t155.5 53h342l262 457h-398q-64 0 -113.5 -37.5t-59.5 -98.5t29 -108.5t105 -47.5q76 0 115 50l12 -9q-44 -56 -128 -56q-74 0 -117.5 53t-31.5 119q11 68 64.5 109
t126.5 41h422l162 -730h-18zM236 -157q128 0 221 155l139 245h-334q-82 0 -144 -50.5t-74 -126.5q-15 -91 39 -157t153 -66zM882 709l-259 -451h357z" />
    <glyph glyph-name="B.swsh" unicode="&#xe2e1;" horiz-adv-x="944" 
d="M51 -114l-17 6q50 123 196 123h114l116 659h17l-51 -286h261q53 0 105 39t63 99q7 44 -6 82.5t-48.5 71.5t-104.5 52t-165 19q-100 0 -177.5 -18.5t-125 -51t-74 -70t-34.5 -81.5q-13 -77 17.5 -133.5t94.5 -82.5l-10 -14q-68 29 -100 90t-18 142q17 100 122.5 167
t304.5 67q99 0 171.5 -21t110 -56.5t52.5 -77t6 -86.5q-9 -54 -48 -92t-90 -52q66 -14 105.5 -74t27.5 -130q-14 -82 -73 -129.5t-167 -47.5h-396q-135 0 -179 -114zM697 373h-273l-63 -358h266q101 0 155 44.5t67 120.5t-34.5 134.5t-117.5 58.5z" />
    <glyph glyph-name="C.swsh" unicode="&#xe2e2;" horiz-adv-x="862" 
d="M450 -123q-88 0 -162.5 32.5t-126.5 92.5t-73.5 154t-2.5 209q21 124 95.5 217t173.5 138t205 45q138 0 215.5 -74t58.5 -180q-11 -63 -61.5 -109t-121.5 -46q-97 0 -148 74l14 10q49 -68 134 -68q63 0 109.5 41t57.5 101q18 99 -55 167.5t-204 68.5q-102 0 -197 -43
t-167 -133.5t-93 -212.5q-19 -111 2 -201.5t71.5 -148t122 -88.5t155.5 -31q185 0 293 144l15 -11q-118 -148 -310 -148z" />
    <glyph glyph-name="D.swsh" unicode="&#xe2e3;" horiz-adv-x="1008" 
d="M73 -114l-17 6q50 123 194 123h123l117 669h18l-118 -669h170q144 0 250.5 85t132.5 234q14 76 -6 149.5t-70.5 133.5t-140.5 97t-206 37q-185 0 -284 -64t-116 -157q-13 -77 17.5 -133.5t94.5 -82.5l-10 -14q-68 29 -100 90t-18 142q17 99 121 166.5t297 67.5
q81 0 151 -18t119.5 -49t87.5 -72.5t57 -90t26.5 -101t-3.5 -105.5q-27 -156 -138.5 -243t-262.5 -87h-311q-131 0 -175 -114z" />
    <glyph glyph-name="E.swsh" unicode="&#xe2e4;" horiz-adv-x="702" 
d="M265 -155q-115 0 -179.5 74t-47.5 175q15 91 95 141t185 59q-95 19 -155.5 93t-42.5 178q21 119 117 185t222 66q122 0 188.5 -62.5t51.5 -148.5q-10 -56 -50.5 -91.5t-98.5 -35.5q-78 0 -129 50l11 11q45 -47 118 -47q54 0 89.5 33.5t44.5 82.5q14 78 -48.5 135.5
t-175.5 57.5q-123 0 -213 -62t-110 -175q-20 -116 57.5 -190t195.5 -74h3l-3 -15h-3q-81 0 -149.5 -18.5t-120.5 -64t-62 -112.5q-15 -94 45 -161.5t166 -67.5q175 0 270 146l15 -11q-105 -151 -286 -151z" />
    <glyph glyph-name="F.swsh" unicode="&#xe2e5;" horiz-adv-x="926" 
d="M245 -138q-78 0 -123 53t-32 127q6 34 26 63l13 -9q-18 -25 -24 -59q-11 -66 30 -113.5t111 -47.5q130 0 154 139l123 700h-156q-91 0 -161.5 -54.5t-85.5 -137.5q-18 -107 42 -178l-12 -13q-66 76 -46 193q15 89 90.5 147t175.5 58h501q61 0 90 29t38 81l10 57h17
l-11 -62q-11 -57 -44 -88.5t-100 -31.5h-331l-61 -343h396l-3 -15h-395l-60 -342q-28 -153 -172 -153z" />
    <glyph glyph-name="G.swsh" unicode="&#xe2e6;" horiz-adv-x="890" 
d="M495 -286q-134 0 -195 95l15 7q55 -86 183 -86q96 0 160.5 58t80.5 150l45 255l14 60q-34 -115 -127 -189t-229 -74q-115 0 -203 56.5t-127 153.5t-19 210q26 145 138 237.5t254 92.5q102 0 182 -46t128 -129l-14 -8q-99 168 -297 168q-136 0 -243 -90t-132 -229
q-13 -76 4.5 -149t60 -128.5t113 -89.5t156.5 -34q150 0 247.5 96.5t122.5 251.5h-364l2 15h379l-76 -432q-18 -99 -86.5 -160.5t-172.5 -61.5z" />
    <glyph glyph-name="H.swsh" unicode="&#xe2e7;" horiz-adv-x="1074" 
d="M263 -171q-97 0 -153.5 67t-39.5 158q12 68 67 117l11 -12q-52 -45 -62 -110q-14 -83 38 -144t140 -61q85 0 133.5 48t62.5 131l121 692h-284q-64 0 -113.5 -37.5t-59.5 -98.5t29 -108.5t105 -47.5q76 0 115 50l12 -9q-44 -56 -128 -56q-74 0 -117.5 53t-31.5 119
q11 68 64.5 109t126.5 41h302l-63 -358h458l64 358q15 82 59.5 130t118.5 48q68 0 112 -42l-9 -13q-38 40 -104 40q-131 0 -161 -167l-128 -726h-17l63 357h-459l-58 -335q-15 -88 -68 -140.5t-146 -52.5z" />
    <glyph glyph-name="I.swsh" unicode="&#xe2e8;" horiz-adv-x="867" 
d="M159 332q-66 76 -46 193q15 89 90.5 147t175.5 58h401q61 0 90 29t38 81l10 57h17l-11 -62q-11 -57 -44 -88.5t-100 -31.5h-213l-123 -700h322l-3 -15h-573q-61 0 -90 -29t-38 -81l-10 -57h-17l11 62q11 57 44 88.5t100 31.5h237l123 700h-174q-91 0 -161.5 -54.5
t-85.5 -137.5q-18 -107 42 -178z" />
    <glyph glyph-name="J.swsh" unicode="&#xe2e9;" horiz-adv-x="599" 
d="M263 -171q-97 0 -153.5 67t-39.5 158q12 68 67 117l11 -12q-52 -45 -62 -110q-14 -83 38 -144t140 -61q85 0 133.5 48t62.5 131l121 692h-284q-64 0 -113.5 -37.5t-59.5 -98.5t29 -108.5t105 -47.5q76 0 115 50l12 -9q-44 -56 -128 -56q-74 0 -117.5 53t-31.5 119
q11 68 64.5 109t126.5 41h302l-124 -708q-15 -88 -68 -140.5t-146 -52.5z" />
    </font>
</defs>
</svg>
