<?xml version="1.0" standalone="no"?>
<!DOCTYPE svg PUBLIC "-//W3C//DTD SVG 1.1//EN" "http://www.w3.org/Graphics/SVG/1.1/DTD/svg11.dtd" >
<svg>
<metadata>
Created by FontForge 20120731 at Wed Apr 13 13:08:28 2016
 By ,,,
Copyright (c) 2013 by Lucas Sharp. All rights reserved.
</metadata>
<defs>
<font id="SharpSansNo1-UltrathinItalic" horiz-adv-x="588" >
  <font-face 
    font-family="Sharp Sans No1 Ultrathin Italic"
    font-weight="600"
    font-style="italic"
    font-stretch="normal"
    units-per-em="1000"
    panose-1="0 0 0 0 0 0 0 0 0 0"
    ascent="750"
    descent="-250"
    x-height="500"
    cap-height="730"
    bbox="-129 -459 1804 1072"
    underline-thickness="50"
    underline-position="-50"
    unicode-range="U+0020-F60B"
  />
<missing-glyph horiz-adv-x="900" 
d="M85 0v730h730v-730h-730zM450 331l-283 -283h566zM167 682l283 -283l283 283h-566zM484 365l283 -283v566zM416 365l-283 283v-566z" />
    <glyph glyph-name="interrobang" unicode="&#x21;&#x3f;" horiz-adv-x="483" 
d="M228 192l1 7q57 314 75 414l19 116q-20 2 -30 2q-88 0 -149 -53l-7 5q61 57 157 57q87 0 142.5 -49.5t40.5 -131.5q-8 -43 -31.5 -73.5t-52.5 -52t-58.5 -47t-56 -73t-38.5 -114.5l-1 -7h-11zM467 561q11 68 -27.5 112t-106.5 55l-19 -115q-58 -313 -63 -339
q16 46 42.5 80.5t53 55t51 40t43.5 47t26 64.5zM197 0l24 137h11l-24 -137h-11z" />
    <glyph glyph-name="interrobangdown" unicode="&#xa1;&#xbf;" horiz-adv-x="483" 
d="M196 -240q-87 0 -142.5 49.5t-39.5 131.5q8 43 31 73.5t52 52t59 47t56.5 73t38.5 114.5l1 7h10l-1 -7q-42 -227 -74 -414l-21 -116q22 -2 32 -2q87 0 148 53l8 -5q-62 -57 -158 -57zM23 -61q-11 -67 27.5 -111t106.5 -55l20 114q37 212 63 342q-20 -56 -55.5 -97
t-66.5 -61t-59 -53.5t-36 -78.5z" />
    <glyph glyph-name=".notdef" horiz-adv-x="900" 
d="M85 0v730h730v-730h-730zM450 331l-283 -283h566zM167 682l283 -283l283 283h-566zM484 365l283 -283v566zM416 365l-283 283v-566z" />
    <glyph glyph-name=".null" horiz-adv-x="0" 
 />
    <glyph glyph-name="nonmarkingreturn" horiz-adv-x="333" 
 />
    <glyph glyph-name="space" unicode=" " horiz-adv-x="260" 
 />
    <glyph glyph-name="exclam" unicode="!" horiz-adv-x="227" 
d="M95 210q29 175 70 403l20 117h10l-20 -117q-9 -52 -25.5 -143.5t-29 -161t-17.5 -98.5h-8zM56 0l24 137h11l-24 -137h-11z" />
    <glyph glyph-name="quotedbl" unicode="&#x22;" horiz-adv-x="228" 
d="M105 500q5 47 24 146l15 84h10l-15 -84q-21 -116 -28 -146h-6zM191 500q5 47 24 146l15 84h10l-15 -84q-21 -116 -28 -146h-6z" />
    <glyph glyph-name="numbersign" unicode="#" horiz-adv-x="820" 
d="M491 0l42 242h-260l-42 -242h-10l42 242h-208l1 9h209l42 241h-208l2 9h208l40 229h10l-40 -229h260l40 229h10l-40 -229h218l-1 -9h-219l-42 -241h218l-2 -9h-218l-42 -242h-10zM317 492l-42 -241h260l42 241h-260z" />
    <glyph glyph-name="dollar" unicode="$" 
d="M217 -116l19 108q-135 13 -205 120l8 6q67 -104 198 -118l68 384v1q-36 16 -56 26.5t-49 31t-43 40t-22 49.5t-2 65q10 62 64 102.5t143 40.5q18 0 27 -1l19 106h10l-19 -108q113 -14 176 -100l-8 -7q-58 84 -170 99l-60 -339q36 -17 60 -30t52.5 -35t43.5 -44t23 -55
t2 -71q-13 -76 -71 -120.5t-150 -44.5q-5 0 -15 0.5t-14 0.5l-19 -107h-10zM486 155q8 45 -3 80.5t-40 62.5t-57 44t-72 38l-67 -380q4 0 13.5 -0.5t14.5 -0.5q85 0 142 42.5t69 113.5zM142 595q-5 -32 2.5 -60t21 -47t40 -38t47 -29.5t53.5 -26.5l59 336q-8 1 -26 1
q-84 0 -135 -37.5t-62 -98.5z" />
    <glyph glyph-name="percent" unicode="%" horiz-adv-x="843" 
d="M60 0l755 730h14l-755 -730h-14zM286 422q-73 0 -116 53.5t-30 125.5q10 61 57 100t107 39q73 0 115.5 -54.5t30.5 -126.5q-10 -60 -56.5 -98.5t-107.5 -38.5zM286 431q57 0 101.5 37t53.5 93q11 66 -28 118t-109 52q-58 0 -102 -37t-53 -95q-11 -66 28 -117t109 -51z
M580 -11q-74 0 -116.5 53.5t-30.5 125.5q11 61 58 100t107 39q73 0 115.5 -54.5t30.5 -126.5q-10 -60 -56.5 -98.5t-107.5 -38.5zM579 -2q58 0 102 37t54 93q11 66 -28 118t-109 52q-58 0 -102 -37t-54 -95q-11 -66 28.5 -117t108.5 -51z" />
    <glyph glyph-name="ampersand" unicode="&#x26;" horiz-adv-x="747" 
d="M617 0l-74 89q-112 -99 -258 -99q-130 0 -198 79.5t-52 176.5q26 144 206 215q-54 82 -42 152q10 54 58.5 90.5t120.5 36.5q54 0 96.5 -26t60.5 -69l-9 -3q-17 40 -56.5 64.5t-91.5 24.5q-67 0 -113.5 -33.5t-55.5 -85.5q-9 -49 13 -97.5t77 -114.5l246 -299
q63 58 103.5 134.5t55.5 149.5h-198l2 9h208l-1 -5q-14 -75 -56.5 -155t-108.5 -139l79 -95h-12zM286 -2q140 0 252 97l-246 298q-26 31 -46 61q-85 -34 -136.5 -83.5t-64.5 -126.5q-16 -92 49.5 -169t191.5 -77z" />
    <glyph glyph-name="quotesingle" unicode="'" horiz-adv-x="144" 
d="M111 500h-6q5 47 24 146l15 84h10l-15 -84q-21 -116 -28 -146z" />
    <glyph glyph-name="parenleft" unicode="(" horiz-adv-x="398" 
d="M275 -223l-6 -7q-106 66 -165 213.5t-28 316.5q30 166 132.5 290t214.5 171l3 -8q-51 -21 -103 -62t-100 -98t-85.5 -134.5t-52.5 -160.5q-29 -166 28.5 -310t161.5 -211z" />
    <glyph glyph-name="parenright" unicode=")" horiz-adv-x="398" 
d="M122 754l6 7q106 -66 165 -213t29 -316q-30 -166 -133 -291t-215 -170l-4 8q69 29 137.5 89.5t126.5 158t78 207.5q30 166 -27.5 310t-162.5 210z" />
    <glyph glyph-name="asterisk" unicode="*" horiz-adv-x="422" 
d="M387 446l-131 103l-27 -174h-12l34 174l-164 -76l-5 11l167 70l-136 97l7 11l132 -104l27 171h13l-35 -172l163 76l6 -11l-167 -69l136 -96z" />
    <glyph glyph-name="plus" unicode="+" horiz-adv-x="460" 
d="M54 361l2 10h181l31 178h10l-32 -178h180l-2 -10h-179l-32 -182h-10l32 182h-181z" />
    <glyph glyph-name="comma" unicode="," horiz-adv-x="143" 
d="M-28 -102l76 179h12l-79 -179h-9z" />
    <glyph glyph-name="hyphen" unicode="-" horiz-adv-x="460" 
d="M48 251l2 9h370l-2 -9h-370z" />
    <glyph glyph-name="period" unicode="." horiz-adv-x="143" 
d="M14 0l24 137h10l-24 -137h-10z" />
    <glyph glyph-name="slash" unicode="/" horiz-adv-x="398" 
d="M-30 0l475 730h12l-475 -730h-12z" />
    <glyph glyph-name="zero" unicode="0" 
d="M282 -10q-114 0 -170 76t-36 184l50 279q18 101 75 156t151 55q118 0 168.5 -77.5t29.5 -193.5l-49 -278q-17 -94 -73 -147.5t-146 -53.5zM283 -1q84 0 138.5 52.5t69.5 141.5l49 277q20 113 -28 187t-160 74q-90 0 -144.5 -52.5t-72.5 -150.5l-49 -279
q-18 -103 34 -176.5t163 -73.5z" />
    <glyph glyph-name="one" unicode="1" 
d="M26 0l1 9h218l119 678q-17 -40 -56.5 -63t-84.5 -23h-9l2 9h5q66 0 104 36.5t46 83.5h11l-127 -721h222l-2 -9h-449z" />
    <glyph glyph-name="two" unicode="2" 
d="M32 0l2 11q13 86 76 150.5t183 135.5q12 7 57.5 34t61 37t49 34.5t47.5 41.5t29 43t20 53q14 76 -44 133.5t-151 57.5q-61 0 -118 -25.5t-90 -66.5l-8 5q35 43 94 69.5t124 26.5q95 0 156 -61t47 -139q-4 -25 -14 -47t-28.5 -43t-33 -35.5t-44.5 -35t-45.5 -30t-53 -31.5
t-50.5 -30q-118 -70 -179.5 -131.5t-74.5 -144.5l-1 -2h445l-2 -10h-454z" />
    <glyph glyph-name="three" unicode="3" 
d="M259 -10q-68 0 -127.5 27.5t-84.5 64.5l7 6q24 -37 81.5 -63t123.5 -26q96 0 160.5 47t78.5 128q15 88 -38.5 144.5t-143.5 56.5h-88l1 9h90q84 0 151 46t79 118q14 80 -41 131.5t-148 51.5q-127 0 -206 -73l-6 7q82 75 212 75q97 0 155 -54.5t44 -137.5
q-11 -67 -65.5 -112.5t-132.5 -56.5q76 -14 117.5 -70t28.5 -135q-15 -87 -81.5 -135.5t-166.5 -48.5z" />
    <glyph glyph-name="four" unicode="4" 
d="M377 0l35 202h-364l-2 9l460 519h10l-91 -519h101l-2 -9h-101l-35 -202h-11zM59 211h355l88 499z" />
    <glyph glyph-name="five" unicode="5" 
d="M244 -10q-69 0 -127 26t-88 69l9 5q29 -42 83 -66.5t123 -24.5q101 0 176.5 64t92.5 163q16 96 -38 169.5t-162 73.5q-124 0 -213 -94l-9 3l107 352h377l-1 -9h-370l-99 -329q88 85 209 86q112 0 168.5 -77t39.5 -176q-17 -102 -94 -168.5t-184 -66.5z" />
    <glyph glyph-name="six" unicode="6" 
d="M275 -10q-107 0 -169 77t-43 184q10 56 46 105l314 374h13l-275 -327q62 49 137 49q109 0 171 -80t44 -181q-17 -91 -85 -146t-153 -55zM276 -1q81 0 146.5 54t80.5 140q17 97 -42 173t-163 76q-81 0 -146.5 -55.5t-78.5 -136.5q-18 -102 40.5 -176.5t162.5 -74.5z" />
    <glyph glyph-name="seven" unicode="7" 
d="M129 0l457 721h-426l1 9h438l-1 -9l-456 -721h-13z" />
    <glyph glyph-name="eight" unicode="8" 
d="M259 -10q-110 0 -166.5 66t-39.5 151q14 78 73.5 127.5t144.5 62.5q-59 13 -97.5 61t-25.5 117q12 72 69.5 118.5t146.5 46.5q96 0 145.5 -55.5t36.5 -132.5q-10 -63 -62.5 -106.5t-123.5 -51.5q77 -14 123.5 -73t32.5 -143q-15 -82 -79 -135t-178 -53zM260 -1
q106 0 169 51t77 129q15 90 -42 151t-149 61q-102 0 -170.5 -53.5t-82.5 -131.5q-14 -83 38 -145t160 -62zM316 399q88 0 148.5 44t71.5 109q13 74 -33.5 126.5t-139.5 52.5q-84 0 -139 -44t-67 -113q-14 -73 37 -124t122 -51z" />
    <glyph glyph-name="nine" unicode="9" 
d="M209 0l267 317q-65 -53 -146 -53q-111 0 -175.5 80.5t-45.5 187.5q16 93 86 150.5t159 57.5q110 0 174.5 -79.5t44.5 -190.5q-11 -65 -54 -115l-297 -355h-13zM330 273q83 0 151 57.5t82 140.5q18 106 -42.5 183t-166.5 77q-85 0 -152.5 -56t-82.5 -145
q-18 -101 42.5 -179t168.5 -78z" />
    <glyph glyph-name="colon" unicode=":" horiz-adv-x="143" 
d="M14 0l24 137h10l-24 -137h-10zM78 363l24 137h10l-24 -137h-10z" />
    <glyph glyph-name="semicolon" unicode=";" horiz-adv-x="143" 
d="M78 363l24 137h10l-24 -137h-10zM-28 -102l76 179h12l-79 -179h-9z" />
    <glyph glyph-name="less" unicode="&#x3c;" horiz-adv-x="460" 
d="M397 211l-342 152l2 11l395 146l-2 -11l-382 -141l331 -146z" />
    <glyph glyph-name="equal" unicode="=" horiz-adv-x="460" 
d="M68 438l2 9h370l-2 -9h-370zM40 279l2 10h370l-2 -10h-370z" />
    <glyph glyph-name="greater" unicode="&#x3e;" horiz-adv-x="460" 
d="M29 210l2 12l381 140l-330 147l2 10l342 -152l-2 -10z" />
    <glyph glyph-name="question" unicode="?" horiz-adv-x="484" 
d="M189 192l1 7q9 57 32 101t51 68t60 47t59 39.5t48 44t27 62.5q14 77 -39 123.5t-136 46.5q-86 0 -148 -54l-7 6q63 57 156 57q87 0 143 -49.5t41 -131.5q-6 -36 -27.5 -64t-48.5 -45t-59 -39.5t-59.5 -46t-50.5 -66.5t-32 -99l-1 -7h-10zM156 0l24 137h10l-24 -137h-10z
" />
    <glyph glyph-name="at" unicode="@" horiz-adv-x="860" 
d="M393 -133q-114 0 -197.5 58t-118 153t-14.5 206q25 144 139 238.5t261 94.5q108 0 189.5 -52t117.5 -134.5t20 -174.5q-12 -75 -55 -132t-104 -57q-51 0 -75.5 32.5t-17.5 86.5q-20 -49 -61.5 -84.5t-101.5 -35.5q-66 0 -101 51t-19 126q17 78 73.5 130.5t126.5 52.5
q58 0 86 -37.5t25 -89.5l31 121h8l-49 -194q-20 -74 2 -112t74 -38q54 0 95 54.5t54 127.5q16 89 -18.5 169t-114.5 130.5t-186 50.5q-143 0 -254 -92.5t-136 -233.5q-19 -106 13.5 -198.5t113.5 -150t195 -57.5q179 0 296 137l8 -6q-120 -140 -305 -140zM376 76
q68 0 113 48.5t63 122.5q17 73 -8 121.5t-90 48.5q-64 0 -118 -50.5t-71 -125.5q-16 -70 16 -117.5t95 -47.5z" />
    <glyph glyph-name="A" unicode="A" horiz-adv-x="684" 
d="M2 0l419 730h10l164 -730h-10l-56 250h-373l-143 -250h-11zM424 719l-263 -460h366z" />
    <glyph glyph-name="B" unicode="B" horiz-adv-x="658" 
d="M39 0l128 730h278q80 1 133 -57.5t39 -136.5q-11 -62 -56 -106t-106 -53q63 -14 101 -71.5t27 -126.5q-14 -77 -74 -128t-140 -51h-330zM419 374h-304l-64 -365h320q75 0 132.5 49t69.5 122q13 76 -35 135t-119 59zM444 721h-268l-60 -338h312q64 0 116.5 44.5
t63.5 109.5q13 72 -37.5 128.5t-126.5 55.5z" />
    <glyph glyph-name="C" unicode="C" horiz-adv-x="808" 
d="M420 -10q-174 0 -268.5 123t-63.5 298q26 143 142 236t257 93q212 0 301 -162l-9 -5q-84 158 -292 158q-139 0 -251.5 -91.5t-137.5 -231.5q-20 -108 12.5 -201t114 -150.5t195.5 -57.5q92 0 177 41.5t137 113.5l8 -6q-54 -75 -140 -116.5t-182 -41.5z" />
    <glyph glyph-name="D" unicode="D" horiz-adv-x="701" 
d="M39 0l128 730h167q104 -1 185 -54.5t118.5 -144t19.5 -195.5q-28 -157 -140 -246.5t-263 -89.5h-215zM331 721h-155l-125 -712h203q147 0 256.5 88.5t136.5 240.5q27 156 -66.5 269.5t-249.5 113.5z" />
    <glyph glyph-name="E" unicode="E" horiz-adv-x="603" 
d="M39 0l128 730h454l-2 -9h-443l-61 -344h445l-2 -9h-444l-63 -359h444l-2 -9h-454z" />
    <glyph glyph-name="F" unicode="F" horiz-adv-x="550" 
d="M39 0l128 730h413l-2 -9h-402l-62 -352h403l-2 -9h-403l-63 -360h-10z" />
    <glyph glyph-name="G" unicode="G" horiz-adv-x="864" 
d="M437 -10q-176 0 -278 124.5t-72 295.5q26 145 138 237.5t253 92.5q103 0 182.5 -45.5t128.5 -128.5l-8 -5q-101 170 -303 170q-138 0 -247.5 -91.5t-134.5 -232.5q-18 -106 18.5 -199t122 -151t200.5 -58q156 0 257 98.5t121 250.5h-369l1 9h379v-1q-19 -158 -121 -262
t-268 -104z" />
    <glyph glyph-name="H" unicode="H" horiz-adv-x="656" 
d="M519 0l63 360h-470l-63 -360h-10l128 730h10l-64 -361h470l64 361h10l-128 -730h-10z" />
    <glyph glyph-name="I" unicode="I" horiz-adv-x="197" 
d="M50 0l128 730h10l-128 -730h-10z" />
    <glyph glyph-name="J" unicode="J" horiz-adv-x="486" 
d="M193 -10q-65 0 -109.5 28t-63.5 72l9 5q18 -42 61 -69t104 -27q76 0 123.5 46.5t60.5 122.5l98 562h10l-98 -562q-14 -80 -64 -129t-131 -49z" />
    <glyph glyph-name="K" unicode="K" horiz-adv-x="655" 
d="M39 0l128 730h10l-91 -520l560 520h15l-320 -296l235 -434h-11l-232 427l-250 -232l-34 -195h-10z" />
    <glyph glyph-name="L" unicode="L" horiz-adv-x="545" 
d="M39 0l128 730h10l-126 -720h395l-2 -10h-405z" />
    <glyph glyph-name="M" unicode="M" horiz-adv-x="881" 
d="M39 0l128 730h10l252 -474l444 474h9l-128 -730h-10l124 712l-441 -474l-253 477l-125 -715h-10z" />
    <glyph glyph-name="N" unicode="N" horiz-adv-x="718" 
d="M39 0l128 730h11l405 -714l126 714h9l-128 -730h-9l-407 715l-125 -715h-10z" />
    <glyph glyph-name="O" unicode="O" horiz-adv-x="865" 
d="M432 -10q-172 0 -273.5 124t-71.5 297q26 144 137.5 236.5t250.5 92.5q90 0 163 -37.5t115.5 -98t60 -136.5t3.5 -154q-25 -143 -135.5 -233.5t-249.5 -90.5zM433 -1q135 0 242.5 89.5t131.5 227.5q18 102 -15 196.5t-117 156.5t-201 62q-136 0 -244.5 -91t-132.5 -232
q-19 -110 19 -204t122.5 -149.5t194.5 -55.5z" />
    <glyph glyph-name="P" unicode="P" horiz-adv-x="615" 
d="M39 0l128 730h183q121 0 192.5 -74t51.5 -187q-17 -100 -94 -160t-194 -60h-213l-44 -249h-10zM348 721h-172l-82 -463h212q113 0 187.5 59t90.5 154q19 108 -49.5 179t-186.5 71z" />
    <glyph glyph-name="Q" unicode="Q" horiz-adv-x="865" 
d="M432 -10q-172 0 -273.5 124t-71.5 297q26 144 137.5 236.5t250.5 92.5q90 0 163 -37.5t115.5 -98t60 -136.5t3.5 -154q-15 -82 -59.5 -148t-110.5 -110q44 -47 103 -47h16l-2 -9h-15q-42 0 -74 21t-52 51t-39.5 60t-47.5 51t-65 21h-20l2 9h19q32 0 58.5 -16t41 -34.5
t35.5 -51.5t34 -48q64 42 108 107.5t58 145.5q18 102 -15 196.5t-117 156.5t-201 62q-136 0 -244.5 -91t-132.5 -232q-19 -110 19 -204t122.5 -149.5t194.5 -55.5q77 0 151 33l7 -7q-80 -35 -159 -35z" />
    <glyph glyph-name="R" unicode="R" 
d="M487 0h-8q-67 0 -118 53.5t-74 120t-25 128.5h86q80 0 142 54.5t76 133.5q16 96 -43 163t-155 68h-193l-126 -721h-10l128 730h202q98 0 160.5 -70.5t45.5 -170.5q-14 -83 -78.5 -139.5t-149.5 -56.5h-75q3 -43 17 -90t38.5 -91.5t65 -73.5t88.5 -29h8z" />
    <glyph glyph-name="S" unicode="S" horiz-adv-x="540" 
d="M247 -10q-151 0 -228 124l9 6q73 -121 220 -121q84 0 140.5 42.5t68.5 112.5q8 44 -2.5 80t-39 63.5t-56.5 45.5t-71 39q-41 20 -65.5 35t-54.5 41.5t-41 61t-3 77.5q11 63 64 103t134 40q62 0 114.5 -27t84.5 -78l-8 -5q-62 101 -192 101q-76 0 -126.5 -37.5
t-61.5 -97.5q-6 -33 2.5 -62.5t21.5 -48.5t40.5 -39t45 -29.5t49.5 -25.5q34 -17 57.5 -30.5t51 -36t43 -45t23 -55.5t0.5 -70q-14 -75 -72.5 -119.5t-147.5 -44.5z" />
    <glyph glyph-name="T" unicode="T" horiz-adv-x="629" 
d="M276 0h-10l126 721h-249l2 9h508l-2 -9h-249z" />
    <glyph glyph-name="U" unicode="U" horiz-adv-x="662" 
d="M311 -10q-127 0 -187 78t-39 195l82 467h10l-83 -469q-20 -111 38 -186.5t181 -75.5q95 0 164 60t85 151l91 520h10l-91 -520q-17 -97 -88.5 -158.5t-172.5 -61.5z" />
    <glyph glyph-name="V" unicode="V" horiz-adv-x="685" 
d="M301 0h-8l-164 730h10l160 -715l412 715h11z" />
    <glyph glyph-name="W" unicode="W" horiz-adv-x="1083" 
d="M764 0h-11l-133 714l-376 -714h-12l-91 730h10l89 -714l378 714h8l134 -714l340 714h11z" />
    <glyph glyph-name="X" unicode="X" horiz-adv-x="647" 
d="M551 0l-203 375l-336 -375h-14l345 384l-189 346h11l185 -340l302 340h13l-311 -348l208 -382h-11z" />
    <glyph glyph-name="Y" unicode="Y" horiz-adv-x="598" 
d="M250 0l61 351l-184 379h11l180 -372l309 372h12l-319 -383l-60 -347h-10z" />
    <glyph glyph-name="Z" unicode="Z" horiz-adv-x="581" 
d="M486 0h-477l1 10l586 711h-451l2 9h464l-2 -9l-587 -712h466z" />
    <glyph glyph-name="bracketleft" unicode="[" horiz-adv-x="414" 
d="M1 -230l168 960h273l-1 -9h-263l-166 -942h263l-2 -9h-272z" />
    <glyph glyph-name="backslash" unicode="\" horiz-adv-x="398" 
d="M315 0l-217 730h10l218 -730h-11z" />
    <glyph glyph-name="bracketright" unicode="]" horiz-adv-x="416" 
d="M-9 -230l2 8h261l167 943h-263l2 9h273l-169 -960h-273z" />
    <glyph glyph-name="asciicircum" unicode="^" horiz-adv-x="491" 
d="M141 479l159 164h3l105 -164h-12l-97 151l-144 -151h-14z" />
    <glyph glyph-name="underscore" unicode="_" horiz-adv-x="460" 
d="M-9 -55l4 9h369l-2 -9h-371z" />
    <glyph glyph-name="grave" unicode="`" horiz-adv-x="491" 
d="M348 583l-105 137h14l100 -137h-9z" />
    <glyph glyph-name="a" unicode="a" horiz-adv-x="660" 
d="M297 -10q-119 0 -189 87t-49 205q18 101 95 164.5t176 63.5t162.5 -63t69.5 -155l37 208h10l-71 -398q-8 -44 7 -68.5t51 -24.5h11l-1 -9h-12q-40 0 -57 29t-8 76l10 52q-31 -76 -96.5 -121.5t-145.5 -45.5zM297 -1q93 0 165.5 64t89.5 161q19 108 -44 192.5t-178 84.5
q-96 0 -170.5 -62t-91.5 -159q-19 -114 47.5 -197.5t181.5 -83.5z" />
    <glyph glyph-name="b" unicode="b" horiz-adv-x="647" 
d="M326 -10q-102 0 -166 63.5t-70 154.5l-36 -208h-9l128 730h9l-69 -393q32 77 100.5 125t148.5 48q117 0 185 -89t47 -205q-18 -99 -94.5 -162.5t-173.5 -63.5zM326 -1q93 0 167.5 62.5t90.5 156.5q20 111 -44.5 197t-178.5 86q-92 0 -167.5 -65.5t-92.5 -164.5
q-19 -107 45.5 -189.5t179.5 -82.5z" />
    <glyph glyph-name="c" unicode="c" horiz-adv-x="591" 
d="M300 -10q-120 0 -191 86.5t-50 204.5q18 101 95 165t175 64q75 0 132 -36.5t86 -97.5l-9 -4q-27 58 -82 93.5t-127 35.5q-95 0 -169.5 -62t-91.5 -160q-20 -112 48 -196t184 -84q65 0 123 29.5t94 82.5l9 -5q-37 -55 -97.5 -85.5t-128.5 -30.5z" />
    <glyph glyph-name="d" unicode="d" horiz-adv-x="659" 
d="M297 -10q-119 0 -189 87t-49 205q18 101 95 164.5t176 63.5t161.5 -62t70.5 -154l78 436h10l-113 -625q-8 -46 7.5 -71t53.5 -25h11l-1 -9h-12q-40 0 -58.5 27.5t-8.5 79.5l8 46q-32 -74 -96.5 -118.5t-143.5 -44.5zM297 -1q93 0 165.5 64t89.5 161q19 108 -44 192.5
t-178 84.5q-96 0 -170.5 -62t-91.5 -159q-19 -114 47.5 -197.5t181.5 -83.5z" />
    <glyph glyph-name="e" unicode="e" horiz-adv-x="597" 
d="M310 -10q-133 0 -203.5 80.5t-47.5 205.5q18 107 103.5 170.5t191.5 63.5q98 0 150.5 -46t42.5 -109q-11 -63 -71 -99t-160 -36q-55 0 -129 16t-120 36q-20 -119 48 -196t195 -77q119 0 197 78l7 -7q-82 -80 -204 -80zM354 501q-102 0 -183.5 -60.5t-101.5 -161.5
q48 -20 121.5 -35t125.5 -15q94 0 152 33.5t69 94.5q10 58 -39 101t-144 43z" />
    <glyph glyph-name="f" unicode="f" horiz-adv-x="329" 
d="M39 492l2 8h123l12 69q16 94 53.5 127.5t121.5 33.5h13l-2 -9h-12q-79 0 -113.5 -31.5t-50.5 -121.5l-12 -68h150l-2 -8h-150l-88 -506q-14 -82 -49.5 -110.5t-110.5 -28.5h-4l2 10h3q72 0 104 27t46 102l87 506h-123z" />
    <glyph glyph-name="g" unicode="g" horiz-adv-x="655" 
d="M297 -10q-119 0 -189 87t-49 205q18 101 95 164.5t176 63.5q101 0 164.5 -64.5t68.5 -158.5q29 169 38 213h9l-87 -489q-45 -251 -256 -251q-165 0 -216 133l9 3q50 -126 207 -126q203 0 247 241q16 89 26 149q-30 -77 -96 -123.5t-147 -46.5zM297 -1q93 0 165.5 64
t89.5 161q19 108 -44 192.5t-178 84.5q-96 0 -170.5 -62t-91.5 -159q-19 -114 47.5 -197.5t181.5 -83.5z" />
    <glyph glyph-name="h" unicode="h" horiz-adv-x="621" 
d="M45 0l128 730h9l-67 -375q26 67 88.5 111t138.5 44q111 0 162 -72t31 -179l-30 -156q-18 -95 54 -95h15l-2 -8h-14q-39 0 -56 26t-6 79l30 154q19 102 -28.5 172t-155.5 70q-86 0 -152.5 -56.5t-81.5 -137.5l-54 -307h-9z" />
    <glyph glyph-name="i" unicode="i" horiz-adv-x="196" 
d="M125 0q-39 0 -56 27t-9 77l70 396h9l-69 -398q-8 -44 7 -69t51 -25h11l-2 -8h-12zM144 582l26 151h10l-27 -151h-9z" />
    <glyph glyph-name="j" unicode="j" horiz-adv-x="194" 
d="M-121 -227l2 9q77 0 109 31t49 121l101 566h9l-100 -567q-17 -94 -52 -127t-116 -33h-2zM154 582l27 151h9l-26 -151h-10z" />
    <glyph glyph-name="k" unicode="k" horiz-adv-x="527" 
d="M469 0q-43 0 -62.5 12.5t-41.5 49.5l-127 218l-159 -135l-25 -145h-9l128 730h9l-100 -572l402 342h14l-253 -214l127 -216q22 -38 40 -50t59 -12h13l-2 -8h-13z" />
    <glyph glyph-name="l" unicode="l" horiz-adv-x="197" 
d="M125 0q-39 0 -56.5 27.5t-7.5 79.5l110 623h9l-109 -623q-18 -99 58 -99h11l-2 -8h-13z" />
    <glyph glyph-name="m" unicode="m" horiz-adv-x="992" 
d="M48 0l75 399q9 45 -7 69t-51 24h-11l2 8h11q39 0 56.5 -26.5t7.5 -77.5l-6 -30q26 65 82 105t129 39q78 1 128 -49t47 -120q19 72 75.5 120.5t137.5 48.5q105 0 154 -72.5t29 -178.5l-30 -156q-10 -47 4.5 -71t49.5 -24h15l-2 -8h-14q-83 0 -62 105l30 154
q20 104 -26 173t-148 69q-86 0 -141.5 -55.5t-72.5 -141.5l-60 -304h-9l59 301q17 85 -33 142.5t-131 57.5q-86 0 -145.5 -54.5t-75.5 -138.5l-58 -308h-9z" />
    <glyph glyph-name="n" unicode="n" horiz-adv-x="628" 
d="M48 0l75 399q17 93 -58 93h-11l2 8h11q38 0 56.5 -25.5t8.5 -78.5l-7 -36q27 65 88.5 107.5t136.5 42.5q110 0 161.5 -72t31.5 -179l-31 -156q-18 -95 54 -95h16l-2 -8h-15q-82 0 -62 105l30 154q20 102 -28 172t-156 70q-82 0 -147.5 -52.5t-84.5 -129.5l-1 -7
q-1 -1 -1 -4l-58 -308h-9z" />
    <glyph glyph-name="o" unicode="o" horiz-adv-x="625" 
d="M299 -10q-120 0 -190.5 87t-49.5 205q18 101 94.5 164.5t173.5 63.5q80 0 140 -43t85.5 -111t12.5 -141q-18 -98 -94 -161.5t-172 -63.5zM299 -1q92 0 166 62t91 156q19 110 -47 197t-182 87q-94 0 -168 -62t-91 -159q-19 -112 47.5 -196.5t183.5 -84.5z" />
    <glyph glyph-name="p" unicode="p" horiz-adv-x="655" 
d="M334 -10q-101 0 -165 62.5t-71 151.5l-76 -434h-10l110 626q17 96 -57 96h-10l2 8h10q41 0 58 -28t7 -79l-10 -52q32 75 100.5 122t147.5 47q117 0 185 -89t47 -205q-18 -99 -94.5 -162.5t-173.5 -63.5zM334 -1q93 0 167.5 62.5t90.5 156.5q20 111 -44.5 197t-178.5 86
q-92 0 -167.5 -65.5t-92.5 -164.5q-19 -107 45.5 -189.5t179.5 -82.5z" />
    <glyph glyph-name="q" unicode="q" horiz-adv-x="651" 
d="M297 -10q-119 0 -189 87t-49 205q18 101 95 164.5t176 63.5q101 0 164.5 -65t68.5 -159l37 214h10l-128 -730h-10q53 302 69 391q-30 -78 -96.5 -124.5t-147.5 -46.5zM297 -1q93 0 165.5 64t89.5 161q19 108 -44 192.5t-178 84.5q-96 0 -170.5 -62t-91.5 -159
q-19 -114 47.5 -197.5t181.5 -83.5z" />
    <glyph glyph-name="r" unicode="r" horiz-adv-x="382" 
d="M48 0l75 399q16 93 -58 93h-11l2 8h11q38 0 56.5 -25.5t8.5 -78.5l-8 -41q27 64 85.5 104.5t130.5 40.5h37l-2 -9h-35q-85 0 -148 -55t-78 -136l-57 -300h-9z" />
    <glyph glyph-name="s" unicode="s" horiz-adv-x="496" 
d="M241 -10q-70 0 -126.5 28t-88.5 74l9 7q30 -46 84.5 -73t121.5 -27q75 0 118 32t51 79q4 23 -4 43t-19.5 33t-39 28t-42.5 21.5t-50 20.5q-45 17 -65 26.5t-48.5 28t-37.5 41t-4 51.5q9 50 55.5 79t114.5 28q56 0 106.5 -18.5t81.5 -46.5l-7 -7q-69 64 -182 64
q-64 0 -108 -26.5t-52 -73.5q-4 -21 2.5 -39t16 -29.5t33 -25t38.5 -19.5t47 -19l15 -6q94 -39 124 -64q43 -38 34 -91q-8 -52 -53.5 -85.5t-124.5 -33.5z" />
    <glyph glyph-name="t" unicode="t" horiz-adv-x="307" 
d="M52 492l2 8h83l21 120l11 8l-23 -128h150l-2 -8h-150l-57 -323q-16 -92 9.5 -126t113.5 -34l-2 -9h-1q-90 0 -118 37t-11 132l57 323h-83z" />
    <glyph glyph-name="u" unicode="u" horiz-adv-x="617" 
d="M271 -10q-110 0 -158.5 73t-27.5 179l31 157q16 93 -59 93h-11l1 8h13q40 0 57.5 -26.5t7.5 -76.5l-31 -155q-21 -102 25 -172t153 -70q85 0 149 55t80 138l60 307h9l-76 -394q-20 -98 53 -98h14l-1 -8h-15q-82 0 -60 108l6 31q-27 -67 -86.5 -108t-133.5 -41z" />
    <glyph glyph-name="v" unicode="v" horiz-adv-x="591" 
d="M249 -10q-97 0 -142 70t-24 174l33 165q17 93 -58 93h-12l2 8h12q40 0 57.5 -26.5t7.5 -76.5l-33 -164q-20 -100 22.5 -166.5t134.5 -66.5q103 0 169 78.5t90 205.5q19 103 -3 216h10q21 -117 2 -217q-24 -131 -92.5 -212t-175.5 -81z" />
    <glyph glyph-name="w" unicode="w" horiz-adv-x="991" 
d="M254 -10q-102 0 -146 73t-23 179l31 157q17 93 -58 93h-12l2 8h12q40 0 57.5 -26.5t7.5 -76.5l-31 -155q-21 -101 21 -171.5t139 -70.5q83 0 144.5 60.5t75.5 145.5l57 294h9l-57 -294q-18 -95 25.5 -151t136.5 -56q105 0 172 79t91 206q19 100 -4 216h10q21 -120 3 -217
q-25 -131 -94 -212t-178 -81q-82 0 -130 45t-46 124q-24 -74 -82 -121.5t-133 -47.5z" />
    <glyph glyph-name="x" unicode="x" horiz-adv-x="543" 
d="M-1 0l263 257l-47 127q-28 74 -48 91.5t-74 17.5h-11l2 8h11q55 0 77.5 -19t50.5 -95l46 -124l244 237h13l-254 -247l54 -143q25 -68 46 -85t85 -17h6l-2 -8h-6q-67 0 -89.5 18t-48.5 89l-52 141l-253 -248h-13z" />
    <glyph glyph-name="y" unicode="y" horiz-adv-x="612" 
d="M240 -240q-73 0 -129 36t-80 97l10 3q23 -59 75.5 -92.5t123.5 -33.5q183 0 228 241l24 129q-27 -67 -87 -108.5t-133 -41.5q-111 0 -159.5 72.5t-27.5 179.5l31 157q16 93 -59 93h-11l2 8h13q40 0 57 -26.5t7 -76.5l-31 -155q-20 -102 26 -172t152 -70q85 0 149.5 55.5
t80.5 137.5l60 307h9l-93 -489q-23 -122 -80 -186.5t-158 -64.5z" />
    <glyph glyph-name="z" unicode="z" horiz-adv-x="562" 
d="M22 0l1 9l505 483h-414l2 8h427l-1 -9l-505 -482h424l-2 -9h-437z" />
    <glyph glyph-name="braceleft" unicode="{" horiz-adv-x="415" 
d="M294 -230h-7q-129 0 -169.5 47t-17.5 170l27 148q10 59 -4.5 84.5t-72.5 25.5l2 11q58 0 82.5 23.5t35.5 89.5l24 144q22 123 77 170t181 47h11l-1 -9q-130 0 -183.5 -43.5t-74.5 -164.5l-25 -144q-10 -59 -30 -86t-61 -34q38 -8 48.5 -36t1.5 -78l-28 -148
q-22 -121 16.5 -164.5t169.5 -43.5z" />
    <glyph glyph-name="bar" unicode="|" horiz-adv-x="163" 
d="M-9 -230l170 960h10l-169 -960h-11z" />
    <glyph glyph-name="braceright" unicode="}" horiz-adv-x="437" 
d="M-11 -230l1 9q131 0 184.5 43.5t74.5 164.5l25 145q9 58 29 84.5t61 33.5q-37 8 -47.5 36t-1.5 79l28 148q22 121 -16.5 164.5t-169.5 43.5l2 9h7q129 0 169.5 -47t17.5 -170l-27 -147q-10 -60 4.5 -85.5t72.5 -25.5l-2 -11q-58 0 -82.5 -23.5t-35.5 -89.5l-24 -144
q-22 -123 -77 -170t-181 -47h-12z" />
    <glyph glyph-name="asciitilde" unicode="~" horiz-adv-x="445" 
d="M108 594q9 33 32.5 53t53.5 20q31 0 87 -36q51 -33 85 -33q61 0 79 65h9q-8 -35 -32 -54.5t-57 -19.5q-36 0 -89 34q-52 35 -83 35q-56 0 -75 -64h-10z" />
    <glyph glyph-name="exclamdown" unicode="&#xa1;" horiz-adv-x="227" 
d="M15 -230l20 117q55 308 71 403h8q-43 -256 -69 -403l-20 -117h-10zM119 363l24 137h11l-24 -137h-11z" />
    <glyph glyph-name="cent" unicode="&#xa2;" 
d="M232 -129l22 120q-102 7 -155 78.5t-30 195.5q24 129 98.5 187t176.5 58h2l22 121h10l-22 -121q75 -3 124 -43t60 -106l-9 -6q-10 70 -60 107.5t-129 37.5q-96 0 -168 -56t-95 -179q-23 -128 34 -196.5t165 -68.5q159 0 220 145l9 -6q-66 -149 -231 -149h-12l-21 -119
h-11z" />
    <glyph glyph-name="sterling" unicode="&#xa3;" 
d="M119 354l2 9h92q-33 153 -18 238q25 139 173 139q115 0 172 -105l-9 -5q-28 52 -67 76.5t-96 24.5q-140 0 -164 -132q-16 -86 17 -236h183l-2 -9h-179q31 -137 31 -190q0 -24 -4 -44q-5 -23 -13 -42q3 -2 15.5 -11t16.5 -12t15.5 -11t16.5 -10.5t15.5 -9t16.5 -9t16 -6.5
t17.5 -5.5t16 -3t17.5 -1.5q37 0 57 19.5t28 63.5l2 9h10l-2 -10q-9 -49 -32 -70t-64 -21q-11 0 -22.5 2t-20.5 4.5t-22 9t-19.5 10t-21.5 13t-19.5 12.5t-21 15t-19.5 14q-41 -81 -133 -81q-38 0 -65 25t-21 63q5 28 27.5 45t57.5 17q53 0 131 -56q9 22 11 38q2 12 3 26.5
t1 26t-2.5 29.5t-3.5 27.5t-5 31t-5.5 29t-7 32.5t-6.5 31h-96zM100 -2q88 0 126 77q-78 54 -128 54q-32 0 -51 -14.5t-23 -39.5q-6 -33 18 -55t58 -22z" />
    <glyph glyph-name="currency" unicode="&#xa4;" horiz-adv-x="803" 
d="M649 76l-73 85q-82 -67 -184 -58q-105 7 -174 85l-113 -102l-7 8l113 102q-66 81 -59 185q8 107 88 176l-79 95l7 7l79 -96q78 66 183 58q101 -7 171 -82l105 94l6 -8l-104 -93q70 -84 63 -189q-9 -107 -87 -175l73 -85zM394 112q103 -7 180.5 60.5t85.5 171.5
q8 103 -60 182t-171 86t-181 -61t-86 -171q-8 -104 60 -182.5t172 -85.5z" />
    <glyph glyph-name="yen" unicode="&#xa5;" 
d="M94 397l2 9h219l-157 324h11l153 -317l264 317h13l-272 -324h206l-2 -9h-207l-26 -148h207l-2 -9h-206l-42 -240h-10l42 240h-221l2 9h220l26 148h-220z" />
    <glyph glyph-name="brokenbar" unicode="&#xa6;" horiz-adv-x="163" 
d="M91 310l74 420h10l-74 -420h-10zM-5 -230l75 420h10l-74 -420h-11z" />
    <glyph glyph-name="section" unicode="&#xa7;" horiz-adv-x="582" 
d="M263 -10q-70 0 -130 29.5t-90 76.5l9 6q28 -45 86.5 -74t126.5 -29q79 0 133 31.5t64 87.5q4 25 -5 46t-23.5 34.5t-44.5 26.5t-52 19.5t-62 17.5q-33 9 -57.5 17.5t-53 23t-45.5 30.5t-26.5 39.5t-4.5 51.5q7 34 36 61.5t70 41.5q-50 34 -41 91q9 60 64.5 91t139.5 31
q124 0 193 -71l-9 -6q-66 68 -185 68q-78 0 -131.5 -28.5t-62.5 -84.5q-4 -24 4 -43.5t21.5 -32t41.5 -25t50 -19.5t61 -18q35 -10 58 -17.5t53 -21.5t46.5 -29t26 -38t4.5 -50q-6 -34 -37.5 -62.5t-73.5 -41.5q65 -38 54 -103q-9 -60 -66 -93.5t-142 -33.5zM279 270
q94 -26 129 -45q42 14 73 40t37 59q5 26 -4.5 47.5t-25 35.5t-44.5 27.5t-50.5 20.5t-57.5 17q-96 26 -134 49q-41 -13 -69.5 -39t-34.5 -58t7.5 -58t44 -44.5t59.5 -29.5t70 -22z" />
    <glyph glyph-name="dieresis" unicode="&#xa8;" horiz-adv-x="491" 
d="M339 582l24 140h9l-24 -140h-9zM261 582l24 140h9l-24 -140h-9z" />
    <glyph glyph-name="copyright" unicode="&#xa9;" horiz-adv-x="872" 
d="M436 -10q-113 0 -200 57t-126 154t-19 210q25 144 136.5 236.5t250.5 92.5q116 0 202.5 -61t122.5 -158.5t17 -206.5q-25 -143 -135.5 -233.5t-248.5 -90.5zM437 -1q134 0 242 89.5t132 227.5q18 102 -15 196.5t-117 156.5t-201 62q-136 0 -244.5 -91t-133.5 -232
q-19 -107 18 -201t121.5 -151t197.5 -57zM456 171q-89 0 -140 64.5t-36 153.5q13 75 72 123t132 48q105 0 152 -86l-8 -5q-44 81 -144 81q-70 0 -125.5 -45.5t-68.5 -117.5q-15 -82 32.5 -144.5t134.5 -62.5q44 0 85 20.5t67 55.5l9 -4q-28 -38 -71 -59.5t-91 -21.5z" />
    <glyph glyph-name="ordfeminine" unicode="&#xaa;" horiz-adv-x="440" 
d="M424 441q-23 0 -32 16.5t-4 43.5l5 27q-19 -42 -57 -67t-86 -25q-67 0 -105.5 49.5t-26.5 118.5q11 58 55.5 94.5t105.5 36.5q53 0 88.5 -31t42.5 -79l19 105h10l-42 -230q-9 -49 29 -49h12l-1 -10h-13zM250 445q57 0 100.5 38t52.5 94q12 59 -24.5 104.5t-100.5 45.5
q-57 0 -99.5 -35.5t-51.5 -89.5q-11 -66 24.5 -111.5t98.5 -45.5z" />
    <glyph glyph-name="guillemotleft" unicode="&#xab;" horiz-adv-x="399" 
d="M177 125l-118 119l2 9l161 120l-3 -14l-150 -112l110 -111zM313 125l-117 119l2 9l160 120l-3 -14l-150 -112l111 -111z" />
    <glyph glyph-name="logicalnot" unicode="&#xac;" horiz-adv-x="603" 
d="M521 194l47 272h-497l1 9h508l-49 -281h-10z" />
    <glyph glyph-name="uni00AD" unicode="&#xad;" horiz-adv-x="460" 
d="M48 251l2 9h370l-2 -9h-370z" />
    <glyph glyph-name="registered" unicode="&#xae;" horiz-adv-x="469" 
d="M275 430q-71 0 -113 51t-29 122q10 60 56.5 98.5t103.5 38.5q73 0 113.5 -53.5t28.5 -122.5q-10 -59 -56 -96.5t-104 -37.5zM276 439q53 0 96 36t53 91q12 62 -25 113.5t-107 51.5q-54 0 -97 -37t-53 -93q-12 -65 27 -113.5t106 -48.5zM216 508l28 155h65q22 0 35.5 -15
t10.5 -36q-3 -18 -17 -29t-34 -11h-13l38 -64h-10l-44 73h29q37 0 42 32q3 18 -7.5 29.5t-30.5 11.5h-58l-25 -146h-9z" />
    <glyph glyph-name="macron" unicode="&#xaf;" horiz-adv-x="491" 
d="M162 583l2 9h264l-2 -9h-264z" />
    <glyph glyph-name="degree" unicode="&#xb0;" horiz-adv-x="417" 
d="M278 595q-30 0 -51.5 21.5t-21.5 51.5t21.5 51t51.5 21t51 -21t21 -51t-21 -51.5t-51 -21.5zM278 604q26 0 44.5 19t18.5 44q0 26 -18.5 45t-44.5 19t-45 -19t-19 -45t19 -44.5t45 -18.5z" />
    <glyph glyph-name="plusminus" unicode="&#xb1;" horiz-adv-x="460" 
d="M70 451l2 9h180l32 179h9l-32 -179h181l-2 -9h-180l-32 -182h-9l32 182h-181zM16 139l2 10h370l-2 -10h-370z" />
    <glyph glyph-name="twosuperior" unicode="&#xb2;" horiz-adv-x="370" 
d="M62 312l2 14q11 51 48.5 88t109.5 77q5 3 27 15.5t29.5 17t25 16t25.5 19.5t19 19.5t16.5 23.5t7.5 26q8 42 -23 73t-85 31q-35 0 -67.5 -16t-50.5 -41l-8 6q19 26 53.5 42.5t73.5 16.5q57 0 91 -33.5t26 -79.5q-2 -11 -6 -21.5t-11.5 -20.5t-13 -17.5t-17.5 -17t-18 -14
t-22 -14t-21 -13t-23.5 -13.5t-22.5 -12q-71 -40 -107 -75t-46 -83l-1 -5h257l-1 -9h-267z" />
    <glyph glyph-name="threesuperior" unicode="&#xb3;" horiz-adv-x="324" 
d="M166 306q-37 0 -68.5 14.5t-47.5 35.5l8 5q15 -20 44.5 -33t64.5 -13q55 0 92 26.5t46 73.5q9 48 -22.5 80t-83.5 32h-35l2 9h36q49 0 84.5 25t42.5 67q9 45 -21 74.5t-76 29.5q-61 0 -109 -41l-6 7q49 42 115 42q51 0 83 -32.5t24 -80.5q-8 -38 -35.5 -63.5t-69.5 -32.5
q42 -11 65 -43.5t15 -74.5q-10 -51 -49.5 -79t-98.5 -28z" />
    <glyph glyph-name="acute" unicode="&#xb4;" horiz-adv-x="491" 
d="M222 583l146 137h15l-150 -137h-11z" />
    <glyph glyph-name="mu" unicode="&#xb5;" horiz-adv-x="605" 
d="M-10 -230l129 731h10l-46 -259q-20 -102 25 -172t151 -70q85 0 149 55t80 138l60 307h9l-76 -394q-18 -97 55 -97h13l-2 -9h-13q-83 0 -61 108l6 31q-28 -67 -87.5 -108t-132.5 -41q-90 0 -138.5 49.5t-50.5 129.5l-70 -399h-10z" />
    <glyph glyph-name="mu" unicode="&#x3bc;" horiz-adv-x="605" 
d="M-10 -230l129 731h10l-46 -259q-20 -102 25 -172t151 -70q85 0 149 55t80 138l60 307h9l-76 -394q-18 -97 55 -97h13l-2 -9h-13q-83 0 -61 108l6 31q-28 -67 -87.5 -108t-132.5 -41q-90 0 -138.5 49.5t-50.5 129.5l-70 -399h-10z" />
    <glyph glyph-name="paragraph" unicode="&#xb6;" horiz-adv-x="504" 
d="M284 0l53 302h-91q-92 0 -143.5 67.5t-35.5 158.5q16 88 88.5 145t165.5 57h189l-128 -730h-10l127 722h-78l-127 -722h-10z" />
    <glyph glyph-name="periodcentered" unicode="&#xb7;" horiz-adv-x="143" 
d="M58 186l24 137h11l-24 -137h-11z" />
    <glyph glyph-name="cedilla" unicode="&#xb8;" horiz-adv-x="491" 
d="M172 -212q-75 0 -123 48l8 6q44 -46 116 -46q47 0 79.5 18t37.5 49q5 33 -23.5 52t-84.5 19h-10l13 66h9l-11 -58q60 0 91 -22t25 -58q-6 -35 -40.5 -54.5t-86.5 -19.5z" />
    <glyph glyph-name="onesuperior" unicode="&#xb9;" horiz-adv-x="271" 
d="M61 308l1 9h85l67 382q-10 -20 -32 -33.5t-50 -13.5h-5l2 9h3q37 0 59.5 21t28.5 48h9l-73 -413h84l-2 -9h-177z" />
    <glyph glyph-name="ordmasculine" unicode="&#xba;" horiz-adv-x="418" 
d="M261 435q-70 0 -110.5 50.5t-27.5 119.5q10 58 54.5 94.5t100.5 36.5q69 0 110 -51t29 -121q-12 -57 -56.5 -93t-99.5 -36zM261 444q53 0 94.5 34t51.5 88q12 64 -25.5 113t-103.5 49q-53 0 -94.5 -35t-51.5 -89q-12 -65 25.5 -112.5t103.5 -47.5z" />
    <glyph glyph-name="guillemotright" unicode="&#xbb;" horiz-adv-x="399" 
d="M227 373l118 -119l-2 -9l-161 -121l3 14l150 112l-110 112zM91 373l117 -119l-2 -9l-160 -121l3 14l149 111l-110 113z" />
    <glyph glyph-name="onequarter" unicode="&#xbc;" horiz-adv-x="691" 
d="M544 0l17 97h-229v10l286 315h9l-56 -316h75l-2 -9h-74l-17 -97h-9zM345 106h217l52 300zM55 0l656 730h13l-655 -730h-14zM61 308l1 9h85l67 382q-10 -20 -32 -33.5t-50 -13.5h-5l2 9h3q37 0 59.5 21t28.5 48h9l-73 -413h84l-2 -9h-177z" />
    <glyph glyph-name="onehalf" unicode="&#xbd;" horiz-adv-x="799" 
d="M61 0l656 730h13l-655 -730h-14zM436 0l2 14q11 51 48.5 88t109.5 77q5 3 27 15.5t29.5 17t25 16t25.5 19.5t19 19.5t16.5 23.5t7.5 26q8 42 -23 73t-85 31q-35 0 -67.5 -16t-50.5 -41l-8 6q19 26 53.5 42.5t73.5 16.5q57 0 91 -33.5t26 -79.5q-2 -11 -6 -21.5
t-11.5 -20.5t-13 -17.5t-17.5 -17t-18 -14t-22 -14t-21 -13t-23.5 -13.5t-22.5 -12q-71 -40 -107 -75t-46 -83l-1 -5h257l-1 -9h-267zM60 308l1 9h85l67 382q-10 -20 -32 -33.5t-50 -13.5h-5l2 9h3q37 0 59.5 21t28.5 48h9l-73 -413h84l-2 -9h-177z" />
    <glyph glyph-name="threequarters" unicode="&#xbe;" horiz-adv-x="727" 
d="M580 0l17 97h-229v10l286 315h9l-56 -316h75l-2 -9h-74l-17 -97h-9zM381 106h217l52 300zM91 0l656 730h13l-655 -730h-14zM166 302q-37 0 -68.5 14.5t-47.5 35.5l8 5q15 -20 44.5 -33t64.5 -13q55 0 92 26.5t46 73.5q9 48 -22.5 80t-83.5 32h-35l2 9h36q49 0 84.5 25
t42.5 67q9 45 -21 74.5t-76 29.5q-61 0 -109 -41l-6 7q49 42 115 42q51 0 83 -32.5t24 -80.5q-8 -38 -35.5 -63.5t-69.5 -32.5q42 -11 65 -43.5t15 -74.5q-10 -51 -49.5 -79t-98.5 -28z" />
    <glyph glyph-name="questiondown" unicode="&#xbf;" horiz-adv-x="484" 
d="M192 -240q-87 0 -143 49.5t-40 131.5q8 43 35.5 74t63 53t71.5 47.5t65.5 72.5t40.5 113l1 7h11l-1 -7q-9 -57 -32 -101t-51 -68t-60 -47t-59 -39.5t-48.5 -44t-27.5 -62.5q-14 -77 39 -123.5t136 -46.5q88 0 148 54l8 -6q-65 -57 -157 -57zM330 500l-24 -137h-11l24 137
h11z" />
    <glyph glyph-name="Agrave" unicode="&#xc0;" horiz-adv-x="684" 
d="M2 0l419 730h10l164 -730h-10l-56 250h-373l-143 -250h-11zM424 719l-263 -460h366zM433 813l-105 137h14l100 -137h-9z" />
    <glyph glyph-name="Aacute" unicode="&#xc1;" horiz-adv-x="684" 
d="M2 0l419 730h10l164 -730h-10l-56 250h-373l-143 -250h-11zM424 719l-263 -460h366zM437 813l146 137h15l-150 -137h-11z" />
    <glyph glyph-name="Acircumflex" unicode="&#xc2;" horiz-adv-x="684" 
d="M2 0l419 730h10l164 -730h-10l-56 250h-373l-143 -250h-11zM424 719l-263 -460h366zM317 812l143 138h9l95 -138h-11l-89 130l-134 -130h-13z" />
    <glyph glyph-name="Atilde" unicode="&#xc3;" horiz-adv-x="684" 
d="M2 0l419 730h10l164 -730h-10l-56 250h-373l-143 -250h-11zM424 719l-263 -460h366zM254 813q7 34 31.5 57t56.5 23q6 0 11.5 -0.5t11.5 -2.5t10.5 -3t11.5 -4t10 -4.5t10.5 -6l10 -6t10.5 -6.5t10 -6q57 -37 95 -37q30 0 51.5 18.5t28.5 54.5h10q-7 -39 -32 -60.5
t-59 -21.5q-39 0 -99 38t-92 38q-28 0 -49.5 -20t-27.5 -51h-10z" />
    <glyph glyph-name="Adieresis" unicode="&#xc4;" horiz-adv-x="684" 
d="M2 0l419 730h10l164 -730h-10l-56 250h-373l-143 -250h-11zM424 719l-263 -460h366zM474 812l24 140h9l-24 -140h-9zM396 812l24 140h9l-24 -140h-9z" />
    <glyph glyph-name="Aring" unicode="&#xc5;" horiz-adv-x="684" 
d="M2 0l412 719q-30 5 -47.5 30t-12.5 59q5 31 30 52t56 21q38 0 59.5 -27t15.5 -60q-5 -30 -28 -52t-54 -24l162 -718h-10l-56 250h-373l-143 -250h-11zM424 718l-263 -459h366zM421 730h10v-3q28 1 49 21t26 47q5 30 -13.5 53.5t-52.5 23.5q-28 0 -50.5 -19t-26.5 -47
q-5 -29 11 -52t45 -27z" />
    <glyph glyph-name="AE" unicode="&#xc6;" horiz-adv-x="995" 
d="M-4 0l491 730h529l-2 -9h-516l45 -351h409l-1 -9h-407l45 -351h300l-1 -10h-307l-32 250h-373l-167 -250h-13zM490 718l-308 -459h366z" />
    <glyph glyph-name="Ccedilla" unicode="&#xc7;" horiz-adv-x="808" 
d="M390 -216q-75 0 -123 48l8 6q44 -46 116 -46q47 0 79.5 18t37.5 49q5 33 -23.5 52t-84.5 19h-10l12 61q-166 7 -255 128.5t-59 291.5q26 143 142 236t257 93q212 0 301 -162l-9 -5q-84 158 -292 158q-139 0 -251.5 -91.5t-137.5 -231.5q-20 -108 12.5 -201t114 -150.5
t195.5 -57.5q92 0 177 41.5t137 113.5l8 -6q-54 -75 -140 -116.5t-182 -41.5q-2 0 -5 0.5t-4 0.5l-10 -53q60 0 91 -22t25 -58q-6 -35 -40.5 -54.5t-86.5 -19.5z" />
    <glyph glyph-name="Egrave" unicode="&#xc8;" horiz-adv-x="603" 
d="M39 0l128 730h454l-2 -9h-443l-61 -344h445l-2 -9h-444l-63 -359h444l-2 -9h-454zM413 813l-105 137h14l100 -137h-9z" />
    <glyph glyph-name="Eacute" unicode="&#xc9;" horiz-adv-x="603" 
d="M39 0l128 730h454l-2 -9h-443l-61 -344h445l-2 -9h-444l-63 -359h444l-2 -9h-454zM393 813l146 137h15l-150 -137h-11z" />
    <glyph glyph-name="Ecircumflex" unicode="&#xca;" horiz-adv-x="603" 
d="M39 0l128 730h454l-2 -9h-443l-61 -344h445l-2 -9h-444l-63 -359h444l-2 -9h-454zM285 812l143 138h9l95 -138h-11l-89 130l-134 -130h-13z" />
    <glyph glyph-name="Edieresis" unicode="&#xcb;" horiz-adv-x="603" 
d="M39 0l128 730h454l-2 -9h-443l-61 -344h445l-2 -9h-444l-63 -359h444l-2 -9h-454zM363 812l24 140h9l-24 -140h-9zM441 812l24 140h9l-24 -140h-9z" />
    <glyph glyph-name="Igrave" unicode="&#xcc;" horiz-adv-x="197" 
d="M50 0l128 730h10l-128 -730h-10zM191 813l-105 137h14l100 -137h-9z" />
    <glyph glyph-name="Iacute" unicode="&#xcd;" horiz-adv-x="197" 
d="M50 0l128 730h10l-128 -730h-10zM198 813l146 137h15l-150 -137h-11z" />
    <glyph glyph-name="Icircumflex" unicode="&#xce;" horiz-adv-x="197" 
d="M50 0l128 730h10l-128 -730h-10zM74 812l143 138h9l95 -138h-11l-89 130l-134 -130h-13z" />
    <glyph glyph-name="Idieresis" unicode="&#xcf;" horiz-adv-x="197" 
d="M50 0l128 730h10l-128 -730h-10zM238 812l24 140h9l-24 -140h-9zM160 812l24 140h9l-24 -140h-9z" />
    <glyph glyph-name="Eth" unicode="&#xd0;" horiz-adv-x="717" 
d="M44 371l2 9h76l62 350h167q160 -2 256 -118.5t67 -277.5q-27 -150 -140.5 -242t-262.5 -92h-215l65 371h-77zM406 371h-275l-64 -361h204q145 0 256.5 91t136.5 237q26 156 -67 269.5t-249 113.5h-155l-61 -341h276z" />
    <glyph glyph-name="Ntilde" unicode="&#xd1;" horiz-adv-x="718" 
d="M39 0l128 730h11l405 -714l126 714h9l-128 -730h-9l-407 715l-125 -715h-10zM290 813q7 34 31.5 57t56.5 23q6 0 11.5 -0.5t11.5 -2.5t10.5 -3t11.5 -4t10 -4.5t10.5 -6l10 -6t10.5 -6.5t10 -6q57 -37 95 -37q30 0 51.5 18.5t28.5 54.5h10q-7 -39 -32 -60.5t-59 -21.5
q-39 0 -99 38t-92 38q-28 0 -49.5 -20t-27.5 -51h-10z" />
    <glyph glyph-name="Ograve" unicode="&#xd2;" horiz-adv-x="865" 
d="M432 -10q-172 0 -273.5 124t-71.5 297q26 144 137.5 236.5t250.5 92.5q90 0 163 -37.5t115.5 -98t60 -136.5t3.5 -154q-25 -143 -135.5 -233.5t-249.5 -90.5zM433 -1q135 0 242.5 89.5t131.5 227.5q18 102 -15 196.5t-117 156.5t-201 62q-136 0 -244.5 -91t-132.5 -232
q-19 -110 19 -204t122.5 -149.5t194.5 -55.5zM524 813l-105 137h14l100 -137h-9z" />
    <glyph glyph-name="Oacute" unicode="&#xd3;" horiz-adv-x="865" 
d="M514 813l146 137h15l-150 -137h-11zM432 -10q-172 0 -273.5 124t-71.5 297q26 144 137.5 236.5t250.5 92.5q90 0 163 -37.5t115.5 -98t60 -136.5t3.5 -154q-25 -143 -135.5 -233.5t-249.5 -90.5zM433 -1q135 0 242.5 89.5t131.5 227.5q18 102 -15 196.5t-117 156.5
t-201 62q-136 0 -244.5 -91t-132.5 -232q-19 -110 19 -204t122.5 -149.5t194.5 -55.5z" />
    <glyph glyph-name="Ocircumflex" unicode="&#xd4;" horiz-adv-x="865" 
d="M432 -10q-172 0 -273.5 124t-71.5 297q26 144 137.5 236.5t250.5 92.5q90 0 163 -37.5t115.5 -98t60 -136.5t3.5 -154q-25 -143 -135.5 -233.5t-249.5 -90.5zM433 -1q135 0 242.5 89.5t131.5 227.5q18 102 -15 196.5t-117 156.5t-201 62q-136 0 -244.5 -91t-132.5 -232
q-19 -110 19 -204t122.5 -149.5t194.5 -55.5zM389 812l143 138h9l95 -138h-11l-89 130l-134 -130h-13z" />
    <glyph glyph-name="Otilde" unicode="&#xd5;" horiz-adv-x="865" 
d="M432 -10q-172 0 -273.5 124t-71.5 297q26 144 137.5 236.5t250.5 92.5q90 0 163 -37.5t115.5 -98t60 -136.5t3.5 -154q-25 -143 -135.5 -233.5t-249.5 -90.5zM433 -1q135 0 242.5 89.5t131.5 227.5q18 102 -15 196.5t-117 156.5t-201 62q-136 0 -244.5 -91t-132.5 -232
q-19 -110 19 -204t122.5 -149.5t194.5 -55.5zM347 813q7 34 31.5 57t56.5 23q6 0 11.5 -0.5t11.5 -2.5t10.5 -3t11.5 -4t10 -4.5t10.5 -6l10 -6t10.5 -6.5t10 -6q57 -37 95 -37q30 0 51.5 18.5t28.5 54.5h10q-7 -39 -32 -60.5t-59 -21.5q-39 0 -99 38t-92 38
q-28 0 -49.5 -20t-27.5 -51h-10z" />
    <glyph glyph-name="Odieresis" unicode="&#xd6;" horiz-adv-x="865" 
d="M534 812l24 140h9l-24 -140h-9zM456 812l24 140h9l-24 -140h-9zM432 -10q-172 0 -273.5 124t-71.5 297q26 144 137.5 236.5t250.5 92.5q90 0 163 -37.5t115.5 -98t60 -136.5t3.5 -154q-25 -143 -135.5 -233.5t-249.5 -90.5zM433 -1q135 0 242.5 89.5t131.5 227.5
q18 102 -15 196.5t-117 156.5t-201 62q-136 0 -244.5 -91t-132.5 -232q-19 -110 19 -204t122.5 -149.5t194.5 -55.5z" />
    <glyph glyph-name="multiply" unicode="&#xd7;" horiz-adv-x="460" 
d="M72 215l-6 7l170 145l-116 142l6 7l117 -143l164 139l6 -7l-164 -139l116 -140l-7 -7l-116 141z" />
    <glyph glyph-name="Oslash" unicode="&#xd8;" horiz-adv-x="865" 
d="M432 -10q-137 0 -231 80l-62 -70h-13l68 76q-67 60 -96 147.5t-11 187.5q26 144 137.5 236.5t250.5 92.5t234 -87l69 77h13l-75 -84q63 -61 90 -149t11 -183q-25 -143 -135.5 -233.5t-249.5 -90.5zM97 408q-17 -95 11 -181t93 -144l502 563q-93 85 -229 85t-244.5 -91
t-132.5 -232zM433 -1q135 0 242.5 89.5t131.5 227.5q16 90 -9.5 176.5t-87.5 146.5l-502 -562q92 -78 225 -78z" />
    <glyph glyph-name="Ugrave" unicode="&#xd9;" horiz-adv-x="662" 
d="M311 -10q-127 0 -187 78t-39 195l82 467h10l-83 -469q-20 -111 38 -186.5t181 -75.5q95 0 164 60t85 151l91 520h10l-91 -520q-17 -97 -88.5 -158.5t-172.5 -61.5zM418 797l-105 137h14l100 -137h-9z" />
    <glyph glyph-name="Uacute" unicode="&#xda;" horiz-adv-x="662" 
d="M407 800l146 137h15l-150 -137h-11zM311 -10q-127 0 -187 78t-39 195l82 467h10l-83 -469q-20 -111 38 -186.5t181 -75.5q95 0 164 60t85 151l91 520h10l-91 -520q-17 -97 -88.5 -158.5t-172.5 -61.5z" />
    <glyph glyph-name="Ucircumflex" unicode="&#xdb;" horiz-adv-x="662" 
d="M311 -10q-127 0 -187 78t-39 195l82 467h10l-83 -469q-20 -111 38 -186.5t181 -75.5q95 0 164 60t85 151l91 520h10l-91 -520q-17 -97 -88.5 -158.5t-172.5 -61.5zM306 812l143 138h9l95 -138h-11l-89 130l-134 -130h-13z" />
    <glyph glyph-name="Udieresis" unicode="&#xdc;" horiz-adv-x="662" 
d="M460 800l24 140h9l-24 -140h-9zM382 800l24 140h9l-24 -140h-9zM311 -10q-127 0 -187 78t-39 195l82 467h10l-83 -469q-20 -111 38 -186.5t181 -75.5q95 0 164 60t85 151l91 520h10l-91 -520q-17 -97 -88.5 -158.5t-172.5 -61.5z" />
    <glyph glyph-name="Yacute" unicode="&#xdd;" horiz-adv-x="598" 
d="M250 0l61 351l-184 379h11l180 -372l309 372h12l-319 -383l-60 -347h-10zM381 800l146 137h15l-150 -137h-11z" />
    <glyph glyph-name="Thorn" unicode="&#xde;" horiz-adv-x="545" 
d="M33 0l128 730h10l-25 -141h144q104 0 166 -64t45 -161q-15 -86 -81.5 -139t-168.5 -53h-178l-30 -172h-10zM289 580h-145l-69 -398h177q97 0 161 50.5t79 132.5q16 93 -42.5 154t-160.5 61z" />
    <glyph glyph-name="germandbls" unicode="&#xdf;" horiz-adv-x="575" 
d="M-126 -230l2 10q136 0 165 158l110 624q15 87 69.5 133.5t132.5 46.5q85 0 130.5 -61.5t30.5 -138.5q-11 -62 -56 -101t-102 -51q75 -13 117 -76.5t28 -139.5q-13 -79 -71 -129.5t-145 -50.5q-45 0 -89 19.5t-68 44.5l7 6q22 -24 65 -42.5t85 -18.5q82 0 138.5 48.5
t68.5 123.5q15 83 -35.5 146.5t-136.5 63.5h-16l2 9h15q35 0 72.5 15.5t70.5 51t41 82.5q13 74 -29.5 132t-123.5 58q-73 0 -125.5 -45t-66.5 -127l-110 -622q-29 -169 -173 -169h-3z" />
    <glyph glyph-name="agrave" unicode="&#xe0;" horiz-adv-x="655" 
d="M297 -10q-119 0 -189 87t-49 205q18 101 95 164.5t176 63.5t162.5 -63t69.5 -155l37 208h10l-71 -398q-8 -44 7 -68.5t51 -24.5h11l-1 -9h-12q-40 0 -57 29t-8 76l10 52q-31 -76 -96.5 -121.5t-145.5 -45.5zM297 -1q93 0 165.5 64t89.5 161q19 108 -44 192.5t-178 84.5
q-96 0 -170.5 -62t-91.5 -159q-19 -114 47.5 -197.5t181.5 -83.5zM363 583l-105 137h14l100 -137h-9z" />
    <glyph glyph-name="aacute" unicode="&#xe1;" horiz-adv-x="655" 
d="M297 -10q-119 0 -189 87t-49 205q18 101 95 164.5t176 63.5t162.5 -63t69.5 -155l37 208h10l-71 -398q-8 -44 7 -68.5t51 -24.5h11l-1 -9h-12q-40 0 -57 29t-8 76l10 52q-31 -76 -96.5 -121.5t-145.5 -45.5zM297 -1q93 0 165.5 64t89.5 161q19 108 -44 192.5t-178 84.5
q-96 0 -170.5 -62t-91.5 -159q-19 -114 47.5 -197.5t181.5 -83.5zM361 583l146 137h15l-150 -137h-11z" />
    <glyph glyph-name="acircumflex" unicode="&#xe2;" horiz-adv-x="655" 
d="M297 -10q-119 0 -189 87t-49 205q18 101 95 164.5t176 63.5t162.5 -63t69.5 -155l37 208h10l-71 -398q-8 -44 7 -68.5t51 -24.5h11l-1 -9h-12q-40 0 -57 29t-8 76l10 52q-31 -76 -96.5 -121.5t-145.5 -45.5zM297 -1q93 0 165.5 64t89.5 161q19 108 -44 192.5t-178 84.5
q-96 0 -170.5 -62t-91.5 -159q-19 -114 47.5 -197.5t181.5 -83.5zM241 582l143 138h9l95 -138h-11l-89 130l-134 -130h-13z" />
    <glyph glyph-name="atilde" unicode="&#xe3;" horiz-adv-x="655" 
d="M297 -10q-119 0 -189 87t-49 205q18 101 95 164.5t176 63.5t162.5 -63t69.5 -155l37 208h10l-71 -398q-8 -44 7 -68.5t51 -24.5h11l-1 -9h-12q-40 0 -57 29t-8 76l10 52q-31 -76 -96.5 -121.5t-145.5 -45.5zM297 -1q93 0 165.5 64t89.5 161q19 108 -44 192.5t-178 84.5
q-96 0 -170.5 -62t-91.5 -159q-19 -114 47.5 -197.5t181.5 -83.5zM205 583q7 34 31.5 57t56.5 23q6 0 11.5 -0.5t11.5 -2.5t10.5 -3t11.5 -4t10 -4.5t10.5 -6l10 -6t10.5 -6.5t10 -6q57 -37 95 -37q30 0 51.5 18.5t28.5 54.5h10q-7 -39 -32 -60.5t-59 -21.5q-39 0 -99 38
t-92 38q-28 0 -49.5 -20t-27.5 -51h-10z" />
    <glyph glyph-name="adieresis" unicode="&#xe4;" horiz-adv-x="655" 
d="M297 -10q-119 0 -189 87t-49 205q18 101 95 164.5t176 63.5t162.5 -63t69.5 -155l37 208h10l-71 -398q-8 -44 7 -68.5t51 -24.5h11l-1 -9h-12q-40 0 -57 29t-8 76l10 52q-31 -76 -96.5 -121.5t-145.5 -45.5zM297 -1q93 0 165.5 64t89.5 161q19 108 -44 192.5t-178 84.5
q-96 0 -170.5 -62t-91.5 -159q-19 -114 47.5 -197.5t181.5 -83.5zM401 582l24 140h9l-24 -140h-9zM323 582l24 140h9l-24 -140h-9z" />
    <glyph glyph-name="aring" unicode="&#xe5;" horiz-adv-x="655" 
d="M297 -10q-119 0 -189 87t-49 205q18 101 95 164.5t176 63.5t162.5 -63t69.5 -155l37 208h10l-71 -398q-8 -44 7 -68.5t51 -24.5h11l-1 -9h-12q-40 0 -57 29t-8 76l10 52q-31 -76 -96.5 -121.5t-145.5 -45.5zM297 -1q93 0 165.5 64t89.5 161q19 108 -44 192.5t-178 84.5
q-96 0 -170.5 -62t-91.5 -159q-19 -114 47.5 -197.5t181.5 -83.5zM384 572q-35 0 -57 26.5t-16 63.5q5 31 30 52t56 21q38 0 59.5 -27t15.5 -60q-5 -32 -30 -54t-58 -22zM385 581q29 0 51 20t27 48q5 30 -13.5 53.5t-52.5 23.5q-28 0 -50.5 -19t-26.5 -47q-5 -32 14 -55.5
t51 -23.5z" />
    <glyph glyph-name="ae" unicode="&#xe6;" horiz-adv-x="1019" 
d="M228 -10q-87 0 -126 41t-29 100q5 28 20 50t33.5 35t50 24.5t56.5 17t65 12.5q116 20 149 33q56 23 64 70q11 53 -31.5 91t-131.5 38t-150 -39.5t-74 -110.5l-11 -1q14 74 78.5 116.5t157.5 42.5q91 0 135 -39t37 -94q41 63 110 98t145 35q98 0 150.5 -46t42.5 -109
q-11 -63 -71 -99t-160 -36q-55 0 -129 16t-120 36q-20 -119 48 -196t195 -77q119 0 197 78l7 -7q-82 -80 -204 -80q-90 0 -153 38.5t-88 105.5q-39 -55 -108.5 -99.5t-154.5 -44.5zM776 501q-101 0 -183 -60t-102 -161q49 -20 122 -35.5t125 -15.5q94 0 152 33.5t69 94.5
q10 58 -39 101t-144 43zM229 -2q81 0 150.5 44.5t107.5 101.5q-19 62 -6 132q3 20 13 48q-6 -7 -14.5 -13t-16 -10.5t-20.5 -9t-21.5 -7t-26.5 -6t-28 -5.5t-33.5 -6t-35.5 -6q-40 -7 -62.5 -12t-53 -15.5t-48 -22.5t-32 -32.5t-19.5 -47.5q-10 -56 26.5 -94.5t119.5 -38.5z
" />
    <glyph glyph-name="ccedilla" unicode="&#xe7;" horiz-adv-x="591" 
d="M256 -215q-75 0 -123 48l8 6q44 -46 116 -46q47 0 79.5 18t37.5 49q5 33 -23.5 52t-84.5 19h-10l12 61q-107 12 -167.5 95.5t-41.5 193.5q18 101 95 165t175 64q75 0 132 -36.5t86 -97.5l-9 -4q-27 58 -82 93.5t-127 35.5q-95 0 -169.5 -62t-91.5 -160q-20 -112 48 -196
t184 -84q65 0 123 29.5t94 82.5l9 -5q-37 -55 -97.5 -85.5t-128.5 -30.5q-4 0 -12 0.5t-11 0.5l-10 -52q60 0 91 -22t25 -58q-6 -35 -40.5 -54.5t-86.5 -19.5z" />
    <glyph glyph-name="egrave" unicode="&#xe8;" horiz-adv-x="597" 
d="M310 -10q-133 0 -203.5 80.5t-47.5 205.5q18 107 103.5 170.5t191.5 63.5q98 0 150.5 -46t42.5 -109q-11 -63 -71 -99t-160 -36q-55 0 -129 16t-120 36q-20 -119 48 -196t195 -77q119 0 197 78l7 -7q-82 -80 -204 -80zM354 501q-102 0 -183.5 -60.5t-101.5 -161.5
q48 -20 121.5 -35t125.5 -15q94 0 152 33.5t69 94.5q10 58 -39 101t-144 43zM344 583l-105 137h14l100 -137h-9z" />
    <glyph glyph-name="eacute" unicode="&#xe9;" horiz-adv-x="597" 
d="M310 -10q-133 0 -203.5 80.5t-47.5 205.5q18 107 103.5 170.5t191.5 63.5q98 0 150.5 -46t42.5 -109q-11 -63 -71 -99t-160 -36q-55 0 -129 16t-120 36q-20 -119 48 -196t195 -77q119 0 197 78l7 -7q-82 -80 -204 -80zM354 501q-102 0 -183.5 -60.5t-101.5 -161.5
q48 -20 121.5 -35t125.5 -15q94 0 152 33.5t69 94.5q10 58 -39 101t-144 43zM344 583l146 137h15l-150 -137h-11z" />
    <glyph glyph-name="ecircumflex" unicode="&#xea;" horiz-adv-x="597" 
d="M310 -10q-133 0 -203.5 80.5t-47.5 205.5q18 107 103.5 170.5t191.5 63.5q98 0 150.5 -46t42.5 -109q-11 -63 -71 -99t-160 -36q-55 0 -129 16t-120 36q-20 -119 48 -196t195 -77q119 0 197 78l7 -7q-82 -80 -204 -80zM354 501q-102 0 -183.5 -60.5t-101.5 -161.5
q48 -20 121.5 -35t125.5 -15q94 0 152 33.5t69 94.5q10 58 -39 101t-144 43zM232 582l143 138h9l95 -138h-11l-89 130l-134 -130h-13z" />
    <glyph glyph-name="edieresis" unicode="&#xeb;" horiz-adv-x="597" 
d="M310 -10q-133 0 -203.5 80.5t-47.5 205.5q18 107 103.5 170.5t191.5 63.5q98 0 150.5 -46t42.5 -109q-11 -63 -71 -99t-160 -36q-55 0 -129 16t-120 36q-20 -119 48 -196t195 -77q119 0 197 78l7 -7q-82 -80 -204 -80zM354 501q-102 0 -183.5 -60.5t-101.5 -161.5
q48 -20 121.5 -35t125.5 -15q94 0 152 33.5t69 94.5q10 58 -39 101t-144 43zM332 582l24 140h9l-24 -140h-9zM410 582l24 140h9l-24 -140h-9z" />
    <glyph glyph-name="igrave" unicode="&#xec;" horiz-adv-x="196" 
d="M125 0q-39 0 -56 27t-9 77l70 396h9l-69 -398q-8 -44 7 -69t51 -25h11l-2 -8h-12zM147 583l-105 137h14l100 -137h-9z" />
    <glyph glyph-name="iacute" unicode="&#xed;" horiz-adv-x="196" 
d="M136 583l146 137h15l-150 -137h-11zM125 0q-39 0 -56 27t-9 77l70 396h9l-69 -398q-8 -44 7 -69t51 -25h11l-2 -8h-12z" />
    <glyph glyph-name="icircumflex" unicode="&#xee;" horiz-adv-x="196" 
d="M125 0q-39 0 -56 27t-9 77l70 396h9l-69 -398q-8 -44 7 -69t51 -25h11l-2 -8h-12zM26 582l143 138h9l95 -138h-11l-89 130l-134 -130h-13z" />
    <glyph glyph-name="idieresis" unicode="&#xef;" horiz-adv-x="196" 
d="M181 582l24 140h9l-24 -140h-9zM103 582l24 140h9l-24 -140h-9zM125 0q-39 0 -56 27t-9 77l70 396h9l-69 -398q-8 -44 7 -69t51 -25h11l-2 -8h-12z" />
    <glyph glyph-name="eth" unicode="&#xf0;" horiz-adv-x="632" 
d="M250 606l2 10l134 54q-25 27 -62 60h14q39 -37 57 -56l138 56l-2 -10l-129 -53q101 -110 143 -227.5t23 -225.5q-19 -100 -96 -162t-174 -62q-120 0 -190.5 87t-48.5 207q18 99 100 163t180 64q85 0 146 -53.5t79 -134.5q-18 176 -172 341zM298 -1q93 0 167.5 60.5
t92.5 155.5q21 111 -44 199t-175 88q-95 0 -174 -62t-96 -157q-21 -114 45.5 -199t183.5 -85z" />
    <glyph glyph-name="ntilde" unicode="&#xf1;" horiz-adv-x="628" 
d="M48 0l75 399q17 93 -58 93h-11l2 8h11q38 0 56.5 -25.5t8.5 -78.5l-7 -36q27 65 88.5 107.5t136.5 42.5q110 0 161.5 -72t31.5 -179l-31 -156q-18 -95 54 -95h16l-2 -8h-15q-82 0 -62 105l30 154q20 102 -28 172t-156 70q-82 0 -147.5 -52.5t-84.5 -129.5l-1 -7
q-1 -1 -1 -4l-58 -308h-9zM206 583q7 34 31.5 57t56.5 23q6 0 11.5 -0.5t11.5 -2.5t10.5 -3t11.5 -4t10 -4.5t10.5 -6l10 -6t10.5 -6.5t10 -6q57 -37 95 -37q30 0 51.5 18.5t28.5 54.5h10q-7 -39 -32 -60.5t-59 -21.5q-39 0 -99 38t-92 38q-28 0 -49.5 -20t-27.5 -51h-10z
" />
    <glyph glyph-name="ograve" unicode="&#xf2;" horiz-adv-x="625" 
d="M299 -10q-120 0 -190.5 87t-49.5 205q18 101 94.5 164.5t173.5 63.5q80 0 140 -43t85.5 -111t12.5 -141q-18 -98 -94 -161.5t-172 -63.5zM299 -1q92 0 166 62t91 156q19 110 -47 197t-182 87q-94 0 -168 -62t-91 -159q-19 -112 47.5 -196.5t183.5 -84.5zM366 583
l-105 137h14l100 -137h-9z" />
    <glyph glyph-name="oacute" unicode="&#xf3;" horiz-adv-x="625" 
d="M359 583l146 137h15l-150 -137h-11zM299 -10q-120 0 -190.5 87t-49.5 205q18 101 94.5 164.5t173.5 63.5q80 0 140 -43t85.5 -111t12.5 -141q-18 -98 -94 -161.5t-172 -63.5zM299 -1q92 0 166 62t91 156q19 110 -47 197t-182 87q-94 0 -168 -62t-91 -159
q-19 -112 47.5 -196.5t183.5 -84.5z" />
    <glyph glyph-name="ocircumflex" unicode="&#xf4;" horiz-adv-x="625" 
d="M299 -10q-120 0 -190.5 87t-49.5 205q18 101 94.5 164.5t173.5 63.5q80 0 140 -43t85.5 -111t12.5 -141q-18 -98 -94 -161.5t-172 -63.5zM299 -1q92 0 166 62t91 156q19 110 -47 197t-182 87q-94 0 -168 -62t-91 -159q-19 -112 47.5 -196.5t183.5 -84.5zM233 582l143 138
h9l95 -138h-11l-89 130l-134 -130h-13z" />
    <glyph glyph-name="otilde" unicode="&#xf5;" horiz-adv-x="625" 
d="M299 -10q-120 0 -190.5 87t-49.5 205q18 101 94.5 164.5t173.5 63.5q80 0 140 -43t85.5 -111t12.5 -141q-18 -98 -94 -161.5t-172 -63.5zM299 -1q92 0 166 62t91 156q19 110 -47 197t-182 87q-94 0 -168 -62t-91 -159q-19 -112 47.5 -196.5t183.5 -84.5zM174 583
q7 34 31.5 57t56.5 23q6 0 11.5 -0.5t11.5 -2.5t10.5 -3t11.5 -4t10 -4.5t10.5 -6l10 -6t10.5 -6.5t10 -6q57 -37 95 -37q30 0 51.5 18.5t28.5 54.5h10q-7 -39 -32 -60.5t-59 -21.5q-39 0 -99 38t-92 38q-28 0 -49.5 -20t-27.5 -51h-10z" />
    <glyph glyph-name="odieresis" unicode="&#xf6;" horiz-adv-x="625" 
d="M391 582l24 140h9l-24 -140h-9zM313 582l24 140h9l-24 -140h-9zM299 -10q-120 0 -190.5 87t-49.5 205q18 101 94.5 164.5t173.5 63.5q80 0 140 -43t85.5 -111t12.5 -141q-18 -98 -94 -161.5t-172 -63.5zM299 -1q92 0 166 62t91 156q19 110 -47 197t-182 87
q-94 0 -168 -62t-91 -159q-19 -112 47.5 -196.5t183.5 -84.5z" />
    <glyph glyph-name="divide" unicode="&#xf7;" horiz-adv-x="460" 
d="M54 361l2 10h370l-2 -10h-370zM248 434l22 124h10l-23 -124h-9zM201 170l22 125h10l-22 -125h-10z" />
    <glyph glyph-name="oslash" unicode="&#xf8;" horiz-adv-x="625" 
d="M80 0l48 55q-43 41 -62 101t-7 126q18 101 94.5 164.5t173.5 63.5q90 0 156 -56l42 46h13l-47 -53q46 -43 66 -104t8 -128q-18 -98 -94 -161.5t-172 -63.5q-95 0 -163 58l-43 -48h-13zM299 -1q92 0 166 62t90 156q11 62 -7.5 122t-62.5 101l-343 -385q64 -56 157 -56z
M68 280q-11 -62 7 -120t60 -98l342 385q-62 54 -150 54q-94 0 -168 -62t-91 -159z" />
    <glyph glyph-name="ugrave" unicode="&#xf9;" horiz-adv-x="617" 
d="M271 -10q-110 0 -158.5 73t-27.5 179l31 157q16 93 -59 93h-11l1 8h13q40 0 57.5 -26.5t7.5 -76.5l-31 -155q-21 -102 25 -172t153 -70q85 0 149 55t80 138l60 307h9l-76 -394q-20 -98 53 -98h14l-1 -8h-15q-82 0 -60 108l6 31q-27 -67 -86.5 -108t-133.5 -41zM343 583
l-105 137h14l100 -137h-9z" />
    <glyph glyph-name="uacute" unicode="&#xfa;" horiz-adv-x="617" 
d="M271 -10q-110 0 -158.5 73t-27.5 179l31 157q16 93 -59 93h-11l1 8h13q40 0 57.5 -26.5t7.5 -76.5l-31 -155q-21 -102 25 -172t153 -70q85 0 149 55t80 138l60 307h9l-76 -394q-20 -98 53 -98h14l-1 -8h-15q-82 0 -60 108l6 31q-27 -67 -86.5 -108t-133.5 -41zM328 583
l146 137h15l-150 -137h-11z" />
    <glyph glyph-name="ucircumflex" unicode="&#xfb;" horiz-adv-x="617" 
d="M271 -10q-110 0 -158.5 73t-27.5 179l31 157q16 93 -59 93h-11l1 8h13q40 0 57.5 -26.5t7.5 -76.5l-31 -155q-21 -102 25 -172t153 -70q85 0 149 55t80 138l60 307h9l-76 -394q-20 -98 53 -98h14l-1 -8h-15q-82 0 -60 108l6 31q-27 -67 -86.5 -108t-133.5 -41zM221 582
l143 138h9l95 -138h-11l-89 130l-134 -130h-13z" />
    <glyph glyph-name="udieresis" unicode="&#xfc;" horiz-adv-x="617" 
d="M271 -10q-110 0 -158.5 73t-27.5 179l31 157q16 93 -59 93h-11l1 8h13q40 0 57.5 -26.5t7.5 -76.5l-31 -155q-21 -102 25 -172t153 -70q85 0 149 55t80 138l60 307h9l-76 -394q-20 -98 53 -98h14l-1 -8h-15q-82 0 -60 108l6 31q-27 -67 -86.5 -108t-133.5 -41zM314 582
l24 140h9l-24 -140h-9zM392 582l24 140h9l-24 -140h-9z" />
    <glyph glyph-name="yacute" unicode="&#xfd;" horiz-adv-x="612" 
d="M240 -240q-73 0 -129 36t-80 97l10 3q23 -59 75.5 -92.5t123.5 -33.5q183 0 228 241l24 129q-27 -67 -87 -108.5t-133 -41.5q-111 0 -159.5 72.5t-27.5 179.5l31 157q16 93 -59 93h-11l2 8h13q40 0 57 -26.5t7 -76.5l-31 -155q-20 -102 26 -172t152 -70q85 0 149.5 55.5
t80.5 137.5l60 307h9l-93 -489q-23 -122 -80 -186.5t-158 -64.5zM319 583l146 137h15l-150 -137h-11z" />
    <glyph glyph-name="thorn" unicode="&#xfe;" horiz-adv-x="648" 
d="M326 -10q-103 0 -166 62t-69 152l-76 -434h-10l169 960h10q-53 -293 -69 -387q33 75 101 121t147 46q117 0 184.5 -89t46.5 -205q-18 -99 -94.5 -162.5t-173.5 -63.5zM326 -1q93 0 167.5 62.5t91.5 156.5q19 111 -45.5 197t-178.5 86q-92 0 -167.5 -65.5t-92.5 -164.5
q-19 -108 45 -190t180 -82z" />
    <glyph glyph-name="ydieresis" unicode="&#xff;" horiz-adv-x="612" 
d="M240 -240q-73 0 -129 36t-80 97l10 3q23 -59 75.5 -92.5t123.5 -33.5q183 0 228 241l24 129q-27 -67 -87 -108.5t-133 -41.5q-111 0 -159.5 72.5t-27.5 179.5l31 157q16 93 -59 93h-11l2 8h13q40 0 57 -26.5t7 -76.5l-31 -155q-20 -102 26 -172t152 -70q85 0 149.5 55.5
t80.5 137.5l60 307h9l-93 -489q-23 -122 -80 -186.5t-158 -64.5zM319 582l24 140h9l-24 -140h-9zM397 582l24 140h9l-24 -140h-9z" />
    <glyph glyph-name="Amacron" unicode="&#x100;" horiz-adv-x="684" 
d="M2 0l419 730h10l164 -730h-10l-56 250h-373l-143 -250h-11zM424 719l-263 -460h366zM309 813l2 9h264l-2 -9h-264z" />
    <glyph glyph-name="amacron" unicode="&#x101;" horiz-adv-x="655" 
d="M297 -10q-119 0 -189 87t-49 205q18 101 95 164.5t176 63.5t162.5 -63t69.5 -155l37 208h10l-71 -398q-8 -44 7 -68.5t51 -24.5h11l-1 -9h-12q-40 0 -57 29t-8 76l10 52q-31 -76 -96.5 -121.5t-145.5 -45.5zM297 -1q93 0 165.5 64t89.5 161q19 108 -44 192.5t-178 84.5
q-96 0 -170.5 -62t-91.5 -159q-19 -114 47.5 -197.5t181.5 -83.5zM249 583l2 9h264l-2 -9h-264z" />
    <glyph glyph-name="Abreve" unicode="&#x102;" horiz-adv-x="684" 
d="M2 0l419 730h10l164 -730h-10l-56 250h-373l-143 -250h-11zM424 719l-263 -460h366zM436 807q-72 0 -111.5 44.5t-29.5 98.5h10q-10 -50 26.5 -92t105.5 -42q74 0 118 40.5t53 93.5h10q-10 -58 -56.5 -100.5t-125.5 -42.5z" />
    <glyph glyph-name="abreve" unicode="&#x103;" horiz-adv-x="655" 
d="M297 -10q-119 0 -189 87t-49 205q18 101 95 164.5t176 63.5t162.5 -63t69.5 -155l37 208h10l-71 -398q-8 -44 7 -68.5t51 -24.5h11l-1 -9h-12q-40 0 -57 29t-8 76l10 52q-31 -76 -96.5 -121.5t-145.5 -45.5zM297 -1q93 0 165.5 64t89.5 161q19 108 -44 192.5t-178 84.5
q-96 0 -170.5 -62t-91.5 -159q-19 -114 47.5 -197.5t181.5 -83.5zM376 572q-72 0 -111.5 44.5t-29.5 98.5h10q-10 -50 26.5 -92t105.5 -42q74 0 118 40.5t53 93.5h10q-10 -58 -56.5 -100.5t-125.5 -42.5z" />
    <glyph glyph-name="Aogonek" unicode="&#x104;" horiz-adv-x="684" 
d="M544 -197q-49 0 -77 27.5t-22 65.5q5 33 38.5 58t99.5 51l-54 245h-373l-143 -250h-11l419 730h10l164 -730h-1q-130 -47 -140 -106q-5 -34 20.5 -58t70.5 -24q71 0 127 48l7 -6q-61 -51 -135 -51zM424 719l-263 -460h366z" />
    <glyph glyph-name="aogonek" unicode="&#x105;" horiz-adv-x="655" 
d="M297 -10q-119 0 -189 87t-49 205q18 101 95 164.5t176 63.5t162.5 -63t69.5 -155l37 208h10l-71 -398q-8 -44 7 -68.5t51 -24.5h11l-1 -9h-3q-130 -47 -140 -106q-5 -34 20.5 -58t70.5 -24q71 0 127 48l7 -6q-61 -51 -135 -51q-49 0 -77 27.5t-22 65.5q4 31 34.5 55.5
t91.5 49.5q-33 5 -46 33t-5 71l10 52q-31 -76 -96.5 -121.5t-145.5 -45.5zM297 -1q93 0 165.5 64t89.5 161q19 108 -44 192.5t-178 84.5q-96 0 -170.5 -62t-91.5 -159q-19 -114 47.5 -197.5t181.5 -83.5z" />
    <glyph glyph-name="Cacute" unicode="&#x106;" horiz-adv-x="808" 
d="M529 813l146 137h15l-150 -137h-11zM420 -10q-174 0 -268.5 123t-63.5 298q26 143 142 236t257 93q212 0 301 -162l-9 -5q-84 158 -292 158q-139 0 -251.5 -91.5t-137.5 -231.5q-20 -108 12.5 -201t114 -150.5t195.5 -57.5q92 0 177 41.5t137 113.5l8 -6
q-54 -75 -140 -116.5t-182 -41.5z" />
    <glyph glyph-name="cacute" unicode="&#x107;" horiz-adv-x="591" 
d="M354 583l146 137h15l-150 -137h-11zM300 -10q-120 0 -191 86.5t-50 204.5q18 101 95 165t175 64q75 0 132 -36.5t86 -97.5l-9 -4q-27 58 -82 93.5t-127 35.5q-95 0 -169.5 -62t-91.5 -160q-20 -112 48 -196t184 -84q65 0 123 29.5t94 82.5l9 -5q-37 -55 -97.5 -85.5
t-128.5 -30.5z" />
    <glyph glyph-name="Ccircumflex" unicode="&#x108;" horiz-adv-x="808" 
d="M420 -10q-174 0 -268.5 123t-63.5 298q26 143 142 236t257 93q212 0 301 -162l-9 -5q-84 158 -292 158q-139 0 -251.5 -91.5t-137.5 -231.5q-20 -108 12.5 -201t114 -150.5t195.5 -57.5q92 0 177 41.5t137 113.5l8 -6q-54 -75 -140 -116.5t-182 -41.5zM402 812l143 138h9
l95 -138h-11l-89 130l-134 -130h-13z" />
    <glyph glyph-name="ccircumflex" unicode="&#x109;" horiz-adv-x="591" 
d="M300 -10q-120 0 -191 86.5t-50 204.5q18 101 95 165t175 64q75 0 132 -36.5t86 -97.5l-9 -4q-27 58 -82 93.5t-127 35.5q-95 0 -169.5 -62t-91.5 -160q-20 -112 48 -196t184 -84q65 0 123 29.5t94 82.5l9 -5q-37 -55 -97.5 -85.5t-128.5 -30.5zM243 582l143 138h9
l95 -138h-11l-89 130l-134 -130h-13z" />
    <glyph glyph-name="Cdotaccent" unicode="&#x10a;" horiz-adv-x="808" 
d="M420 -10q-174 0 -268.5 123t-63.5 298q26 143 142 236t257 93q212 0 301 -162l-9 -5q-84 158 -292 158q-139 0 -251.5 -91.5t-137.5 -231.5q-20 -108 12.5 -201t114 -150.5t195.5 -57.5q92 0 177 41.5t137 113.5l8 -6q-54 -75 -140 -116.5t-182 -41.5zM526 812l24 140h10
l-24 -140h-10z" />
    <glyph glyph-name="cdotaccent" unicode="&#x10b;" horiz-adv-x="591" 
d="M300 -10q-120 0 -191 86.5t-50 204.5q18 101 95 165t175 64q75 0 132 -36.5t86 -97.5l-9 -4q-27 58 -82 93.5t-127 35.5q-95 0 -169.5 -62t-91.5 -160q-20 -112 48 -196t184 -84q65 0 123 29.5t94 82.5l9 -5q-37 -55 -97.5 -85.5t-128.5 -30.5zM358 582l24 140h10
l-24 -140h-10z" />
    <glyph glyph-name="Ccaron" unicode="&#x10c;" horiz-adv-x="808" 
d="M420 -10q-174 0 -268.5 123t-63.5 298q26 143 142 236t257 93q212 0 301 -162l-9 -5q-84 158 -292 158q-139 0 -251.5 -91.5t-137.5 -231.5q-20 -108 12.5 -201t114 -150.5t195.5 -57.5q92 0 177 41.5t137 113.5l8 -6q-54 -75 -140 -116.5t-182 -41.5zM516 813l-95 137
h11l89 -129l133 129h13l-142 -137h-9z" />
    <glyph glyph-name="ccaron" unicode="&#x10d;" horiz-adv-x="591" 
d="M300 -10q-120 0 -191 86.5t-50 204.5q18 101 95 165t175 64q75 0 132 -36.5t86 -97.5l-9 -4q-27 58 -82 93.5t-127 35.5q-95 0 -169.5 -62t-91.5 -160q-20 -112 48 -196t184 -84q65 0 123 29.5t94 82.5l9 -5q-37 -55 -97.5 -85.5t-128.5 -30.5zM359 583l-95 137h11
l89 -129l133 129h13l-142 -137h-9z" />
    <glyph glyph-name="Dcaron" unicode="&#x10e;" horiz-adv-x="701" 
d="M39 0l128 730h167q104 -1 185 -54.5t118.5 -144t19.5 -195.5q-28 -157 -140 -246.5t-263 -89.5h-215zM331 721h-155l-125 -712h203q147 0 256.5 88.5t136.5 240.5q27 156 -66.5 269.5t-249.5 113.5zM407 813l-95 137h11l89 -129l133 129h13l-142 -137h-9z" />
    <glyph glyph-name="dcaron" unicode="&#x10f;" horiz-adv-x="677" 
d="M297 -10q-119 0 -189 87t-49 205q18 101 95 164.5t176 63.5t161.5 -62t70.5 -154l78 436h10l-113 -625q-8 -46 7.5 -71t53.5 -25h11l-1 -9h-12q-40 0 -58.5 27.5t-8.5 79.5l8 46q-32 -74 -96.5 -118.5t-143.5 -44.5zM297 -1q93 0 165.5 64t89.5 161q19 108 -44 192.5
t-178 84.5q-96 0 -170.5 -62t-91.5 -159q-19 -114 47.5 -197.5t181.5 -83.5zM677 593l110 137h13l-113 -137h-10z" />
    <glyph glyph-name="Dcroat" unicode="&#x110;" horiz-adv-x="717" 
d="M44 371l2 9h76l62 350h167q160 -2 256 -118.5t67 -277.5q-27 -150 -140.5 -242t-262.5 -92h-215l65 371h-77zM406 371h-275l-64 -361h204q145 0 256.5 91t136.5 237q26 156 -67 269.5t-249 113.5h-155l-61 -341h276z" />
    <glyph glyph-name="dcroat" unicode="&#x111;" horiz-adv-x="657" 
d="M427 583l2 9h186l25 138h10l-25 -138h68l-1 -9h-69l-86 -478q-8 -46 7.5 -71t53.5 -25h11l-1 -9h-12q-40 0 -58.5 27.5t-8.5 79.5l8 46q-32 -74 -96.5 -118.5t-143.5 -44.5q-119 0 -189 87t-49 205q18 101 95 164.5t176 63.5t161.5 -62t70.5 -154q4 21 12 67.5t20 114
t19 107.5h-186zM297 -1q93 0 165.5 64t89.5 161q19 108 -44 192.5t-178 84.5q-96 0 -170.5 -62t-91.5 -159q-19 -114 47.5 -197.5t181.5 -83.5z" />
    <glyph glyph-name="Emacron" unicode="&#x112;" horiz-adv-x="603" 
d="M39 0l128 730h454l-2 -9h-443l-61 -344h445l-2 -9h-444l-63 -359h444l-2 -9h-454zM277 813l2 9h264l-2 -9h-264z" />
    <glyph glyph-name="emacron" unicode="&#x113;" horiz-adv-x="597" 
d="M310 -10q-133 0 -203.5 80.5t-47.5 205.5q18 107 103.5 170.5t191.5 63.5q98 0 150.5 -46t42.5 -109q-11 -63 -71 -99t-160 -36q-55 0 -129 16t-120 36q-20 -119 48 -196t195 -77q119 0 197 78l7 -7q-82 -80 -204 -80zM354 501q-102 0 -183.5 -60.5t-101.5 -161.5
q48 -20 121.5 -35t125.5 -15q94 0 152 33.5t69 94.5q10 58 -39 101t-144 43zM226 583l2 9h264l-2 -9h-264z" />
    <glyph glyph-name="Ebreve" unicode="&#x114;" horiz-adv-x="603" 
d="M39 0l128 730h454l-2 -9h-443l-61 -344h445l-2 -9h-444l-63 -359h444l-2 -9h-454zM403 807q-72 0 -111.5 44.5t-29.5 98.5h10q-10 -50 26.5 -92t105.5 -42q74 0 118 40.5t53 93.5h10q-10 -58 -56.5 -100.5t-125.5 -42.5z" />
    <glyph glyph-name="ebreve" unicode="&#x115;" horiz-adv-x="597" 
d="M310 -10q-133 0 -203.5 80.5t-47.5 205.5q18 107 103.5 170.5t191.5 63.5q98 0 150.5 -46t42.5 -109q-11 -63 -71 -99t-160 -36q-55 0 -129 16t-120 36q-20 -119 48 -196t195 -77q119 0 197 78l7 -7q-82 -80 -204 -80zM354 501q-102 0 -183.5 -60.5t-101.5 -161.5
q48 -20 121.5 -35t125.5 -15q94 0 152 33.5t69 94.5q10 58 -39 101t-144 43zM370 572q-72 0 -111.5 44.5t-29.5 98.5h10q-10 -50 26.5 -92t105.5 -42q74 0 118 40.5t53 93.5h10q-10 -58 -56.5 -100.5t-125.5 -42.5z" />
    <glyph glyph-name="Edotaccent" unicode="&#x116;" horiz-adv-x="603" 
d="M39 0l128 730h454l-2 -9h-443l-61 -344h445l-2 -9h-444l-63 -359h444l-2 -9h-454zM409 812l24 140h10l-24 -140h-10z" />
    <glyph glyph-name="edotaccent" unicode="&#x117;" horiz-adv-x="597" 
d="M310 -10q-133 0 -203.5 80.5t-47.5 205.5q18 107 103.5 170.5t191.5 63.5q98 0 150.5 -46t42.5 -109q-11 -63 -71 -99t-160 -36q-55 0 -129 16t-120 36q-20 -119 48 -196t195 -77q119 0 197 78l7 -7q-82 -80 -204 -80zM354 501q-102 0 -183.5 -60.5t-101.5 -161.5
q48 -20 121.5 -35t125.5 -15q94 0 152 33.5t69 94.5q10 58 -39 101t-144 43zM351 582l24 140h10l-24 -140h-10z" />
    <glyph glyph-name="Eogonek" unicode="&#x118;" horiz-adv-x="603" 
d="M39 0l128 730h454l-2 -9h-443l-61 -344h445l-2 -9h-444l-63 -359h444l-2 -9q-130 -47 -140 -106q-5 -34 20.5 -58t70.5 -24q71 0 127 48l7 -6q-61 -51 -135 -51q-49 0 -77 27.5t-22 65.5q8 57 124 104h-429z" />
    <glyph glyph-name="eogonek" unicode="&#x119;" horiz-adv-x="597" 
d="M310 -10h-3q-127 -45 -137 -105q-5 -34 20.5 -58t70.5 -24q71 0 127 48l7 -6q-61 -51 -135 -51q-49 0 -77 27.5t-22 65.5q8 57 124 104q-122 8 -185 87.5t-41 197.5q18 107 103.5 170.5t191.5 63.5q98 0 150.5 -46t42.5 -109q-11 -63 -71 -99t-160 -36q-55 0 -129 16
t-120 36q-20 -119 48 -196t195 -77q119 0 197 78l7 -7q-82 -80 -204 -80zM354 501q-102 0 -183.5 -60.5t-101.5 -161.5q48 -20 121.5 -35t125.5 -15q94 0 152 33.5t69 94.5q10 58 -39 101t-144 43z" />
    <glyph glyph-name="Ecaron" unicode="&#x11a;" horiz-adv-x="603" 
d="M39 0l128 730h454l-2 -9h-443l-61 -344h445l-2 -9h-444l-63 -359h444l-2 -9h-454zM408 813l-95 137h11l89 -129l133 129h13l-142 -137h-9z" />
    <glyph glyph-name="ecaron" unicode="&#x11b;" horiz-adv-x="597" 
d="M310 -10q-133 0 -203.5 80.5t-47.5 205.5q18 107 103.5 170.5t191.5 63.5q98 0 150.5 -46t42.5 -109q-11 -63 -71 -99t-160 -36q-55 0 -129 16t-120 36q-20 -119 48 -196t195 -77q119 0 197 78l7 -7q-82 -80 -204 -80zM354 501q-102 0 -183.5 -60.5t-101.5 -161.5
q48 -20 121.5 -35t125.5 -15q94 0 152 33.5t69 94.5q10 58 -39 101t-144 43zM358 583l-95 137h11l89 -129l133 129h13l-142 -137h-9z" />
    <glyph glyph-name="Gcircumflex" unicode="&#x11c;" horiz-adv-x="862" 
d="M437 -10q-176 0 -278 124.5t-72 295.5q26 145 138 237.5t253 92.5q103 0 182.5 -45.5t128.5 -128.5l-8 -5q-101 170 -303 170q-138 0 -247.5 -91.5t-134.5 -232.5q-18 -106 18.5 -199t122 -151t200.5 -58q156 0 257 98.5t121 250.5h-369l1 9h379v-1q-19 -158 -121 -262
t-268 -104zM365 812l143 138h9l95 -138h-11l-89 130l-134 -130h-13z" />
    <glyph glyph-name="gcircumflex" unicode="&#x11d;" horiz-adv-x="652" 
d="M297 -10q-119 0 -189 87t-49 205q18 101 95 164.5t176 63.5q101 0 164.5 -64.5t68.5 -158.5q29 169 38 213h9l-87 -489q-45 -251 -256 -251q-165 0 -216 133l9 3q50 -126 207 -126q203 0 247 241q16 89 26 149q-30 -77 -96 -123.5t-147 -46.5zM297 -1q93 0 165.5 64
t89.5 161q19 108 -44 192.5t-178 84.5q-96 0 -170.5 -62t-91.5 -159q-19 -114 47.5 -197.5t181.5 -83.5zM245 582l143 138h9l95 -138h-11l-89 130l-134 -130h-13z" />
    <glyph glyph-name="Gbreve" unicode="&#x11e;" horiz-adv-x="862" 
d="M437 -10q-176 0 -278 124.5t-72 295.5q26 145 138 237.5t253 92.5q103 0 182.5 -45.5t128.5 -128.5l-8 -5q-101 170 -303 170q-138 0 -247.5 -91.5t-134.5 -232.5q-18 -106 18.5 -199t122 -151t200.5 -58q156 0 257 98.5t121 250.5h-369l1 9h379v-1q-19 -158 -121 -262
t-268 -104zM502 807q-72 0 -111.5 44.5t-29.5 98.5h10q-10 -50 26.5 -92t105.5 -42q74 0 118 40.5t53 93.5h10q-10 -58 -56.5 -100.5t-125.5 -42.5z" />
    <glyph glyph-name="gbreve" unicode="&#x11f;" horiz-adv-x="652" 
d="M297 -10q-119 0 -189 87t-49 205q18 101 95 164.5t176 63.5q101 0 164.5 -64.5t68.5 -158.5q29 169 38 213h9l-87 -489q-45 -251 -256 -251q-165 0 -216 133l9 3q50 -126 207 -126q203 0 247 241q16 89 26 149q-30 -77 -96 -123.5t-147 -46.5zM297 -1q93 0 165.5 64
t89.5 161q19 108 -44 192.5t-178 84.5q-96 0 -170.5 -62t-91.5 -159q-19 -114 47.5 -197.5t181.5 -83.5zM381 572q-72 0 -111.5 44.5t-29.5 98.5h10q-10 -50 26.5 -92t105.5 -42q74 0 118 40.5t53 93.5h10q-10 -58 -56.5 -100.5t-125.5 -42.5z" />
    <glyph glyph-name="Gdotaccent" unicode="&#x120;" horiz-adv-x="862" 
d="M437 -10q-176 0 -278 124.5t-72 295.5q26 145 138 237.5t253 92.5q103 0 182.5 -45.5t128.5 -128.5l-8 -5q-101 170 -303 170q-138 0 -247.5 -91.5t-134.5 -232.5q-18 -106 18.5 -199t122 -151t200.5 -58q156 0 257 98.5t121 250.5h-369l1 9h379v-1q-19 -158 -121 -262
t-268 -104zM493 812l24 140h10l-24 -140h-10z" />
    <glyph glyph-name="gdotaccent" unicode="&#x121;" horiz-adv-x="652" 
d="M297 -10q-119 0 -189 87t-49 205q18 101 95 164.5t176 63.5q101 0 164.5 -64.5t68.5 -158.5q29 169 38 213h9l-87 -489q-45 -251 -256 -251q-165 0 -216 133l9 3q50 -126 207 -126q203 0 247 241q16 89 26 149q-30 -77 -96 -123.5t-147 -46.5zM297 -1q93 0 165.5 64
t89.5 161q19 108 -44 192.5t-178 84.5q-96 0 -170.5 -62t-91.5 -159q-19 -114 47.5 -197.5t181.5 -83.5zM349 582l24 140h10l-24 -140h-10z" />
    <glyph glyph-name="Gcommaaccent" unicode="&#x122;" horiz-adv-x="862" 
d="M437 -10q-176 0 -278 124.5t-72 295.5q26 145 138 237.5t253 92.5q103 0 182.5 -45.5t128.5 -128.5l-8 -5q-101 170 -303 170q-138 0 -247.5 -91.5t-134.5 -232.5q-18 -106 18.5 -199t122 -151t200.5 -58q156 0 257 98.5t121 250.5h-369l1 9h379v-1q-19 -158 -121 -262
t-268 -104zM331 -261l77 184h12l-80 -184h-9z" />
    <glyph glyph-name="gcommaaccent" unicode="&#x123;" horiz-adv-x="652" 
d="M297 -10q-119 0 -189 87t-49 205q18 101 95 164.5t176 63.5q101 0 164.5 -64.5t68.5 -158.5q29 169 38 213h9l-87 -489q-45 -251 -256 -251q-165 0 -216 133l9 3q50 -126 207 -126q203 0 247 241q16 89 26 149q-30 -77 -96 -123.5t-147 -46.5zM297 -1q93 0 165.5 64
t89.5 161q19 108 -44 192.5t-178 84.5q-96 0 -170.5 -62t-91.5 -159q-19 -114 47.5 -197.5t181.5 -83.5zM362 581l77 184h12l-80 -184h-9z" />
    <glyph glyph-name="Hcircumflex" unicode="&#x124;" horiz-adv-x="656" 
d="M519 0l63 360h-470l-63 -360h-10l128 730h10l-64 -361h470l64 361h10l-128 -730h-10zM295 812l143 138h9l95 -138h-11l-89 130l-134 -130h-13z" />
    <glyph glyph-name="hcircumflex" unicode="&#x125;" horiz-adv-x="621" 
d="M45 0l128 730h9l-67 -375q26 67 88.5 111t138.5 44q111 0 162 -72t31 -179l-30 -156q-18 -95 54 -95h15l-2 -8h-14q-39 0 -56 26t-6 79l30 154q19 102 -28.5 172t-155.5 70q-86 0 -152.5 -56.5t-81.5 -137.5l-54 -307h-9zM69 791l143 138h9l95 -138h-11l-89 130
l-134 -130h-13z" />
    <glyph glyph-name="Hbar" unicode="&#x126;" horiz-adv-x="693" 
d="M66 547l1 9h92l31 174h10l-31 -174h470l31 174h10l-31 -174h81l-2 -9h-80l-96 -547h-10l63 360h-470l-63 -360h-10l96 547h-92zM168 547l-32 -178h470l32 178h-470z" />
    <glyph glyph-name="hbar" unicode="&#x127;" horiz-adv-x="619" 
d="M94 624l1 9h60l17 97h9l-17 -97h195l-2 -9h-195l-48 -269q26 67 88.5 111t138.5 44q111 0 162 -72t31 -179l-30 -156q-18 -95 54 -95h15l-2 -8h-14q-39 0 -56 26t-6 79l30 154q19 102 -28.5 172t-155.5 70q-86 0 -152.5 -56.5t-81.5 -137.5l-54 -307h-9l109 624h-59z" />
    <glyph glyph-name="Itilde" unicode="&#x128;" horiz-adv-x="197" 
d="M50 0l128 730h10l-128 -730h-10zM29 813q7 34 31.5 57t56.5 23q6 0 11.5 -0.5t11.5 -2.5t10.5 -3t11.5 -4t10 -4.5t10.5 -6l10 -6t10.5 -6.5t10 -6q57 -37 95 -37q30 0 51.5 18.5t28.5 54.5h10q-7 -39 -32 -60.5t-59 -21.5q-39 0 -99 38t-92 38q-28 0 -49.5 -20
t-27.5 -51h-10z" />
    <glyph glyph-name="itilde" unicode="&#x129;" horiz-adv-x="196" 
d="M125 0q-39 0 -56 27t-9 77l70 396h9l-69 -398q-8 -44 7 -69t51 -25h11l-2 -8h-12zM-36 583q7 34 31.5 57t56.5 23q6 0 11.5 -0.5t11.5 -2.5t10.5 -3t11.5 -4t10 -4.5t10.5 -6l10 -6t10.5 -6.5t10 -6q57 -37 95 -37q30 0 51.5 18.5t28.5 54.5h10q-7 -39 -32 -60.5
t-59 -21.5q-39 0 -99 38t-92 38q-28 0 -49.5 -20t-27.5 -51h-10z" />
    <glyph glyph-name="Imacron" unicode="&#x12a;" horiz-adv-x="197" 
d="M50 0l128 730h10l-128 -730h-10zM65 813l2 9h264l-2 -9h-264z" />
    <glyph glyph-name="imacron" unicode="&#x12b;" horiz-adv-x="196" 
d="M125 0q-39 0 -56 27t-9 77l70 396h9l-69 -398q-8 -44 7 -69t51 -25h11l-2 -8h-12zM19 583l2 9h264l-2 -9h-264z" />
    <glyph glyph-name="Ibreve" unicode="&#x12c;" horiz-adv-x="197" 
d="M50 0l128 730h10l-128 -730h-10zM208 807q-72 0 -111.5 44.5t-29.5 98.5h10q-10 -50 26.5 -92t105.5 -42q74 0 118 40.5t53 93.5h10q-10 -58 -56.5 -100.5t-125.5 -42.5z" />
    <glyph glyph-name="ibreve" unicode="&#x12d;" horiz-adv-x="196" 
d="M125 0q-39 0 -56 27t-9 77l70 396h9l-69 -398q-8 -44 7 -69t51 -25h11l-2 -8h-12zM148 572q-72 0 -111.5 44.5t-29.5 98.5h10q-10 -50 26.5 -92t105.5 -42q74 0 118 40.5t53 93.5h10q-10 -58 -56.5 -100.5t-125.5 -42.5z" />
    <glyph glyph-name="Iogonek" unicode="&#x12e;" horiz-adv-x="197" 
d="M12 -197q-49 0 -77 27.5t-22 65.5q5 32 38.5 57.5t99.5 51.5l127 725h10l-128 -729l2 -1q-130 -47 -140 -106q-5 -34 20.5 -58t70.5 -24q71 0 127 48l7 -6q-61 -51 -135 -51z" />
    <glyph glyph-name="iogonek" unicode="&#x12f;" horiz-adv-x="196" 
d="M88 -197q-49 0 -77 27.5t-22 65.5q9 57 125 104q-33 4 -47 31t-7 73l70 396h9l-69 -398q-8 -44 7 -69t51 -25h11l-2 -7l1 -1q-130 -47 -140 -106q-5 -34 20.5 -58t70.5 -24q71 0 127 48l7 -6q-61 -51 -135 -51zM144 582l26 151h10l-27 -151h-9z" />
    <glyph glyph-name="Idotaccent" unicode="&#x130;" horiz-adv-x="197" 
d="M50 0l128 730h10l-128 -730h-10zM191 812l24 140h10l-24 -140h-10z" />
    <glyph glyph-name="dotlessi" unicode="&#x131;" horiz-adv-x="196" 
d="M125 0q-39 0 -56 27t-9 77l70 396h9l-69 -398q-8 -44 7 -69t51 -25h11l-2 -8h-12z" />
    <glyph glyph-name="IJ" unicode="&#x132;" horiz-adv-x="515" 
d="M155 0l2 9h76q76 0 123.5 47t60.5 123l97 551h10l-97 -551q-14 -80 -63.5 -129.5t-130.5 -49.5h-78zM31 0l128 730h10l-128 -730h-10z" />
    <glyph glyph-name="ij" unicode="&#x133;" horiz-adv-x="292" 
d="M8 -134l2 9q78 1 108.5 28t49.5 119l21 120l42 238l21 120h9l-84 -479q-17 -95 -51 -124.5t-118 -30.5zM41 0h-9l88 500h9zM266 582l26 151h9l-26 -151h-9zM134 582l26 151h9l-26 -151h-9z" />
    <glyph glyph-name="Jcircumflex" unicode="&#x134;" horiz-adv-x="486" 
d="M193 -10q-65 0 -109.5 28t-63.5 72l9 5q18 -42 61 -69t104 -27q76 0 123.5 46.5t60.5 122.5l98 562h10l-98 -562q-14 -80 -64 -129t-131 -49zM363 812l143 138h9l95 -138h-11l-89 130l-134 -130h-13z" />
    <glyph glyph-name="jcircumflex" unicode="&#x135;" horiz-adv-x="194" 
d="M-129 -228l2 10q84 0 117 29.5t49 122.5l101 566h9l-100 -567q-17 -96 -53 -128.5t-124 -32.5h-1zM27 582l143 138h9l95 -138h-11l-89 130l-134 -130h-13z" />
    <glyph glyph-name="Kcommaaccent" unicode="&#x136;" horiz-adv-x="655" 
d="M39 0l128 730h10l-91 -520l560 520h15l-320 -296l235 -434h-11l-232 427l-250 -232l-34 -195h-10zM205 -261l77 184h12l-80 -184h-9z" />
    <glyph glyph-name="kcommaaccent" unicode="&#x137;" horiz-adv-x="527" 
d="M469 0q-43 0 -62.5 12.5t-41.5 49.5l-127 218l-159 -135l-25 -145h-9l128 730h9l-100 -572l402 342h14l-253 -214l127 -216q22 -38 40 -50t59 -12h13l-2 -8h-13zM155 -240l77 184h12l-80 -184h-9z" />
    <glyph glyph-name="kgreenlandic" unicode="&#x138;" horiz-adv-x="527" 
d="M469 0q-43 0 -62.5 12.5t-41.5 49.5l-127 218l-158 -134l-26 -146h-9l88 500h9l-60 -341l402 341h14l-253 -214l127 -216q22 -38 40 -50t59 -12h13l-2 -8h-13z" />
    <glyph glyph-name="Lacute" unicode="&#x139;" horiz-adv-x="545" 
d="M39 0l128 730h10l-126 -720h395l-2 -10h-405zM189 813l146 137h15l-150 -137h-11z" />
    <glyph glyph-name="lacute" unicode="&#x13a;" horiz-adv-x="197" 
d="M179 792l146 137h15l-150 -137h-11zM125 0q-39 0 -56.5 27.5t-7.5 79.5l110 623h9l-109 -623q-18 -99 58 -99h11l-2 -8h-13z" />
    <glyph glyph-name="Lcommaaccent" unicode="&#x13b;" horiz-adv-x="545" 
d="M39 0l128 730h10l-126 -720h395l-2 -10h-405zM141 -261l77 184h12l-80 -184h-9z" />
    <glyph glyph-name="lcommaaccent" unicode="&#x13c;" horiz-adv-x="197" 
d="M17 -240l77 184h12l-80 -184h-9zM125 0q-39 0 -56.5 27.5t-7.5 79.5l110 623h9l-109 -623q-18 -99 58 -99h11l-2 -8h-13z" />
    <glyph glyph-name="Lcaron" unicode="&#x13d;" horiz-adv-x="545" 
d="M39 0l128 730h10l-126 -720h395l-2 -10h-405zM330 593l110 137h13l-113 -137h-10z" />
    <glyph glyph-name="lcaron" unicode="&#x13e;" horiz-adv-x="206" 
d="M215 593l110 137h13l-113 -137h-10zM125 0q-39 0 -56.5 27.5t-7.5 79.5l110 623h9l-109 -623q-18 -99 58 -99h11l-2 -8h-13z" />
    <glyph glyph-name="Ldot" unicode="&#x13f;" horiz-adv-x="555" 
d="M39 0l128 730h10l-126 -720h395l-2 -10h-405zM458 197l24 140h10l-24 -140h-10z" />
    <glyph glyph-name="ldot" unicode="&#x140;" horiz-adv-x="274" 
d="M125 0q-39 0 -56.5 27.5t-7.5 79.5l110 623h9l-109 -623q-18 -99 58 -99h11l-2 -8h-13zM192 219l24 140h10l-24 -140h-10z" />
    <glyph glyph-name="Lslash" unicode="&#x141;" horiz-adv-x="563" 
d="M29 318l3 10l85 23l67 379h10l-66 -376l237 66l-2 -10l-236 -65l-59 -335h395l-2 -10h-405l60 342z" />
    <glyph glyph-name="lslash" unicode="&#x142;" horiz-adv-x="292" 
d="M32 341l2 10l132 53l58 326h9l-57 -322l133 53l-2 -10l-132 -53l-51 -291q-18 -99 58 -99h11l-2 -8h-13q-39 0 -56.5 27.5t-7.5 79.5l50 287z" />
    <glyph glyph-name="Nacute" unicode="&#x143;" horiz-adv-x="718" 
d="M39 0l128 730h11l405 -714l126 714h9l-128 -730h-9l-407 715l-125 -715h-10zM441 813l146 137h15l-150 -137h-11z" />
    <glyph glyph-name="nacute" unicode="&#x144;" horiz-adv-x="628" 
d="M48 0l75 399q17 93 -58 93h-11l2 8h11q38 0 56.5 -25.5t8.5 -78.5l-7 -36q27 65 88.5 107.5t136.5 42.5q110 0 161.5 -72t31.5 -179l-31 -156q-18 -95 54 -95h16l-2 -8h-15q-82 0 -62 105l30 154q20 102 -28 172t-156 70q-82 0 -147.5 -52.5t-84.5 -129.5l-1 -7
q-1 -1 -1 -4l-58 -308h-9zM383 583l146 137h15l-150 -137h-11z" />
    <glyph glyph-name="Ncommaaccent" unicode="&#x145;" horiz-adv-x="718" 
d="M39 0l128 730h11l405 -714l126 714h9l-128 -730h-9l-407 715l-125 -715h-10zM220 -261l77 184h12l-80 -184h-9z" />
    <glyph glyph-name="ncommaaccent" unicode="&#x146;" horiz-adv-x="628" 
d="M48 0l75 399q17 93 -58 93h-11l2 8h11q38 0 56.5 -25.5t8.5 -78.5l-7 -36q27 65 88.5 107.5t136.5 42.5q110 0 161.5 -72t31.5 -179l-31 -156q-18 -95 54 -95h16l-2 -8h-15q-82 0 -62 105l30 154q20 102 -28 172t-156 70q-82 0 -147.5 -52.5t-84.5 -129.5l-1 -7
q-1 -1 -1 -4l-58 -308h-9zM209 -240l77 184h12l-80 -184h-9z" />
    <glyph glyph-name="Ncaron" unicode="&#x147;" horiz-adv-x="718" 
d="M39 0l128 730h11l405 -714l126 714h9l-128 -730h-9l-407 715l-125 -715h-10zM451 813l-95 137h11l89 -129l133 129h13l-142 -137h-9z" />
    <glyph glyph-name="ncaron" unicode="&#x148;" horiz-adv-x="628" 
d="M48 0l75 399q17 93 -58 93h-11l2 8h11q38 0 56.5 -25.5t8.5 -78.5l-7 -36q27 65 88.5 107.5t136.5 42.5q110 0 161.5 -72t31.5 -179l-31 -156q-18 -95 54 -95h16l-2 -8h-15q-82 0 -62 105l30 154q20 102 -28 172t-156 70q-82 0 -147.5 -52.5t-84.5 -129.5l-1 -7
q-1 -1 -1 -4l-58 -308h-9zM364 583l-95 137h11l89 -129l133 129h13l-142 -137h-9z" />
    <glyph glyph-name="Eng" unicode="&#x14a;" horiz-adv-x="718" 
d="M328 -188l2 10h71q78 0 120.5 40t55.5 119l4 20l-407 714l-125 -715h-10l128 730h11l405 -714l126 714h9l-131 -748q-15 -85 -59 -127.5t-127 -42.5h-73z" />
    <glyph glyph-name="eng" unicode="&#x14b;" horiz-adv-x="630" 
d="M308 -228l2 10q83 0 116 29.5t50 122.5l57 325q19 102 -28.5 172t-155.5 70q-82 0 -147.5 -52.5t-84.5 -129.5l-1 -7q-1 -1 -1 -4l-58 -308h-9l75 399q17 93 -58 93h-11l2 8h11q38 0 56.5 -25.5t8.5 -78.5l-7 -36q27 65 88.5 107.5t136.5 42.5q110 0 161.5 -72t31.5 -179
l-58 -326q-17 -97 -52.5 -129t-123.5 -32h-1z" />
    <glyph glyph-name="Omacron" unicode="&#x14c;" horiz-adv-x="865" 
d="M364 813l2 9h264l-2 -9h-264zM432 -10q-172 0 -273.5 124t-71.5 297q26 144 137.5 236.5t250.5 92.5q90 0 163 -37.5t115.5 -98t60 -136.5t3.5 -154q-25 -143 -135.5 -233.5t-249.5 -90.5zM433 -1q135 0 242.5 89.5t131.5 227.5q18 102 -15 196.5t-117 156.5t-201 62
q-136 0 -244.5 -91t-132.5 -232q-19 -110 19 -204t122.5 -149.5t194.5 -55.5z" />
    <glyph glyph-name="omacron" unicode="&#x14d;" horiz-adv-x="625" 
d="M213 583l2 9h264l-2 -9h-264zM299 -10q-120 0 -190.5 87t-49.5 205q18 101 94.5 164.5t173.5 63.5q80 0 140 -43t85.5 -111t12.5 -141q-18 -98 -94 -161.5t-172 -63.5zM299 -1q92 0 166 62t91 156q19 110 -47 197t-182 87q-94 0 -168 -62t-91 -159q-19 -112 47.5 -196.5
t183.5 -84.5z" />
    <glyph glyph-name="Obreve" unicode="&#x14e;" horiz-adv-x="865" 
d="M432 -10q-172 0 -273.5 124t-71.5 297q26 144 137.5 236.5t250.5 92.5q90 0 163 -37.5t115.5 -98t60 -136.5t3.5 -154q-25 -143 -135.5 -233.5t-249.5 -90.5zM433 -1q135 0 242.5 89.5t131.5 227.5q18 102 -15 196.5t-117 156.5t-201 62q-136 0 -244.5 -91t-132.5 -232
q-19 -110 19 -204t122.5 -149.5t194.5 -55.5zM507 808q-72 0 -111.5 44.5t-29.5 98.5h10q-10 -50 26.5 -92t105.5 -42q74 0 118 40.5t53 93.5h10q-10 -58 -56.5 -100.5t-125.5 -42.5z" />
    <glyph glyph-name="obreve" unicode="&#x14f;" horiz-adv-x="625" 
d="M299 -10q-120 0 -190.5 87t-49.5 205q18 101 94.5 164.5t173.5 63.5q80 0 140 -43t85.5 -111t12.5 -141q-18 -98 -94 -161.5t-172 -63.5zM299 -1q92 0 166 62t91 156q19 110 -47 197t-182 87q-94 0 -168 -62t-91 -159q-19 -112 47.5 -196.5t183.5 -84.5zM356 572
q-72 0 -111.5 44.5t-29.5 98.5h10q-10 -50 26.5 -92t105.5 -42q74 0 118 40.5t53 93.5h10q-10 -58 -56.5 -100.5t-125.5 -42.5z" />
    <glyph glyph-name="Ohungarumlaut" unicode="&#x150;" horiz-adv-x="865" 
d="M455 813l145 137h15l-148 -137h-12zM539 813l149 137h15l-153 -137h-11zM432 -10q-172 0 -273.5 124t-71.5 297q26 144 137.5 236.5t250.5 92.5q90 0 163 -37.5t115.5 -98t60 -136.5t3.5 -154q-25 -143 -135.5 -233.5t-249.5 -90.5zM433 -1q135 0 242.5 89.5t131.5 227.5
q18 102 -15 196.5t-117 156.5t-201 62q-136 0 -244.5 -91t-132.5 -232q-19 -110 19 -204t122.5 -149.5t194.5 -55.5z" />
    <glyph glyph-name="ohungarumlaut" unicode="&#x151;" horiz-adv-x="625" 
d="M288 583l145 137h15l-148 -137h-12zM372 583l149 137h15l-153 -137h-11zM299 -10q-120 0 -190.5 87t-49.5 205q18 101 94.5 164.5t173.5 63.5q80 0 140 -43t85.5 -111t12.5 -141q-18 -98 -94 -161.5t-172 -63.5zM299 -1q92 0 166 62t91 156q19 110 -47 197t-182 87
q-94 0 -168 -62t-91 -159q-19 -112 47.5 -196.5t183.5 -84.5z" />
    <glyph glyph-name="OE" unicode="&#x152;" horiz-adv-x="1317" 
d="M753 0l44 251q-44 -116 -145 -188.5t-220 -72.5q-172 0 -273.5 124t-71.5 297q26 144 139.5 236.5t252.5 92.5q153 0 247.5 -97.5t96.5 -240.5l58 328h454l-2 -9h-444l-61 -347h444l-1 -9h-445l-62 -355h444l-1 -10h-454zM433 -1q134 0 242.5 94t133.5 233
q14 75 -2.5 148t-58 130t-112 92t-158.5 35q-136 0 -246.5 -91t-134.5 -232q-19 -107 17.5 -201t121 -151t197.5 -57z" />
    <glyph glyph-name="oe" unicode="&#x153;" horiz-adv-x="1164" 
d="M299 -10q-120 0 -190.5 87t-49.5 205q18 101 94.5 164.5t173.5 63.5q96 0 161.5 -60.5t77.5 -150.5q26 98 108.5 154.5t181.5 56.5q98 0 150.5 -46t42.5 -109q-11 -63 -71 -99t-160 -36q-55 0 -129 16t-120 36q-20 -119 48.5 -196t194.5 -77q119 0 197 78l7 -7
q-82 -80 -204 -80q-108 0 -175.5 54.5t-78.5 145.5q-25 -89 -98 -144.5t-161 -55.5zM299 -1q92 0 165.5 62t90.5 156q13 70 -11 135t-81.5 107t-135.5 42q-94 0 -168 -62t-91 -159q-19 -112 47.5 -196.5t183.5 -84.5zM856 501q-101 0 -183 -60t-102 -162q48 -20 121.5 -35
t125.5 -15q94 0 152 33.5t69 94.5q10 58 -39 101t-144 43z" />
    <glyph glyph-name="Racute" unicode="&#x154;" 
d="M487 0h-8q-67 0 -118 53.5t-74 120t-25 128.5h86q80 0 142 54.5t76 133.5q16 96 -43 163t-155 68h-193l-126 -721h-10l128 730h202q98 0 160.5 -70.5t45.5 -170.5q-14 -83 -78.5 -139.5t-149.5 -56.5h-75q3 -43 17 -90t38.5 -91.5t65 -73.5t88.5 -29h8zM344 813l146 137
h15l-150 -137h-11z" />
    <glyph glyph-name="racute" unicode="&#x155;" horiz-adv-x="382" 
d="M48 0l75 399q16 93 -58 93h-11l2 8h11q38 0 56.5 -25.5t8.5 -78.5l-8 -41q27 64 85.5 104.5t130.5 40.5h37l-2 -9h-35q-85 0 -148 -55t-78 -136l-57 -300h-9zM183 583l146 137h15l-150 -137h-11z" />
    <glyph glyph-name="Rcommaaccent" unicode="&#x156;" 
d="M487 0h-8q-67 0 -118 53.5t-74 120t-25 128.5h86q80 0 142 54.5t76 133.5q16 96 -43 163t-155 68h-193l-126 -721h-10l128 730h202q98 0 160.5 -70.5t45.5 -170.5q-14 -83 -78.5 -139.5t-149.5 -56.5h-75q3 -43 17 -90t38.5 -91.5t65 -73.5t88.5 -29h8zM154 -229l77 184
h12l-80 -184h-9z" />
    <glyph glyph-name="rcommaaccent" unicode="&#x157;" horiz-adv-x="382" 
d="M48 0l75 399q16 93 -58 93h-11l2 8h11q38 0 56.5 -25.5t8.5 -78.5l-8 -41q27 64 85.5 104.5t130.5 40.5h37l-2 -9h-35q-85 0 -148 -55t-78 -136l-57 -300h-9zM-22 -240l77 184h12l-80 -184h-9z" />
    <glyph glyph-name="Rcaron" unicode="&#x158;" 
d="M487 0h-8q-67 0 -118 53.5t-74 120t-25 128.5h86q80 0 142 54.5t76 133.5q16 96 -43 163t-155 68h-193l-126 -721h-10l128 730h202q98 0 160.5 -70.5t45.5 -170.5q-14 -83 -78.5 -139.5t-149.5 -56.5h-75q3 -43 17 -90t38.5 -91.5t65 -73.5t88.5 -29h8zM371 813l-95 137
h11l89 -129l133 129h13l-142 -137h-9z" />
    <glyph glyph-name="rcaron" unicode="&#x159;" horiz-adv-x="382" 
d="M48 0l75 399q16 93 -58 93h-11l2 8h11q38 0 56.5 -25.5t8.5 -78.5l-8 -41q27 64 85.5 104.5t130.5 40.5h37l-2 -9h-35q-85 0 -148 -55t-78 -136l-57 -300h-9zM218 583l-95 137h11l89 -129l133 129h13l-142 -137h-9z" />
    <glyph glyph-name="Sacute" unicode="&#x15a;" horiz-adv-x="540" 
d="M343 813l146 137h15l-150 -137h-11zM247 -10q-151 0 -228 124l9 6q73 -121 220 -121q84 0 140.5 42.5t68.5 112.5q8 44 -2.5 80t-39 63.5t-56.5 45.5t-71 39q-41 20 -65.5 35t-54.5 41.5t-41 61t-3 77.5q11 63 64 103t134 40q62 0 114.5 -27t84.5 -78l-8 -5
q-62 101 -192 101q-76 0 -126.5 -37.5t-61.5 -97.5q-6 -33 2.5 -62.5t21.5 -48.5t40.5 -39t45 -29.5t49.5 -25.5q34 -17 57.5 -30.5t51 -36t43 -45t23 -55.5t0.5 -70q-14 -75 -72.5 -119.5t-147.5 -44.5z" />
    <glyph glyph-name="sacute" unicode="&#x15b;" horiz-adv-x="496" 
d="M292 583l146 137h15l-150 -137h-11zM241 -10q-70 0 -126.5 28t-88.5 74l9 7q30 -46 84.5 -73t121.5 -27q75 0 118 32t51 79q4 23 -4 43t-19.5 33t-39 28t-42.5 21.5t-50 20.5q-45 17 -65 26.5t-48.5 28t-37.5 41t-4 51.5q9 50 55.5 79t114.5 28q56 0 106.5 -18.5
t81.5 -46.5l-7 -7q-69 64 -182 64q-64 0 -108 -26.5t-52 -73.5q-4 -21 2.5 -39t16 -29.5t33 -25t38.5 -19.5t47 -19l15 -6q94 -39 124 -64q43 -38 34 -91q-8 -52 -53.5 -85.5t-124.5 -33.5z" />
    <glyph glyph-name="Scircumflex" unicode="&#x15c;" horiz-adv-x="540" 
d="M247 -10q-151 0 -228 124l9 6q73 -121 220 -121q84 0 140.5 42.5t68.5 112.5q8 44 -2.5 80t-39 63.5t-56.5 45.5t-71 39q-41 20 -65.5 35t-54.5 41.5t-41 61t-3 77.5q11 63 64 103t134 40q62 0 114.5 -27t84.5 -78l-8 -5q-62 101 -192 101q-76 0 -126.5 -37.5
t-61.5 -97.5q-6 -33 2.5 -62.5t21.5 -48.5t40.5 -39t45 -29.5t49.5 -25.5q34 -17 57.5 -30.5t51 -36t43 -45t23 -55.5t0.5 -70q-14 -75 -72.5 -119.5t-147.5 -44.5zM226 812l143 138h9l95 -138h-11l-89 130l-134 -130h-13z" />
    <glyph glyph-name="scircumflex" unicode="&#x15d;" horiz-adv-x="496" 
d="M241 -10q-70 0 -126.5 28t-88.5 74l9 7q30 -46 84.5 -73t121.5 -27q75 0 118 32t51 79q4 23 -4 43t-19.5 33t-39 28t-42.5 21.5t-50 20.5q-45 17 -65 26.5t-48.5 28t-37.5 41t-4 51.5q9 50 55.5 79t114.5 28q56 0 106.5 -18.5t81.5 -46.5l-7 -7q-69 64 -182 64
q-64 0 -108 -26.5t-52 -73.5q-4 -21 2.5 -39t16 -29.5t33 -25t38.5 -19.5t47 -19l15 -6q94 -39 124 -64q43 -38 34 -91q-8 -52 -53.5 -85.5t-124.5 -33.5zM182 582l143 138h9l95 -138h-11l-89 130l-134 -130h-13z" />
    <glyph glyph-name="Scedilla" unicode="&#x15e;" horiz-adv-x="540" 
d="M193 -217q-75 0 -123 48l8 6q44 -46 116 -46q47 0 79.5 18t37.5 49q5 33 -23.5 52t-84.5 19h-10l12 64q-123 16 -186 121l9 6q73 -121 220 -121q84 0 140.5 42.5t68.5 112.5q8 44 -2.5 80t-39 63.5t-56.5 45.5t-71 39q-41 20 -65.5 35t-54.5 41.5t-41 61t-3 77.5
q11 63 64 103t134 40q62 0 114.5 -27t84.5 -78l-8 -5q-62 101 -192 101q-76 0 -126.5 -37.5t-61.5 -97.5q-6 -33 2.5 -62.5t21.5 -48.5t40.5 -39t45 -29.5t49.5 -25.5q34 -17 57.5 -30.5t51 -36t43 -45t23 -55.5t0.5 -70q-14 -75 -72.5 -119.5t-147.5 -44.5q-11 0 -33 2
l-10 -55q60 0 91 -22t25 -58q-6 -35 -40.5 -54.5t-86.5 -19.5z" />
    <glyph glyph-name="scedilla" unicode="&#x15f;" horiz-adv-x="496" 
d="M181 -217q-75 0 -123 48l8 6q44 -46 116 -46q47 0 79.5 18t37.5 49q5 33 -23.5 52t-84.5 19h-10l13 65q-111 16 -168 98l9 7q30 -46 84.5 -73t121.5 -27q75 0 118 32t51 79q4 23 -4 43t-19.5 33t-39 28t-42.5 21.5t-50 20.5q-45 17 -65 26.5t-48.5 28t-37.5 41t-4 51.5
q9 50 55.5 79t114.5 28q56 0 106.5 -18.5t81.5 -46.5l-7 -7q-69 64 -182 64q-64 0 -108 -26.5t-52 -73.5q-4 -21 2.5 -39t16 -29.5t33 -25t38.5 -19.5t47 -19l15 -6q94 -39 124 -64q43 -38 34 -91q-8 -52 -53.5 -85.5t-124.5 -33.5q-19 0 -39 3l-10 -56q60 0 91 -22t25 -58
q-6 -35 -40.5 -54.5t-86.5 -19.5z" />
    <glyph glyph-name="Scaron" unicode="&#x160;" horiz-adv-x="540" 
d="M247 -10q-151 0 -228 124l9 6q73 -121 220 -121q84 0 140.5 42.5t68.5 112.5q8 44 -2.5 80t-39 63.5t-56.5 45.5t-71 39q-41 20 -65.5 35t-54.5 41.5t-41 61t-3 77.5q11 63 64 103t134 40q62 0 114.5 -27t84.5 -78l-8 -5q-62 101 -192 101q-76 0 -126.5 -37.5
t-61.5 -97.5q-6 -33 2.5 -62.5t21.5 -48.5t40.5 -39t45 -29.5t49.5 -25.5q34 -17 57.5 -30.5t51 -36t43 -45t23 -55.5t0.5 -70q-14 -75 -72.5 -119.5t-147.5 -44.5zM348 813l-95 137h11l89 -129l133 129h13l-142 -137h-9z" />
    <glyph glyph-name="scaron" unicode="&#x161;" horiz-adv-x="496" 
d="M241 -10q-70 0 -126.5 28t-88.5 74l9 7q30 -46 84.5 -73t121.5 -27q75 0 118 32t51 79q4 23 -4 43t-19.5 33t-39 28t-42.5 21.5t-50 20.5q-45 17 -65 26.5t-48.5 28t-37.5 41t-4 51.5q9 50 55.5 79t114.5 28q56 0 106.5 -18.5t81.5 -46.5l-7 -7q-69 64 -182 64
q-64 0 -108 -26.5t-52 -73.5q-4 -21 2.5 -39t16 -29.5t33 -25t38.5 -19.5t47 -19l15 -6q94 -39 124 -64q43 -38 34 -91q-8 -52 -53.5 -85.5t-124.5 -33.5zM305 583l-95 137h11l89 -129l133 129h13l-142 -137h-9z" />
    <glyph glyph-name="Tcommaaccent" unicode="&#x162;" horiz-adv-x="629" 
d="M276 0h-10l126 721h-249l2 9h508l-2 -9h-249zM172 -261l77 184h12l-80 -184h-9z" />
    <glyph glyph-name="tcommaaccent" unicode="&#x163;" horiz-adv-x="307" 
d="M52 492l2 8h83l21 120l11 8l-23 -128h150l-2 -8h-150l-57 -323q-16 -92 9.5 -126t113.5 -34l-2 -9h-1q-90 0 -118 37t-11 132l57 323h-83zM41 -240l77 184h12l-80 -184h-9z" />
    <glyph glyph-name="Tcaron" unicode="&#x164;" horiz-adv-x="629" 
d="M276 0h-10l126 721h-249l2 9h508l-2 -9h-249zM400 813l-95 137h11l89 -129l133 129h13l-142 -137h-9z" />
    <glyph glyph-name="tcaron" unicode="&#x165;" horiz-adv-x="307" 
d="M52 492l2 8h83l21 120l11 8l-23 -128h150l-2 -8h-150l-57 -323q-16 -92 9.5 -126t113.5 -34l-2 -9h-1q-90 0 -118 37t-11 132l57 323h-83zM245 586l110 137h13l-113 -137h-10z" />
    <glyph glyph-name="Tbar" unicode="&#x166;" horiz-adv-x="629" 
d="M276 0h-10l66 378h-126l2 9h125l59 334h-249l2 9h508l-2 -9h-249l-59 -334h129l-2 -9h-128z" />
    <glyph glyph-name="tbar" unicode="&#x167;" horiz-adv-x="308" 
d="M52 492l2 8h82l22 120l11 7l-23 -127h150l-2 -8h-149l-39 -217h151l-2 -8h-150l-18 -101q-16 -94 9 -125.5t114 -31.5l-2 -9h-1q-92 0 -119.5 34.5t-10.5 131.5l18 101h-83l2 8h82l39 217h-83z" />
    <glyph glyph-name="Utilde" unicode="&#x168;" horiz-adv-x="662" 
d="M311 -10q-127 0 -187 78t-39 195l82 467h10l-83 -469q-20 -111 38 -186.5t181 -75.5q95 0 164 60t85 151l91 520h10l-91 -520q-17 -97 -88.5 -158.5t-172.5 -61.5zM257 813q7 34 31.5 57t56.5 23q6 0 11.5 -0.5t11.5 -2.5t10.5 -3t11.5 -4t10 -4.5t10.5 -6l10 -6
t10.5 -6.5t10 -6q57 -37 95 -37q30 0 51.5 18.5t28.5 54.5h10q-7 -39 -32 -60.5t-59 -21.5q-39 0 -99 38t-92 38q-28 0 -49.5 -20t-27.5 -51h-10z" />
    <glyph glyph-name="utilde" unicode="&#x169;" horiz-adv-x="617" 
d="M271 -10q-110 0 -158.5 73t-27.5 179l31 157q16 93 -59 93h-11l1 8h13q40 0 57.5 -26.5t7.5 -76.5l-31 -155q-21 -102 25 -172t153 -70q85 0 149 55t80 138l60 307h9l-76 -394q-20 -98 53 -98h14l-1 -8h-15q-82 0 -60 108l6 31q-27 -67 -86.5 -108t-133.5 -41zM170 583
q7 34 31.5 57t56.5 23q6 0 11.5 -0.5t11.5 -2.5t10.5 -3t11.5 -4t10 -4.5t10.5 -6l10 -6t10.5 -6.5t10 -6q57 -37 95 -37q30 0 51.5 18.5t28.5 54.5h10q-7 -39 -32 -60.5t-59 -21.5q-39 0 -99 38t-92 38q-28 0 -49.5 -20t-27.5 -51h-10z" />
    <glyph glyph-name="Umacron" unicode="&#x16a;" horiz-adv-x="662" 
d="M311 -10q-127 0 -187 78t-39 195l82 467h10l-83 -469q-20 -111 38 -186.5t181 -75.5q95 0 164 60t85 151l91 520h10l-91 -520q-17 -97 -88.5 -158.5t-172.5 -61.5zM297 813l2 9h264l-2 -9h-264z" />
    <glyph glyph-name="umacron" unicode="&#x16b;" horiz-adv-x="617" 
d="M271 -10q-110 0 -158.5 73t-27.5 179l31 157q16 93 -59 93h-11l1 8h13q40 0 57.5 -26.5t7.5 -76.5l-31 -155q-21 -102 25 -172t153 -70q85 0 149 55t80 138l60 307h9l-76 -394q-20 -98 53 -98h14l-1 -8h-15q-82 0 -60 108l6 31q-27 -67 -86.5 -108t-133.5 -41zM216 583
l2 9h264l-2 -9h-264z" />
    <glyph glyph-name="Ubreve" unicode="&#x16c;" horiz-adv-x="662" 
d="M311 -10q-127 0 -187 78t-39 195l82 467h10l-83 -469q-20 -111 38 -186.5t181 -75.5q95 0 164 60t85 151l91 520h10l-91 -520q-17 -97 -88.5 -158.5t-172.5 -61.5zM430 804q-72 0 -111.5 44.5t-29.5 98.5h10q-10 -50 26.5 -92t105.5 -42q74 0 118 40.5t53 93.5h10
q-10 -58 -56.5 -100.5t-125.5 -42.5z" />
    <glyph glyph-name="ubreve" unicode="&#x16d;" horiz-adv-x="617" 
d="M271 -10q-110 0 -158.5 73t-27.5 179l31 157q16 93 -59 93h-11l1 8h13q40 0 57.5 -26.5t7.5 -76.5l-31 -155q-21 -102 25 -172t153 -70q85 0 149 55t80 138l60 307h9l-76 -394q-20 -98 53 -98h14l-1 -8h-15q-82 0 -60 108l6 31q-27 -67 -86.5 -108t-133.5 -41zM353 572
q-72 0 -111.5 44.5t-29.5 98.5h10q-10 -50 26.5 -92t105.5 -42q74 0 118 40.5t53 93.5h10q-10 -58 -56.5 -100.5t-125.5 -42.5z" />
    <glyph glyph-name="Uring" unicode="&#x16e;" horiz-adv-x="662" 
d="M424 795q-35 0 -57 26.5t-16 63.5q5 31 30 52t56 21q38 0 59.5 -27t15.5 -60q-5 -32 -30 -54t-58 -22zM425 804q29 0 51 20t27 48q5 30 -13.5 53.5t-52.5 23.5q-28 0 -50.5 -19t-26.5 -47q-5 -32 14 -55.5t51 -23.5zM311 -10q-127 0 -187 78t-39 195l82 467h10l-83 -469
q-20 -111 38 -186.5t181 -75.5q95 0 164 60t85 151l91 520h10l-91 -520q-17 -97 -88.5 -158.5t-172.5 -61.5z" />
    <glyph glyph-name="uring" unicode="&#x16f;" horiz-adv-x="617" 
d="M353 576q-35 0 -57 26.5t-16 63.5q5 31 30 52t56 21q38 0 59.5 -27t15.5 -60q-5 -32 -30 -54t-58 -22zM354 585q29 0 51 20t27 48q5 30 -13.5 53.5t-52.5 23.5q-28 0 -50.5 -19t-26.5 -47q-5 -32 14 -55.5t51 -23.5zM271 -10q-110 0 -158.5 73t-27.5 179l31 157
q16 93 -59 93h-11l1 8h13q40 0 57.5 -26.5t7.5 -76.5l-31 -155q-21 -102 25 -172t153 -70q85 0 149 55t80 138l60 307h9l-76 -394q-20 -98 53 -98h14l-1 -8h-15q-82 0 -60 108l6 31q-27 -67 -86.5 -108t-133.5 -41z" />
    <glyph glyph-name="Uhungarumlaut" unicode="&#x170;" horiz-adv-x="662" 
d="M311 -10q-127 0 -187 78t-39 195l82 467h10l-83 -469q-20 -111 38 -186.5t181 -75.5q95 0 164 60t85 151l91 520h10l-91 -520q-17 -97 -88.5 -158.5t-172.5 -61.5zM371 813l145 137h15l-148 -137h-12zM455 813l149 137h15l-153 -137h-11z" />
    <glyph glyph-name="uhungarumlaut" unicode="&#x171;" horiz-adv-x="617" 
d="M271 -10q-110 0 -158.5 73t-27.5 179l31 157q16 93 -59 93h-11l1 8h13q40 0 57.5 -26.5t7.5 -76.5l-31 -155q-21 -102 25 -172t153 -70q85 0 149 55t80 138l60 307h9l-76 -394q-20 -98 53 -98h14l-1 -8h-15q-82 0 -60 108l6 31q-27 -67 -86.5 -108t-133.5 -41zM290 583
l145 137h15l-148 -137h-12zM374 583l149 137h15l-153 -137h-11z" />
    <glyph glyph-name="Uogonek" unicode="&#x172;" horiz-adv-x="662" 
d="M311 -10h-9q-127 -45 -137 -105q-5 -34 20.5 -58t70.5 -24q71 0 127 48l7 -6q-61 -51 -135 -51q-49 0 -77 27.5t-22 65.5q4 31 34.5 55.5t90.5 49.5q-112 10 -164 85.5t-32 185.5l82 467h10l-83 -469q-20 -111 38 -186.5t181 -75.5q95 0 164 60t85 151l91 520h10
l-91 -520q-17 -97 -88.5 -158.5t-172.5 -61.5z" />
    <glyph glyph-name="uogonek" unicode="&#x173;" horiz-adv-x="617" 
d="M271 -10q-110 0 -158.5 73t-27.5 179l31 157q16 93 -59 93h-11l1 8h13q40 0 57.5 -26.5t7.5 -76.5l-31 -155q-21 -102 25 -172t153 -70q85 0 149 55t80 138l60 307h9l-76 -394q-20 -98 53 -98h14l-1 -8q-130 -47 -140 -106q-5 -34 20.5 -58t70.5 -24q71 0 127 48l7 -6
q-61 -51 -135 -51q-49 0 -77 27.5t-22 65.5q8 57 125 104q-71 6 -51 108l6 31q-27 -67 -86.5 -108t-133.5 -41z" />
    <glyph glyph-name="Wcircumflex" unicode="&#x174;" horiz-adv-x="1083" 
d="M764 0h-11l-133 714l-376 -714h-12l-91 730h10l89 -714l378 714h8l134 -714l340 714h11zM506 812l143 138h9l95 -138h-11l-89 130l-134 -130h-13z" />
    <glyph glyph-name="wcircumflex" unicode="&#x175;" horiz-adv-x="991" 
d="M254 -10q-102 0 -146 73t-23 179l31 157q17 93 -58 93h-12l2 8h12q40 0 57.5 -26.5t7.5 -76.5l-31 -155q-21 -101 21 -171.5t139 -70.5q83 0 144.5 60.5t75.5 145.5l57 294h9l-57 -294q-18 -95 25.5 -151t136.5 -56q105 0 172 79t91 206q19 100 -4 216h10q21 -120 3 -217
q-25 -131 -94 -212t-178 -81q-82 0 -130 45t-46 124q-24 -74 -82 -121.5t-133 -47.5zM401 582l143 138h9l95 -138h-11l-89 130l-134 -130h-13z" />
    <glyph glyph-name="Ycircumflex" unicode="&#x176;" horiz-adv-x="598" 
d="M250 0l61 351l-184 379h11l180 -372l309 372h12l-319 -383l-60 -347h-10zM273 805l143 138h9l95 -138h-11l-89 130l-134 -130h-13z" />
    <glyph glyph-name="ycircumflex" unicode="&#x177;" horiz-adv-x="612" 
d="M240 -240q-73 0 -129 36t-80 97l10 3q23 -59 75.5 -92.5t123.5 -33.5q183 0 228 241l24 129q-27 -67 -87 -108.5t-133 -41.5q-111 0 -159.5 72.5t-27.5 179.5l31 157q16 93 -59 93h-11l2 8h13q40 0 57 -26.5t7 -76.5l-31 -155q-20 -102 26 -172t152 -70q85 0 149.5 55.5
t80.5 137.5l60 307h9l-93 -489q-23 -122 -80 -186.5t-158 -64.5zM230 582l143 138h9l95 -138h-11l-89 130l-134 -130h-13z" />
    <glyph glyph-name="Ydieresis" unicode="&#x178;" horiz-adv-x="598" 
d="M250 0l61 351l-184 379h11l180 -372l309 372h12l-319 -383l-60 -347h-10zM346 801l24 140h9l-24 -140h-9zM424 801l24 140h9l-24 -140h-9z" />
    <glyph glyph-name="Zacute" unicode="&#x179;" horiz-adv-x="581" 
d="M486 0h-477l1 10l586 711h-451l2 9h464l-2 -9l-587 -712h466zM366 813l146 137h15l-150 -137h-11z" />
    <glyph glyph-name="zacute" unicode="&#x17a;" horiz-adv-x="562" 
d="M22 0l1 9l505 483h-414l2 8h427l-1 -9l-505 -482h424l-2 -9h-437zM310 583l146 137h15l-150 -137h-11z" />
    <glyph glyph-name="Zdotaccent" unicode="&#x17b;" horiz-adv-x="581" 
d="M486 0h-477l1 10l586 711h-451l2 9h464l-2 -9l-587 -712h466zM376 812l24 140h10l-24 -140h-10z" />
    <glyph glyph-name="zdotaccent" unicode="&#x17c;" horiz-adv-x="562" 
d="M22 0l1 9l505 483h-414l2 8h427l-1 -9l-505 -482h424l-2 -9h-437zM316 582l24 140h10l-24 -140h-10z" />
    <glyph glyph-name="Zcaron" unicode="&#x17d;" horiz-adv-x="581" 
d="M486 0h-477l1 10l586 711h-451l2 9h464l-2 -9l-587 -712h466zM379 813l-95 137h11l89 -129l133 129h13l-142 -137h-9z" />
    <glyph glyph-name="zcaron" unicode="&#x17e;" horiz-adv-x="562" 
d="M22 0l1 9l505 483h-414l2 8h427l-1 -9l-505 -482h424l-2 -9h-437zM320 583l-95 137h11l89 -129l133 129h13l-142 -137h-9z" />
    <glyph glyph-name="florin" unicode="&#x192;" 
d="M100 379l2 9h205l66 191q28 85 74.5 118t145.5 33h2l-2 -9q-96 0 -139.5 -31.5t-71.5 -113.5l-65 -188h219l-2 -9h-220l-79 -233q-30 -91 -69 -118.5t-132 -27.5h-2v9q92 0 128 26t66 115l78 229h-204z" />
    <glyph glyph-name="Aringacute" unicode="&#x1fa;" horiz-adv-x="684" 
d="M2 0l414 722q-30 5 -48.5 30t-12.5 59q5 31 30 52t56 21q38 0 59.5 -27t15.5 -60q-5 -31 -28.5 -53t-54.5 -23l162 -721h-10l-56 250h-373l-143 -250h-11zM424 719l-263 -460h366zM429 730q29 0 51 20t27 48q5 30 -13.5 53.5t-52.5 23.5q-28 0 -50.5 -19t-26.5 -47
q-5 -32 14 -55.5t51 -23.5zM448 934l146 137h15l-150 -137h-11z" />
    <glyph glyph-name="aringacute" unicode="&#x1fb;" horiz-adv-x="680" 
d="M302 -10q-119 0 -189 87t-49 205q18 101 95 164.5t176 63.5t162.5 -63t69.5 -155l37 208h10l-71 -398q-8 -44 7 -68.5t51 -24.5h11l-1 -9h-12q-40 0 -57 29t-8 76l10 52q-31 -76 -96.5 -121.5t-145.5 -45.5zM302 -1q93 0 165.5 64t89.5 161q19 108 -44 192.5t-178 84.5
q-96 0 -170.5 -62t-91.5 -159q-19 -114 47.5 -197.5t181.5 -83.5zM383 573q-35 0 -57 26.5t-16 63.5q5 31 30 52t56 21q38 0 59.5 -27t15.5 -60q-5 -32 -30 -54t-58 -22zM384 582q29 0 51 20t27 48q5 30 -13.5 53.5t-52.5 23.5q-28 0 -50.5 -19t-26.5 -47q-5 -32 14 -55.5
t51 -23.5zM401 790l146 137h15l-150 -137h-11z" />
    <glyph glyph-name="AEacute" unicode="&#x1fc;" horiz-adv-x="1161" 
d="M-4 0l491 730h529l-2 -9h-516l45 -351h409l-1 -9h-407l45 -351h300l-1 -10h-307l-32 250h-373l-167 -250h-13zM490 718l-308 -459h366zM689 813l146 137h15l-150 -137h-11z" />
    <glyph glyph-name="aeacute" unicode="&#x1fd;" horiz-adv-x="996" 
d="M228 -10q-87 0 -126 41t-29 100q5 28 20 50t33.5 35t50 24.5t56.5 17t65 12.5q116 20 149 33q56 23 64 70q11 53 -31.5 91t-131.5 38t-150 -39.5t-74 -110.5l-11 -1q14 74 78.5 116.5t157.5 42.5q91 0 135 -39t37 -94q41 63 110 98t145 35q98 0 150.5 -46t42.5 -109
q-11 -63 -71 -99t-160 -36q-55 0 -129 16t-120 36q-20 -119 48 -196t195 -77q119 0 197 78l7 -7q-82 -80 -204 -80q-90 0 -153 38.5t-88 105.5q-39 -55 -108.5 -99.5t-154.5 -44.5zM776 501q-101 0 -183 -60t-102 -161q49 -20 122 -35.5t125 -15.5q94 0 152 33.5t69 94.5
q10 58 -39 101t-144 43zM229 -2q81 0 150.5 44.5t107.5 101.5q-19 62 -6 132q3 20 13 48q-6 -7 -14.5 -13t-16 -10.5t-20.5 -9t-21.5 -7t-26.5 -6t-28 -5.5t-33.5 -6t-35.5 -6q-40 -7 -62.5 -12t-53 -15.5t-48 -22.5t-32 -32.5t-19.5 -47.5q-10 -56 26.5 -94.5t119.5 -38.5z
M540 570l146 137h15l-150 -137h-11z" />
    <glyph glyph-name="Oslashacute" unicode="&#x1fe;" horiz-adv-x="881" 
d="M440 -10q-137 0 -231 80l-62 -70h-13l68 76q-67 60 -96 147.5t-11 187.5q26 144 137.5 236.5t250.5 92.5t234 -87l69 77h13l-75 -84q63 -61 90 -149t11 -183q-25 -143 -135.5 -233.5t-249.5 -90.5zM105 408q-17 -95 11 -181t93 -144l502 563q-93 85 -229 85t-244.5 -91
t-132.5 -232zM441 -1q135 0 242.5 89.5t131.5 227.5q16 90 -9.5 176.5t-87.5 146.5l-502 -562q92 -78 225 -78zM520 806l146 137h15l-150 -137h-11z" />
    <glyph glyph-name="oslashacute" unicode="&#x1ff;" horiz-adv-x="632" 
d="M83 0l48 55q-43 41 -62 101t-7 126q18 101 94.5 164.5t173.5 63.5q90 0 156 -56l42 46h13l-47 -53q46 -43 66 -104t8 -128q-18 -98 -94 -161.5t-172 -63.5q-95 0 -163 58l-43 -48h-13zM302 -1q92 0 166 62t90 156q11 62 -7.5 122t-62.5 101l-343 -385q64 -56 157 -56z
M71 280q-11 -62 7 -120t60 -98l342 385q-62 54 -150 54q-94 0 -168 -62t-91 -159zM349 583l146 137h15l-150 -137h-11z" />
    <glyph glyph-name="Scommaaccent" unicode="&#x218;" horiz-adv-x="540" 
d="M128 -258l77 184h12l-80 -184h-9zM247 -10q-151 0 -228 124l9 6q73 -121 220 -121q84 0 140.5 42.5t68.5 112.5q8 44 -2.5 80t-39 63.5t-56.5 45.5t-71 39q-41 20 -65.5 35t-54.5 41.5t-41 61t-3 77.5q11 63 64 103t134 40q62 0 114.5 -27t84.5 -78l-8 -5
q-62 101 -192 101q-76 0 -126.5 -37.5t-61.5 -97.5q-6 -33 2.5 -62.5t21.5 -48.5t40.5 -39t45 -29.5t49.5 -25.5q34 -17 57.5 -30.5t51 -36t43 -45t23 -55.5t0.5 -70q-14 -75 -72.5 -119.5t-147.5 -44.5z" />
    <glyph glyph-name="scommaaccent" unicode="&#x219;" horiz-adv-x="496" 
d="M115 -240l77 184h12l-80 -184h-9zM241 -10q-70 0 -126.5 28t-88.5 74l9 7q30 -46 84.5 -73t121.5 -27q75 0 118 32t51 79q4 23 -4 43t-19.5 33t-39 28t-42.5 21.5t-50 20.5q-45 17 -65 26.5t-48.5 28t-37.5 41t-4 51.5q9 50 55.5 79t114.5 28q56 0 106.5 -18.5
t81.5 -46.5l-7 -7q-69 64 -182 64q-64 0 -108 -26.5t-52 -73.5q-4 -21 2.5 -39t16 -29.5t33 -25t38.5 -19.5t47 -19l15 -6q94 -39 124 -64q43 -38 34 -91q-8 -52 -53.5 -85.5t-124.5 -33.5z" />
    <glyph glyph-name="dotlessj" unicode="&#x237;" horiz-adv-x="194" 
d="M-129 -228l2 10q84 0 117 29.5t49 122.5l101 566h9l-100 -567q-17 -96 -53 -128.5t-124 -32.5h-1z" />
    <glyph glyph-name="circumflex" unicode="&#x2c6;" horiz-adv-x="491" 
d="M171 582l143 138h9l95 -138h-11l-89 130l-134 -130h-13z" />
    <glyph glyph-name="caron" unicode="&#x2c7;" horiz-adv-x="491" 
d="M294 583l-95 137h11l89 -129l133 129h13l-142 -137h-9z" />
    <glyph glyph-name="breve" unicode="&#x2d8;" horiz-adv-x="491" 
d="M306 572q-72 0 -111.5 44.5t-29.5 98.5h10q-10 -50 26.5 -92t105.5 -42q74 0 118 40.5t53 93.5h10q-10 -58 -56.5 -100.5t-125.5 -42.5z" />
    <glyph glyph-name="dotaccent" unicode="&#x2d9;" horiz-adv-x="491" 
d="M279 582l24 140h10l-24 -140h-10z" />
    <glyph glyph-name="ring" unicode="&#x2da;" horiz-adv-x="491" 
d="M304 576q-35 0 -57 26.5t-16 63.5q5 31 30 52t56 21q38 0 59.5 -27t15.5 -60q-5 -32 -30 -54t-58 -22zM305 585q29 0 51 20t27 48q5 30 -13.5 53.5t-52.5 23.5q-28 0 -50.5 -19t-26.5 -47q-5 -32 14 -55.5t51 -23.5z" />
    <glyph glyph-name="ogonek" unicode="&#x2db;" horiz-adv-x="491" 
d="M156 -197q-49 0 -77 27.5t-22 65.5q5 33 39.5 58.5t102.5 52.5l7 -7q-130 -47 -140 -106q-5 -34 20.5 -58t70.5 -24q71 0 127 48l7 -6q-61 -51 -135 -51z" />
    <glyph glyph-name="tilde" unicode="&#x2dc;" horiz-adv-x="491" 
d="M116 583q7 34 31.5 57t56.5 23q6 0 11.5 -0.5t11.5 -2.5t10.5 -3t11.5 -4t10 -4.5t10.5 -6l10 -6t10.5 -6.5t10 -6q57 -37 95 -37q30 0 51.5 18.5t28.5 54.5h10q-7 -39 -32 -60.5t-59 -21.5q-39 0 -99 38t-92 38q-28 0 -49.5 -20t-27.5 -51h-10z" />
    <glyph glyph-name="hungarumlaut" unicode="&#x2dd;" horiz-adv-x="491" 
d="M179 583l145 137h15l-148 -137h-12zM263 583l149 137h15l-153 -137h-11z" />
    <glyph glyph-name="pi" unicode="&#x3c0;" horiz-adv-x="743" 
d="M118 721l2 9h668l-2 -9h-160l-101 -572q-25 -139 99 -139h39l-2 -10h-41q-131 0 -105 149l101 572h-316l-127 -721h-10l127 721h-172z" />
    <glyph glyph-name="pi" unicode="&#x3d6;" horiz-adv-x="743" 
d="M118 721l2 9h668l-2 -9h-160l-101 -572q-25 -139 99 -139h39l-2 -10h-41q-131 0 -105 149l101 572h-316l-127 -721h-10l127 721h-172z" />
    <glyph glyph-name="uni0E3F" unicode="&#xe3f;" horiz-adv-x="559" 
d="M47 73l105 596h185l11 61h10l-11 -61h31q65 0 106.5 -42.5t36.5 -103.5q-5 -53 -41 -93t-89 -50q50 -13 80 -59.5t20 -101.5q-11 -63 -60.5 -104.5t-115.5 -41.5h-73l-13 -73h-10l13 73h-185zM356 377h-61l-52 -295h73q63 0 108.5 39.5t56.5 99.5q11 62 -28 109t-97 47z
M110 377l-52 -295h175l52 295h-175zM160 661l-49 -275h176l49 275h-176zM377 661h-32l-48 -275h64q59 0 102.5 40t48.5 97t-34.5 97.5t-100.5 40.5z" />
    <glyph glyph-name="Wgrave" unicode="&#x1e80;" horiz-adv-x="1083" 
d="M764 0h-11l-133 714l-376 -714h-12l-91 730h10l89 -714l378 714h8l134 -714l340 714h11zM624 813l-105 137h14l100 -137h-9z" />
    <glyph glyph-name="wgrave" unicode="&#x1e81;" horiz-adv-x="991" 
d="M254 -10q-102 0 -146 73t-23 179l31 157q17 93 -58 93h-12l2 8h12q40 0 57.5 -26.5t7.5 -76.5l-31 -155q-21 -101 21 -171.5t139 -70.5q83 0 144.5 60.5t75.5 145.5l57 294h9l-57 -294q-18 -95 25.5 -151t136.5 -56q105 0 172 79t91 206q19 100 -4 216h10q21 -120 3 -217
q-25 -131 -94 -212t-178 -81q-82 0 -130 45t-46 124q-24 -74 -82 -121.5t-133 -47.5zM539 583l-105 137h14l100 -137h-9z" />
    <glyph glyph-name="Wacute" unicode="&#x1e82;" horiz-adv-x="1083" 
d="M764 0h-11l-133 714l-376 -714h-12l-91 730h10l89 -714l378 714h8l134 -714l340 714h11zM638 813l146 137h15l-150 -137h-11z" />
    <glyph glyph-name="wacute" unicode="&#x1e83;" horiz-adv-x="991" 
d="M254 -10q-102 0 -146 73t-23 179l31 157q17 93 -58 93h-12l2 8h12q40 0 57.5 -26.5t7.5 -76.5l-31 -155q-21 -101 21 -171.5t139 -70.5q83 0 144.5 60.5t75.5 145.5l57 294h9l-57 -294q-18 -95 25.5 -151t136.5 -56q105 0 172 79t91 206q19 100 -4 216h10q21 -120 3 -217
q-25 -131 -94 -212t-178 -81q-82 0 -130 45t-46 124q-24 -74 -82 -121.5t-133 -47.5zM543 583l146 137h15l-150 -137h-11z" />
    <glyph glyph-name="Wdieresis" unicode="&#x1e84;" horiz-adv-x="1083" 
d="M764 0h-11l-133 714l-376 -714h-12l-91 730h10l89 -714l378 714h8l134 -714l340 714h11zM589 812l24 140h9l-24 -140h-9zM667 812l24 140h9l-24 -140h-9z" />
    <glyph glyph-name="wdieresis" unicode="&#x1e85;" horiz-adv-x="991" 
d="M254 -10q-102 0 -146 73t-23 179l31 157q17 93 -58 93h-12l2 8h12q40 0 57.5 -26.5t7.5 -76.5l-31 -155q-21 -101 21 -171.5t139 -70.5q83 0 144.5 60.5t75.5 145.5l57 294h9l-57 -294q-18 -95 25.5 -151t136.5 -56q105 0 172 79t91 206q19 100 -4 216h10q21 -120 3 -217
q-25 -131 -94 -212t-178 -81q-82 0 -130 45t-46 124q-24 -74 -82 -121.5t-133 -47.5zM504 582l24 140h9l-24 -140h-9zM582 582l24 140h9l-24 -140h-9z" />
    <glyph glyph-name="Ygrave" unicode="&#x1ef2;" horiz-adv-x="629" 
d="M265 0l61 351l-184 379h11l180 -372l309 372h12l-319 -383l-60 -347h-10zM398 780l-105 137h14l100 -137h-9z" />
    <glyph glyph-name="ygrave" unicode="&#x1ef3;" horiz-adv-x="625" 
d="M266 -240q-73 0 -129 36t-80 97l10 3q23 -59 75.5 -92.5t123.5 -33.5q183 0 228 241l24 129q-27 -67 -87 -108.5t-133 -41.5q-111 0 -159.5 72.5t-27.5 179.5l31 157q16 93 -59 93h-11l2 8h13q40 0 57 -26.5t7 -76.5l-31 -155q-20 -102 26 -172t152 -70q85 0 149.5 55.5
t80.5 137.5l60 307h9l-93 -489q-23 -122 -80 -186.5t-158 -64.5zM372 572l-105 137h14l100 -137h-9z" />
    <glyph glyph-name="figuredash" unicode="&#x2012;" horiz-adv-x="667" 
d="M48 251l2 9h571l-2 -9h-571z" />
    <glyph glyph-name="endash" unicode="&#x2013;" horiz-adv-x="511" 
d="M48 251l2 9h421l-2 -9h-421z" />
    <glyph glyph-name="emdash" unicode="&#x2014;" horiz-adv-x="717" 
d="M48 251l2 9h621l-2 -9h-621z" />
    <glyph glyph-name="uni2015" unicode="&#x2015;" horiz-adv-x="1017" 
d="M48 251l2 9h921l-2 -9h-921z" />
    <glyph glyph-name="doublebar" unicode="&#x2016;" horiz-adv-x="295" 
d="M-9 -230l169 960h10l-169 -960h-10zM124 -230l169 960h10l-169 -960h-10z" />
    <glyph glyph-name="quoteleft" unicode="&#x2018;" horiz-adv-x="141" 
d="M124 730l14 -204h-8l-18 204h12z" />
    <glyph glyph-name="quoteright" unicode="&#x2019;" horiz-adv-x="141" 
d="M87 526h-9l86 204h13z" />
    <glyph glyph-name="quotesinglbase" unicode="&#x201a;" horiz-adv-x="143" 
d="M-42 -117l86 204h12l-90 -204h-8z" />
    <glyph glyph-name="reversequoteleft" unicode="&#x201b;" horiz-adv-x="141" 
d="M87 526h-9l86 204h13z" />
    <glyph glyph-name="quotedblleft" unicode="&#x201c;" horiz-adv-x="213" 
d="M195 730l15 -204h-9l-18 204h12zM124 730l14 -204h-8l-18 204h12z" />
    <glyph glyph-name="quotedblright" unicode="&#x201d;" horiz-adv-x="213" 
d="M87 526h-9l86 204h12zM158 526h-9l87 204h12z" />
    <glyph glyph-name="quotedblbase" unicode="&#x201e;" horiz-adv-x="215" 
d="M-45 -117l86 204h13l-91 -204h-8zM34 -117l86 204h12l-90 -204h-8z" />
    <glyph glyph-name="reversequotedblleft" unicode="&#x201f;" horiz-adv-x="213" 
d="M87 526h-9l86 204h12zM158 526h-9l87 204h12z" />
    <glyph glyph-name="dagger" unicode="&#x2020;" horiz-adv-x="585" 
d="M99 491l2 9h218l41 230h10l-41 -230h225l-2 -9h-224l-86 -491h-10l86 491h-219z" />
    <glyph glyph-name="daggerdbl" unicode="&#x2021;" horiz-adv-x="585" 
d="M98 488l2 9h219l41 233h10l-41 -233h224l-2 -9h-224l-42 -240h224l-2 -9h-223l-42 -239h-10l42 239h-220l2 9h219l42 240h-219z" />
    <glyph glyph-name="bullet" unicode="&#x2022;" horiz-adv-x="215" 
d="M112 231q-9 0 -15.5 6.5t-6.5 15.5t6.5 16t15.5 7q10 0 16.5 -7t6.5 -16t-6.5 -15.5t-16.5 -6.5z" />
    <glyph glyph-name="ellipsis" unicode="&#x2026;" horiz-adv-x="351" 
d="M63 0l24 137h11l-24 -137h-11zM167 0l24 137h10l-24 -137h-10zM122 0l24 137h10l-24 -137h-10z" />
    <glyph glyph-name="perthousand" unicode="&#x2030;" horiz-adv-x="1258" 
d="M60 0l755 730h14l-755 -730h-14zM286 422q-73 0 -116 53.5t-30 125.5q10 61 57 100t107 39q73 0 115.5 -54.5t30.5 -126.5q-10 -60 -56.5 -98.5t-107.5 -38.5zM286 431q57 0 101.5 37t53.5 93q11 66 -28 118t-109 52q-58 0 -102 -37t-53 -95q-11 -66 28 -117t109 -51z
M580 -11q-74 0 -116.5 53.5t-30.5 125.5q11 61 58 100t107 39q73 0 115.5 -54.5t30.5 -126.5q-10 -60 -56.5 -98.5t-107.5 -38.5zM579 -2q58 0 102 37t54 93q11 66 -28 118t-109 52q-58 0 -102 -37t-54 -95q-11 -66 28.5 -117t108.5 -51zM990 -11q-73 0 -116 53.5t-30 125.5
q10 61 57 100t107 39q73 0 115.5 -54.5t30.5 -126.5q-10 -60 -56.5 -98.5t-107.5 -38.5zM990 -2q57 0 101.5 37t53.5 93q11 66 -28 118t-109 52q-58 0 -102 -37t-53 -95q-11 -66 28 -117t109 -51z" />
    <glyph glyph-name="minute" unicode="&#x2032;" horiz-adv-x="141" 
d="M87 526h-9l86 204h13z" />
    <glyph glyph-name="second" unicode="&#x2033;" horiz-adv-x="213" 
d="M87 526h-9l86 204h12zM158 526h-9l87 204h12z" />
    <glyph glyph-name="tripleprime" unicode="&#x2034;" horiz-adv-x="312" 
d="M105 500q5 47 24 146l15 84h10l-15 -84q-21 -116 -28 -146h-6zM190 500q5 47 24 146l15 84h10l-15 -84q-21 -116 -28 -146h-6zM275 500q1 12 5.5 40t10 62t7.5 44l15 84h10l-15 -84q-11 -72 -28 -146h-5z" />
    <glyph glyph-name="guilsinglleft" unicode="&#x2039;" horiz-adv-x="262" 
d="M177 125l-118 119l2 9l161 120l-3 -14l-150 -112l110 -111z" />
    <glyph glyph-name="guilsinglright" unicode="&#x203a;" horiz-adv-x="262" 
d="M91 373l117 -119l-2 -9l-160 -121l3 14l149 111l-110 113z" />
    <glyph glyph-name="fraction" unicode="&#x2044;" horiz-adv-x="611" 
d="M-7 0l656 730h13l-655 -730h-14z" />
    <glyph glyph-name="uni2070" unicode="&#x2070;" horiz-adv-x="518" 
d="M295 304q-100 0 -159 72.5t-41 171.5q15 85 79.5 138.5t145.5 53.5q104 0 160 -76t39 -171q-15 -83 -79 -136t-145 -53zM296 313q77 0 138 51.5t75 130.5q17 90 -36.5 163t-152.5 73q-77 0 -139.5 -52t-76.5 -132q-16 -96 40 -165t152 -69z" />
    <glyph glyph-name="uni2074" unicode="&#x2074;" horiz-adv-x="358" 
d="M265 308l17 97h-229v10l286 315h9l-56 -316h75l-2 -9h-74l-17 -97h-9zM66 414h217l52 300z" />
    <glyph glyph-name="uni2075" unicode="&#x2075;" horiz-adv-x="370" 
d="M193 302q-46 0 -79 20.5t-48 53.5l8 5q34 -70 120 -70q56 0 101.5 35t56.5 90q10 55 -21.5 97t-90.5 42q-92 0 -139 -75l-10 3l69 227h221l-1 -9h-214l-60 -200q47 63 135 63q64 0 97.5 -45t22.5 -103q-10 -59 -58 -96.5t-110 -37.5z" />
    <glyph glyph-name="uni2076" unicode="&#x2076;" horiz-adv-x="374" 
d="M214 302q-69 0 -107 48.5t-27 116.5q9 46 40 80l167 183h12l-144 -157q37 22 77 22q66 0 105.5 -49.5t27.5 -116.5q-10 -55 -53.5 -91t-97.5 -36zM214 311q50 0 91 34t51 85q11 63 -25.5 109.5t-99.5 46.5q-51 0 -92 -34.5t-50 -85.5q-11 -63 24.5 -109t100.5 -46z" />
    <glyph glyph-name="uni2077" unicode="&#x2077;" horiz-adv-x="341" 
d="M119 308l252 414h-245l2 8h255l-2 -8l-251 -414h-11z" />
    <glyph glyph-name="uni2078" unicode="&#x2078;" horiz-adv-x="354" 
d="M192 306q-63 0 -96 38t-24 87q7 43 41.5 71.5t82.5 36.5q-34 7 -55.5 35.5t-14.5 69.5q8 41 42.5 68.5t82.5 27.5q53 0 82.5 -33t22.5 -76q-7 -37 -35.5 -62t-71.5 -30q45 -9 72.5 -42.5t19.5 -82.5q-9 -46 -46.5 -77t-102.5 -31zM193 316q59 0 94.5 28.5t43.5 70.5
q9 51 -23.5 85.5t-83.5 34.5q-55 0 -95 -31.5t-48 -73.5q-7 -46 22.5 -80t89.5 -34zM222 544q53 0 86 25t39 62q7 40 -19.5 70t-77.5 30q-45 0 -76.5 -24.5t-38.5 -62.5q-8 -42 19.5 -71t67.5 -29z" />
    <glyph glyph-name="uni2079" unicode="&#x2079;" horiz-adv-x="355" 
d="M159 312l151 178q-37 -26 -80 -26q-63 0 -99.5 46t-25.5 108q9 54 49.5 88t92.5 34q64 0 101 -46.5t26 -110.5q-6 -34 -34 -69l-169 -202h-12zM231 473q48 0 87 33t47 78q11 59 -24.5 103t-93.5 44q-48 0 -86.5 -32.5t-46.5 -81.5q-10 -57 23.5 -100.5t93.5 -43.5z" />
    <glyph glyph-name="uni207A" unicode="&#x207a;" horiz-adv-x="279" 
d="M75 520l1 9h104l18 101h9l-18 -101h102l-2 -9h-102l-18 -103h-9l18 103h-103z" />
    <glyph glyph-name="uni207B" unicode="&#x207b;" horiz-adv-x="279" 
d="M75 519l1 9h215l-2 -9h-214z" />
    <glyph glyph-name="uni207C" unicode="&#x207c;" horiz-adv-x="279" 
d="M82 565l2 9h214l-2 -9h-214zM65 473l2 9h215l-2 -9h-215z" />
    <glyph glyph-name="uni207D" unicode="&#x207d;" horiz-adv-x="306" 
d="M246 198l-5 -8q-71 46 -110 144.5t-19 211.5q19 112 90 195t147 114l4 -7q-75 -31 -144 -113t-88 -190q-19 -110 18.5 -206t106.5 -141z" />
    <glyph glyph-name="uni207E" unicode="&#x207e;" horiz-adv-x="306" 
d="M154 848l5 8q71 -46 111.5 -144.5t21.5 -211.5t-88.5 -196t-147.5 -115l-5 7q77 31 145 113.5t87 191.5q19 110 -20 205.5t-109 141.5z" />
    <glyph glyph-name="uni2080" unicode="&#x2080;" horiz-adv-x="518" 
d="M240 -8q-100 0 -159 72.5t-41 171.5q15 85 79.5 138.5t145.5 53.5q104 0 160 -76t39 -171q-15 -83 -79 -136t-145 -53zM241 1q77 0 138 51.5t75 130.5q17 90 -36.5 163t-152.5 73q-77 0 -139.5 -52t-76.5 -132q-16 -96 40 -165t152 -69z" />
    <glyph glyph-name="uni2081" unicode="&#x2081;" horiz-adv-x="271" 
d="M7 0l1 9h85l67 382q-10 -20 -32 -33.5t-50 -13.5h-5l2 9h3q37 0 59.5 21t28.5 48h9l-73 -413h84l-2 -9h-177z" />
    <glyph glyph-name="uni2082" unicode="&#x2082;" horiz-adv-x="370" 
d="M7 0l2 14q11 51 48.5 88t109.5 77q5 3 27 15.5t29.5 17t25 16t25.5 19.5t19 19.5t16.5 23.5t7.5 26q8 42 -23 73t-85 31q-35 0 -67.5 -16t-50.5 -41l-8 6q19 26 53.5 42.5t73.5 16.5q58 0 91.5 -33.5t25.5 -79.5q-2 -11 -6 -21.5t-11.5 -20.5t-13 -17.5t-17.5 -17
t-18 -14t-22 -14t-21 -13t-23.5 -13.5t-22.5 -12q-71 -40 -107 -75t-46 -83l-1 -5h257l-1 -9h-267z" />
    <glyph glyph-name="uni2083" unicode="&#x2083;" horiz-adv-x="324" 
d="M111 -6q-37 0 -68.5 14.5t-47.5 35.5l8 5q15 -20 44.5 -33t64.5 -13q55 0 92 26.5t46 73.5q9 48 -22.5 80t-83.5 32h-35l2 9h36q49 0 84.5 25t42.5 67q9 45 -21 74.5t-76 29.5q-61 0 -109 -41l-6 7q49 42 115 42q51 0 83 -32.5t24 -80.5q-8 -38 -35.5 -63.5t-69.5 -32.5
q42 -11 65 -43.5t15 -74.5q-10 -51 -49.5 -79t-98.5 -28z" />
    <glyph glyph-name="uni2084" unicode="&#x2084;" horiz-adv-x="358" 
d="M211 0l17 97h-229v10l286 315h9l-56 -316h75l-2 -9h-74l-17 -97h-9zM12 106h217l52 300z" />
    <glyph glyph-name="uni2085" unicode="&#x2085;" horiz-adv-x="370" 
d="M141 -6q-46 0 -79 20.5t-48 53.5l8 5q34 -70 120 -70q56 0 101.5 35t56.5 90q10 55 -21.5 97t-90.5 42q-92 0 -139 -75l-10 3l69 227h221l-1 -9h-214l-60 -200q47 63 135 63q64 0 97.5 -45t22.5 -103q-10 -59 -58 -96.5t-110 -37.5z" />
    <glyph glyph-name="uni2086" unicode="&#x2086;" horiz-adv-x="374" 
d="M159 -6q-69 0 -107 48.5t-27 116.5q9 46 40 80l167 183h12l-144 -157q37 22 77 22q66 0 105.5 -49.5t27.5 -116.5q-10 -55 -53.5 -91t-97.5 -36zM159 3q50 0 91 34t51 85q11 63 -25.5 109.5t-99.5 46.5q-51 0 -92 -34.5t-50 -85.5q-11 -63 24.5 -109t100.5 -46z" />
    <glyph glyph-name="uni2087" unicode="&#x2087;" horiz-adv-x="341" 
d="M65 0l252 414h-245l2 8h255l-2 -8l-251 -414h-11z" />
    <glyph glyph-name="uni2088" unicode="&#x2088;" horiz-adv-x="354" 
d="M137 -6q-63 0 -96 38t-24 87q7 43 41.5 71.5t82.5 36.5q-34 7 -55.5 35.5t-14.5 69.5q8 41 42.5 68.5t82.5 27.5q53 0 82.5 -33t22.5 -76q-7 -37 -35.5 -62t-71.5 -30q45 -9 72.5 -42.5t19.5 -82.5q-9 -46 -46.5 -77t-102.5 -31zM138 4q59 0 94.5 28.5t43.5 70.5
q9 51 -23.5 85.5t-83.5 34.5q-55 0 -95 -31.5t-48 -73.5q-7 -46 22.5 -80t89.5 -34zM167 232q53 0 86 25t39 62q7 40 -19.5 70t-77.5 30q-45 0 -76.5 -24.5t-38.5 -62.5q-8 -42 19.5 -71t67.5 -29z" />
    <glyph glyph-name="uni2089" unicode="&#x2089;" horiz-adv-x="355" 
d="M104 0l151 178q-37 -26 -80 -26q-63 0 -99.5 46t-25.5 108q9 54 49.5 88t92.5 34q64 0 101 -46.5t26 -110.5q-6 -34 -34 -69l-169 -202h-12zM176 161q48 0 87 33t47 78q11 59 -24.5 103t-93.5 44q-48 0 -86.5 -32.5t-46.5 -81.5q-10 -57 23.5 -100.5t93.5 -43.5z" />
    <glyph glyph-name="uni208A" unicode="&#x208a;" horiz-adv-x="279" 
d="M20 207l1 9h104l18 101h9l-18 -101h102l-2 -9h-102l-18 -103h-9l18 103h-103z" />
    <glyph glyph-name="uni208B" unicode="&#x208b;" horiz-adv-x="279" 
d="M20 207l1 9h215l-2 -9h-214z" />
    <glyph glyph-name="uni208C" unicode="&#x208c;" horiz-adv-x="279" 
d="M28 252l2 9h214l-2 -9h-214zM11 160l2 9h215l-2 -9h-215z" />
    <glyph glyph-name="uni208D" unicode="&#x208d;" horiz-adv-x="306" 
d="M192 -113l-5 -8q-71 46 -110 144.5t-19 211.5q19 112 90 195t147 114l4 -7q-75 -31 -144 -113t-88 -190q-19 -110 18.5 -206t106.5 -141z" />
    <glyph glyph-name="uni208E" unicode="&#x208e;" horiz-adv-x="306" 
d="M99 536l5 8q71 -46 111.5 -144.5t21.5 -211.5t-88.5 -196t-147.5 -115l-5 7q77 31 145 113.5t87 191.5q19 110 -20 205.5t-109 141.5z" />
    <glyph glyph-name="uni20A1" unicode="&#x20a1;" horiz-adv-x="826" 
d="M105 -120l100 184q-70 57 -99.5 149t-10.5 198q26 143 142 236t257 93q38 0 73 -6l57 106h10l-58 -107q73 -14 124 -49l85 156h10l-87 -161q52 -39 87 -101l-9 -5q-35 61 -83 97l-358 -663q40 -8 82 -8q92 0 176.5 41.5t136.5 113.5l9 -6q-54 -75 -140.5 -116.5
t-182.5 -41.5q-46 0 -86 9l-64 -119h-10l65 121q-69 18 -119 58l-97 -179h-10zM104 408q-18 -100 10 -189t95 -146l353 653q-37 5 -69 5q-138 0 -251 -91.5t-138 -231.5zM216 67q54 -41 120 -57l360 665q-55 38 -125 49z" />
    <glyph glyph-name="uni20A2" unicode="&#x20a2;" horiz-adv-x="816" 
d="M423 -10q-174 0 -268.5 123t-63.5 298q26 143 142 236t257 93q212 0 301 -162l-9 -5q-84 158 -292 158q-139 0 -251.5 -91.5t-137.5 -231.5q-28 -157 51.5 -275.5t235.5 -132.5l51 271q16 93 -58 93h-11l2 8h11q38 0 56.5 -25.5t8.5 -78.5l-8 -41q27 64 85.5 104.5
t130.5 40.5h64l-2 -9h-62q-85 0 -148 -55t-78 -136l-33 -172q4 0 12.5 -0.5t13.5 -0.5q92 0 177 41.5t137 113.5l8 -6q-54 -75 -140 -116.5t-182 -41.5z" />
    <glyph glyph-name="franc" unicode="&#x20a3;" horiz-adv-x="564" 
d="M33 0l128 730h413l-2 -9h-403l-51 -290h403l-2 -9h-403l-22 -130h403l-2 -9h-403l-49 -283h-10z" />
    <glyph glyph-name="lira" unicode="&#x20a4;" horiz-adv-x="735" 
d="M128 429l3 9h83q-24 66 -12 129q14 77 74.5 125t148.5 48q123 0 194 -89l-8 -6q-67 86 -186 86q-84 0 -142 -45.5t-72 -119.5q-11 -60 13 -128h285l-3 -9h-279q4 -11 50 -108h208l-3 -9h-201q45 -95 32 -170q-7 -34 -20 -57q34 -27 57 -42.5t59.5 -29.5t73.5 -14
q73 0 112.5 41t57.5 142l2 12h10l-3 -13q-18 -105 -60 -148t-120 -43q-38 0 -76 14.5t-60 29.5t-57 43q-52 -88 -156 -88q-46 0 -79.5 28t-25.5 73q6 34 33 54.5t70 21.5q28 0 57 -12t48 -25t50 -38q13 27 17 51q13 75 -32 170h-167l3 9h160q-41 85 -50 108h-89zM133 -3
q101 0 149 86q-31 25 -49 37.5t-46.5 24.5t-55.5 12q-39 0 -63.5 -19t-29.5 -49q-7 -40 23 -66t72 -26z" />
    <glyph glyph-name="uni20A6" unicode="&#x20a6;" horiz-adv-x="759" 
d="M54 424l2 9h79l53 297h10l169 -297h309l53 297h10l-53 -297h82l-2 -9h-81l-16 -89h82l-2 -9h-81l-57 -326h-9l-186 326h-289l-57 -326h-10l57 326h-79l1 9h79l16 89h-80zM427 326l176 -310l55 310h-231zM195 715l-49 -282h210zM372 424l50 -89h237l16 89h-303zM144 424
l-15 -89h282l-50 89h-217z" />
    <glyph glyph-name="peseta" unicode="&#x20a7;" horiz-adv-x="1308" 
d="M802 9h233q75 0 115 31.5t48 80.5q5 27 -4 47.5t-37.5 38t-46.5 25t-62 23.5q-3 1 -5 2q-41 14 -65 24.5t-50.5 28t-36.5 40.5t-5 53q8 50 55.5 79t115.5 28q56 0 106.5 -18t81.5 -47l-6 -7q-71 64 -184 64q-63 0 -107.5 -27t-52.5 -73q-4 -23 3.5 -42t19 -31.5t37 -26
t43 -20t50.5 -18.5q34 -12 51 -18.5t44 -20.5t39 -27t20.5 -33.5t4.5 -45.5q-9 -53 -51.5 -86t-120.5 -33h-235q-93 0 -132.5 42.5t-23.5 134.5l55 315h-105q0 -4 -1 -11.5t-2 -11.5q-17 -100 -94 -160t-195 -60h-213l-43 -249h-10l128 730h182q112 0 182.5 -64t65.5 -166
h107l21 121l10 5l-22 -126h142l-2 -8h-142l-55 -317q-16 -89 21.5 -127.5t127.5 -38.5zM345 721h-173l-81 -463h211q113 0 187.5 58.5t91.5 154.5q19 108 -50 179t-186 71z" />
    <glyph glyph-name="uni20A8" unicode="&#x20a8;" horiz-adv-x="1068" 
d="M36 0l128 730h201q98 0 161 -70.5t46 -170.5q-14 -83 -78.5 -139.5t-149.5 -56.5h-56q15 -61 48.5 -113t86.5 -94t132.5 -66t177.5 -24q212 0 231 120q4 22 -3 40.5t-18 30.5t-34.5 25t-40 20t-46.5 19q-9 3 -13 5q-36 14 -52 21t-43 21.5t-38 27.5t-18.5 33t-3.5 44
q9 50 56 79t115 28q56 0 106 -18.5t81 -46.5l-6 -7q-71 64 -182 64q-64 0 -108 -26.5t-52 -73.5q-5 -26 4.5 -46.5t29.5 -35t46 -27t57 -24.5q9 -3 14 -5q93 -37 122 -60q45 -36 36 -90q-19 -127 -241 -127q-197 0 -311.5 89t-143.5 226h67q81 0 142.5 54.5t75.5 133.5
q16 96 -43 163t-155 68h-192l-126 -721h-10z" />
    <glyph glyph-name="uni20A9" unicode="&#x20a9;" horiz-adv-x="1118" 
d="M54 424l2 9h134l-37 297h10l37 -297h273l157 297h8l56 -297h277l141 297h11l-142 -297h141l-2 -9h-143l-42 -89h169l-2 -9h-172l-154 -326h-11l-62 326h-275l-172 -326h-12l-41 326h-165l2 9h162l-11 89h-137zM714 326l58 -310l147 310h-205zM213 326l39 -310l164 310
h-203zM631 710l-147 -277h199zM695 424l17 -89h212l42 89h-271zM201 424l11 -89h209l47 89h-267zM480 424l-47 -89h269l-17 89h-205z" />
    <glyph glyph-name="uni20AA" unicode="&#x20aa;" horiz-adv-x="563" 
d="M165 0l102 581q10 0 8 -9l-99 -562h116q143 0 169 145l98 575h10l-98 -575q-28 -155 -180 -155h-126zM32 0l128 730h126q72 0 104 -44.5t20 -110.5l-73 -419q-2 -8 -12 -8l75 427q11 63 -18.5 104.5t-96.5 41.5h-117l-126 -721h-10z" />
    <glyph glyph-name="Euro" unicode="&#x20ac;" 
d="M77 492l2 10h76l7 37q37 201 225 201q118 0 170 -73l-8 -6q-49 70 -161 70q-182 0 -216 -192l-7 -37h337l-3 -10h-336l-44 -252h294l-4 -10h-291q-16 -101 35.5 -166t161.5 -65q105 0 159 66l8 -7q-55 -68 -168 -68t-167.5 67t-39.5 173h-76l2 10h76l44 252h-76z" />
    <glyph glyph-name="uni20AE" unicode="&#x20ae;" horiz-adv-x="608" 
d="M538 536l-2 -11l-192 -74l-19 -112l191 73l-1 -11l-192 -74l-57 -327h-10l56 323l-184 -70l2 11l184 71l20 112l-184 -70l1 11l185 71l46 262h-249l2 9h508l-2 -9h-249l-46 -258z" />
    <glyph glyph-name="uni20B1" unicode="&#x20b1;" horiz-adv-x="674" 
d="M73 536l2 9h80l33 185h183q98 0 166 -50.5t80 -134.5h84l-2 -9h-81q3 -32 -3 -67q-1 -8 -5 -22h73l-2 -9h-73q-25 -87 -99.5 -138t-181.5 -51h-213l-44 -249h-10l77 438h-80l2 9h79l16 89h-81zM327 258q102 0 174 49t96 131h-450l-32 -180h212zM369 721h-172l-31 -176
h440q-12 80 -77 128t-160 48zM605 471q5 30 2 65h-443l-16 -89h452q1 4 2.5 12t2.5 12z" />
    <glyph glyph-name="published" unicode="&#x2117;" horiz-adv-x="880" 
d="M416 -133q-113 0 -200 57t-126 154t-19 210q25 144 136.5 236.5t250.5 92.5q116 0 202.5 -61t122.5 -158.5t17 -206.5q-25 -143 -135.5 -233.5t-248.5 -90.5zM417 -124q134 0 242 89.5t132 227.5q18 102 -15 196.5t-117 156.5t-201 62q-136 0 -244.5 -91t-133.5 -232
q-19 -107 18 -201t121.5 -151t197.5 -57zM297 45l66 373h102q58 0 95 -38t27 -94q-8 -50 -47.5 -81.5t-99.5 -31.5h-111l-23 -128h-9zM463 409h-92l-41 -227h111q55 0 91.5 29t44.5 76q9 52 -24 87t-90 35z" />
    <glyph glyph-name="servicemark" unicode="&#x2120;" horiz-adv-x="703" 
d="M334 440l52 294h8l114 -189l188 189h8l-53 -294h-10l51 276l-185 -187l-115 190l-49 -279h-9zM181 437q-57 0 -90 49l8 6q28 -46 82 -46q32 0 53.5 16.5t26.5 44.5q3 16 -0.5 29t-16 23.5t-21 15.5t-27.5 15q-25 14 -36.5 22t-22 26t-6.5 41q5 25 26.5 41t53.5 16
q57 0 81 -41l-8 -5q-23 37 -73 37q-28 0 -47.5 -13.5t-23.5 -35.5q-5 -29 11.5 -46t50.5 -35q21 -11 28.5 -16t21.5 -17t17.5 -26t0.5 -33q-5 -31 -29.5 -49.5t-59.5 -18.5z" />
    <glyph glyph-name="trademark" unicode="&#x2122;" horiz-adv-x="700" 
d="M330 440l52 294h8l114 -189l188 189h8l-53 -294h-10l51 276l-185 -187l-115 190l-49 -279h-9zM176 440l51 285h-115l2 9h239l-2 -9h-114l-51 -285h-10z" />
    <glyph glyph-name="uni2153" unicode="&#x2153;" horiz-adv-x="780" 
d="M60 0l656 730h13l-655 -730h-14zM567 -6q-37 0 -68.5 14.5t-47.5 35.5l8 5q15 -20 44.5 -33t64.5 -13q55 0 92 26.5t46 73.5q9 48 -22.5 80t-83.5 32h-35l2 9h36q49 0 84.5 25t42.5 67q9 45 -21 74.5t-76 29.5q-61 0 -109 -41l-6 7q49 42 115 42q51 0 83 -32.5t24 -80.5
q-8 -38 -35.5 -63.5t-69.5 -32.5q42 -11 65 -43.5t15 -74.5q-10 -51 -49.5 -79t-98.5 -28zM60 308l1 9h85l67 382q-10 -20 -32 -33.5t-50 -13.5h-5l2 9h3q37 0 59.5 21t28.5 48h9l-73 -413h84l-2 -9h-177z" />
    <glyph glyph-name="uni2154" unicode="&#x2154;" horiz-adv-x="852" 
d="M132 0l656 730h13l-655 -730h-14zM59 308l2 14q11 51 48.5 88t109.5 77q5 3 27 15.5t29.5 17t25 16t25.5 19.5t19 19.5t16.5 23.5t7.5 26q8 42 -23 73t-85 31q-35 0 -67.5 -16t-50.5 -41l-8 6q19 26 53.5 42.5t73.5 16.5q58 0 91.5 -33.5t25.5 -79.5q-2 -11 -6 -21.5
t-11.5 -20.5t-13 -17.5t-17.5 -17t-18 -14t-22 -14t-21 -13t-23.5 -13.5t-22.5 -12q-71 -40 -107 -75t-46 -83l-1 -5h257l-1 -9h-267zM639 -6q-37 0 -68.5 14.5t-47.5 35.5l8 5q15 -20 44.5 -33t64.5 -13q55 0 92 26.5t46 73.5q9 48 -22.5 80t-83.5 32h-35l2 9h36
q49 0 84.5 25t42.5 67q9 45 -21 74.5t-76 29.5q-61 0 -109 -41l-6 7q49 42 115 42q51 0 83 -32.5t24 -80.5q-8 -38 -35.5 -63.5t-69.5 -32.5q42 -11 65 -43.5t15 -74.5q-10 -51 -49.5 -79t-98.5 -28z" />
    <glyph glyph-name="uni2155" unicode="&#x2155;" horiz-adv-x="815" 
d="M585 -6q-46 0 -79 20.5t-48 53.5l8 5q34 -70 120 -70q56 0 101.5 35t56.5 90q10 55 -21.5 97t-90.5 42q-92 0 -139 -75l-10 3l69 227h221l-1 -9h-214l-60 -200q47 63 135 63q64 0 97.5 -45t22.5 -103q-10 -59 -58 -96.5t-110 -37.5zM60 0l656 730h13l-655 -730h-14z
M60 308l1 9h85l67 382q-10 -20 -32 -33.5t-50 -13.5h-5l2 9h3q37 0 59.5 21t28.5 48h9l-73 -413h84l-2 -9h-177z" />
    <glyph glyph-name="uni2156" unicode="&#x2156;" horiz-adv-x="884" 
d="M655 -6q-46 0 -79 20.5t-48 53.5l8 5q34 -70 120 -70q56 0 101.5 35t56.5 90q10 55 -21.5 97t-90.5 42q-92 0 -139 -75l-10 3l69 227h221l-1 -9h-214l-60 -200q47 63 135 63q64 0 97.5 -45t22.5 -103q-10 -59 -58 -96.5t-110 -37.5zM132 0l656 730h13l-655 -730h-14z
M59 308l2 14q11 51 48.5 88t109.5 77q5 3 27 15.5t29.5 17t25 16t25.5 19.5t19 19.5t16.5 23.5t7.5 26q8 42 -23 73t-85 31q-35 0 -67.5 -16t-50.5 -41l-8 6q19 26 53.5 42.5t73.5 16.5q58 0 91.5 -33.5t25.5 -79.5q-2 -11 -6 -21.5t-11.5 -20.5t-13 -17.5t-17.5 -17
t-18 -14t-22 -14t-21 -13t-23.5 -13.5t-22.5 -12q-71 -40 -107 -75t-46 -83l-1 -5h257l-1 -9h-267z" />
    <glyph glyph-name="uni2157" unicode="&#x2157;" horiz-adv-x="844" 
d="M614 -6q-46 0 -79 20.5t-48 53.5l8 5q34 -70 120 -70q56 0 101.5 35t56.5 90q10 55 -21.5 97t-90.5 42q-92 0 -139 -75l-10 3l69 227h221l-1 -9h-214l-60 -200q47 63 135 63q64 0 97.5 -45t22.5 -103q-10 -59 -58 -96.5t-110 -37.5zM91 0l656 730h13l-655 -730h-14z
M166 302q-37 0 -68.5 14.5t-47.5 35.5l8 5q15 -20 44.5 -33t64.5 -13q55 0 92 26.5t46 73.5q9 48 -22.5 80t-83.5 32h-35l2 9h36q49 0 84.5 25t42.5 67q9 45 -21 74.5t-76 29.5q-61 0 -109 -41l-6 7q49 42 115 42q51 0 83 -32.5t24 -80.5q-8 -38 -35.5 -63.5t-69.5 -32.5
q42 -11 65 -43.5t15 -74.5q-10 -51 -49.5 -79t-98.5 -28z" />
    <glyph glyph-name="uni2158" unicode="&#x2158;" horiz-adv-x="857" 
d="M265 308l17 97h-229v10l286 315h9l-56 -316h75l-2 -9h-74l-17 -97h-9zM66 414h217l52 300zM628 -6q-46 0 -79 20.5t-48 53.5l8 5q34 -70 120 -70q56 0 101.5 35t56.5 90q10 55 -21.5 97t-90.5 42q-92 0 -139 -75l-10 3l69 227h221l-1 -9h-214l-60 -200q47 63 135 63
q64 0 97.5 -45t22.5 -103q-10 -59 -58 -96.5t-110 -37.5zM104 0l656 730h13l-655 -730h-14z" />
    <glyph glyph-name="uni2159" unicode="&#x2159;" horiz-adv-x="758" 
d="M543 -6q-69 0 -107 48.5t-27 116.5q9 46 40 80l167 183h12l-144 -157q37 22 77 22q66 0 105.5 -49.5t27.5 -116.5q-10 -55 -53.5 -91t-97.5 -36zM543 3q50 0 91 34t51 85q11 63 -25.5 109.5t-99.5 46.5q-51 0 -92 -34.5t-50 -85.5q-11 -63 24.5 -109t100.5 -46zM60 0
l656 730h13l-655 -730h-14zM60 308l1 9h85l67 382q-10 -20 -32 -33.5t-50 -13.5h-5l2 9h3q37 0 59.5 21t28.5 48h9l-73 -413h84l-2 -9h-177z" />
    <glyph glyph-name="uni215A" unicode="&#x215a;" horiz-adv-x="844" 
d="M629 -6q-69 0 -107 48.5t-27 116.5q9 46 40 80l167 183h12l-144 -157q37 22 77 22q66 0 105.5 -49.5t27.5 -116.5q-10 -55 -53.5 -91t-97.5 -36zM629 3q50 0 91 34t51 85q11 63 -25.5 109.5t-99.5 46.5q-51 0 -92 -34.5t-50 -85.5q-11 -63 24.5 -109t100.5 -46zM197 302
q-46 0 -79 20.5t-48 53.5l8 5q34 -70 120 -70q56 0 101.5 35t56.5 90q10 55 -21.5 97t-90.5 42q-92 0 -139 -75l-10 3l69 227h221l-1 -9h-214l-60 -200q47 63 135 63q64 0 97.5 -45t22.5 -103q-10 -59 -58 -96.5t-110 -37.5zM147 0l656 730h13l-655 -730h-14z" />
    <glyph glyph-name="uni215B" unicode="&#x215b;" horiz-adv-x="792" 
d="M575 -6q-63 0 -96 38t-24 87q7 43 41.5 71.5t82.5 36.5q-34 7 -55.5 35.5t-14.5 69.5q8 41 42.5 68.5t82.5 27.5q53 0 82.5 -33t22.5 -76q-7 -37 -35.5 -62t-71.5 -30q45 -9 72.5 -42.5t19.5 -82.5q-9 -46 -46.5 -77t-102.5 -31zM576 4q59 0 94.5 28.5t43.5 70.5
q9 51 -23.5 85.5t-83.5 34.5q-55 0 -95 -31.5t-48 -73.5q-7 -46 22.5 -80t89.5 -34zM605 232q53 0 86 25t39 62q7 40 -19.5 70t-77.5 30q-45 0 -76.5 -24.5t-38.5 -62.5q-8 -42 19.5 -71t67.5 -29zM60 0l656 730h13l-655 -730h-14zM60 308l1 9h85l67 382q-10 -20 -32 -33.5
t-50 -13.5h-5l2 9h3q37 0 59.5 21t28.5 48h9l-73 -413h84l-2 -9h-177z" />
    <glyph glyph-name="uni215C" unicode="&#x215c;" horiz-adv-x="823" 
d="M606 -6q-63 0 -96 38t-24 87q7 43 41.5 71.5t82.5 36.5q-34 7 -55.5 35.5t-14.5 69.5q8 41 42.5 68.5t82.5 27.5q53 0 82.5 -33t22.5 -76q-7 -37 -35.5 -62t-71.5 -30q45 -9 72.5 -42.5t19.5 -82.5q-9 -46 -46.5 -77t-102.5 -31zM607 4q59 0 94.5 28.5t43.5 70.5
q9 51 -23.5 85.5t-83.5 34.5q-55 0 -95 -31.5t-48 -73.5q-7 -46 22.5 -80t89.5 -34zM636 232q53 0 86 25t39 62q7 40 -19.5 70t-77.5 30q-45 0 -76.5 -24.5t-38.5 -62.5q-8 -42 19.5 -71t67.5 -29zM91 0l656 730h13l-655 -730h-14zM163 302q-37 0 -68.5 14.5t-47.5 35.5l8 5
q15 -20 44.5 -33t64.5 -13q55 0 92 26.5t46 73.5q9 48 -22.5 80t-83.5 32h-35l2 9h36q49 0 84.5 25t42.5 67q9 45 -21 74.5t-76 29.5q-61 0 -109 -41l-6 7q49 42 115 42q51 0 83 -32.5t24 -80.5q-8 -38 -35.5 -63.5t-69.5 -32.5q42 -11 65 -43.5t15 -74.5q-10 -51 -49.5 -79
t-98.5 -28z" />
    <glyph glyph-name="uni215D" unicode="&#x215d;" horiz-adv-x="864" 
d="M645 -6q-63 0 -96 38t-24 87q7 43 41.5 71.5t82.5 36.5q-34 7 -55.5 35.5t-14.5 69.5q8 41 42.5 68.5t82.5 27.5q53 0 82.5 -33t22.5 -76q-7 -37 -35.5 -62t-71.5 -30q45 -9 72.5 -42.5t19.5 -82.5q-9 -46 -46.5 -77t-102.5 -31zM646 4q59 0 94.5 28.5t43.5 70.5
q9 51 -23.5 85.5t-83.5 34.5q-55 0 -95 -31.5t-48 -73.5q-7 -46 22.5 -80t89.5 -34zM675 232q53 0 86 25t39 62q7 40 -19.5 70t-77.5 30q-45 0 -76.5 -24.5t-38.5 -62.5q-8 -42 19.5 -71t67.5 -29zM197 302q-46 0 -79 20.5t-48 53.5l8 5q34 -70 120 -70q56 0 101.5 35
t56.5 90q10 55 -21.5 97t-90.5 42q-92 0 -139 -75l-10 3l69 227h221l-1 -9h-214l-60 -200q47 63 135 63q64 0 97.5 -45t22.5 -103q-10 -59 -58 -96.5t-110 -37.5zM130 0l656 730h13l-655 -730h-14z" />
    <glyph glyph-name="uni215E" unicode="&#x215e;" horiz-adv-x="720" 
d="M502 -6q-63 0 -96 38t-24 87q7 43 41.5 71.5t82.5 36.5q-34 7 -55.5 35.5t-14.5 69.5q8 41 42.5 68.5t82.5 27.5q53 0 82.5 -33t22.5 -76q-7 -37 -35.5 -62t-71.5 -30q45 -9 72.5 -42.5t19.5 -82.5q-9 -46 -46.5 -77t-102.5 -31zM503 4q59 0 94.5 28.5t43.5 70.5
q9 51 -23.5 85.5t-83.5 34.5q-55 0 -95 -31.5t-48 -73.5q-7 -46 22.5 -80t89.5 -34zM532 232q53 0 86 25t39 62q7 40 -19.5 70t-77.5 30q-45 0 -76.5 -24.5t-38.5 -62.5q-8 -42 19.5 -71t67.5 -29zM-12 0l656 730h13l-655 -730h-14zM119 308l252 414h-245l2 8h255l-2 -8
l-251 -414h-11z" />
    <glyph glyph-name="uni215F" unicode="&#x215f;" horiz-adv-x="679" 
d="M60 0l656 730h13l-655 -730h-14zM60 308l1 9h85l67 382q-10 -20 -32 -33.5t-50 -13.5h-5l2 9h3q37 0 59.5 21t28.5 48h9l-73 -413h84l-2 -9h-177z" />
    <glyph glyph-name="arrowleft" unicode="&#x2190;" horiz-adv-x="896" 
d="M282 150q-23 67 -87.5 128t-123.5 83v7q59 23 123.5 84t87.5 128l9 -3q-23 -67 -85 -126t-119 -82h758v-9h-758q58 -24 119.5 -82.5t84.5 -124.5z" />
    <glyph glyph-name="arrowup" unicode="&#x2191;" horiz-adv-x="896" 
d="M458 0v749q-25 -58 -83 -119.5t-124 -83.5l-3 9q67 23 128 87.5t83 123.5h7q23 -59 84 -123.5t128 -87.5l-3 -9q-66 22 -124.5 82.5t-82.5 117.5v-746h-10z" />
    <glyph glyph-name="arrowright" unicode="&#x2192;" horiz-adv-x="896" 
d="M644 149l-9 3q22 66 84 124.5t120 83.5h-758v9h758q-58 24 -120 82.5t-84 124.5l9 3q23 -67 87.5 -128t123.5 -83v-7q-59 -23 -123.5 -84t-87.5 -128z" />
    <glyph glyph-name="arrowdown" unicode="&#x2193;" horiz-adv-x="896" 
d="M459 -26q-23 60 -83.5 124t-127.5 87l3 9q65 -22 123.5 -82.5t83.5 -118.5v747h10v-747q25 59 82.5 119t123.5 82l3 -9q-67 -23 -127.5 -87.5t-83.5 -123.5h-7z" />
    <glyph glyph-name="uni2196" unicode="&#x2196;" horiz-adv-x="896" 
d="M200 353q30 75 27.5 158t-28.5 140l5 6q59 -26 142 -28.5t157 28.5l4 -9q-73 -30 -152.5 -28.5t-138.5 25.5l531 -530l-7 -6l-530 530q15 -36 22.5 -85t2 -105.5t-26.5 -99.5z" />
    <glyph glyph-name="uni2197" unicode="&#x2197;" horiz-adv-x="896" 
d="M205 109l-6 6l530 530q-58 -25 -137 -27t-153 30l4 8q74 -31 157.5 -28.5t140.5 28.5l6 -5q-26 -58 -28.5 -141t28.5 -157l-9 -5q-21 42 -26 99t2 105.5t21 85.5z" />
    <glyph glyph-name="uni2198" unicode="&#x2198;" horiz-adv-x="896" 
d="M741 109q-59 25 -142 27.5t-157 -27.5l-4 8q73 30 152 28.5t138 -25.5l-530 530l7 6l529 -529q-24 58 -26 137.5t29 152.5l8 -5q-30 -74 -27.5 -157.5t28.5 -140.5z" />
    <glyph glyph-name="uni2199" unicode="&#x2199;" horiz-adv-x="896" 
d="M507 108q-74 31 -157.5 28.5t-140.5 -28.5l-5 5q25 59 27.5 141.5t-27.5 156.5l8 5q30 -74 28.5 -153t-25.5 -137l530 529l6 -6l-529 -530q59 24 137.5 26t152.5 -29z" />
    <glyph glyph-name="partialdiff" unicode="&#x2202;" horiz-adv-x="632" 
d="M298 -10q-120 0 -190.5 87t-48.5 207q18 99 100 163t180 64q85 0 146 -53.5t79 -134.5q-10 102 -70.5 206.5t-169.5 200.5h14q136 -122 194 -257t36 -259q-19 -100 -96 -162t-174 -62zM298 -1q93 0 167.5 60.5t92.5 155.5q21 111 -44 199t-175 88q-95 0 -174 -62
t-96 -157q-21 -114 45.5 -199t183.5 -85z" />
    <glyph glyph-name="increment" unicode="&#x2206;" horiz-adv-x="897" 
d="M832 0h-852l553 742zM530 724l-531 -715h819z" />
    <glyph glyph-name="product" unicode="&#x220f;" horiz-adv-x="743" 
d="M118 721l2 9h668l-2 -9h-160l-127 -721h-10l127 721h-316l-127 -721h-10l127 721h-172z" />
    <glyph glyph-name="summation" unicode="&#x2211;" horiz-adv-x="603" 
d="M10 0l1 9l319 374l-193 338l1 9h483l-2 -9h-473l196 -339l-318 -373h471l-2 -9h-483z" />
    <glyph glyph-name="minus" unicode="&#x2212;" horiz-adv-x="460" 
d="M55 362l1 9h370l-1 -9h-370z" />
    <glyph glyph-name="radical" unicode="&#x221a;" horiz-adv-x="833" 
d="M307 0l-132 491h-80l2 9h85l131 -489l534 726h12l-541 -737h-11z" />
    <glyph glyph-name="infinity" unicode="&#x221e;" horiz-adv-x="940" 
d="M286 274q-46 0 -78.5 32.5t-32.5 77.5t33 77.5t78 32.5q40 0 81.5 -25t98.5 -71q9 -8 14 -12q49 40 68.5 55t58.5 34.5t71 19.5q45 0 77 -32t32 -78t-32 -78t-77 -32q-81 0 -198 98q-58 -48 -102.5 -73.5t-91.5 -25.5zM286 283q44 0 86.5 24.5t99.5 71.5q-46 38 -66 53.5
t-55.5 33.5t-64.5 18q-40 0 -70.5 -30t-30.5 -71q0 -40 30.5 -70t70.5 -30zM678 284q40 0 69.5 30.5t29.5 70.5t-29.5 70t-69.5 30q-30 0 -66.5 -17.5t-59.5 -35.5t-65 -53q56 -45 100.5 -70t90.5 -25z" />
    <glyph glyph-name="integral" unicode="&#x222b;" horiz-adv-x="329" 
d="M-66 -153l2 10h2q72 0 104.5 27.5t45.5 101.5l102 583q15 94 53 127.5t121 33.5h14l-2 -9h-12q-80 0 -114.5 -31.5t-50.5 -121.5l-101 -582q-14 -82 -49.5 -110.5t-110.5 -28.5h-4z" />
    <glyph glyph-name="approxequal" unicode="&#x2248;" horiz-adv-x="464" 
d="M69 442l2 10q57 25 102 25q29 0 86 -19t84 -19q46 0 101 26l-3 -10q-47 -24 -100 -24q-28 0 -86 18.5t-83 18.5q-46 0 -103 -26zM39 276l2 10q57 25 100 25q29 0 87.5 -18.5t84.5 -18.5q48 0 101 25l-3 -11q-45 -23 -99 -23q-28 0 -87 18.5t-85 18.5q-40 0 -101 -26z" />
    <glyph glyph-name="notequal" unicode="&#x2260;" horiz-adv-x="460" 
d="M68 438l2 9h210l37 67h10l-37 -67h150l-2 -9h-153l-82 -149h209l-2 -10h-213l-38 -70h-11l39 70h-147l2 10h150l83 149h-207z" />
    <glyph glyph-name="equivalence" unicode="&#x2261;" horiz-adv-x="460" 
d="M54 358l2 10h370l-2 -10h-370zM26 200l2 9h370l-2 -9h-370zM81 517l2 9h370l-2 -9h-370z" />
    <glyph glyph-name="lessequal" unicode="&#x2264;" horiz-adv-x="460" 
d="M409 280l-341 152l2 10l395 147l-2 -12l-382 -141l330 -146zM28 211l2 10h370l-2 -10h-370z" />
    <glyph glyph-name="greaterequal" unicode="&#x2265;" horiz-adv-x="460" 
d="M41 279l2 12l382 141l-330 146l2 10l341 -152l-2 -10zM28 211l2 10h370l-2 -10h-370z" />
    <glyph glyph-name="squaremultiply" unicode="&#x22a0;" horiz-adv-x="926" 
d="M120 0v730h726v-730h-726zM130 721v-712h706v712h-706zM265 130l-6 7l220 228l-219 226l7 7l218 -226l216 224l6 -6l-215 -224l219 -226l-7 -7l-219 226z" />
    <glyph glyph-name="house" unicode="&#x2302;" horiz-adv-x="874" 
d="M771 0h-674v427l337 323l337 -323v-427z" />
    <glyph glyph-name="blacksquare" unicode="&#x25a0;" horiz-adv-x="926" 
d="M120 0v730h726v-730h-726z" />
    <glyph glyph-name="blacksquare" unicode="&#xe740;" horiz-adv-x="926" 
d="M120 0v730h726v-730h-726z" />
    <glyph glyph-name="whitesquare" unicode="&#x25a1;" horiz-adv-x="926" 
d="M120 0v730h726v-730h-726zM130 721v-712h706v712h-706z" />
    <glyph glyph-name="blacksmallsquare" unicode="&#x25aa;" horiz-adv-x="700" 
d="M110 0v500h500v-500h-500z" />
    <glyph glyph-name="whitesmallsquare" unicode="&#x25ab;" horiz-adv-x="700" 
d="M110 0v500h500v-500h-500zM120 491v-482h480v482h-480z" />
    <glyph glyph-name="triagup" unicode="&#x25b2;" horiz-adv-x="897" 
d="M872 0h-857l429 742z" />
    <glyph glyph-name="triagrt" unicode="&#x25ba;" horiz-adv-x="897" 
d="M125 -57v857l742 -428z" />
    <glyph glyph-name="triagdn" unicode="&#x25bc;" horiz-adv-x="897" 
d="M70 730h857l-428 -742z" />
    <glyph glyph-name="triaglf" unicode="&#x25c4;" horiz-adv-x="897" 
d="M817 800v-857l-742 429z" />
    <glyph glyph-name="lozenge" unicode="&#x25ca;" horiz-adv-x="843" 
d="M388 -16l-328 394l434 368l328 -394zM74 377l315 -379l420 356l-316 379z" />
    <glyph glyph-name="whitecircle" unicode="&#x25cb;" horiz-adv-x="927" 
d="M484 -10q-155 0 -265 110t-110 265t110 265t265 110t265 -110t110 -265t-110 -265t-265 -110zM484 -1q151 0 258 107.5t107 258.5q0 152 -107 259t-258 107t-257.5 -107t-106.5 -259q0 -151 106.5 -258.5t257.5 -107.5z" />
    <glyph glyph-name="whitecircle" unicode="&#x25ef;" horiz-adv-x="927" 
d="M484 -10q-155 0 -265 110t-110 265t110 265t265 110t265 -110t110 -265t-110 -265t-265 -110zM484 -1q151 0 258 107.5t107 258.5q0 152 -107 259t-258 107t-257.5 -107t-106.5 -259q0 -151 106.5 -258.5t257.5 -107.5z" />
    <glyph glyph-name="bullseye" unicode="&#x25ce;" horiz-adv-x="927" 
d="M484 -10q-155 0 -265 110t-110 265t110 265t265 110t265 -110t110 -265t-110 -265t-265 -110zM484 -1q151 0 258 107.5t107 258.5q0 152 -107 259t-258 107t-257.5 -107t-106.5 -259q0 -151 106.5 -258.5t257.5 -107.5zM485 172q-79 0 -135.5 56t-56.5 136t56 136t136 56
t136 -56t56 -136t-56 -136t-136 -56zM485 182q76 0 129 53t53 129t-53 129t-129 53t-128.5 -53t-52.5 -129t52.5 -129t128.5 -53zM485 351q-13 0 -13 13t13 13t13 -13t-13 -13z" />
    <glyph glyph-name="blackcircle" unicode="&#x25cf;" horiz-adv-x="927" 
d="M484 -10q-155 0 -265 110t-110 265t110 265t265 110t265 -110t110 -265t-110 -265t-265 -110z" />
    <glyph glyph-name="uni25E2" unicode="&#x25e2;" horiz-adv-x="897" 
d="M908 533l-606 -606l-222 828z" />
    <glyph glyph-name="uni25E3" unicode="&#x25e3;" horiz-adv-x="897" 
d="M669 -73l-606 606l828 222z" />
    <glyph glyph-name="uni25E4" unicode="&#x25e4;" horiz-adv-x="897" 
d="M857 -54l-828 222l606 606z" />
    <glyph glyph-name="uni25E5" unicode="&#x25e5;" horiz-adv-x="897" 
d="M872 163l-828 -221l223 828z" />
    <glyph glyph-name="uni2605" unicode="&#x2605;" horiz-adv-x="900" 
d="M582 303l72 -218l-187 135l-186 -135l72 219l-186 135l229 -1l72 218l71 -218l230 -1z" />
    <glyph glyph-name="ballotboxwithx" unicode="&#x2612;" horiz-adv-x="700" 
d="M110 0v500h500v-500h-500zM120 491v-482h480v482h-480zM219 104l-6 7l140 141l-141 143l6 6l141 -143l141 142l6 -6l-141 -142l141 -141l-6 -6l-141 141z" />
    <glyph glyph-name="uni263C" unicode="&#x263c;" horiz-adv-x="928" 
d="M307 365q0 71 51.5 122.5t122.5 51.5t122.5 -51.5t51.5 -122.5t-51.5 -122.5t-122.5 -51.5t-122.5 51.5t-51.5 122.5zM471 577l-17 142h54l-17 -142h-20zM491 155l17 -142h-54l17 142h20zM270 356l-142 -17v54l142 -17v-20zM692 376l142 17v-54l-142 17v20zM293 464
l-133 55l28 47l115 -87zM669 268l133 -55l-28 -47l-115 87zM368 544l-87 115l47 28l55 -133zM594 188l87 -115l-47 -28l-55 133zM579 554l55 133l47 -28l-87 -115zM383 178l-55 -133l-47 28l87 115zM659 480l113 86l30 -46l-133 -56zM303 252l-113 -86l-30 46l133 56z" />
    <glyph glyph-name="uni263E" unicode="&#x263e;" horiz-adv-x="787" 
d="M554 616q-99 0 -169 -73.5t-70 -177.5t70 -177.5t169 -73.5q32 0 71 12q-81 -57 -178 -57q-122 0 -209 87t-87 209t87 209t209 87q97 0 178 -57q-46 12 -71 12z" />
    <glyph glyph-name="spade" unicode="&#x2660;" horiz-adv-x="920" 
d="M599 0h-259q27 50 39.5 75.5t33.5 92.5t21 122q-21 -59 -64 -97.5t-106 -38.5q-70 0 -120.5 47t-50.5 111q0 82 52 150t183 173l140 112h1l140 -112q128 -103 178 -171t50 -152q0 -64 -46.5 -110.5t-110.5 -46.5q-69 0 -114.5 38.5t-66.5 96.5q0 -29 6 -61t13 -55.5
t21.5 -56t21 -45.5t22.5 -42t16 -30z" />
    <glyph glyph-name="club" unicode="&#x2663;" horiz-adv-x="920" 
d="M600 0h-259q80 150 91 248q-22 -53 -66.5 -85.5t-100.5 -32.5q-73 0 -125 52t-52 125t52 125t125 52q19 0 42 -7q-19 41 -19 87q0 73 51 124.5t124 51.5t124.5 -51.5t51.5 -124.5q0 -45 -19 -88q22 8 46 8q73 0 124.5 -51.5t51.5 -125.5q0 -73 -52 -125t-125 -52
q-56 0 -99 32t-64 85q3 -25 10.5 -52t15.5 -48t20 -46.5t19 -39t19 -35.5t14 -26z" />
    <glyph glyph-name="heart" unicode="&#x2665;" horiz-adv-x="920" 
d="M132 550q0 78 53 134t130 56q75 0 126 -45.5t59 -115.5q9 70 59.5 115.5t125.5 45.5q77 0 133 -56.5t56 -133.5q0 -85 -52.5 -177t-179.5 -233l-142 -157l-141 157q-125 139 -176 231.5t-51 178.5z" />
    <glyph glyph-name="diamond" unicode="&#x2666;" horiz-adv-x="920" 
d="M155 390l327 401l327 -401l-327 -400z" />
    <glyph glyph-name="uni267B" unicode="&#x267b;" horiz-adv-x="921" 
d="M841 246l1 -2l-91 -157q-13 -19 -19.5 -27.5t-23 -16.5t-39.5 -8h-54v-47l-106 128l106 127v-46h136q25 0 47.5 12.5t32.5 24.5zM204 111h-2l-90 158q-10 19 -14 29.5t-3 28.5t13 38l27 46l-40 23l164 29l55 -156l-38 23q-66 -113 -68 -118q-12 -21 -13 -46.5t4 -39.5z
M409 728v1h182q22 -1 33.5 -2.5t26.5 -11.5t26 -30l26 -46l41 23l-58 -157l-162 30l38 22l-67 118q-13 22 -34.5 35t-36.5 16zM217 558l63 112q11 18 32 29q43 22 91 9t64 -42l-109 -189zM449 35h-127q-23 0 -42 12q-40 23 -53.5 74t4.5 76h218v-162zM787 491l65 -110
q9 -14 9 -41q1 -45 -35.5 -81.5t-69.5 -36.5l-109 189z" />
    <glyph glyph-name="uni267C" unicode="&#x267c;" horiz-adv-x="921" 
d="M857 366q0 -156 -110 -265.5t-265 -109.5q-157 0 -267 109.5t-110 265.5t110 266.5t267 110.5q155 0 265 -110.5t110 -266.5zM324 606l-49 -86l109 -63l84 146q-12 23 -49.5 33t-70.5 -7q-19 -12 -24 -23zM419 652v-1q46 -4 67 -41l53 -91l-30 -18l126 -23l44 122
l-31 -18l-21 36q-13 22 -27.5 28t-39.5 6h-141zM352 114h99v126h-170q-14 -20 -3 -59.5t42 -57.5q17 -9 32 -9zM263 173h1q-18 41 3 79l53 91l30 -18l-43 121l-127 -22l31 -18l-21 -36q-9 -15 -10 -29.5t2 -21.5t11 -24zM766 383l-49 85l-110 -63l85 -147q26 0 54.5 28.5
t27.5 64.5q0 18 -8 32zM759 276l-1 1q-26 -37 -70 -37h-105v35l-83 -98l83 -99v36h41q26 0 39 9.5t25 30.5z" />
    <glyph glyph-name="uni267D" unicode="&#x267d;" horiz-adv-x="921" 
d="M857 366q0 -156 -110 -265.5t-265 -109.5q-157 0 -267 109.5t-110 265.5t110 266.5t267 110.5q155 0 265 -110.5t110 -266.5zM838 366q0 149 -104 253.5t-252 104.5q-149 0 -254 -104.5t-105 -253.5q0 -148 105 -252.5t254 -104.5q148 0 252 104.5t104 252.5zM275 520
l49 86q5 11 24 23q33 17 70.5 7t49.5 -33l-84 -146zM419 651v1h141q25 0 39.5 -6t27.5 -28l21 -36l31 18l-44 -122l-126 23l30 18l-53 91q-9 16 -26 26.5t-29 12.5zM451 114h-99q-16 0 -32 9q-31 18 -42 57.5t3 59.5h170v-126zM264 173h-1l-70 122q-8 17 -11 24t-2 21.5
t10 29.5l21 36l-31 18l127 22l43 -121l-30 18l-53 -91q-9 -17 -10 -36.5t3 -31.5zM717 468l49 -85q8 -14 8 -32q1 -36 -27.5 -64.5t-54.5 -28.5l-85 147zM758 277l1 -1l-71 -122q-8 -14 -14 -21t-19 -13t-31 -6h-41v-36l-83 99l83 98v-35h105q20 0 37.5 9t24.5 19z" />
    <glyph glyph-name="mediumwhitecircle" unicode="&#x26aa;" horiz-adv-x="698" 
d="M349 -10q-108 0 -184 76.5t-76 183.5q0 108 76 184t184 76t184 -76t76 -184q0 -107 -76 -183.5t-184 -76.5zM349 -1q104 0 177 73.5t73 177.5t-73 177.5t-177 73.5q-103 0 -176.5 -73.5t-73.5 -177.5t73.5 -177.5t176.5 -73.5z" />
    <glyph glyph-name="mediumblackcircle" unicode="&#x26ab;" horiz-adv-x="698" 
d="M349 -10q-108 0 -183.5 76t-75.5 184t75.5 184t183.5 76t183.5 -76t75.5 -184t-75.5 -184t-183.5 -76z" />
    <glyph glyph-name="anglebracketleft" unicode="&#x3008;" horiz-adv-x="390" 
d="M224 -230l-162 478l330 482h11l-331 -484l162 -476h-10z" />
    <glyph glyph-name="anglebracketright" unicode="&#x3009;" horiz-adv-x="390" 
d="M-24 -230l332 484l-162 476h10l162 -477l-331 -483h-11z" />
    <glyph glyph-name="cordinal" unicode="&#xe181;" horiz-adv-x="418" 
d="M261 435q-70 0 -110.5 50t-27.5 120q10 58 54.5 94.5t100.5 36.5q48 0 83 -26t50 -67l-9 -3q-13 39 -46 63.5t-78 24.5q-53 0 -94.5 -35t-51.5 -90q-11 -65 26.5 -112t102.5 -47q42 0 77.5 22.5t54.5 60.5l9 -4q-19 -40 -57.5 -64t-83.5 -24z" />
    <glyph glyph-name="p.smcp" unicode="&#xe200;" horiz-adv-x="516" 
d="M32 0l105 596h150q99 0 157 -60t43 -153q-14 -81 -77.5 -129.5t-158.5 -48.5h-174l-36 -205h-9zM286 588h-141l-67 -375h174q90 0 151 47t74 124q15 90 -40 147t-151 57z" />
    <glyph glyph-name="p.smcp" unicode="&#xf770;" horiz-adv-x="516" 
d="M32 0l105 596h150q99 0 157 -60t43 -153q-14 -81 -77.5 -129.5t-158.5 -48.5h-174l-36 -205h-9zM286 588h-141l-67 -375h174q90 0 151 47t74 124q15 90 -40 147t-151 57z" />
    <glyph glyph-name="a.smcp" unicode="&#xe201;" horiz-adv-x="565" 
d="M-4 0l342 596h9l135 -596h-10l-43 193h-312l-110 -193h-11zM341 583l-219 -382h305z" />
    <glyph glyph-name="a.smcp" unicode="&#xf761;" horiz-adv-x="565" 
d="M-4 0l342 596h9l135 -596h-10l-43 193h-312l-110 -193h-11zM341 583l-219 -382h305z" />
    <glyph glyph-name="b.smcp" unicode="&#xe202;" horiz-adv-x="547" 
d="M34 0l105 596h227q64 0 105.5 -42.5t37.5 -103.5q-5 -53 -41.5 -93t-89.5 -50q50 -13 80 -59t20 -102q-11 -63 -60 -104.5t-115 -41.5h-269zM344 304h-247l-52 -295h258q63 0 109 39.5t56 99.5q12 62 -27 109t-97 47zM365 588h-218l-49 -275h250q59 0 102.5 40t48.5 97
t-34 97.5t-100 40.5z" />
    <glyph glyph-name="b.smcp" unicode="&#xf762;" horiz-adv-x="547" 
d="M34 0l105 596h227q64 0 105.5 -42.5t37.5 -103.5q-5 -53 -41.5 -93t-89.5 -50q50 -13 80 -59t20 -102q-11 -63 -60 -104.5t-115 -41.5h-269zM344 304h-247l-52 -295h258q63 0 109 39.5t56 99.5q12 62 -27 109t-97 47zM365 588h-218l-49 -275h250q59 0 102.5 40t48.5 97
t-34 97.5t-100 40.5z" />
    <glyph glyph-name="c.smcp" unicode="&#xe203;" horiz-adv-x="654" 
d="M347 -10q-94 0 -164.5 48t-100.5 127t-13 169q21 117 115.5 194.5t209.5 77.5q85 0 147.5 -36.5t97.5 -101.5l-8 -5q-71 134 -238 134q-111 0 -202.5 -75.5t-112.5 -189.5q-24 -134 54 -233.5t216 -99.5q72 0 136 32.5t108 90.5l8 -5q-45 -60 -111.5 -93.5t-141.5 -33.5z
" />
    <glyph glyph-name="c.smcp" unicode="&#xf763;" horiz-adv-x="654" 
d="M347 -10q-94 0 -164.5 48t-100.5 127t-13 169q21 117 115.5 194.5t209.5 77.5q85 0 147.5 -36.5t97.5 -101.5l-8 -5q-71 134 -238 134q-111 0 -202.5 -75.5t-112.5 -189.5q-24 -134 54 -233.5t216 -99.5q72 0 136 32.5t108 90.5l8 -5q-45 -60 -111.5 -93.5t-141.5 -33.5z
" />
    <glyph glyph-name="d.smcp" unicode="&#xe204;" horiz-adv-x="589" 
d="M34 0l105 596h136q130 0 208.5 -95.5t55.5 -226.5q-21 -126 -113 -200t-216 -74h-176zM272 588h-125l-102 -579h166q119 0 208 72t111 195q23 127 -53.5 219.5t-204.5 92.5z" />
    <glyph glyph-name="d.smcp" unicode="&#xf764;" horiz-adv-x="589" 
d="M34 0l105 596h136q130 0 208.5 -95.5t55.5 -226.5q-21 -126 -113 -200t-216 -74h-176zM272 588h-125l-102 -579h166q119 0 208 72t111 195q23 127 -53.5 219.5t-204.5 92.5z" />
    <glyph glyph-name="e.smcp" unicode="&#xe205;" horiz-adv-x="507" 
d="M34 0l105 596h371l-2 -8h-361l-50 -279h363l-2 -9h-362l-51 -291h362l-2 -9h-371z" />
    <glyph glyph-name="e.smcp" unicode="&#xf765;" horiz-adv-x="507" 
d="M34 0l105 596h371l-2 -8h-361l-50 -279h363l-2 -9h-362l-51 -291h362l-2 -9h-371z" />
    <glyph glyph-name="f.smcp" unicode="&#xe206;" horiz-adv-x="468" 
d="M34 0l105 596h337l-2 -8h-327l-51 -287h328l-2 -9h-327l-51 -292h-10z" />
    <glyph glyph-name="f.smcp" unicode="&#xf766;" horiz-adv-x="468" 
d="M34 0l105 596h337l-2 -8h-327l-51 -287h328l-2 -9h-327l-51 -292h-10z" />
    <glyph glyph-name="g.smcp" unicode="&#xe207;" horiz-adv-x="712" 
d="M352 -10q-143 0 -226 101.5t-57 242.5q21 118 113.5 195t207.5 77q83 0 148 -38t105 -106l-8 -5q-83 140 -246 140q-111 0 -200.5 -75.5t-110.5 -189.5q-24 -135 55 -234t219 -99q129 0 213.5 84t92.5 207h-300l2 9h309v-1q-7 -131 -94 -219.5t-223 -88.5z" />
    <glyph glyph-name="g.smcp" unicode="&#xf767;" horiz-adv-x="712" 
d="M352 -10q-143 0 -226 101.5t-57 242.5q21 118 113.5 195t207.5 77q83 0 148 -38t105 -106l-8 -5q-83 140 -246 140q-111 0 -200.5 -75.5t-110.5 -189.5q-24 -135 55 -234t219 -99q129 0 213.5 84t92.5 207h-300l2 9h309v-1q-7 -131 -94 -219.5t-223 -88.5z" />
    <glyph glyph-name="h.smcp" unicode="&#xe208;" horiz-adv-x="556" 
d="M34 0l105 596h9l-52 -295h382l52 295h9l-105 -596h-9l51 292h-382l-51 -292h-9z" />
    <glyph glyph-name="h.smcp" unicode="&#xf768;" horiz-adv-x="556" 
d="M34 0l105 596h9l-52 -295h382l52 295h9l-105 -596h-9l51 292h-382l-51 -292h-9z" />
    <glyph glyph-name="i.smcp" unicode="&#xe209;" horiz-adv-x="175" 
d="M39 0l105 596h10l-105 -596h-10z" />
    <glyph glyph-name="i.smcp" unicode="&#xf769;" horiz-adv-x="175" 
d="M39 0l105 596h10l-105 -596h-10z" />
    <glyph glyph-name="j.smcp" unicode="&#xe20a;" horiz-adv-x="417" 
d="M160 -8q-54 0 -91 23.5t-52 60.5l9 4q14 -35 49 -57t86 -22q61 0 99.5 39.5t49.5 102.5l80 453h9l-80 -453q-12 -69 -52 -110t-107 -41z" />
    <glyph glyph-name="j.smcp" unicode="&#xf76a;" horiz-adv-x="417" 
d="M160 -8q-54 0 -91 23.5t-52 60.5l9 4q14 -35 49 -57t86 -22q61 0 99.5 39.5t49.5 102.5l80 453h9l-80 -453q-12 -69 -52 -110t-107 -41z" />
    <glyph glyph-name="k.smcp" unicode="&#xe20b;" horiz-adv-x="561" 
d="M461 0l-186 346l-202 -186l-28 -160h-10l105 596h10l-75 -422l458 422h13l-264 -244l190 -352h-11z" />
    <glyph glyph-name="k.smcp" unicode="&#xf76b;" horiz-adv-x="561" 
d="M461 0l-186 346l-202 -186l-28 -160h-10l105 596h10l-75 -422l458 422h13l-264 -244l190 -352h-11z" />
    <glyph glyph-name="l.smcp" unicode="&#xe20c;" horiz-adv-x="459" 
d="M34 0l105 596h10l-104 -587h322l-2 -9h-331z" />
    <glyph glyph-name="l.smcp" unicode="&#xf76c;" horiz-adv-x="459" 
d="M34 0l105 596h10l-104 -587h322l-2 -9h-331z" />
    <glyph glyph-name="m.smcp" unicode="&#xe20d;" horiz-adv-x="739" 
d="M34 0l105 596h9l205 -385l360 385h9l-105 -596h-10l101 578l-357 -384l-205 387l-102 -581h-10z" />
    <glyph glyph-name="m.smcp" unicode="&#xf76d;" horiz-adv-x="739" 
d="M34 0l105 596h9l205 -385l360 385h9l-105 -596h-10l101 578l-357 -384l-205 387l-102 -581h-10z" />
    <glyph glyph-name="n.smcp" unicode="&#xe20e;" horiz-adv-x="604" 
d="M34 0l105 596h9l327 -581l102 581h10l-105 -596h-8l-328 581l-102 -581h-10z" />
    <glyph glyph-name="n.smcp" unicode="&#xf76e;" horiz-adv-x="604" 
d="M34 0l105 596h9l327 -581l102 581h10l-105 -596h-8l-328 581l-102 -581h-10z" />
    <glyph glyph-name="o.smcp" unicode="&#xe20f;" horiz-adv-x="719" 
d="M348 -10q-140 0 -222.5 101.5t-56.5 242.5q21 118 113.5 195t206.5 77q96 0 166.5 -52.5t98 -132.5t11.5 -164q-21 -117 -112 -192t-205 -75zM349 -1q109 0 197.5 73.5t109.5 186.5q15 82 -11 159t-94.5 128t-162.5 51q-110 0 -199.5 -75.5t-110.5 -189.5
q-23 -138 56 -235.5t215 -97.5z" />
    <glyph glyph-name="o.smcp" unicode="&#xf76f;" horiz-adv-x="719" 
d="M348 -10q-140 0 -222.5 101.5t-56.5 242.5q21 118 113.5 195t206.5 77q96 0 166.5 -52.5t98 -132.5t11.5 -164q-21 -117 -112 -192t-205 -75zM349 -1q109 0 197.5 73.5t109.5 186.5q15 82 -11 159t-94.5 128t-162.5 51q-110 0 -199.5 -75.5t-110.5 -189.5
q-23 -138 56 -235.5t215 -97.5z" />
    <glyph glyph-name="q.smcp" unicode="&#xe211;" horiz-adv-x="720" 
d="M349 -10q-140 0 -222.5 101.5t-56.5 242.5q21 118 113.5 195t205.5 77q73 0 132.5 -31t94 -81t48.5 -112t2 -125q-24 -132 -135 -209q34 -39 83 -39h13l-2 -9h-12q-34 0 -60.5 17t-43 41.5t-32.5 49t-39.5 41.5t-53.5 17h-16l2 9h16q26 0 48 -13t33.5 -27.5t29.5 -41
t28 -38.5q108 75 132 204q15 82 -11.5 159t-94.5 128t-162 51q-111 0 -200.5 -75.5t-109.5 -189.5q-24 -137 55 -235t215 -98q66 0 133 31l6 -7q-66 -33 -139 -33z" />
    <glyph glyph-name="q.smcp" unicode="&#xf771;" horiz-adv-x="720" 
d="M349 -10q-140 0 -222.5 101.5t-56.5 242.5q21 118 113.5 195t205.5 77q73 0 132.5 -31t94 -81t48.5 -112t2 -125q-24 -132 -135 -209q34 -39 83 -39h13l-2 -9h-12q-34 0 -60.5 17t-43 41.5t-32.5 49t-39.5 41.5t-53.5 17h-16l2 9h16q26 0 48 -13t33.5 -27.5t29.5 -41
t28 -38.5q108 75 132 204q15 82 -11.5 159t-94.5 128t-162 51q-111 0 -200.5 -75.5t-109.5 -189.5q-24 -137 55 -235t215 -98q66 0 133 31l6 -7q-66 -33 -139 -33z" />
    <glyph glyph-name="r.smcp" unicode="&#xe212;" horiz-adv-x="512" 
d="M34 0l105 596h164q80 0 132 -57.5t38 -139.5q-12 -70 -63 -115.5t-123 -45.5h-47q3 -84 49.5 -156.5t120.5 -72.5h9l-2 -9h-8q-79 0 -128.5 78t-49.5 169h56q69 0 117 43.5t59 109.5q13 77 -35 132t-126 56h-155l-103 -588h-10z" />
    <glyph glyph-name="r.smcp" unicode="&#xf772;" horiz-adv-x="512" 
d="M34 0l105 596h164q80 0 132 -57.5t38 -139.5q-12 -70 -63 -115.5t-123 -45.5h-47q3 -84 49.5 -156.5t120.5 -72.5h9l-2 -9h-8q-79 0 -128.5 78t-49.5 169h56q69 0 117 43.5t59 109.5q13 77 -35 132t-126 56h-155l-103 -588h-10z" />
    <glyph glyph-name="s.smcp" unicode="&#xe213;" horiz-adv-x="456" 
d="M201 -8q-118 0 -180 98l9 6q58 -95 172 -95q66 0 113 34.5t57 91.5q12 67 -25 107.5t-111 76.5q-33 16 -53.5 28.5t-44.5 34t-33.5 50.5t-3.5 64q8 51 52 83.5t109 32.5q110 0 165 -86l-8 -5q-52 83 -157 83q-61 0 -102.5 -30.5t-49.5 -78.5q-6 -33 3.5 -60t33 -47.5
t43 -33t49.5 -26.5q36 -18 59.5 -32.5t47.5 -38t33 -54t2 -68.5q-11 -62 -60.5 -98.5t-119.5 -36.5z" />
    <glyph glyph-name="s.smcp" unicode="&#xf773;" horiz-adv-x="456" 
d="M201 -8q-118 0 -180 98l9 6q58 -95 172 -95q66 0 113 34.5t57 91.5q12 67 -25 107.5t-111 76.5q-33 16 -53.5 28.5t-44.5 34t-33.5 50.5t-3.5 64q8 51 52 83.5t109 32.5q110 0 165 -86l-8 -5q-52 83 -157 83q-61 0 -102.5 -30.5t-49.5 -78.5q-6 -33 3.5 -60t33 -47.5
t43 -33t49.5 -26.5q36 -18 59.5 -32.5t47.5 -38t33 -54t2 -68.5q-11 -62 -60.5 -98.5t-119.5 -36.5z" />
    <glyph glyph-name="t.smcp" unicode="&#xe214;" horiz-adv-x="517" 
d="M110 588l2 8h415l-2 -8h-202l-104 -588h-9l103 588h-203z" />
    <glyph glyph-name="t.smcp" unicode="&#xf774;" horiz-adv-x="517" 
d="M110 588l2 8h415l-2 -8h-202l-104 -588h-9l103 588h-203z" />
    <glyph glyph-name="u.smcp" unicode="&#xe215;" horiz-adv-x="563" 
d="M260 -8q-103 0 -154.5 62.5t-33.5 158.5l68 383h10l-68 -381q-17 -94 31 -154t147 -60q79 0 133.5 47t67.5 121l75 427h10l-76 -429q-13 -77 -70 -126t-140 -49z" />
    <glyph glyph-name="u.smcp" unicode="&#xf775;" horiz-adv-x="563" 
d="M260 -8q-103 0 -154.5 62.5t-33.5 158.5l68 383h10l-68 -381q-17 -94 31 -154t147 -60q79 0 133.5 47t67.5 121l75 427h10l-76 -429q-13 -77 -70 -126t-140 -49z" />
    <glyph glyph-name="v.smcp" unicode="&#xe216;" horiz-adv-x="567" 
d="M236 0l-133 596h9l131 -582l334 582h11l-343 -596h-9z" />
    <glyph glyph-name="v.smcp" unicode="&#xf776;" horiz-adv-x="567" 
d="M236 0l-133 596h9l131 -582l334 582h11l-343 -596h-9z" />
    <glyph glyph-name="w.smcp" unicode="&#xe217;" horiz-adv-x="884" 
d="M180 0l-74 596h9l72 -581l310 581h8l108 -582l277 582h10l-283 -596h-10l-109 581l-308 -581h-10z" />
    <glyph glyph-name="w.smcp" unicode="&#xf777;" horiz-adv-x="884" 
d="M180 0l-74 596h9l72 -581l310 581h8l108 -582l277 582h10l-283 -596h-10l-109 581l-308 -581h-10z" />
    <glyph glyph-name="x.smcp" unicode="&#xe218;" horiz-adv-x="550" 
d="M451 0l-166 305l-271 -305h-13l280 313l-153 283h10l149 -276l247 276h12l-254 -285l169 -311h-10z" />
    <glyph glyph-name="x.smcp" unicode="&#xf778;" horiz-adv-x="550" 
d="M451 0l-166 305l-271 -305h-13l280 313l-153 283h10l149 -276l247 276h12l-254 -285l169 -311h-10z" />
    <glyph glyph-name="y.smcp" unicode="&#xe219;" horiz-adv-x="516" 
d="M209 0l50 286l-151 310h11l146 -301l252 301h12l-260 -310l-50 -286h-10z" />
    <glyph glyph-name="y.smcp" unicode="&#xf779;" horiz-adv-x="516" 
d="M209 0l50 286l-151 310h11l146 -301l252 301h12l-260 -310l-50 -286h-10z" />
    <glyph glyph-name="z.smcp" unicode="&#xe21a;" horiz-adv-x="498" 
d="M9 0l2 9l475 579h-365l2 8h377l-2 -9l-476 -578h381l-2 -9h-392z" />
    <glyph glyph-name="z.smcp" unicode="&#xf77a;" horiz-adv-x="498" 
d="M9 0l2 9l475 579h-365l2 8h377l-2 -9l-476 -578h381l-2 -9h-392z" />
    <glyph glyph-name="anocross.smcp" unicode="&#xe220;" horiz-adv-x="565" 
d="M-4 0l342 596h9l135 -596h-10l-131 583l-334 -583h-11z" />
    <glyph glyph-name="aacute.smcp" unicode="&#xe221;" horiz-adv-x="565" 
d="M-4 0l342 596h9l135 -596h-10l-43 193h-312l-110 -193h-11zM341 583l-219 -382h305zM354 679l146 137h15l-150 -137h-11z" />
    <glyph glyph-name="aacute.smcp" unicode="&#xf7e1;" horiz-adv-x="565" 
d="M-4 0l342 596h9l135 -596h-10l-43 193h-312l-110 -193h-11zM341 583l-219 -382h305zM354 679l146 137h15l-150 -137h-11z" />
    <glyph glyph-name="agrave.smcp" unicode="&#xe222;" horiz-adv-x="565" 
d="M-4 0l342 596h9l135 -596h-10l-43 193h-312l-110 -193h-11zM341 583l-219 -382h305zM345 679l-105 137h14l100 -137h-9z" />
    <glyph glyph-name="agrave.smcp" unicode="&#xf7e0;" horiz-adv-x="565" 
d="M-4 0l342 596h9l135 -596h-10l-43 193h-312l-110 -193h-11zM341 583l-219 -382h305zM345 679l-105 137h14l100 -137h-9z" />
    <glyph glyph-name="acircumflex.smcp" unicode="&#xe223;" horiz-adv-x="565" 
d="M-4 0l342 596h9l135 -596h-10l-43 193h-312l-110 -193h-11zM341 583l-219 -382h305zM228 668l143 138h9l95 -138h-11l-89 130l-134 -130h-13z" />
    <glyph glyph-name="acircumflex.smcp" unicode="&#xf7e2;" horiz-adv-x="565" 
d="M-4 0l342 596h9l135 -596h-10l-43 193h-312l-110 -193h-11zM341 583l-219 -382h305zM228 668l143 138h9l95 -138h-11l-89 130l-134 -130h-13z" />
    <glyph glyph-name="adieresis.smcp" unicode="&#xe224;" horiz-adv-x="565" 
d="M-4 0l342 596h9l135 -596h-10l-43 193h-312l-110 -193h-11zM341 583l-219 -382h305zM312 678l24 140h9l-24 -140h-9zM390 678l24 140h9l-24 -140h-9z" />
    <glyph glyph-name="adieresis.smcp" unicode="&#xf7e4;" horiz-adv-x="565" 
d="M-4 0l342 596h9l135 -596h-10l-43 193h-312l-110 -193h-11zM341 583l-219 -382h305zM312 678l24 140h9l-24 -140h-9zM390 678l24 140h9l-24 -140h-9z" />
    <glyph glyph-name="atilde.smcp" unicode="&#xe225;" horiz-adv-x="565" 
d="M-4 0l342 596h9l135 -596h-10l-43 193h-312l-110 -193h-11zM341 583l-219 -382h305zM184 677q7 34 31.5 57t56.5 23q6 0 11.5 -0.5t11.5 -2.5t10.5 -3t11.5 -4t10 -4.5t10.5 -6l10 -6t10.5 -6.5t10 -6q57 -37 95 -37q30 0 51.5 18.5t28.5 54.5h10q-7 -39 -32 -60.5
t-59 -21.5q-39 0 -99 38t-92 38q-28 0 -49.5 -20t-27.5 -51h-10z" />
    <glyph glyph-name="atilde.smcp" unicode="&#xf7e3;" horiz-adv-x="565" 
d="M-4 0l342 596h9l135 -596h-10l-43 193h-312l-110 -193h-11zM341 583l-219 -382h305zM184 677q7 34 31.5 57t56.5 23q6 0 11.5 -0.5t11.5 -2.5t10.5 -3t11.5 -4t10 -4.5t10.5 -6l10 -6t10.5 -6.5t10 -6q57 -37 95 -37q30 0 51.5 18.5t28.5 54.5h10q-7 -39 -32 -60.5
t-59 -21.5q-39 0 -99 38t-92 38q-28 0 -49.5 -20t-27.5 -51h-10z" />
    <glyph glyph-name="aring.smcp" unicode="&#xe226;" horiz-adv-x="565" 
d="M-4 0l336 586q-30 5 -48.5 30t-12.5 59q5 31 30 52t56 21q38 0 59.5 -27t15.5 -60q-5 -31 -28.5 -53t-54.5 -23l133 -585h-10l-43 193h-312l-110 -193h-11zM341 583l-219 -382h305zM280 673q-5 -30 11.5 -52.5t45.5 -26.5l1 2h9v-2q28 1 49.5 21t26.5 47q5 30 -13.5 53.5
t-52.5 23.5q-28 0 -50.5 -19t-26.5 -47z" />
    <glyph glyph-name="aring.smcp" unicode="&#xf7e5;" horiz-adv-x="565" 
d="M-4 0l336 586q-30 5 -48.5 30t-12.5 59q5 31 30 52t56 21q38 0 59.5 -27t15.5 -60q-5 -31 -28.5 -53t-54.5 -23l133 -585h-10l-43 193h-312l-110 -193h-11zM341 583l-219 -382h305zM280 673q-5 -30 11.5 -52.5t45.5 -26.5l1 2h9v-2q28 1 49.5 21t26.5 47q5 30 -13.5 53.5
t-52.5 23.5q-28 0 -50.5 -19t-26.5 -47z" />
    <glyph glyph-name="amacron.smcp" unicode="&#xe228;" horiz-adv-x="565" 
d="M-4 0l342 596h9l135 -596h-10l-43 193h-312l-110 -193h-11zM341 583l-219 -382h305zM226 679l2 9h264l-2 -9h-264z" />
    <glyph glyph-name="amacron.smcp" unicode="&#xf641;" horiz-adv-x="565" 
d="M-4 0l342 596h9l135 -596h-10l-43 193h-312l-110 -193h-11zM341 583l-219 -382h305zM226 679l2 9h264l-2 -9h-264z" />
    <glyph glyph-name="abreve.smcp" unicode="&#xe229;" horiz-adv-x="565" 
d="M-4 0l342 596h9l135 -596h-10l-43 193h-312l-110 -193h-11zM341 583l-219 -382h305zM362 670q-72 0 -111.5 44.5t-29.5 98.5h10q-10 -50 26.5 -92t105.5 -42q74 0 118 40.5t53 93.5h10q-10 -58 -56.5 -100.5t-125.5 -42.5z" />
    <glyph glyph-name="abreve.smcp" unicode="&#xf640;" horiz-adv-x="565" 
d="M-4 0l342 596h9l135 -596h-10l-43 193h-312l-110 -193h-11zM341 583l-219 -382h305zM362 670q-72 0 -111.5 44.5t-29.5 98.5h10q-10 -50 26.5 -92t105.5 -42q74 0 118 40.5t53 93.5h10q-10 -58 -56.5 -100.5t-125.5 -42.5z" />
    <glyph glyph-name="aringacute.smcp" unicode="&#xe22d;" horiz-adv-x="590" 
d="M9 0l337 587q-31 5 -49.5 30.5t-12.5 59.5q5 31 30 52t56 21q38 0 59.5 -27t15.5 -60q-5 -31 -28.5 -53t-54.5 -23l133 -587h-10l-43 193h-312l-110 -193h-11zM354 583l-219 -382h305zM358 596h2q28 1 49.5 21t26.5 47q5 30 -13.5 53.5t-52.5 23.5q-28 0 -50.5 -19
t-26.5 -47q-5 -32 14 -55.5t51 -23.5zM378 796l146 137h15l-150 -137h-11z" />
    <glyph glyph-name="aringacute.smcp" unicode="&#xf625;" horiz-adv-x="590" 
d="M9 0l337 587q-31 5 -49.5 30.5t-12.5 59.5q5 31 30 52t56 21q38 0 59.5 -27t15.5 -60q-5 -31 -28.5 -53t-54.5 -23l133 -587h-10l-43 193h-312l-110 -193h-11zM354 583l-219 -382h305zM358 596h2q28 1 49.5 21t26.5 47q5 30 -13.5 53.5t-52.5 23.5q-28 0 -50.5 -19
t-26.5 -47q-5 -32 14 -55.5t51 -23.5zM378 796l146 137h15l-150 -137h-11z" />
    <glyph glyph-name="aogonek.smcp" unicode="&#xe22f;" horiz-adv-x="565" 
d="M-4 0l342 596h9l135 -596h-1q-130 -47 -140 -106q-5 -34 20.5 -58t70.5 -24q71 0 127 48l7 -6q-61 -51 -135 -51q-49 0 -77 27.5t-22 65.5q5 33 38.5 58t99.5 51l-41 188h-312l-110 -193h-11zM341 583l-219 -382h305z" />
    <glyph glyph-name="aogonek.smcp" unicode="&#xf642;" horiz-adv-x="565" 
d="M-4 0l342 596h9l135 -596h-1q-130 -47 -140 -106q-5 -34 20.5 -58t70.5 -24q71 0 127 48l7 -6q-61 -51 -135 -51q-49 0 -77 27.5t-22 65.5q5 33 38.5 58t99.5 51l-41 188h-312l-110 -193h-11zM341 583l-219 -382h305z" />
    <glyph glyph-name="edieresis.smcp" unicode="&#xe230;" horiz-adv-x="507" 
d="M34 0l105 596h371l-2 -8h-361l-50 -279h363l-2 -9h-362l-51 -291h362l-2 -9h-371zM296 678l24 140h9l-24 -140h-9zM374 678l24 140h9l-24 -140h-9z" />
    <glyph glyph-name="edieresis.smcp" unicode="&#xf7eb;" horiz-adv-x="507" 
d="M34 0l105 596h371l-2 -8h-361l-50 -279h363l-2 -9h-362l-51 -291h362l-2 -9h-371zM296 678l24 140h9l-24 -140h-9zM374 678l24 140h9l-24 -140h-9z" />
    <glyph glyph-name="ae.smcp" unicode="&#xe231;" horiz-adv-x="885" 
d="M17 0l400 596h456l-2 -9h-443l32 -277h363l-2 -9h-360l34 -292h274l-2 -9h-280l-22 195h-306l-131 -195h-11zM420 584l-255 -380h299z" />
    <glyph glyph-name="ae.smcp" unicode="&#xf7e6;" horiz-adv-x="885" 
d="M17 0l400 596h456l-2 -9h-443l32 -277h363l-2 -9h-360l34 -292h274l-2 -9h-280l-22 195h-306l-131 -195h-11zM420 584l-255 -380h299z" />
    <glyph glyph-name="aeacute.smcp" unicode="&#xe232;" horiz-adv-x="929" 
d="M44 0l400 596h456l-2 -9h-443l32 -277h363l-2 -9h-360l34 -292h274l-2 -9h-280l-22 195h-306l-131 -195h-11zM447 584l-255 -380h299zM625 679l146 137h15l-150 -137h-11z" />
    <glyph glyph-name="aeacute.smcp" unicode="&#xf624;" horiz-adv-x="929" 
d="M44 0l400 596h456l-2 -9h-443l32 -277h363l-2 -9h-360l34 -292h274l-2 -9h-280l-22 195h-306l-131 -195h-11zM447 584l-255 -380h299zM625 679l146 137h15l-150 -137h-11z" />
    <glyph glyph-name="cacute.smcp" unicode="&#xe234;" horiz-adv-x="654" 
d="M399 679l146 137h15l-150 -137h-11zM347 -10q-94 0 -164.5 48t-100.5 127t-13 169q21 117 115.5 194.5t209.5 77.5q85 0 147.5 -36.5t97.5 -101.5l-8 -5q-71 134 -238 134q-111 0 -202.5 -75.5t-112.5 -189.5q-24 -134 54 -233.5t216 -99.5q72 0 136 32.5t108 90.5l8 -5
q-45 -60 -111.5 -93.5t-141.5 -33.5z" />
    <glyph glyph-name="cacute.smcp" unicode="&#xf643;" horiz-adv-x="654" 
d="M399 679l146 137h15l-150 -137h-11zM347 -10q-94 0 -164.5 48t-100.5 127t-13 169q21 117 115.5 194.5t209.5 77.5q85 0 147.5 -36.5t97.5 -101.5l-8 -5q-71 134 -238 134q-111 0 -202.5 -75.5t-112.5 -189.5q-24 -134 54 -233.5t216 -99.5q72 0 136 32.5t108 90.5l8 -5
q-45 -60 -111.5 -93.5t-141.5 -33.5z" />
    <glyph glyph-name="ccircumflex.smcp" unicode="&#xe235;" horiz-adv-x="654" 
d="M347 -10q-94 0 -164.5 48t-100.5 127t-13 169q21 117 115.5 194.5t209.5 77.5q85 0 147.5 -36.5t97.5 -101.5l-8 -5q-71 134 -238 134q-111 0 -202.5 -75.5t-112.5 -189.5q-24 -134 54 -233.5t216 -99.5q72 0 136 32.5t108 90.5l8 -5q-45 -60 -111.5 -93.5t-141.5 -33.5z
M280 676l143 138h9l95 -138h-11l-89 130l-134 -130h-13z" />
    <glyph glyph-name="ccircumflex.smcp" unicode="&#xf628;" horiz-adv-x="654" 
d="M347 -10q-94 0 -164.5 48t-100.5 127t-13 169q21 117 115.5 194.5t209.5 77.5q85 0 147.5 -36.5t97.5 -101.5l-8 -5q-71 134 -238 134q-111 0 -202.5 -75.5t-112.5 -189.5q-24 -134 54 -233.5t216 -99.5q72 0 136 32.5t108 90.5l8 -5q-45 -60 -111.5 -93.5t-141.5 -33.5z
M280 676l143 138h9l95 -138h-11l-89 130l-134 -130h-13z" />
    <glyph glyph-name="ccaron.smcp" unicode="&#xe236;" horiz-adv-x="654" 
d="M347 -10q-94 0 -164.5 48t-100.5 127t-13 169q21 117 115.5 194.5t209.5 77.5q85 0 147.5 -36.5t97.5 -101.5l-8 -5q-71 134 -238 134q-111 0 -202.5 -75.5t-112.5 -189.5q-24 -134 54 -233.5t216 -99.5q72 0 136 32.5t108 90.5l8 -5q-45 -60 -111.5 -93.5t-141.5 -33.5z
M398 679l-95 137h11l89 -129l133 129h13l-142 -137h-9z" />
    <glyph glyph-name="ccaron.smcp" unicode="&#xf644;" horiz-adv-x="654" 
d="M347 -10q-94 0 -164.5 48t-100.5 127t-13 169q21 117 115.5 194.5t209.5 77.5q85 0 147.5 -36.5t97.5 -101.5l-8 -5q-71 134 -238 134q-111 0 -202.5 -75.5t-112.5 -189.5q-24 -134 54 -233.5t216 -99.5q72 0 136 32.5t108 90.5l8 -5q-45 -60 -111.5 -93.5t-141.5 -33.5z
M398 679l-95 137h11l89 -129l133 129h13l-142 -137h-9z" />
    <glyph glyph-name="cdotaccent.smcp" unicode="&#xe237;" horiz-adv-x="654" 
d="M347 -10q-94 0 -164.5 48t-100.5 127t-13 169q21 117 115.5 194.5t209.5 77.5q85 0 147.5 -36.5t97.5 -101.5l-8 -5q-71 134 -238 134q-111 0 -202.5 -75.5t-112.5 -189.5q-24 -134 54 -233.5t216 -99.5q72 0 136 32.5t108 90.5l8 -5q-45 -60 -111.5 -93.5t-141.5 -33.5z
M397 678l24 140h10l-24 -140h-10z" />
    <glyph glyph-name="cdotaccent.smcp" unicode="&#xf629;" horiz-adv-x="654" 
d="M347 -10q-94 0 -164.5 48t-100.5 127t-13 169q21 117 115.5 194.5t209.5 77.5q85 0 147.5 -36.5t97.5 -101.5l-8 -5q-71 134 -238 134q-111 0 -202.5 -75.5t-112.5 -189.5q-24 -134 54 -233.5t216 -99.5q72 0 136 32.5t108 90.5l8 -5q-45 -60 -111.5 -93.5t-141.5 -33.5z
M397 678l24 140h10l-24 -140h-10z" />
    <glyph glyph-name="ccedilla.smcp" unicode="&#xe238;" horiz-adv-x="654" 
d="M290 -219q-75 0 -123 48l8 6q44 -46 116 -46q47 0 79.5 18t37.5 49q5 33 -23.5 52t-84.5 19h-10l13 66q-124 16 -191 115t-43 226q21 117 115.5 194.5t209.5 77.5q85 0 147.5 -36.5t97.5 -101.5l-8 -5q-71 134 -238 134q-111 0 -202.5 -75.5t-112.5 -189.5
q-24 -134 54 -233.5t216 -99.5q72 0 136 32.5t108 90.5l8 -5q-45 -60 -111.5 -93.5t-141.5 -33.5q-13 0 -35 2l-11 -57q60 0 91 -22t25 -58q-6 -35 -40.5 -54.5t-86.5 -19.5z" />
    <glyph glyph-name="ccedilla.smcp" unicode="&#xf7e7;" horiz-adv-x="654" 
d="M290 -219q-75 0 -123 48l8 6q44 -46 116 -46q47 0 79.5 18t37.5 49q5 33 -23.5 52t-84.5 19h-10l13 66q-124 16 -191 115t-43 226q21 117 115.5 194.5t209.5 77.5q85 0 147.5 -36.5t97.5 -101.5l-8 -5q-71 134 -238 134q-111 0 -202.5 -75.5t-112.5 -189.5
q-24 -134 54 -233.5t216 -99.5q72 0 136 32.5t108 90.5l8 -5q-45 -60 -111.5 -93.5t-141.5 -33.5q-13 0 -35 2l-11 -57q60 0 91 -22t25 -58q-6 -35 -40.5 -54.5t-86.5 -19.5z" />
    <glyph glyph-name="dcaron.smcp" unicode="&#xe239;" horiz-adv-x="589" 
d="M34 0l105 596h136q130 0 208.5 -95.5t55.5 -226.5q-21 -126 -113 -200t-216 -74h-176zM272 588h-125l-102 -579h166q119 0 208 72t111 195q23 127 -53.5 219.5t-204.5 92.5zM336 678l-95 137h11l89 -129l133 129h13l-142 -137h-9z" />
    <glyph glyph-name="dcaron.smcp" unicode="&#xf645;" horiz-adv-x="589" 
d="M34 0l105 596h136q130 0 208.5 -95.5t55.5 -226.5q-21 -126 -113 -200t-216 -74h-176zM272 588h-125l-102 -579h166q119 0 208 72t111 195q23 127 -53.5 219.5t-204.5 92.5zM336 678l-95 137h11l89 -129l133 129h13l-142 -137h-9z" />
    <glyph glyph-name="dcroat.smcp" unicode="&#xe23c;" horiz-adv-x="597" 
d="M23 297l2 9h71l51 290h136q130 0 208.5 -95.5t55.5 -226.5q-22 -126 -114 -200t-215 -74h-176l52 297h-71zM282 297h-178l-51 -288h165q119 0 208.5 72t111.5 195q22 127 -54.5 219.5t-203.5 92.5h-125l-50 -282h179z" />
    <glyph glyph-name="dcroat.smcp" unicode="&#xf646;" horiz-adv-x="597" 
d="M23 297l2 9h71l51 290h136q130 0 208.5 -95.5t55.5 -226.5q-22 -126 -114 -200t-215 -74h-176l52 297h-71zM282 297h-178l-51 -288h165q119 0 208.5 72t111.5 195q22 127 -54.5 219.5t-203.5 92.5h-125l-50 -282h179z" />
    <glyph glyph-name="eacute.smcp" unicode="&#xe23d;" horiz-adv-x="507" 
d="M34 0l105 596h371l-2 -8h-361l-50 -279h363l-2 -9h-362l-51 -291h362l-2 -9h-371zM308 679l146 137h15l-150 -137h-11z" />
    <glyph glyph-name="eacute.smcp" unicode="&#xf7e9;" horiz-adv-x="507" 
d="M34 0l105 596h371l-2 -8h-361l-50 -279h363l-2 -9h-362l-51 -291h362l-2 -9h-371zM308 679l146 137h15l-150 -137h-11z" />
    <glyph glyph-name="egrave.smcp" unicode="&#xe23e;" horiz-adv-x="507" 
d="M34 0l105 596h371l-2 -8h-361l-50 -279h363l-2 -9h-362l-51 -291h362l-2 -9h-371zM347 679l-105 137h14l100 -137h-9z" />
    <glyph glyph-name="egrave.smcp" unicode="&#xf7e8;" horiz-adv-x="507" 
d="M34 0l105 596h371l-2 -8h-361l-50 -279h363l-2 -9h-362l-51 -291h362l-2 -9h-371zM347 679l-105 137h14l100 -137h-9z" />
    <glyph glyph-name="ecircumflex.smcp" unicode="&#xe23f;" horiz-adv-x="507" 
d="M34 0l105 596h371l-2 -8h-361l-50 -279h363l-2 -9h-362l-51 -291h362l-2 -9h-371zM209 678l143 138h9l95 -138h-11l-89 130l-134 -130h-13z" />
    <glyph glyph-name="ecircumflex.smcp" unicode="&#xf7ea;" horiz-adv-x="507" 
d="M34 0l105 596h371l-2 -8h-361l-50 -279h363l-2 -9h-362l-51 -291h362l-2 -9h-371zM209 678l143 138h9l95 -138h-11l-89 130l-134 -130h-13z" />
    <glyph glyph-name="gcommaaccent.smcp" unicode="&#xe240;" horiz-adv-x="712" 
d="M352 -10q-143 0 -226 101.5t-57 242.5q21 118 113.5 195t207.5 77q83 0 148 -38t105 -106l-8 -5q-83 140 -246 140q-111 0 -200.5 -75.5t-110.5 -189.5q-24 -135 55 -234t219 -99q129 0 213.5 84t92.5 207h-300l2 9h309v-1q-7 -131 -94 -219.5t-223 -88.5zM243 -285
l77 184h12l-80 -184h-9z" />
    <glyph glyph-name="gcommaaccent.smcp" unicode="&#xf64c;" horiz-adv-x="712" 
d="M352 -10q-143 0 -226 101.5t-57 242.5q21 118 113.5 195t207.5 77q83 0 148 -38t105 -106l-8 -5q-83 140 -246 140q-111 0 -200.5 -75.5t-110.5 -189.5q-24 -135 55 -234t219 -99q129 0 213.5 84t92.5 207h-300l2 9h309v-1q-7 -131 -94 -219.5t-223 -88.5zM243 -285
l77 184h12l-80 -184h-9z" />
    <glyph glyph-name="ecaron.smcp" unicode="&#xe241;" horiz-adv-x="507" 
d="M34 0l105 596h371l-2 -8h-361l-50 -279h363l-2 -9h-362l-51 -291h362l-2 -9h-371zM330 679l-95 137h11l89 -129l133 129h13l-142 -137h-9z" />
    <glyph glyph-name="ecaron.smcp" unicode="&#xf647;" horiz-adv-x="507" 
d="M34 0l105 596h371l-2 -8h-361l-50 -279h363l-2 -9h-362l-51 -291h362l-2 -9h-371zM330 679l-95 137h11l89 -129l133 129h13l-142 -137h-9z" />
    <glyph glyph-name="emacron.smcp" unicode="&#xe242;" horiz-adv-x="507" 
d="M34 0l105 596h371l-2 -8h-361l-50 -279h363l-2 -9h-362l-51 -291h362l-2 -9h-371zM210 679l2 9h264l-2 -9h-264z" />
    <glyph glyph-name="emacron.smcp" unicode="&#xf649;" horiz-adv-x="507" 
d="M34 0l105 596h371l-2 -8h-361l-50 -279h363l-2 -9h-362l-51 -291h362l-2 -9h-371zM210 679l2 9h264l-2 -9h-264z" />
    <glyph glyph-name="ebreve.smcp" unicode="&#xe243;" horiz-adv-x="507" 
d="M34 0l105 596h371l-2 -8h-361l-50 -279h363l-2 -9h-362l-51 -291h362l-2 -9h-371zM336 677q-72 0 -111.5 44.5t-29.5 98.5h10q-10 -50 26.5 -92t105.5 -42q74 0 118 40.5t53 93.5h10q-10 -58 -56.5 -100.5t-125.5 -42.5z" />
    <glyph glyph-name="ebreve.smcp" unicode="&#xf62a;" horiz-adv-x="507" 
d="M34 0l105 596h371l-2 -8h-361l-50 -279h363l-2 -9h-362l-51 -291h362l-2 -9h-371zM336 677q-72 0 -111.5 44.5t-29.5 98.5h10q-10 -50 26.5 -92t105.5 -42q74 0 118 40.5t53 93.5h10q-10 -58 -56.5 -100.5t-125.5 -42.5z" />
    <glyph glyph-name="edotaccent.smcp" unicode="&#xe246;" horiz-adv-x="507" 
d="M34 0l105 596h371l-2 -8h-361l-50 -279h363l-2 -9h-362l-51 -291h362l-2 -9h-371zM330 678l24 140h10l-24 -140h-10z" />
    <glyph glyph-name="edotaccent.smcp" unicode="&#xf648;" horiz-adv-x="507" 
d="M34 0l105 596h371l-2 -8h-361l-50 -279h363l-2 -9h-362l-51 -291h362l-2 -9h-371zM330 678l24 140h10l-24 -140h-10z" />
    <glyph glyph-name="eogonek.smcp" unicode="&#xe249;" horiz-adv-x="507" 
d="M34 0l105 596h371l-2 -8h-361l-50 -279h363l-2 -9h-362l-51 -291h362l-2 -9q-130 -47 -140 -106q-5 -34 20.5 -58t70.5 -24q71 0 127 48l7 -6q-61 -51 -135 -51q-49 0 -77 27.5t-22 65.5q8 57 124 104h-346z" />
    <glyph glyph-name="eogonek.smcp" unicode="&#xf64a;" horiz-adv-x="507" 
d="M34 0l105 596h371l-2 -8h-361l-50 -279h363l-2 -9h-362l-51 -291h362l-2 -9q-130 -47 -140 -106q-5 -34 20.5 -58t70.5 -24q71 0 127 48l7 -6q-61 -51 -135 -51q-49 0 -77 27.5t-22 65.5q8 57 124 104h-346z" />
    <glyph glyph-name="gcircumflex.smcp" unicode="&#xe24b;" horiz-adv-x="712" 
d="M352 -10q-143 0 -226 101.5t-57 242.5q21 118 113.5 195t207.5 77q83 0 148 -38t105 -106l-8 -5q-83 140 -246 140q-111 0 -200.5 -75.5t-110.5 -189.5q-24 -135 55 -234t219 -99q129 0 213.5 84t92.5 207h-300l2 9h309v-1q-7 -131 -94 -219.5t-223 -88.5zM282 678
l143 138h9l95 -138h-11l-89 130l-134 -130h-13z" />
    <glyph glyph-name="gcircumflex.smcp" unicode="&#xf62c;" horiz-adv-x="712" 
d="M352 -10q-143 0 -226 101.5t-57 242.5q21 118 113.5 195t207.5 77q83 0 148 -38t105 -106l-8 -5q-83 140 -246 140q-111 0 -200.5 -75.5t-110.5 -189.5q-24 -135 55 -234t219 -99q129 0 213.5 84t92.5 207h-300l2 9h309v-1q-7 -131 -94 -219.5t-223 -88.5zM282 678
l143 138h9l95 -138h-11l-89 130l-134 -130h-13z" />
    <glyph glyph-name="gbreve.smcp" unicode="&#xe24e;" horiz-adv-x="712" 
d="M352 -10q-143 0 -226 101.5t-57 242.5q21 118 113.5 195t207.5 77q83 0 148 -38t105 -106l-8 -5q-83 140 -246 140q-111 0 -200.5 -75.5t-110.5 -189.5q-24 -135 55 -234t219 -99q129 0 213.5 84t92.5 207h-300l2 9h309v-1q-7 -131 -94 -219.5t-223 -88.5zM412 669
q-72 0 -111.5 44.5t-29.5 98.5h10q-10 -50 26.5 -92t105.5 -42q74 0 118 40.5t53 93.5h10q-10 -58 -56.5 -100.5t-125.5 -42.5z" />
    <glyph glyph-name="gbreve.smcp" unicode="&#xf64b;" horiz-adv-x="712" 
d="M352 -10q-143 0 -226 101.5t-57 242.5q21 118 113.5 195t207.5 77q83 0 148 -38t105 -106l-8 -5q-83 140 -246 140q-111 0 -200.5 -75.5t-110.5 -189.5q-24 -135 55 -234t219 -99q129 0 213.5 84t92.5 207h-300l2 9h309v-1q-7 -131 -94 -219.5t-223 -88.5zM412 669
q-72 0 -111.5 44.5t-29.5 98.5h10q-10 -50 26.5 -92t105.5 -42q74 0 118 40.5t53 93.5h10q-10 -58 -56.5 -100.5t-125.5 -42.5z" />
    <glyph glyph-name="gdotaccent.smcp" unicode="&#xe24f;" horiz-adv-x="712" 
d="M352 -10q-143 0 -226 101.5t-57 242.5q21 118 113.5 195t207.5 77q83 0 148 -38t105 -106l-8 -5q-83 140 -246 140q-111 0 -200.5 -75.5t-110.5 -189.5q-24 -135 55 -234t219 -99q129 0 213.5 84t92.5 207h-300l2 9h309v-1q-7 -131 -94 -219.5t-223 -88.5zM404 678
l24 140h10l-24 -140h-10z" />
    <glyph glyph-name="gdotaccent.smcp" unicode="&#xf62d;" horiz-adv-x="712" 
d="M352 -10q-143 0 -226 101.5t-57 242.5q21 118 113.5 195t207.5 77q83 0 148 -38t105 -106l-8 -5q-83 140 -246 140q-111 0 -200.5 -75.5t-110.5 -189.5q-24 -135 55 -234t219 -99q129 0 213.5 84t92.5 207h-300l2 9h309v-1q-7 -131 -94 -219.5t-223 -88.5zM404 678
l24 140h10l-24 -140h-10z" />
    <glyph glyph-name="hcircumflex.smcp" unicode="&#xe253;" horiz-adv-x="556" 
d="M34 0l105 596h9l-52 -295h382l52 295h9l-105 -596h-9l51 292h-382l-51 -292h-9zM223 678l143 138h9l95 -138h-11l-89 130l-134 -130h-13z" />
    <glyph glyph-name="hcircumflex.smcp" unicode="&#xf62f;" horiz-adv-x="556" 
d="M34 0l105 596h9l-52 -295h382l52 295h9l-105 -596h-9l51 292h-382l-51 -292h-9zM223 678l143 138h9l95 -138h-11l-89 130l-134 -130h-13z" />
    <glyph glyph-name="hbar.smcp" unicode="&#xe257;" horiz-adv-x="571" 
d="M54 448l2 8h67l25 140h9l-25 -140h382l25 140h9l-25 -140h63l-2 -8h-62l-79 -448h-9l51 292h-382l-51 -292h-9l79 448h-68zM131 448l-26 -147h382l26 147h-382z" />
    <glyph glyph-name="hbar.smcp" unicode="&#xf62e;" horiz-adv-x="571" 
d="M54 448l2 8h67l25 140h9l-25 -140h382l25 140h9l-25 -140h63l-2 -8h-62l-79 -448h-9l51 292h-382l-51 -292h-9l79 448h-68zM131 448l-26 -147h382l26 147h-382z" />
    <glyph glyph-name="iacute.smcp" unicode="&#xe258;" horiz-adv-x="175" 
d="M165 679l146 137h15l-150 -137h-11zM39 0l105 596h10l-105 -596h-10z" />
    <glyph glyph-name="iacute.smcp" unicode="&#xf7ed;" horiz-adv-x="175" 
d="M165 679l146 137h15l-150 -137h-11zM39 0l105 596h10l-105 -596h-10z" />
    <glyph glyph-name="igrave.smcp" unicode="&#xe259;" horiz-adv-x="175" 
d="M159 679l-105 137h14l100 -137h-9zM39 0l105 596h10l-105 -596h-10z" />
    <glyph glyph-name="igrave.smcp" unicode="&#xf7ec;" horiz-adv-x="175" 
d="M159 679l-105 137h14l100 -137h-9zM39 0l105 596h10l-105 -596h-10z" />
    <glyph glyph-name="icircumflex.smcp" unicode="&#xe25a;" horiz-adv-x="175" 
d="M39 0l105 596h10l-105 -596h-10zM34 675l143 138h9l95 -138h-11l-89 130l-134 -130h-13z" />
    <glyph glyph-name="icircumflex.smcp" unicode="&#xf7ee;" horiz-adv-x="175" 
d="M39 0l105 596h10l-105 -596h-10zM34 675l143 138h9l95 -138h-11l-89 130l-134 -130h-13z" />
    <glyph glyph-name="idieresis.smcp" unicode="&#xe25b;" horiz-adv-x="175" 
d="M197 678l24 140h9l-24 -140h-9zM119 678l24 140h9l-24 -140h-9zM39 0l105 596h10l-105 -596h-10z" />
    <glyph glyph-name="idieresis.smcp" unicode="&#xf7ef;" horiz-adv-x="175" 
d="M197 678l24 140h9l-24 -140h-9zM119 678l24 140h9l-24 -140h-9zM39 0l105 596h10l-105 -596h-10z" />
    <glyph glyph-name="itilde.smcp" unicode="&#xe25c;" horiz-adv-x="175" 
d="M39 0l105 596h10l-105 -596h-10zM-9 678q7 34 31.5 57t56.5 23q6 0 11.5 -0.5t11.5 -2.5t10.5 -3t11.5 -4t10 -4.5t10.5 -6l10 -6t10.5 -6.5t10 -6q57 -37 95 -37q30 0 51.5 18.5t28.5 54.5h10q-7 -39 -32 -60.5t-59 -21.5q-39 0 -99 38t-92 38q-28 0 -49.5 -20
t-27.5 -51h-10z" />
    <glyph glyph-name="itilde.smcp" unicode="&#xf632;" horiz-adv-x="175" 
d="M39 0l105 596h10l-105 -596h-10zM-9 678q7 34 31.5 57t56.5 23q6 0 11.5 -0.5t11.5 -2.5t10.5 -3t11.5 -4t10 -4.5t10.5 -6l10 -6t10.5 -6.5t10 -6q57 -37 95 -37q30 0 51.5 18.5t28.5 54.5h10q-7 -39 -32 -60.5t-59 -21.5q-39 0 -99 38t-92 38q-28 0 -49.5 -20
t-27.5 -51h-10z" />
    <glyph glyph-name="imacron.smcp" unicode="&#xe25e;" horiz-adv-x="175" 
d="M33 679l2 9h264l-2 -9h-264zM39 0l105 596h10l-105 -596h-10z" />
    <glyph glyph-name="imacron.smcp" unicode="&#xf64d;" horiz-adv-x="175" 
d="M33 679l2 9h264l-2 -9h-264zM39 0l105 596h10l-105 -596h-10z" />
    <glyph glyph-name="ibreve.smcp" unicode="&#xe25f;" horiz-adv-x="175" 
d="M39 0l105 596h10l-105 -596h-10zM166 669q-72 0 -111.5 44.5t-29.5 98.5h10q-10 -50 26.5 -92t105.5 -42q74 0 118 40.5t53 93.5h10q-10 -58 -56.5 -100.5t-125.5 -42.5z" />
    <glyph glyph-name="ibreve.smcp" unicode="&#xf630;" horiz-adv-x="175" 
d="M39 0l105 596h10l-105 -596h-10zM166 669q-72 0 -111.5 44.5t-29.5 98.5h10q-10 -50 26.5 -92t105.5 -42q74 0 118 40.5t53 93.5h10q-10 -58 -56.5 -100.5t-125.5 -42.5z" />
    <glyph glyph-name="idotaccent.smcp" unicode="&#xe262;" horiz-adv-x="175" 
d="M39 0l105 596h10l-105 -596h-10zM157 678l24 140h10l-24 -140h-10z" />
    <glyph glyph-name="idotaccent.smcp" unicode="&#xf666;" horiz-adv-x="175" 
d="M39 0l105 596h10l-105 -596h-10zM157 678l24 140h10l-24 -140h-10z" />
    <glyph glyph-name="iogonek.smcp" unicode="&#xe264;" horiz-adv-x="175" 
d="M-1 -197q-49 0 -77 27.5t-22 65.5q9 60 140 110l104 590h10l-105 -596q-130 -47 -140 -106q-5 -34 20.5 -58t70.5 -24q71 0 127 48l7 -6q-61 -51 -135 -51z" />
    <glyph glyph-name="iogonek.smcp" unicode="&#xf64e;" horiz-adv-x="175" 
d="M-1 -197q-49 0 -77 27.5t-22 65.5q9 60 140 110l104 590h10l-105 -596q-130 -47 -140 -106q-5 -34 20.5 -58t70.5 -24q71 0 127 48l7 -6q-61 -51 -135 -51z" />
    <glyph glyph-name="jcircumflex.smcp" unicode="&#xe265;" horiz-adv-x="417" 
d="M160 -8q-54 0 -91 23.5t-52 60.5l9 4q14 -35 49 -57t86 -22q61 0 99.5 39.5t49.5 102.5l80 453h9l-80 -453q-12 -69 -52 -110t-107 -41zM279 676l143 138h9l95 -138h-11l-89 130l-134 -130h-13z" />
    <glyph glyph-name="jcircumflex.smcp" unicode="&#xf633;" horiz-adv-x="417" 
d="M160 -8q-54 0 -91 23.5t-52 60.5l9 4q14 -35 49 -57t86 -22q61 0 99.5 39.5t49.5 102.5l80 453h9l-80 -453q-12 -69 -52 -110t-107 -41zM279 676l143 138h9l95 -138h-11l-89 130l-134 -130h-13z" />
    <glyph glyph-name="kcommaaccent.smcp" unicode="&#xe268;" horiz-adv-x="561" 
d="M461 0l-186 346l-202 -186l-28 -160h-10l105 596h10l-75 -422l458 422h13l-264 -244l190 -352h-11zM158 -240l77 184h12l-80 -184h-9z" />
    <glyph glyph-name="kcommaaccent.smcp" unicode="&#xf64f;" horiz-adv-x="561" 
d="M461 0l-186 346l-202 -186l-28 -160h-10l105 596h10l-75 -422l458 422h13l-264 -244l190 -352h-11zM158 -240l77 184h12l-80 -184h-9z" />
    <glyph glyph-name="lacute.smcp" unicode="&#xe26b;" horiz-adv-x="459" 
d="M34 0l105 596h10l-104 -587h322l-2 -9h-331zM155 679l146 137h15l-150 -137h-11z" />
    <glyph glyph-name="lacute.smcp" unicode="&#xf650;" horiz-adv-x="459" 
d="M34 0l105 596h10l-104 -587h322l-2 -9h-331zM155 679l146 137h15l-150 -137h-11z" />
    <glyph glyph-name="lcaron.smcp" unicode="&#xe26c;" horiz-adv-x="459" 
d="M34 0l105 596h10l-104 -587h322l-2 -9h-331zM343 459l110 137h13l-113 -137h-10z" />
    <glyph glyph-name="lcaron.smcp" unicode="&#xf651;" horiz-adv-x="459" 
d="M34 0l105 596h10l-104 -587h322l-2 -9h-331zM343 459l110 137h13l-113 -137h-10z" />
    <glyph glyph-name="lcommaaccent.smcp" unicode="&#xe26d;" horiz-adv-x="459" 
d="M34 0l105 596h10l-104 -587h322l-2 -9h-331zM97 -277l77 184h12l-80 -184h-9z" />
    <glyph glyph-name="lcommaaccent.smcp" unicode="&#xf652;" horiz-adv-x="459" 
d="M34 0l105 596h10l-104 -587h322l-2 -9h-331zM97 -277l77 184h12l-80 -184h-9z" />
    <glyph glyph-name="ldot.smcp" unicode="&#xe271;" horiz-adv-x="478" 
d="M34 0l105 596h10l-104 -587h322l-2 -9h-331zM378 183l24 140h10l-24 -140h-10z" />
    <glyph glyph-name="ldot.smcp" unicode="&#xf634;" horiz-adv-x="478" 
d="M34 0l105 596h10l-104 -587h322l-2 -9h-331zM378 183l24 140h10l-24 -140h-10z" />
    <glyph glyph-name="lslash.smcp" unicode="&#xe272;" horiz-adv-x="467" 
d="M32 290l2 9l62 15l50 282h10l-50 -279l219 55l-2 -9l-218 -55l-53 -299h322l-2 -9h-331l54 306z" />
    <glyph glyph-name="lslash.smcp" unicode="&#xf6f9;" horiz-adv-x="467" 
d="M32 290l2 9l62 15l50 282h10l-50 -279l219 55l-2 -9l-218 -55l-53 -299h322l-2 -9h-331l54 306z" />
    <glyph glyph-name="nacute.smcp" unicode="&#xe276;" horiz-adv-x="604" 
d="M34 0l105 596h9l327 -581l102 581h10l-105 -596h-8l-328 581l-102 -581h-10zM360 662l146 137h15l-150 -137h-11z" />
    <glyph glyph-name="nacute.smcp" unicode="&#xf653;" horiz-adv-x="604" 
d="M34 0l105 596h9l327 -581l102 581h10l-105 -596h-8l-328 581l-102 -581h-10zM360 662l146 137h15l-150 -137h-11z" />
    <glyph glyph-name="ntilde.smcp" unicode="&#xe279;" horiz-adv-x="604" 
d="M34 0l105 596h9l327 -581l102 581h10l-105 -596h-8l-328 581l-102 -581h-10zM198 677q7 34 31.5 57t56.5 23q6 0 11.5 -0.5t11.5 -2.5t10.5 -3t11.5 -4t10 -4.5t10.5 -6l10 -6t10.5 -6.5t10 -6q57 -37 95 -37q30 0 51.5 18.5t28.5 54.5h10q-7 -39 -32 -60.5t-59 -21.5
q-39 0 -99 38t-92 38q-28 0 -49.5 -20t-27.5 -51h-10z" />
    <glyph glyph-name="ncaron.smcp" unicode="&#xe27a;" horiz-adv-x="604" 
d="M34 0l105 596h9l327 -581l102 581h10l-105 -596h-8l-328 581l-102 -581h-10zM366 667l-95 137h11l89 -129l133 129h13l-142 -137h-9z" />
    <glyph glyph-name="ncaron.smcp" unicode="&#xf654;" horiz-adv-x="604" 
d="M34 0l105 596h9l327 -581l102 581h10l-105 -596h-8l-328 581l-102 -581h-10zM366 667l-95 137h11l89 -129l133 129h13l-142 -137h-9z" />
    <glyph glyph-name="ncommaaccent.smcp" unicode="&#xe27d;" horiz-adv-x="604" 
d="M34 0l105 596h9l327 -581l102 581h10l-105 -596h-8l-328 581l-102 -581h-10zM163 -251l77 184h12l-80 -184h-9z" />
    <glyph glyph-name="ncommaaccent.smcp" unicode="&#xf655;" horiz-adv-x="604" 
d="M34 0l105 596h9l327 -581l102 581h10l-105 -596h-8l-328 581l-102 -581h-10zM163 -251l77 184h12l-80 -184h-9z" />
    <glyph glyph-name="oacute.smcp" unicode="&#xe281;" horiz-adv-x="719" 
d="M348 -10q-140 0 -222.5 101.5t-56.5 242.5q21 118 113.5 195t206.5 77q96 0 166.5 -52.5t98 -132.5t11.5 -164q-21 -117 -112 -192t-205 -75zM349 -1q109 0 197.5 73.5t109.5 186.5q15 82 -11 159t-94.5 128t-162.5 51q-110 0 -199.5 -75.5t-110.5 -189.5
q-23 -138 56 -235.5t215 -97.5zM389 679l146 137h15l-150 -137h-11z" />
    <glyph glyph-name="oacute.smcp" unicode="&#xf7f3;" horiz-adv-x="719" 
d="M348 -10q-140 0 -222.5 101.5t-56.5 242.5q21 118 113.5 195t206.5 77q96 0 166.5 -52.5t98 -132.5t11.5 -164q-21 -117 -112 -192t-205 -75zM349 -1q109 0 197.5 73.5t109.5 186.5q15 82 -11 159t-94.5 128t-162.5 51q-110 0 -199.5 -75.5t-110.5 -189.5
q-23 -138 56 -235.5t215 -97.5zM389 679l146 137h15l-150 -137h-11z" />
    <glyph glyph-name="ograve.smcp" unicode="&#xe282;" horiz-adv-x="719" 
d="M348 -10q-140 0 -222.5 101.5t-56.5 242.5q21 118 113.5 195t206.5 77q96 0 166.5 -52.5t98 -132.5t11.5 -164q-21 -117 -112 -192t-205 -75zM349 -1q109 0 197.5 73.5t109.5 186.5q15 82 -11 159t-94.5 128t-162.5 51q-110 0 -199.5 -75.5t-110.5 -189.5
q-23 -138 56 -235.5t215 -97.5zM398 679l-105 137h14l100 -137h-9z" />
    <glyph glyph-name="ograve.smcp" unicode="&#xf7f2;" horiz-adv-x="719" 
d="M348 -10q-140 0 -222.5 101.5t-56.5 242.5q21 118 113.5 195t206.5 77q96 0 166.5 -52.5t98 -132.5t11.5 -164q-21 -117 -112 -192t-205 -75zM349 -1q109 0 197.5 73.5t109.5 186.5q15 82 -11 159t-94.5 128t-162.5 51q-110 0 -199.5 -75.5t-110.5 -189.5
q-23 -138 56 -235.5t215 -97.5zM398 679l-105 137h14l100 -137h-9z" />
    <glyph glyph-name="ocircumflex.smcp" unicode="&#xe283;" horiz-adv-x="719" 
d="M348 -10q-140 0 -222.5 101.5t-56.5 242.5q21 118 113.5 195t206.5 77q96 0 166.5 -52.5t98 -132.5t11.5 -164q-21 -117 -112 -192t-205 -75zM349 -1q109 0 197.5 73.5t109.5 186.5q15 82 -11 159t-94.5 128t-162.5 51q-110 0 -199.5 -75.5t-110.5 -189.5
q-23 -138 56 -235.5t215 -97.5zM286 676l143 138h9l95 -138h-11l-89 130l-134 -130h-13z" />
    <glyph glyph-name="ocircumflex.smcp" unicode="&#xf7f4;" horiz-adv-x="719" 
d="M348 -10q-140 0 -222.5 101.5t-56.5 242.5q21 118 113.5 195t206.5 77q96 0 166.5 -52.5t98 -132.5t11.5 -164q-21 -117 -112 -192t-205 -75zM349 -1q109 0 197.5 73.5t109.5 186.5q15 82 -11 159t-94.5 128t-162.5 51q-110 0 -199.5 -75.5t-110.5 -189.5
q-23 -138 56 -235.5t215 -97.5zM286 676l143 138h9l95 -138h-11l-89 130l-134 -130h-13z" />
    <glyph glyph-name="odieresis.smcp" unicode="&#xe284;" horiz-adv-x="719" 
d="M348 -10q-140 0 -222.5 101.5t-56.5 242.5q21 118 113.5 195t206.5 77q96 0 166.5 -52.5t98 -132.5t11.5 -164q-21 -117 -112 -192t-205 -75zM349 -1q109 0 197.5 73.5t109.5 186.5q15 82 -11 159t-94.5 128t-162.5 51q-110 0 -199.5 -75.5t-110.5 -189.5
q-23 -138 56 -235.5t215 -97.5zM434 678l24 140h9l-24 -140h-9zM356 678l24 140h9l-24 -140h-9z" />
    <glyph glyph-name="odieresis.smcp" unicode="&#xf7f6;" horiz-adv-x="719" 
d="M348 -10q-140 0 -222.5 101.5t-56.5 242.5q21 118 113.5 195t206.5 77q96 0 166.5 -52.5t98 -132.5t11.5 -164q-21 -117 -112 -192t-205 -75zM349 -1q109 0 197.5 73.5t109.5 186.5q15 82 -11 159t-94.5 128t-162.5 51q-110 0 -199.5 -75.5t-110.5 -189.5
q-23 -138 56 -235.5t215 -97.5zM434 678l24 140h9l-24 -140h-9zM356 678l24 140h9l-24 -140h-9z" />
    <glyph glyph-name="otilde.smcp" unicode="&#xe285;" horiz-adv-x="719" 
d="M348 -10q-140 0 -222.5 101.5t-56.5 242.5q21 118 113.5 195t206.5 77q96 0 166.5 -52.5t98 -132.5t11.5 -164q-21 -117 -112 -192t-205 -75zM349 -1q109 0 197.5 73.5t109.5 186.5q15 82 -11 159t-94.5 128t-162.5 51q-110 0 -199.5 -75.5t-110.5 -189.5
q-23 -138 56 -235.5t215 -97.5zM241 679q7 34 31.5 57t56.5 23q6 0 11.5 -0.5t11.5 -2.5t10.5 -3t11.5 -4t10 -4.5t10.5 -6l10 -6t10.5 -6.5t10 -6q57 -37 95 -37q30 0 51.5 18.5t28.5 54.5h10q-7 -39 -32 -60.5t-59 -21.5q-39 0 -99 38t-92 38q-28 0 -49.5 -20t-27.5 -51
h-10z" />
    <glyph glyph-name="otilde.smcp" unicode="&#xf7f5;" horiz-adv-x="719" 
d="M348 -10q-140 0 -222.5 101.5t-56.5 242.5q21 118 113.5 195t206.5 77q96 0 166.5 -52.5t98 -132.5t11.5 -164q-21 -117 -112 -192t-205 -75zM349 -1q109 0 197.5 73.5t109.5 186.5q15 82 -11 159t-94.5 128t-162.5 51q-110 0 -199.5 -75.5t-110.5 -189.5
q-23 -138 56 -235.5t215 -97.5zM241 679q7 34 31.5 57t56.5 23q6 0 11.5 -0.5t11.5 -2.5t10.5 -3t11.5 -4t10 -4.5t10.5 -6l10 -6t10.5 -6.5t10 -6q57 -37 95 -37q30 0 51.5 18.5t28.5 54.5h10q-7 -39 -32 -60.5t-59 -21.5q-39 0 -99 38t-92 38q-28 0 -49.5 -20t-27.5 -51
h-10z" />
    <glyph glyph-name="omacron.smcp" unicode="&#xe287;" horiz-adv-x="719" 
d="M348 -10q-140 0 -222.5 101.5t-56.5 242.5q21 118 113.5 195t206.5 77q96 0 166.5 -52.5t98 -132.5t11.5 -164q-21 -117 -112 -192t-205 -75zM349 -1q109 0 197.5 73.5t109.5 186.5q15 82 -11 159t-94.5 128t-162.5 51q-110 0 -199.5 -75.5t-110.5 -189.5
q-23 -138 56 -235.5t215 -97.5zM271 680l2 9h264l-2 -9h-264z" />
    <glyph glyph-name="omacron.smcp" unicode="&#xf657;" horiz-adv-x="719" 
d="M348 -10q-140 0 -222.5 101.5t-56.5 242.5q21 118 113.5 195t206.5 77q96 0 166.5 -52.5t98 -132.5t11.5 -164q-21 -117 -112 -192t-205 -75zM349 -1q109 0 197.5 73.5t109.5 186.5q15 82 -11 159t-94.5 128t-162.5 51q-110 0 -199.5 -75.5t-110.5 -189.5
q-23 -138 56 -235.5t215 -97.5zM271 680l2 9h264l-2 -9h-264z" />
    <glyph glyph-name="obreve.smcp" unicode="&#xe288;" horiz-adv-x="719" 
d="M348 -10q-140 0 -222.5 101.5t-56.5 242.5q21 118 113.5 195t206.5 77q96 0 166.5 -52.5t98 -132.5t11.5 -164q-21 -117 -112 -192t-205 -75zM349 -1q109 0 197.5 73.5t109.5 186.5q15 82 -11 159t-94.5 128t-162.5 51q-110 0 -199.5 -75.5t-110.5 -189.5
q-23 -138 56 -235.5t215 -97.5zM392 669q-72 0 -111.5 44.5t-29.5 98.5h10q-10 -50 26.5 -92t105.5 -42q74 0 118 40.5t53 93.5h10q-10 -58 -56.5 -100.5t-125.5 -42.5z" />
    <glyph glyph-name="obreve.smcp" unicode="&#xf635;" horiz-adv-x="719" 
d="M348 -10q-140 0 -222.5 101.5t-56.5 242.5q21 118 113.5 195t206.5 77q96 0 166.5 -52.5t98 -132.5t11.5 -164q-21 -117 -112 -192t-205 -75zM349 -1q109 0 197.5 73.5t109.5 186.5q15 82 -11 159t-94.5 128t-162.5 51q-110 0 -199.5 -75.5t-110.5 -189.5
q-23 -138 56 -235.5t215 -97.5zM392 669q-72 0 -111.5 44.5t-29.5 98.5h10q-10 -50 26.5 -92t105.5 -42q74 0 118 40.5t53 93.5h10q-10 -58 -56.5 -100.5t-125.5 -42.5z" />
    <glyph glyph-name="ohungarumlaut.smcp" unicode="&#xe28a;" horiz-adv-x="719" 
d="M348 -10q-140 0 -222.5 101.5t-56.5 242.5q21 118 113.5 195t206.5 77q96 0 166.5 -52.5t98 -132.5t11.5 -164q-21 -117 -112 -192t-205 -75zM349 -1q109 0 197.5 73.5t109.5 186.5q15 82 -11 159t-94.5 128t-162.5 51q-110 0 -199.5 -75.5t-110.5 -189.5
q-23 -138 56 -235.5t215 -97.5zM354 679l145 137h15l-148 -137h-12zM438 679l149 137h15l-153 -137h-11z" />
    <glyph glyph-name="ohungarumlaut.smcp" unicode="&#xf656;" horiz-adv-x="719" 
d="M348 -10q-140 0 -222.5 101.5t-56.5 242.5q21 118 113.5 195t206.5 77q96 0 166.5 -52.5t98 -132.5t11.5 -164q-21 -117 -112 -192t-205 -75zM349 -1q109 0 197.5 73.5t109.5 186.5q15 82 -11 159t-94.5 128t-162.5 51q-110 0 -199.5 -75.5t-110.5 -189.5
q-23 -138 56 -235.5t215 -97.5zM354 679l145 137h15l-148 -137h-12zM438 679l149 137h15l-153 -137h-11z" />
    <glyph glyph-name="oslash.smcp" unicode="&#xe295;" horiz-adv-x="719" 
d="M348 -10q-105 0 -181 60l-44 -50h-12l49 56q-57 48 -81.5 121t-9.5 157q21 118 113.5 195t206.5 77q115 0 193 -76l59 66h12l-64 -72q49 -52 69.5 -123t6.5 -144q-21 -117 -112 -192t-205 -75zM78 332q-14 -81 10 -152t78 -117l410 461q-76 73 -188 73
q-110 0 -199.5 -75.5t-110.5 -189.5zM349 -1q109 0 197.5 73.5t109.5 186.5q13 71 -6 140t-67 118l-409 -460q72 -58 175 -58z" />
    <glyph glyph-name="oslash.smcp" unicode="&#xf7f8;" horiz-adv-x="719" 
d="M348 -10q-105 0 -181 60l-44 -50h-12l49 56q-57 48 -81.5 121t-9.5 157q21 118 113.5 195t206.5 77q115 0 193 -76l59 66h12l-64 -72q49 -52 69.5 -123t6.5 -144q-21 -117 -112 -192t-205 -75zM78 332q-14 -81 10 -152t78 -117l410 461q-76 73 -188 73
q-110 0 -199.5 -75.5t-110.5 -189.5zM349 -1q109 0 197.5 73.5t109.5 186.5q13 71 -6 140t-67 118l-409 -460q72 -58 175 -58z" />
    <glyph glyph-name="oslashacute.smcp" unicode="&#xe296;" horiz-adv-x="737" 
d="M357 -10q-105 0 -181 60l-44 -50h-12l49 56q-57 48 -81.5 121t-9.5 157q21 118 113.5 195t206.5 77q115 0 193 -76l59 66h12l-64 -72q49 -52 69.5 -123t6.5 -144q-21 -117 -112 -192t-205 -75zM87 332q-14 -81 10 -152t78 -117l410 461q-76 73 -188 73
q-110 0 -199.5 -75.5t-110.5 -189.5zM358 -1q109 0 197.5 73.5t109.5 186.5q13 71 -6 140t-67 118l-409 -460q72 -58 175 -58zM406 679l146 137h15l-150 -137h-11z" />
    <glyph glyph-name="oslashacute.smcp" unicode="&#xf627;" horiz-adv-x="737" 
d="M357 -10q-105 0 -181 60l-44 -50h-12l49 56q-57 48 -81.5 121t-9.5 157q21 118 113.5 195t206.5 77q115 0 193 -76l59 66h12l-64 -72q49 -52 69.5 -123t6.5 -144q-21 -117 -112 -192t-205 -75zM87 332q-14 -81 10 -152t78 -117l410 461q-76 73 -188 73
q-110 0 -199.5 -75.5t-110.5 -189.5zM358 -1q109 0 197.5 73.5t109.5 186.5q13 71 -6 140t-67 118l-409 -460q72 -58 175 -58zM406 679l146 137h15l-150 -137h-11z" />
    <glyph glyph-name="oe.smcp" unicode="&#xe298;" horiz-adv-x="1086" 
d="M611 0l34 193q-38 -91 -119.5 -147t-177.5 -56q-140 0 -222.5 101.5t-56.5 242.5q21 118 113.5 195t206.5 77q123 0 199.5 -78t82.5 -189l45 257h371l-2 -8h-361l-50 -279h363l-2 -9h-362l-51 -291h362l-2 -9h-371zM349 -1q105 0 192.5 70t112.5 177l7 36
q9 79 -19.5 150.5t-95.5 118t-158 46.5q-110 0 -199.5 -75.5t-110.5 -189.5q-23 -138 56 -235.5t215 -97.5z" />
    <glyph glyph-name="oe.smcp" unicode="&#xf6fa;" horiz-adv-x="1086" 
d="M611 0l34 193q-38 -91 -119.5 -147t-177.5 -56q-140 0 -222.5 101.5t-56.5 242.5q21 118 113.5 195t206.5 77q123 0 199.5 -78t82.5 -189l45 257h371l-2 -8h-361l-50 -279h363l-2 -9h-362l-51 -291h362l-2 -9h-371zM349 -1q105 0 192.5 70t112.5 177l7 36
q9 79 -19.5 150.5t-95.5 118t-158 46.5q-110 0 -199.5 -75.5t-110.5 -189.5q-23 -138 56 -235.5t215 -97.5z" />
    <glyph glyph-name="racute.smcp" unicode="&#xe29a;" horiz-adv-x="512" 
d="M34 0l105 596h164q80 0 132 -57.5t38 -139.5q-12 -70 -63 -115.5t-123 -45.5h-47q3 -84 49.5 -156.5t120.5 -72.5h9l-2 -9h-8q-79 0 -128.5 78t-49.5 169h56q69 0 117 43.5t59 109.5q13 77 -35 132t-126 56h-155l-103 -588h-10zM295 679l146 137h15l-150 -137h-11z" />
    <glyph glyph-name="racute.smcp" unicode="&#xf658;" horiz-adv-x="512" 
d="M34 0l105 596h164q80 0 132 -57.5t38 -139.5q-12 -70 -63 -115.5t-123 -45.5h-47q3 -84 49.5 -156.5t120.5 -72.5h9l-2 -9h-8q-79 0 -128.5 78t-49.5 169h56q69 0 117 43.5t59 109.5q13 77 -35 132t-126 56h-155l-103 -588h-10zM295 679l146 137h15l-150 -137h-11z" />
    <glyph glyph-name="rcaron.smcp" unicode="&#xe29b;" horiz-adv-x="512" 
d="M34 0l105 596h164q80 0 132 -57.5t38 -139.5q-12 -70 -63 -115.5t-123 -45.5h-47q3 -84 49.5 -156.5t120.5 -72.5h9l-2 -9h-8q-79 0 -128.5 78t-49.5 169h56q69 0 117 43.5t59 109.5q13 77 -35 132t-126 56h-155l-103 -588h-10zM314 679l-95 137h11l89 -129l133 129h13
l-142 -137h-9z" />
    <glyph glyph-name="rcaron.smcp" unicode="&#xf659;" horiz-adv-x="512" 
d="M34 0l105 596h164q80 0 132 -57.5t38 -139.5q-12 -70 -63 -115.5t-123 -45.5h-47q3 -84 49.5 -156.5t120.5 -72.5h9l-2 -9h-8q-79 0 -128.5 78t-49.5 169h56q69 0 117 43.5t59 109.5q13 77 -35 132t-126 56h-155l-103 -588h-10zM314 679l-95 137h11l89 -129l133 129h13
l-142 -137h-9z" />
    <glyph glyph-name="rcommaaccent.smcp" unicode="&#xe29e;" horiz-adv-x="512" 
d="M34 0l105 596h164q80 0 132 -57.5t38 -139.5q-12 -70 -63 -115.5t-123 -45.5h-47q3 -84 49.5 -156.5t120.5 -72.5h9l-2 -9h-8q-79 0 -128.5 78t-49.5 169h56q69 0 117 43.5t59 109.5q13 77 -35 132t-126 56h-155l-103 -588h-10zM109 -263l77 184h12l-80 -184h-9z" />
    <glyph glyph-name="rcommaaccent.smcp" unicode="&#xf65a;" horiz-adv-x="512" 
d="M34 0l105 596h164q80 0 132 -57.5t38 -139.5q-12 -70 -63 -115.5t-123 -45.5h-47q3 -84 49.5 -156.5t120.5 -72.5h9l-2 -9h-8q-79 0 -128.5 78t-49.5 169h56q69 0 117 43.5t59 109.5q13 77 -35 132t-126 56h-155l-103 -588h-10zM109 -263l77 184h12l-80 -184h-9z" />
    <glyph glyph-name="A.swsh" unicode="&#xe2e0;" horiz-adv-x="1144" 
d="M1046 0l-56 249h-375l-147 -260q-37 -64 -96.5 -111.5t-136.5 -47.5q-94 0 -151 56.5t-57 141.5q0 95 67 162.5t169 67.5h346l267 463h-404q-71 0 -125 -45.5t-54 -117.5q0 -57 39 -97t101 -40q79 0 119 51l7 -6q-43 -54 -126 -54q-66 0 -108 43t-42 102q0 77 57 125
t134 48h418l164 -730h-10zM235 -162q73 0 130 46t93 109l146 256h-342q-96 0 -161 -64t-65 -157q0 -81 54.5 -135.5t144.5 -54.5zM886 720l-266 -462h368z" />
    <glyph glyph-name="B.swsh" unicode="&#xe2e1;" horiz-adv-x="948" 
d="M50 -117l-11 3q48 123 193 123h115l117 669h10l-52 -293h271q56 0 108 41t63 100q7 44 -6.5 84t-50 73.5t-107 53.5t-167.5 20q-101 0 -180.5 -19t-127.5 -52t-75 -71.5t-35 -82.5q-14 -78 17 -136.5t96 -85.5l-5 -8q-67 28 -99.5 89.5t-18.5 141.5q17 98 122.5 165.5
t305.5 67.5q99 0 171.5 -21t110 -56.5t52 -77t6.5 -86.5q-9 -52 -50.5 -92t-93.5 -52q67 -12 109 -72t30 -133q-14 -81 -71.5 -128.5t-164.5 -47.5h-400q-138 0 -182 -117zM703 376h-282l-65 -367h276q103 0 158 45.5t68 122.5q13 79 -36 139t-119 60z" />
    <glyph glyph-name="C.swsh" unicode="&#xe2e2;" horiz-adv-x="866" 
d="M452 -123q-88 0 -162.5 32t-127 92t-74 154t-2.5 209q16 95 63.5 172.5t113 126t142.5 75t156 26.5q141 0 217 -73t57 -179q-11 -63 -61 -108.5t-121 -45.5q-96 0 -145 72l8 7q50 -70 137 -70q66 0 114 43t59 104q18 102 -55.5 171.5t-209.5 69.5q-77 0 -152 -25.5
t-139.5 -73.5t-111 -124.5t-62.5 -169.5q-19 -112 2 -204.5t72.5 -150.5t124.5 -89.5t158 -31.5q189 0 299 146l9 -7q-116 -148 -309 -148z" />
    <glyph glyph-name="D.swsh" unicode="&#xe2e3;" horiz-adv-x="1011" 
d="M72 -117l-10 3q24 63 69 93t120 30h124l119 680h10l-120 -680h176q147 0 256 86t136 238q8 62 0.5 122t-42 115t-85 96.5t-129 66t-173.5 24.5q-189 0 -290.5 -65.5t-117.5 -159.5q-13 -77 17.5 -135t95.5 -86l-6 -8q-67 29 -98.5 89.5t-17.5 140.5q16 98 120.5 165.5
t297.5 67.5q81 0 151 -18t119 -49t87.5 -72.5t57 -90t26.5 -101t-3 -104.5q-27 -156 -139.5 -243.5t-263.5 -87.5h-309q-135 0 -178 -117z" />
    <glyph glyph-name="E.swsh" unicode="&#xe2e4;" horiz-adv-x="705" 
d="M264 -155q-114 0 -178 73.5t-48 174.5q15 92 99 142.5t196 58.5q-103 16 -166.5 90.5t-44.5 180.5q21 119 117 185t222 66q121 0 188 -62.5t51 -147.5q-10 -55 -50 -91t-98 -36q-78 0 -128 49l7 7q46 -48 121 -48q56 0 93 34.5t46 85.5q15 81 -49 140.5t-180 59.5
q-125 0 -217.5 -63.5t-112.5 -178.5q-14 -78 20 -140.5t97 -94.5t140 -32h2l-1 -9h-2q-82 0 -152 -19t-123.5 -65t-64.5 -114q-15 -97 46 -167t170 -70q177 0 276 149l9 -7q-103 -151 -285 -151z" />
    <glyph glyph-name="F.swsh" unicode="&#xe2e5;" horiz-adv-x="929" 
d="M243 -138q-77 0 -121 52.5t-31 125.5q6 32 24 59l8 -4q-19 -29 -23 -58q-12 -68 29.5 -117t113.5 -49q135 0 159 140l124 710h-159q-93 0 -165.5 -56t-86.5 -141q-18 -107 39 -181l-8 -7q-60 74 -41 189q14 89 89.5 147t173.5 58h509q112 0 131 111l11 58h10l-11 -60
q-11 -56 -43.5 -87t-97.5 -31h-341l-61 -350h401l-2 -9h-401l-61 -351q-27 -149 -169 -149z" />
    <glyph glyph-name="G.swsh" unicode="&#xe2e6;" horiz-adv-x="893" 
d="M501 -285q-131 0 -192 92l9 4q59 -87 184 -87q97 0 162.5 58t82.5 152l55 313l6 26q-35 -122 -128.5 -202.5t-234.5 -80.5q-118 0 -206 58.5t-125.5 155t-18.5 206.5q25 144 137.5 237t253.5 93q102 0 181.5 -45.5t128.5 -128.5l-9 -4q-100 169 -301 169
q-138 0 -247.5 -91.5t-134.5 -232.5q-18 -104 17.5 -197t121 -152t202.5 -59q152 0 251.5 99.5t125.5 258.5h-371l2 9h379l-76 -433q-18 -98 -85.5 -158t-169.5 -60z" />
    <glyph glyph-name="H.swsh" unicode="&#xe2e7;" horiz-adv-x="1076" 
d="M262 -173q-96 0 -152 66t-40 156q12 66 67 117l7 -7q-54 -47 -64 -113q-15 -85 38 -147.5t144 -62.5q86 0 136 48.5t64 130.5l124 706h-288q-67 0 -117.5 -38.5t-61.5 -101.5q-10 -63 30.5 -112t108.5 -49q79 0 118 52l8 -5q-44 -56 -127 -56q-73 0 -116 52.5t-31 118.5
q11 67 64.5 107.5t124.5 40.5h298l-63 -361h470l64 363q32 176 176 176q66 0 109 -41l-6 -8q-38 40 -105 40q-135 0 -164 -169l-129 -730h-10l63 360h-470l-60 -346q-15 -86 -67 -136.5t-143 -50.5z" />
    <glyph glyph-name="I.swsh" unicode="&#xe2e8;" horiz-adv-x="868" 
d="M156 336q-61 78 -41 190q16 89 90.5 146.5t173.5 57.5h405q62 0 91 28.5t39 82.5l11 58h10l-11 -60q-11 -57 -42.5 -87t-97.5 -30h-220l-125 -714h325l-2 -8h-577q-63 0 -97.5 -31.5t-43.5 -83.5l-10 -58h-10l11 61q10 54 47 87t103 33h244l125 714h-176q-94 0 -166 -56
t-87 -141q-19 -106 38 -182z" />
    <glyph glyph-name="J.swsh" unicode="&#xe2e9;" horiz-adv-x="597" 
d="M263 -172q-96 0 -152 67t-40 157q12 67 65 117l7 -7q-51 -46 -63 -113q-14 -84 39.5 -148t144.5 -64q86 0 135 49t63 132l124 703h-288q-67 0 -118 -38t-61 -102q-10 -63 30.5 -112t108.5 -49q79 0 118 52l8 -5q-42 -56 -127 -56q-73 0 -116 52.5t-31 118.5q11 68 64 108
t125 40h298l-125 -713q-14 -87 -65.5 -138t-143.5 -51z" />
    </font>
</defs>
</svg>
