<?xml version="1.0" standalone="no"?>
<!DOCTYPE svg PUBLIC "-//W3C//DTD SVG 1.1//EN" "http://www.w3.org/Graphics/SVG/1.1/DTD/svg11.dtd" >
<svg>
<metadata>
Created by FontForge 20120731 at Wed Apr 13 13:08:31 2016
 By ,,,
Copyright (c) 2013 by Lucas Sharp. All rights reserved.
</metadata>
<defs>
<font id="SharpSansNo1-MediumItalic" horiz-adv-x="588" >
  <font-face 
    font-family="Sharp Sans No1 Medium Italic"
    font-weight="600"
    font-style="italic"
    font-stretch="normal"
    units-per-em="1000"
    panose-1="2 0 0 0 0 0 0 0 0 0"
    ascent="750"
    descent="-250"
    x-height="500"
    cap-height="730"
    bbox="-121 -437 1737 1089"
    underline-thickness="50"
    underline-position="-50"
    unicode-range="U+0020-F60B"
  />
<missing-glyph horiz-adv-x="900" 
d="M85 0v730h730v-730h-730zM450 331l-283 -283h566zM167 682l283 -283l283 283h-566zM484 365l283 -283v566zM416 365l-283 283v-566z" />
    <glyph glyph-name="interrobang" unicode="&#x21;&#x3f;" horiz-adv-x="547" 
d="M200 190l1 8q30 233 61 415l9 57q-70 -11 -119 -60l-50 54q33 32 89.5 54t113.5 22q98 0 156.5 -58.5t42.5 -143.5q-8 -46 -32.5 -78.5t-55 -53.5t-61 -43.5t-57 -63.5t-36.5 -100l-2 -9h-60zM426 544q7 45 -14.5 77t-63.5 44l-8 -52q-18 -101 -49 -231q20 25 53.5 51
t54 49.5t27.5 61.5zM162 0l24 137h78l-24 -137h-78z" />
    <glyph glyph-name="interrobangdown" unicode="&#xa1;&#xbf;" horiz-adv-x="547" 
d="M221 -240q-98 0 -156.5 58.5t-42.5 143.5q8 46 32.5 78.5t55 53.5t61 43.5t57 63.5t36.5 100l2 9h60l-1 -8q-30 -233 -61 -415l-10 -57q70 10 120 60l50 -54q-33 -32 -89.5 -54t-113.5 -22zM100 -44q-7 -45 14 -77t63 -44l9 52q15 92 48 230q-20 -25 -53 -50.5
t-53.5 -49.5t-27.5 -61zM262 363l24 137h78l-24 -137h-78z" />
    <glyph glyph-name=".notdef" horiz-adv-x="900" 
d="M85 0v730h730v-730h-730zM450 331l-283 -283h566zM167 682l283 -283l283 283h-566zM484 365l283 -283v566zM416 365l-283 283v-566z" />
    <glyph glyph-name=".null" horiz-adv-x="0" 
 />
    <glyph glyph-name="nonmarkingreturn" horiz-adv-x="333" 
 />
    <glyph glyph-name="space" unicode=" " horiz-adv-x="250" 
 />
    <glyph glyph-name="exclam" unicode="!" horiz-adv-x="231" 
d="M80 198q15 183 57 415l20 117h78l-20 -117q-43 -239 -91 -415h-44zM29 0l24 137h78l-24 -137h-78z" />
    <glyph glyph-name="quotedbl" unicode="&#x22;" horiz-adv-x="293" 
d="M116 500q-2 20 0 71.5t6 74.5l15 84h62l-15 -84q-9 -58 -44 -146h-24zM233 500q-2 20 0 71.5t6 74.5l15 84h62l-15 -84q-9 -58 -44 -146h-24z" />
    <glyph glyph-name="numbersign" unicode="#" horiz-adv-x="824" 
d="M475 0l33 188h-205l-33 -188h-79l33 188h-194l14 75h193l37 210h-194l14 75h193l32 182h79l-32 -182h205l32 182h79l-32 -182h186l-14 -75h-185l-37 -210h186l-14 -75h-185l-33 -188h-79zM353 473l-37 -210h205l37 210h-205z" />
    <glyph glyph-name="dollar" unicode="$" 
d="M200 -94l15 89q-69 11 -120 49.5t-77 90.5l74 42q40 -88 136 -108l51 289q-44 21 -70 36.5t-55 41.5t-39.5 61t-2.5 79q12 75 74.5 119t159.5 45l15 82h68l-16 -87q113 -21 176 -108l-66 -47q-47 69 -122 84l-46 -258q43 -21 70 -38t56 -44.5t39 -65.5t2 -86
q-15 -81 -76 -130t-164 -52l-14 -84h-68zM443 179q9 51 -18 85t-84 63l-46 -262q65 4 102 34.5t46 79.5zM190 567q-8 -45 19 -74.5t84 -57.5l41 235q-60 -2 -98 -29.5t-46 -73.5z" />
    <glyph glyph-name="percent" unicode="%" horiz-adv-x="847" 
d="M19 0l755 730h99l-755 -730h-99zM269 401q-77 0 -121.5 56t-31.5 132q11 64 62.5 107.5t117.5 43.5q76 0 121.5 -56t31.5 -131q-11 -65 -61.5 -108.5t-118.5 -43.5zM275 466q40 0 71 26.5t38 66.5q8 46 -19 81t-75 35q-40 0 -71 -26.5t-38 -66.5q-8 -46 19 -81t75 -35z
M593 -11q-76 0 -121 56t-31 132q11 64 62.5 108t117.5 44q75 0 120.5 -56t32.5 -131q-11 -66 -62.5 -109.5t-118.5 -43.5zM599 55q40 0 71.5 26.5t38.5 66.5q8 45 -19.5 80.5t-74.5 35.5q-40 0 -71 -27t-38 -66q-8 -46 19 -81t74 -35z" />
    <glyph glyph-name="ampersand" unicode="&#x26;" horiz-adv-x="748" 
d="M567 0l-52 64q-106 -75 -230 -75q-94 0 -156 39t-83.5 94.5t-12.5 117.5q22 133 179 202q-46 73 -34 141q9 68 64 112.5t137 44.5q56 0 98 -24.5t61 -65.5l-71 -35q-10 26 -34.5 41t-57.5 15q-47 0 -80 -24.5t-39 -64.5q-7 -42 14 -81.5t81 -115.5l177 -221
q83 86 114 197h-158l13 73h235l-6 -37q-13 -75 -52.5 -150t-99.5 -134l92 -113h-99zM293 58q96 0 176 56l-181 226q-26 32 -37 47q-63 -27 -97.5 -61.5t-42.5 -90.5q-11 -68 38 -122.5t144 -54.5z" />
    <glyph glyph-name="quotesingle" unicode="'" horiz-adv-x="176" 
d="M140 500h-24q-2 20 0 71.5t6 74.5l15 84h62l-15 -84q-9 -58 -44 -146z" />
    <glyph glyph-name="parenleft" unicode="(" horiz-adv-x="407" 
d="M297 -189l-56 -57q-104 89 -156.5 226.5t-23.5 304.5q28 166 130 284.5t238 176.5l37 -63q-134 -61 -216.5 -159t-111.5 -249q-46 -288 159 -464z" />
    <glyph glyph-name="parenright" unicode=")" horiz-adv-x="407" 
d="M100 685l56 57q104 -89 156.5 -224.5t23.5 -302.5q-29 -169 -128 -292t-231 -180l-38 65q263 120 320 417q46 284 -159 460z" />
    <glyph glyph-name="asterisk" unicode="*" horiz-adv-x="427" 
d="M376 436l-101 88l-9 -148h-70l43 147l-134 -88l-24 61l146 58l-125 60l45 59l103 -89l8 146h70l-43 -145l133 87l25 -60l-147 -58l125 -58z" />
    <glyph glyph-name="plus" unicode="+" horiz-adv-x="464" 
d="M56 332l12 66h152l27 151h66l-27 -151h152l-12 -66h-151l-27 -153h-66l27 153h-153z" />
    <glyph glyph-name="comma" unicode="," horiz-adv-x="192" 
d="M-32 -117l77 204h71l-99 -204h-49z" />
    <glyph glyph-name="hyphen" unicode="-" horiz-adv-x="464" 
d="M43 222l12 66h370l-12 -66h-370z" />
    <glyph glyph-name="period" unicode="." horiz-adv-x="192" 
d="M8 0l25 137h77l-24 -137h-78z" />
    <glyph glyph-name="slash" unicode="/" horiz-adv-x="473" 
d="M-27 0l473 730h85l-472 -730h-86z" />
    <glyph glyph-name="zero" unicode="0" 
d="M273 -10q-120 0 -175.5 75t-35.5 188l49 275q17 93 81.5 152.5t169.5 59.5q115 0 170.5 -75.5t35.5 -187.5l-49 -275q-17 -96 -80 -154t-166 -58zM277 59q66 0 109.5 41t55.5 109l48 276q14 81 -19 133.5t-113 52.5q-68 0 -113 -42t-57 -108l-48 -276q-14 -79 21 -132.5
t116 -53.5z" />
    <glyph glyph-name="one" unicode="1" 
d="M10 0l12 74h200l92 523q-18 -29 -54 -48.5t-77 -19.5h-11l15 81h5q66 0 104 37t46 83h75l-115 -656h201l-12 -74h-481z" />
    <glyph glyph-name="two" unicode="2" 
d="M18 0l13 77q7 41 30 77t63.5 70.5t72 56t86.5 55.5q118 74 155 107q53 48 62 97q10 57 -28.5 94.5t-105.5 37.5q-51 0 -96 -22.5t-72 -60.5l-65 32q38 55 100 87t137 32q101 0 161.5 -59t44.5 -151q-7 -39 -29 -74t-60.5 -67.5t-70.5 -54.5t-85 -54q-44 -27 -62.5 -38.5
t-52.5 -36t-50 -41.5t-32 -41t-20 -48h381l-13 -75h-464z" />
    <glyph glyph-name="three" unicode="3" 
d="M252 -10q-83 0 -149.5 33.5t-93.5 86.5l69 40q53 -90 179 -90q71 0 121.5 35t61.5 98q11 65 -31.5 107.5t-118.5 42.5h-68l12 72h64q71 0 125 34.5t64 90.5q10 60 -32 97.5t-113 37.5q-104 0 -171 -84l-57 40q34 47 95.5 78t134.5 31q111 0 172.5 -59.5t44.5 -150.5
q-10 -52 -47 -92.5t-96 -62.5q57 -27 83.5 -78t15.5 -118q-15 -88 -87.5 -138.5t-177.5 -50.5z" />
    <glyph glyph-name="four" unicode="4" 
d="M335 0l29 168h-323l10 72l411 490h78l-86 -491h106l-13 -71h-106l-29 -168h-77zM139 239h238l62 358z" />
    <glyph glyph-name="five" unicode="5" 
d="M240 -10q-153 0 -213 111l75 38q42 -78 143 -78q67 0 121 39.5t72 105.5q22 85 -17.5 144.5t-121.5 59.5q-76 0 -131 -43l-67 33l100 330h387l-13 -74h-322l-62 -206q54 31 128 31q109 -1 167 -83t29 -194q-24 -98 -96.5 -156t-178.5 -58z" />
    <glyph glyph-name="six" unicode="6" 
d="M273 -10q-113 0 -176.5 78.5t-44.5 184.5q5 34 23.5 75.5t41.5 68.5l279 333h94l-233 -273q32 8 63 8q105 0 165.5 -78t42.5 -185q-17 -91 -85.5 -151t-169.5 -61zM277 59q65 0 115 43t62 107q13 74 -29.5 132.5t-121.5 58.5q-66 0 -116 -44.5t-61 -110.5
q-13 -74 30 -130t121 -56z" />
    <glyph glyph-name="seven" unicode="7" 
d="M89 0l422 656h-386l13 74h472l-12 -68l-420 -662h-89z" />
    <glyph glyph-name="eight" unicode="8" 
d="M266 -10q-109 0 -171.5 64.5t-45.5 168.5q10 56 49.5 102.5t99.5 71.5q-85 64 -65 171q14 76 77 124t155 48q94 0 153.5 -62t44.5 -148q-10 -56 -44.5 -95t-83.5 -59q47 -32 72 -81t16 -104q-15 -90 -82 -145.5t-175 -55.5zM269 62q75 0 121.5 37.5t56.5 97.5
q12 65 -29.5 109.5t-121.5 44.5q-67 0 -114.5 -37t-57.5 -100q-11 -64 29.5 -108t115.5 -44zM332 420q61 0 104.5 31.5t52.5 84.5q10 59 -27 97t-106 38q-60 0 -101.5 -32t-49.5 -81q-10 -62 25 -100t102 -38z" />
    <glyph glyph-name="nine" unicode="9" 
d="M139 0l232 272q-27 -7 -62 -7q-105 0 -165.5 78t-42.5 185q17 91 85.5 151t169.5 61q113 0 176.5 -78.5t44.5 -184.5q-5 -34 -23.5 -75.5t-41.5 -68.5l-279 -333h-94zM326 330q66 0 116 44.5t61 110.5q13 74 -30 130t-121 56q-65 0 -115 -43t-62 -107
q-13 -74 29.5 -132.5t121.5 -58.5z" />
    <glyph glyph-name="colon" unicode=":" horiz-adv-x="192" 
d="M8 0l25 137h77l-24 -137h-78zM73 363l24 137h77l-24 -137h-77z" />
    <glyph glyph-name="semicolon" unicode=";" horiz-adv-x="192" 
d="M73 363l24 137h77l-24 -137h-77zM-32 -117l77 204h71l-99 -204h-49z" />
    <glyph glyph-name="less" unicode="&#x3c;" horiz-adv-x="464" 
d="M401 190l-344 143l12 66l394 140l-13 -71l-306 -104l270 -106z" />
    <glyph glyph-name="equal" unicode="=" horiz-adv-x="464" 
d="M71 411l12 67h370l-12 -67h-370zM42 249l12 66h370l-12 -66h-370z" />
    <glyph glyph-name="greater" unicode="&#x3e;" horiz-adv-x="464" 
d="M32 190l13 72l306 103l-269 106l12 67l344 -142l-12 -66z" />
    <glyph glyph-name="question" unicode="?" horiz-adv-x="511" 
d="M173 190l1 9q12 70 40.5 119.5t61 75t64 45.5t56 45t30.5 60q10 57 -27 92.5t-101 35.5q-40 0 -80.5 -18t-65.5 -44l-50 54q33 32 89.5 54t113.5 22q98 0 156.5 -58.5t42.5 -143.5q-6 -34 -21.5 -60.5t-36 -43.5t-44.5 -32.5t-48.5 -33t-45.5 -38.5t-38 -54.5t-25 -76.5
l-2 -9h-70zM138 0l24 137h78l-24 -137h-78z" />
    <glyph glyph-name="at" unicode="@" horiz-adv-x="836" 
d="M389 -133q-114 0 -197.5 56.5t-119 152t-16.5 207.5q26 144 140 239t265 95q157 0 256 -109t72 -255q-13 -82 -56.5 -135t-117.5 -53q-81 0 -106 65q-50 -64 -132 -64q-74 0 -113 53.5t-26 128.5q13 73 68 126t129 53q76 0 108 -60l11 54h71l-44 -181q-14 -59 -3 -81
t47 -22q34 0 60.5 37.5t34.5 87.5q21 116 -52 201.5t-205 85.5q-122 0 -219 -78.5t-117 -195.5q-16 -88 10.5 -165t94.5 -126t163 -49q122 0 212 92l55 -49q-108 -111 -273 -111zM390 135q46 0 78.5 32t42.5 79q13 48 -7.5 81t-63.5 33q-48 0 -84.5 -35.5t-45.5 -83.5
q-7 -44 15.5 -75t64.5 -31z" />
    <glyph glyph-name="A" unicode="A" horiz-adv-x="687" 
d="M-14 0l408 730h78l142 -730h-80l-35 185h-327l-102 -185h-84zM416 625l-203 -366h272z" />
    <glyph glyph-name="B" unicode="B" horiz-adv-x="640" 
d="M28 0l128 730h259q103 0 155.5 -64t38.5 -146q-20 -110 -119 -154q50 -27 74.5 -74t13.5 -108q-15 -83 -83 -133.5t-168 -50.5h-299zM367 338h-201l-46 -265h213q67 0 111 34t54 90q11 60 -26.5 100.5t-104.5 40.5zM405 659h-182l-44 -251h205q59 0 99 33.5t49 82.5
q10 55 -24.5 95t-102.5 40z" />
    <glyph glyph-name="C" unicode="C" horiz-adv-x="792" 
d="M412 -10q-113 0 -197 56.5t-119.5 151.5t-16.5 206q25 144 140.5 240t267.5 96q104 0 188.5 -53t122.5 -138l-76 -35q-63 151 -245 151q-116 0 -207.5 -77t-112.5 -194q-23 -131 50.5 -230t211.5 -99q83 0 154 41t113 113l71 -34q-52 -91 -141.5 -143t-203.5 -52z" />
    <glyph glyph-name="D" unicode="D" horiz-adv-x="706" 
d="M28 0l128 730h194q105 -1 185.5 -54t117.5 -142.5t19 -192.5q-26 -151 -137.5 -246t-263.5 -95h-243zM339 658h-117l-102 -585h157q117 0 205.5 76.5t110.5 197.5q22 128 -51.5 219.5t-202.5 91.5z" />
    <glyph glyph-name="E" unicode="E" horiz-adv-x="575" 
d="M28 0l128 730h443l-13 -73h-364l-44 -250h365l-14 -74h-364l-45 -259h364l-13 -74h-443z" />
    <glyph glyph-name="F" unicode="F" horiz-adv-x="545" 
d="M28 0l128 730h413l-13 -74h-334l-45 -253h335l-14 -74h-334l-57 -329h-79z" />
    <glyph glyph-name="G" unicode="G" horiz-adv-x="842" 
d="M420 -10q-171 0 -271.5 123t-71.5 292q24 144 136 239.5t264 95.5q105 0 186.5 -49.5t125.5 -132.5l-75 -40q-74 147 -245 147q-118 0 -206 -77t-109 -191q-23 -132 55 -231.5t218 -99.5q113 0 191 68.5t102 176.5h-297l13 74h380l-5 -28q-20 -162 -125.5 -264.5
t-265.5 -102.5z" />
    <glyph glyph-name="H" unicode="H" horiz-adv-x="657" 
d="M462 0l57 328h-355l-57 -328h-79l128 730h79l-58 -327h355l58 327h79l-128 -730h-79z" />
    <glyph glyph-name="I" unicode="I" horiz-adv-x="241" 
d="M37 0l128 730h79l-128 -730h-79z" />
    <glyph glyph-name="J" unicode="J" horiz-adv-x="501" 
d="M204 -10q-74 0 -125 38t-68 101l75 23q29 -89 124 -89q55 0 90 35.5t44 92.5l96 539h79l-95 -532q-17 -99 -72 -153.5t-148 -54.5z" />
    <glyph glyph-name="K" unicode="K" horiz-adv-x="645" 
d="M494 0l-180 382l-168 -160l-39 -222h-79l128 730h79l-70 -398l420 398h102l-312 -296l204 -434h-85z" />
    <glyph glyph-name="L" unicode="L" horiz-adv-x="534" 
d="M28 0l128 730h79l-115 -655h325l-13 -75h-404z" />
    <glyph glyph-name="M" unicode="M" horiz-adv-x="859" 
d="M28 0l128 730h70l214 -380l361 380h70l-128 -730h-79l104 592l-346 -363l-210 373l-105 -602h-79z" />
    <glyph glyph-name="N" unicode="N" horiz-adv-x="714" 
d="M28 0l128 730h83l303 -599l105 599h79l-128 -730h-77l-308 608l-106 -608h-79z" />
    <glyph glyph-name="O" unicode="O" horiz-adv-x="848" 
d="M418 -10q-170 0 -270 123t-71 292q25 145 137.5 240t256.5 95q114 0 200 -60t122.5 -156t17.5 -201q-26 -145 -136.5 -239t-256.5 -94zM425 64q112 0 200.5 77t108.5 192q15 83 -12.5 159t-95 125t-159.5 49q-115 0 -203.5 -76.5t-108.5 -192.5q-23 -135 55 -234t215 -99
z" />
    <glyph glyph-name="P" unicode="P" horiz-adv-x="618" 
d="M28 0l128 730h209q115 0 186.5 -76.5t51.5 -194.5q-17 -102 -96.5 -166.5t-196.5 -64.5h-163l-40 -228h-79zM354 659h-132l-63 -360h154q85 0 142.5 48t70.5 123q14 80 -36 134.5t-136 54.5z" />
    <glyph glyph-name="Q" unicode="Q" horiz-adv-x="850" 
d="M414 -10q-112 0 -196.5 56.5t-122 152t-18.5 206.5q25 144 139 239.5t259 95.5q112 0 197 -59.5t121.5 -154t17.5 -198.5q-23 -134 -123 -229q34 -24 79 -24h19l-13 -75h-19q-53 0 -93 23t-64.5 56t-46.5 66t-51 56t-66 23h-20l14 75h19q30 0 54 -7.5t45 -26.5
t31.5 -30.5t31.5 -42t27 -38.5q78 73 97 177q15 83 -12.5 159.5t-94.5 125.5t-159 49q-115 0 -203.5 -76.5t-108.5 -192.5q-23 -135 54 -233t212 -98q60 0 114 23q28 -39 51 -60q-79 -38 -171 -38z" />
    <glyph glyph-name="R" unicode="R" horiz-adv-x="614" 
d="M526 0h-16q-80 0 -139 52t-85.5 128t-23.5 161h63q80 0 129.5 41t61.5 105q13 72 -33 121t-127 51h-134l-115 -659h-79l128 730h212q112 0 179 -74t48 -181q-15 -84 -82 -141.5t-169 -59.5q12 -86 60.5 -143t118.5 -57h17z" />
    <glyph glyph-name="S" unicode="S" horiz-adv-x="548" 
d="M245 -10q-85 0 -146.5 36.5t-98.5 95.5l72 47q58 -105 178 -105q63 0 106 32t52 83q6 33 -2.5 59t-33 47t-47 34.5t-61.5 31.5q-33 16 -53.5 27t-48 32t-41 42.5t-21 53.5t-1.5 69q13 75 74.5 120t152.5 45q72 0 130 -30.5t92 -82.5l-67 -44q-51 88 -159 88
q-59 0 -97 -28.5t-46 -74.5q-4 -24 3 -46t17.5 -36t35.5 -30t39 -23.5t45 -22.5q20 -9 34.5 -16.5t33.5 -19t31.5 -22t28 -26t22 -30t15 -35t7 -41.5t-3.5 -48q-14 -81 -79.5 -131.5t-162.5 -50.5z" />
    <glyph glyph-name="T" unicode="T" horiz-adv-x="589" 
d="M290 0h-79l115 656h-209l13 74h497l-13 -74h-209z" />
    <glyph glyph-name="U" unicode="U" horiz-adv-x="635" 
d="M291 -10q-118 0 -181 70.5t-42 190.5l84 479h79l-85 -485q-14 -79 23.5 -130.5t128.5 -51.5q71 0 121.5 43.5t62.5 111.5l90 512h79l-89 -507q-19 -111 -91.5 -172t-179.5 -61z" />
    <glyph glyph-name="V" unicode="V" horiz-adv-x="659" 
d="M321 0h-76l-132 730h79l109 -614l329 614h84z" />
    <glyph glyph-name="W" unicode="W" horiz-adv-x="1043" 
d="M755 0h-77l-93 610l-306 -610h-79l-85 730h81l66 -605l303 605h77l93 -608l279 608h82z" />
    <glyph glyph-name="X" unicode="X" horiz-adv-x="656" 
d="M496 0l-154 311l-261 -311h-92l317 380l-171 350h83l143 -288l241 288h92l-297 -357l182 -373h-83z" />
    <glyph glyph-name="Y" unicode="Y" horiz-adv-x="619" 
d="M223 0l62 352l-172 378h81l142 -311l248 311h90l-311 -386l-61 -344h-79z" />
    <glyph glyph-name="Z" unicode="Z" horiz-adv-x="601" 
d="M497 0h-481l13 72l485 585h-371l12 73h468l-12 -71l-487 -586h385z" />
    <glyph glyph-name="bracketleft" unicode="[" horiz-adv-x="392" 
d="M-18 -230l168 960h273l-12 -74h-194l-144 -812h194l-13 -74h-272z" />
    <glyph glyph-name="backslash" unicode="\" horiz-adv-x="473" 
d="M321 0l-219 730h81l220 -730h-82z" />
    <glyph glyph-name="bracketright" unicode="]" horiz-adv-x="392" 
d="M-23 -230l12 73h194l143 813h-193l13 74h273l-169 -960h-273z" />
    <glyph glyph-name="asciicircum" unicode="^" horiz-adv-x="493" 
d="M139 532l152 168h63l93 -168h-77l-56 105l-91 -105h-84z" />
    <glyph glyph-name="underscore" unicode="_" horiz-adv-x="464" 
d="M-19 -111l13 66h370l-12 -66h-371z" />
    <glyph glyph-name="grave" unicode="`" horiz-adv-x="493" 
d="M325 558l-116 162h99l88 -162h-71z" />
    <glyph glyph-name="a" unicode="a" horiz-adv-x="648" 
d="M287 -10q-119 0 -186.5 87t-46.5 205q17 99 93 163.5t173 64.5q68 0 118 -30t75 -80l18 100h77l-66 -366q-7 -38 3 -52.5t43 -14.5h13l-14 -67h-38q-76 0 -84 69q-71 -79 -178 -79zM296 61q69 0 124.5 47.5t68.5 120.5q16 84 -30.5 147t-135.5 64q-70 0 -126 -47
t-69 -121q-14 -84 34 -147.5t134 -63.5z" />
    <glyph glyph-name="b" unicode="b" horiz-adv-x="636" 
d="M316 -10q-68 0 -117.5 29t-75.5 80l-17 -99h-78l128 730h78q-33 -180 -51 -288q66 68 169 68q116 0 183.5 -88t47.5 -205q-17 -99 -92.5 -163t-174.5 -64zM315 61q70 0 125.5 46.5t68.5 119.5q15 82 -32.5 147t-134.5 66q-70 0 -127 -47.5t-70 -121.5q-14 -83 35 -146.5
t135 -63.5z" />
    <glyph glyph-name="c" unicode="c" horiz-adv-x="581" 
d="M291 -10q-123 0 -191 87t-47 205q17 99 94 163.5t178 64.5q76 0 134.5 -36t86.5 -95l-70 -35q-44 95 -154 96q-70 0 -126 -47t-69 -121q-14 -84 34 -147.5t134 -63.5q50 0 93.5 25.5t70.5 70.5l70 -34q-37 -62 -99.5 -97.5t-138.5 -35.5z" />
    <glyph glyph-name="d" unicode="d" horiz-adv-x="651" 
d="M286 -10q-119 0 -186.5 87t-46.5 205q17 99 93 163.5t173 64.5q67 0 116.5 -29t75.5 -78l60 327h77l-107 -596q-7 -38 3 -52.5t43 -14.5h13l-14 -67h-38q-76 0 -84 68q-70 -78 -178 -78zM295 61q69 0 124.5 47.5t68.5 120.5q16 84 -30.5 147t-135.5 64q-70 0 -126 -47
t-69 -121q-14 -84 34 -147.5t134 -63.5z" />
    <glyph glyph-name="e" unicode="e" horiz-adv-x="586" 
d="M300 -10q-131 0 -199 85t-47 206q18 103 102 166t187 63q102 0 157.5 -51t42.5 -119q-12 -67 -73 -105.5t-160 -37.5q-95 -1 -189 37q-2 -78 48 -127t135 -49q98 0 156 75l61 -37q-78 -106 -221 -106zM344 443q-71 0 -130 -39.5t-81 -103.5q95 -35 171 -35q73 0 115 22.5
t49 63.5q6 37 -26 64.5t-98 27.5z" />
    <glyph glyph-name="f" unicode="f" horiz-adv-x="358" 
d="M47 433l13 67h97l7 40q20 117 59 153.5t140 36.5h23l-13 -72h-16q-59 0 -80.5 -20t-35.5 -99l-7 -39h110l-12 -67h-110l-77 -440q-18 -104 -56.5 -142t-125.5 -38h-36l12 72h16q57 0 80 21.5t34 86.5l76 440h-98z" />
    <glyph glyph-name="g" unicode="g" horiz-adv-x="635" 
d="M286 -10q-119 0 -186.5 87t-46.5 205q17 99 93 163.5t173 64.5q68 0 118 -30t75 -79l18 99h78l-87 -490q-44 -250 -264 -250q-82 0 -142 37.5t-85 101.5l78 25q36 -94 154 -94q150 0 181 178l1 6q1 5 3 17.5t4 24.5q-66 -66 -165 -66zM295 61q69 0 124.5 47.5t68.5 120.5
q16 84 -30.5 147t-135.5 64q-70 0 -126 -47t-69 -121q-14 -84 34 -147.5t134 -63.5z" />
    <glyph glyph-name="h" unicode="h" horiz-adv-x="597" 
d="M28 0l128 730h77l-51 -283q64 63 157 63q98 0 151.5 -67t33.5 -169l-28 -144q-8 -37 -0.5 -50t41.5 -13h16l-14 -67h-36q-59 0 -78.5 31.5t-7.5 94.5l29 150q14 75 -17 121t-98 46q-74 0 -118.5 -45t-58.5 -123l-48 -275h-78z" />
    <glyph glyph-name="i" unicode="i" horiz-adv-x="237" 
d="M131 0q-105 0 -82 126l65 374h78l-65 -368q-5 -33 3.5 -49t36.5 -16h15l-14 -67h-37zM126 565l25 144h77l-25 -144h-77z" />
    <glyph glyph-name="j" unicode="j" horiz-adv-x="226" 
d="M-120 -229l13 72q70 0 94 21.5t38 97.5l96 538h78l-96 -539q-20 -112 -60 -151t-140 -39h-23zM132 565l26 144h77l-25 -144h-78z" />
    <glyph glyph-name="k" unicode="k" horiz-adv-x="551" 
d="M478 0q-62 0 -84 15.5t-53 71.5l-88 161l-123 -104l-25 -144h-77l128 730h77l-86 -490l308 260h102l-246 -209l94 -172q18 -33 32 -42.5t48 -9.5h18l-12 -67h-13z" />
    <glyph glyph-name="l" unicode="l" horiz-adv-x="238" 
d="M133 0q-58 0 -75.5 34t-6.5 100l104 596h78l-105 -596q-7 -37 3 -52t39 -15h14l-14 -67h-37z" />
    <glyph glyph-name="m" unicode="m" horiz-adv-x="943" 
d="M37 0l69 363q7 36 -3 53t-40 17h-15l12 67h37q72 0 82 -66q65 76 171 76q50 0 93 -27t62 -72q65 99 181 99q103 0 153.5 -66t30.5 -171l-28 -143q-14 -63 39 -63h19l-14 -67h-44q-48 0 -70 33t-9 93l29 150q14 73 -15.5 120t-97.5 47q-62 0 -101.5 -42t-52.5 -108
l-58 -293h-78l58 292q13 63 -16.5 107t-94.5 44q-64 0 -107.5 -42.5t-59.5 -124.5l-54 -276h-78z" />
    <glyph glyph-name="n" unicode="n" horiz-adv-x="611" 
d="M37 0l69 363q7 36 -3 53t-40 17h-15l12 67h37q72 0 82 -67q67 77 174 77q98 0 151.5 -67t33.5 -169l-28 -144q-8 -37 -0.5 -50t41.5 -13h16l-14 -67h-36q-59 0 -78.5 31.5t-7.5 94.5l29 150q14 75 -17 121t-98 46q-74 0 -118.5 -45.5t-59.5 -124.5l-52 -273h-78z" />
    <glyph glyph-name="o" unicode="o" horiz-adv-x="616" 
d="M291 -10q-123 0 -191 87t-47 205q17 99 94 163.5t178 64.5q122 0 190.5 -87.5t47.5 -205.5q-17 -99 -93 -163t-179 -64zM295 61q70 0 125.5 46.5t68.5 119.5q15 82 -32.5 147t-134.5 66q-70 0 -126 -47t-69 -121q-14 -84 34 -147.5t134 -63.5z" />
    <glyph glyph-name="p" unicode="p" horiz-adv-x="648" 
d="M330 -10q-69 0 -119 29t-75 81l-60 -330h-78l107 594q13 69 -46 69h-12l13 67h39q72 0 80 -73q73 83 185 83q116 0 183.5 -88t47.5 -205q-17 -99 -92.5 -163t-172.5 -64zM327 61q70 0 125.5 46.5t68.5 119.5q15 82 -32.5 147t-134.5 66q-72 0 -128 -48t-69 -122
q-14 -83 35 -146t135 -63z" />
    <glyph glyph-name="q" unicode="q" horiz-adv-x="634" 
d="M285 -10q-119 0 -186.5 87t-46.5 205q17 99 93 163.5t173 64.5q68 0 118.5 -30t75.5 -80l18 100h77l-128 -730h-78q29 167 51 288q-68 -68 -167 -68zM294 61q69 0 124.5 47.5t68.5 120.5q16 84 -30.5 147t-135.5 64q-70 0 -126 -47t-69 -121q-14 -84 34 -147.5t134 -63.5
z" />
    <glyph glyph-name="r" unicode="r" horiz-adv-x="412" 
d="M37 0l69 363q15 70 -43 70h-15l12 67h36q79 0 84 -79q59 79 169 79h53l-14 -77h-45q-147 0 -177 -157l-51 -266h-78z" />
    <glyph glyph-name="s" unicode="s" horiz-adv-x="491" 
d="M236 -10q-75 0 -130.5 30.5t-87.5 79.5l67 44q52 -87 155 -87q48 0 76.5 21t34.5 54q2 13 -0.5 23.5t-13 19.5t-18.5 15t-28 13.5t-29.5 11t-33.5 11.5q-39 13 -63 24.5t-47.5 30t-32 46t-2.5 64.5q10 55 60.5 88t124.5 32q60 0 111 -24.5t83 -66.5l-64 -41
q-48 67 -139 67q-88 0 -100 -63q-6 -34 22 -54.5t96 -42.5q35 -11 60 -23.5t50 -31.5t35.5 -46.5t4.5 -61.5q-10 -59 -60.5 -96t-130.5 -37z" />
    <glyph glyph-name="t" unicode="t" horiz-adv-x="339" 
d="M38 431l12 69h81l21 119l85 42l-29 -161h118l-12 -69h-118l-42 -239q-14 -78 3.5 -101t93.5 -23l-12 -68h-7q-109 0 -141.5 40t-13.5 151l42 240h-81z" />
    <glyph glyph-name="u" unicode="u" horiz-adv-x="601" 
d="M255 -9q-98 0 -150 67t-32 169l27 136q7 39 -2 54.5t-40 15.5h-13l11 67h46q102 0 77 -130l-28 -145q-14 -75 16.5 -121t97.5 -46q71 0 114.5 48t54.5 121l51 273h78l-68 -363q-13 -70 42 -70h17l-12 -67h-40q-75 0 -83 62q-65 -71 -164 -71z" />
    <glyph glyph-name="v" unicode="v" horiz-adv-x="577" 
d="M243 -10q-103 0 -147.5 61.5t-23.5 168.5l28 143q8 37 -0.5 53.5t-37.5 16.5h-17l12 67h45q47 0 68.5 -32.5t9.5 -97.5l-33 -166q-13 -66 14.5 -105.5t84.5 -39.5q78 0 129.5 66t70.5 171q20 110 -7 204h79q22 -113 3 -216q-24 -128 -94.5 -211t-183.5 -83z" />
    <glyph glyph-name="w" unicode="w" horiz-adv-x="925" 
d="M240 -10q-97 0 -142 66t-24 171l26 136q15 70 -42 70h-13l12 67h45q103 0 78 -130l-29 -145q-15 -76 11.5 -121.5t95.5 -45.5q60 0 102.5 47.5t55.5 116.5l52 278h77l-55 -300q-12 -67 15.5 -104t85.5 -37q80 0 132 65.5t71 171.5q20 108 -8 204h79q23 -116 4 -216
q-24 -128 -95 -211t-184 -83q-131 0 -160 102q-70 -102 -190 -102z" />
    <glyph glyph-name="x" unicode="x" horiz-adv-x="567" 
d="M1 0l247 261l-43 100q-19 48 -34 60t-58 12h-36l11 64h31q74 0 98 -17t54 -90l31 -77l176 187l94 1l-240 -256l46 -109q19 -46 34.5 -57.5t59.5 -11.5h32l-11 -67h-27q-73 0 -97.5 18t-55.5 89l-35 85l-180 -192h-97z" />
    <glyph glyph-name="y" unicode="y" horiz-adv-x="586" 
d="M223 -240q-77 0 -134 39.5t-78 102.5l74 23q33 -95 144 -95q131 0 165 178l7 36q-62 -53 -146 -53q-98 0 -150 67t-32 169l27 136q7 39 -2 54.5t-40 15.5h-13l11 67h46q102 0 77 -130l-28 -145q-14 -75 16.5 -121t97.5 -46q71 0 114.5 48t54.5 121l51 273h76l-90 -490
q-21 -122 -79.5 -186t-168.5 -64z" />
    <glyph glyph-name="z" unicode="z" horiz-adv-x="571" 
d="M20 0l12 68l400 363h-327l13 69h433l-13 -68l-402 -364h344l-12 -68h-448z" />
    <glyph glyph-name="braceleft" unicode="{" horiz-adv-x="406" 
d="M284 -230h-11q-125 0 -164.5 47t-17.5 170l21 121q11 62 -2 83.5t-73 21.5l13 73q59 0 80.5 21t32.5 84l21 122q22 123 77 170t181 47h11l-12 -71q-95 0 -129.5 -29t-49.5 -118l-22 -122q-10 -60 -31.5 -93.5t-62.5 -48.5q65 -28 45 -139l-22 -121q-15 -89 9 -118
t119 -29z" />
    <glyph glyph-name="bar" unicode="|" horiz-adv-x="203" 
d="M-18 -230l169 960h79l-169 -960h-79z" />
    <glyph glyph-name="braceright" unicode="}" horiz-adv-x="417" 
d="M-28 -230l12 71q95 0 129.5 29t49.5 118l21 119q10 59 31 93t61 49q-63 28 -43 140l23 123q15 89 -9 118t-119 29l13 71h11q125 0 164.5 -47t17.5 -170l-22 -123q-11 -62 2 -83.5t73 -21.5l-13 -74q-59 0 -80.5 -21t-32.5 -84l-20 -119q-22 -123 -77.5 -170t-180.5 -47
h-11z" />
    <glyph glyph-name="asciitilde" unicode="~" horiz-adv-x="468" 
d="M126 587q11 53 42.5 85t74.5 32q34 0 73 -27l10.5 -7t11.5 -7t9.5 -5t11 -4.5t11.5 -1.5q35 0 45 47h62q-11 -54 -41.5 -85.5t-76.5 -31.5q-34 0 -80 30q-32 21 -48 21q-33 0 -44 -46h-61z" />
    <glyph glyph-name="exclamdown" unicode="&#xa1;" horiz-adv-x="231" 
d="M-12 -230l20 117q46 254 90 415h44q-17 -195 -56 -415l-20 -117h-78zM92 363l24 137h78l-24 -137h-78z" />
    <glyph glyph-name="cent" unicode="&#xa2;" 
d="M200 -130l23 129q-96 23 -142.5 102.5t-28.5 180.5q17 96 89 159.5t171 68.5l22 120h79l-23 -127q56 -13 98.5 -45.5t64.5 -78.5l-70 -35q-44 95 -158 96q-74 0 -130 -47t-69 -121q-14 -84 34 -147.5t138 -63.5q109 0 168 96l70 -34q-36 -60 -99 -96t-137 -37l-21 -120
h-79z" />
    <glyph glyph-name="sterling" unicode="&#xa3;" 
d="M92 350l12 67h70q-19 82 -7 148q14 82 70.5 128.5t144.5 46.5q118 0 181 -90l-62 -44q-28 34 -55.5 48.5t-69.5 14.5q-54 0 -87.5 -30t-43.5 -83q-10 -54 5 -139h237l-12 -67h-211q32 -143 20 -201q-4 -21 -12 -42q61 -48 90 -48q27 0 38.5 11.5t16.5 42.5l6 34h84
l-8 -44q-11 -62 -43.5 -87.5t-85.5 -25.5q-50 0 -129 59q-44 -59 -118 -59q-56 0 -84 29t-18 79q7 35 35.5 57t69.5 22q43 0 93 -33l1 1v2q3 12 3.5 24.5t-1 29t-2.5 26.5t-6 31.5t-6.5 28t-9 33t-8.5 30.5h-98zM122 49q45 0 71 35q-43 31 -67 31q-33 0 -39 -29
q-3 -16 6.5 -26.5t28.5 -10.5z" />
    <glyph glyph-name="currency" unicode="&#xa4;" horiz-adv-x="773" 
d="M605 56l-74 86q-63 -40 -140 -40q-99 0 -171 63l-122 -110l-43 48l122 110q-45 67 -45 149q0 101 65 174l-79 94l49 43l79 -94q65 43 145 43q97 0 169 -62l112 104l43 -49l-111 -103q47 -66 47 -150q0 -104 -70 -179l73 -85zM391 172q76 0 129 55.5t53 134.5t-53 134.5
t-129 55.5t-128.5 -55.5t-52.5 -134.5t52.5 -134.5t128.5 -55.5z" />
    <glyph glyph-name="yen" unicode="&#xa5;" horiz-adv-x="587" 
d="M100 393l12 64h170l-128 273h84l97 -212l180 212h93l-235 -273h175l-12 -64h-182l-19 -104h182l-11 -64h-183l-40 -225h-76l40 225h-174l11 64h175l19 104h-178z" />
    <glyph glyph-name="brokenbar" unicode="&#xa6;" horiz-adv-x="203" 
d="M77 310l74 420h79l-74 -420h-79zM-18 -230l74 420h79l-74 -420h-79z" />
    <glyph glyph-name="section" unicode="&#xa7;" horiz-adv-x="597" 
d="M272 -10q-86 0 -150.5 38t-84.5 93l80 23q16 -39 61 -64t100 -25q56 0 93.5 20.5t44.5 59.5q9 49 -61 76q-24 9 -96 27q-103 26 -151 63t-36 105q7 35 37.5 62.5t75.5 37.5q-45 41 -34 99q11 65 70 100.5t148 34.5q73 0 128.5 -30.5t74.5 -74.5l-77 -23q-13 29 -49 48
t-83 19q-126 0 -138 -76q-4 -21 6 -37.5t34.5 -28.5t48.5 -19.5t64 -17.5q49 -12 81.5 -24t62.5 -30t41.5 -44.5t5.5 -61.5q-7 -37 -36.5 -65.5t-71.5 -41.5q42 -37 33 -95q-9 -71 -71 -110t-151 -38zM309 297q69 -18 102 -33q70 20 80 71q3 17 -4 31t-19 24t-36.5 19.5
t-46 16t-57.5 15.5q-56 14 -97 34q-74 -21 -80 -69q-7 -41 33.5 -64.5t124.5 -44.5z" />
    <glyph glyph-name="dieresis" unicode="&#xa8;" horiz-adv-x="495" 
d="M331 565l25 139h77l-24 -139h-78zM198 565l24 139h78l-25 -139h-77z" />
    <glyph glyph-name="copyright" unicode="&#xa9;" horiz-adv-x="847" 
d="M418 -10q-170 0 -270 123t-71 292q25 145 137.5 240t256.5 95q169 0 269 -124.5t71 -292.5q-25 -144 -137 -238.5t-256 -94.5zM425 59q116 0 205 77.5t111 196.5q15 85 -13 162.5t-97 127t-163 49.5q-119 0 -208.5 -77.5t-111.5 -197.5q-23 -134 56 -236t221 -102z
M432 167q-91 0 -141.5 64t-35.5 154q14 77 74.5 128t139.5 51q57 0 100 -27.5t62 -73.5l-68 -32q-27 64 -100 64q-50 0 -89.5 -33t-48.5 -84q-10 -56 21.5 -99t91.5 -43q34 0 64.5 17.5t48.5 47.5l63 -30q-59 -104 -182 -104z" />
    <glyph glyph-name="ordfeminine" unicode="&#xaa;" horiz-adv-x="426" 
d="M384 441q-23 0 -35.5 13t-14.5 35q-42 -54 -109 -54q-58 0 -96 44t-27 116q9 67 55 104t101 37q40 0 67 -18.5t37 -48.5l12 61h58l-37 -205q-7 -37 25 -37h10l-9 -47h-37zM243 488q39 0 69.5 28t35.5 67q8 41 -17 70.5t-67 29.5q-41 0 -71 -25t-36 -64q-6 -45 18.5 -75.5
t67.5 -30.5z" />
    <glyph glyph-name="guillemotleft" unicode="&#xab;" horiz-adv-x="455" 
d="M193 107l-134 119l9 50l176 119l-11 -64l-123 -83l94 -82zM365 107l-134 119l9 50l176 119l-11 -64l-123 -83l94 -82z" />
    <glyph glyph-name="logicalnot" unicode="&#xac;" horiz-adv-x="619" 
d="M480 203l47 249h-462l14 75h540l-61 -324h-78z" />
    <glyph glyph-name="uni00AD" unicode="&#xad;" horiz-adv-x="464" 
d="M43 222l12 66h370l-12 -66h-370z" />
    <glyph glyph-name="registered" unicode="&#xae;" horiz-adv-x="405" 
d="M251 430q-71 0 -112.5 50.5t-29.5 120.5q10 60 56.5 99.5t106.5 39.5q71 0 112 -51t29 -121q-10 -60 -56 -99t-106 -39zM255 472q43 0 75.5 28.5t39.5 72.5q9 49 -19 87.5t-81 38.5q-45 0 -77.5 -28.5t-40.5 -73.5q-9 -50 20 -87.5t83 -37.5zM186 510l28 152h72
q28 0 42.5 -16t10.5 -39q-4 -37 -42 -45l28 -52h-47l-38 76l-13 -76h-41zM264 626h-17l-6 -34h19q31 0 34 16q2 12 -5 15t-25 3z" />
    <glyph glyph-name="macron" unicode="&#xaf;" horiz-adv-x="493" 
d="M166 558l13 67h264l-13 -67h-264z" />
    <glyph glyph-name="degree" unicode="&#xb0;" horiz-adv-x="425" 
d="M273 483q-53 0 -91 38t-38 91t38 90.5t91 37.5t90.5 -37.5t37.5 -90.5t-37.5 -91t-90.5 -38zM273 548q25 0 44 19t19 44t-19 44t-44 19t-44 -19t-19 -44t19 -44t44 -19z" />
    <glyph glyph-name="plusminus" unicode="&#xb1;" horiz-adv-x="464" 
d="M74 432l12 67h152l27 151h66l-27 -151h152l-12 -67h-152l-26 -152h-67l27 152h-152zM21 127l12 67h370l-12 -67h-370z" />
    <glyph glyph-name="twosuperior" unicode="&#xb2;" horiz-adv-x="339" 
d="M46 308l11 66q6 33 30.5 63.5t47.5 47t62 40.5q5 3 18 11t18.5 11.5t16 11t15.5 11.5t12.5 10.5t11.5 12t7.5 12t4.5 13.5q4 25 -12 41t-45 16q-52 0 -80 -45l-58 28q47 78 140 78q61 0 97 -34.5t26 -92.5q-7 -40 -39 -69.5t-89 -63.5q-72 -44 -90 -65q-16 -18 -19 -36
h194l-12 -67h-268z" />
    <glyph glyph-name="threesuperior" unicode="&#xb3;" horiz-adv-x="324" 
d="M176 302q-47 0 -81 20.5t-49 50.5l64 37q18 -42 69 -42q60 0 69 58q5 28 -13 47.5t-49 19.5h-37l11 67h33q33 0 55.5 16t27.5 40q4 25 -12.5 40.5t-42.5 15.5q-41 0 -67 -34l-54 41q44 57 123 57q62 0 96.5 -38t23.5 -91q-11 -58 -65 -86q54 -40 42 -111
q-23 -108 -144 -108z" />
    <glyph glyph-name="acute" unicode="&#xb4;" horiz-adv-x="493" 
d="M181 558l145 162h100l-173 -162h-72z" />
    <glyph glyph-name="mu" unicode="&#xb5;" horiz-adv-x="604" 
d="M-13 -230l129 730h78q-43 -243 -46 -260q-16 -82 14.5 -132.5t105.5 -50.5q61 0 107 44t59 112l54 287h78l-68 -363q-6 -36 4 -53t39 -17h16l-12 -67h-39q-78 0 -82 73q-67 -83 -175 -83q-91 0 -137 62l-49 -282h-76z" />
    <glyph glyph-name="mu" unicode="&#x3bc;" horiz-adv-x="604" 
d="M-13 -230l129 730h78q-43 -243 -46 -260q-16 -82 14.5 -132.5t105.5 -50.5q61 0 107 44t59 112l54 287h78l-68 -363q-6 -36 4 -53t39 -17h16l-12 -67h-39q-78 0 -82 73q-67 -83 -175 -83q-91 0 -137 62l-49 -282h-76z" />
    <glyph glyph-name="paragraph" unicode="&#xb6;" horiz-adv-x="595" 
d="M293 0l53 302h-85q-96 1 -149 68t-36 162q16 86 86 142t160 56h295l-128 -730h-68l116 659h-61l-115 -659h-68z" />
    <glyph glyph-name="periodcentered" unicode="&#xb7;" horiz-adv-x="192" 
d="M47 185l24 137h77l-24 -137h-77z" />
    <glyph glyph-name="cedilla" unicode="&#xb8;" horiz-adv-x="493" 
d="M164 -233q-98 0 -150 59l66 37q38 -38 87 -38q63 0 70 38q4 19 -13 28.5t-53 9.5h-41l18 99h66l-11 -54q58 -3 84 -27.5t20 -62.5q-7 -40 -46.5 -64.5t-96.5 -24.5z" />
    <glyph glyph-name="onesuperior" unicode="&#xb9;" horiz-adv-x="288" 
d="M45 308l11 67h77l43 249q-24 -37 -74 -37h-6l13 74h3q38 0 60 21t26 48h68l-63 -355h82l-11 -67h-229z" />
    <glyph glyph-name="ordmasculine" unicode="&#xba;" horiz-adv-x="389" 
d="M244 435q-66 0 -106.5 47t-31.5 113q7 60 53 100.5t105 40.5q65 0 106 -47.5t33 -113.5q-9 -60 -54.5 -100t-104.5 -40zM247 490q37 0 65.5 25t34.5 62q5 41 -19 73t-67 32q-37 0 -65.5 -25.5t-33.5 -63.5q-7 -41 17.5 -72t67.5 -31z" />
    <glyph glyph-name="guillemotright" unicode="&#xbb;" horiz-adv-x="455" 
d="M265 394l134 -119l-9 -50l-176 -119l11 64l123 82l-94 83zM93 394l134 -119l-9 -50l-176 -119l11 64l123 82l-94 83z" />
    <glyph glyph-name="onequarter" unicode="&#xbc;" horiz-adv-x="867" 
d="M657 0l17 97h-185l11 64l229 261h71l-46 -261h62l-11 -64h-62l-17 -97h-69zM116 0l653 730h94l-653 -730h-94zM45 308l11 67h77l43 249q-24 -37 -74 -37h-6l13 74h3q38 0 60 21t26 48h68l-63 -355h82l-11 -67h-229zM579 161h106l26 150z" />
    <glyph glyph-name="onehalf" unicode="&#xbd;" horiz-adv-x="852" 
d="M69 0l653 730h94l-653 -730h-94zM501 0l11 66q6 33 30.5 63.5t47.5 47t62 40.5q5 3 18 11t18.5 11.5t16 11t15.5 11.5t12.5 10.5t11.5 12t7.5 12t4.5 13.5q4 25 -12 41t-45 16q-52 0 -80 -45l-58 28q47 78 140 78q61 0 97 -34.5t26 -92.5q-7 -40 -39 -69.5t-89 -63.5
q-72 -44 -90 -65q-16 -18 -19 -36h194l-12 -67h-268zM46 308l11 67h77l43 249q-24 -37 -74 -37h-6l13 74h3q38 0 60 21t26 48h68l-63 -355h82l-11 -67h-229z" />
    <glyph glyph-name="threequarters" unicode="&#xbe;" horiz-adv-x="853" 
d="M643 0l17 97h-185l11 64l229 261h71l-46 -261h62l-11 -64h-62l-17 -97h-69zM102 0l653 730h94l-653 -730h-94zM176 302q-47 0 -81 20.5t-49 50.5l64 37q18 -42 69 -42q60 0 69 58q5 28 -13 47.5t-49 19.5h-37l11 67h33q33 0 55.5 16t27.5 40q4 25 -12.5 40.5t-42.5 15.5
q-41 0 -67 -34l-54 41q44 57 123 57q62 0 96.5 -38t23.5 -91q-11 -58 -65 -86q54 -40 42 -111q-23 -108 -144 -108zM565 161h106l26 150z" />
    <glyph glyph-name="questiondown" unicode="&#xbf;" horiz-adv-x="511" 
d="M197 -240q-98 0 -156.5 58.5t-42.5 143.5q6 34 21.5 60.5t36 43.5t44.5 32.5t48.5 33t45.5 38.5t38 54.5t25 76.5l2 9h70l-1 -9q-12 -70 -40.5 -119.5t-61 -75t-64 -45.5t-56 -45t-30.5 -60q-10 -57 27 -92.5t101 -35.5q40 0 80.5 18t65.5 44l50 -54q-33 -32 -89.5 -54
t-113.5 -22zM364 500l-24 -137h-78l24 137h78z" />
    <glyph glyph-name="Agrave" unicode="&#xc0;" horiz-adv-x="687" 
d="M-14 0l408 730h78l142 -730h-80l-35 185h-327l-102 -185h-84zM416 625l-203 -366h272zM405 788l-116 162h99l88 -162h-71z" />
    <glyph glyph-name="Aacute" unicode="&#xc1;" horiz-adv-x="687" 
d="M-14 0l408 730h78l142 -730h-80l-35 185h-327l-102 -185h-84zM416 625l-203 -366h272zM405 788l145 162h100l-173 -162h-72z" />
    <glyph glyph-name="Acircumflex" unicode="&#xc2;" horiz-adv-x="687" 
d="M-14 0l408 730h78l142 -730h-80l-35 185h-327l-102 -185h-84zM416 625l-203 -366h272zM288 788l147 162h66l91 -162h-80l-54 100l-89 -100h-81z" />
    <glyph glyph-name="Atilde" unicode="&#xc3;" horiz-adv-x="687" 
d="M-14 0l408 730h78l142 -730h-80l-35 185h-327l-102 -185h-84zM416 625l-203 -366h272zM268 788q10 55 41.5 88t76.5 33q38 0 78 -27q42 -28 61 -28q35 0 46 51h62q-11 -56 -42 -88.5t-77 -32.5q-39 0 -87 33q-34 22 -53 22q-35 0 -44 -51h-62z" />
    <glyph glyph-name="Adieresis" unicode="&#xc4;" horiz-adv-x="687" 
d="M-14 0l408 730h78l142 -730h-80l-35 185h-327l-102 -185h-84zM416 625l-203 -366h272zM470 795l25 139h77l-24 -139h-78zM337 795l24 139h78l-25 -139h-77z" />
    <glyph glyph-name="Aring" unicode="&#xc5;" horiz-adv-x="687" 
d="M-14 0l388 695q-25 17 -36 47t-2 63q11 39 42.5 64t71.5 25q50 0 78.5 -38t15.5 -86q-16 -57 -64 -80l134 -690h-80l-35 185h-327l-102 -185h-84zM416 625l-203 -366h272zM434 738q19 0 34 12.5t19 29.5q5 22 -7.5 39t-35.5 17q-17 0 -32 -12t-19 -30q-5 -22 6.5 -39
t34.5 -17z" />
    <glyph glyph-name="AE" unicode="&#xc6;" horiz-adv-x="1005" 
d="M-9 0l488 730h542l-13 -74h-441l8 -253h388l-13 -74h-372l9 -254h318l-12 -75h-380l-6 181h-305l-121 -181h-90zM492 611l-241 -358h253z" />
    <glyph glyph-name="Ccedilla" unicode="&#xc7;" horiz-adv-x="792" 
d="M384 -235q-98 0 -150 59l66 37q38 -38 87 -38q63 0 70 38q4 19 -13 28.5t-53 9.5h-41l17 94q-101 11 -173.5 69t-102.5 148.5t-12 193.5q25 144 140.5 240t267.5 96q104 0 188.5 -53t122.5 -138l-76 -35q-63 151 -245 151q-116 0 -207.5 -77t-112.5 -194
q-23 -131 50.5 -230t211.5 -99q83 0 154 41t113 113l71 -34q-50 -87 -134 -138.5t-191 -55.5l-9 -47q58 -3 84 -27.5t20 -62.5q-7 -40 -46.5 -64.5t-96.5 -24.5z" />
    <glyph glyph-name="Egrave" unicode="&#xc8;" horiz-adv-x="575" 
d="M28 0l128 730h443l-13 -73h-364l-44 -250h365l-14 -74h-364l-45 -259h364l-13 -74h-443zM363 788l-116 162h99l88 -162h-71z" />
    <glyph glyph-name="Eacute" unicode="&#xc9;" horiz-adv-x="575" 
d="M28 0l128 730h443l-13 -73h-364l-44 -250h365l-14 -74h-364l-45 -259h364l-13 -74h-443zM338 788l145 162h100l-173 -162h-72z" />
    <glyph glyph-name="Ecircumflex" unicode="&#xca;" horiz-adv-x="575" 
d="M28 0l128 730h443l-13 -73h-364l-44 -250h365l-14 -74h-364l-45 -259h364l-13 -74h-443zM236 788l147 162h66l91 -162h-80l-54 100l-89 -100h-81z" />
    <glyph glyph-name="Edieresis" unicode="&#xcb;" horiz-adv-x="575" 
d="M28 0l128 730h443l-13 -73h-364l-44 -250h365l-14 -74h-364l-45 -259h364l-13 -74h-443zM285 795l24 139h78l-25 -139h-77zM418 795l25 139h77l-24 -139h-78z" />
    <glyph glyph-name="Igrave" unicode="&#xcc;" horiz-adv-x="241" 
d="M37 0l128 730h79l-128 -730h-79zM179 788l-116 162h99l88 -162h-71z" />
    <glyph glyph-name="Iacute" unicode="&#xcd;" horiz-adv-x="241" 
d="M37 0l128 730h79l-128 -730h-79zM178 788l145 162h100l-173 -162h-72z" />
    <glyph glyph-name="Icircumflex" unicode="&#xce;" horiz-adv-x="241" 
d="M37 0l128 730h79l-128 -730h-79zM63 788l147 162h66l91 -162h-80l-54 100l-89 -100h-81z" />
    <glyph glyph-name="Idieresis" unicode="&#xcf;" horiz-adv-x="241" 
d="M37 0l128 730h79l-128 -730h-79zM245 795l25 139h77l-24 -139h-78zM112 795l24 139h78l-25 -139h-77z" />
    <glyph glyph-name="Eth" unicode="&#xd0;" horiz-adv-x="736" 
d="M39 343l12 66h78l57 321h194q105 -1 185.5 -54t117.5 -142.5t19 -192.5q-26 -151 -137.5 -246t-263.5 -95h-243l60 343h-79zM406 343h-209l-47 -270h157q117 0 205.5 76.5t110.5 197.5q22 128 -51.5 219.5t-202.5 91.5h-117l-44 -249h209z" />
    <glyph glyph-name="Ntilde" unicode="&#xd1;" horiz-adv-x="714" 
d="M28 0l128 730h83l303 -599l105 599h79l-128 -730h-77l-308 608l-106 -608h-79zM289 788q10 55 41.5 88t76.5 33q37 0 78 -27q42 -28 61 -28q36 0 46 51h62q-11 -56 -42 -88.5t-77 -32.5q-39 0 -87 33q-34 22 -53 22q-35 0 -44 -51h-62z" />
    <glyph glyph-name="Ograve" unicode="&#xd2;" horiz-adv-x="848" 
d="M418 -10q-170 0 -270 123t-71 292q25 145 137.5 240t256.5 95q114 0 200 -60t122.5 -156t17.5 -201q-26 -145 -136.5 -239t-256.5 -94zM425 64q112 0 200.5 77t108.5 192q15 83 -12.5 159t-95 125t-159.5 49q-115 0 -203.5 -76.5t-108.5 -192.5q-23 -135 55 -234t215 -99
zM481 788l-116 162h99l88 -162h-71z" />
    <glyph glyph-name="Oacute" unicode="&#xd3;" horiz-adv-x="848" 
d="M467 788l145 162h100l-173 -162h-72zM418 -10q-170 0 -270 123t-71 292q25 145 137.5 240t256.5 95q114 0 200 -60t122.5 -156t17.5 -201q-26 -145 -136.5 -239t-256.5 -94zM425 64q112 0 200.5 77t108.5 192q15 83 -12.5 159t-95 125t-159.5 49q-115 0 -203.5 -76.5
t-108.5 -192.5q-23 -135 55 -234t215 -99z" />
    <glyph glyph-name="Ocircumflex" unicode="&#xd4;" horiz-adv-x="848" 
d="M418 -10q-170 0 -270 123t-71 292q25 145 137.5 240t256.5 95q114 0 200 -60t122.5 -156t17.5 -201q-26 -145 -136.5 -239t-256.5 -94zM425 64q112 0 200.5 77t108.5 192q15 83 -12.5 159t-95 125t-159.5 49q-115 0 -203.5 -76.5t-108.5 -192.5q-23 -135 55 -234t215 -99
zM356 788l147 162h66l91 -162h-80l-54 100l-89 -100h-81z" />
    <glyph glyph-name="Otilde" unicode="&#xd5;" horiz-adv-x="848" 
d="M418 -10q-170 0 -270 123t-71 292q25 145 137.5 240t256.5 95q114 0 200 -60t122.5 -156t17.5 -201q-26 -145 -136.5 -239t-256.5 -94zM425 64q112 0 200.5 77t108.5 192q15 83 -12.5 159t-95 125t-159.5 49q-115 0 -203.5 -76.5t-108.5 -192.5q-23 -135 55 -234t215 -99
zM341 788q10 55 41.5 88t76.5 33q37 0 78 -27q42 -28 61 -28q36 0 46 51h62q-11 -56 -42 -88.5t-77 -32.5q-39 0 -87 33q-34 22 -53 22q-35 0 -44 -51h-62z" />
    <glyph glyph-name="Odieresis" unicode="&#xd6;" horiz-adv-x="848" 
d="M528 795l25 139h77l-24 -139h-78zM395 795l24 139h78l-25 -139h-77zM418 -10q-170 0 -270 123t-71 292q25 145 137.5 240t256.5 95q114 0 200 -60t122.5 -156t17.5 -201q-26 -145 -136.5 -239t-256.5 -94zM425 64q112 0 200.5 77t108.5 192q15 83 -12.5 159t-95 125
t-159.5 49q-115 0 -203.5 -76.5t-108.5 -192.5q-23 -135 55 -234t215 -99z" />
    <glyph glyph-name="multiply" unicode="&#xd7;" horiz-adv-x="464" 
d="M96 195l-39 47l145 123l-100 123l53 45l101 -122l142 121l39 -47l-143 -121l100 -121l-54 -45l-99 120z" />
    <glyph glyph-name="Oslash" unicode="&#xd8;" horiz-adv-x="847" 
d="M418 -10q-124 0 -216 70l-56 -60h-91l99 105q-107 125 -77 300q25 145 137.5 240t256.5 95q122 0 214 -71l58 61h91l-101 -107q50 -59 71 -137t6 -163q-25 -144 -136.5 -238.5t-255.5 -94.5zM154 397q-12 -65 3 -126t53 -107l422 448q-70 54 -166 54q-115 0 -203 -76.5
t-109 -192.5zM425 66q113 0 200.5 76t108.5 191q23 132 -55 233l-422 -448q71 -52 168 -52z" />
    <glyph glyph-name="Ugrave" unicode="&#xd9;" horiz-adv-x="635" 
d="M291 -10q-118 0 -181 70.5t-42 190.5l84 479h79l-85 -485q-14 -79 23.5 -130.5t128.5 -51.5q71 0 121.5 43.5t62.5 111.5l90 512h79l-89 -507q-19 -111 -91.5 -172t-179.5 -61zM375 780l-116 162h99l88 -162h-71z" />
    <glyph glyph-name="Uacute" unicode="&#xda;" horiz-adv-x="635" 
d="M362 782l145 162h100l-173 -162h-72zM291 -10q-118 0 -181 70.5t-42 190.5l84 479h79l-85 -485q-14 -79 23.5 -130.5t128.5 -51.5q71 0 121.5 43.5t62.5 111.5l90 512h79l-89 -507q-19 -111 -91.5 -172t-179.5 -61z" />
    <glyph glyph-name="Ucircumflex" unicode="&#xdb;" horiz-adv-x="635" 
d="M291 -10q-118 0 -181 70.5t-42 190.5l84 479h79l-85 -485q-14 -79 23.5 -130.5t128.5 -51.5q71 0 121.5 43.5t62.5 111.5l90 512h79l-89 -507q-19 -111 -91.5 -172t-179.5 -61zM259 788l147 162h66l91 -162h-80l-54 100l-89 -100h-81z" />
    <glyph glyph-name="Udieresis" unicode="&#xdc;" horiz-adv-x="635" 
d="M438 789l25 139h77l-24 -139h-78zM305 789l24 139h78l-25 -139h-77zM291 -10q-118 0 -181 70.5t-42 190.5l84 479h79l-85 -485q-14 -79 23.5 -130.5t128.5 -51.5q71 0 121.5 43.5t62.5 111.5l90 512h79l-89 -507q-19 -111 -91.5 -172t-179.5 -61z" />
    <glyph glyph-name="Yacute" unicode="&#xdd;" horiz-adv-x="619" 
d="M223 0l62 352l-172 378h81l142 -311l248 311h90l-311 -386l-61 -344h-79zM356 782l145 162h100l-173 -162h-72z" />
    <glyph glyph-name="Thorn" unicode="&#xde;" horiz-adv-x="598" 
d="M18 0l128 730h79l-27 -153h164q92 0 150 -62t42 -157q-14 -81 -78 -133.5t-158 -52.5h-191l-30 -172h-79zM352 504h-167l-45 -259h183q61 0 102.5 34.5t51.5 89.5q10 56 -26.5 95.5t-98.5 39.5z" />
    <glyph glyph-name="germandbls" unicode="&#xdf;" horiz-adv-x="565" 
d="M-121 -230l13 72q66 0 94 27.5t40 94.5l101 568q36 203 220 203q93 0 143.5 -64.5t34.5 -147.5q-9 -52 -44 -89t-83 -55q60 -18 90.5 -76t18.5 -122q-15 -85 -75 -137t-152 -52q-32 0 -66 11t-51 24l16 65q40 -31 97 -31q60 0 102 36.5t52 92.5q11 65 -26.5 109.5
t-108.5 44.5h-19l12 70h19q51 0 93.5 32t51.5 84q10 54 -20.5 95.5t-88.5 41.5q-52 0 -89.5 -34t-47.5 -95l-102 -573q-18 -103 -67.5 -149t-145.5 -46h-12z" />
    <glyph glyph-name="agrave" unicode="&#xe0;" horiz-adv-x="648" 
d="M287 -10q-119 0 -186.5 87t-46.5 205q17 99 93 163.5t173 64.5q68 0 118 -30t75 -80l18 100h77l-66 -366q-7 -38 3 -52.5t43 -14.5h13l-14 -67h-38q-76 0 -84 69q-71 -79 -178 -79zM296 61q69 0 124.5 47.5t68.5 120.5q16 84 -30.5 147t-135.5 64q-70 0 -126 -47
t-69 -121q-14 -84 34 -147.5t134 -63.5zM320 558l-116 162h99l88 -162h-71z" />
    <glyph glyph-name="aacute" unicode="&#xe1;" horiz-adv-x="648" 
d="M287 -10q-119 0 -186.5 87t-46.5 205q17 99 93 163.5t173 64.5q68 0 118 -30t75 -80l18 100h77l-66 -366q-7 -38 3 -52.5t43 -14.5h13l-14 -67h-38q-76 0 -84 69q-71 -79 -178 -79zM296 61q69 0 124.5 47.5t68.5 120.5q16 84 -30.5 147t-135.5 64q-70 0 -126 -47
t-69 -121q-14 -84 34 -147.5t134 -63.5zM303 558l145 162h100l-173 -162h-72z" />
    <glyph glyph-name="acircumflex" unicode="&#xe2;" horiz-adv-x="648" 
d="M287 -10q-119 0 -186.5 87t-46.5 205q17 99 93 163.5t173 64.5q68 0 118 -30t75 -80l18 100h77l-66 -366q-7 -38 3 -52.5t43 -14.5h13l-14 -67h-38q-76 0 -84 69q-71 -79 -178 -79zM296 61q69 0 124.5 47.5t68.5 120.5q16 84 -30.5 147t-135.5 64q-70 0 -126 -47
t-69 -121q-14 -84 34 -147.5t134 -63.5zM215 558l147 162h66l91 -162h-80l-54 100l-89 -100h-81z" />
    <glyph glyph-name="atilde" unicode="&#xe3;" horiz-adv-x="648" 
d="M287 -10q-119 0 -186.5 87t-46.5 205q17 99 93 163.5t173 64.5q68 0 118 -30t75 -80l18 100h77l-66 -366q-7 -38 3 -52.5t43 -14.5h13l-14 -67h-38q-76 0 -84 69q-71 -79 -178 -79zM296 61q69 0 124.5 47.5t68.5 120.5q16 84 -30.5 147t-135.5 64q-70 0 -126 -47
t-69 -121q-14 -84 34 -147.5t134 -63.5zM197 558q10 55 41.5 88t76.5 33q37 0 78 -27q42 -28 61 -28q36 0 46 51h62q-11 -56 -42 -88.5t-77 -32.5q-39 0 -87 33q-34 22 -53 22q-35 0 -44 -51h-62z" />
    <glyph glyph-name="adieresis" unicode="&#xe4;" horiz-adv-x="648" 
d="M287 -10q-119 0 -186.5 87t-46.5 205q17 99 93 163.5t173 64.5q68 0 118 -30t75 -80l18 100h77l-66 -366q-7 -38 3 -52.5t43 -14.5h13l-14 -67h-38q-76 0 -84 69q-71 -79 -178 -79zM296 61q69 0 124.5 47.5t68.5 120.5q16 84 -30.5 147t-135.5 64q-70 0 -126 -47
t-69 -121q-14 -84 34 -147.5t134 -63.5zM392 565l25 139h77l-24 -139h-78zM259 565l24 139h78l-25 -139h-77z" />
    <glyph glyph-name="aring" unicode="&#xe5;" horiz-adv-x="648" 
d="M287 -10q-119 0 -186.5 87t-46.5 205q17 99 93 163.5t173 64.5q68 0 118 -30t75 -80l18 100h77l-66 -366q-7 -38 3 -52.5t43 -14.5h13l-14 -67h-38q-76 0 -84 69q-71 -79 -178 -79zM296 61q69 0 124.5 47.5t68.5 120.5q16 84 -30.5 147t-135.5 64q-70 0 -126 -47
t-69 -121q-14 -84 34 -147.5t134 -63.5zM367 551q-49 0 -77.5 38t-15.5 88q11 39 42.5 64t71.5 25q50 0 78.5 -38t15.5 -86q-11 -40 -42 -65.5t-73 -25.5zM372 610q19 0 34 12.5t19 29.5q5 22 -7.5 39t-35.5 17q-17 0 -32 -12t-19 -30q-5 -22 6.5 -39t34.5 -17z" />
    <glyph glyph-name="ae" unicode="&#xe6;" horiz-adv-x="939" 
d="M205 -10q-89 0 -129.5 42.5t-32.5 103.5q8 66 57.5 97t141.5 50q10 2 30.5 6t31 6t28 6t27 7t23 8t20.5 10t15 11.5t12 14t5 16.5q6 34 -24 58t-91 24q-71 0 -115 -30t-53 -85h-70q13 83 76.5 129t163.5 46q64 0 108 -21.5t63 -58.5q85 80 206 80q99 0 156 -49t44 -119
q-12 -68 -74 -107t-161 -38q-93 -1 -189 38q-3 -78 48 -127.5t135 -49.5q96 0 156 69l59 -41q-80 -96 -219 -96q-79 0 -137 32.5t-87 88.5q-33 -52 -91.5 -86.5t-132.5 -34.5zM699 443q-70 0 -129 -39t-83 -104q95 -35 171 -35q72 0 114 23.5t50 64.5q6 37 -27 63.5
t-96 26.5zM213 54q61 0 113 36.5t81 87.5q-6 37 -2 73q1 6 5 18q-21 -17 -124 -39q-13 -3 -20 -4q-74 -15 -108 -32.5t-40 -58.5q-5 -35 18.5 -58t76.5 -23z" />
    <glyph glyph-name="ccedilla" unicode="&#xe7;" horiz-adv-x="581" 
d="M243 -234q-98 0 -150 59l66 37q38 -38 87 -38q63 0 70 38q4 19 -13 28.5t-53 9.5h-41l17 98q-94 22 -142.5 102.5t-30.5 181.5q17 99 94 163.5t178 64.5q76 0 134.5 -36t86.5 -95l-70 -35q-44 95 -154 96q-70 0 -126 -47t-69 -121q-14 -84 34 -147.5t134 -63.5
q50 0 93.5 25.5t70.5 70.5l70 -34q-37 -62 -99.5 -97.5t-138.5 -35.5l-9 -45q58 -3 84 -27.5t20 -62.5q-7 -40 -46.5 -64.5t-96.5 -24.5z" />
    <glyph glyph-name="egrave" unicode="&#xe8;" horiz-adv-x="586" 
d="M300 -10q-131 0 -199 85t-47 206q18 103 102 166t187 63q102 0 157.5 -51t42.5 -119q-12 -67 -73 -105.5t-160 -37.5q-95 -1 -189 37q-2 -78 48 -127t135 -49q98 0 156 75l61 -37q-78 -106 -221 -106zM344 443q-71 0 -130 -39.5t-81 -103.5q95 -35 171 -35q73 0 115 22.5
t49 63.5q6 37 -26 64.5t-98 27.5zM319 558l-116 162h99l88 -162h-71z" />
    <glyph glyph-name="eacute" unicode="&#xe9;" horiz-adv-x="586" 
d="M300 -10q-131 0 -199 85t-47 206q18 103 102 166t187 63q102 0 157.5 -51t42.5 -119q-12 -67 -73 -105.5t-160 -37.5q-95 -1 -189 37q-2 -78 48 -127t135 -49q98 0 156 75l61 -37q-78 -106 -221 -106zM344 443q-71 0 -130 -39.5t-81 -103.5q95 -35 171 -35q73 0 115 22.5
t49 63.5q6 37 -26 64.5t-98 27.5zM302 558l145 162h100l-173 -162h-72z" />
    <glyph glyph-name="ecircumflex" unicode="&#xea;" horiz-adv-x="586" 
d="M300 -10q-131 0 -199 85t-47 206q18 103 102 166t187 63q102 0 157.5 -51t42.5 -119q-12 -67 -73 -105.5t-160 -37.5q-95 -1 -189 37q-2 -78 48 -127t135 -49q98 0 156 75l61 -37q-78 -106 -221 -106zM344 443q-71 0 -130 -39.5t-81 -103.5q95 -35 171 -35q73 0 115 22.5
t49 63.5q6 37 -26 64.5t-98 27.5zM197 558l147 162h66l91 -162h-80l-54 100l-89 -100h-81z" />
    <glyph glyph-name="edieresis" unicode="&#xeb;" horiz-adv-x="586" 
d="M300 -10q-131 0 -199 85t-47 206q18 103 102 166t187 63q102 0 157.5 -51t42.5 -119q-12 -67 -73 -105.5t-160 -37.5q-95 -1 -189 37q-2 -78 48 -127t135 -49q98 0 156 75l61 -37q-78 -106 -221 -106zM344 443q-71 0 -130 -39.5t-81 -103.5q95 -35 171 -35q73 0 115 22.5
t49 63.5q6 37 -26 64.5t-98 27.5zM255 565l24 139h78l-25 -139h-77zM388 565l25 139h77l-24 -139h-78z" />
    <glyph glyph-name="igrave" unicode="&#xec;" horiz-adv-x="237" 
d="M131 0q-105 0 -82 126l65 374h78l-65 -368q-5 -33 3.5 -49t36.5 -16h15l-14 -67h-37zM123 558l-116 162h99l88 -162h-71z" />
    <glyph glyph-name="iacute" unicode="&#xed;" horiz-adv-x="237" 
d="M131 0q-105 0 -82 126l65 374h78l-65 -368q-5 -33 3.5 -49t36.5 -16h15l-14 -67h-37zM121 558l145 162h100l-173 -162h-72z" />
    <glyph glyph-name="icircumflex" unicode="&#xee;" horiz-adv-x="237" 
d="M131 0q-105 0 -82 126l65 374h78l-65 -368q-5 -33 3.5 -49t36.5 -16h15l-14 -67h-37zM12 558l147 162h66l91 -162h-80l-54 100l-89 -100h-81z" />
    <glyph glyph-name="idieresis" unicode="&#xef;" horiz-adv-x="237" 
d="M131 0q-105 0 -82 126l65 374h78l-65 -368q-5 -33 3.5 -49t36.5 -16h15l-14 -67h-37zM190 565l25 139h77l-24 -139h-78zM57 565l24 139h78l-25 -139h-77z" />
    <glyph glyph-name="eth" unicode="&#xf0;" horiz-adv-x="620" 
d="M222 572l10 57l71 19q-43 40 -97 82h116q44 -40 62 -59l119 33l-9 -57l-70 -19q179 -208 141 -411q-20 -104 -93.5 -165.5t-179.5 -61.5q-116 0 -186 78t-55 194q12 106 87.5 172.5t174.5 66.5q97 0 155 -55q-36 73 -121 160zM297 59q68 0 122.5 46t67.5 115
q18 83 -27.5 148.5t-138.5 65.5q-69 0 -122.5 -45.5t-67.5 -117.5q-16 -83 31.5 -147.5t134.5 -64.5z" />
    <glyph glyph-name="ntilde" unicode="&#xf1;" horiz-adv-x="611" 
d="M37 0l69 363q7 36 -3 53t-40 17h-15l12 67h37q72 0 82 -67q67 77 174 77q98 0 151.5 -67t33.5 -169l-28 -144q-8 -37 -0.5 -50t41.5 -13h16l-14 -67h-36q-59 0 -78.5 31.5t-7.5 94.5l29 150q14 75 -17 121t-98 46q-74 0 -118.5 -45.5t-59.5 -124.5l-52 -273h-78zM192 558
q10 55 41.5 88t76.5 33q38 0 78 -27q42 -28 61 -28q35 0 46 51h62q-11 -56 -42 -88.5t-77 -32.5q-39 0 -87 33q-34 22 -53 22q-35 0 -44 -51h-62z" />
    <glyph glyph-name="ograve" unicode="&#xf2;" horiz-adv-x="616" 
d="M291 -10q-123 0 -191 87t-47 205q17 99 94 163.5t178 64.5q122 0 190.5 -87.5t47.5 -205.5q-17 -99 -93 -163t-179 -64zM295 61q70 0 125.5 46.5t68.5 119.5q15 82 -32.5 147t-134.5 66q-70 0 -126 -47t-69 -121q-14 -84 34 -147.5t134 -63.5zM307 558l-116 162h99
l88 -162h-71z" />
    <glyph glyph-name="oacute" unicode="&#xf3;" horiz-adv-x="616" 
d="M297 558l145 162h100l-173 -162h-72zM291 -10q-123 0 -191 87t-47 205q17 99 94 163.5t178 64.5q122 0 190.5 -87.5t47.5 -205.5q-17 -99 -93 -163t-179 -64zM295 61q70 0 125.5 46.5t68.5 119.5q15 82 -32.5 147t-134.5 66q-70 0 -126 -47t-69 -121q-14 -84 34 -147.5
t134 -63.5z" />
    <glyph glyph-name="ocircumflex" unicode="&#xf4;" horiz-adv-x="616" 
d="M291 -10q-123 0 -191 87t-47 205q17 99 94 163.5t178 64.5q122 0 190.5 -87.5t47.5 -205.5q-17 -99 -93 -163t-179 -64zM295 61q70 0 125.5 46.5t68.5 119.5q15 82 -32.5 147t-134.5 66q-70 0 -126 -47t-69 -121q-14 -84 34 -147.5t134 -63.5zM183 558l147 162h66
l91 -162h-80l-54 100l-89 -100h-81z" />
    <glyph glyph-name="otilde" unicode="&#xf5;" horiz-adv-x="616" 
d="M291 -10q-123 0 -191 87t-47 205q17 99 94 163.5t178 64.5q122 0 190.5 -87.5t47.5 -205.5q-17 -99 -93 -163t-179 -64zM295 61q70 0 125.5 46.5t68.5 119.5q15 82 -32.5 147t-134.5 66q-70 0 -126 -47t-69 -121q-14 -84 34 -147.5t134 -63.5zM162 558q10 55 41.5 88
t76.5 33q38 0 78 -27q42 -28 61 -28q35 0 46 51h62q-11 -56 -42 -88.5t-77 -32.5q-39 0 -87 33q-34 22 -53 22q-35 0 -44 -51h-62z" />
    <glyph glyph-name="odieresis" unicode="&#xf6;" horiz-adv-x="616" 
d="M362 565l25 139h77l-24 -139h-78zM229 565l24 139h78l-25 -139h-77zM291 -10q-123 0 -191 87t-47 205q17 99 94 163.5t178 64.5q122 0 190.5 -87.5t47.5 -205.5q-17 -99 -93 -163t-179 -64zM295 61q70 0 125.5 46.5t68.5 119.5q15 82 -32.5 147t-134.5 66q-70 0 -126 -47
t-69 -121q-14 -84 34 -147.5t134 -63.5z" />
    <glyph glyph-name="divide" unicode="&#xf7;" horiz-adv-x="464" 
d="M56 332l12 66h370l-12 -66h-370zM230 449l21 120h66l-21 -120h-66zM179 160l21 120h66l-21 -120h-66z" />
    <glyph glyph-name="oslash" unicode="&#xf8;" horiz-adv-x="616" 
d="M34 0l69 73q-72 86 -50 209q17 99 94 163.5t178 64.5q84 0 146 -46l34 36h80l-71 -76q71 -87 49 -207q-17 -99 -93 -163t-179 -64q-84 0 -145 44l-32 -34h-80zM127 272q-14 -80 29 -142l264 280q-43 29 -98 30q-70 0 -126 -47t-69 -121zM295 61q70 0 125.5 46.5
t68.5 119.5q14 77 -28 141l-263 -279q42 -28 97 -28z" />
    <glyph glyph-name="ugrave" unicode="&#xf9;" horiz-adv-x="601" 
d="M255 -9q-98 0 -150 67t-32 169l27 136q7 39 -2 54.5t-40 15.5h-13l11 67h46q102 0 77 -130l-28 -145q-14 -75 16.5 -121t97.5 -46q71 0 114.5 48t54.5 121l51 273h78l-68 -363q-13 -70 42 -70h17l-12 -67h-40q-75 0 -83 62q-65 -71 -164 -71zM294 558l-116 162h99
l88 -162h-71z" />
    <glyph glyph-name="uacute" unicode="&#xfa;" horiz-adv-x="601" 
d="M255 -9q-98 0 -150 67t-32 169l27 136q7 39 -2 54.5t-40 15.5h-13l11 67h46q102 0 77 -130l-28 -145q-14 -75 16.5 -121t97.5 -46q71 0 114.5 48t54.5 121l51 273h78l-68 -363q-13 -70 42 -70h17l-12 -67h-40q-75 0 -83 62q-65 -71 -164 -71zM278 558l145 162h100
l-173 -162h-72z" />
    <glyph glyph-name="ucircumflex" unicode="&#xfb;" horiz-adv-x="601" 
d="M255 -9q-98 0 -150 67t-32 169l27 136q7 39 -2 54.5t-40 15.5h-13l11 67h46q102 0 77 -130l-28 -145q-14 -75 16.5 -121t97.5 -46q71 0 114.5 48t54.5 121l51 273h78l-68 -363q-13 -70 42 -70h17l-12 -67h-40q-75 0 -83 62q-65 -71 -164 -71zM180 558l147 162h66l91 -162
h-80l-54 100l-89 -100h-81z" />
    <glyph glyph-name="udieresis" unicode="&#xfc;" horiz-adv-x="601" 
d="M255 -9q-98 0 -150 67t-32 169l27 136q7 39 -2 54.5t-40 15.5h-13l11 67h46q102 0 77 -130l-28 -145q-14 -75 16.5 -121t97.5 -46q71 0 114.5 48t54.5 121l51 273h78l-68 -363q-13 -70 42 -70h17l-12 -67h-40q-75 0 -83 62q-65 -71 -164 -71zM238 565l24 139h78l-25 -139
h-77zM371 565l25 139h77l-24 -139h-78z" />
    <glyph glyph-name="yacute" unicode="&#xfd;" horiz-adv-x="586" 
d="M223 -240q-77 0 -134 39.5t-78 102.5l74 23q33 -95 144 -95q131 0 165 178l7 36q-62 -53 -146 -53q-98 0 -150 67t-32 169l27 136q7 39 -2 54.5t-40 15.5h-13l11 67h46q102 0 77 -130l-28 -145q-14 -75 16.5 -121t97.5 -46q71 0 114.5 48t54.5 121l51 273h76l-90 -490
q-21 -122 -79.5 -186t-168.5 -64zM265 558l145 162h100l-173 -162h-72z" />
    <glyph glyph-name="thorn" unicode="&#xfe;" horiz-adv-x="631" 
d="M315 -10q-73 0 -121.5 31.5t-69.5 84.5l-59 -336h-77l169 960h77q-31 -175 -53 -296q73 76 176 76q113 0 177 -85t43 -204q-17 -102 -92 -166.5t-170 -64.5zM309 61q71 0 126.5 48.5t68.5 120.5q15 85 -32 147.5t-132 62.5q-71 0 -127.5 -51t-68.5 -126q-15 -84 31 -143
t134 -59z" />
    <glyph glyph-name="ydieresis" unicode="&#xff;" horiz-adv-x="586" 
d="M223 -240q-77 0 -134 39.5t-78 102.5l74 23q33 -95 144 -95q131 0 165 178l7 36q-62 -53 -146 -53q-98 0 -150 67t-32 169l27 136q7 39 -2 54.5t-40 15.5h-13l11 67h46q102 0 77 -130l-28 -145q-14 -75 16.5 -121t97.5 -46q71 0 114.5 48t54.5 121l51 273h76l-90 -490
q-21 -122 -79.5 -186t-168.5 -64zM217 565l24 139h78l-25 -139h-77zM350 565l25 139h77l-24 -139h-78z" />
    <glyph glyph-name="Amacron" unicode="&#x100;" horiz-adv-x="687" 
d="M-14 0l408 730h78l142 -730h-80l-35 185h-327l-102 -185h-84zM416 625l-203 -366h272zM309 788l13 67h264l-13 -67h-264z" />
    <glyph glyph-name="amacron" unicode="&#x101;" horiz-adv-x="648" 
d="M287 -10q-119 0 -186.5 87t-46.5 205q17 99 93 163.5t173 64.5q68 0 118 -30t75 -80l18 100h77l-66 -366q-7 -38 3 -52.5t43 -14.5h13l-14 -67h-38q-76 0 -84 69q-71 -79 -178 -79zM296 61q69 0 124.5 47.5t68.5 120.5q16 84 -30.5 147t-135.5 64q-70 0 -126 -47
t-69 -121q-14 -84 34 -147.5t134 -63.5zM243 558l13 67h264l-13 -67h-264z" />
    <glyph glyph-name="Abreve" unicode="&#x102;" horiz-adv-x="687" 
d="M-14 0l408 730h78l142 -730h-80l-35 185h-327l-102 -185h-84zM416 625l-203 -366h272zM439 784q-77 0 -112 46.5t-22 116.5h67q-9 -47 11.5 -75.5t65.5 -29.5q45 1 74 29t38 76h67q-13 -70 -63.5 -116.5t-125.5 -46.5z" />
    <glyph glyph-name="abreve" unicode="&#x103;" horiz-adv-x="648" 
d="M287 -10q-119 0 -186.5 87t-46.5 205q17 99 93 163.5t173 64.5q68 0 118 -30t75 -80l18 100h77l-66 -366q-7 -38 3 -52.5t43 -14.5h13l-14 -67h-38q-76 0 -84 69q-71 -79 -178 -79zM296 61q69 0 124.5 47.5t68.5 120.5q16 84 -30.5 147t-135.5 64q-70 0 -126 -47
t-69 -121q-14 -84 34 -147.5t134 -63.5zM362 552q-77 0 -112 46.5t-22 116.5h67q-9 -47 11.5 -75.5t65.5 -29.5q45 1 74 29t38 76h67q-13 -70 -63.5 -116.5t-125.5 -46.5z" />
    <glyph glyph-name="Aogonek" unicode="&#x104;" horiz-adv-x="687" 
d="M512 -218q-58 0 -91.5 31.5t-25.5 74.5q6 37 36.5 67.5t98.5 64.5l-31 165h-327l-102 -185h-84l408 730h78l142 -730q-84 -46 -111 -67.5t-31 -43.5q-4 -20 10 -31.5t38 -11.5q37 0 82 34l54 -42q-72 -56 -144 -56zM416 625l-203 -366h272z" />
    <glyph glyph-name="aogonek" unicode="&#x105;" horiz-adv-x="648" 
d="M287 -10q-119 0 -186.5 87t-46.5 205q17 99 93 163.5t173 64.5q68 0 118 -30t75 -80l18 100h77l-66 -366q-7 -38 3 -52.5t43 -14.5h13l-14 -67q-84 -46 -111 -67.5t-31 -43.5q-4 -20 10 -31.5t38 -11.5q37 0 82 34l54 -42q-72 -56 -144 -56q-58 0 -91.5 31.5t-25.5 74.5
q6 35 34.5 65t91.5 62q-24 17 -29 54q-71 -79 -178 -79zM296 61q69 0 124.5 47.5t68.5 120.5q16 84 -30.5 147t-135.5 64q-70 0 -126 -47t-69 -121q-14 -84 34 -147.5t134 -63.5z" />
    <glyph glyph-name="Cacute" unicode="&#x106;" horiz-adv-x="792" 
d="M480 788l145 162h100l-173 -162h-72zM412 -10q-113 0 -197 56.5t-119.5 151.5t-16.5 206q25 144 140.5 240t267.5 96q104 0 188.5 -53t122.5 -138l-76 -35q-63 151 -245 151q-116 0 -207.5 -77t-112.5 -194q-23 -131 50.5 -230t211.5 -99q83 0 154 41t113 113l71 -34
q-52 -91 -141.5 -143t-203.5 -52z" />
    <glyph glyph-name="cacute" unicode="&#x107;" horiz-adv-x="581" 
d="M313 558l145 162h100l-173 -162h-72zM291 -10q-123 0 -191 87t-47 205q17 99 94 163.5t178 64.5q76 0 134.5 -36t86.5 -95l-70 -35q-44 95 -154 96q-70 0 -126 -47t-69 -121q-14 -84 34 -147.5t134 -63.5q50 0 93.5 25.5t70.5 70.5l70 -34q-37 -62 -99.5 -97.5
t-138.5 -35.5z" />
    <glyph glyph-name="Ccircumflex" unicode="&#x108;" horiz-adv-x="792" 
d="M412 -10q-113 0 -197 56.5t-119.5 151.5t-16.5 206q25 144 140.5 240t267.5 96q104 0 188.5 -53t122.5 -138l-76 -35q-63 151 -245 151q-116 0 -207.5 -77t-112.5 -194q-23 -131 50.5 -230t211.5 -99q83 0 154 41t113 113l71 -34q-52 -91 -141.5 -143t-203.5 -52z
M368 788l147 162h66l91 -162h-80l-54 100l-89 -100h-81z" />
    <glyph glyph-name="ccircumflex" unicode="&#x109;" horiz-adv-x="581" 
d="M291 -10q-123 0 -191 87t-47 205q17 99 94 163.5t178 64.5q76 0 134.5 -36t86.5 -95l-70 -35q-44 95 -154 96q-70 0 -126 -47t-69 -121q-14 -84 34 -147.5t134 -63.5q50 0 93.5 25.5t70.5 70.5l70 -34q-37 -62 -99.5 -97.5t-138.5 -35.5zM208 558l147 162h66l91 -162h-80
l-54 100l-89 -100h-81z" />
    <glyph glyph-name="Cdotaccent" unicode="&#x10a;" horiz-adv-x="792" 
d="M412 -10q-113 0 -197 56.5t-119.5 151.5t-16.5 206q25 144 140.5 240t267.5 96q104 0 188.5 -53t122.5 -138l-76 -35q-63 151 -245 151q-116 0 -207.5 -77t-112.5 -194q-23 -131 50.5 -230t211.5 -99q83 0 154 41t113 113l71 -34q-52 -91 -141.5 -143t-203.5 -52z
M482 795l24 139h77l-24 -139h-77z" />
    <glyph glyph-name="cdotaccent" unicode="&#x10b;" horiz-adv-x="581" 
d="M291 -10q-123 0 -191 87t-47 205q17 99 94 163.5t178 64.5q76 0 134.5 -36t86.5 -95l-70 -35q-44 95 -154 96q-70 0 -126 -47t-69 -121q-14 -84 34 -147.5t134 -63.5q50 0 93.5 25.5t70.5 70.5l70 -34q-37 -62 -99.5 -97.5t-138.5 -35.5zM320 565l24 139h77l-24 -139h-77
z" />
    <glyph glyph-name="Ccaron" unicode="&#x10c;" horiz-adv-x="792" 
d="M412 -10q-113 0 -197 56.5t-119.5 151.5t-16.5 206q25 144 140.5 240t267.5 96q104 0 188.5 -53t122.5 -138l-76 -35q-63 151 -245 151q-116 0 -207.5 -77t-112.5 -194q-23 -131 50.5 -230t211.5 -99q83 0 154 41t113 113l71 -34q-52 -91 -141.5 -143t-203.5 -52z
M478 788l-91 162h80l54 -100l89 100h81l-148 -162h-65z" />
    <glyph glyph-name="ccaron" unicode="&#x10d;" horiz-adv-x="581" 
d="M291 -10q-123 0 -191 87t-47 205q17 99 94 163.5t178 64.5q76 0 134.5 -36t86.5 -95l-70 -35q-44 95 -154 96q-70 0 -126 -47t-69 -121q-14 -84 34 -147.5t134 -63.5q50 0 93.5 25.5t70.5 70.5l70 -34q-37 -62 -99.5 -97.5t-138.5 -35.5zM326 558l-91 162h80l54 -100
l89 100h81l-148 -162h-65z" />
    <glyph glyph-name="Dcaron" unicode="&#x10e;" horiz-adv-x="706" 
d="M28 0l128 730h194q105 -1 185.5 -54t117.5 -142.5t19 -192.5q-26 -151 -137.5 -246t-263.5 -95h-243zM339 658h-117l-102 -585h157q117 0 205.5 76.5t110.5 197.5q22 128 -51.5 219.5t-202.5 91.5zM359 788l-91 162h80l54 -100l89 100h81l-148 -162h-65z" />
    <glyph glyph-name="dcaron" unicode="&#x10f;" horiz-adv-x="683" 
d="M286 -10q-119 0 -186.5 87t-46.5 205q17 99 93 163.5t173 64.5q67 0 116.5 -29t75.5 -78l60 327h77l-107 -596q-7 -38 3 -52.5t43 -14.5h13l-14 -67h-38q-76 0 -84 68q-70 -78 -178 -78zM295 61q69 0 124.5 47.5t68.5 120.5q16 84 -30.5 147t-135.5 64q-70 0 -126 -47
t-69 -121q-14 -84 34 -147.5t134 -63.5zM680 567l108 162h81l-124 -162h-65z" />
    <glyph glyph-name="Dcroat" unicode="&#x110;" horiz-adv-x="736" 
d="M39 343l12 66h78l57 321h194q105 -1 185.5 -54t117.5 -142.5t19 -192.5q-26 -151 -137.5 -246t-263.5 -95h-243l60 343h-79zM406 343h-209l-47 -270h157q117 0 205.5 76.5t110.5 197.5q22 128 -51.5 219.5t-202.5 91.5h-117l-44 -249h209z" />
    <glyph glyph-name="dcroat" unicode="&#x111;" horiz-adv-x="666" 
d="M423 565l9 50h117l21 115h77l-21 -115h66l-9 -50h-66l-77 -431q-7 -38 3 -52.5t43 -14.5h13l-14 -67h-38q-76 0 -84 68q-70 -78 -178 -78q-119 0 -186.5 87t-46.5 205q17 99 93 163.5t173 64.5q67 0 116.5 -29t75.5 -78l30 162h-117zM294 61q69 0 124.5 47.5t68.5 120.5
q16 84 -30.5 147t-135.5 64q-70 0 -126 -47t-69 -121q-14 -84 34 -147.5t134 -63.5z" />
    <glyph glyph-name="Emacron" unicode="&#x112;" horiz-adv-x="575" 
d="M28 0l128 730h443l-13 -73h-364l-44 -250h365l-14 -74h-364l-45 -259h364l-13 -74h-443zM257 788l13 67h264l-13 -67h-264z" />
    <glyph glyph-name="emacron" unicode="&#x113;" horiz-adv-x="586" 
d="M300 -10q-131 0 -199 85t-47 206q18 103 102 166t187 63q102 0 157.5 -51t42.5 -119q-12 -67 -73 -105.5t-160 -37.5q-95 -1 -189 37q-2 -78 48 -127t135 -49q98 0 156 75l61 -37q-78 -106 -221 -106zM344 443q-71 0 -130 -39.5t-81 -103.5q95 -35 171 -35q73 0 115 22.5
t49 63.5q6 37 -26 64.5t-98 27.5zM220 558l13 67h264l-13 -67h-264z" />
    <glyph glyph-name="Ebreve" unicode="&#x114;" horiz-adv-x="575" 
d="M28 0l128 730h443l-13 -73h-364l-44 -250h365l-14 -74h-364l-45 -259h364l-13 -74h-443zM385 784q-77 0 -112 46.5t-22 116.5h67q-9 -47 11.5 -75.5t65.5 -29.5q45 1 74 29t38 76h67q-13 -70 -63.5 -116.5t-125.5 -46.5z" />
    <glyph glyph-name="ebreve" unicode="&#x115;" horiz-adv-x="586" 
d="M300 -10q-131 0 -199 85t-47 206q18 103 102 166t187 63q102 0 157.5 -51t42.5 -119q-12 -67 -73 -105.5t-160 -37.5q-95 -1 -189 37q-2 -78 48 -127t135 -49q98 0 156 75l61 -37q-78 -106 -221 -106zM344 443q-71 0 -130 -39.5t-81 -103.5q95 -35 171 -35q73 0 115 22.5
t49 63.5q6 37 -26 64.5t-98 27.5zM355 552q-77 0 -112 46.5t-22 116.5h67q-9 -47 11.5 -75.5t65.5 -29.5q45 1 74 29t38 76h67q-13 -70 -63.5 -116.5t-125.5 -46.5z" />
    <glyph glyph-name="Edotaccent" unicode="&#x116;" horiz-adv-x="575" 
d="M28 0l128 730h443l-13 -73h-364l-44 -250h365l-14 -74h-364l-45 -259h364l-13 -74h-443zM363 795l24 139h77l-24 -139h-77z" />
    <glyph glyph-name="edotaccent" unicode="&#x117;" horiz-adv-x="586" 
d="M300 -10q-131 0 -199 85t-47 206q18 103 102 166t187 63q102 0 157.5 -51t42.5 -119q-12 -67 -73 -105.5t-160 -37.5q-95 -1 -189 37q-2 -78 48 -127t135 -49q98 0 156 75l61 -37q-78 -106 -221 -106zM344 443q-71 0 -130 -39.5t-81 -103.5q95 -35 171 -35q73 0 115 22.5
t49 63.5q6 37 -26 64.5t-98 27.5zM314 565l24 139h77l-24 -139h-77z" />
    <glyph glyph-name="Eogonek" unicode="&#x118;" horiz-adv-x="575" 
d="M28 0l128 730h443l-13 -73h-364l-44 -250h365l-14 -74h-364l-45 -259h364l-13 -74h1q-84 -46 -111 -67.5t-31 -43.5q-4 -20 10 -31.5t38 -11.5q37 0 82 34l54 -42q-72 -56 -144 -56q-58 0 -91.5 31.5t-25.5 74.5q11 63 98 112h-323z" />
    <glyph glyph-name="eogonek" unicode="&#x119;" horiz-adv-x="586" 
d="M231 -221q-58 0 -91.5 31.5t-25.5 74.5q11 64 104 115q-93 26 -137 104t-27 177q18 103 102 166t187 63q102 0 157.5 -51t42.5 -119q-12 -67 -73 -105.5t-160 -37.5q-95 -1 -189 37q-2 -78 48 -127t135 -49q98 0 156 75l61 -37q-72 -98 -200 -105q-75 -42 -100.5 -62.5
t-29.5 -42.5q-4 -20 10 -31.5t38 -11.5q37 0 82 34l54 -42q-72 -56 -144 -56zM344 443q-71 0 -130 -39.5t-81 -103.5q95 -35 171 -35q73 0 115 22.5t49 63.5q6 37 -26 64.5t-98 27.5z" />
    <glyph glyph-name="Ecaron" unicode="&#x11a;" horiz-adv-x="575" 
d="M28 0l128 730h443l-13 -73h-364l-44 -250h365l-14 -74h-364l-45 -259h364l-13 -74h-443zM356 788l-91 162h80l54 -100l89 100h81l-148 -162h-65z" />
    <glyph glyph-name="ecaron" unicode="&#x11b;" horiz-adv-x="586" 
d="M300 -10q-131 0 -199 85t-47 206q18 103 102 166t187 63q102 0 157.5 -51t42.5 -119q-12 -67 -73 -105.5t-160 -37.5q-95 -1 -189 37q-2 -78 48 -127t135 -49q98 0 156 75l61 -37q-78 -106 -221 -106zM344 443q-71 0 -130 -39.5t-81 -103.5q95 -35 171 -35q73 0 115 22.5
t49 63.5q6 37 -26 64.5t-98 27.5zM322 558l-91 162h80l54 -100l89 100h81l-148 -162h-65z" />
    <glyph glyph-name="Gcircumflex" unicode="&#x11c;" horiz-adv-x="842" 
d="M420 -10q-171 0 -271.5 123t-71.5 292q24 144 136 239.5t264 95.5q105 0 186.5 -49.5t125.5 -132.5l-75 -40q-74 147 -245 147q-118 0 -206 -77t-109 -191q-23 -132 55 -231.5t218 -99.5q113 0 191 68.5t102 176.5h-297l13 74h380l-5 -28q-20 -162 -125.5 -264.5
t-265.5 -102.5zM344 788l147 162h66l91 -162h-80l-54 100l-89 -100h-81z" />
    <glyph glyph-name="gcircumflex" unicode="&#x11d;" horiz-adv-x="635" 
d="M286 -10q-119 0 -186.5 87t-46.5 205q17 99 93 163.5t173 64.5q68 0 118 -30t75 -79l18 99h78l-87 -490q-44 -250 -264 -250q-82 0 -142 37.5t-85 101.5l78 25q36 -94 154 -94q150 0 181 178l1 6q1 5 3 17.5t4 24.5q-66 -66 -165 -66zM295 61q69 0 124.5 47.5t68.5 120.5
q16 84 -30.5 147t-135.5 64q-70 0 -126 -47t-69 -121q-14 -84 34 -147.5t134 -63.5zM211 558l147 162h66l91 -162h-80l-54 100l-89 -100h-81z" />
    <glyph glyph-name="Gbreve" unicode="&#x11e;" horiz-adv-x="842" 
d="M420 -10q-171 0 -271.5 123t-71.5 292q24 144 136 239.5t264 95.5q105 0 186.5 -49.5t125.5 -132.5l-75 -40q-74 147 -245 147q-118 0 -206 -77t-109 -191q-23 -132 55 -231.5t218 -99.5q113 0 191 68.5t102 176.5h-297l13 74h380l-5 -28q-20 -162 -125.5 -264.5
t-265.5 -102.5zM498 784q-77 0 -112 46.5t-22 116.5h67q-9 -47 11.5 -75.5t65.5 -29.5q45 1 74 29t38 76h67q-13 -70 -63.5 -116.5t-125.5 -46.5z" />
    <glyph glyph-name="gbreve" unicode="&#x11f;" horiz-adv-x="635" 
d="M286 -10q-119 0 -186.5 87t-46.5 205q17 99 93 163.5t173 64.5q68 0 118 -30t75 -79l18 99h78l-87 -490q-44 -250 -264 -250q-82 0 -142 37.5t-85 101.5l78 25q36 -94 154 -94q150 0 181 178l1 6q1 5 3 17.5t4 24.5q-66 -66 -165 -66zM295 61q69 0 124.5 47.5t68.5 120.5
q16 84 -30.5 147t-135.5 64q-70 0 -126 -47t-69 -121q-14 -84 34 -147.5t134 -63.5zM366 552q-77 0 -112 46.5t-22 116.5h67q-9 -47 11.5 -75.5t65.5 -29.5q45 1 74 29t38 76h67q-13 -70 -63.5 -116.5t-125.5 -46.5z" />
    <glyph glyph-name="Gdotaccent" unicode="&#x120;" horiz-adv-x="842" 
d="M420 -10q-171 0 -271.5 123t-71.5 292q24 144 136 239.5t264 95.5q105 0 186.5 -49.5t125.5 -132.5l-75 -40q-74 147 -245 147q-118 0 -206 -77t-109 -191q-23 -132 55 -231.5t218 -99.5q113 0 191 68.5t102 176.5h-297l13 74h380l-5 -28q-20 -162 -125.5 -264.5
t-265.5 -102.5zM464 795l24 139h77l-24 -139h-77z" />
    <glyph glyph-name="gdotaccent" unicode="&#x121;" horiz-adv-x="635" 
d="M286 -10q-119 0 -186.5 87t-46.5 205q17 99 93 163.5t173 64.5q68 0 118 -30t75 -79l18 99h78l-87 -490q-44 -250 -264 -250q-82 0 -142 37.5t-85 101.5l78 25q36 -94 154 -94q150 0 181 178l1 6q1 5 3 17.5t4 24.5q-66 -66 -165 -66zM295 61q69 0 124.5 47.5t68.5 120.5
q16 84 -30.5 147t-135.5 64q-70 0 -126 -47t-69 -121q-14 -84 34 -147.5t134 -63.5zM311 565l24 139h77l-24 -139h-77z" />
    <glyph glyph-name="Gcommaaccent" unicode="&#x122;" horiz-adv-x="842" 
d="M420 -10q-171 0 -271.5 123t-71.5 292q24 144 136 239.5t264 95.5q105 0 186.5 -49.5t125.5 -132.5l-75 -40q-74 147 -245 147q-118 0 -206 -77t-109 -191q-23 -132 55 -231.5t218 -99.5q113 0 191 68.5t102 176.5h-297l13 74h380l-5 -28q-20 -162 -125.5 -264.5
t-265.5 -102.5zM277 -264l78 204h70l-98 -204h-50z" />
    <glyph glyph-name="gcommaaccent" unicode="&#x123;" horiz-adv-x="635" 
d="M286 -10q-119 0 -186.5 87t-46.5 205q17 99 93 163.5t173 64.5q68 0 118 -30t75 -79l18 99h78l-87 -490q-44 -250 -264 -250q-82 0 -142 37.5t-85 101.5l78 25q36 -94 154 -94q150 0 181 178l1 6q1 5 3 17.5t4 24.5q-66 -66 -165 -66zM295 61q69 0 124.5 47.5t68.5 120.5
q16 84 -30.5 147t-135.5 64q-70 0 -126 -47t-69 -121q-14 -84 34 -147.5t134 -63.5zM326 555l78 204h70l-98 -204h-50z" />
    <glyph glyph-name="Hcircumflex" unicode="&#x124;" horiz-adv-x="657" 
d="M460 0l57 328h-355l-57 -328h-79l128 730h79l-58 -327h355l58 327h79l-128 -730h-79zM269 788l147 162h66l91 -162h-80l-54 100l-89 -100h-81z" />
    <glyph glyph-name="hcircumflex" unicode="&#x125;" horiz-adv-x="597" 
d="M28 0l128 730h77l-51 -283q64 63 157 63q98 0 151.5 -67t33.5 -169l-28 -144q-8 -37 -0.5 -50t41.5 -13h16l-14 -67h-36q-59 0 -78.5 31.5t-7.5 94.5l29 150q14 75 -17 121t-98 46q-74 0 -118.5 -45t-58.5 -123l-48 -275h-78zM55 778l147 162h66l91 -162h-80l-54 100
l-89 -100h-81z" />
    <glyph glyph-name="Hbar" unicode="&#x126;" horiz-adv-x="683" 
d="M68 537l10 60h64l24 133h79l-24 -133h355l24 133h79l-24 -133h66l-10 -60h-66l-94 -537h-79l57 328h-355l-57 -328h-79l94 537h-64zM211 537l-24 -134h355l24 134h-355z" />
    <glyph glyph-name="hbar" unicode="&#x127;" horiz-adv-x="608" 
d="M78 588l9 50h64l16 92h77l-16 -92l125 1l-9 -50l-125 -1l-26 -141q64 63 157 63q98 0 151.5 -67t33.5 -169l-28 -144q-8 -37 -0.5 -50t41.5 -13h16l-14 -67h-36q-59 0 -78.5 31.5t-7.5 94.5l29 150q14 75 -17 121t-98 46q-74 0 -118.5 -45t-58.5 -123l-48 -275h-78
l103 588h-64z" />
    <glyph glyph-name="Itilde" unicode="&#x128;" horiz-adv-x="241" 
d="M37 0l128 730h79l-128 -730h-79zM51 788q10 55 41.5 88t76.5 33q37 0 78 -27q42 -28 61 -28q36 0 46 51h62q-11 -56 -42 -88.5t-77 -32.5q-39 0 -87 33q-34 22 -53 22q-35 0 -44 -51h-62z" />
    <glyph glyph-name="itilde" unicode="&#x129;" horiz-adv-x="237" 
d="M131 0q-105 0 -82 126l65 374h78l-65 -368q-5 -33 3.5 -49t36.5 -16h15l-14 -67h-37zM-11 558q10 55 41.5 88t76.5 33q37 0 78 -27q42 -28 61 -28q36 0 46 51h62q-11 -56 -42 -88.5t-77 -32.5q-39 0 -87 33q-34 22 -53 22q-35 0 -44 -51h-62z" />
    <glyph glyph-name="Imacron" unicode="&#x12a;" horiz-adv-x="241" 
d="M37 0l128 730h79l-128 -730h-79zM82 788l13 67h264l-13 -67h-264z" />
    <glyph glyph-name="imacron" unicode="&#x12b;" horiz-adv-x="237" 
d="M131 0q-105 0 -82 126l65 374h78l-65 -368q-5 -33 3.5 -49t36.5 -16h15l-14 -67h-37zM33 558l13 67h264l-13 -67h-264z" />
    <glyph glyph-name="Ibreve" unicode="&#x12c;" horiz-adv-x="241" 
d="M37 0l128 730h79l-128 -730h-79zM216 784q-77 0 -112 46.5t-22 116.5h67q-9 -47 11.5 -75.5t65.5 -29.5q45 1 74 29t38 76h67q-13 -70 -63.5 -116.5t-125.5 -46.5z" />
    <glyph glyph-name="ibreve" unicode="&#x12d;" horiz-adv-x="237" 
d="M131 0q-105 0 -82 126l65 374h78l-65 -368q-5 -33 3.5 -49t36.5 -16h15l-14 -67h-37zM161 552q-77 0 -112 46.5t-22 116.5h67q-9 -47 11.5 -75.5t65.5 -29.5q45 1 74 29t38 76h67q-13 -70 -63.5 -116.5t-125.5 -46.5z" />
    <glyph glyph-name="Iogonek" unicode="&#x12e;" horiz-adv-x="241" 
d="M15 -218q-58 0 -91.5 31.5t-25.5 74.5q7 38 39 69t104 66l124 707h79l-128 -730h1q-84 -46 -111 -67.5t-31 -43.5q-4 -20 10 -31.5t38 -11.5q37 0 82 34l54 -42q-72 -56 -144 -56z" />
    <glyph glyph-name="iogonek" unicode="&#x12f;" horiz-adv-x="237" 
d="M68 -218q-58 0 -91.5 31.5t-25.5 74.5q6 35 34 64.5t90 61.5q-41 27 -26 112l65 374h78l-65 -368q-5 -33 3.5 -49t36.5 -16h15l-14 -66l2 -1q-84 -46 -111 -67.5t-31 -43.5q-4 -20 10 -31.5t38 -11.5q37 0 82 34l54 -42q-72 -56 -144 -56zM126 565l25 144h77l-25 -144
h-77z" />
    <glyph glyph-name="Idotaccent" unicode="&#x130;" horiz-adv-x="241" 
d="M37 0l128 730h79l-128 -730h-79zM175 795l24 139h77l-24 -139h-77z" />
    <glyph glyph-name="dotlessi" unicode="&#x131;" horiz-adv-x="237" 
d="M131 0q-105 0 -82 126l65 374h78l-65 -368q-5 -33 3.5 -49t36.5 -16h15l-14 -67h-37z" />
    <glyph glyph-name="IJ" unicode="&#x132;" horiz-adv-x="597" 
d="M199 0l13 75h94q60 0 92.5 28t41.5 88l96 539h79l-95 -532q-17 -103 -67.5 -150.5t-152.5 -47.5h-101zM37 0l128 730h79l-128 -730h-79z" />
    <glyph glyph-name="ij" unicode="&#x133;" horiz-adv-x="392" 
d="M-1 -169l12 72h59q70 0 94 21.5t38 97.5l85 478h78l-85 -479q-20 -112 -60 -151t-140 -39h-81zM105 0h-77l87 500h78zM298 565l26 144h77l-25 -144h-78zM127 565l25 144h77l-25 -144h-77z" />
    <glyph glyph-name="Jcircumflex" unicode="&#x134;" horiz-adv-x="501" 
d="M204 -10q-74 0 -125 38t-68 101l75 23q29 -89 124 -89q55 0 90 35.5t44 92.5l96 539h79l-95 -532q-17 -99 -72 -153.5t-148 -54.5zM332 788l147 162h66l91 -162h-80l-54 100l-89 -100h-81z" />
    <glyph glyph-name="jcircumflex" unicode="&#x135;" horiz-adv-x="226" 
d="M-120 -229l13 72q70 0 94 21.5t38 97.5l96 538h78l-96 -539q-20 -112 -60 -151t-140 -39h-23zM15 558l147 162h66l91 -162h-80l-54 100l-89 -100h-81z" />
    <glyph glyph-name="Kcommaaccent" unicode="&#x136;" horiz-adv-x="644" 
d="M494 0l-180 382l-168 -160l-39 -222h-79l128 730h79l-70 -398l420 398h102l-312 -296l204 -434h-85zM171 -264l78 204h70l-98 -204h-50z" />
    <glyph glyph-name="kcommaaccent" unicode="&#x137;" horiz-adv-x="551" 
d="M478 0q-62 0 -84 15.5t-53 71.5l-88 161l-123 -104l-25 -144h-77l128 730h77l-86 -490l308 260h102l-246 -209l94 -172q18 -33 32 -42.5t48 -9.5h18l-12 -67h-13zM129 -254l78 204h70l-98 -204h-50z" />
    <glyph glyph-name="kgreenlandic" unicode="&#x138;" horiz-adv-x="544" 
d="M471 0q-44 0 -66.5 7.5t-36 23.5t-34.5 56l-82 149l-126 -115l-21 -121h-77l87 498h77l-48 -273l302 275h102l-239 -219l89 -162q18 -33 32 -42.5t48 -9.5h19l-12 -67h-14z" />
    <glyph glyph-name="Lacute" unicode="&#x139;" horiz-adv-x="534" 
d="M28 0l128 730h79l-115 -655h325l-13 -75h-404zM169 788l145 162h100l-173 -162h-72z" />
    <glyph glyph-name="lacute" unicode="&#x13a;" horiz-adv-x="238" 
d="M133 0q-58 0 -75.5 34t-6.5 100l104 596h78l-105 -596q-7 -37 3 -52t39 -15h14l-14 -67h-37zM162 778l145 162h100l-173 -162h-72z" />
    <glyph glyph-name="Lcommaaccent" unicode="&#x13b;" horiz-adv-x="534" 
d="M28 0l128 730h79l-115 -655h325l-13 -75h-404zM104 -264l78 204h70l-98 -204h-50z" />
    <glyph glyph-name="lcommaaccent" unicode="&#x13c;" horiz-adv-x="238" 
d="M133 0q-58 0 -75.5 34t-6.5 100l104 596h78l-105 -596q-7 -37 3 -52t39 -15h14l-14 -67h-37zM-9 -254l78 204h70l-98 -204h-50z" />
    <glyph glyph-name="Lcaron" unicode="&#x13d;" horiz-adv-x="534" 
d="M28 0l128 730h79l-115 -655h325l-13 -75h-404zM318 568l108 162h81l-124 -162h-65z" />
    <glyph glyph-name="lcaron" unicode="&#x13e;" horiz-adv-x="359" 
d="M133 0q-58 0 -75.5 34t-6.5 100l104 596h78l-105 -596q-7 -37 3 -52t39 -15h14l-14 -67h-37zM244 568l108 162h81l-124 -162h-65z" />
    <glyph glyph-name="Ldot" unicode="&#x13f;" horiz-adv-x="536" 
d="M28 0l128 730h79l-115 -655h325l-13 -75h-404zM404 290l24 139h77l-24 -139h-77z" />
    <glyph glyph-name="ldot" unicode="&#x140;" horiz-adv-x="355" 
d="M133 0q-58 0 -75.5 34t-6.5 100l104 596h78l-105 -596q-7 -37 3 -52t39 -15h14l-14 -67h-37zM213 202l24 139h77l-24 -139h-77z" />
    <glyph glyph-name="Lslash" unicode="&#x141;" horiz-adv-x="557" 
d="M35 339l12 58l84 24l54 309h79l-50 -284l183 54l-12 -58l-181 -53l-55 -314h325l-13 -75h-404l64 364z" />
    <glyph glyph-name="lslash" unicode="&#x142;" horiz-adv-x="286" 
d="M18 306l9 53l90 24l61 347h78l-57 -325l102 28l-9 -53l-103 -28l-38 -218q-7 -37 3 -52t39 -15h14l-14 -67h-37q-58 0 -75.5 34t-6.5 100l34 196z" />
    <glyph glyph-name="Nacute" unicode="&#x143;" horiz-adv-x="714" 
d="M28 0l128 730h83l303 -599l105 599h79l-128 -730h-77l-308 608l-106 -608h-79zM417 788l145 162h100l-173 -162h-72z" />
    <glyph glyph-name="nacute" unicode="&#x144;" horiz-adv-x="611" 
d="M37 0l69 363q7 36 -3 53t-40 17h-15l12 67h37q72 0 82 -67q67 77 174 77q98 0 151.5 -67t33.5 -169l-28 -144q-8 -37 -0.5 -50t41.5 -13h16l-14 -67h-36q-59 0 -78.5 31.5t-7.5 94.5l29 150q14 75 -17 121t-98 46q-74 0 -118.5 -45.5t-59.5 -124.5l-52 -273h-78zM332 558
l145 162h100l-173 -162h-72z" />
    <glyph glyph-name="Ncommaaccent" unicode="&#x145;" horiz-adv-x="714" 
d="M28 0l128 730h83l303 -599l105 599h79l-128 -730h-77l-308 608l-106 -608h-79zM194 -264l78 204h70l-98 -204h-50z" />
    <glyph glyph-name="ncommaaccent" unicode="&#x146;" horiz-adv-x="611" 
d="M37 0l69 363q7 36 -3 53t-40 17h-15l12 67h37q72 0 82 -67q67 77 174 77q98 0 151.5 -67t33.5 -169l-28 -144q-8 -37 -0.5 -50t41.5 -13h16l-14 -67h-36q-59 0 -78.5 31.5t-7.5 94.5l29 150q14 75 -17 121t-98 46q-74 0 -118.5 -45.5t-59.5 -124.5l-52 -273h-78z
M163 -254l78 204h70l-98 -204h-50z" />
    <glyph glyph-name="Ncaron" unicode="&#x147;" horiz-adv-x="714" 
d="M28 0l128 730h83l303 -599l105 599h79l-128 -730h-77l-308 608l-106 -608h-79zM425 788l-91 162h80l54 -100l89 100h81l-148 -162h-65z" />
    <glyph glyph-name="ncaron" unicode="&#x148;" horiz-adv-x="611" 
d="M37 0l69 363q7 36 -3 53t-40 17h-15l12 67h37q72 0 82 -67q67 77 174 77q98 0 151.5 -67t33.5 -169l-28 -144q-8 -37 -0.5 -50t41.5 -13h16l-14 -67h-36q-59 0 -78.5 31.5t-7.5 94.5l29 150q14 75 -17 121t-98 46q-74 0 -118.5 -45.5t-59.5 -124.5l-52 -273h-78zM327 558
l-91 162h80l54 -100l89 100h81l-148 -162h-65z" />
    <glyph glyph-name="Eng" unicode="&#x14a;" horiz-adv-x="714" 
d="M318 -224l15 77h48q65 0 95 30.5t40 94.5l4 24l-307 606l-106 -608h-79l128 730h83l303 -599l105 599h79l-131 -746q-20 -115 -67.5 -161.5t-152.5 -46.5h-57z" />
    <glyph glyph-name="eng" unicode="&#x14b;" horiz-adv-x="598" 
d="M250 -229l13 72q77 0 101.5 20t38.5 99l57 314q14 75 -17 121t-98 46q-74 0 -118.5 -45.5t-59.5 -124.5l-52 -273h-78l69 363q7 36 -3 53t-40 17h-15l12 67h37q72 0 82 -67q67 77 174 77q98 0 150.5 -67t33.5 -169l-56 -313q-20 -114 -60.5 -152t-145.5 -38h-25z" />
    <glyph glyph-name="Omacron" unicode="&#x14c;" horiz-adv-x="848" 
d="M367 788l13 67h264l-13 -67h-264zM418 -10q-170 0 -270 123t-71 292q25 145 137.5 240t256.5 95q114 0 200 -60t122.5 -156t17.5 -201q-26 -145 -136.5 -239t-256.5 -94zM425 64q112 0 200.5 77t108.5 192q15 83 -12.5 159t-95 125t-159.5 49q-115 0 -203.5 -76.5
t-108.5 -192.5q-23 -135 55 -234t215 -99z" />
    <glyph glyph-name="omacron" unicode="&#x14d;" horiz-adv-x="616" 
d="M194 558l13 67h264l-13 -67h-264zM291 -10q-123 0 -191 87t-47 205q17 99 94 163.5t178 64.5q122 0 190.5 -87.5t47.5 -205.5q-17 -99 -93 -163t-179 -64zM295 61q70 0 125.5 46.5t68.5 119.5q15 82 -32.5 147t-134.5 66q-70 0 -126 -47t-69 -121q-14 -84 34 -147.5
t134 -63.5z" />
    <glyph glyph-name="Obreve" unicode="&#x14e;" horiz-adv-x="848" 
d="M418 -10q-170 0 -270 123t-71 292q25 145 137.5 240t256.5 95q114 0 200 -60t122.5 -156t17.5 -201q-26 -145 -136.5 -239t-256.5 -94zM425 64q112 0 200.5 77t108.5 192q15 83 -12.5 159t-95 125t-159.5 49q-115 0 -203.5 -76.5t-108.5 -192.5q-23 -135 55 -234t215 -99
zM501 785q-77 0 -112 46.5t-22 116.5h67q-9 -47 11.5 -75.5t65.5 -29.5q45 1 74 29t38 76h67q-13 -70 -63.5 -116.5t-125.5 -46.5z" />
    <glyph glyph-name="obreve" unicode="&#x14f;" horiz-adv-x="616" 
d="M291 -10q-123 0 -191 87t-47 205q17 99 94 163.5t178 64.5q122 0 190.5 -87.5t47.5 -205.5q-17 -99 -93 -163t-179 -64zM295 61q70 0 125.5 46.5t68.5 119.5q15 82 -32.5 147t-134.5 66q-70 0 -126 -47t-69 -121q-14 -84 34 -147.5t134 -63.5zM334 552q-77 0 -112 46.5
t-22 116.5h67q-9 -47 11.5 -75.5t65.5 -29.5q45 1 74 29t38 76h67q-13 -70 -63.5 -116.5t-125.5 -46.5z" />
    <glyph glyph-name="Ohungarumlaut" unicode="&#x150;" horiz-adv-x="848" 
d="M390 788l145 162h95l-173 -162h-67zM536 788l145 162h94l-172 -162h-67zM418 -10q-170 0 -270 123t-71 292q25 145 137.5 240t256.5 95q114 0 200 -60t122.5 -156t17.5 -201q-26 -145 -136.5 -239t-256.5 -94zM425 64q112 0 200.5 77t108.5 192q15 83 -12.5 159t-95 125
t-159.5 49q-115 0 -203.5 -76.5t-108.5 -192.5q-23 -135 55 -234t215 -99z" />
    <glyph glyph-name="ohungarumlaut" unicode="&#x151;" horiz-adv-x="616" 
d="M211 558l145 162h95l-173 -162h-67zM357 558l145 162h94l-172 -162h-67zM291 -10q-123 0 -191 87t-47 205q17 99 94 163.5t178 64.5q122 0 190.5 -87.5t47.5 -205.5q-17 -99 -93 -163t-179 -64zM295 61q70 0 125.5 46.5t68.5 119.5q15 82 -32.5 147t-134.5 66
q-70 0 -126 -47t-69 -121q-14 -84 34 -147.5t134 -63.5z" />
    <glyph glyph-name="OE" unicode="&#x152;" horiz-adv-x="1221" 
d="M676 0l22 129q-113 -139 -280 -139q-170 0 -270 123t-71 292q25 145 139 240t259 95q107 0 185 -49.5t113 -135.5l31 175h443l-13 -74h-365l-45 -253h365l-13 -74h-365l-45 -254h365l-12 -75h-443zM426 66q112 0 201 80.5t109 196.5q23 129 -51.5 226t-213.5 97
q-115 0 -205.5 -76.5t-110.5 -192.5q-15 -85 13.5 -161t96.5 -123t161 -47z" />
    <glyph glyph-name="oe" unicode="&#x153;" horiz-adv-x="1026" 
d="M292 -10q-125 0 -193 89t-44 210q20 97 96 159t175 62q73 0 129.5 -36.5t83.5 -96.5q38 63 105 98t142 35q99 0 155.5 -49t43.5 -119q-11 -68 -73 -107t-161 -38q-95 -1 -189 37q-3 -78 47.5 -127t135.5 -49q94 0 156 69l59 -41q-82 -96 -220 -96q-79 0 -136 32t-85 88
q-36 -56 -96 -88t-131 -32zM296 61q68 0 123.5 46.5t69.5 116.5q17 83 -31.5 149.5t-137.5 66.5q-69 0 -123 -46.5t-68 -117.5q-17 -85 31.5 -150t135.5 -65zM787 443q-71 0 -130 -39t-82 -104q95 -35 170 -35q73 0 115 23.5t49 64.5q6 36 -27 63t-95 27z" />
    <glyph glyph-name="Racute" unicode="&#x154;" horiz-adv-x="614" 
d="M526 0h-16q-80 0 -139 52t-85.5 128t-23.5 161h63q80 0 129.5 41t61.5 105q13 72 -33 121t-127 51h-134l-115 -659h-79l128 730h212q112 0 179 -74t48 -181q-15 -84 -82 -141.5t-169 -59.5q12 -86 60.5 -143t118.5 -57h17zM308 788l145 162h100l-173 -162h-72z" />
    <glyph glyph-name="racute" unicode="&#x155;" horiz-adv-x="412" 
d="M37 0l69 363q15 70 -43 70h-15l12 67h36q79 0 84 -79q59 79 169 79h53l-14 -77h-45q-147 0 -177 -157l-51 -266h-78zM187 558l145 162h100l-173 -162h-72z" />
    <glyph glyph-name="Rcommaaccent" unicode="&#x156;" horiz-adv-x="614" 
d="M526 0h-16q-80 0 -139 52t-85.5 128t-23.5 161h63q80 0 129.5 41t61.5 105q13 72 -33 121t-127 51h-134l-115 -659h-79l128 730h212q112 0 179 -74t48 -181q-15 -84 -82 -141.5t-169 -59.5q12 -86 60.5 -143t118.5 -57h17zM127 -249l78 204h70l-98 -204h-50z" />
    <glyph glyph-name="rcommaaccent" unicode="&#x157;" horiz-adv-x="412" 
d="M37 0l69 363q15 70 -43 70h-15l12 67h36q79 0 84 -79q59 79 169 79h53l-14 -77h-45q-147 0 -177 -157l-51 -266h-78zM-46 -254l78 204h70l-98 -204h-50z" />
    <glyph glyph-name="Rcaron" unicode="&#x158;" horiz-adv-x="614" 
d="M526 0h-16q-80 0 -139 52t-85.5 128t-23.5 161h63q80 0 129.5 41t61.5 105q13 72 -33 121t-127 51h-134l-115 -659h-79l128 730h212q112 0 179 -74t48 -181q-15 -84 -82 -141.5t-169 -59.5q12 -86 60.5 -143t118.5 -57h17zM333 788l-91 162h80l54 -100l89 100h81
l-148 -162h-65z" />
    <glyph glyph-name="rcaron" unicode="&#x159;" horiz-adv-x="412" 
d="M37 0l69 363q15 70 -43 70h-15l12 67h36q79 0 84 -79q59 79 169 79h53l-14 -77h-45q-147 0 -177 -157l-51 -266h-78zM209 558l-91 162h80l54 -100l89 100h81l-148 -162h-65z" />
    <glyph glyph-name="Sacute" unicode="&#x15a;" horiz-adv-x="548" 
d="M307 788l145 162h100l-173 -162h-72zM245 -10q-85 0 -146.5 36.5t-98.5 95.5l72 47q58 -105 178 -105q63 0 106 32t52 83q6 33 -2.5 59t-33 47t-47 34.5t-61.5 31.5q-33 16 -53.5 27t-48 32t-41 42.5t-21 53.5t-1.5 69q13 75 74.5 120t152.5 45q72 0 130 -30.5t92 -82.5
l-67 -44q-51 88 -159 88q-59 0 -97 -28.5t-46 -74.5q-4 -24 3 -46t17.5 -36t35.5 -30t39 -23.5t45 -22.5q20 -9 34.5 -16.5t33.5 -19t31.5 -22t28 -26t22 -30t15 -35t7 -41.5t-3.5 -48q-14 -81 -79.5 -131.5t-162.5 -50.5z" />
    <glyph glyph-name="sacute" unicode="&#x15b;" horiz-adv-x="490" 
d="M245 558l145 162h100l-173 -162h-72zM236 -10q-75 0 -130.5 30.5t-87.5 79.5l67 44q52 -87 155 -87q48 0 76.5 21t34.5 54q2 13 -0.5 23.5t-13 19.5t-18.5 15t-28 13.5t-29.5 11t-33.5 11.5q-39 13 -63 24.5t-47.5 30t-32 46t-2.5 64.5q10 55 60.5 88t124.5 32
q60 0 111 -24.5t83 -66.5l-64 -41q-48 67 -139 67q-88 0 -100 -63q-6 -34 22 -54.5t96 -42.5q35 -11 60 -23.5t50 -31.5t35.5 -46.5t4.5 -61.5q-10 -59 -60.5 -96t-130.5 -37z" />
    <glyph glyph-name="Scircumflex" unicode="&#x15c;" horiz-adv-x="548" 
d="M245 -10q-85 0 -146.5 36.5t-98.5 95.5l72 47q58 -105 178 -105q63 0 106 32t52 83q6 33 -2.5 59t-33 47t-47 34.5t-61.5 31.5q-33 16 -53.5 27t-48 32t-41 42.5t-21 53.5t-1.5 69q13 75 74.5 120t152.5 45q72 0 130 -30.5t92 -82.5l-67 -44q-51 88 -159 88
q-59 0 -97 -28.5t-46 -74.5q-4 -24 3 -46t17.5 -36t35.5 -30t39 -23.5t45 -22.5q20 -9 34.5 -16.5t33.5 -19t31.5 -22t28 -26t22 -30t15 -35t7 -41.5t-3.5 -48q-14 -81 -79.5 -131.5t-162.5 -50.5zM198 788l147 162h66l91 -162h-80l-54 100l-89 -100h-81z" />
    <glyph glyph-name="scircumflex" unicode="&#x15d;" horiz-adv-x="491" 
d="M236 -10q-75 0 -130.5 30.5t-87.5 79.5l67 44q52 -87 155 -87q48 0 76.5 21t34.5 54q2 13 -0.5 23.5t-13 19.5t-18.5 15t-28 13.5t-29.5 11t-33.5 11.5q-39 13 -63 24.5t-47.5 30t-32 46t-2.5 64.5q10 55 60.5 88t124.5 32q60 0 111 -24.5t83 -66.5l-64 -41
q-48 67 -139 67q-88 0 -100 -63q-6 -34 22 -54.5t96 -42.5q35 -11 60 -23.5t50 -31.5t35.5 -46.5t4.5 -61.5q-10 -59 -60.5 -96t-130.5 -37zM144 558l147 162h66l91 -162h-80l-54 100l-89 -100h-81z" />
    <glyph glyph-name="Scedilla" unicode="&#x15e;" horiz-adv-x="548" 
d="M189 -235q-98 0 -150 59l66 37q38 -38 87 -38q63 0 70 38q4 19 -13 28.5t-53 9.5h-41l18 99q-112 25 -173 124l72 47q58 -105 178 -105q63 0 106 32t52 83q6 33 -2.5 59t-33 47t-47 34.5t-61.5 31.5q-33 16 -53.5 27t-48 32t-41 42.5t-21 53.5t-1.5 69q13 75 74.5 120
t152.5 45q72 0 130 -30.5t92 -82.5l-67 -44q-51 88 -159 88q-59 0 -97 -28.5t-46 -74.5q-4 -24 3 -46t17.5 -36t35.5 -30t39 -23.5t45 -22.5q20 -9 34.5 -16.5t33.5 -19t31.5 -22t28 -26t22 -30t15 -35t7 -41.5t-3.5 -48q-14 -81 -79.5 -131.5t-162.5 -50.5h-8l-9 -46
q58 -3 84 -27.5t20 -62.5q-7 -40 -46.5 -64.5t-96.5 -24.5z" />
    <glyph glyph-name="scedilla" unicode="&#x15f;" horiz-adv-x="491" 
d="M173 -235q-98 0 -150 59l66 37q38 -38 87 -38q63 0 70 38q4 19 -13 28.5t-53 9.5h-41l18 99h8q-95 22 -147 102l67 44q52 -87 155 -87q48 0 76.5 21t34.5 54q2 13 -0.5 23.5t-13 19.5t-18.5 15t-28 13.5t-29.5 11t-33.5 11.5q-39 13 -63 24.5t-47.5 30t-32 46t-2.5 64.5
q10 55 60.5 88t124.5 32q60 0 111 -24.5t83 -66.5l-64 -41q-48 67 -139 67q-88 0 -100 -63q-6 -34 22 -54.5t96 -42.5q35 -11 60 -23.5t50 -31.5t35.5 -46.5t4.5 -61.5q-10 -59 -60.5 -96t-130.5 -37q-2 0 -7 0.5t-8 0.5l-9 -47q58 -3 84 -27.5t20 -62.5q-7 -40 -46.5 -64.5
t-96.5 -24.5z" />
    <glyph glyph-name="Scaron" unicode="&#x160;" horiz-adv-x="548" 
d="M245 -10q-85 0 -146.5 36.5t-98.5 95.5l72 47q58 -105 178 -105q63 0 106 32t52 83q6 33 -2.5 59t-33 47t-47 34.5t-61.5 31.5q-33 16 -53.5 27t-48 32t-41 42.5t-21 53.5t-1.5 69q13 75 74.5 120t152.5 45q72 0 130 -30.5t92 -82.5l-67 -44q-51 88 -159 88
q-59 0 -97 -28.5t-46 -74.5q-4 -24 3 -46t17.5 -36t35.5 -30t39 -23.5t45 -22.5q20 -9 34.5 -16.5t33.5 -19t31.5 -22t28 -26t22 -30t15 -35t7 -41.5t-3.5 -48q-14 -81 -79.5 -131.5t-162.5 -50.5zM321 788l-91 162h80l54 -100l89 100h81l-148 -162h-65z" />
    <glyph glyph-name="scaron" unicode="&#x161;" horiz-adv-x="491" 
d="M236 -10q-75 0 -130.5 30.5t-87.5 79.5l67 44q52 -87 155 -87q48 0 76.5 21t34.5 54q2 13 -0.5 23.5t-13 19.5t-18.5 15t-28 13.5t-29.5 11t-33.5 11.5q-39 13 -63 24.5t-47.5 30t-32 46t-2.5 64.5q10 55 60.5 88t124.5 32q60 0 111 -24.5t83 -66.5l-64 -41
q-48 67 -139 67q-88 0 -100 -63q-6 -34 22 -54.5t96 -42.5q35 -11 60 -23.5t50 -31.5t35.5 -46.5t4.5 -61.5q-10 -59 -60.5 -96t-130.5 -37zM268 558l-91 162h80l54 -100l89 100h81l-148 -162h-65z" />
    <glyph glyph-name="Tcommaaccent" unicode="&#x162;" horiz-adv-x="589" 
d="M290 0h-79l115 656h-209l13 74h497l-13 -74h-209zM140 -264l78 204h70l-98 -204h-50z" />
    <glyph glyph-name="tcommaaccent" unicode="&#x163;" horiz-adv-x="339" 
d="M38 431l12 69h81l21 119l85 42l-29 -161h118l-12 -69h-118l-42 -239q-14 -78 3.5 -101t93.5 -23l-12 -68h-7q-109 0 -141.5 40t-13.5 151l42 240h-81zM47 -254l78 204h70l-98 -204h-50z" />
    <glyph glyph-name="Tcaron" unicode="&#x164;" horiz-adv-x="589" 
d="M290 0h-79l115 656h-209l13 74h497l-13 -74h-209zM366 788l-91 162h80l54 -100l89 100h81l-148 -162h-65z" />
    <glyph glyph-name="tcaron" unicode="&#x165;" horiz-adv-x="339" 
d="M38 431l12 69h81l21 119l85 42l-29 -161h118l-12 -69h-118l-42 -239q-14 -78 3.5 -101t93.5 -23l-12 -68h-7q-109 0 -141.5 40t-13.5 151l42 240h-81zM264 549l108 162h81l-124 -162h-65z" />
    <glyph glyph-name="Tbar" unicode="&#x166;" horiz-adv-x="589" 
d="M290 0h-79l66 377h-92l12 72h92l37 207h-209l13 74h497l-13 -74h-209l-37 -207h93l-12 -72h-93z" />
    <glyph glyph-name="tbar" unicode="&#x167;" horiz-adv-x="339" 
d="M38 431l12 69h81l21 119l85 42l-29 -161h118l-12 -69h-118l-24 -137h119l-13 -67h-118l-6 -35q-14 -78 3.5 -101t93.5 -23l-12 -68h-7q-109 0 -141.5 40t-13.5 151l6 36h-79l13 67h78l24 137h-81z" />
    <glyph glyph-name="Utilde" unicode="&#x168;" horiz-adv-x="635" 
d="M291 -10q-118 0 -181 70.5t-42 190.5l84 479h79l-85 -485q-14 -79 23.5 -130.5t128.5 -51.5q71 0 121.5 43.5t62.5 111.5l90 512h79l-89 -507q-19 -111 -91.5 -172t-179.5 -61zM243 788q10 55 41.5 88t76.5 33q38 0 78 -27q42 -28 61 -28q36 0 46 51h62
q-11 -56 -42 -88.5t-77 -32.5q-39 0 -87 33q-34 22 -53 22q-35 0 -44 -51h-62z" />
    <glyph glyph-name="utilde" unicode="&#x169;" horiz-adv-x="601" 
d="M255 -9q-98 0 -150 67t-32 169l27 136q7 39 -2 54.5t-40 15.5h-13l11 67h46q102 0 77 -130l-28 -145q-14 -75 16.5 -121t97.5 -46q71 0 114.5 48t54.5 121l51 273h78l-68 -363q-13 -70 42 -70h17l-12 -67h-40q-75 0 -83 62q-65 -71 -164 -71zM169 558q10 55 41.5 88
t76.5 33q37 0 78 -27q42 -28 61 -28q36 0 46 51h62q-11 -56 -42 -88.5t-77 -32.5q-39 0 -87 33q-34 22 -53 22q-35 0 -44 -51h-62z" />
    <glyph glyph-name="Umacron" unicode="&#x16a;" horiz-adv-x="635" 
d="M291 -10q-118 0 -181 70.5t-42 190.5l84 479h79l-85 -485q-14 -79 23.5 -130.5t128.5 -51.5q71 0 121.5 43.5t62.5 111.5l90 512h79l-89 -507q-19 -111 -91.5 -172t-179.5 -61zM279 788l13 67h264l-13 -67h-264z" />
    <glyph glyph-name="umacron" unicode="&#x16b;" horiz-adv-x="601" 
d="M255 -9q-98 0 -150 67t-32 169l27 136q7 39 -2 54.5t-40 15.5h-13l11 67h46q102 0 77 -130l-28 -145q-14 -75 16.5 -121t97.5 -46q71 0 114.5 48t54.5 121l51 273h78l-68 -363q-13 -70 42 -70h17l-12 -67h-40q-75 0 -83 62q-65 -71 -164 -71zM206 558l13 67h264l-13 -67
h-264z" />
    <glyph glyph-name="Ubreve" unicode="&#x16c;" horiz-adv-x="635" 
d="M291 -10q-118 0 -181 70.5t-42 190.5l84 479h79l-85 -485q-14 -79 23.5 -130.5t128.5 -51.5q71 0 121.5 43.5t62.5 111.5l90 512h79l-89 -507q-19 -111 -91.5 -172t-179.5 -61zM408 783q-77 0 -112 46.5t-22 116.5h67q-9 -47 11.5 -75.5t65.5 -29.5q45 1 74 29t38 76h67
q-13 -70 -63.5 -116.5t-125.5 -46.5z" />
    <glyph glyph-name="ubreve" unicode="&#x16d;" horiz-adv-x="601" 
d="M255 -9q-98 0 -150 67t-32 169l27 136q7 39 -2 54.5t-40 15.5h-13l11 67h46q102 0 77 -130l-28 -145q-14 -75 16.5 -121t97.5 -46q71 0 114.5 48t54.5 121l51 273h78l-68 -363q-13 -70 42 -70h17l-12 -67h-40q-75 0 -83 62q-65 -71 -164 -71zM334 552q-77 0 -112 46.5
t-22 116.5h67q-9 -47 11.5 -75.5t65.5 -29.5q45 1 74 29t38 76h67q-13 -70 -63.5 -116.5t-125.5 -46.5z" />
    <glyph glyph-name="Uring" unicode="&#x16e;" horiz-adv-x="635" 
d="M413 779q-49 0 -77.5 38t-15.5 88q11 39 42.5 64t71.5 25q50 0 78.5 -38t15.5 -86q-11 -40 -42 -65.5t-73 -25.5zM418 838q19 0 34 12.5t19 29.5q5 22 -7.5 39t-35.5 17q-17 0 -32 -12t-19 -30q-5 -22 6.5 -39t34.5 -17zM291 -10q-118 0 -181 70.5t-42 190.5l84 479h79
l-85 -485q-14 -79 23.5 -130.5t128.5 -51.5q71 0 121.5 43.5t62.5 111.5l90 512h79l-89 -507q-19 -111 -91.5 -172t-179.5 -61z" />
    <glyph glyph-name="uring" unicode="&#x16f;" horiz-adv-x="601" 
d="M255 -9q-98 0 -150 67t-32 169l27 136q7 39 -2 54.5t-40 15.5h-13l11 67h46q102 0 77 -130l-28 -145q-14 -75 16.5 -121t97.5 -46q71 0 114.5 48t54.5 121l51 273h78l-68 -363q-13 -70 42 -70h17l-12 -67h-40q-75 0 -83 62q-65 -71 -164 -71zM339 554q-49 0 -77.5 38
t-15.5 88q11 39 42.5 64t71.5 25q50 0 78.5 -38t15.5 -86q-11 -40 -42 -65.5t-73 -25.5zM344 613q19 0 34 12.5t19 29.5q5 22 -7.5 39t-35.5 17q-17 0 -32 -12t-19 -30q-5 -22 6.5 -39t34.5 -17z" />
    <glyph glyph-name="Uhungarumlaut" unicode="&#x170;" horiz-adv-x="635" 
d="M291 -10q-118 0 -181 70.5t-42 190.5l84 479h79l-85 -485q-14 -79 23.5 -130.5t128.5 -51.5q71 0 121.5 43.5t62.5 111.5l90 512h79l-89 -507q-19 -111 -91.5 -172t-179.5 -61zM288 788l145 162h95l-173 -162h-67zM434 788l145 162h94l-172 -162h-67z" />
    <glyph glyph-name="uhungarumlaut" unicode="&#x171;" horiz-adv-x="601" 
d="M255 -9q-98 0 -150 67t-32 169l27 136q7 39 -2 54.5t-40 15.5h-13l11 67h46q102 0 77 -130l-28 -145q-14 -75 16.5 -121t97.5 -46q71 0 114.5 48t54.5 121l51 273h78l-68 -363q-13 -70 42 -70h17l-12 -67h-40q-75 0 -83 62q-65 -71 -164 -71zM219 558l145 162h95
l-173 -162h-67zM365 558l145 162h94l-172 -162h-67z" />
    <glyph glyph-name="Uogonek" unicode="&#x172;" horiz-adv-x="635" 
d="M243 -219q-58 0 -91.5 31.5t-25.5 74.5q11 61 95 111q-87 19 -129 86t-24 167l84 479h79l-85 -485q-14 -79 23.5 -130.5t128.5 -51.5q71 0 121.5 43.5t62.5 111.5l90 512h79l-89 -507q-18 -100 -78 -159.5t-151 -70.5q-75 -42 -100.5 -62.5t-29.5 -42.5q-4 -20 10 -31.5
t38 -11.5q37 0 82 34l54 -42q-72 -56 -144 -56z" />
    <glyph glyph-name="uogonek" unicode="&#x173;" horiz-adv-x="601" 
d="M255 -9q-98 0 -150 67t-32 169l27 136q7 39 -2 54.5t-40 15.5h-13l11 67h46q102 0 77 -130l-28 -145q-14 -75 16.5 -121t97.5 -46q71 0 114.5 48t54.5 121l51 273h78l-68 -363q-13 -70 42 -70h17l-12 -65l4 -2q-84 -46 -111 -67.5t-31 -43.5q-4 -20 10 -31.5t38 -11.5
q37 0 82 34l54 -42q-72 -56 -144 -56q-58 0 -91.5 31.5t-25.5 74.5q6 35 33.5 64t87.5 61q-25 17 -29 49q-65 -71 -164 -71z" />
    <glyph glyph-name="Wcircumflex" unicode="&#x174;" horiz-adv-x="1043" 
d="M755 0h-77l-93 610l-306 -610h-79l-85 730h81l66 -605l303 605h77l93 -608l279 608h82zM457 788l147 162h66l91 -162h-80l-54 100l-89 -100h-81z" />
    <glyph glyph-name="wcircumflex" unicode="&#x175;" horiz-adv-x="925" 
d="M240 -10q-97 0 -142 66t-24 171l26 136q15 70 -42 70h-13l12 67h45q103 0 78 -130l-29 -145q-15 -76 11.5 -121.5t95.5 -45.5q60 0 102.5 47.5t55.5 116.5l52 278h77l-55 -300q-12 -67 15.5 -104t85.5 -37q80 0 132 65.5t71 171.5q20 108 -8 204h79q23 -116 4 -216
q-24 -128 -95 -211t-184 -83q-131 0 -160 102q-70 -102 -190 -102zM353 558l147 162h66l91 -162h-80l-54 100l-89 -100h-81z" />
    <glyph glyph-name="Ycircumflex" unicode="&#x176;" horiz-adv-x="619" 
d="M223 0l62 352l-172 378h81l142 -311l248 311h90l-311 -386l-61 -344h-79zM252 785l147 162h66l91 -162h-80l-54 100l-89 -100h-81z" />
    <glyph glyph-name="ycircumflex" unicode="&#x177;" horiz-adv-x="586" 
d="M223 -240q-77 0 -134 39.5t-78 102.5l74 23q33 -95 144 -95q131 0 165 178l7 36q-62 -53 -146 -53q-98 0 -150 67t-32 169l27 136q7 39 -2 54.5t-40 15.5h-13l11 67h46q102 0 77 -130l-28 -145q-14 -75 16.5 -121t97.5 -46q71 0 114.5 48t54.5 121l51 273h76l-90 -490
q-21 -122 -79.5 -186t-168.5 -64zM165 558l147 162h66l91 -162h-80l-54 100l-89 -100h-81z" />
    <glyph glyph-name="Ydieresis" unicode="&#x178;" horiz-adv-x="619" 
d="M223 0l62 352l-172 378h81l142 -311l248 311h90l-311 -386l-61 -344h-79zM295 790l24 139h78l-25 -139h-77zM428 790l25 139h77l-24 -139h-78z" />
    <glyph glyph-name="Zacute" unicode="&#x179;" horiz-adv-x="601" 
d="M497 0h-481l13 72l485 585h-371l12 73h468l-12 -71l-487 -586h385zM341 788l145 162h100l-173 -162h-72z" />
    <glyph glyph-name="zacute" unicode="&#x17a;" horiz-adv-x="571" 
d="M20 0l12 68l400 363h-327l13 69h433l-13 -68l-402 -364h344l-12 -68h-448zM290 558l145 162h100l-173 -162h-72z" />
    <glyph glyph-name="Zdotaccent" unicode="&#x17b;" horiz-adv-x="601" 
d="M497 0h-481l13 72l485 585h-371l12 73h468l-12 -71l-487 -586h385zM356 795l24 139h77l-24 -139h-77z" />
    <glyph glyph-name="zdotaccent" unicode="&#x17c;" horiz-adv-x="571" 
d="M20 0l12 68l400 363h-327l13 69h433l-13 -68l-402 -364h344l-12 -68h-448zM299 565l24 139h77l-24 -139h-77z" />
    <glyph glyph-name="Zcaron" unicode="&#x17d;" horiz-adv-x="601" 
d="M497 0h-481l13 72l485 585h-371l12 73h468l-12 -71l-487 -586h385zM362 788l-91 162h80l54 -100l89 100h81l-148 -162h-65z" />
    <glyph glyph-name="zcaron" unicode="&#x17e;" horiz-adv-x="571" 
d="M20 0l12 68l400 363h-327l13 69h433l-13 -68l-402 -364h344l-12 -68h-448zM306 558l-91 162h80l54 -100l89 100h81l-148 -162h-65z" />
    <glyph glyph-name="florin" unicode="&#x192;" 
d="M71 341l13 69h201l51 143q41 103 102.5 140t166.5 37h13l-15 -66q-85 0 -125.5 -25.5t-71.5 -102.5l-45 -126h199l-13 -69h-210l-52 -150q-44 -112 -100 -151.5t-169 -39.5h-7l13 69q85 0 122 28.5t71 110.5l46 133h-190z" />
    <glyph glyph-name="Aringacute" unicode="&#x1fa;" horiz-adv-x="687" 
d="M-14 0l387 694q-25 17 -36 47t-2 63q11 39 42.5 64t71.5 25q50 0 78.5 -38t15.5 -86q-16 -57 -63 -80l134 -689h-80l-35 185h-327l-102 -185h-84zM416 625l-203 -366h272zM418 925l145 162h100l-173 -162h-72zM433 737q19 0 34 12.5t19 29.5q5 22 -7.5 39t-35.5 17
q-17 0 -32 -12t-19 -30q-5 -22 6.5 -39t34.5 -17z" />
    <glyph glyph-name="aringacute" unicode="&#x1fb;" horiz-adv-x="648" 
d="M287 -10q-119 0 -186.5 87t-46.5 205q17 99 93 163.5t173 64.5q68 0 118 -30t75 -80l18 100h77l-66 -366q-7 -38 3 -52.5t43 -14.5h13l-14 -67h-38q-76 0 -84 69q-71 -79 -178 -79zM296 61q69 0 124.5 47.5t68.5 120.5q16 84 -30.5 147t-135.5 64q-70 0 -126 -47
t-69 -121q-14 -84 34 -147.5t134 -63.5zM364 551q-49 0 -77.5 38t-15.5 88q11 39 42.5 64t71.5 25q50 0 78.5 -38t15.5 -86q-11 -40 -42 -65.5t-73 -25.5zM354 794l145 162h100l-173 -162h-72zM369 610q19 0 34 12.5t19 29.5q5 22 -7.5 39t-35.5 17q-17 0 -32 -12t-19 -30
q-5 -22 6.5 -39t34.5 -17z" />
    <glyph glyph-name="AEacute" unicode="&#x1fc;" horiz-adv-x="1005" 
d="M-9 0l488 730h542l-13 -74h-441l8 -253h388l-13 -74h-372l9 -254h318l-12 -75h-380l-6 181h-305l-121 -181h-90zM492 611l-241 -358h253zM601 788l145 162h100l-173 -162h-72z" />
    <glyph glyph-name="aeacute" unicode="&#x1fd;" horiz-adv-x="939" 
d="M205 -10q-89 0 -129.5 42.5t-32.5 103.5q8 66 57.5 97t141.5 50q10 2 30.5 6t31 6t28 6t27 7t23 8t20.5 10t15 11.5t12 14t5 16.5q6 34 -24 58t-91 24q-71 0 -115 -30t-53 -85h-70q13 83 76.5 129t163.5 46q64 0 108 -21.5t63 -58.5q85 80 206 80q99 0 156 -49t44 -119
q-12 -68 -74 -107t-161 -38q-93 -1 -189 38q-3 -78 48 -127.5t135 -49.5q96 0 156 69l59 -41q-80 -96 -219 -96q-79 0 -137 32.5t-87 88.5q-33 -52 -91.5 -86.5t-132.5 -34.5zM699 443q-70 0 -129 -39t-83 -104q95 -35 171 -35q72 0 114 23.5t50 64.5q6 37 -27 63.5
t-96 26.5zM213 54q61 0 113 36.5t81 87.5q-6 37 -2 73q1 6 5 18q-21 -17 -124 -39q-13 -3 -20 -4q-74 -15 -108 -32.5t-40 -58.5q-5 -35 18.5 -58t76.5 -23zM453 547l145 162h100l-173 -162h-72z" />
    <glyph glyph-name="Oslashacute" unicode="&#x1fe;" horiz-adv-x="847" 
d="M418 -10q-124 0 -216 70l-56 -60h-91l99 105q-107 125 -77 300q25 145 137.5 240t256.5 95q122 0 214 -71l58 61h91l-101 -107q50 -59 71 -137t6 -163q-25 -144 -136.5 -238.5t-255.5 -94.5zM154 397q-12 -65 3 -126t53 -107l422 448q-70 54 -166 54q-115 0 -203 -76.5
t-109 -192.5zM425 66q113 0 200.5 76t108.5 191q23 132 -55 233l-422 -448q71 -52 168 -52zM467 788l145 162h100l-173 -162h-72z" />
    <glyph glyph-name="oslashacute" unicode="&#x1ff;" horiz-adv-x="616" 
d="M34 0l69 73q-72 86 -50 209q17 99 94 163.5t178 64.5q84 0 146 -46l34 36h80l-71 -76q71 -87 49 -207q-17 -99 -93 -163t-179 -64q-84 0 -145 44l-32 -34h-80zM127 272q-14 -80 29 -142l264 280q-43 29 -98 30q-70 0 -126 -47t-69 -121zM295 61q70 0 125.5 46.5
t68.5 119.5q14 77 -28 141l-263 -279q42 -28 97 -28zM295 558l145 162h100l-173 -162h-72z" />
    <glyph glyph-name="Scommaaccent" unicode="&#x218;" horiz-adv-x="548" 
d="M96 -263l78 204h70l-98 -204h-50zM245 -10q-85 0 -146.5 36.5t-98.5 95.5l72 47q58 -105 178 -105q63 0 106 32t52 83q6 33 -2.5 59t-33 47t-47 34.5t-61.5 31.5q-33 16 -53.5 27t-48 32t-41 42.5t-21 53.5t-1.5 69q13 75 74.5 120t152.5 45q72 0 130 -30.5t92 -82.5
l-67 -44q-51 88 -159 88q-59 0 -97 -28.5t-46 -74.5q-4 -24 3 -46t17.5 -36t35.5 -30t39 -23.5t45 -22.5q20 -9 34.5 -16.5t33.5 -19t31.5 -22t28 -26t22 -30t15 -35t7 -41.5t-3.5 -48q-14 -81 -79.5 -131.5t-162.5 -50.5z" />
    <glyph glyph-name="scommaaccent" unicode="&#x219;" horiz-adv-x="491" 
d="M85 -254l78 204h70l-98 -204h-50zM236 -10q-75 0 -130.5 30.5t-87.5 79.5l67 44q52 -87 155 -87q48 0 76.5 21t34.5 54q2 13 -0.5 23.5t-13 19.5t-18.5 15t-28 13.5t-29.5 11t-33.5 11.5q-39 13 -63 24.5t-47.5 30t-32 46t-2.5 64.5q10 55 60.5 88t124.5 32
q60 0 111 -24.5t83 -66.5l-64 -41q-48 67 -139 67q-88 0 -100 -63q-6 -34 22 -54.5t96 -42.5q35 -11 60 -23.5t50 -31.5t35.5 -46.5t4.5 -61.5q-10 -59 -60.5 -96t-130.5 -37z" />
    <glyph glyph-name="dotlessj" unicode="&#x237;" horiz-adv-x="226" 
d="M-120 -229l13 72q70 0 94 21.5t38 97.5l96 538h78l-96 -539q-20 -112 -60 -151t-140 -39h-23z" />
    <glyph glyph-name="circumflex" unicode="&#x2c6;" horiz-adv-x="493" 
d="M146 558l147 162h66l91 -162h-80l-54 100l-89 -100h-81z" />
    <glyph glyph-name="caron" unicode="&#x2c7;" horiz-adv-x="493" 
d="M266 558l-91 162h80l54 -100l89 100h81l-148 -162h-65z" />
    <glyph glyph-name="breve" unicode="&#x2d8;" horiz-adv-x="493" 
d="M300 552q-77 0 -112 46.5t-22 116.5h67q-9 -47 11.5 -75.5t65.5 -29.5q45 1 74 29t38 76h67q-13 -70 -63.5 -116.5t-125.5 -46.5z" />
    <glyph glyph-name="dotaccent" unicode="&#x2d9;" horiz-adv-x="495" 
d="M250 565l24 139h77l-24 -139h-77z" />
    <glyph glyph-name="ring" unicode="&#x2da;" horiz-adv-x="493" 
d="M307 554q-49 0 -77.5 38t-15.5 88q11 39 42.5 64t71.5 25q50 0 78.5 -38t15.5 -86q-11 -40 -42 -65.5t-73 -25.5zM312 613q19 0 34 12.5t19 29.5q5 22 -7.5 39t-35.5 17q-17 0 -32 -12t-19 -30q-5 -22 6.5 -39t34.5 -17z" />
    <glyph glyph-name="ogonek" unicode="&#x2db;" horiz-adv-x="493" 
d="M160 -218q-58 0 -91.5 31.5t-25.5 74.5q7 40 43.5 73.5t121.5 72.5l54 -34q-84 -46 -111 -67.5t-31 -43.5q-4 -20 10 -31.5t38 -11.5q37 0 82 34l54 -42q-72 -56 -144 -56z" />
    <glyph glyph-name="tilde" unicode="&#x2dc;" horiz-adv-x="493" 
d="M124 558q10 55 41.5 88t76.5 33q38 0 78 -27q42 -28 61 -28q35 0 46 51h62q-11 -56 -42 -88.5t-77 -32.5q-39 0 -87 33q-34 22 -53 22q-35 0 -44 -51h-62z" />
    <glyph glyph-name="hungarumlaut" unicode="&#x2dd;" horiz-adv-x="493" 
d="M118 558l145 162h95l-173 -162h-67zM264 558l145 162h94l-172 -162h-67z" />
    <glyph glyph-name="pi" unicode="&#x3c0;" horiz-adv-x="780" 
d="M117 656l13 74h688l-13 -74h-141l-78 -446q-15 -82 0.5 -109.5t72.5 -27.5h46l-13 -73h-50q-98 0 -125.5 53t-9.5 158l78 445h-247l-115 -656h-79l115 656h-142z" />
    <glyph glyph-name="pi" unicode="&#x3d6;" horiz-adv-x="780" 
d="M117 656l13 74h688l-13 -74h-141l-78 -446q-15 -82 0.5 -109.5t72.5 -27.5h46l-13 -73h-50q-98 0 -125.5 53t-9.5 158l78 445h-247l-115 -656h-79l115 656h-142z" />
    <glyph glyph-name="uni0E3F" unicode="&#xe3f;" horiz-adv-x="535" 
d="M30 65l104 596h164l12 69h67l-12 -70q74 -5 117 -54t31 -117q-13 -89 -95 -128q80 -49 63 -145q-13 -70 -65.5 -110.5t-138.5 -40.5h-17l-11 -65h-67l11 65h-163zM402 230q8 43 -18 72t-76 32l-35 -196h11q102 0 118 92zM154 334l-34 -196h86l35 196h-87zM199 590
l-32 -186h86l32 186h-86zM438 493q5 39 -18.5 66t-67.5 30l-32 -185h3q48 0 78.5 26t36.5 63z" />
    <glyph glyph-name="Wgrave" unicode="&#x1e80;" horiz-adv-x="1043" 
d="M755 0h-77l-93 610l-306 -610h-79l-85 730h81l66 -605l303 605h77l93 -608l279 608h82zM572 788l-116 162h99l88 -162h-71z" />
    <glyph glyph-name="wgrave" unicode="&#x1e81;" horiz-adv-x="925" 
d="M240 -10q-97 0 -142 66t-24 171l26 136q15 70 -42 70h-13l12 67h45q103 0 78 -130l-29 -145q-15 -76 11.5 -121.5t95.5 -45.5q60 0 102.5 47.5t55.5 116.5l52 278h77l-55 -300q-12 -67 15.5 -104t85.5 -37q80 0 132 65.5t71 171.5q20 108 -8 204h79q23 -116 4 -216
q-24 -128 -95 -211t-184 -83q-131 0 -160 102q-70 -102 -190 -102zM477 558l-116 162h99l88 -162h-71z" />
    <glyph glyph-name="Wacute" unicode="&#x1e82;" horiz-adv-x="1043" 
d="M755 0h-77l-93 610l-306 -610h-79l-85 730h81l66 -605l303 605h77l93 -608l279 608h82zM574 788l145 162h100l-173 -162h-72z" />
    <glyph glyph-name="wacute" unicode="&#x1e83;" horiz-adv-x="925" 
d="M240 -10q-97 0 -142 66t-24 171l26 136q15 70 -42 70h-13l12 67h45q103 0 78 -130l-29 -145q-15 -76 11.5 -121.5t95.5 -45.5q60 0 102.5 47.5t55.5 116.5l52 278h77l-55 -300q-12 -67 15.5 -104t85.5 -37q80 0 132 65.5t71 171.5q20 108 -8 204h79q23 -116 4 -216
q-24 -128 -95 -211t-184 -83q-131 0 -160 102q-70 -102 -190 -102zM479 558l145 162h100l-173 -162h-72z" />
    <glyph glyph-name="Wdieresis" unicode="&#x1e84;" horiz-adv-x="1043" 
d="M755 0h-77l-93 610l-306 -610h-79l-85 730h81l66 -605l303 605h77l93 -608l279 608h82zM506 795l24 139h78l-25 -139h-77zM639 795l25 139h77l-24 -139h-78z" />
    <glyph glyph-name="wdieresis" unicode="&#x1e85;" horiz-adv-x="925" 
d="M240 -10q-97 0 -142 66t-24 171l26 136q15 70 -42 70h-13l12 67h45q103 0 78 -130l-29 -145q-15 -76 11.5 -121.5t95.5 -45.5q60 0 102.5 47.5t55.5 116.5l52 278h77l-55 -300q-12 -67 15.5 -104t85.5 -37q80 0 132 65.5t71 171.5q20 108 -8 204h79q23 -116 4 -216
q-24 -128 -95 -211t-184 -83q-131 0 -160 102q-70 -102 -190 -102zM412 565l24 139h78l-25 -139h-77zM545 565l25 139h77l-24 -139h-78z" />
    <glyph glyph-name="Ygrave" unicode="&#x1ef2;" horiz-adv-x="619" 
d="M223 0l62 352l-172 378h81l142 -311l248 311h90l-311 -386l-61 -344h-79zM365 778l-116 162h99l88 -162h-71z" />
    <glyph glyph-name="ygrave" unicode="&#x1ef3;" horiz-adv-x="586" 
d="M223 -240q-77 0 -134 39.5t-78 102.5l74 23q33 -95 144 -95q131 0 165 178l7 36q-62 -53 -146 -53q-98 0 -150 67t-32 169l27 136q7 39 -2 54.5t-40 15.5h-13l11 67h46q102 0 77 -130l-28 -145q-14 -75 16.5 -121t97.5 -46q71 0 114.5 48t54.5 121l51 273h76l-90 -490
q-21 -122 -79.5 -186t-168.5 -64zM284 558l-116 162h99l88 -162h-71z" />
    <glyph glyph-name="figuredash" unicode="&#x2012;" horiz-adv-x="660" 
d="M43 222l12 66h560l-12 -66h-560z" />
    <glyph glyph-name="endash" unicode="&#x2013;" horiz-adv-x="504" 
d="M43 222l12 66h410l-12 -66h-410z" />
    <glyph glyph-name="emdash" unicode="&#x2014;" horiz-adv-x="710" 
d="M43 222l12 66h610l-12 -66h-610z" />
    <glyph glyph-name="uni2015" unicode="&#x2015;" horiz-adv-x="1010" 
d="M43 222l12 66h910l-12 -66h-910z" />
    <glyph glyph-name="doublebar" unicode="&#x2016;" horiz-adv-x="390" 
d="M-18 -230l169 960h79l-169 -960h-79zM161 -230l169 960h79l-169 -960h-79z" />
    <glyph glyph-name="quoteleft" unicode="&#x2018;" horiz-adv-x="191" 
d="M187 730l6 -204h-50l-27 204h71z" />
    <glyph glyph-name="quoteright" unicode="&#x2019;" horiz-adv-x="191" 
d="M133 526h-50l77 204h71z" />
    <glyph glyph-name="quotesinglbase" unicode="&#x201a;" horiz-adv-x="192" 
d="M-38 -117l77 204h71l-99 -204h-49z" />
    <glyph glyph-name="reversequoteleft" unicode="&#x201b;" horiz-adv-x="191" 
d="M133 526h-50l77 204h71z" />
    <glyph glyph-name="quotedblleft" unicode="&#x201c;" horiz-adv-x="310" 
d="M309 730l5 -204h-50l-26 204h71zM189 730l6 -204h-50l-27 204h71z" />
    <glyph glyph-name="quotedblright" unicode="&#x201d;" horiz-adv-x="310" 
d="M133 526h-50l77 204h71zM252 526h-50l78 204h71z" />
    <glyph glyph-name="quotedblbase" unicode="&#x201e;" horiz-adv-x="311" 
d="M-38 -117l77 204h71l-99 -204h-49zM81 -117l78 204h71l-99 -204h-50z" />
    <glyph glyph-name="reversequotedblleft" unicode="&#x201f;" horiz-adv-x="310" 
d="M133 526h-50l77 204h71zM252 526h-50l78 204h71z" />
    <glyph glyph-name="dagger" unicode="&#x2020;" horiz-adv-x="567" 
d="M84 431l13 69h185l41 230h79l-41 -230h189l-13 -69h-188l-75 -431h-79l75 431h-186z" />
    <glyph glyph-name="daggerdbl" unicode="&#x2021;" horiz-adv-x="567" 
d="M89 460l13 68h186l35 202h79l-35 -202h188l-13 -68h-187l-32 -182h187l-12 -68h-187l-37 -210h-79l37 210h-187l12 68h187l32 182h-187z" />
    <glyph glyph-name="bullet" unicode="&#x2022;" horiz-adv-x="326" 
d="M170 180q-30 0 -51.5 21.5t-21.5 51.5t21.5 51.5t51.5 21.5t51.5 -21.5t21.5 -51.5t-21.5 -51.5t-51.5 -21.5z" />
    <glyph glyph-name="ellipsis" unicode="&#x2026;" horiz-adv-x="487" 
d="M8 0l25 137h77l-24 -137h-78zM156 0l24 137h78l-24 -137h-78zM304 0l24 137h77l-24 -137h-77z" />
    <glyph glyph-name="perthousand" unicode="&#x2030;" horiz-adv-x="1247" 
d="M19 0l755 730h99l-755 -730h-99zM269 401q-77 0 -121.5 56t-31.5 132q11 64 62.5 107.5t117.5 43.5q76 0 121.5 -56t31.5 -131q-11 -65 -61.5 -108.5t-118.5 -43.5zM275 466q40 0 71 26.5t38 66.5q8 46 -19 81t-75 35q-40 0 -71 -26.5t-38 -66.5q-8 -46 19 -81t75 -35z
M593 -11q-76 0 -121 56t-31 132q11 64 62.5 108t117.5 44q75 0 120.5 -56t32.5 -131q-11 -66 -62.5 -109.5t-118.5 -43.5zM599 55q40 0 71.5 26.5t38.5 66.5q8 45 -19.5 80.5t-74.5 35.5q-40 0 -71 -27t-38 -66q-8 -46 19 -81t74 -35zM990 -11q-76 0 -121 56t-31 132
q11 64 62.5 108t117.5 44q75 0 120.5 -56t32.5 -131q-11 -66 -62.5 -109.5t-118.5 -43.5zM996 55q40 0 71.5 26.5t38.5 66.5q8 45 -19.5 80.5t-74.5 35.5q-40 0 -71 -27t-38 -66q-8 -46 19 -81t74 -35z" />
    <glyph glyph-name="minute" unicode="&#x2032;" horiz-adv-x="191" 
d="M133 526h-50l77 204h71z" />
    <glyph glyph-name="second" unicode="&#x2033;" horiz-adv-x="310" 
d="M133 526h-50l77 204h71zM252 526h-50l78 204h71z" />
    <glyph glyph-name="tripleprime" unicode="&#x2034;" horiz-adv-x="410" 
d="M116 500q-2 20 0 71.5t6 74.5l15 84h62l-15 -84q-9 -58 -44 -146h-24zM233 500q-2 20 0 71.5t6 74.5l15 84h62l-15 -84q-9 -58 -44 -146h-24zM350 500q-2 20 0 71.5t6 74.5l15 84h62l-15 -84q-9 -58 -44 -146h-24z" />
    <glyph glyph-name="guilsinglleft" unicode="&#x2039;" horiz-adv-x="283" 
d="M193 107l-134 119l9 50l176 119l-11 -64l-123 -83l94 -82z" />
    <glyph glyph-name="guilsinglright" unicode="&#x203a;" horiz-adv-x="283" 
d="M93 394l134 -119l-9 -50l-176 -119l11 64l123 82l-94 83z" />
    <glyph glyph-name="fraction" unicode="&#x2044;" horiz-adv-x="681" 
d="M-13 0l653 730h94l-653 -730h-94z" />
    <glyph glyph-name="uni2070" unicode="&#x2070;" horiz-adv-x="491" 
d="M276 302q-97 0 -154.5 71t-41.5 167q15 85 80 140.5t151 55.5q97 0 154 -71.5t40 -166.5q-14 -84 -79 -140t-150 -56zM283 371q57 0 100 39t54 96q12 65 -25.5 114t-104.5 49q-59 0 -102.5 -38.5t-54.5 -96.5q-11 -66 27 -114.5t106 -48.5z" />
    <glyph glyph-name="uni2074" unicode="&#x2074;" horiz-adv-x="383" 
d="M229 308l17 97h-185l11 64l229 261h71l-46 -261h62l-11 -64h-62l-17 -97h-69zM151 469h106l26 150z" />
    <glyph glyph-name="uni2075" unicode="&#x2075;" horiz-adv-x="350" 
d="M196 302q-109 0 -136 91l68 29q13 -56 71 -56q30 0 52.5 18.5t29.5 48.5q7 37 -11 62t-53 25q-50 0 -79 -47l-58 25l69 232h234l-12 -67h-175l-30 -99q28 19 71 19q58 -1 92 -45.5t22 -105.5q-12 -59 -52.5 -94.5t-102.5 -35.5z" />
    <glyph glyph-name="uni2076" unicode="&#x2076;" horiz-adv-x="358" 
d="M202 302q-71 0 -109 47.5t-27 110.5q8 41 39 79l155 191h83l-116 -140q6 1 17 1q60 0 94.5 -47t23.5 -110q-11 -56 -51 -93t-109 -39zM206 366q33 0 57.5 21t29.5 53q6 36 -14.5 63.5t-56.5 27.5q-32 0 -57 -22t-30 -55q-6 -36 14.5 -62t56.5 -26z" />
    <glyph glyph-name="uni2077" unicode="&#x2077;" horiz-adv-x="341" 
d="M84 308l219 355h-195l11 67h272l-10 -61l-217 -361h-80z" />
    <glyph glyph-name="uni2078" unicode="&#x2078;" horiz-adv-x="344" 
d="M191 302q-61 0 -97.5 39t-26.5 99q11 64 69 97q-33 40 -23 95q9 46 46 75t91 29q53 0 87 -38t26 -88q-13 -62 -59 -89q41 -39 32 -101q-8 -52 -47.5 -85t-97.5 -33zM194 368q31 0 51 16.5t25 43.5q5 29 -13 48.5t-49 19.5q-28 0 -49 -16.5t-25 -44.5q-5 -28 12.5 -47.5
t47.5 -19.5zM231 561q24 0 42.5 14.5t23.5 38.5q4 24 -11 41t-42 17q-25 0 -42.5 -13.5t-22.5 -35.5q-4 -26 11 -44t41 -18z" />
    <glyph glyph-name="uni2079" unicode="&#x2079;" horiz-adv-x="355" 
d="M105 308l117 143h-10q-59 0 -95.5 45.5t-25.5 106.5q11 59 56.5 96t105.5 37q66 0 104 -46.5t27 -108.5q-8 -42 -38 -79l-155 -194h-86zM230 511q31 0 55 21.5t29 52.5q7 36 -12 61.5t-56 25.5q-33 0 -56.5 -21t-29.5 -53q-5 -35 15 -61t55 -26z" />
    <glyph glyph-name="uni207A" unicode="&#x207a;" horiz-adv-x="279" 
d="M74 490l11 59h77l14 76h59l-14 -76h77l-10 -59h-77l-14 -78h-59l14 78h-78z" />
    <glyph glyph-name="uni207B" unicode="&#x207b;" horiz-adv-x="279" 
d="M74 490l11 59h213l-10 -59h-214z" />
    <glyph glyph-name="uni207C" unicode="&#x207c;" horiz-adv-x="279" 
d="M83 536l10 59h214l-10 -59h-214zM65 440l11 59h214l-11 -59h-214z" />
    <glyph glyph-name="uni207D" unicode="&#x207d;" horiz-adv-x="249" 
d="M229 305l-51 -54q-55 47 -85 123t-15 163q16 87 71.5 154.5t126.5 97.5l36 -59q-133 -60 -162 -200q-21 -138 79 -225z" />
    <glyph glyph-name="uni207E" unicode="&#x207e;" horiz-adv-x="249" 
d="M103 730l51 54q55 -47 85 -123t15 -163q-16 -88 -68.5 -154t-129.5 -98l-36 59q133 60 162 200q21 138 -79 225z" />
    <glyph glyph-name="uni2080" unicode="&#x2080;" horiz-adv-x="491" 
d="M220 -6q-97 0 -154.5 71t-41.5 167q15 85 80 140.5t151 55.5q97 0 154 -71.5t40 -166.5q-14 -84 -79 -140t-150 -56zM227 63q57 0 100 39t54 96q12 65 -25.5 114t-104.5 49q-59 0 -102.5 -38.5t-54.5 -96.5q-11 -66 27 -114.5t106 -48.5z" />
    <glyph glyph-name="uni2081" unicode="&#x2081;" horiz-adv-x="288" 
d="M-11 0l11 67h77l43 249q-24 -37 -74 -37h-6l13 74h3q38 0 60 21t26 48h68l-63 -355h82l-11 -67h-229z" />
    <glyph glyph-name="uni2082" unicode="&#x2082;" horiz-adv-x="339" 
d="M-10 0l11 66q6 33 30.5 63.5t47.5 47t62 40.5q5 3 18 11t18.5 11.5t16 11t15.5 11.5t12.5 10.5t11.5 12t7.5 12t4.5 13.5q4 25 -12 41t-45 16q-52 0 -80 -45l-58 28q47 78 140 78q61 0 97 -34.5t26 -92.5q-7 -40 -39 -69.5t-89 -63.5q-72 -44 -90 -65q-16 -18 -19 -36
h194l-12 -67h-268z" />
    <glyph glyph-name="uni2083" unicode="&#x2083;" horiz-adv-x="324" 
d="M120 -6q-47 0 -81 20.5t-49 50.5l64 37q18 -42 69 -42q60 0 69 58q5 28 -13 47.5t-49 19.5h-37l11 67h33q33 0 55.5 16t27.5 40q4 25 -12.5 40.5t-42.5 15.5q-41 0 -67 -34l-54 41q44 57 123 57q62 0 96.5 -38t23.5 -91q-11 -58 -65 -86q54 -40 42 -111
q-23 -108 -144 -108z" />
    <glyph glyph-name="uni2084" unicode="&#x2084;" horiz-adv-x="383" 
d="M173 0l17 97h-185l11 64l229 261h71l-46 -261h62l-11 -64h-62l-17 -97h-69zM95 161h106l26 150z" />
    <glyph glyph-name="uni2085" unicode="&#x2085;" horiz-adv-x="350" 
d="M140 -6q-109 0 -136 91l68 29q13 -56 71 -56q30 0 52.5 18.5t29.5 48.5q7 37 -11 62t-53 25q-50 0 -79 -47l-58 25l69 232h234l-12 -67h-175l-30 -99q28 19 71 19q58 -1 92 -45.5t22 -105.5q-12 -59 -52.5 -94.5t-102.5 -35.5z" />
    <glyph glyph-name="uni2086" unicode="&#x2086;" horiz-adv-x="358" 
d="M146 -6q-71 0 -109 47.5t-27 110.5q8 41 39 79l155 191h83l-116 -140q6 1 17 1q60 0 94.5 -47t23.5 -110q-11 -56 -51 -93t-109 -39zM150 58q33 0 57.5 21t29.5 53q6 36 -14.5 63.5t-56.5 27.5q-32 0 -57 -22t-30 -55q-6 -36 14.5 -62t56.5 -26z" />
    <glyph glyph-name="uni2087" unicode="&#x2087;" horiz-adv-x="341" 
d="M28 0l219 355h-195l11 67h272l-10 -61l-217 -361h-80z" />
    <glyph glyph-name="uni2088" unicode="&#x2088;" horiz-adv-x="344" 
d="M135 -6q-61 0 -97.5 39t-26.5 99q11 64 69 97q-33 40 -23 95q9 46 46 75t91 29q53 0 87 -38t26 -88q-13 -62 -59 -89q41 -39 32 -101q-8 -52 -47.5 -85t-97.5 -33zM138 60q31 0 51 16.5t25 43.5q5 29 -13 48.5t-49 19.5q-28 0 -49 -16.5t-25 -44.5q-5 -28 12.5 -47.5
t47.5 -19.5zM175 253q24 0 42.5 14.5t23.5 38.5q4 24 -11 41t-42 17q-25 0 -42.5 -13.5t-22.5 -35.5q-4 -26 11 -44t41 -18z" />
    <glyph glyph-name="uni2089" unicode="&#x2089;" horiz-adv-x="355" 
d="M49 0l117 143h-10q-59 0 -95.5 45.5t-25.5 106.5q11 59 56.5 96t105.5 37q66 0 104 -46.5t27 -108.5q-8 -42 -38 -79l-155 -194h-86zM174 203q31 0 55 21.5t29 52.5q7 36 -12 61.5t-56 25.5q-33 0 -56.5 -21t-29.5 -53q-5 -35 15 -61t55 -26z" />
    <glyph glyph-name="uni208A" unicode="&#x208a;" horiz-adv-x="279" 
d="M18 182l11 59h77l14 76h59l-14 -76h77l-10 -59h-77l-14 -78h-59l14 78h-78z" />
    <glyph glyph-name="uni208B" unicode="&#x208b;" horiz-adv-x="279" 
d="M18 182l11 59h213l-10 -59h-214z" />
    <glyph glyph-name="uni208C" unicode="&#x208c;" horiz-adv-x="279" 
d="M27 228l10 59h214l-10 -59h-214zM9 132l11 59h214l-11 -59h-214z" />
    <glyph glyph-name="uni208D" unicode="&#x208d;" horiz-adv-x="249" 
d="M173 -3l-51 -54q-55 47 -85 123t-15 163q16 87 71.5 154.5t126.5 97.5l36 -59q-133 -60 -162 -200q-21 -138 79 -225z" />
    <glyph glyph-name="uni208E" unicode="&#x208e;" horiz-adv-x="249" 
d="M59 422l51 54q55 -47 85 -123t15 -163q-16 -88 -68.5 -154t-129.5 -98l-36 59q133 60 162 200q21 138 -79 225z" />
    <glyph glyph-name="uni20A1" unicode="&#x20a1;" horiz-adv-x="802" 
d="M81 -120l95 196q-62 59 -88.5 144.5t-9.5 183.5q25 144 140.5 240t267.5 96h13l49 100h70l-53 -109q30 -6 57 -18l62 127h70l-76 -155q81 -52 119 -136l-76 -35q-29 67 -76 102l-269 -549q14 -2 42 -2q83 0 154 41t113 113l71 -34q-52 -91 -141.5 -143t-203.5 -52
q-37 0 -70 6l-56 -116h-69l64 132q-28 10 -54 27l-77 -159h-68zM156 394q-25 -143 58 -240l248 511q-111 -5 -198.5 -81.5t-107.5 -189.5zM261 111q27 -19 54 -28l274 563q-28 11 -59 15z" />
    <glyph glyph-name="uni20A2" unicode="&#x20a2;" horiz-adv-x="802" 
d="M411 -10q-113 0 -197 56.5t-119.5 151.5t-16.5 206q25 144 140.5 240t267.5 96q104 0 188.5 -53t122.5 -138l-76 -35q-63 151 -245 151q-116 0 -207.5 -77t-112.5 -194q-20 -110 30.5 -201t152.5 -118l40 202q15 70 -43 70h-14l11 67h36q78 0 83 -79q60 79 170 79h68
l-14 -77h-60q-147 0 -177 -157l-23 -115h2q83 0 154 41t113 113l71 -34q-52 -91 -141.5 -143t-203.5 -52z" />
    <glyph glyph-name="franc" unicode="&#x20a3;" horiz-adv-x="534" 
d="M18 0l128 730h413l-13 -74h-334l-30 -171h334l-14 -74h-333l-17 -94h334l-13 -72h-333l-43 -245h-79z" />
    <glyph glyph-name="lira" unicode="&#x20a4;" horiz-adv-x="724" 
d="M117 427l11 63h75q-2 40 4 68q14 82 79 132t158 50q139 0 200 -104l-71 -29q-43 65 -133 65q-61 0 -103 -33t-52 -86q-5 -29 -2 -63h242l-11 -63h-217q3 -11 7 -23t9 -26.5t8 -22.5h180l-11 -63h-149q16 -62 7 -119q-7 -37 -20 -64q73 -55 130 -55q55 0 83 28.5t41 98.5
l6 34h81l-8 -44q-17 -91 -62.5 -136t-130.5 -45q-84 0 -173 68q-59 -69 -149 -69q-65 0 -100.5 33.5t-25.5 89.5q8 39 40 62.5t81 24.5q63 0 133 -50q4 11 5 19q9 55 -15 124h-171l11 63h136q-17 43 -25 72h-98zM145 40q61 0 102 54q-64 49 -104 49q-52 0 -61 -43
q-4 -27 13.5 -43.5t49.5 -16.5z" />
    <glyph glyph-name="uni20A6" unicode="&#x20a6;" horiz-adv-x="800" 
d="M60 397l11 63h80l48 270h81l136 -270h226l48 270h79l-48 -270h81l-11 -63h-81l-12 -72h80l-11 -63h-80l-46 -262h-75l-132 262h-238l-46 -262h-79l46 262h-81l11 63h81l12 72h-80zM219 397l-12 -72h195l-37 72h-146zM448 397l37 -72h134l12 72h-183zM333 460l-76 151
l-27 -151h103zM517 262l67 -134l24 134h-91z" />
    <glyph glyph-name="peseta" unicode="&#x20a7;" horiz-adv-x="1295" 
d="M835 69h173q126 0 137 70q4 25 -14 43.5t-35.5 26t-61.5 22.5q-5 2 -8 3q-14 5 -23.5 8t-22.5 8.5t-21.5 10t-20.5 11.5t-18 13.5t-15 15.5t-11.5 18t-7.5 21t-3 24.5t3 28.5q10 55 60 87t124 31q114 0 185 -91l-64 -41q-48 67 -130 67q-88 0 -99 -61q-7 -41 51 -68
q15 -7 63 -24q29 -10 47.5 -17.5t42 -22t35.5 -30t18.5 -40t1.5 -53.5q-12 -64 -59 -97t-156 -33h-182q-65 0 -110 19.5t-63.5 52t-25.5 73t3 82.5l36 204h-76q-24 -91 -101.5 -147t-185.5 -56h-163l-40 -228h-79l128 730h209q103 0 173.5 -64t68.5 -166h78l21 119l85 42
l-29 -161h111l-12 -69h-111l-36 -207q-11 -72 15.5 -113.5t114.5 -41.5zM345 659h-132l-63 -360h154q85 0 142.5 48t70.5 123q14 80 -36 134.5t-136 54.5z" />
    <glyph glyph-name="uni20A8" unicode="&#x20a8;" horiz-adv-x="1039" 
d="M18 0l128 730h212q112 0 179 -74t48 -181q-14 -82 -78.5 -139t-162.5 -62q14 -46 40.5 -83.5t71 -70t113.5 -50.5t157 -18q153 0 166 85q4 23 -12 40t-37.5 26t-58.5 22q-5 1 -7 2q-31 10 -49.5 17.5t-44 21.5t-38 29t-20 39.5t-2.5 53.5q10 56 61 90t125 33
q60 0 111 -24.5t83 -66.5l-64 -41q-48 67 -139 67q-41 0 -68 -17t-33 -49q-4 -22 12 -39t37.5 -26t59.5 -23q8 -3 12 -4q38 -13 60 -23.5t48.5 -29.5t36 -45.5t3.5 -61.5q-23 -146 -249 -146q-97 0 -175 22t-128.5 57t-86 83.5t-53 96t-24.5 100.5h63q80 0 129.5 41
t61.5 105q13 72 -33 121t-127 51h-134l-115 -659h-79z" />
    <glyph glyph-name="uni20A9" unicode="&#x20a9;" horiz-adv-x="1084" 
d="M59 397l11 63h95l-31 270h81l29 -270h205l135 270h77l41 -270h207l124 270h82l-126 -270h98l-11 -63h-117l-33 -72h137l-11 -63h-156l-122 -262h-77l-40 262h-228l-131 -262h-79l-30 262h-154l11 63h135l-8 72h-114zM496 397l-36 -72h187l-11 72h-140zM712 397l11 -72
h124l33 72h-168zM251 397l8 -72h122l36 72h-166zM604 611l-76 -151h99zM818 262h-85l21 -140zM350 262h-84l15 -137z" />
    <glyph glyph-name="uni20AA" unicode="&#x20aa;" horiz-adv-x="718" 
d="M17 0l129 730h202q113 0 157.5 -58t21.5 -188l-43 -242q-8 -45 -28.5 -63.5t-65.5 -18.5l57 324q17 94 -7.5 133.5t-100.5 39.5h-125l-117 -657h-80zM189 0l103 583q45 0 59 -18.5t6 -63.5l-77 -428h121q77 0 117.5 40t56.5 133l86 484h80l-86 -484q-23 -130 -89.5 -188
t-179.5 -58h-197z" />
    <glyph glyph-name="Euro" unicode="&#x20ac;" 
d="M89 443l11 62h63l4 23q17 93 81.5 152.5t169.5 59.5q62 0 109 -27.5t71 -69.5l-64 -42q-22 37 -48 53.5t-72 16.5q-68 0 -113 -42t-57 -108l-3 -16h260l-22 -62h-249l-27 -156h224l-21 -62h-214q-8 -73 26 -119.5t111 -46.5q84 0 133 75l59 -46q-72 -98 -196 -98
q-114 0 -168.5 65.5t-43.5 169.5h-61l10 62h61l28 156h-62z" />
    <glyph glyph-name="uni20AE" unicode="&#x20ae;" horiz-adv-x="596" 
d="M526 547l-11 -61l-147 -56l-15 -84l147 56l-11 -61l-146 -56l-50 -285h-79l44 252l-147 -56l10 61l148 56l14 84l-147 -56l11 61l147 56l35 198h-209l13 74h497l-13 -74h-209l-30 -165z" />
    <glyph glyph-name="uni20B1" unicode="&#x20b1;" horiz-adv-x="715" 
d="M82 515l11 63h79l27 152h209q81 0 144 -41t86 -111h103l-11 -63h-80q0 -31 -4 -56q-1 -3 -2.5 -8.5t-1.5 -7.5h75l-11 -63h-86q-35 -70 -105 -111t-162 -41h-163l-40 -228h-79l66 380h-79l11 63h79l13 72h-79zM569 470q4 19 2 45h-331l-13 -72h335q2 7 7 27zM356 299
q111 0 174 81h-314l-14 -81h154zM397 659h-132l-14 -81h302q-21 37 -62.5 59t-93.5 22z" />
    <glyph glyph-name="published" unicode="&#x2117;" horiz-adv-x="848" 
d="M397 -132q-170 0 -270 123t-71 292q25 145 137.5 240t256.5 95q169 0 269 -124.5t71 -292.5q-25 -144 -137 -238.5t-256 -94.5zM404 -63q116 0 205 77.5t111 196.5q15 85 -13 162.5t-97 127t-163 49.5q-119 0 -208.5 -77.5t-111.5 -197.5q-23 -134 56 -236t221 -102z
M259 47l68 386h144q67 0 108 -45t31 -107q-9 -58 -52.5 -93.5t-106.5 -35.5h-98l-18 -105h-76zM454 368h-64l-26 -149h79q81 0 93 71q6 37 -17.5 57.5t-64.5 20.5z" />
    <glyph glyph-name="servicemark" unicode="&#x2120;" horiz-adv-x="668" 
d="M320 440l51 290h60l72 -135l127 135h60l-52 -290h-57l37 200l-126 -128l-79 135l-37 -207h-56zM176 435q-67 0 -100 55l51 29q17 -32 50 -32t41 32q2 11 -5.5 20.5t-14.5 14t-25 15.5q-21 12 -32.5 21.5t-20.5 30t-5 46.5q5 31 31.5 50t64.5 19q58 0 88 -47l-48 -30
q-15 26 -44 26q-34 0 -39 -27q-2 -10 5.5 -19.5t14 -13.5t25.5 -14q22 -12 34 -21.5t22 -30.5t5 -49q-5 -33 -31 -54t-67 -21z" />
    <glyph glyph-name="trademark" unicode="&#x2122;" horiz-adv-x="688" 
d="M340 440l51 290h60l72 -135l127 135h60l-52 -290h-57l37 200l-126 -128l-79 135l-37 -207h-56zM162 440l42 238h-91l9 52h239l-9 -52h-91l-42 -238h-57z" />
    <glyph glyph-name="uni2153" unicode="&#x2153;" horiz-adv-x="853" 
d="M69 0l653 730h94l-653 -730h-94zM649 -6q-47 0 -81 20.5t-49 50.5l64 37q18 -42 69 -42q60 0 69 58q5 28 -13 47.5t-49 19.5h-37l11 67h33q33 0 55.5 16t27.5 40q4 25 -12.5 40.5t-42.5 15.5q-41 0 -67 -34l-54 41q44 57 123 57q62 0 96.5 -38t23.5 -91q-11 -58 -65 -86
q54 -40 42 -111q-23 -108 -144 -108zM46 308l11 67h77l43 249q-24 -37 -74 -37h-6l13 74h3q38 0 60 21t26 48h68l-63 -355h82l-11 -67h-229z" />
    <glyph glyph-name="uni2154" unicode="&#x2154;" horiz-adv-x="897" 
d="M116 0l653 730h94l-653 -730h-94zM51 308l11 66q6 33 30.5 63.5t47.5 47t62 40.5q5 3 18 11t18.5 11.5t16 11t15.5 11.5t12.5 10.5t11.5 12t7.5 12t4.5 13.5q4 25 -12 41t-45 16q-52 0 -80 -45l-58 28q47 78 140 78q61 0 97 -34.5t26 -92.5q-7 -40 -39 -69.5t-89 -63.5
q-72 -44 -90 -65q-16 -18 -19 -36h194l-12 -67h-268zM684 -6q-47 0 -81 20.5t-49 50.5l64 37q18 -42 69 -42q60 0 69 58q5 28 -13 47.5t-49 19.5h-37l11 67h33q33 0 55.5 16t27.5 40q4 25 -12.5 40.5t-42.5 15.5q-41 0 -67 -34l-54 41q44 57 123 57q62 0 96.5 -38t23.5 -91
q-11 -58 -65 -86q54 -40 42 -111q-23 -108 -144 -108z" />
    <glyph glyph-name="uni2155" unicode="&#x2155;" horiz-adv-x="870" 
d="M69 0l653 730h94l-653 -730h-94zM664 -6q-109 0 -136 91l68 29q13 -56 71 -56q30 0 52.5 18.5t29.5 48.5q7 37 -11 62t-53 25q-50 0 -79 -47l-58 25l69 232h234l-12 -67h-175l-30 -99q28 19 71 19q58 -1 92 -45.5t22 -105.5q-12 -59 -52.5 -94.5t-102.5 -35.5zM46 308
l11 67h77l43 249q-24 -37 -74 -37h-6l13 74h3q38 0 60 21t26 48h68l-63 -355h82l-11 -67h-229z" />
    <glyph glyph-name="uni2156" unicode="&#x2156;" horiz-adv-x="933" 
d="M116 0l653 730h94l-653 -730h-94zM723 -6q-109 0 -136 91l68 29q13 -56 71 -56q30 0 52.5 18.5t29.5 48.5q7 37 -11 62t-53 25q-50 0 -79 -47l-58 25l69 232h234l-12 -67h-175l-30 -99q28 19 71 19q58 -1 92 -45.5t22 -105.5q-12 -59 -52.5 -94.5t-102.5 -35.5zM51 308
l11 66q6 33 30.5 63.5t47.5 47t62 40.5q5 3 18 11t18.5 11.5t16 11t15.5 11.5t12.5 10.5t11.5 12t7.5 12t4.5 13.5q4 25 -12 41t-45 16q-52 0 -80 -45l-58 28q47 78 140 78q61 0 97 -34.5t26 -92.5q-7 -40 -39 -69.5t-89 -63.5q-72 -44 -90 -65q-16 -18 -19 -36h194l-12 -67
h-268z" />
    <glyph glyph-name="uni2157" unicode="&#x2157;" horiz-adv-x="918" 
d="M101 0l653 730h94l-653 -730h-94zM708 -6q-109 0 -136 91l68 29q13 -56 71 -56q30 0 52.5 18.5t29.5 48.5q7 37 -11 62t-53 25q-50 0 -79 -47l-58 25l69 232h234l-12 -67h-175l-30 -99q28 19 71 19q58 -1 92 -45.5t22 -105.5q-12 -59 -52.5 -94.5t-102.5 -35.5zM175 302
q-47 0 -81 20.5t-49 50.5l64 37q18 -42 69 -42q60 0 69 58q5 28 -13 47.5t-49 19.5h-37l11 67h33q33 0 55.5 16t27.5 40q4 25 -12.5 40.5t-42.5 15.5q-41 0 -67 -34l-54 41q44 57 123 57q62 0 96.5 -38t23.5 -91q-11 -58 -65 -86q54 -40 42 -111q-23 -108 -144 -108z" />
    <glyph glyph-name="uni2158" unicode="&#x2158;" horiz-adv-x="940" 
d="M229 308l17 97h-185l11 64l229 261h71l-46 -261h62l-11 -64h-62l-17 -97h-69zM123 0l653 730h94l-653 -730h-94zM730 -6q-109 0 -136 91l68 29q13 -56 71 -56q30 0 52.5 18.5t29.5 48.5q7 37 -11 62t-53 25q-50 0 -79 -47l-58 25l69 232h234l-12 -67h-175l-30 -99
q28 19 71 19q58 -1 92 -45.5t22 -105.5q-12 -59 -52.5 -94.5t-102.5 -35.5zM151 469h106l26 150z" />
    <glyph glyph-name="uni2159" unicode="&#x2159;" horiz-adv-x="805" 
d="M593 -6q-71 0 -109 47.5t-27 110.5q8 41 39 79l155 191h83l-116 -140q6 1 17 1q60 0 94.5 -47t23.5 -110q-11 -56 -51 -93t-109 -39zM69 0l653 730h94l-653 -730h-94zM46 308l11 67h77l43 249q-24 -37 -74 -37h-6l13 74h3q38 0 60 21t26 48h68l-63 -355h82l-11 -67h-229z
M597 58q33 0 57.5 21t29.5 53q6 36 -14.5 63.5t-56.5 27.5q-32 0 -57 -22t-30 -55q-6 -36 14.5 -62t56.5 -26z" />
    <glyph glyph-name="uni215A" unicode="&#x215a;" horiz-adv-x="835" 
d="M623 -6q-71 0 -109 47.5t-27 110.5q8 41 39 79l155 191h83l-116 -140q6 1 17 1q60 0 94.5 -47t23.5 -110q-11 -56 -51 -93t-109 -39zM99 0l653 730h94l-653 -730h-94zM196 302q-109 0 -136 91l68 29q13 -56 71 -56q30 0 52.5 18.5t29.5 48.5q7 37 -11 62t-53 25
q-50 0 -79 -47l-58 25l69 232h234l-12 -67h-175l-30 -99q28 19 71 19q58 -1 92 -45.5t22 -105.5q-12 -59 -52.5 -94.5t-102.5 -35.5zM627 58q33 0 57.5 21t29.5 53q6 36 -14.5 63.5t-56.5 27.5q-32 0 -57 -22t-30 -55q-6 -36 14.5 -62t56.5 -26z" />
    <glyph glyph-name="uni215B" unicode="&#x215b;" horiz-adv-x="861" 
d="M652 -6q-61 0 -97.5 39t-26.5 99q11 64 69 97q-33 40 -23 95q9 46 46 75t91 29q53 0 87 -38t26 -88q-13 -62 -59 -89q41 -39 32 -101q-8 -52 -47.5 -85t-97.5 -33zM69 0l653 730h94l-653 -730h-94zM46 308l11 67h77l43 249q-24 -37 -74 -37h-6l13 74h3q38 0 60 21t26 48
h68l-63 -355h82l-11 -67h-229zM655 60q31 0 51 16.5t25 43.5q5 29 -13 48.5t-49 19.5q-28 0 -49 -16.5t-25 -44.5q-5 -28 12.5 -47.5t47.5 -19.5zM692 253q24 0 42.5 14.5t23.5 38.5q4 24 -11 41t-42 17q-25 0 -42.5 -13.5t-22.5 -35.5q-4 -26 11 -44t41 -18z" />
    <glyph glyph-name="uni215C" unicode="&#x215c;" horiz-adv-x="894" 
d="M685 -6q-61 0 -97.5 39t-26.5 99q11 64 69 97q-33 40 -23 95q9 46 46 75t91 29q53 0 87 -38t26 -88q-13 -62 -59 -89q41 -39 32 -101q-8 -52 -47.5 -85t-97.5 -33zM102 0l653 730h94l-653 -730h-94zM197 302q-47 0 -81 20.5t-49 50.5l64 37q18 -42 69 -42q60 0 69 58
q5 28 -13 47.5t-49 19.5h-37l11 67h33q33 0 55.5 16t27.5 40q4 25 -12.5 40.5t-42.5 15.5q-41 0 -67 -34l-54 41q44 57 123 57q62 0 96.5 -38t23.5 -91q-11 -58 -65 -86q54 -40 42 -111q-23 -108 -144 -108zM688 60q31 0 51 16.5t25 43.5q5 29 -13 48.5t-49 19.5
q-28 0 -49 -16.5t-25 -44.5q-5 -28 12.5 -47.5t47.5 -19.5zM725 253q24 0 42.5 14.5t23.5 38.5q4 24 -11 41t-42 17q-25 0 -42.5 -13.5t-22.5 -35.5q-4 -26 11 -44t41 -18z" />
    <glyph glyph-name="uni215D" unicode="&#x215d;" horiz-adv-x="880" 
d="M683 -6q-61 0 -97.5 39t-26.5 99q11 64 69 97q-33 40 -23 95q9 46 46 75t91 29q53 0 87 -38t26 -88q-13 -62 -59 -89q41 -39 32 -101q-8 -52 -47.5 -85t-97.5 -33zM100 0l653 730h94l-653 -730h-94zM196 302q-109 0 -136 91l68 29q13 -56 71 -56q30 0 52.5 18.5
t29.5 48.5q7 37 -11 62t-53 25q-50 0 -79 -47l-58 25l69 232h234l-12 -67h-175l-30 -99q28 19 71 19q58 -1 92 -45.5t22 -105.5q-12 -59 -52.5 -94.5t-102.5 -35.5zM686 60q31 0 51 16.5t25 43.5q5 29 -13 48.5t-49 19.5q-28 0 -49 -16.5t-25 -44.5q-5 -28 12.5 -47.5
t47.5 -19.5zM723 253q24 0 42.5 14.5t23.5 38.5q4 24 -11 41t-42 17q-25 0 -42.5 -13.5t-22.5 -35.5q-4 -26 11 -44t41 -18z" />
    <glyph glyph-name="uni215E" unicode="&#x215e;" horiz-adv-x="785" 
d="M582 -6q-61 0 -97.5 39t-26.5 99q11 64 69 97q-33 40 -23 95q9 46 46 75t91 29q53 0 87 -38t26 -88q-13 -62 -59 -89q41 -39 32 -101q-8 -52 -47.5 -85t-97.5 -33zM-1 0l653 730h94l-653 -730h-94zM84 308l219 355h-195l11 67h272l-10 -61l-217 -361h-80zM585 60
q31 0 51 16.5t25 43.5q5 29 -13 48.5t-49 19.5q-28 0 -49 -16.5t-25 -44.5q-5 -28 12.5 -47.5t47.5 -19.5zM622 253q24 0 42.5 14.5t23.5 38.5q4 24 -11 41t-42 17q-25 0 -42.5 -13.5t-22.5 -35.5q-4 -26 11 -44t41 -18z" />
    <glyph glyph-name="uni215F" unicode="&#x215f;" horiz-adv-x="763" 
d="M69 0l653 730h94l-653 -730h-94zM46 308l11 67h77l43 249q-24 -37 -74 -37h-6l13 74h3q38 0 60 21t26 48h68l-63 -355h82l-11 -67h-229z" />
    <glyph glyph-name="arrowleft" unicode="&#x2190;" horiz-adv-x="896" 
d="M278 117q-35 67 -91 130t-117 97v47q61 34 117 97t91 130l65 -43q-26 -45 -69.5 -92.5t-83.5 -77.5h654v-75h-654q41 -30 84 -77.5t69 -92.5z" />
    <glyph glyph-name="arrowup" unicode="&#x2191;" horiz-adv-x="896" 
d="M438 0v631q-31 -40 -77.5 -82.5t-90.5 -67.5l-43 65q67 35 130 91t97 117h47q34 -61 97 -117t130 -91l-43 -65q-45 26 -92.5 69t-76.5 83v-633h-78z" />
    <glyph glyph-name="arrowright" unicode="&#x2192;" horiz-adv-x="896" 
d="M635 117l-64 43q25 45 68.5 92.5t84.5 77.5h-654v75h653q-95 72 -152 169l66 44q34 -67 90 -130.5t117 -97.5v-46q-61 -34 -117.5 -96.5t-91.5 -130.5z" />
    <glyph glyph-name="arrowdown" unicode="&#x2193;" horiz-adv-x="896" 
d="M421 -24q-34 61 -97 117t-130 91l43 65q44 -25 90.5 -67t76.5 -82v630h78v-634q29 40 77 83.5t93 69.5l43 -65q-67 -35 -130 -91t-97 -117h-47z" />
    <glyph glyph-name="uni2196" unicode="&#x2196;" horiz-adv-x="896" 
d="M154 317q23 71 27 153t-14 154l33 34q74 -19 155 -14.5t153 27.5l15 -76q-51 -14 -117 -17t-112 5l464 -463l-54 -53l-462 461q7 -46 4 -111.5t-16 -115.5z" />
    <glyph glyph-name="uni2197" unicode="&#x2197;" horiz-adv-x="896" 
d="M210 66l-53 54l461 461q-118 -17 -227 13l16 76q71 -23 153 -27t154 14l34 -33q-19 -74 -14.5 -155t27.5 -153l-76 -15q-30 111 -12 229z" />
    <glyph glyph-name="uni2198" unicode="&#x2198;" horiz-adv-x="896" 
d="M714 76q-74 19 -155 14.5t-153 -27.5l-15 76q50 13 116.5 16t112.5 -4l-464 463l54 53l461 -462q-7 46 -4 111.5t17 116.5l76 -16q-23 -71 -27 -153t14 -154z" />
    <glyph glyph-name="uni2199" unicode="&#x2199;" horiz-adv-x="896" 
d="M507 64q-71 23 -153 27t-154 -14l-34 33q19 74 14.5 155t-27.5 153l76 15q13 -51 16 -117t-4 -112l463 464l53 -54l-462 -462q117 16 228 -12z" />
    <glyph glyph-name="partialdiff" unicode="&#x2202;" horiz-adv-x="620" 
d="M292 -10q-116 0 -186 78t-55 194q12 106 87.5 172.5t174.5 66.5q97 0 155 -55q-66 130 -262 284h116q142 -124 204.5 -256t38.5 -257q-20 -104 -93.5 -165.5t-179.5 -61.5zM297 59q68 0 122.5 46t67.5 115q18 83 -27.5 148.5t-138.5 65.5q-69 0 -122.5 -45.5
t-67.5 -117.5q-16 -83 31.5 -147.5t134.5 -64.5z" />
    <glyph glyph-name="increment" unicode="&#x2206;" horiz-adv-x="897" 
d="M832 0h-852l553 742zM514 583l-382 -508h587z" />
    <glyph glyph-name="product" unicode="&#x220f;" horiz-adv-x="780" 
d="M117 656l13 74h688l-13 -74h-141l-115 -656h-79l115 656h-247l-115 -656h-79l115 656h-142z" />
    <glyph glyph-name="summation" unicode="&#x2211;" horiz-adv-x="563" 
d="M-8 0l7 67l307 312l-185 286l14 65h474l-13 -73h-382l183 -289l-289 -294h399l-13 -74h-502z" />
    <glyph glyph-name="minus" unicode="&#x2212;" horiz-adv-x="464" 
d="M57 332l11 67h370l-11 -67h-370z" />
    <glyph glyph-name="radical" unicode="&#x221a;" horiz-adv-x="789" 
d="M298 0l-154 425h-89v75h144l146 -401l342 631h91l-404 -730h-76z" />
    <glyph glyph-name="infinity" unicode="&#x221e;" horiz-adv-x="940" 
d="M271 214q-71 0 -121 50t-50 120t50 120t121 50q53 0 105 -31.5t115 -87.5q62 56 113.5 87.5t104.5 31.5q71 0 120.5 -50t49.5 -120t-49.5 -120t-120.5 -50q-52 0 -103.5 32.5t-115.5 91.5q-64 -59 -115.5 -91.5t-103.5 -32.5zM272 283q35 0 73.5 25.5t93.5 76.5
q-107 98 -167 98q-40 0 -70 -30t-30 -70t30 -70t70 -30zM708 285q40 0 70 30t29 70q0 40 -29.5 70t-69.5 30q-36 0 -74 -25t-91 -73q54 -50 92 -76t73 -26z" />
    <glyph glyph-name="integral" unicode="&#x222b;" horiz-adv-x="358" 
d="M-73 -187l12 72h16q57 0 80 21.5t34 86.5l95 547q20 117 59 153.5t140 36.5h23l-13 -72h-16q-59 0 -80.5 -20t-35.5 -99l-96 -546q-18 -104 -56.5 -142t-125.5 -38h-36z" />
    <glyph glyph-name="approxequal" unicode="&#x2248;" horiz-adv-x="464" 
d="M70 405l12 69q59 26 102 26q31 0 88 -19t82 -19q39 0 101 25l-13 -69q-48 -25 -100 -25q-29 0 -87 19t-83 19q-43 0 -102 -26zM40 238l12 69q62 27 99 27q31 0 90.5 -18.5t84.5 -18.5q42 0 99 23l-13 -69q-45 -23 -98 -23q-29 0 -89.5 18.5t-85.5 18.5q-37 0 -99 -27z
" />
    <glyph glyph-name="notequal" unicode="&#x2260;" horiz-adv-x="464" 
d="M71 411l12 67h198l39 68h57l-38 -68h114l-12 -67h-139l-54 -96h176l-12 -66h-200l-39 -70h-60l39 70h-110l12 66h135l54 96h-172z" />
    <glyph glyph-name="equivalence" unicode="&#x2261;" horiz-adv-x="464" 
d="M56 330l12 67h370l-12 -67h-370zM27 168l12 66h370l-12 -66h-370zM85 492l12 67h370l-12 -67h-370z" />
    <glyph glyph-name="lessequal" unicode="&#x2264;" horiz-adv-x="464" 
d="M415 270l-344 142l12 67l394 139l-13 -71l-307 -103l271 -106zM26 159l12 67h370l-12 -67h-370z" />
    <glyph glyph-name="greaterequal" unicode="&#x2265;" horiz-adv-x="464" 
d="M45 270l13 72l306 103l-269 106l12 67l344 -142l-12 -66zM26 159l12 67h370l-12 -67h-370z" />
    <glyph glyph-name="squaremultiply" unicode="&#x22a0;" horiz-adv-x="926" 
d="M117 0v730h726v-730h-726zM195 655v-580h570v580h-570zM339 170l-46 46l143 149l-145 152l46 46l144 -151l144 151l46 -46l-145 -152l141 -147l-46 -46l-140 146z" />
    <glyph glyph-name="house" unicode="&#x2302;" horiz-adv-x="874" 
d="M774 0h-674v427l337 323l337 -323v-427z" />
    <glyph glyph-name="blacksquare" unicode="&#x25a0;" horiz-adv-x="926" 
d="M117 0v730h726v-730h-726z" />
    <glyph glyph-name="blacksquare" unicode="&#xe740;" horiz-adv-x="926" 
d="M117 0v730h726v-730h-726z" />
    <glyph glyph-name="whitesquare" unicode="&#x25a1;" horiz-adv-x="926" 
d="M117 0v730h726v-730h-726zM195 655v-580h570v580h-570z" />
    <glyph glyph-name="blacksmallsquare" unicode="&#x25aa;" horiz-adv-x="700" 
d="M100 0v500h500v-500h-500z" />
    <glyph glyph-name="whitesmallsquare" unicode="&#x25ab;" horiz-adv-x="700" 
d="M100 0v500h500v-500h-500zM178 425v-350h344v350h-344z" />
    <glyph glyph-name="triagup" unicode="&#x25b2;" horiz-adv-x="897" 
d="M847 0h-857l429 742z" />
    <glyph glyph-name="triagrt" unicode="&#x25ba;" horiz-adv-x="897" 
d="M140 -57v857l742 -428z" />
    <glyph glyph-name="triagdn" unicode="&#x25bc;" horiz-adv-x="897" 
d="M90 730h857l-428 -742z" />
    <glyph glyph-name="triaglf" unicode="&#x25c4;" horiz-adv-x="897" 
d="M797 800v-857l-742 429z" />
    <glyph glyph-name="lozenge" unicode="&#x25ca;" horiz-adv-x="843" 
d="M384 -16l-328 394l434 368l328 -394zM160 372l232 -280l321 268l-232 280z" />
    <glyph glyph-name="whitecircle" unicode="&#x25cb;" horiz-adv-x="927" 
d="M479 -10q-155 0 -265 110t-110 265t110 265t265 110t265 -110t110 -265t-110 -265t-265 -110zM479 64q125 0 210 88t85 213t-85 213t-210 88t-210 -88t-85 -213t85 -213t210 -88z" />
    <glyph glyph-name="whitecircle" unicode="&#x25ef;" horiz-adv-x="927" 
d="M479 -10q-155 0 -265 110t-110 265t110 265t265 110t265 -110t110 -265t-110 -265t-265 -110zM479 64q125 0 210 88t85 213t-85 213t-210 88t-210 -88t-85 -213t85 -213t210 -88z" />
    <glyph glyph-name="bullseye" unicode="&#x25ce;" horiz-adv-x="927" 
d="M482 -10q-155 0 -265 110t-110 265t110 265t265 110t265 -110t110 -265t-110 -265t-265 -110zM482 64q125 0 210 88t85 213t-85 213t-210 88t-210 -88t-85 -213t85 -213t210 -88zM482 140q-93 0 -158 64.5t-65 159.5t65 159.5t158 64.5q94 0 159 -64.5t65 -159.5
t-65 -159.5t-159 -64.5zM482 212q62 0 105 44t43 108t-43 108t-105 44t-104.5 -44t-42.5 -108t42.5 -108t104.5 -44zM482 288q-31 0 -53 22.5t-22 54.5t22 54.5t53 22.5t53 -22.5t22 -54.5t-22 -54.5t-53 -22.5z" />
    <glyph glyph-name="blackcircle" unicode="&#x25cf;" horiz-adv-x="927" 
d="M479 -10q-155 0 -265 110t-110 265t110 265t265 110t265 -110t110 -265t-110 -265t-265 -110z" />
    <glyph glyph-name="uni25E2" unicode="&#x25e2;" horiz-adv-x="897" 
d="M913 533l-606 -606l-222 828z" />
    <glyph glyph-name="uni25E3" unicode="&#x25e3;" horiz-adv-x="897" 
d="M682 -73l-606 606l828 222z" />
    <glyph glyph-name="uni25E4" unicode="&#x25e4;" horiz-adv-x="897" 
d="M837 -54l-828 222l606 606z" />
    <glyph glyph-name="uni25E5" unicode="&#x25e5;" horiz-adv-x="897" 
d="M872 163l-828 -221l223 828z" />
    <glyph glyph-name="uni2605" unicode="&#x2605;" horiz-adv-x="900" 
d="M577 303l72 -218l-187 135l-186 -135l72 219l-186 135l229 -1l72 218l71 -218l230 -1z" />
    <glyph glyph-name="ballotboxwithx" unicode="&#x2612;" horiz-adv-x="700" 
d="M100 0v500h500v-500h-500zM178 425v-350h344v350h-344zM264 113l-46 46l85 88l-89 86l46 46l88 -85l87 90l46 -46l-86 -89l90 -87l-46 -46l-90 86z" />
    <glyph glyph-name="uni263C" unicode="&#x263c;" horiz-adv-x="928" 
d="M304 365q0 71 51.5 122.5t122.5 51.5t122.5 -51.5t51.5 -122.5t-51.5 -122.5t-122.5 -51.5t-122.5 51.5t-51.5 122.5zM468 577l-17 142h54l-17 -142h-20zM488 155l17 -142h-54l17 142h20zM267 356l-142 -17v54l142 -17v-20zM689 376l142 17v-54l-142 17v20zM290 464
l-133 55l28 47l115 -87zM666 268l133 -55l-28 -47l-115 87zM365 544l-87 115l47 28l55 -133zM591 188l87 -115l-47 -28l-55 133zM576 554l55 133l47 -28l-87 -115zM380 178l-55 -133l-47 28l87 115zM656 480l113 86l30 -46l-133 -56zM300 252l-113 -86l-30 46l133 56z" />
    <glyph glyph-name="uni263E" unicode="&#x263e;" horiz-adv-x="787" 
d="M551 616q-99 0 -169 -73.5t-70 -177.5t70 -177.5t169 -73.5q32 0 71 12q-81 -57 -178 -57q-122 0 -209 87t-87 209t87 209t209 87q97 0 178 -57q-46 12 -71 12z" />
    <glyph glyph-name="spade" unicode="&#x2660;" horiz-adv-x="920" 
d="M605 0h-259q27 50 39.5 75.5t33.5 92.5t21 122q-21 -59 -64 -97.5t-106 -38.5q-70 0 -120.5 47t-50.5 111q0 82 52 150t183 173l140 112h1l140 -112q128 -103 178 -171t50 -152q0 -64 -46.5 -110.5t-110.5 -46.5q-69 0 -114.5 38.5t-66.5 96.5q0 -29 6 -61t13 -55.5
t21.5 -56t21 -45.5t22.5 -42t16 -30z" />
    <glyph glyph-name="club" unicode="&#x2663;" horiz-adv-x="920" 
d="M599 0h-259q80 150 91 248q-22 -53 -66.5 -85.5t-100.5 -32.5q-74 0 -125.5 52t-51.5 125t51.5 125t125.5 52q19 0 42 -7q-19 41 -19 87q0 73 51 124.5t124 51.5t124.5 -51.5t51.5 -124.5q0 -45 -19 -88q22 8 46 8q73 0 124.5 -51.5t51.5 -125.5q0 -73 -51.5 -125
t-125.5 -52q-56 0 -99 32t-64 85q3 -25 10.5 -52t15.5 -48t20 -46.5t19 -39t19 -35.5t14 -26z" />
    <glyph glyph-name="heart" unicode="&#x2665;" horiz-adv-x="920" 
d="M137 550q0 78 53 134t130 56q75 0 126 -45.5t59 -115.5q9 70 59.5 115.5t125.5 45.5q77 0 133 -56.5t56 -133.5q0 -85 -52.5 -177t-179.5 -233l-142 -157l-141 157q-125 139 -176 231.5t-51 178.5z" />
    <glyph glyph-name="diamond" unicode="&#x2666;" horiz-adv-x="920" 
d="M159 390l327 401l327 -401l-327 -400z" />
    <glyph glyph-name="uni267B" unicode="&#x267b;" horiz-adv-x="921" 
d="M838 246l1 -2l-91 -157q-13 -19 -19.5 -27.5t-23 -16.5t-39.5 -8h-54v-47l-106 128l106 127v-46h136q25 0 47.5 12.5t32.5 24.5zM201 111h-2l-90 158q-10 19 -14 29.5t-3 28.5t13 38l27 46l-40 23l164 29l55 -156l-38 23q-66 -113 -68 -118q-12 -21 -13 -46.5t4 -39.5z
M406 728v1h182q22 -1 33.5 -2.5t26.5 -11.5t26 -30l26 -46l41 23l-58 -157l-162 30l38 22l-67 118q-13 22 -34.5 35t-36.5 16zM214 558l63 112q11 18 32 29q43 22 91 9t64 -42l-109 -189zM446 35h-127q-23 0 -42 12q-40 23 -53.5 74t4.5 76h218v-162zM784 491l65 -110
q9 -14 9 -41q1 -45 -35.5 -81.5t-69.5 -36.5l-109 189z" />
    <glyph glyph-name="uni267C" unicode="&#x267c;" horiz-adv-x="921" 
d="M852 366q0 -156 -110 -265.5t-265 -109.5q-157 0 -267 109.5t-110 265.5t110 266.5t267 110.5q155 0 265 -110.5t110 -266.5zM319 606l-49 -86l109 -63l84 146q-12 23 -49.5 33t-70.5 -7q-19 -12 -24 -23zM414 652v-1q46 -4 67 -41l53 -91l-30 -18l126 -23l44 122
l-31 -18l-21 36q-13 22 -27.5 28t-39.5 6h-141zM347 114h99v126h-170q-14 -20 -3 -59.5t42 -57.5q16 -9 32 -9zM258 173h1q-18 41 3 79l53 91l30 -18l-43 121l-127 -22l31 -18l-21 -36q-9 -15 -10 -29.5t2 -21.5t11 -24zM761 383l-49 85l-110 -63l85 -147q26 0 54.5 28.5
t27.5 64.5q0 18 -8 32zM754 276l-1 1q-26 -37 -70 -37h-105v35l-83 -98l83 -99v36h41q26 0 39 9.5t25 30.5z" />
    <glyph glyph-name="uni267D" unicode="&#x267d;" horiz-adv-x="921" 
d="M850 366q0 -156 -110 -265.5t-265 -109.5q-157 0 -267 109.5t-110 265.5t110 266.5t267 110.5q155 0 265 -110.5t110 -266.5zM831 366q0 149 -104 253.5t-252 104.5q-149 0 -254 -104.5t-105 -253.5q0 -148 105 -252.5t254 -104.5q148 0 252 104.5t104 252.5zM268 520
l49 86q5 11 24 23q33 17 70.5 7t49.5 -33l-84 -146zM412 651v1h141q25 0 39.5 -6t27.5 -28l21 -36l31 18l-44 -122l-126 23l30 18l-53 91q-9 16 -26 26.5t-29 12.5zM444 114h-99q-15 0 -32 9q-31 18 -42 57.5t3 59.5h170v-126zM257 173h-1l-70 122q-8 17 -11 24t-2 21.5
t10 29.5l21 36l-31 18l127 22l43 -121l-30 18l-53 -91q-9 -17 -10 -36.5t3 -31.5zM710 468l49 -85q8 -14 8 -32q1 -36 -27.5 -64.5t-54.5 -28.5l-85 147zM751 277l1 -1l-71 -122q-8 -14 -14 -21t-19 -13t-31 -6h-41v-36l-83 99l83 98v-35h105q20 0 37.5 9t25.5 19z" />
    <glyph glyph-name="mediumwhitecircle" unicode="&#x26aa;" horiz-adv-x="698" 
d="M349 -10q-108 0 -183.5 75t-75.5 185t75.5 185t183.5 75q109 0 184.5 -75t75.5 -185t-75.5 -185t-184.5 -75zM349 60q76 0 129 55.5t53 134.5t-53 134.5t-129 55.5t-128.5 -55.5t-52.5 -134.5t52.5 -134.5t128.5 -55.5z" />
    <glyph glyph-name="mediumblackcircle" unicode="&#x26ab;" horiz-adv-x="698" 
d="M349 -10q-108 0 -183.5 76t-75.5 184t75.5 184t183.5 76t183.5 -76t75.5 -184t-75.5 -184t-183.5 -76z" />
    <glyph glyph-name="anglebracketleft" unicode="&#x3008;" horiz-adv-x="392" 
d="M163 -230l-105 492l274 468h88l-282 -482l103 -478h-78z" />
    <glyph glyph-name="anglebracketright" unicode="&#x3009;" horiz-adv-x="392" 
d="M-33 -230l281 481l-102 479h78l105 -492l-274 -468h-88z" />
    <glyph glyph-name="cordinal" unicode="&#xe181;" horiz-adv-x="389" 
d="M240 435q-67 0 -105.5 49t-27.5 116q10 59 56 97.5t107 38.5q43 0 77.5 -22t49.5 -58l-55 -26q-21 52 -79 52q-36 0 -64.5 -25t-35.5 -63q-7 -41 16 -72t66 -31q58 0 86 52l50 -27q-45 -81 -141 -81z" />
    <glyph glyph-name="p.smcp" unicode="&#xe200;" horiz-adv-x="518" 
d="M26 0l104 596h167q92 0 151 -63t42 -161q-15 -85 -79.5 -138t-161.5 -53h-114l-32 -181h-77zM287 525h-92l-48 -272h107q65 0 107.5 36.5t52.5 94.5q10 59 -26.5 100t-100.5 41z" />
    <glyph glyph-name="p.smcp" unicode="&#xf770;" horiz-adv-x="518" 
d="M26 0l104 596h167q92 0 151 -63t42 -161q-15 -85 -79.5 -138t-161.5 -53h-114l-32 -181h-77zM287 525h-92l-48 -272h107q65 0 107.5 36.5t52.5 94.5q10 59 -26.5 100t-100.5 41z" />
    <glyph glyph-name="a.smcp" unicode="&#xe201;" horiz-adv-x="575" 
d="M-16 0l329 596h78l112 -596h-78l-25 137h-258l-75 -137h-83zM336 493l-154 -282h205z" />
    <glyph glyph-name="a.smcp" unicode="&#xf761;" horiz-adv-x="575" 
d="M-16 0l329 596h78l112 -596h-78l-25 137h-258l-75 -137h-83zM336 493l-154 -282h205z" />
    <glyph glyph-name="b.smcp" unicode="&#xe202;" horiz-adv-x="542" 
d="M26 0l104 596h208q80 0 128 -50t35 -122q-11 -87 -91 -126q84 -47 67 -147q-13 -69 -69.5 -110t-143.5 -41h-238zM295 269h-145l-34 -196h155q49 0 84 23.5t43 68.5t-20 74.5t-83 29.5zM329 525h-134l-32 -186h148q48 0 78.5 26t36.5 63q6 42 -20.5 69.5t-76.5 27.5z" />
    <glyph glyph-name="b.smcp" unicode="&#xf762;" horiz-adv-x="542" 
d="M26 0l104 596h208q80 0 128 -50t35 -122q-11 -87 -91 -126q84 -47 67 -147q-13 -69 -69.5 -110t-143.5 -41h-238zM295 269h-145l-34 -196h155q49 0 84 23.5t43 68.5t-20 74.5t-83 29.5zM329 525h-134l-32 -186h148q48 0 78.5 26t36.5 63q6 42 -20.5 69.5t-76.5 27.5z" />
    <glyph glyph-name="c.smcp" unicode="&#xe203;" horiz-adv-x="658" 
d="M324 -8q-140 0 -218 99t-54 237q20 118 114 198t218 80q87 0 157.5 -45t101.5 -119l-76 -35q-24 59 -72.5 93t-120.5 34q-87 0 -157 -62t-87 -153q-18 -101 39 -176.5t163 -75.5q65 0 120 33.5t87 92.5l72 -35q-43 -77 -116.5 -121.5t-170.5 -44.5z" />
    <glyph glyph-name="c.smcp" unicode="&#xf763;" horiz-adv-x="658" 
d="M324 -8q-140 0 -218 99t-54 237q20 118 114 198t218 80q87 0 157.5 -45t101.5 -119l-76 -35q-24 59 -72.5 93t-120.5 34q-87 0 -157 -62t-87 -153q-18 -101 39 -176.5t163 -75.5q65 0 120 33.5t87 92.5l72 -35q-43 -77 -116.5 -121.5t-170.5 -44.5z" />
    <glyph glyph-name="d.smcp" unicode="&#xe204;" horiz-adv-x="600" 
d="M26 0l104 596h164q131 -1 208.5 -94.5t54.5 -222.5q-21 -122 -112 -200.5t-216 -78.5h-203zM286 523h-92l-79 -450h123q89 0 157 60t85 152q17 99 -38 168.5t-156 69.5z" />
    <glyph glyph-name="d.smcp" unicode="&#xf764;" horiz-adv-x="600" 
d="M26 0l104 596h164q131 -1 208.5 -94.5t54.5 -222.5q-21 -122 -112 -200.5t-216 -78.5h-203zM286 523h-92l-79 -450h123q89 0 157 60t85 152q17 99 -38 168.5t-156 69.5z" />
    <glyph glyph-name="e.smcp" unicode="&#xe205;" horiz-adv-x="486" 
d="M26 0l104 596h361l-13 -74h-284l-32 -186h284l-14 -74h-283l-33 -187h283l-13 -75h-360z" />
    <glyph glyph-name="e.smcp" unicode="&#xf765;" horiz-adv-x="486" 
d="M26 0l104 596h361l-13 -74h-284l-32 -186h284l-14 -74h-283l-33 -187h283l-13 -75h-360z" />
    <glyph glyph-name="f.smcp" unicode="&#xe206;" horiz-adv-x="456" 
d="M26 0l104 596h338l-13 -74h-261l-32 -186h260l-13 -74h-260l-46 -262h-77z" />
    <glyph glyph-name="f.smcp" unicode="&#xf766;" horiz-adv-x="456" 
d="M26 0l104 596h338l-13 -74h-261l-32 -186h260l-13 -74h-260l-46 -262h-77z" />
    <glyph glyph-name="g.smcp" unicode="&#xe207;" horiz-adv-x="711" 
d="M341 -10q-139 0 -221 101.5t-58 238.5q21 118 111.5 197t211.5 79q89 0 155 -41t101 -109l-73 -37q-58 114 -187 114q-92 0 -159.5 -60.5t-83.5 -150.5q-18 -105 42.5 -182t168.5 -77q84 0 145 50t85 131h-237l14 74h319l-8 -46q-22 -126 -110.5 -204t-215.5 -78z" />
    <glyph glyph-name="g.smcp" unicode="&#xf767;" horiz-adv-x="711" 
d="M341 -10q-139 0 -221 101.5t-58 238.5q21 118 111.5 197t211.5 79q89 0 155 -41t101 -109l-73 -37q-58 114 -187 114q-92 0 -159.5 -60.5t-83.5 -150.5q-18 -105 42.5 -182t168.5 -77q84 0 145 50t85 131h-237l14 74h319l-8 -46q-22 -126 -110.5 -204t-215.5 -78z" />
    <glyph glyph-name="h.smcp" unicode="&#xe208;" horiz-adv-x="564" 
d="M26 0l104 596h78l-46 -260h269l46 260h78l-105 -596h-77l45 260h-269l-46 -260h-77z" />
    <glyph glyph-name="h.smcp" unicode="&#xf768;" horiz-adv-x="564" 
d="M26 0l104 596h78l-46 -260h269l46 260h78l-105 -596h-77l45 260h-269l-46 -260h-77z" />
    <glyph glyph-name="i.smcp" unicode="&#xe209;" horiz-adv-x="227" 
d="M31 0l104 596h77l-104 -596h-77z" />
    <glyph glyph-name="i.smcp" unicode="&#xf769;" horiz-adv-x="227" 
d="M31 0l104 596h77l-104 -596h-77z" />
    <glyph glyph-name="j.smcp" unicode="&#xe20a;" horiz-adv-x="411" 
d="M154 -10q-65 0 -105.5 33t-54.5 90l76 23q20 -73 84 -73q40 0 66 27.5t33 70.5l76 435h78l-79 -448q-13 -73 -57.5 -115.5t-116.5 -42.5z" />
    <glyph glyph-name="j.smcp" unicode="&#xf76a;" horiz-adv-x="411" 
d="M154 -10q-65 0 -105.5 33t-54.5 90l76 23q20 -73 84 -73q40 0 66 27.5t33 70.5l76 435h78l-79 -448q-13 -73 -57.5 -115.5t-116.5 -42.5z" />
    <glyph glyph-name="k.smcp" unicode="&#xe20b;" horiz-adv-x="551" 
d="M397 0l-139 310l-121 -115l-34 -195h-77l104 596h78l-52 -292l309 292h102l-250 -237l162 -359h-82z" />
    <glyph glyph-name="k.smcp" unicode="&#xf76b;" horiz-adv-x="551" 
d="M397 0l-139 310l-121 -115l-34 -195h-77l104 596h78l-52 -292l309 292h102l-250 -237l162 -359h-82z" />
    <glyph glyph-name="l.smcp" unicode="&#xe20c;" horiz-adv-x="447" 
d="M26 0l104 596h78l-92 -521h253l-13 -75h-330z" />
    <glyph glyph-name="l.smcp" unicode="&#xf76c;" horiz-adv-x="447" 
d="M26 0l104 596h78l-92 -521h253l-13 -75h-330z" />
    <glyph glyph-name="m.smcp" unicode="&#xe20d;" horiz-adv-x="724" 
d="M26 0l104 596h70l167 -291l278 291h70l-105 -596h-77l81 461l-263 -276l-165 287l-83 -472h-77z" />
    <glyph glyph-name="m.smcp" unicode="&#xf76d;" horiz-adv-x="724" 
d="M26 0l104 596h70l167 -291l278 291h70l-105 -596h-77l81 461l-263 -276l-165 287l-83 -472h-77z" />
    <glyph glyph-name="n.smcp" unicode="&#xe20e;" horiz-adv-x="609" 
d="M26 0l104 596h84l227 -465l81 465h78l-105 -596h-77l-232 475l-83 -475h-77z" />
    <glyph glyph-name="n.smcp" unicode="&#xf76e;" horiz-adv-x="609" 
d="M26 0l104 596h84l227 -465l81 465h78l-105 -596h-77l-232 475l-83 -475h-77z" />
    <glyph glyph-name="o.smcp" unicode="&#xe20f;" horiz-adv-x="712" 
d="M342 -10q-140 0 -222 101t-58 240q21 119 113 197t210 78q142 0 223.5 -104.5t57.5 -238.5q-21 -119 -111.5 -196t-212.5 -77zM349 63q87 0 156 60t85 150q19 101 -41 180.5t-168 79.5q-90 0 -158.5 -60t-84.5 -150q-18 -106 43 -183t168 -77z" />
    <glyph glyph-name="o.smcp" unicode="&#xf76f;" horiz-adv-x="712" 
d="M342 -10q-140 0 -222 101t-58 240q21 119 113 197t210 78q142 0 223.5 -104.5t57.5 -238.5q-21 -119 -111.5 -196t-212.5 -77zM349 63q87 0 156 60t85 150q19 101 -41 180.5t-168 79.5q-90 0 -158.5 -60t-84.5 -150q-18 -106 43 -183t168 -77z" />
    <glyph glyph-name="q.smcp" unicode="&#xe211;" horiz-adv-x="710" 
d="M342 -10q-140 0 -222 101t-58 240q21 119 113 197t210 78q94 0 164.5 -49.5t100.5 -128t15 -165.5q-17 -99 -96 -176q23 -12 52 -12h16l-13 -75h-16q-45 0 -79 19.5t-53.5 47t-36.5 54.5t-40 46.5t-52 19.5h-17l14 75h16q26 0 46.5 -6.5t37.5 -22.5t25.5 -26t25 -36
t21.5 -33q57 57 72 135q19 101 -40 180.5t-167 79.5q-90 0 -158.5 -60t-84.5 -150q-18 -106 43 -183t168 -77q45 0 83 16q28 -42 47 -59q-66 -30 -137 -30z" />
    <glyph glyph-name="q.smcp" unicode="&#xf771;" horiz-adv-x="710" 
d="M342 -10q-140 0 -222 101t-58 240q21 119 113 197t210 78q94 0 164.5 -49.5t100.5 -128t15 -165.5q-17 -99 -96 -176q23 -12 52 -12h16l-13 -75h-16q-45 0 -79 19.5t-53.5 47t-36.5 54.5t-40 46.5t-52 19.5h-17l14 75h16q26 0 46.5 -6.5t37.5 -22.5t25.5 -26t25 -36
t21.5 -33q57 57 72 135q19 101 -40 180.5t-167 79.5q-90 0 -158.5 -60t-84.5 -150q-18 -106 43 -183t168 -77q45 0 83 16q28 -42 47 -59q-66 -30 -137 -30z" />
    <glyph glyph-name="r.smcp" unicode="&#xe212;" horiz-adv-x="522" 
d="M26 0l104 596h176q95 0 150 -61t40 -150q-12 -66 -64 -112t-133 -52q11 -65 48.5 -106t91.5 -41h11l-13 -74h-11q-102 0 -157.5 86.5t-51.5 200.5h49q65 0 103 30.5t48 79.5q10 54 -25 90t-98 38h-99l-92 -525h-77z" />
    <glyph glyph-name="r.smcp" unicode="&#xf772;" horiz-adv-x="522" 
d="M26 0l104 596h176q95 0 150 -61t40 -150q-12 -66 -64 -112t-133 -52q11 -65 48.5 -106t91.5 -41h11l-13 -74h-11q-102 0 -157.5 86.5t-51.5 200.5h49q65 0 103 30.5t48 79.5q10 54 -25 90t-98 38h-99l-92 -525h-77z" />
    <glyph glyph-name="s.smcp" unicode="&#xe213;" horiz-adv-x="467" 
d="M201 -10q-71 0 -123 31t-82 81l71 47q47 -86 137 -86q48 0 80 25t39 64q4 24 -2.5 43.5t-26.5 35.5t-37 25.5t-48 24.5q-33 16 -54 28.5t-44.5 34.5t-32 52t-2.5 68q11 64 64.5 103t131.5 39q58 0 105.5 -26.5t75.5 -69.5l-67 -44q-39 67 -123 67q-44 0 -72.5 -21
t-34.5 -54q-3 -18 3 -34.5t13 -26.5t28.5 -23t29.5 -17l36 -18q35 -16 56.5 -30t45.5 -37t32.5 -55t1.5 -73q-12 -68 -65 -111t-136 -43z" />
    <glyph glyph-name="s.smcp" unicode="&#xf773;" horiz-adv-x="467" 
d="M201 -10q-71 0 -123 31t-82 81l71 47q47 -86 137 -86q48 0 80 25t39 64q4 24 -2.5 43.5t-26.5 35.5t-37 25.5t-48 24.5q-33 16 -54 28.5t-44.5 34.5t-32 52t-2.5 68q11 64 64.5 103t131.5 39q58 0 105.5 -26.5t75.5 -69.5l-67 -44q-39 67 -123 67q-44 0 -72.5 -21
t-34.5 -54q-3 -18 3 -34.5t13 -26.5t28.5 -23t29.5 -17l36 -18q35 -16 56.5 -30t45.5 -37t32.5 -55t1.5 -73q-12 -68 -65 -111t-136 -43z" />
    <glyph glyph-name="t.smcp" unicode="&#xe214;" horiz-adv-x="488" 
d="M91 522l12 74h403l-13 -74h-161l-91 -522h-79l91 522h-162z" />
    <glyph glyph-name="t.smcp" unicode="&#xf774;" horiz-adv-x="488" 
d="M91 522l12 74h403l-13 -74h-161l-91 -522h-79l91 522h-162z" />
    <glyph glyph-name="u.smcp" unicode="&#xe215;" horiz-adv-x="537" 
d="M237 -10q-95 0 -146 57t-34 155l69 394h78l-71 -402q-10 -57 19 -94t93 -37q54 0 90.5 32.5t45.5 84.5l74 416h78l-72 -411q-17 -92 -75.5 -143.5t-148.5 -51.5z" />
    <glyph glyph-name="u.smcp" unicode="&#xf775;" horiz-adv-x="537" 
d="M237 -10q-95 0 -146 57t-34 155l69 394h78l-71 -402q-10 -57 19 -94t93 -37q54 0 90.5 32.5t45.5 84.5l74 416h78l-72 -411q-17 -92 -75.5 -143.5t-148.5 -51.5z" />
    <glyph glyph-name="v.smcp" unicode="&#xe216;" horiz-adv-x="548" 
d="M189 0l-101 596h78l79 -479l251 479h85l-316 -596h-76z" />
    <glyph glyph-name="v.smcp" unicode="&#xf776;" horiz-adv-x="548" 
d="M189 0l-101 596h78l79 -479l251 479h85l-316 -596h-76z" />
    <glyph glyph-name="w.smcp" unicode="&#xe217;" horiz-adv-x="863" 
d="M157 0l-67 596h77l51 -472l231 472h78l69 -472l215 472h82l-278 -596h-77l-69 476l-233 -476h-79z" />
    <glyph glyph-name="w.smcp" unicode="&#xf777;" horiz-adv-x="863" 
d="M157 0l-67 596h77l51 -472l231 472h78l69 -472l215 472h82l-278 -596h-77l-69 476l-233 -476h-79z" />
    <glyph glyph-name="x.smcp" unicode="&#xe218;" horiz-adv-x="522" 
d="M376 0l-117 243l-197 -243h-91l254 311l-137 285h83l108 -224l185 224h92l-243 -291l146 -305h-83z" />
    <glyph glyph-name="x.smcp" unicode="&#xf778;" horiz-adv-x="522" 
d="M376 0l-117 243l-197 -243h-91l254 311l-137 285h83l108 -224l185 224h92l-243 -291l146 -305h-83z" />
    <glyph glyph-name="y.smcp" unicode="&#xe219;" horiz-adv-x="520" 
d="M169 0l51 289l-133 307h80l104 -242l193 242h90l-257 -317l-49 -279h-79z" />
    <glyph glyph-name="y.smcp" unicode="&#xf779;" horiz-adv-x="520" 
d="M169 0l51 289l-133 307h80l104 -242l193 242h90l-257 -317l-49 -279h-79z" />
    <glyph glyph-name="z.smcp" unicode="&#xe21a;" horiz-adv-x="480" 
d="M-6 0l13 72l374 450h-285l11 74h384l-13 -71l-375 -452h297l-13 -73h-393z" />
    <glyph glyph-name="z.smcp" unicode="&#xf77a;" horiz-adv-x="480" 
d="M-6 0l13 72l374 450h-285l11 74h384l-13 -71l-375 -452h297l-13 -73h-393z" />
    <glyph glyph-name="anocross.smcp" unicode="&#xe220;" horiz-adv-x="575" 
d="M-16 0l329 596h78l112 -596h-78l-89 493l-269 -493h-83z" />
    <glyph glyph-name="aacute.smcp" unicode="&#xe221;" horiz-adv-x="575" 
d="M-16 0l329 596h78l112 -596h-78l-25 137h-258l-75 -137h-83zM336 493l-154 -282h205zM321 654l145 162h100l-173 -162h-72z" />
    <glyph glyph-name="aacute.smcp" unicode="&#xf7e1;" horiz-adv-x="575" 
d="M-16 0l329 596h78l112 -596h-78l-25 137h-258l-75 -137h-83zM336 493l-154 -282h205zM321 654l145 162h100l-173 -162h-72z" />
    <glyph glyph-name="agrave.smcp" unicode="&#xe222;" horiz-adv-x="575" 
d="M-16 0l329 596h78l112 -596h-78l-25 137h-258l-75 -137h-83zM336 493l-154 -282h205zM324 654l-116 162h99l88 -162h-71z" />
    <glyph glyph-name="agrave.smcp" unicode="&#xf7e0;" horiz-adv-x="575" 
d="M-16 0l329 596h78l112 -596h-78l-25 137h-258l-75 -137h-83zM336 493l-154 -282h205zM324 654l-116 162h99l88 -162h-71z" />
    <glyph glyph-name="acircumflex.smcp" unicode="&#xe223;" horiz-adv-x="575" 
d="M-16 0l329 596h78l112 -596h-78l-25 137h-258l-75 -137h-83zM336 493l-154 -282h205zM203 652l147 162h66l91 -162h-80l-54 100l-89 -100h-81z" />
    <glyph glyph-name="acircumflex.smcp" unicode="&#xf7e2;" horiz-adv-x="575" 
d="M-16 0l329 596h78l112 -596h-78l-25 137h-258l-75 -137h-83zM336 493l-154 -282h205zM203 652l147 162h66l91 -162h-80l-54 100l-89 -100h-81z" />
    <glyph glyph-name="adieresis.smcp" unicode="&#xe224;" horiz-adv-x="575" 
d="M-16 0l329 596h78l112 -596h-78l-25 137h-258l-75 -137h-83zM336 493l-154 -282h205zM390 661l25 139h77l-24 -139h-78zM257 661l24 139h78l-25 -139h-77z" />
    <glyph glyph-name="adieresis.smcp" unicode="&#xf7e4;" horiz-adv-x="575" 
d="M-16 0l329 596h78l112 -596h-78l-25 137h-258l-75 -137h-83zM336 493l-154 -282h205zM390 661l25 139h77l-24 -139h-78zM257 661l24 139h78l-25 -139h-77z" />
    <glyph glyph-name="atilde.smcp" unicode="&#xe225;" horiz-adv-x="575" 
d="M-16 0l329 596h78l112 -596h-78l-25 137h-258l-75 -137h-83zM336 493l-154 -282h205zM192 654q10 55 41.5 88t76.5 33q38 0 78 -27q42 -28 61 -28q35 0 46 51h62q-11 -56 -42 -88.5t-77 -32.5q-39 0 -87 33q-34 22 -53 22q-35 0 -44 -51h-62z" />
    <glyph glyph-name="atilde.smcp" unicode="&#xf7e3;" horiz-adv-x="575" 
d="M-16 0l329 596h78l112 -596h-78l-25 137h-258l-75 -137h-83zM336 493l-154 -282h205zM192 654q10 55 41.5 88t76.5 33q38 0 78 -27q42 -28 61 -28q35 0 46 51h62q-11 -56 -42 -88.5t-77 -32.5q-39 0 -87 33q-34 22 -53 22q-35 0 -44 -51h-62z" />
    <glyph glyph-name="aring.smcp" unicode="&#xe226;" horiz-adv-x="575" 
d="M-16 0l309 560q-25 18 -35.5 47.5t-1.5 62.5q11 39 42.5 64t71.5 25q50 0 78.5 -38t15.5 -86q-16 -58 -65 -81l104 -554h-78l-25 137h-258l-75 -137h-83zM336 493l-154 -282h205zM354 603q19 0 34 12.5t19 29.5q5 22 -7.5 39t-35.5 17q-17 0 -32 -12t-19 -30
q-5 -22 6.5 -39t34.5 -17z" />
    <glyph glyph-name="aring.smcp" unicode="&#xf7e5;" horiz-adv-x="575" 
d="M-16 0l309 560q-25 18 -35.5 47.5t-1.5 62.5q11 39 42.5 64t71.5 25q50 0 78.5 -38t15.5 -86q-16 -58 -65 -81l104 -554h-78l-25 137h-258l-75 -137h-83zM336 493l-154 -282h205zM354 603q19 0 34 12.5t19 29.5q5 22 -7.5 39t-35.5 17q-17 0 -32 -12t-19 -30
q-5 -22 6.5 -39t34.5 -17z" />
    <glyph glyph-name="amacron.smcp" unicode="&#xe228;" horiz-adv-x="575" 
d="M-16 0l329 596h78l112 -596h-78l-25 137h-258l-75 -137h-83zM336 493l-154 -282h205zM230 654l13 67h264l-13 -67h-264z" />
    <glyph glyph-name="amacron.smcp" unicode="&#xf641;" horiz-adv-x="575" 
d="M-16 0l329 596h78l112 -596h-78l-25 137h-258l-75 -137h-83zM336 493l-154 -282h205zM230 654l13 67h264l-13 -67h-264z" />
    <glyph glyph-name="abreve.smcp" unicode="&#xe229;" horiz-adv-x="575" 
d="M-16 0l329 596h78l112 -596h-78l-25 137h-258l-75 -137h-83zM336 493l-154 -282h205zM360 647q-77 0 -112 46.5t-22 116.5h67q-9 -47 11.5 -75.5t65.5 -29.5q45 1 74 29t38 76h67q-13 -70 -63.5 -116.5t-125.5 -46.5z" />
    <glyph glyph-name="abreve.smcp" unicode="&#xf640;" horiz-adv-x="575" 
d="M-16 0l329 596h78l112 -596h-78l-25 137h-258l-75 -137h-83zM336 493l-154 -282h205zM360 647q-77 0 -112 46.5t-22 116.5h67q-9 -47 11.5 -75.5t65.5 -29.5q45 1 74 29t38 76h67q-13 -70 -63.5 -116.5t-125.5 -46.5z" />
    <glyph glyph-name="aringacute.smcp" unicode="&#xe22d;" horiz-adv-x="575" 
d="M-16 0l309 560q-25 18 -35.5 47.5t-1.5 62.5q11 39 42.5 64t71.5 25q50 0 78.5 -38t15.5 -86q-16 -58 -65 -81l104 -554h-78l-25 137h-258l-75 -137h-83zM336 493l-154 -282h205zM341 794l145 162h100l-173 -162h-72zM354 603q19 0 34 12.5t19 29.5q5 22 -7.5 39
t-35.5 17q-17 0 -32 -12t-19 -30q-5 -22 6.5 -39t34.5 -17z" />
    <glyph glyph-name="aringacute.smcp" unicode="&#xf625;" horiz-adv-x="575" 
d="M-16 0l309 560q-25 18 -35.5 47.5t-1.5 62.5q11 39 42.5 64t71.5 25q50 0 78.5 -38t15.5 -86q-16 -58 -65 -81l104 -554h-78l-25 137h-258l-75 -137h-83zM336 493l-154 -282h205zM341 794l145 162h100l-173 -162h-72zM354 603q19 0 34 12.5t19 29.5q5 22 -7.5 39
t-35.5 17q-17 0 -32 -12t-19 -30q-5 -22 6.5 -39t34.5 -17z" />
    <glyph glyph-name="aogonek.smcp" unicode="&#xe22f;" horiz-adv-x="575" 
d="M401 -218q-58 0 -91.5 31.5t-25.5 74.5q6 37 37 68t100 65l-21 116h-258l-75 -137h-83l329 596h78l112 -596q-84 -46 -111 -67.5t-31 -43.5q-4 -20 10 -31.5t38 -11.5q37 0 82 34l54 -42q-72 -56 -144 -56zM336 493l-154 -282h205z" />
    <glyph glyph-name="aogonek.smcp" unicode="&#xf642;" horiz-adv-x="575" 
d="M401 -218q-58 0 -91.5 31.5t-25.5 74.5q6 37 37 68t100 65l-21 116h-258l-75 -137h-83l329 596h78l112 -596q-84 -46 -111 -67.5t-31 -43.5q-4 -20 10 -31.5t38 -11.5q37 0 82 34l54 -42q-72 -56 -144 -56zM336 493l-154 -282h205z" />
    <glyph glyph-name="edieresis.smcp" unicode="&#xe230;" horiz-adv-x="485" 
d="M25 0l104 596h361l-13 -74h-284l-32 -186h284l-14 -74h-283l-33 -187h283l-13 -75h-360zM221 661l24 139h78l-25 -139h-77zM354 661l25 139h77l-24 -139h-78z" />
    <glyph glyph-name="edieresis.smcp" unicode="&#xf7eb;" horiz-adv-x="485" 
d="M25 0l104 596h361l-13 -74h-284l-32 -186h284l-14 -74h-283l-33 -187h283l-13 -75h-360zM221 661l24 139h78l-25 -139h-77zM354 661l25 139h77l-24 -139h-78z" />
    <glyph glyph-name="ae.smcp" unicode="&#xe231;" horiz-adv-x="836" 
d="M-10 0l398 596h447l-14 -74h-347l3 -186h312l-13 -74h-298l2 -187h262l-12 -75h-326l-2 135h-233l-90 -135h-89zM397 474l-179 -267h183z" />
    <glyph glyph-name="ae.smcp" unicode="&#xf7e6;" horiz-adv-x="836" 
d="M-10 0l398 596h447l-14 -74h-347l3 -186h312l-13 -74h-298l2 -187h262l-12 -75h-326l-2 135h-233l-90 -135h-89zM397 474l-179 -267h183z" />
    <glyph glyph-name="aeacute.smcp" unicode="&#xe232;" horiz-adv-x="836" 
d="M-10 0l398 596h447l-14 -74h-347l3 -186h312l-13 -74h-298l2 -187h262l-12 -75h-326l-2 135h-233l-90 -135h-89zM397 474l-179 -267h183zM508 654l145 162h100l-173 -162h-72z" />
    <glyph glyph-name="aeacute.smcp" unicode="&#xf624;" horiz-adv-x="836" 
d="M-10 0l398 596h447l-14 -74h-347l3 -186h312l-13 -74h-298l2 -187h262l-12 -75h-326l-2 135h-233l-90 -135h-89zM397 474l-179 -267h183zM508 654l145 162h100l-173 -162h-72z" />
    <glyph glyph-name="cacute.smcp" unicode="&#xe234;" horiz-adv-x="658" 
d="M366 654l145 162h100l-173 -162h-72zM324 -8q-140 0 -218 99t-54 237q20 118 114 198t218 80q87 0 157.5 -45t101.5 -119l-76 -35q-24 59 -72.5 93t-120.5 34q-87 0 -157 -62t-87 -153q-18 -101 39 -176.5t163 -75.5q65 0 120 33.5t87 92.5l72 -35q-43 -77 -116.5 -121.5
t-170.5 -44.5z" />
    <glyph glyph-name="cacute.smcp" unicode="&#xf643;" horiz-adv-x="658" 
d="M366 654l145 162h100l-173 -162h-72zM324 -8q-140 0 -218 99t-54 237q20 118 114 198t218 80q87 0 157.5 -45t101.5 -119l-76 -35q-24 59 -72.5 93t-120.5 34q-87 0 -157 -62t-87 -153q-18 -101 39 -176.5t163 -75.5q65 0 120 33.5t87 92.5l72 -35q-43 -77 -116.5 -121.5
t-170.5 -44.5z" />
    <glyph glyph-name="ccircumflex.smcp" unicode="&#xe235;" horiz-adv-x="658" 
d="M324 -8q-140 0 -218 99t-54 237q20 118 114 198t218 80q87 0 157.5 -45t101.5 -119l-76 -35q-24 59 -72.5 93t-120.5 34q-87 0 -157 -62t-87 -153q-18 -101 39 -176.5t163 -75.5q65 0 120 33.5t87 92.5l72 -35q-43 -77 -116.5 -121.5t-170.5 -44.5zM254 651l147 162h66
l91 -162h-80l-54 100l-89 -100h-81z" />
    <glyph glyph-name="ccircumflex.smcp" unicode="&#xf628;" horiz-adv-x="658" 
d="M324 -8q-140 0 -218 99t-54 237q20 118 114 198t218 80q87 0 157.5 -45t101.5 -119l-76 -35q-24 59 -72.5 93t-120.5 34q-87 0 -157 -62t-87 -153q-18 -101 39 -176.5t163 -75.5q65 0 120 33.5t87 92.5l72 -35q-43 -77 -116.5 -121.5t-170.5 -44.5zM254 651l147 162h66
l91 -162h-80l-54 100l-89 -100h-81z" />
    <glyph glyph-name="ccaron.smcp" unicode="&#xe236;" horiz-adv-x="658" 
d="M324 -8q-140 0 -218 99t-54 237q20 118 114 198t218 80q87 0 157.5 -45t101.5 -119l-76 -35q-24 59 -72.5 93t-120.5 34q-87 0 -157 -62t-87 -153q-18 -101 39 -176.5t163 -75.5q65 0 120 33.5t87 92.5l72 -35q-43 -77 -116.5 -121.5t-170.5 -44.5zM367 654l-91 162h80
l54 -100l89 100h81l-148 -162h-65z" />
    <glyph glyph-name="ccaron.smcp" unicode="&#xf644;" horiz-adv-x="658" 
d="M324 -8q-140 0 -218 99t-54 237q20 118 114 198t218 80q87 0 157.5 -45t101.5 -119l-76 -35q-24 59 -72.5 93t-120.5 34q-87 0 -157 -62t-87 -153q-18 -101 39 -176.5t163 -75.5q65 0 120 33.5t87 92.5l72 -35q-43 -77 -116.5 -121.5t-170.5 -44.5zM367 654l-91 162h80
l54 -100l89 100h81l-148 -162h-65z" />
    <glyph glyph-name="cdotaccent.smcp" unicode="&#xe237;" horiz-adv-x="658" 
d="M324 -8q-140 0 -218 99t-54 237q20 118 114 198t218 80q87 0 157.5 -45t101.5 -119l-76 -35q-24 59 -72.5 93t-120.5 34q-87 0 -157 -62t-87 -153q-18 -101 39 -176.5t163 -75.5q65 0 120 33.5t87 92.5l72 -35q-43 -77 -116.5 -121.5t-170.5 -44.5zM362 661l24 139h77
l-24 -139h-77z" />
    <glyph glyph-name="cdotaccent.smcp" unicode="&#xf629;" horiz-adv-x="658" 
d="M324 -8q-140 0 -218 99t-54 237q20 118 114 198t218 80q87 0 157.5 -45t101.5 -119l-76 -35q-24 59 -72.5 93t-120.5 34q-87 0 -157 -62t-87 -153q-18 -101 39 -176.5t163 -75.5q65 0 120 33.5t87 92.5l72 -35q-43 -77 -116.5 -121.5t-170.5 -44.5zM362 661l24 139h77
l-24 -139h-77z" />
    <glyph glyph-name="ccedilla.smcp" unicode="&#xe238;" horiz-adv-x="658" 
d="M281 -234q-98 0 -150 59l66 37q38 -38 87 -38q63 0 70 38q4 19 -13 28.5t-53 9.5h-41l17 98q-114 21 -173.5 114.5t-38.5 215.5q20 118 114 198t218 80q87 0 157.5 -45t101.5 -119l-76 -35q-24 59 -72.5 93t-120.5 34q-87 0 -157 -62t-87 -153q-18 -101 39 -176.5
t163 -75.5q65 0 120 33.5t87 92.5l72 -35q-42 -76 -114.5 -120.5t-167.5 -45.5l-9 -47q58 -3 84 -27.5t20 -62.5q-7 -40 -46.5 -64.5t-96.5 -24.5z" />
    <glyph glyph-name="ccedilla.smcp" unicode="&#xf7e7;" horiz-adv-x="658" 
d="M281 -234q-98 0 -150 59l66 37q38 -38 87 -38q63 0 70 38q4 19 -13 28.5t-53 9.5h-41l17 98q-114 21 -173.5 114.5t-38.5 215.5q20 118 114 198t218 80q87 0 157.5 -45t101.5 -119l-76 -35q-24 59 -72.5 93t-120.5 34q-87 0 -157 -62t-87 -153q-18 -101 39 -176.5
t163 -75.5q65 0 120 33.5t87 92.5l72 -35q-42 -76 -114.5 -120.5t-167.5 -45.5l-9 -47q58 -3 84 -27.5t20 -62.5q-7 -40 -46.5 -64.5t-96.5 -24.5z" />
    <glyph glyph-name="dcaron.smcp" unicode="&#xe239;" horiz-adv-x="600" 
d="M26 0l104 596h164q131 -1 208.5 -94.5t54.5 -222.5q-21 -122 -112 -200.5t-216 -78.5h-203zM286 523h-92l-79 -450h123q89 0 157 60t85 152q17 99 -38 168.5t-156 69.5zM282 661l-91 162h80l54 -100l89 100h81l-148 -162h-65z" />
    <glyph glyph-name="dcaron.smcp" unicode="&#xf645;" horiz-adv-x="600" 
d="M26 0l104 596h164q131 -1 208.5 -94.5t54.5 -222.5q-21 -122 -112 -200.5t-216 -78.5h-203zM286 523h-92l-79 -450h123q89 0 157 60t85 152q17 99 -38 168.5t-156 69.5zM282 661l-91 162h80l54 -100l89 100h81l-148 -162h-65z" />
    <glyph glyph-name="dcroat.smcp" unicode="&#xe23c;" horiz-adv-x="604" 
d="M8 263l12 66h67l47 267h164q131 -1 208.5 -94.5t54.5 -222.5q-21 -122 -112 -200.5t-216 -78.5h-203l46 263h-68zM314 263h-161l-34 -190h123q89 0 157 60t85 152q17 99 -38 168.5t-156 69.5h-92l-34 -194h162z" />
    <glyph glyph-name="dcroat.smcp" unicode="&#xf646;" horiz-adv-x="604" 
d="M8 263l12 66h67l47 267h164q131 -1 208.5 -94.5t54.5 -222.5q-21 -122 -112 -200.5t-216 -78.5h-203l46 263h-68zM314 263h-161l-34 -190h123q89 0 157 60t85 152q17 99 -38 168.5t-156 69.5h-92l-34 -194h162z" />
    <glyph glyph-name="eacute.smcp" unicode="&#xe23d;" horiz-adv-x="486" 
d="M26 0l104 596h361l-13 -74h-284l-32 -186h284l-14 -74h-283l-33 -187h283l-13 -75h-360zM259 654l145 162h100l-173 -162h-72z" />
    <glyph glyph-name="eacute.smcp" unicode="&#xf7e9;" horiz-adv-x="486" 
d="M26 0l104 596h361l-13 -74h-284l-32 -186h284l-14 -74h-283l-33 -187h283l-13 -75h-360zM259 654l145 162h100l-173 -162h-72z" />
    <glyph glyph-name="egrave.smcp" unicode="&#xe23e;" horiz-adv-x="486" 
d="M26 0l104 596h361l-13 -74h-284l-32 -186h284l-14 -74h-283l-33 -187h283l-13 -75h-360zM293 654l-116 162h99l88 -162h-71z" />
    <glyph glyph-name="egrave.smcp" unicode="&#xf7e8;" horiz-adv-x="486" 
d="M26 0l104 596h361l-13 -74h-284l-32 -186h284l-14 -74h-283l-33 -187h283l-13 -75h-360zM293 654l-116 162h99l88 -162h-71z" />
    <glyph glyph-name="ecircumflex.smcp" unicode="&#xe23f;" horiz-adv-x="486" 
d="M26 0l104 596h361l-13 -74h-284l-32 -186h284l-14 -74h-283l-33 -187h283l-13 -75h-360zM164 654l147 162h66l91 -162h-80l-54 100l-89 -100h-81z" />
    <glyph glyph-name="ecircumflex.smcp" unicode="&#xf7ea;" horiz-adv-x="486" 
d="M26 0l104 596h361l-13 -74h-284l-32 -186h284l-14 -74h-283l-33 -187h283l-13 -75h-360zM164 654l147 162h66l91 -162h-80l-54 100l-89 -100h-81z" />
    <glyph glyph-name="gcommaaccent.smcp" unicode="&#xe240;" horiz-adv-x="711" 
d="M341 -10q-139 0 -221 101.5t-58 238.5q21 118 111.5 197t211.5 79q89 0 155 -41t101 -109l-73 -37q-58 114 -187 114q-92 0 -159.5 -60.5t-83.5 -150.5q-18 -105 42.5 -182t168.5 -77q84 0 145 50t85 131h-237l14 74h319l-8 -46q-22 -126 -110.5 -204t-215.5 -78z
M218 -262l78 204h70l-98 -204h-50z" />
    <glyph glyph-name="gcommaaccent.smcp" unicode="&#xf64c;" horiz-adv-x="711" 
d="M341 -10q-139 0 -221 101.5t-58 238.5q21 118 111.5 197t211.5 79q89 0 155 -41t101 -109l-73 -37q-58 114 -187 114q-92 0 -159.5 -60.5t-83.5 -150.5q-18 -105 42.5 -182t168.5 -77q84 0 145 50t85 131h-237l14 74h319l-8 -46q-22 -126 -110.5 -204t-215.5 -78z
M218 -262l78 204h70l-98 -204h-50z" />
    <glyph glyph-name="ecaron.smcp" unicode="&#xe241;" horiz-adv-x="486" 
d="M26 0l104 596h361l-13 -74h-284l-32 -186h284l-14 -74h-283l-33 -187h283l-13 -75h-360zM287 654l-91 162h80l54 -100l89 100h81l-148 -162h-65z" />
    <glyph glyph-name="ecaron.smcp" unicode="&#xf647;" horiz-adv-x="486" 
d="M26 0l104 596h361l-13 -74h-284l-32 -186h284l-14 -74h-283l-33 -187h283l-13 -75h-360zM287 654l-91 162h80l54 -100l89 100h81l-148 -162h-65z" />
    <glyph glyph-name="emacron.smcp" unicode="&#xe242;" horiz-adv-x="486" 
d="M26 0l104 596h361l-13 -74h-284l-32 -186h284l-14 -74h-283l-33 -187h283l-13 -75h-360zM189 654l13 67h264l-13 -67h-264z" />
    <glyph glyph-name="emacron.smcp" unicode="&#xf649;" horiz-adv-x="486" 
d="M26 0l104 596h361l-13 -74h-284l-32 -186h284l-14 -74h-283l-33 -187h283l-13 -75h-360zM189 654l13 67h264l-13 -67h-264z" />
    <glyph glyph-name="ebreve.smcp" unicode="&#xe243;" horiz-adv-x="486" 
d="M26 0l104 596h361l-13 -74h-284l-32 -186h284l-14 -74h-283l-33 -187h283l-13 -75h-360zM320 647q-77 0 -112 46.5t-22 116.5h67q-9 -47 11.5 -75.5t65.5 -29.5q45 1 74 29t38 76h67q-13 -70 -63.5 -116.5t-125.5 -46.5z" />
    <glyph glyph-name="ebreve.smcp" unicode="&#xf62a;" horiz-adv-x="486" 
d="M26 0l104 596h361l-13 -74h-284l-32 -186h284l-14 -74h-283l-33 -187h283l-13 -75h-360zM320 647q-77 0 -112 46.5t-22 116.5h67q-9 -47 11.5 -75.5t65.5 -29.5q45 1 74 29t38 76h67q-13 -70 -63.5 -116.5t-125.5 -46.5z" />
    <glyph glyph-name="edotaccent.smcp" unicode="&#xe246;" horiz-adv-x="486" 
d="M26 0l104 596h361l-13 -74h-284l-32 -186h284l-14 -74h-283l-33 -187h283l-13 -75h-360zM289 661l24 139h77l-24 -139h-77z" />
    <glyph glyph-name="edotaccent.smcp" unicode="&#xf648;" horiz-adv-x="486" 
d="M26 0l104 596h361l-13 -74h-284l-32 -186h284l-14 -74h-283l-33 -187h283l-13 -75h-360zM289 661l24 139h77l-24 -139h-77z" />
    <glyph glyph-name="eogonek.smcp" unicode="&#xe249;" horiz-adv-x="486" 
d="M26 0l104 596h361l-13 -74h-284l-32 -186h284l-14 -74h-283l-33 -187h283l-13 -75q-84 -46 -111 -67.5t-31 -43.5q-4 -20 10 -31.5t38 -11.5q37 0 82 34l54 -42q-72 -56 -144 -56q-58 0 -91.5 31.5t-25.5 74.5q11 63 98 112h-239z" />
    <glyph glyph-name="eogonek.smcp" unicode="&#xf64a;" horiz-adv-x="486" 
d="M26 0l104 596h361l-13 -74h-284l-32 -186h284l-14 -74h-283l-33 -187h283l-13 -75q-84 -46 -111 -67.5t-31 -43.5q-4 -20 10 -31.5t38 -11.5q37 0 82 34l54 -42q-72 -56 -144 -56q-58 0 -91.5 31.5t-25.5 74.5q11 63 98 112h-239z" />
    <glyph glyph-name="gcircumflex.smcp" unicode="&#xe24b;" horiz-adv-x="711" 
d="M341 -10q-139 0 -221 101.5t-58 238.5q21 118 111.5 197t211.5 79q89 0 155 -41t101 -109l-73 -37q-58 114 -187 114q-92 0 -159.5 -60.5t-83.5 -150.5q-18 -105 42.5 -182t168.5 -77q84 0 145 50t85 131h-237l14 74h319l-8 -46q-22 -126 -110.5 -204t-215.5 -78z
M242 654l147 162h66l91 -162h-80l-54 100l-89 -100h-81z" />
    <glyph glyph-name="gcircumflex.smcp" unicode="&#xf62c;" horiz-adv-x="711" 
d="M341 -10q-139 0 -221 101.5t-58 238.5q21 118 111.5 197t211.5 79q89 0 155 -41t101 -109l-73 -37q-58 114 -187 114q-92 0 -159.5 -60.5t-83.5 -150.5q-18 -105 42.5 -182t168.5 -77q84 0 145 50t85 131h-237l14 74h319l-8 -46q-22 -126 -110.5 -204t-215.5 -78z
M242 654l147 162h66l91 -162h-80l-54 100l-89 -100h-81z" />
    <glyph glyph-name="gbreve.smcp" unicode="&#xe24e;" horiz-adv-x="711" 
d="M341 -10q-139 0 -221 101.5t-58 238.5q21 118 111.5 197t211.5 79q89 0 155 -41t101 -109l-73 -37q-58 114 -187 114q-92 0 -159.5 -60.5t-83.5 -150.5q-18 -105 42.5 -182t168.5 -77q84 0 145 50t85 131h-237l14 74h319l-8 -46q-22 -126 -110.5 -204t-215.5 -78z
M405 655q-77 0 -112 46.5t-22 116.5h67q-9 -47 11.5 -75.5t65.5 -29.5q45 1 74 29t38 76h67q-13 -70 -63.5 -116.5t-125.5 -46.5z" />
    <glyph glyph-name="gbreve.smcp" unicode="&#xf64b;" horiz-adv-x="711" 
d="M341 -10q-139 0 -221 101.5t-58 238.5q21 118 111.5 197t211.5 79q89 0 155 -41t101 -109l-73 -37q-58 114 -187 114q-92 0 -159.5 -60.5t-83.5 -150.5q-18 -105 42.5 -182t168.5 -77q84 0 145 50t85 131h-237l14 74h319l-8 -46q-22 -126 -110.5 -204t-215.5 -78z
M405 655q-77 0 -112 46.5t-22 116.5h67q-9 -47 11.5 -75.5t65.5 -29.5q45 1 74 29t38 76h67q-13 -70 -63.5 -116.5t-125.5 -46.5z" />
    <glyph glyph-name="gdotaccent.smcp" unicode="&#xe24f;" horiz-adv-x="711" 
d="M341 -10q-139 0 -221 101.5t-58 238.5q21 118 111.5 197t211.5 79q89 0 155 -41t101 -109l-73 -37q-58 114 -187 114q-92 0 -159.5 -60.5t-83.5 -150.5q-18 -105 42.5 -182t168.5 -77q84 0 145 50t85 131h-237l14 74h319l-8 -46q-22 -126 -110.5 -204t-215.5 -78z
M367 661l24 139h77l-24 -139h-77z" />
    <glyph glyph-name="gdotaccent.smcp" unicode="&#xf62d;" horiz-adv-x="711" 
d="M341 -10q-139 0 -221 101.5t-58 238.5q21 118 111.5 197t211.5 79q89 0 155 -41t101 -109l-73 -37q-58 114 -187 114q-92 0 -159.5 -60.5t-83.5 -150.5q-18 -105 42.5 -182t168.5 -77q84 0 145 50t85 131h-237l14 74h319l-8 -46q-22 -126 -110.5 -204t-215.5 -78z
M367 661l24 139h77l-24 -139h-77z" />
    <glyph glyph-name="hcircumflex.smcp" unicode="&#xe253;" horiz-adv-x="564" 
d="M26 0l104 596h78l-46 -260h269l46 260h78l-105 -596h-77l45 260h-269l-46 -260h-77zM198 654l147 162h66l91 -162h-80l-54 100l-89 -100h-81z" />
    <glyph glyph-name="hcircumflex.smcp" unicode="&#xf62f;" horiz-adv-x="564" 
d="M26 0l104 596h78l-46 -260h269l46 260h78l-105 -596h-77l45 260h-269l-46 -260h-77zM198 654l147 162h66l91 -162h-80l-54 100l-89 -100h-81z" />
    <glyph glyph-name="hbar.smcp" unicode="&#xe257;" horiz-adv-x="594" 
d="M56 423l14 75h58l17 98h78l-18 -98h269l18 98h78l-18 -98h62l-14 -75h-61l-74 -423h-77l45 260h-269l-46 -260h-77l74 423h-59zM192 423l-15 -87h269l15 87h-269z" />
    <glyph glyph-name="hbar.smcp" unicode="&#xf62e;" horiz-adv-x="594" 
d="M56 423l14 75h58l17 98h78l-18 -98h269l18 98h78l-18 -98h62l-14 -75h-61l-74 -423h-77l45 260h-269l-46 -260h-77l74 423h-59zM192 423l-15 -87h269l15 87h-269z" />
    <glyph glyph-name="iacute.smcp" unicode="&#xe258;" horiz-adv-x="227" 
d="M148 654l145 162h100l-173 -162h-72zM31 0l104 596h77l-104 -596h-77z" />
    <glyph glyph-name="iacute.smcp" unicode="&#xf7ed;" horiz-adv-x="227" 
d="M148 654l145 162h100l-173 -162h-72zM31 0l104 596h77l-104 -596h-77z" />
    <glyph glyph-name="igrave.smcp" unicode="&#xe259;" horiz-adv-x="227" 
d="M144 654l-116 162h99l88 -162h-71zM31 0l104 596h77l-104 -596h-77z" />
    <glyph glyph-name="igrave.smcp" unicode="&#xf7ec;" horiz-adv-x="227" 
d="M144 654l-116 162h99l88 -162h-71zM31 0l104 596h77l-104 -596h-77z" />
    <glyph glyph-name="icircumflex.smcp" unicode="&#xe25a;" horiz-adv-x="227" 
d="M31 0l104 596h77l-104 -596h-77zM31 651l147 162h66l91 -162h-80l-54 100l-89 -100h-81z" />
    <glyph glyph-name="icircumflex.smcp" unicode="&#xf7ee;" horiz-adv-x="227" 
d="M31 0l104 596h77l-104 -596h-77zM31 651l147 162h66l91 -162h-80l-54 100l-89 -100h-81z" />
    <glyph glyph-name="idieresis.smcp" unicode="&#xe25b;" horiz-adv-x="227" 
d="M215 661l25 139h77l-24 -139h-78zM82 661l24 139h78l-25 -139h-77zM31 0l104 596h77l-104 -596h-77z" />
    <glyph glyph-name="idieresis.smcp" unicode="&#xf7ef;" horiz-adv-x="227" 
d="M215 661l25 139h77l-24 -139h-78zM82 661l24 139h78l-25 -139h-77zM31 0l104 596h77l-104 -596h-77z" />
    <glyph glyph-name="itilde.smcp" unicode="&#xe25c;" horiz-adv-x="227" 
d="M19 654q10 55 41.5 88t76.5 33q38 0 78 -27q42 -28 61 -28q36 0 46 51h62q-11 -56 -42 -88.5t-77 -32.5q-39 0 -87 33q-34 22 -53 22q-35 0 -44 -51h-62zM31 0l104 596h77l-104 -596h-77z" />
    <glyph glyph-name="itilde.smcp" unicode="&#xf632;" horiz-adv-x="227" 
d="M19 654q10 55 41.5 88t76.5 33q38 0 78 -27q42 -28 61 -28q36 0 46 51h62q-11 -56 -42 -88.5t-77 -32.5q-39 0 -87 33q-34 22 -53 22q-35 0 -44 -51h-62zM31 0l104 596h77l-104 -596h-77z" />
    <glyph glyph-name="imacron.smcp" unicode="&#xe25e;" horiz-adv-x="227" 
d="M54 654l13 67h264l-13 -67h-264zM31 0l104 596h77l-104 -596h-77z" />
    <glyph glyph-name="imacron.smcp" unicode="&#xf64d;" horiz-adv-x="227" 
d="M54 654l13 67h264l-13 -67h-264zM31 0l104 596h77l-104 -596h-77z" />
    <glyph glyph-name="ibreve.smcp" unicode="&#xe25f;" horiz-adv-x="227" 
d="M186 655q-77 0 -112 46.5t-22 116.5h67q-9 -47 11.5 -75.5t65.5 -29.5q45 1 74 29t38 76h67q-13 -70 -63.5 -116.5t-125.5 -46.5zM31 0l104 596h77l-104 -596h-77z" />
    <glyph glyph-name="ibreve.smcp" unicode="&#xf630;" horiz-adv-x="227" 
d="M186 655q-77 0 -112 46.5t-22 116.5h67q-9 -47 11.5 -75.5t65.5 -29.5q45 1 74 29t38 76h67q-13 -70 -63.5 -116.5t-125.5 -46.5zM31 0l104 596h77l-104 -596h-77z" />
    <glyph glyph-name="idotaccent.smcp" unicode="&#xe262;" horiz-adv-x="227" 
d="M31 0l104 596h77l-104 -596h-77zM147 661l24 139h77l-24 -139h-77z" />
    <glyph glyph-name="idotaccent.smcp" unicode="&#xf666;" horiz-adv-x="227" 
d="M31 0l104 596h77l-104 -596h-77zM147 661l24 139h77l-24 -139h-77z" />
    <glyph glyph-name="iogonek.smcp" unicode="&#xe264;" horiz-adv-x="227" 
d="M7 -218q-58 0 -91.5 31.5t-25.5 74.5q7 38 39 69.5t106 66.5l100 572h77l-104 -596h1q-84 -46 -111 -67.5t-31 -43.5q-4 -20 10 -31.5t38 -11.5q37 0 82 34l54 -42q-72 -56 -144 -56z" />
    <glyph glyph-name="iogonek.smcp" unicode="&#xf64e;" horiz-adv-x="227" 
d="M7 -218q-58 0 -91.5 31.5t-25.5 74.5q7 38 39 69.5t106 66.5l100 572h77l-104 -596h1q-84 -46 -111 -67.5t-31 -43.5q-4 -20 10 -31.5t38 -11.5q37 0 82 34l54 -42q-72 -56 -144 -56z" />
    <glyph glyph-name="jcircumflex.smcp" unicode="&#xe265;" horiz-adv-x="411" 
d="M154 -10q-65 0 -105.5 33t-54.5 90l76 23q20 -73 84 -73q40 0 66 27.5t33 70.5l76 435h78l-79 -448q-13 -73 -57.5 -115.5t-116.5 -42.5zM223 646l147 162h66l91 -162h-80l-54 100l-89 -100h-81z" />
    <glyph glyph-name="jcircumflex.smcp" unicode="&#xf633;" horiz-adv-x="411" 
d="M154 -10q-65 0 -105.5 33t-54.5 90l76 23q20 -73 84 -73q40 0 66 27.5t33 70.5l76 435h78l-79 -448q-13 -73 -57.5 -115.5t-116.5 -42.5zM223 646l147 162h66l91 -162h-80l-54 100l-89 -100h-81z" />
    <glyph glyph-name="kcommaaccent.smcp" unicode="&#xe268;" horiz-adv-x="551" 
d="M397 0l-139 310l-121 -115l-34 -195h-77l104 596h78l-52 -292l309 292h102l-250 -237l162 -359h-82zM136 -254l78 204h70l-98 -204h-50z" />
    <glyph glyph-name="kcommaaccent.smcp" unicode="&#xf64f;" horiz-adv-x="551" 
d="M397 0l-139 310l-121 -115l-34 -195h-77l104 596h78l-52 -292l309 292h102l-250 -237l162 -359h-82zM136 -254l78 204h70l-98 -204h-50z" />
    <glyph glyph-name="lacute.smcp" unicode="&#xe26b;" horiz-adv-x="447" 
d="M26 0l104 596h78l-92 -521h253l-13 -75h-330zM146 654l145 162h100l-173 -162h-72z" />
    <glyph glyph-name="lacute.smcp" unicode="&#xf650;" horiz-adv-x="447" 
d="M26 0l104 596h78l-92 -521h253l-13 -75h-330zM146 654l145 162h100l-173 -162h-72z" />
    <glyph glyph-name="lcaron.smcp" unicode="&#xe26c;" horiz-adv-x="447" 
d="M26 0l104 596h78l-92 -521h253l-13 -75h-330zM266 434l108 162h81l-124 -162h-65z" />
    <glyph glyph-name="lcaron.smcp" unicode="&#xf651;" horiz-adv-x="447" 
d="M26 0l104 596h78l-92 -521h253l-13 -75h-330zM266 434l108 162h81l-124 -162h-65z" />
    <glyph glyph-name="lcommaaccent.smcp" unicode="&#xe26d;" horiz-adv-x="447" 
d="M26 0l104 596h78l-92 -521h253l-13 -75h-330zM69 -254l78 204h70l-98 -204h-50z" />
    <glyph glyph-name="lcommaaccent.smcp" unicode="&#xf652;" horiz-adv-x="447" 
d="M26 0l104 596h78l-92 -521h253l-13 -75h-330zM69 -254l78 204h70l-98 -204h-50z" />
    <glyph glyph-name="ldot.smcp" unicode="&#xe271;" horiz-adv-x="447" 
d="M26 0l104 596h78l-92 -521h253l-13 -75h-330zM312 202l24 139h77l-24 -139h-77z" />
    <glyph glyph-name="ldot.smcp" unicode="&#xf634;" horiz-adv-x="447" 
d="M26 0l104 596h78l-92 -521h253l-13 -75h-330zM312 202l24 139h77l-24 -139h-77z" />
    <glyph glyph-name="lslash.smcp" unicode="&#xe272;" horiz-adv-x="463" 
d="M12 228l11 66l73 21l49 281h78l-46 -256l172 51l-11 -66l-172 -51l-35 -199h253l-13 -75h-330l43 249z" />
    <glyph glyph-name="lslash.smcp" unicode="&#xf6f9;" horiz-adv-x="463" 
d="M12 228l11 66l73 21l49 281h78l-46 -256l172 51l-11 -66l-172 -51l-35 -199h253l-13 -75h-330l43 249z" />
    <glyph glyph-name="nacute.smcp" unicode="&#xe276;" horiz-adv-x="609" 
d="M26 0l104 596h84l227 -465l81 465h78l-105 -596h-77l-232 475l-83 -475h-77zM329 646l145 162h100l-173 -162h-72z" />
    <glyph glyph-name="nacute.smcp" unicode="&#xf653;" horiz-adv-x="609" 
d="M26 0l104 596h84l227 -465l81 465h78l-105 -596h-77l-232 475l-83 -475h-77zM329 646l145 162h100l-173 -162h-72z" />
    <glyph glyph-name="ntilde.smcp" unicode="&#xe279;" horiz-adv-x="609" 
d="M26 0l104 596h84l227 -465l81 465h78l-105 -596h-77l-232 475l-83 -475h-77zM194 654q10 55 41.5 88t76.5 33q38 0 78 -27q42 -28 61 -28q35 0 46 51h62q-11 -56 -42 -88.5t-77 -32.5q-39 0 -87 33q-34 22 -53 22q-35 0 -44 -51h-62z" />
    <glyph glyph-name="ncaron.smcp" unicode="&#xe27a;" horiz-adv-x="609" 
d="M26 0l104 596h84l227 -465l81 465h78l-105 -596h-77l-232 475l-83 -475h-77zM340 647l-91 162h80l54 -100l89 100h81l-148 -162h-65z" />
    <glyph glyph-name="ncaron.smcp" unicode="&#xf654;" horiz-adv-x="609" 
d="M26 0l104 596h84l227 -465l81 465h78l-105 -596h-77l-232 475l-83 -475h-77zM340 647l-91 162h80l54 -100l89 100h81l-148 -162h-65z" />
    <glyph glyph-name="ncommaaccent.smcp" unicode="&#xe27d;" horiz-adv-x="609" 
d="M26 0l104 596h84l227 -465l81 465h78l-105 -596h-77l-232 475l-83 -475h-77zM154 -254l78 204h70l-98 -204h-50z" />
    <glyph glyph-name="ncommaaccent.smcp" unicode="&#xf655;" horiz-adv-x="609" 
d="M26 0l104 596h84l227 -465l81 465h78l-105 -596h-77l-232 475l-83 -475h-77zM154 -254l78 204h70l-98 -204h-50z" />
    <glyph glyph-name="oacute.smcp" unicode="&#xe281;" horiz-adv-x="712" 
d="M368 654l145 162h100l-173 -162h-72zM342 -10q-140 0 -222 101t-58 240q21 119 113 197t210 78q142 0 223.5 -104.5t57.5 -238.5q-21 -119 -111.5 -196t-212.5 -77zM349 63q87 0 156 60t85 150q19 101 -41 180.5t-168 79.5q-90 0 -158.5 -60t-84.5 -150q-18 -106 43 -183
t168 -77z" />
    <glyph glyph-name="oacute.smcp" unicode="&#xf7f3;" horiz-adv-x="712" 
d="M368 654l145 162h100l-173 -162h-72zM342 -10q-140 0 -222 101t-58 240q21 119 113 197t210 78q142 0 223.5 -104.5t57.5 -238.5q-21 -119 -111.5 -196t-212.5 -77zM349 63q87 0 156 60t85 150q19 101 -41 180.5t-168 79.5q-90 0 -158.5 -60t-84.5 -150q-18 -106 43 -183
t168 -77z" />
    <glyph glyph-name="ograve.smcp" unicode="&#xe282;" horiz-adv-x="712" 
d="M342 -10q-140 0 -222 101t-58 240q21 119 113 197t210 78q142 0 223.5 -104.5t57.5 -238.5q-21 -119 -111.5 -196t-212.5 -77zM349 63q87 0 156 60t85 150q19 101 -41 180.5t-168 79.5q-90 0 -158.5 -60t-84.5 -150q-18 -106 43 -183t168 -77zM391 654l-116 162h99
l88 -162h-71z" />
    <glyph glyph-name="ograve.smcp" unicode="&#xf7f2;" horiz-adv-x="712" 
d="M342 -10q-140 0 -222 101t-58 240q21 119 113 197t210 78q142 0 223.5 -104.5t57.5 -238.5q-21 -119 -111.5 -196t-212.5 -77zM349 63q87 0 156 60t85 150q19 101 -41 180.5t-168 79.5q-90 0 -158.5 -60t-84.5 -150q-18 -106 43 -183t168 -77zM391 654l-116 162h99
l88 -162h-71z" />
    <glyph glyph-name="ocircumflex.smcp" unicode="&#xe283;" horiz-adv-x="712" 
d="M342 -10q-140 0 -222 101t-58 240q21 119 113 197t210 78q142 0 223.5 -104.5t57.5 -238.5q-21 -119 -111.5 -196t-212.5 -77zM349 63q87 0 156 60t85 150q19 101 -41 180.5t-168 79.5q-90 0 -158.5 -60t-84.5 -150q-18 -106 43 -183t168 -77zM253 654l147 162h66
l91 -162h-80l-54 100l-89 -100h-81z" />
    <glyph glyph-name="ocircumflex.smcp" unicode="&#xf7f4;" horiz-adv-x="712" 
d="M342 -10q-140 0 -222 101t-58 240q21 119 113 197t210 78q142 0 223.5 -104.5t57.5 -238.5q-21 -119 -111.5 -196t-212.5 -77zM349 63q87 0 156 60t85 150q19 101 -41 180.5t-168 79.5q-90 0 -158.5 -60t-84.5 -150q-18 -106 43 -183t168 -77zM253 654l147 162h66
l91 -162h-80l-54 100l-89 -100h-81z" />
    <glyph glyph-name="odieresis.smcp" unicode="&#xe284;" horiz-adv-x="712" 
d="M436 661l25 139h77l-24 -139h-78zM303 661l24 139h78l-25 -139h-77zM342 -10q-140 0 -222 101t-58 240q21 119 113 197t210 78q142 0 223.5 -104.5t57.5 -238.5q-21 -119 -111.5 -196t-212.5 -77zM349 63q87 0 156 60t85 150q19 101 -41 180.5t-168 79.5
q-90 0 -158.5 -60t-84.5 -150q-18 -106 43 -183t168 -77z" />
    <glyph glyph-name="odieresis.smcp" unicode="&#xf7f6;" horiz-adv-x="712" 
d="M436 661l25 139h77l-24 -139h-78zM303 661l24 139h78l-25 -139h-77zM342 -10q-140 0 -222 101t-58 240q21 119 113 197t210 78q142 0 223.5 -104.5t57.5 -238.5q-21 -119 -111.5 -196t-212.5 -77zM349 63q87 0 156 60t85 150q19 101 -41 180.5t-168 79.5
q-90 0 -158.5 -60t-84.5 -150q-18 -106 43 -183t168 -77z" />
    <glyph glyph-name="otilde.smcp" unicode="&#xe285;" horiz-adv-x="712" 
d="M342 -10q-140 0 -222 101t-58 240q21 119 113 197t210 78q142 0 223.5 -104.5t57.5 -238.5q-21 -119 -111.5 -196t-212.5 -77zM349 63q87 0 156 60t85 150q19 101 -41 180.5t-168 79.5q-90 0 -158.5 -60t-84.5 -150q-18 -106 43 -183t168 -77zM250 654q10 55 41.5 88
t76.5 33q38 0 78 -27q42 -28 61 -28q35 0 46 51h62q-11 -56 -42 -88.5t-77 -32.5q-39 0 -87 33q-34 22 -53 22q-35 0 -44 -51h-62z" />
    <glyph glyph-name="otilde.smcp" unicode="&#xf7f5;" horiz-adv-x="712" 
d="M342 -10q-140 0 -222 101t-58 240q21 119 113 197t210 78q142 0 223.5 -104.5t57.5 -238.5q-21 -119 -111.5 -196t-212.5 -77zM349 63q87 0 156 60t85 150q19 101 -41 180.5t-168 79.5q-90 0 -158.5 -60t-84.5 -150q-18 -106 43 -183t168 -77zM250 654q10 55 41.5 88
t76.5 33q38 0 78 -27q42 -28 61 -28q35 0 46 51h62q-11 -56 -42 -88.5t-77 -32.5q-39 0 -87 33q-34 22 -53 22q-35 0 -44 -51h-62z" />
    <glyph glyph-name="omacron.smcp" unicode="&#xe287;" horiz-adv-x="712" 
d="M279 654l13 67h264l-13 -67h-264zM342 -10q-140 0 -222 101t-58 240q21 119 113 197t210 78q142 0 223.5 -104.5t57.5 -238.5q-21 -119 -111.5 -196t-212.5 -77zM349 63q87 0 156 60t85 150q19 101 -41 180.5t-168 79.5q-90 0 -158.5 -60t-84.5 -150q-18 -106 43 -183
t168 -77z" />
    <glyph glyph-name="omacron.smcp" unicode="&#xf657;" horiz-adv-x="712" 
d="M279 654l13 67h264l-13 -67h-264zM342 -10q-140 0 -222 101t-58 240q21 119 113 197t210 78q142 0 223.5 -104.5t57.5 -238.5q-21 -119 -111.5 -196t-212.5 -77zM349 63q87 0 156 60t85 150q19 101 -41 180.5t-168 79.5q-90 0 -158.5 -60t-84.5 -150q-18 -106 43 -183
t168 -77z" />
    <glyph glyph-name="obreve.smcp" unicode="&#xe288;" horiz-adv-x="712" 
d="M342 -10q-140 0 -222 101t-58 240q21 119 113 197t210 78q142 0 223.5 -104.5t57.5 -238.5q-21 -119 -111.5 -196t-212.5 -77zM349 63q87 0 156 60t85 150q19 101 -41 180.5t-168 79.5q-90 0 -158.5 -60t-84.5 -150q-18 -106 43 -183t168 -77zM401 659q-77 0 -112 46.5
t-22 116.5h67q-9 -47 11.5 -75.5t65.5 -29.5q45 1 74 29t38 76h67q-13 -70 -63.5 -116.5t-125.5 -46.5z" />
    <glyph glyph-name="obreve.smcp" unicode="&#xf635;" horiz-adv-x="712" 
d="M342 -10q-140 0 -222 101t-58 240q21 119 113 197t210 78q142 0 223.5 -104.5t57.5 -238.5q-21 -119 -111.5 -196t-212.5 -77zM349 63q87 0 156 60t85 150q19 101 -41 180.5t-168 79.5q-90 0 -158.5 -60t-84.5 -150q-18 -106 43 -183t168 -77zM401 659q-77 0 -112 46.5
t-22 116.5h67q-9 -47 11.5 -75.5t65.5 -29.5q45 1 74 29t38 76h67q-13 -70 -63.5 -116.5t-125.5 -46.5z" />
    <glyph glyph-name="ohungarumlaut.smcp" unicode="&#xe28a;" horiz-adv-x="712" 
d="M291 653l145 162h95l-173 -162h-67zM437 653l145 162h94l-172 -162h-67zM342 -10q-140 0 -222 101t-58 240q21 119 113 197t210 78q142 0 223.5 -104.5t57.5 -238.5q-21 -119 -111.5 -196t-212.5 -77zM349 63q87 0 156 60t85 150q19 101 -41 180.5t-168 79.5
q-90 0 -158.5 -60t-84.5 -150q-18 -106 43 -183t168 -77z" />
    <glyph glyph-name="ohungarumlaut.smcp" unicode="&#xf656;" horiz-adv-x="712" 
d="M291 653l145 162h95l-173 -162h-67zM437 653l145 162h94l-172 -162h-67zM342 -10q-140 0 -222 101t-58 240q21 119 113 197t210 78q142 0 223.5 -104.5t57.5 -238.5q-21 -119 -111.5 -196t-212.5 -77zM349 63q87 0 156 60t85 150q19 101 -41 180.5t-168 79.5
q-90 0 -158.5 -60t-84.5 -150q-18 -106 43 -183t168 -77z" />
    <glyph glyph-name="oslash.smcp" unicode="&#xe295;" horiz-adv-x="712" 
d="M342 -10q-99 0 -172 53l-41 -43h-91l84 88q-85 103 -60 243q21 119 113 197t210 78q102 0 176 -58l46 48h91l-90 -94q81 -102 58 -239q-21 -119 -111.5 -196t-212.5 -77zM138 323q-18 -103 38 -178l332 348q-54 40 -127 40q-90 0 -158.5 -60t-84.5 -150zM349 63
q87 0 156 60t85 150q17 98 -36 173l-330 -346q55 -37 125 -37z" />
    <glyph glyph-name="oslash.smcp" unicode="&#xf7f8;" horiz-adv-x="712" 
d="M342 -10q-99 0 -172 53l-41 -43h-91l84 88q-85 103 -60 243q21 119 113 197t210 78q102 0 176 -58l46 48h91l-90 -94q81 -102 58 -239q-21 -119 -111.5 -196t-212.5 -77zM138 323q-18 -103 38 -178l332 348q-54 40 -127 40q-90 0 -158.5 -60t-84.5 -150zM349 63
q87 0 156 60t85 150q17 98 -36 173l-330 -346q55 -37 125 -37z" />
    <glyph glyph-name="oslashacute.smcp" unicode="&#xe296;" horiz-adv-x="712" 
d="M342 -10q-99 0 -172 53l-41 -43h-91l84 88q-85 103 -60 243q21 119 113 197t210 78q102 0 176 -58l46 48h91l-90 -94q81 -102 58 -239q-21 -119 -111.5 -196t-212.5 -77zM138 323q-18 -103 38 -178l332 348q-54 40 -127 40q-90 0 -158.5 -60t-84.5 -150zM349 63
q87 0 156 60t85 150q17 98 -36 173l-330 -346q55 -37 125 -37zM356 654l145 162h100l-173 -162h-72z" />
    <glyph glyph-name="oslashacute.smcp" unicode="&#xf627;" horiz-adv-x="712" 
d="M342 -10q-99 0 -172 53l-41 -43h-91l84 88q-85 103 -60 243q21 119 113 197t210 78q102 0 176 -58l46 48h91l-90 -94q81 -102 58 -239q-21 -119 -111.5 -196t-212.5 -77zM138 323q-18 -103 38 -178l332 348q-54 40 -127 40q-90 0 -158.5 -60t-84.5 -150zM349 63
q87 0 156 60t85 150q17 98 -36 173l-330 -346q55 -37 125 -37zM356 654l145 162h100l-173 -162h-72z" />
    <glyph glyph-name="oe.smcp" unicode="&#xe298;" horiz-adv-x="998" 
d="M538 0l13 77q-82 -87 -209 -87q-140 0 -222 101t-58 240q21 119 113 197t210 78q83 0 143.5 -36t91.5 -100l22 126h361l-13 -74h-284l-32 -186h284l-14 -74h-283l-33 -187h283l-13 -75h-360zM349 63q83 0 148.5 55t85.5 139l5 31q12 98 -46 171.5t-161 73.5
q-90 0 -158.5 -60t-84.5 -150q-18 -106 43 -183t168 -77z" />
    <glyph glyph-name="oe.smcp" unicode="&#xf6fa;" horiz-adv-x="998" 
d="M538 0l13 77q-82 -87 -209 -87q-140 0 -222 101t-58 240q21 119 113 197t210 78q83 0 143.5 -36t91.5 -100l22 126h361l-13 -74h-284l-32 -186h284l-14 -74h-283l-33 -187h283l-13 -75h-360zM349 63q83 0 148.5 55t85.5 139l5 31q12 98 -46 171.5t-161 73.5
q-90 0 -158.5 -60t-84.5 -150q-18 -106 43 -183t168 -77z" />
    <glyph glyph-name="racute.smcp" unicode="&#xe29a;" horiz-adv-x="522" 
d="M26 0l104 596h176q95 0 150 -61t40 -150q-12 -66 -64 -112t-133 -52q11 -65 48.5 -106t91.5 -41h11l-13 -74h-11q-102 0 -157.5 86.5t-51.5 200.5h49q65 0 103 30.5t48 79.5q10 54 -25 90t-98 38h-99l-92 -525h-77zM272 654l145 162h100l-173 -162h-72z" />
    <glyph glyph-name="racute.smcp" unicode="&#xf658;" horiz-adv-x="522" 
d="M26 0l104 596h176q95 0 150 -61t40 -150q-12 -66 -64 -112t-133 -52q11 -65 48.5 -106t91.5 -41h11l-13 -74h-11q-102 0 -157.5 86.5t-51.5 200.5h49q65 0 103 30.5t48 79.5q10 54 -25 90t-98 38h-99l-92 -525h-77zM272 654l145 162h100l-173 -162h-72z" />
    <glyph glyph-name="rcaron.smcp" unicode="&#xe29b;" horiz-adv-x="522" 
d="M26 0l104 596h176q95 0 150 -61t40 -150q-12 -66 -64 -112t-133 -52q11 -65 48.5 -106t91.5 -41h11l-13 -74h-11q-102 0 -157.5 86.5t-51.5 200.5h49q65 0 103 30.5t48 79.5q10 54 -25 90t-98 38h-99l-92 -525h-77zM270 654l-91 162h80l54 -100l89 100h81l-148 -162h-65z
" />
    <glyph glyph-name="rcaron.smcp" unicode="&#xf659;" horiz-adv-x="522" 
d="M26 0l104 596h176q95 0 150 -61t40 -150q-12 -66 -64 -112t-133 -52q11 -65 48.5 -106t91.5 -41h11l-13 -74h-11q-102 0 -157.5 86.5t-51.5 200.5h49q65 0 103 30.5t48 79.5q10 54 -25 90t-98 38h-99l-92 -525h-77zM270 654l-91 162h80l54 -100l89 100h81l-148 -162h-65z
" />
    <glyph glyph-name="rcommaaccent.smcp" unicode="&#xe29e;" horiz-adv-x="522" 
d="M26 0l104 596h176q95 0 150 -61t40 -150q-12 -66 -64 -112t-133 -52q11 -65 48.5 -106t91.5 -41h11l-13 -74h-11q-102 0 -157.5 86.5t-51.5 200.5h49q65 0 103 30.5t48 79.5q10 54 -25 90t-98 38h-99l-92 -525h-77zM116 -254l78 204h70l-98 -204h-50z" />
    <glyph glyph-name="rcommaaccent.smcp" unicode="&#xf65a;" horiz-adv-x="522" 
d="M26 0l104 596h176q95 0 150 -61t40 -150q-12 -66 -64 -112t-133 -52q11 -65 48.5 -106t91.5 -41h11l-13 -74h-11q-102 0 -157.5 86.5t-51.5 200.5h49q65 0 103 30.5t48 79.5q10 54 -25 90t-98 38h-99l-92 -525h-77zM116 -254l78 204h70l-98 -204h-50z" />
    <glyph glyph-name="A.swsh" unicode="&#xe2e0;" horiz-adv-x="1123" 
d="M970 0l-38 199h-314l-115 -210q-99 -176 -261 -176q-119 0 -182 79t-44 184q15 88 83.5 142.5t169.5 54.5h306l214 385h-349q-49 0 -85 -25.5t-45 -68.5q-8 -44 19.5 -79t74.5 -35q55 0 83 41l66 -36q-52 -77 -154 -77q-85 0 -132.5 61.5t-29.5 138.5q16 70 72.5 111
t139.5 41h459l142 -730h-80zM246 -115q112 0 187 130l102 184h-273q-68 0 -115 -38t-55 -100q-12 -69 31.5 -122.5t122.5 -53.5zM852 625l-195 -352h261z" />
    <glyph glyph-name="B.swsh" unicode="&#xe2e1;" horiz-adv-x="910" 
d="M65 -93l-66 47q66 117 206 117h121l100 567h79l-38 -217h165q54 0 94.5 31t50.5 79q14 73 -49.5 121t-213.5 48q-163 0 -247 -52t-98 -131q-10 -58 15.5 -101t77.5 -65l-42 -66q-70 29 -106.5 94.5t-21.5 148.5q19 110 128.5 177t291.5 67q98 0 171.5 -22t112.5 -58.5
t54.5 -79t6.5 -87.5q-17 -94 -110 -139q57 -27 85 -78.5t16 -118.5q-16 -88 -85 -138.5t-187 -50.5h-362q-108 0 -149 -93zM627 351h-173l-49 -280h177q163 0 187 130q11 63 -29.5 106.5t-112.5 43.5z" />
    <glyph glyph-name="C.swsh" unicode="&#xe2e2;" horiz-adv-x="826" 
d="M431 -126q-85 0 -158.5 35t-125 97t-72.5 156t-2 203q21 122 95 217t172 142.5t202 47.5q143 0 221 -80t55 -189q-11 -67 -65.5 -114t-130.5 -47q-111 0 -171 86l72 51q37 -60 102 -60q45 0 76.5 27.5t39.5 70.5q14 76 -42 129t-160 53q-134 0 -247.5 -95t-140.5 -248
q-16 -99 -0.5 -175t57.5 -127.5t101 -78t130 -26.5q149 0 240 124l62 -50q-117 -149 -310 -149z" />
    <glyph glyph-name="D.swsh" unicode="&#xe2e3;" horiz-adv-x="984" 
d="M87 -93l-65 47q64 117 204 117h125l101 572h79l-101 -572h130q117 2 202 75t106 196q13 68 -4 131.5t-60.5 115t-122 82t-180.5 30.5q-155 0 -237 -54.5t-96 -134.5q-10 -58 16.5 -102t78.5 -67l-42 -65q-70 29 -107.5 95.5t-22.5 149.5q19 112 128 180.5t289 68.5
q117 0 209 -38t146 -100.5t76 -142t7 -164.5q-27 -152 -134.5 -239.5t-254.5 -87.5h-323q-106 0 -147 -93z" />
    <glyph glyph-name="E.swsh" unicode="&#xe2e4;" horiz-adv-x="680" 
d="M279 -155q-123 0 -192 77.5t-51 185.5q12 75 65.5 123t133.5 71q-71 40 -109 108.5t-22 154.5q20 121 118.5 190t225.5 69t195 -67t52 -159q-11 -58 -57 -96.5t-108 -38.5q-85 0 -139 53l56 58q35 -38 83 -38q36 0 59.5 23t29.5 57q10 54 -37.5 95t-136.5 41
q-100 0 -173 -55t-87 -143q-16 -95 50 -160.5t170 -65.5h2l-13 -74h-12q-107 0 -180 -39.5t-85 -117.5q-12 -73 35.5 -125t129.5 -52q136 0 217 123l67 -49q-106 -149 -287 -149z" />
    <glyph glyph-name="F.swsh" unicode="&#xe2e5;" horiz-adv-x="899" 
d="M266 -141q-94 0 -145 59.5t-37 144.5q9 51 49 95l65 -48q-28 -27 -34 -59q-8 -48 21 -82.5t79 -34.5q104 0 129 135l103 589h-131q-77 0 -130.5 -38.5t-65.5 -104.5q-16 -91 59 -150l-43 -65q-53 33 -79 93.5t-14 132.5q16 93 91.5 148.5t182.5 55.5h443q50 0 73.5 23.5
t32.5 70.5l10 55h79l-13 -75q-28 -147 -175 -147h-241l-47 -269h341l-13 -74h-341l-46 -263q-17 -89 -67 -140.5t-136 -51.5z" />
    <glyph glyph-name="G.swsh" unicode="&#xe2e6;" horiz-adv-x="865" 
d="M443 -296q-82 0 -140.5 34t-85.5 91l83 29q38 -80 153 -80q88 0 144 58t71 141l31 177q-84 -164 -284 -164q-113 0 -197.5 57t-121.5 152t-18 206q24 144 136 239.5t264 95.5q105 0 186.5 -49.5t125.5 -132.5l-75 -40q-74 147 -245 147q-118 0 -206 -77t-109 -191
q-23 -132 53.5 -231.5t216.5 -99.5q115 0 192.5 67.5t106.5 178.5h-300l13 73h380l-75 -421q-20 -113 -96 -186.5t-203 -73.5z" />
    <glyph glyph-name="H.swsh" unicode="&#xe2e7;" horiz-adv-x="1058" 
d="M276 -157q-105 0 -167.5 72.5t-43.5 172.5q13 74 72 131l60 -53q-44 -37 -53 -89q-12 -67 27.5 -113.5t110.5 -46.5q133 0 165 186l97 555h-248q-45 0 -81 -26t-44 -71q-7 -44 20 -77.5t73 -33.5q50 0 81 34l46 -55q-48 -50 -132 -50q-81 0 -128 57.5t-34 132.5
q12 71 68.5 116t132.5 45h338l-58 -327h355l56 314q16 89 65.5 139.5t132.5 50.5q99 0 150 -63l-60 -48q-30 40 -87 40q-52 0 -82.5 -34.5t-41.5 -91.5l-124 -710h-79l57 328h-355l-43 -248q-40 -237 -246 -237z" />
    <glyph glyph-name="I.swsh" unicode="&#xe2e8;" horiz-adv-x="863" 
d="M190 295q-53 33 -79.5 93t-14.5 131q16 95 91.5 153t182.5 58h371q50 0 74 23.5t32 70.5l10 55h80l-14 -75q-26 -147 -174 -147h-156l-102 -583h292l-13 -74h-530q-50 0 -73.5 -23.5t-32.5 -70.5l-10 -55h-79l13 75q28 148 175 148h179l102 583h-146q-75 0 -129.5 -40.5
t-65.5 -104.5q-16 -92 60 -152z" />
    <glyph glyph-name="J.swsh" unicode="&#xe2e9;" horiz-adv-x="624" 
d="M271 -186q-105 0 -167.5 72.5t-43.5 172.5q13 74 72 131l60 -53q-44 -37 -53 -89q-12 -67 27.5 -113.5t110.5 -46.5q134 0 165 186l102 584h-248q-45 0 -81 -26t-44 -71q-7 -44 20 -77.5t73 -33.5q50 0 81 34l46 -55q-48 -50 -132 -50q-81 0 -128 57.5t-34 132.5
q12 71 68.5 116t132.5 45h338l-119 -679q-40 -237 -246 -237z" />
    <glyph glyph-name="K.swsh" unicode="&#xe2ea;" horiz-adv-x="1102" 
d="M276 -157q-105 0 -167.5 72.5t-43.5 172.5q13 74 72 131l60 -53q-44 -37 -53 -89q-12 -67 27.5 -113.5t110.5 -46.5q133 0 165 186l97 555h-248q-45 0 -81 -26t-44 -71q-7 -44 20 -77.5t73 -33.5q50 0 81 34l46 -55q-48 -50 -132 -50q-81 0 -128 57.5t-34 132.5
q12 71 68.5 116t132.5 45h338l-72 -412l433 412h102l-316 -300l120 -262q26 -62 45 -78t70 -16h14l-14 -74h-23q-69 0 -102 31t-67 119l-105 230l-176 -167l-23 -133q-40 -237 -246 -237z" />
    <glyph glyph-name="L.swsh" unicode="&#xe2eb;" horiz-adv-x="882" 
d="M122 -184q-70 0 -109.5 48.5t-29.5 110.5q10 54 54 86.5t107 32.5q36 0 82 -18l90 520q15 88 67 137t139 49q106 0 173 -84l-66 -48q-41 58 -111 58q-102 0 -123 -122l-96 -549q20 -12 68.5 -44t75 -47.5t67 -30.5t73.5 -15q53 0 79 29t36 90l18 105h82l-21 -119
q-33 -180 -196 -180q-27 0 -56 7t-49 14t-53.5 26.5t-45 26.5t-49 33t-42.5 29q-32 -145 -164 -145zM126 -109q67 0 83 89l4 25q-40 21 -73 21q-70 0 -80 -62q-5 -28 14.5 -50.5t51.5 -22.5z" />
    <glyph glyph-name="M.swsh" unicode="&#xe2ec;" horiz-adv-x="1136" 
d="M192 -140q-90 0 -141.5 61.5t-37.5 144.5q11 59 53 100l55 -52q-27 -26 -33 -57q-8 -50 22.5 -87t83.5 -37q50 0 80 30t39 82l117 667q-46 82 -112 82q-73 0 -89 -75l-12 -64h-79l15 78q12 61 54 97t108 36q67 0 109 -30t74 -88l219 -398l361 380h70l-128 -730h-79
l104 592l-346 -363l-209 374l-98 -563q-15 -84 -65.5 -132t-134.5 -48z" />
    <glyph glyph-name="N.swsh" unicode="&#xe2ed;" horiz-adv-x="1112" 
d="M275 -156q-108 0 -170 72.5t-43 175.5q13 76 72 130l60 -53q-46 -39 -54 -89q-12 -68 28 -115.5t109 -47.5q73 0 114.5 49.5t55.5 133.5l98 558h-249q-45 0 -81 -26t-44 -71q-7 -44 20.5 -77t73.5 -33q50 0 79 32l47 -54q-48 -50 -132 -50q-81 0 -128 57.5t-34 132.5
q12 71 68.5 116t132.5 45h338l304 -600l103 587q16 89 65.5 139.5t132.5 50.5q99 0 150 -63l-60 -48q-30 40 -87 40q-52 0 -82.5 -34.5t-41.5 -91.5l-124 -710h-78l-305 599l-91 -520q-20 -109 -81.5 -172t-165.5 -63z" />
    <glyph glyph-name="O.swsh" unicode="&#xe2ee;" horiz-adv-x="913" 
d="M418 -113q-64 0 -123 17.5t-108 53t-82 88.5t-45 124t4 159q18 102 83 177l71 -38q-60 -69 -75 -157q-28 -156 53.5 -251.5t226.5 -95.5q146 0 246.5 105t125.5 249q27 159 -51 271t-216 112q-84 0 -135.5 -38.5t-61.5 -97.5q-8 -53 20.5 -88.5t82.5 -35.5q76 0 109 84
l77 -22q-54 -134 -186 -134q-90 0 -143 60t-37 149q15 87 89.5 142t186.5 54q121 0 208 -66t122 -172t13 -227q-14 -84 -51 -159t-93.5 -134t-137 -94t-173.5 -35z" />
    <glyph glyph-name="P.swsh" unicode="&#xe2ef;" horiz-adv-x="932" 
d="M223 -142q-91 0 -143 59.5t-38 144.5q9 50 51 96l63 -48q-28 -27 -34 -59q-8 -48 22 -83t82 -35q102 0 127 139l100 571h79l-63 -361q63 -21 139 -21q90 0 150.5 45.5t74.5 126.5q20 110 -68.5 189.5t-262.5 79.5q-156 0 -237 -52.5t-94 -129.5q-9 -45 8.5 -83.5
t52.5 -62.5l-42 -65q-54 30 -81.5 90.5t-15.5 131.5q18 106 124.5 173.5t292.5 67.5q201 0 313 -103.5t88 -242.5q-19 -108 -101 -172t-205 -63q-76 -1 -148 23l-26 -152q-16 -95 -67 -149.5t-141 -54.5z" />
    <glyph glyph-name="Q.swsh" unicode="&#xe2f0;" horiz-adv-x="850" 
d="M418 -10q-170 0 -270 123t-71 292q25 145 137.5 240t256.5 95q114 0 200 -60t122.5 -156t17.5 -201q-25 -142 -135 -237q33 -66 71 -102t95 -36h26l-14 -75h-21q-48 0 -85.5 16.5t-66.5 50t-46.5 63t-39.5 76.5l-9 19q-19 40 -33 64.5t-34.5 50.5t-45.5 38t-56 12h-44
l14 75h44q40 0 72.5 -14t58 -43.5t42.5 -56t38 -69.5q73 74 92 178q15 83 -12.5 159t-95 125t-159.5 49q-115 0 -203.5 -76.5t-108.5 -192.5q-23 -135 55 -234t215 -99q60 0 115 23q22 -44 34 -65q-77 -32 -156 -32z" />
    <glyph glyph-name="R.swsh" unicode="&#xe2f1;" horiz-adv-x="933" 
d="M881 -131h-5q-45 0 -87 12t-83.5 41.5t-72.5 74t-50.5 114.5t-19.5 158h38q93 0 156 45t77 127q19 105 -71 183t-273 78q-147 0 -227 -53.5t-93 -128.5q-8 -46 9.5 -84t52.5 -62l-43 -65q-54 30 -81 90t-15 132q16 101 123 171t280 70q212 0 327 -103t88 -245
q-17 -94 -89 -154.5t-178 -67.5q6 -70 30 -122t59 -81t73 -42.5t79 -13.5h10zM217 -141q-92 0 -144 60t-38 145q9 50 49 94l64 -48q-28 -27 -34 -58q-8 -49 21.5 -84.5t81.5 -35.5q100 0 121 126l102 585h79l-105 -600q-32 -184 -197 -184z" />
    <glyph glyph-name="S.swsh" unicode="&#xe2f2;" horiz-adv-x="697" 
d="M299 -175q-147 0 -223.5 84t-54.5 189q11 65 64 108t125 43q116 0 173 -93l-73 -50q-32 67 -104 67q-41 0 -71 -25.5t-37 -65.5q-13 -71 44.5 -127t161.5 -56q100 0 160 54t76 139q10 49 -5 95t-45 83t-68.5 73.5t-77.5 72.5t-69.5 72t-46 80.5t-7.5 91.5q13 76 73 120.5
t147 44.5q72 0 126.5 -33t86.5 -85l-69 -47q-50 92 -146 92q-53 0 -90.5 -27.5t-46.5 -74.5q-7 -34 9.5 -69.5t47.5 -67.5t69.5 -66.5t76.5 -73.5t67.5 -81t43 -96.5t2.5 -113.5q-20 -110 -103.5 -183.5t-215.5 -73.5z" />
    <glyph glyph-name="T.swsh" unicode="&#xe2f3;" horiz-adv-x="871" 
d="M313 -182q-88 0 -139.5 61.5t-37.5 144.5q11 61 52 100l56 -53q-28 -26 -33 -57q-8 -50 22.5 -87t83.5 -37q98 0 118 113l115 654h-186q-76 0 -130.5 -40.5t-66.5 -107.5q-8 -45 9 -85t51 -67l-43 -65q-53 33 -79.5 94t-14.5 132q16 94 92.5 153t182.5 59h425
q50 0 73.5 23.5t32.5 70.5l10 55h79l-13 -75q-28 -147 -175 -147h-168l-116 -660q-15 -86 -65 -132.5t-135 -46.5z" />
    <glyph glyph-name="U.swsh" unicode="&#xe2f4;" horiz-adv-x="950" 
d="M607 -10q-121 0 -183 72.5t-41 191.5l72 404h-89q-76 0 -132 -42t-68 -109q-16 -89 60 -149l-44 -65q-52 33 -78.5 93.5t-14.5 131.5q16 93 94 152.5t183 59.5h181l-86 -482q-13 -79 29 -132t127 -53q67 0 117 43.5t62 111.5l89 499q15 89 64.5 139.5t132.5 50.5
q99 0 150 -63l-60 -48q-30 40 -87 40q-100 0 -123 -126l-87 -489q-19 -110 -91 -170.5t-177 -60.5z" />
    <glyph glyph-name="V.swsh" unicode="&#xe2f5;" horiz-adv-x="951" 
d="M536 0l-121 658h-49q-76 0 -132 -42t-68 -109q-16 -89 60 -149l-44 -65q-52 33 -78.5 93.5t-14.5 131.5q16 93 94 152.5t183 59.5h117l109 -614l268 498q33 61 79 88.5t123 27.5h307l-14 -73h-296q-50 0 -79 -17.5t-52 -59.5l-316 -580h-76z" />
    <glyph glyph-name="W.swsh" unicode="&#xe2f6;" horiz-adv-x="1337" 
d="M487 0l-78 658h-43q-76 0 -132 -42t-68 -109q-16 -89 60 -149l-44 -65q-52 33 -78.5 93.5t-14.5 131.5q16 93 94 152.5t183 59.5h116l67 -605l303 605h76l94 -607l227 483q32 69 80 96.5t130 27.5h278l-14 -73h-267q-53 0 -85.5 -17.5t-52.5 -60.5l-276 -579h-78l-94 609
l-305 -609h-78z" />
    <glyph glyph-name="X.swsh" unicode="&#xe2f7;" horiz-adv-x="1029" 
d="M233 -145q-102 0 -156.5 69.5t-38.5 161.5q13 76 73 123.5t148 47.5h142l-13 -74h-136q-55 0 -93 -30.5t-45 -80.5q-9 -56 26 -100t98 -44q73 0 121 60l322 392l-127 263q-28 58 -55.5 84.5t-70.5 26.5q-36 0 -60 -20.5t-32 -56.5l-12 -64h-79l15 78q11 60 57.5 97
t113.5 37t109.5 -35.5t79.5 -110.5l115 -236l235 287h92l-291 -356l182 -374h-82l-154 310l-299 -365q-71 -90 -185 -90z" />
    <glyph glyph-name="Y.swsh" unicode="&#xe2f8;" horiz-adv-x="890" 
d="M370 -141q-94 0 -144.5 59.5t-36.5 144.5q9 51 49 95l64 -49q-28 -27 -34 -58q-8 -48 21 -82.5t80 -34.5q103 0 128 134l49 284l-131 290q-27 61 -54.5 90t-68.5 29q-71 0 -84 -74l-11 -65h-78l14 78q11 59 53 94.5t104 35.5q70 0 114.5 -41t78.5 -116l114 -255l248 312
h91l-312 -386l-52 -294q-36 -191 -202 -191z" />
    <glyph glyph-name="Z.swsh" unicode="&#xe2f9;" horiz-adv-x="733" 
d="M7 0l14 73l604 584h-323q-51 0 -74.5 -24.5t-33.5 -77.5l-14 -77h-78l15 87q15 87 57.5 126t130.5 39h439l-13 -71l-607 -586h350q49 0 71.5 25t31.5 76l17 98h78l-19 -112q-7 -39 -16.5 -65t-28.5 -49.5t-51.5 -34.5t-80.5 -11h-469z" />
    </font>
</defs>
</svg>
